<?xml version="1.0" encoding="UTF-8" standalone="no"?>
<!DOCTYPE svg PUBLIC "-//W3C//DTD SVG 1.1//EN"
 "http://www.w3.org/Graphics/SVG/1.1/DTD/svg11.dtd">
<!-- Generated by graphviz version 2.40.1 (20161225.0304)
 -->
<!-- Title: ViennaRNA/alifold.h Pages: 1 -->
<svg width="1546pt" height="464pt"
 viewBox="0.00 0.00 1545.50 464.00" xmlns="http://www.w3.org/2000/svg" xmlns:xlink="http://www.w3.org/1999/xlink">
<g id="graph0" class="graph" transform="scale(1 1) rotate(0) translate(4 460)">
<title>ViennaRNA/alifold.h</title>
<!-- Node0 -->
<g id="node1" class="node">
<title>Node0</title>
<polygon fill="#bfbfbf" stroke="#000000" points="930.5,-436.5 930.5,-455.5 1035.5,-455.5 1035.5,-436.5 930.5,-436.5"/>
<text text-anchor="middle" x="983" y="-443.5" font-family="Helvetica,sans-Serif" font-size="10.00" fill="#000000">ViennaRNA/alifold.h</text>
</g>
<!-- Node1 -->
<g id="node2" class="node">
<title>Node1</title>
<g id="a_node2"><a xlink:href="datastructures_2basic_8h.html" target="_top" xlink:title="Various data structures and pre&#45;processor macros. ">
<polygon fill="none" stroke="#000000" points="610,-246.5 610,-276.5 744,-276.5 744,-246.5 610,-246.5"/>
<text text-anchor="start" x="618" y="-264.5" font-family="Helvetica,sans-Serif" font-size="10.00" fill="#000000">ViennaRNA/datastructures</text>
<text text-anchor="middle" x="677" y="-253.5" font-family="Helvetica,sans-Serif" font-size="10.00" fill="#000000">/basic.h</text>
</a>
</g>
</g>
<!-- Node0&#45;&gt;Node1 -->
<g id="edge1" class="edge">
<title>Node0&#45;&gt;Node1</title>
<path fill="none" stroke="#191970" d="M930.404,-442.2279C865.5804,-434.6742 756.595,-412.0055 696,-344 682.0884,-328.387 677.7713,-304.6458 676.6812,-286.6338"/>
<polygon fill="#191970" stroke="#191970" points="680.1764,-286.4244 676.3631,-276.5396 673.1799,-286.6449 680.1764,-286.4244"/>
</g>
<!-- Node6 -->
<g id="node7" class="node">
<title>Node6</title>
<g id="a_node7"><a xlink:href="params_2basic_8h.html" target="_top" xlink:title="Functions to deal with sets of energy parameters. ">
<polygon fill="none" stroke="#000000" points="1233,-129 1233,-148 1371,-148 1371,-129 1233,-129"/>
<text text-anchor="middle" x="1302" y="-136" font-family="Helvetica,sans-Serif" font-size="10.00" fill="#000000">ViennaRNA/params/basic.h</text>
</a>
</g>
</g>
<!-- Node0&#45;&gt;Node6 -->
<g id="edge37" class="edge">
<title>Node0&#45;&gt;Node6</title>
<path fill="none" stroke="#191970" d="M1035.8491,-442.7259C1150.9385,-434.1476 1414,-406.0572 1414,-328.5 1414,-328.5 1414,-328.5 1414,-261.5 1414,-211.4746 1362.7247,-172.8343 1329.5619,-153.0748"/>
<polygon fill="#191970" stroke="#191970" points="1331.1605,-149.9567 1320.7463,-148.0085 1327.6725,-156.0258 1331.1605,-149.9567"/>
</g>
<!-- Node17 -->
<g id="node18" class="node">
<title>Node17</title>
<g id="a_node18"><a xlink:href="ribo_8h.html" target="_top" xlink:title="Parse RiboSum Scoring Matrices for Covariance Scoring of Alignments. ">
<polygon fill="none" stroke="#000000" points="1442.5,-380.5 1442.5,-399.5 1537.5,-399.5 1537.5,-380.5 1442.5,-380.5"/>
<text text-anchor="middle" x="1490" y="-387.5" font-family="Helvetica,sans-Serif" font-size="10.00" fill="#000000">ViennaRNA/ribo.h</text>
</a>
</g>
</g>
<!-- Node0&#45;&gt;Node17 -->
<g id="edge38" class="edge">
<title>Node0&#45;&gt;Node17</title>
<path fill="none" stroke="#191970" d="M1035.5196,-441.5464C1118.8751,-434.2585 1286.5153,-418.7073 1428,-400 1429.4524,-399.808 1430.9232,-399.6085 1432.4065,-399.403"/>
<polygon fill="#191970" stroke="#191970" points="1432.9159,-402.8658 1442.3128,-397.9721 1431.9152,-395.9377 1432.9159,-402.8658"/>
</g>
<!-- Node18 -->
<g id="node19" class="node">
<title>Node18</title>
<g id="a_node19"><a xlink:href="mfe_8h.html" target="_top" xlink:title="Compute Minimum Free energy (MFE) and backtrace corresponding secondary structures from RNA sequence ...">
<polygon fill="none" stroke="#000000" points="553,-319 553,-338 649,-338 649,-319 553,-319"/>
<text text-anchor="middle" x="601" y="-326" font-family="Helvetica,sans-Serif" font-size="10.00" fill="#000000">ViennaRNA/mfe.h</text>
</a>
</g>
</g>
<!-- Node0&#45;&gt;Node18 -->
<g id="edge39" class="edge">
<title>Node0&#45;&gt;Node18</title>
<path fill="none" stroke="#191970" d="M930.4526,-442.8916C851.8358,-437.5024 708.0171,-424.5699 663,-400 640.4557,-387.6955 622.3261,-363.7581 611.6257,-346.9824"/>
<polygon fill="#191970" stroke="#191970" points="614.3942,-344.799 606.2067,-338.0748 608.4139,-348.4372 614.3942,-344.799"/>
</g>
<!-- Node19 -->
<g id="node20" class="node">
<title>Node19</title>
<g id="a_node20"><a xlink:href="part__func_8h.html" target="_top" xlink:title="Partition function implementations. ">
<polygon fill="none" stroke="#000000" points="923,-380.5 923,-399.5 1043,-399.5 1043,-380.5 923,-380.5"/>
<text text-anchor="middle" x="983" y="-387.5" font-family="Helvetica,sans-Serif" font-size="10.00" fill="#000000">ViennaRNA/part_func.h</text>
</a>
</g>
</g>
<!-- Node0&#45;&gt;Node19 -->
<g id="edge42" class="edge">
<title>Node0&#45;&gt;Node19</title>
<path fill="none" stroke="#191970" d="M983,-436.2455C983,-428.9382 983,-418.6944 983,-409.7046"/>
<polygon fill="#191970" stroke="#191970" points="986.5001,-409.6426 983,-399.6427 979.5001,-409.6427 986.5001,-409.6426"/>
</g>
<!-- Node22 -->
<g id="node23" class="node">
<title>Node22</title>
<g id="a_node23"><a xlink:href="boltzmann__sampling_8h.html" target="_top" xlink:title="Boltzmann Sampling of secondary structures from the ensemble. ">
<polygon fill="none" stroke="#000000" points="837,-313.5 837,-343.5 953,-343.5 953,-313.5 837,-313.5"/>
<text text-anchor="start" x="845" y="-331.5" font-family="Helvetica,sans-Serif" font-size="10.00" fill="#000000">ViennaRNA/boltzmann</text>
<text text-anchor="middle" x="895" y="-320.5" font-family="Helvetica,sans-Serif" font-size="10.00" fill="#000000">_sampling.h</text>
</a>
</g>
</g>
<!-- Node0&#45;&gt;Node22 -->
<g id="edge55" class="edge">
<title>Node0&#45;&gt;Node22</title>
<path fill="none" stroke="#191970" d="M960.891,-436.485C945.5477,-428.7849 925.8159,-416.5068 914,-400 904.4085,-386.6006 899.6587,-368.6737 897.3067,-354.1227"/>
<polygon fill="#191970" stroke="#191970" points="900.7199,-353.2371 895.935,-343.7844 893.7807,-354.1579 900.7199,-353.2371"/>
</g>
<!-- Node23 -->
<g id="node24" class="node">
<title>Node23</title>
<g id="a_node24"><a xlink:href="utils_2alignments_8h.html" target="_top" xlink:title="Various utility&#45; and helper&#45;functions for sequence alignments and comparative structure prediction...">
<polygon fill="none" stroke="#000000" points="1110,-252 1110,-271 1258,-271 1258,-252 1110,-252"/>
<text text-anchor="middle" x="1184" y="-259" font-family="Helvetica,sans-Serif" font-size="10.00" fill="#000000">ViennaRNA/utils/alignments.h</text>
</a>
</g>
</g>
<!-- Node0&#45;&gt;Node23 -->
<g id="edge53" class="edge">
<title>Node0&#45;&gt;Node23</title>
<path fill="none" stroke="#191970" d="M1002.9488,-436.4863C1034.3202,-420.7595 1095.7515,-386.7843 1136,-344 1153.8438,-325.032 1167.8687,-298.2614 1176.0388,-280.4164"/>
<polygon fill="#191970" stroke="#191970" points="1179.3288,-281.6299 1180.1573,-271.0675 1172.9228,-278.8078 1179.3288,-281.6299"/>
</g>
<!-- Node2 -->
<g id="node3" class="node">
<title>Node2</title>
<g id="a_node3"><a xlink:href="constants_8h.html" target="_top" xlink:title="Energy parameter constants. ">
<polygon fill="none" stroke="#000000" points="867,-62 867,-81 1025,-81 1025,-62 867,-62"/>
<text text-anchor="middle" x="946" y="-69" font-family="Helvetica,sans-Serif" font-size="10.00" fill="#000000">ViennaRNA/params/constants.h</text>
</a>
</g>
</g>
<!-- Node1&#45;&gt;Node2 -->
<g id="edge2" class="edge">
<title>Node1&#45;&gt;Node2</title>
<path fill="none" stroke="#191970" d="M681.8989,-246.4213C691.967,-217.8559 717.745,-155.7844 761,-123 780.741,-108.0376 839.8963,-93.0934 886.0581,-83.1875"/>
<polygon fill="#191970" stroke="#191970" points="886.9279,-86.5811 895.9889,-81.0903 885.4815,-79.7322 886.9279,-86.5811"/>
</g>
<!-- Node4 -->
<g id="node5" class="node">
<title>Node4</title>
<g id="a_node5"><a xlink:href="fold__compound_8h.html" target="_top" xlink:title="The Basic Fold Compound API. ">
<polygon fill="none" stroke="#000000" points="796,-190.5 796,-209.5 942,-209.5 942,-190.5 796,-190.5"/>
<text text-anchor="middle" x="869" y="-197.5" font-family="Helvetica,sans-Serif" font-size="10.00" fill="#000000">ViennaRNA/fold_compound.h</text>
</a>
</g>
</g>
<!-- Node1&#45;&gt;Node4 -->
<g id="edge4" class="edge">
<title>Node1&#45;&gt;Node4</title>
<path fill="none" stroke="#191970" d="M723.9685,-246.4554C756.2852,-236.104 798.7351,-222.5067 829.3499,-212.7004"/>
<polygon fill="#191970" stroke="#191970" points="830.7911,-215.914 839.2468,-209.5303 828.6557,-209.2477 830.7911,-215.914"/>
</g>
<!-- Node5 -->
<g id="node6" class="node">
<title>Node5</title>
<g id="a_node6"><a xlink:href="model_8h.html" target="_top" xlink:title="The model details data structure and its corresponding modifiers. ">
<polygon fill="none" stroke="#000000" points="1249,-62 1249,-81 1355,-81 1355,-62 1249,-62"/>
<text text-anchor="middle" x="1302" y="-69" font-family="Helvetica,sans-Serif" font-size="10.00" fill="#000000">ViennaRNA/model.h</text>
</a>
</g>
</g>
<!-- Node1&#45;&gt;Node5 -->
<g id="edge28" class="edge">
<title>Node1&#45;&gt;Node5</title>
<path fill="none" stroke="#191970" d="M744.1216,-256.2171C911.932,-242.326 1339.2199,-202.4844 1380,-154 1401.0417,-128.9831 1362.0856,-101.7558 1332.0373,-85.6812"/>
<polygon fill="#191970" stroke="#191970" points="1333.5671,-82.5322 1323.0742,-81.0653 1330.3621,-88.7554 1333.5671,-82.5322"/>
</g>
<!-- Node1&#45;&gt;Node6 -->
<g id="edge29" class="edge">
<title>Node1&#45;&gt;Node6</title>
<path fill="none" stroke="#191970" d="M744.0481,-252.6971C808.3621,-244.135 907.8114,-229.5599 993,-210 1022.8732,-203.1409 1029.3439,-197.7443 1059,-190 1118.4925,-174.4643 1187.2977,-159.6994 1236.5589,-149.9947"/>
<polygon fill="#191970" stroke="#191970" points="1237.3089,-153.4145 1246.4525,-148.0624 1235.967,-146.5443 1237.3089,-153.4145"/>
</g>
<!-- Node8 -->
<g id="node9" class="node">
<title>Node8</title>
<g id="a_node9"><a xlink:href="dp__matrices_8h.html" target="_top" xlink:title="Functions to deal with standard dynamic programming (DP) matrices. ">
<polygon fill="none" stroke="#000000" points="1081.5,-129 1081.5,-148 1214.5,-148 1214.5,-129 1081.5,-129"/>
<text text-anchor="middle" x="1148" y="-136" font-family="Helvetica,sans-Serif" font-size="10.00" fill="#000000">ViennaRNA/dp_matrices.h</text>
</a>
</g>
</g>
<!-- Node1&#45;&gt;Node8 -->
<g id="edge30" class="edge">
<title>Node1&#45;&gt;Node8</title>
<path fill="none" stroke="#191970" d="M744.1397,-250.8371C798.1081,-242.0921 875.4701,-228.1962 942,-210 973.5036,-201.3837 1057.7078,-169.6879 1108.3057,-151.5212"/>
<polygon fill="#191970" stroke="#191970" points="1109.7096,-154.7364 1117.9516,-148.0791 1107.357,-148.1436 1109.7096,-154.7364"/>
</g>
<!-- Node9 -->
<g id="node10" class="node">
<title>Node9</title>
<g id="a_node10"><a xlink:href="hard_8h.html" target="_top" xlink:title="Functions and data structures for handling of secondary structure hard constraints. ">
<polygon fill="none" stroke="#000000" points="593.5,-123.5 593.5,-153.5 712.5,-153.5 712.5,-123.5 593.5,-123.5"/>
<text text-anchor="start" x="601.5" y="-141.5" font-family="Helvetica,sans-Serif" font-size="10.00" fill="#000000">ViennaRNA/constraints</text>
<text text-anchor="middle" x="653" y="-130.5" font-family="Helvetica,sans-Serif" font-size="10.00" fill="#000000">/hard.h</text>
</a>
</g>
</g>
<!-- Node1&#45;&gt;Node9 -->
<g id="edge31" class="edge">
<title>Node1&#45;&gt;Node9</title>
<path fill="none" stroke="#191970" d="M669.4429,-246.4178C662.9541,-225.8539 655.3887,-188.7363 652.3641,-163.8546"/>
<polygon fill="#191970" stroke="#191970" points="655.8263,-163.3027 651.3379,-153.7056 648.8618,-164.007 655.8263,-163.3027"/>
</g>
<!-- Node11 -->
<g id="node12" class="node">
<title>Node11</title>
<g id="a_node12"><a xlink:href="soft_8h.html" target="_top" xlink:title="Functions and data structures for secondary structure soft constraints. ">
<polygon fill="none" stroke="#000000" points="319.5,-123.5 319.5,-153.5 438.5,-153.5 438.5,-123.5 319.5,-123.5"/>
<text text-anchor="start" x="327.5" y="-141.5" font-family="Helvetica,sans-Serif" font-size="10.00" fill="#000000">ViennaRNA/constraints</text>
<text text-anchor="middle" x="379" y="-130.5" font-family="Helvetica,sans-Serif" font-size="10.00" fill="#000000">/soft.h</text>
</a>
</g>
</g>
<!-- Node1&#45;&gt;Node11 -->
<g id="edge32" class="edge">
<title>Node1&#45;&gt;Node11</title>
<path fill="none" stroke="#191970" d="M635.8451,-246.4178C578.9372,-224.0411 477.0911,-182.0638 420.1763,-157.5795"/>
<polygon fill="#191970" stroke="#191970" points="421.335,-154.2674 410.767,-153.513 418.5579,-160.693 421.335,-154.2674"/>
</g>
<!-- Node12 -->
<g id="node13" class="node">
<title>Node12</title>
<g id="a_node13"><a xlink:href="grammar_8h.html" target="_top" xlink:title="Implementations for the RNA folding grammar. ">
<polygon fill="none" stroke="#000000" points="457,-129 457,-148 575,-148 575,-129 457,-129"/>
<text text-anchor="middle" x="516" y="-136" font-family="Helvetica,sans-Serif" font-size="10.00" fill="#000000">ViennaRNA/grammar.h</text>
</a>
</g>
</g>
<!-- Node1&#45;&gt;Node12 -->
<g id="edge33" class="edge">
<title>Node1&#45;&gt;Node12</title>
<path fill="none" stroke="#191970" d="M652.644,-246.4178C619.4053,-223.1636 561.2123,-178.7412 532.5579,-154.7819"/>
<polygon fill="#191970" stroke="#191970" points="534.5512,-151.8816 524.6737,-148.0493 530.0055,-157.2048 534.5512,-151.8816"/>
</g>
<!-- Node13 -->
<g id="node14" class="node">
<title>Node13</title>
<g id="a_node14"><a xlink:href="structured__domains_8h.html" target="_top" xlink:title="This module provides interfaces that deal with additional structured domains in the folding grammar...">
<polygon fill="none" stroke="#000000" points="769.5,-123.5 769.5,-153.5 884.5,-153.5 884.5,-123.5 769.5,-123.5"/>
<text text-anchor="start" x="777.5" y="-141.5" font-family="Helvetica,sans-Serif" font-size="10.00" fill="#000000">ViennaRNA/structured</text>
<text text-anchor="middle" x="827" y="-130.5" font-family="Helvetica,sans-Serif" font-size="10.00" fill="#000000">_domains.h</text>
</a>
</g>
</g>
<!-- Node1&#45;&gt;Node13 -->
<g id="edge34" class="edge">
<title>Node1&#45;&gt;Node13</title>
<path fill="none" stroke="#191970" d="M697.1631,-246.464C710.5837,-236.3435 728.5257,-222.596 744,-210 764.028,-193.6972 786.16,-174.574 802.5298,-160.2084"/>
<polygon fill="#191970" stroke="#191970" points="804.8755,-162.8065 810.0686,-153.5717 800.25,-157.5524 804.8755,-162.8065"/>
</g>
<!-- Node14 -->
<g id="node15" class="node">
<title>Node14</title>
<g id="a_node15"><a xlink:href="unstructured__domains_8h.html" target="_top" xlink:title="Functions to modify unstructured domains, e.g. to incorporate ligands binding to unpaired stretches...">
<polygon fill="none" stroke="#000000" points="137.5,-123.5 137.5,-153.5 262.5,-153.5 262.5,-123.5 137.5,-123.5"/>
<text text-anchor="start" x="145.5" y="-141.5" font-family="Helvetica,sans-Serif" font-size="10.00" fill="#000000">ViennaRNA/unstructured</text>
<text text-anchor="middle" x="200" y="-130.5" font-family="Helvetica,sans-Serif" font-size="10.00" fill="#000000">_domains.h</text>
</a>
</g>
</g>
<!-- Node1&#45;&gt;Node14 -->
<g id="edge35" class="edge">
<title>Node1&#45;&gt;Node14</title>
<path fill="none" stroke="#191970" d="M609.6928,-258.1549C509.4234,-252.1387 326.6467,-237.4817 268,-210 244.7239,-199.0928 223.7431,-178.5312 211.0834,-162.2474"/>
<polygon fill="#191970" stroke="#191970" points="213.6308,-159.7958 204.9445,-153.7295 207.9519,-163.8885 213.6308,-159.7958"/>
</g>
<!-- Node15 -->
<g id="node16" class="node">
<title>Node15</title>
<g id="a_node16"><a xlink:href="utils_2structures_8h.html" target="_top" xlink:title="Various utility&#45; and helper&#45;functions for secondary structure parsing, converting, etc. ">
<polygon fill="none" stroke="#000000" points="28,-62 28,-81 172,-81 172,-62 28,-62"/>
<text text-anchor="middle" x="100" y="-69" font-family="Helvetica,sans-Serif" font-size="10.00" fill="#000000">ViennaRNA/utils/structures.h</text>
</a>
</g>
</g>
<!-- Node1&#45;&gt;Node15 -->
<g id="edge36" class="edge">
<title>Node1&#45;&gt;Node15</title>
<path fill="none" stroke="#191970" d="M609.9043,-256.6516C504.1351,-248.1913 304.003,-229.741 236,-210 180.6362,-193.9281 157.2635,-197.1203 119,-154 103.2872,-136.2928 96.3214,-109.3994 95.3371,-91.1713"/>
<polygon fill="#191970" stroke="#191970" points="98.8376,-91.1473 95.4725,-81.1012 91.8383,-91.0532 98.8376,-91.1473"/>
</g>
<!-- Node3 -->
<g id="node4" class="node">
<title>Node3</title>
<polygon fill="none" stroke="#bfbfbf" points="922,-.5 922,-19.5 970,-19.5 970,-.5 922,-.5"/>
<text text-anchor="middle" x="946" y="-7.5" font-family="Helvetica,sans-Serif" font-size="10.00" fill="#000000">limits.h</text>
</g>
<!-- Node2&#45;&gt;Node3 -->
<g id="edge3" class="edge">
<title>Node2&#45;&gt;Node3</title>
<path fill="none" stroke="#191970" d="M946,-61.8906C946,-53.3657 946,-40.6392 946,-29.9235"/>
<polygon fill="#191970" stroke="#191970" points="949.5001,-29.7448 946,-19.7449 942.5001,-29.7449 949.5001,-29.7448"/>
</g>
<!-- Node4&#45;&gt;Node5 -->
<g id="edge5" class="edge">
<title>Node4&#45;&gt;Node5</title>
<path fill="none" stroke="#191970" d="M923.7793,-190.4711C956.905,-183.3342 999.298,-171.7037 1034,-154 1053.7236,-143.9377 1053.0278,-132.5594 1073,-123 1125.7356,-97.759 1191.2882,-84.6343 1238.7277,-77.9731"/>
<polygon fill="#191970" stroke="#191970" points="1239.4216,-81.4113 1248.8655,-76.6089 1238.488,-74.4739 1239.4216,-81.4113"/>
</g>
<!-- Node4&#45;&gt;Node6 -->
<g id="edge6" class="edge">
<title>Node4&#45;&gt;Node6</title>
<path fill="none" stroke="#191970" d="M942.2988,-191.9615C1014.229,-183.7297 1126.9479,-169.9124 1224,-154 1231.3892,-152.7885 1239.1483,-151.3946 1246.789,-149.9501"/>
<polygon fill="#191970" stroke="#191970" points="1247.5684,-153.3643 1256.7241,-148.0329 1246.2421,-146.4911 1247.5684,-153.3643"/>
</g>
<!-- Node7 -->
<g id="node8" class="node">
<title>Node7</title>
<g id="a_node8"><a xlink:href="sequence_8h.html" target="_top" xlink:title="Functions and data structures related to sequence representations ,. ">
<polygon fill="none" stroke="#000000" points="903,-129 903,-148 1025,-148 1025,-129 903,-129"/>
<text text-anchor="middle" x="964" y="-136" font-family="Helvetica,sans-Serif" font-size="10.00" fill="#000000">ViennaRNA/sequence.h</text>
</a>
</g>
</g>
<!-- Node4&#45;&gt;Node7 -->
<g id="edge10" class="edge">
<title>Node4&#45;&gt;Node7</title>
<path fill="none" stroke="#191970" d="M883.8438,-190.3906C899.0418,-180.5519 922.8848,-165.1167 940.6206,-153.6351"/>
<polygon fill="#191970" stroke="#191970" points="942.768,-156.4144 949.2605,-148.0419 938.9639,-150.5382 942.768,-156.4144"/>
</g>
<!-- Node4&#45;&gt;Node8 -->
<g id="edge11" class="edge">
<title>Node4&#45;&gt;Node8</title>
<path fill="none" stroke="#191970" d="M912.2876,-190.4581C961.4642,-179.6181 1041.7424,-161.9224 1094.723,-150.2439"/>
<polygon fill="#191970" stroke="#191970" points="1095.5987,-153.6349 1104.6108,-148.0643 1094.0918,-146.799 1095.5987,-153.6349"/>
</g>
<!-- Node4&#45;&gt;Node9 -->
<g id="edge13" class="edge">
<title>Node4&#45;&gt;Node9</title>
<path fill="none" stroke="#191970" d="M835.25,-190.3906C803.3103,-181.2967 754.578,-167.4215 715.5396,-156.3064"/>
<polygon fill="#191970" stroke="#191970" points="716.4158,-152.9168 705.8395,-153.5446 714.4988,-159.6493 716.4158,-152.9168"/>
</g>
<!-- Node4&#45;&gt;Node11 -->
<g id="edge17" class="edge">
<title>Node4&#45;&gt;Node11</title>
<path fill="none" stroke="#191970" d="M795.6461,-194.4949C713.5146,-187.7655 576.308,-174.8341 448.7104,-153.9992"/>
<polygon fill="#191970" stroke="#191970" points="449.1954,-150.5319 438.7585,-152.3546 448.0541,-157.4383 449.1954,-150.5319"/>
</g>
<!-- Node4&#45;&gt;Node12 -->
<g id="edge20" class="edge">
<title>Node4&#45;&gt;Node12</title>
<path fill="none" stroke="#191970" d="M802.2746,-190.466C744.3802,-181.8992 658.4118,-168.4705 584,-154 578.137,-152.8599 572.0087,-151.5836 565.9351,-150.266"/>
<polygon fill="#191970" stroke="#191970" points="566.3418,-146.7714 555.8216,-148.0263 564.8283,-153.6058 566.3418,-146.7714"/>
</g>
<!-- Node4&#45;&gt;Node13 -->
<g id="edge22" class="edge">
<title>Node4&#45;&gt;Node13</title>
<path fill="none" stroke="#191970" d="M862.4375,-190.3906C857.227,-182.761 849.7181,-171.7658 842.9523,-161.8588"/>
<polygon fill="#191970" stroke="#191970" points="845.8043,-159.8287 837.2744,-153.5446 840.0237,-163.7765 845.8043,-159.8287"/>
</g>
<!-- Node4&#45;&gt;Node14 -->
<g id="edge23" class="edge">
<title>Node4&#45;&gt;Node14</title>
<path fill="none" stroke="#191970" d="M795.6177,-195.321C688.6494,-188.1921 483.7145,-173.37 310,-154 298.0206,-152.6642 285.334,-151.0568 272.9995,-149.39"/>
<polygon fill="#191970" stroke="#191970" points="273.1281,-145.8749 262.7446,-147.9806 272.1749,-152.8097 273.1281,-145.8749"/>
</g>
<!-- Node6&#45;&gt;Node1 -->
<g id="edge8" class="edge">
<title>Node6&#45;&gt;Node1</title>
<path fill="none" stroke="#191970" d="M1260.2207,-148.0624C1214.8224,-157.6686 1140.5912,-173.394 1077,-190 1047.3439,-197.7443 1040.8732,-203.1409 1011,-210 924.1454,-229.9424 822.4668,-244.7032 754.243,-253.1925"/>
<polygon fill="#191970" stroke="#191970" points="753.5058,-249.7567 744.0073,-254.4502 754.3595,-256.7045 753.5058,-249.7567"/>
</g>
<!-- Node6&#45;&gt;Node2 -->
<g id="edge7" class="edge">
<title>Node6&#45;&gt;Node2</title>
<path fill="none" stroke="#191970" d="M1254.5839,-128.9753C1244.4935,-126.977 1233.898,-124.9002 1224,-123 1150.1435,-108.8213 1065.1146,-93.1674 1008.7412,-82.8827"/>
<polygon fill="#191970" stroke="#191970" points="1009.0233,-79.3765 998.5577,-81.0264 1007.7679,-86.2631 1009.0233,-79.3765"/>
</g>
<!-- Node6&#45;&gt;Node5 -->
<g id="edge9" class="edge">
<title>Node6&#45;&gt;Node5</title>
<path fill="none" stroke="#191970" d="M1302,-128.9005C1302,-119.149 1302,-103.7597 1302,-91.3695"/>
<polygon fill="#191970" stroke="#191970" points="1305.5001,-91.0816 1302,-81.0817 1298.5001,-91.0817 1305.5001,-91.0816"/>
</g>
<!-- Node8&#45;&gt;Node1 -->
<g id="edge12" class="edge">
<title>Node8&#45;&gt;Node1</title>
<path fill="none" stroke="#191970" d="M1128.417,-148.0791C1087.1693,-165.3592 993.6038,-200.8092 960,-210 891.6228,-228.7014 811.8038,-242.8604 754.3288,-251.5536"/>
<polygon fill="#191970" stroke="#191970" points="753.5996,-248.1235 744.2251,-253.0601 754.632,-255.047 753.5996,-248.1235"/>
</g>
<!-- Node9&#45;&gt;Node1 -->
<g id="edge14" class="edge">
<title>Node9&#45;&gt;Node1</title>
<path fill="none" stroke="#191970" d="M660.596,-153.7056C667.089,-174.3355 674.6475,-211.4615 677.6539,-236.2943"/>
<polygon fill="#191970" stroke="#191970" points="674.1888,-236.8179 678.6714,-246.4178 681.1538,-236.1179 674.1888,-236.8179"/>
</g>
<!-- Node10 -->
<g id="node11" class="node">
<title>Node10</title>
<g id="a_node11"><a xlink:href="constraints_2basic_8h.html" target="_top" xlink:title="Functions and data structures for constraining secondary structure predictions and evaluation...">
<polygon fill="none" stroke="#000000" points="319.5,-56.5 319.5,-86.5 438.5,-86.5 438.5,-56.5 319.5,-56.5"/>
<text text-anchor="start" x="327.5" y="-74.5" font-family="Helvetica,sans-Serif" font-size="10.00" fill="#000000">ViennaRNA/constraints</text>
<text text-anchor="middle" x="379" y="-63.5" font-family="Helvetica,sans-Serif" font-size="10.00" fill="#000000">/basic.h</text>
</a>
</g>
</g>
<!-- Node9&#45;&gt;Node10 -->
<g id="edge15" class="edge">
<title>Node9&#45;&gt;Node10</title>
<path fill="none" stroke="#191970" d="M593.2081,-123.8794C550.608,-113.4625 493.2198,-99.4297 448.5656,-88.5106"/>
<polygon fill="#191970" stroke="#191970" points="449.2096,-85.065 438.6644,-86.0895 447.5469,-91.8647 449.2096,-85.065"/>
</g>
<!-- Node10&#45;&gt;Node1 -->
<g id="edge16" class="edge">
<title>Node10&#45;&gt;Node1</title>
<path fill="none" stroke="#191970" d="M351.0733,-86.6086C324.7156,-102.8554 291.7527,-129.6411 310,-154 344.7441,-200.381 502.7641,-233.495 599.7743,-249.8681"/>
<polygon fill="#191970" stroke="#191970" points="599.3972,-253.3534 609.8363,-251.5433 600.5469,-246.4484 599.3972,-253.3534"/>
</g>
<!-- Node11&#45;&gt;Node1 -->
<g id="edge18" class="edge">
<title>Node11&#45;&gt;Node1</title>
<path fill="none" stroke="#191970" d="M419.9789,-153.513C476.7939,-175.8491 578.6399,-217.8243 635.6473,-242.3446"/>
<polygon fill="#191970" stroke="#191970" points="634.5056,-245.664 645.0736,-246.4178 637.2823,-239.2382 634.5056,-245.664"/>
</g>
<!-- Node11&#45;&gt;Node10 -->
<g id="edge19" class="edge">
<title>Node11&#45;&gt;Node10</title>
<path fill="none" stroke="#191970" d="M379,-123.2967C379,-115.5013 379,-105.7991 379,-96.9064"/>
<polygon fill="#191970" stroke="#191970" points="382.5001,-96.6431 379,-86.6432 375.5001,-96.6432 382.5001,-96.6431"/>
</g>
<!-- Node12&#45;&gt;Node1 -->
<g id="edge21" class="edge">
<title>Node12&#45;&gt;Node1</title>
<path fill="none" stroke="#191970" d="M532.3251,-148.0493C561.3299,-167.6618 621.0352,-212.9055 654.0805,-239.9585"/>
<polygon fill="#191970" stroke="#191970" points="651.94,-242.7304 661.8725,-246.4178 656.4074,-237.3412 651.94,-242.7304"/>
</g>
<!-- Node14&#45;&gt;Node1 -->
<g id="edge24" class="edge">
<title>Node14&#45;&gt;Node1</title>
<path fill="none" stroke="#191970" d="M217.9476,-153.7295C234.0512,-170.5847 258.4135,-197.073 286,-210 340.4989,-235.5381 502.1908,-250.0014 599.8021,-256.7473"/>
<polygon fill="#191970" stroke="#191970" points="599.7026,-260.2485 609.9169,-257.4346 600.1773,-253.2646 599.7026,-260.2485"/>
</g>
<!-- Node14&#45;&gt;Node15 -->
<g id="edge25" class="edge">
<title>Node14&#45;&gt;Node15</title>
<path fill="none" stroke="#191970" d="M177.3085,-123.2967C160.9717,-112.351 139.0241,-97.6462 122.6881,-86.701"/>
<polygon fill="#191970" stroke="#191970" points="124.517,-83.7135 114.2612,-81.055 120.6207,-89.5289 124.517,-83.7135"/>
</g>
<!-- Node15&#45;&gt;Node1 -->
<g id="edge27" class="edge">
<title>Node15&#45;&gt;Node1</title>
<path fill="none" stroke="#191970" d="M106.2292,-81.1012C111.8067,-97.8403 118.0261,-132.6177 137,-154 175.2635,-197.1203 198.6362,-193.9281 254,-210 317.4422,-228.417 495.8851,-245.7107 599.676,-254.8172"/>
<polygon fill="#191970" stroke="#191970" points="599.5229,-258.3171 609.7893,-255.6995 600.1313,-251.3436 599.5229,-258.3171"/>
</g>
<!-- Node16 -->
<g id="node17" class="node">
<title>Node16</title>
<polygon fill="none" stroke="#bfbfbf" points="27,-.5 27,-19.5 73,-19.5 73,-.5 27,-.5"/>
<text text-anchor="middle" x="50" y="-7.5" font-family="Helvetica,sans-Serif" font-size="10.00" fill="#000000">stdio.h</text>
</g>
<!-- Node15&#45;&gt;Node16 -->
<g id="edge26" class="edge">
<title>Node15&#45;&gt;Node16</title>
<path fill="none" stroke="#191970" d="M92.1875,-61.8906C84.746,-52.7376 73.3666,-38.7409 64.3008,-27.59"/>
<polygon fill="#191970" stroke="#191970" points="66.9467,-25.2962 57.9226,-19.7449 61.5153,-29.712 66.9467,-25.2962"/>
</g>
<!-- Node18&#45;&gt;Node1 -->
<g id="edge41" class="edge">
<title>Node18&#45;&gt;Node1</title>
<path fill="none" stroke="#191970" d="M611.8889,-318.9005C622.3879,-309.6448 638.6482,-295.3101 652.2925,-283.2816"/>
<polygon fill="#191970" stroke="#191970" points="654.7736,-285.7602 659.9604,-276.5218 650.1446,-280.5093 654.7736,-285.7602"/>
</g>
<!-- Node18&#45;&gt;Node16 -->
<g id="edge40" class="edge">
<title>Node18&#45;&gt;Node16</title>
<path fill="none" stroke="#191970" d="M552.8336,-323.3156C410.2185,-307.3226 0,-256.4169 0,-200 0,-200 0,-200 0,-138.5 0,-100.8735 4.0128,-90.5128 19,-56 23.3382,-46.01 29.8934,-35.8691 35.8602,-27.6603"/>
<polygon fill="#191970" stroke="#191970" points="38.7127,-29.6912 41.9711,-19.6098 33.1371,-25.4589 38.7127,-29.6912"/>
</g>
<!-- Node19&#45;&gt;Node1 -->
<g id="edge43" class="edge">
<title>Node19&#45;&gt;Node1</title>
<path fill="none" stroke="#191970" d="M983.4078,-380.3124C983.5296,-363.875 981.2078,-330.597 962,-313 932.3008,-285.7915 828.1487,-272.4681 754.3669,-266.3069"/>
<polygon fill="#191970" stroke="#191970" points="754.4175,-262.7997 744.1684,-265.4844 753.8547,-269.7771 754.4175,-262.7997"/>
</g>
<!-- Node19&#45;&gt;Node6 -->
<g id="edge44" class="edge">
<title>Node19&#45;&gt;Node6</title>
<path fill="none" stroke="#191970" d="M1043.2696,-383.4658C1108.9895,-372.9537 1212.1069,-345.8931 1267,-277 1294.97,-241.8965 1300.8855,-187.2078 1301.9505,-158.1685"/>
<polygon fill="#191970" stroke="#191970" points="1305.4519,-158.1358 1302.1585,-148.0659 1298.4533,-157.9917 1305.4519,-158.1358"/>
</g>
<!-- Node20 -->
<g id="node21" class="node">
<title>Node20</title>
<g id="a_node21"><a xlink:href="centroid_8h.html" target="_top" xlink:title="Centroid structure computation. ">
<polygon fill="none" stroke="#000000" points="705,-319 705,-338 819,-338 819,-319 705,-319"/>
<text text-anchor="middle" x="762" y="-326" font-family="Helvetica,sans-Serif" font-size="10.00" fill="#000000">ViennaRNA/centroid.h</text>
</a>
</g>
</g>
<!-- Node19&#45;&gt;Node20 -->
<g id="edge45" class="edge">
<title>Node19&#45;&gt;Node20</title>
<path fill="none" stroke="#191970" d="M948.4688,-380.3906C910.0318,-369.6944 847.8256,-352.3836 805.9464,-340.7294"/>
<polygon fill="#191970" stroke="#191970" points="806.8611,-337.351 796.2888,-338.0419 804.9843,-344.0948 806.8611,-337.351"/>
</g>
<!-- Node21 -->
<g id="node22" class="node">
<title>Node21</title>
<g id="a_node22"><a xlink:href="equilibrium__probs_8h.html" target="_top" xlink:title="Equilibrium Probability implementations. ">
<polygon fill="none" stroke="#000000" points="1009,-313.5 1009,-343.5 1127,-343.5 1127,-313.5 1009,-313.5"/>
<text text-anchor="start" x="1017" y="-331.5" font-family="Helvetica,sans-Serif" font-size="10.00" fill="#000000">ViennaRNA/equilibrium</text>
<text text-anchor="middle" x="1068" y="-320.5" font-family="Helvetica,sans-Serif" font-size="10.00" fill="#000000">_probs.h</text>
</a>
</g>
</g>
<!-- Node19&#45;&gt;Node21 -->
<g id="edge48" class="edge">
<title>Node19&#45;&gt;Node21</title>
<path fill="none" stroke="#191970" d="M996.2813,-380.3906C1007.6784,-372.1444 1024.5092,-359.9669 1039.0023,-349.4807"/>
<polygon fill="#191970" stroke="#191970" points="1041.1565,-352.2421 1047.2067,-343.5446 1037.0532,-346.5709 1041.1565,-352.2421"/>
</g>
<!-- Node19&#45;&gt;Node22 -->
<g id="edge51" class="edge">
<title>Node19&#45;&gt;Node22</title>
<path fill="none" stroke="#191970" d="M969.25,-380.3906C957.4505,-372.1444 940.0258,-359.9669 925.0212,-349.4807"/>
<polygon fill="#191970" stroke="#191970" points="926.7289,-346.4042 916.5272,-343.5446 922.719,-352.1419 926.7289,-346.4042"/>
</g>
<!-- Node20&#45;&gt;Node1 -->
<g id="edge46" class="edge">
<title>Node20&#45;&gt;Node1</title>
<path fill="none" stroke="#191970" d="M749.8216,-318.9005C737.9695,-309.5583 719.553,-295.0417 704.2063,-282.945"/>
<polygon fill="#191970" stroke="#191970" points="706.0777,-279.9635 696.0575,-276.5218 701.7444,-285.461 706.0777,-279.9635"/>
</g>
<!-- Node20&#45;&gt;Node15 -->
<g id="edge47" class="edge">
<title>Node20&#45;&gt;Node15</title>
<path fill="none" stroke="#191970" d="M706.306,-318.9777C568.6525,-295.2068 220.0453,-233.4866 172,-210 137.7425,-193.2534 124.3422,-187.9599 107,-154 96.9717,-134.3623 96.4482,-108.6368 97.6394,-91.1703"/>
<polygon fill="#191970" stroke="#191970" points="101.1411,-91.3144 98.5871,-81.032 94.1715,-90.6628 101.1411,-91.3144"/>
</g>
<!-- Node21&#45;&gt;Node1 -->
<g id="edge49" class="edge">
<title>Node21&#45;&gt;Node1</title>
<path fill="none" stroke="#191970" d="M1008.6861,-315.6538C1004.0604,-314.7291 999.4574,-313.8336 995,-313 913.073,-297.6776 818.7663,-282.7422 754.2571,-272.9357"/>
<polygon fill="#191970" stroke="#191970" points="754.5776,-269.4444 744.1661,-271.4065 753.5288,-276.3653 754.5776,-269.4444"/>
</g>
<!-- Node21&#45;&gt;Node6 -->
<g id="edge50" class="edge">
<title>Node21&#45;&gt;Node6</title>
<path fill="none" stroke="#191970" d="M1070.7488,-313.4397C1074.6965,-295.5094 1083.5098,-265.5403 1101,-246 1144.308,-197.6157 1214.6781,-167.0914 1259.6249,-151.4101"/>
<polygon fill="#191970" stroke="#191970" points="1261.0189,-154.6331 1269.364,-148.1055 1258.7696,-148.0043 1261.0189,-154.6331"/>
</g>
<!-- Node22&#45;&gt;Node1 -->
<g id="edge52" class="edge">
<title>Node22&#45;&gt;Node1</title>
<path fill="none" stroke="#191970" d="M846.0765,-313.4639C813.5136,-303.456 770.5478,-290.2509 736.0781,-279.657"/>
<polygon fill="#191970" stroke="#191970" points="736.7238,-276.194 726.1368,-276.6017 734.6673,-282.8851 736.7238,-276.194"/>
</g>
<!-- Node23&#45;&gt;Node4 -->
<g id="edge54" class="edge">
<title>Node23&#45;&gt;Node4</title>
<path fill="none" stroke="#191970" d="M1135.1269,-251.9581C1079.1769,-241.0345 987.5689,-223.1492 927.7738,-211.4749"/>
<polygon fill="#191970" stroke="#191970" points="928.214,-207.9948 917.7286,-209.5137 926.8726,-214.8651 928.214,-207.9948"/>
</g>
</g>
</svg>
