<?xml version="1.0" encoding="UTF-8" standalone="no"?>
<!DOCTYPE svg PUBLIC "-//W3C//DTD SVG 1.1//EN"
 "http://www.w3.org/Graphics/SVG/1.1/DTD/svg11.dtd">
<!-- Generated by graphviz version 2.40.1 (20161225.0304)
 -->
<!-- Title: ViennaRNA/loops/all.h Pages: 1 -->
<!--zoomable 453 -->
<svg id="main" version="1.1" xmlns="http://www.w3.org/2000/svg" xmlns:xlink="http://www.w3.org/1999/xlink" xml:space="preserve" onload="init(evt)">
<style type="text/css"><![CDATA[
.edge:hover path { stroke: red; }
.edge:hover polygon { stroke: red; fill: red; }
]]></style>
<script type="text/javascript"><![CDATA[
var edges = document.getElementsByTagName('g');
if (edges && edges.length) {
  for (var i=0;i<edges.length;i++) {
    if (edges[i].id.substr(0,4)=='edge') {
      edges[i].setAttribute('class','edge');
    }
  }
}
]]></script>
        <defs>
                <circle id="rim" cx="0" cy="0" r="7"/>
                <circle id="rim2" cx="0" cy="0" r="3.5"/>
                <g id="zoomPlus">
                        <use xlink:href="#rim" fill="#404040">
                                <set attributeName="fill" to="#808080" begin="zoomplus.mouseover" end="zoomplus.mouseout"/>
                        </use>
                        <path d="M-4,0h8M0,-4v8" fill="none" stroke="white" stroke-width="1.5" pointer-events="none"/>
                </g>
                <g id="zoomMin">
                        <use xlink:href="#rim" fill="#404040">
                                <set attributeName="fill" to="#808080" begin="zoomminus.mouseover" end="zoomminus.mouseout"/>
                        </use>
                        <path d="M-4,0h8" fill="none" stroke="white" stroke-width="1.5" pointer-events="none"/>
                </g>
                <g id="dirArrow">
                        <path fill="none" stroke="white" stroke-width="1.5" d="M0,-3.0v7 M-2.5,-0.5L0,-3.0L2.5,-0.5"/>
                </g>
               <g id="resetDef">
                       <use xlink:href="#rim2" fill="#404040">
                               <set attributeName="fill" to="#808080" begin="reset.mouseover" end="reset.mouseout"/>
                       </use>
               </g>
        </defs>

<script type="text/javascript">
var viewWidth = 1584;
var viewHeight = 453;
var sectionId = 'dynsection-0';
</script>
<script xlink:href="svgpan.js"/>
<svg id="graph" class="graph">
<g id="viewport">
<title>ViennaRNA/loops/all.h</title>
<!-- Node0 -->
<g id="node1" class="node">
<title>Node0</title>
<polygon fill="#bfbfbf" stroke="#000000" points="444.5,-425.5 444.5,-444.5 560.5,-444.5 560.5,-425.5 444.5,-425.5"/>
<text text-anchor="middle" x="502.5" y="-432.5" font-family="Helvetica,sans-Serif" font-size="10.00" fill="#000000">ViennaRNA/loops/all.h</text>
</g>
<!-- Node1 -->
<g id="node2" class="node">
<title>Node1</title>
<g id="a_node2"><a xlink:href="external_8h.html" target="_top" xlink:title="Energy evaluation of exterior loops for MFE and partition function calculations. ">
<polygon fill="none" stroke="#000000" points="502.5,-313.5 502.5,-332.5 642.5,-332.5 642.5,-313.5 502.5,-313.5"/>
<text text-anchor="middle" x="572.5" y="-320.5" font-family="Helvetica,sans-Serif" font-size="10.00" fill="#000000">ViennaRNA/loops/external.h</text>
</a>
</g>
</g>
<!-- Node0&#45;&gt;Node1 -->
<g id="edge1" class="edge">
<title>Node0&#45;&gt;Node1</title>
<path fill="none" stroke="#191970" d="M508.4682,-425.4509C520.1433,-406.7707 546.1726,-365.1238 561.2024,-341.0761"/>
<polygon fill="#191970" stroke="#191970" points="564.2149,-342.8599 566.5469,-332.5249 558.2789,-339.1499 564.2149,-342.8599"/>
</g>
<!-- Node18 -->
<g id="node19" class="node">
<title>Node18</title>
<g id="a_node19"><a xlink:href="hairpin_8h.html" target="_top" xlink:title="Energy evaluation of hairpin loops for MFE and partition function calculations. ">
<polygon fill="none" stroke="#000000" points="177.5,-369.5 177.5,-388.5 311.5,-388.5 311.5,-369.5 177.5,-369.5"/>
<text text-anchor="middle" x="244.5" y="-376.5" font-family="Helvetica,sans-Serif" font-size="10.00" fill="#000000">ViennaRNA/loops/hairpin.h</text>
</a>
</g>
</g>
<!-- Node0&#45;&gt;Node18 -->
<g id="edge39" class="edge">
<title>Node0&#45;&gt;Node18</title>
<path fill="none" stroke="#191970" d="M458.4414,-425.4369C414.1011,-415.8127 345.6589,-400.957 298.1751,-390.6504"/>
<polygon fill="#191970" stroke="#191970" points="298.8918,-387.2245 288.3769,-388.5237 297.4069,-394.0653 298.8918,-387.2245"/>
</g>
<!-- Node23 -->
<g id="node24" class="node">
<title>Node23</title>
<g id="a_node24"><a xlink:href="internal_8h.html" target="_top" xlink:title="Energy evaluation of interior loops for MFE and partition function calculations. ">
<polygon fill="none" stroke="#000000" points="602,-369.5 602,-388.5 739,-388.5 739,-369.5 602,-369.5"/>
<text text-anchor="middle" x="670.5" y="-376.5" font-family="Helvetica,sans-Serif" font-size="10.00" fill="#000000">ViennaRNA/loops/internal.h</text>
</a>
</g>
</g>
<!-- Node0&#45;&gt;Node23 -->
<g id="edge48" class="edge">
<title>Node0&#45;&gt;Node23</title>
<path fill="none" stroke="#191970" d="M531.3802,-425.3733C559.3161,-416.0613 601.8142,-401.8953 632.4869,-391.671"/>
<polygon fill="#191970" stroke="#191970" points="633.6166,-394.9839 641.9966,-388.5011 631.403,-388.3431 633.6166,-394.9839"/>
</g>
<!-- Node25 -->
<g id="node26" class="node">
<title>Node25</title>
<g id="a_node26"><a xlink:href="multibranch_8h.html" target="_top" xlink:title="Energy evaluation of multibranch loops for MFE and partition function calculations. ">
<polygon fill="none" stroke="#000000" points="337.5,-369.5 337.5,-388.5 493.5,-388.5 493.5,-369.5 337.5,-369.5"/>
<text text-anchor="middle" x="415.5" y="-376.5" font-family="Helvetica,sans-Serif" font-size="10.00" fill="#000000">ViennaRNA/loops/multibranch.h</text>
</a>
</g>
</g>
<!-- Node0&#45;&gt;Node25 -->
<g id="edge56" class="edge">
<title>Node0&#45;&gt;Node25</title>
<path fill="none" stroke="#191970" d="M487.3458,-425.2455C473.9973,-416.6534 454.3414,-404.0014 438.9617,-394.1018"/>
<polygon fill="#191970" stroke="#191970" points="440.7836,-391.1121 430.4806,-388.6427 436.9949,-396.9982 440.7836,-391.1121"/>
</g>
<!-- Node2 -->
<g id="node3" class="node">
<title>Node2</title>
<g id="a_node3"><a xlink:href="datastructures_2basic_8h.html" target="_top" xlink:title="Various data structures and pre&#45;processor macros. ">
<polygon fill="none" stroke="#000000" points="757.5,-246.5 757.5,-276.5 891.5,-276.5 891.5,-246.5 757.5,-246.5"/>
<text text-anchor="start" x="765.5" y="-264.5" font-family="Helvetica,sans-Serif" font-size="10.00" fill="#000000">ViennaRNA/datastructures</text>
<text text-anchor="middle" x="824.5" y="-253.5" font-family="Helvetica,sans-Serif" font-size="10.00" fill="#000000">/basic.h</text>
</a>
</g>
</g>
<!-- Node1&#45;&gt;Node2 -->
<g id="edge2" class="edge">
<title>Node1&#45;&gt;Node2</title>
<path fill="none" stroke="#191970" d="M611.5985,-313.4581C649.2069,-304.2799 706.9544,-290.1867 752.8229,-278.9926"/>
<polygon fill="#191970" stroke="#191970" points="753.8302,-282.3496 762.7152,-276.5784 752.1705,-275.5492 753.8302,-282.3496"/>
</g>
<!-- Node7 -->
<g id="node8" class="node">
<title>Node7</title>
<g id="a_node8"><a xlink:href="params_2basic_8h.html" target="_top" xlink:title="Functions to deal with sets of energy parameters. ">
<polygon fill="none" stroke="#000000" points="284.5,-129 284.5,-148 422.5,-148 422.5,-129 284.5,-129"/>
<text text-anchor="middle" x="353.5" y="-136" font-family="Helvetica,sans-Serif" font-size="10.00" fill="#000000">ViennaRNA/params/basic.h</text>
</a>
</g>
</g>
<!-- Node1&#45;&gt;Node7 -->
<g id="edge38" class="edge">
<title>Node1&#45;&gt;Node7</title>
<path fill="none" stroke="#191970" d="M561.034,-313.3402C525.4812,-283.3883 416.838,-191.8601 372.5722,-154.5677"/>
<polygon fill="#191970" stroke="#191970" points="374.7554,-151.8304 364.8525,-148.0641 370.2453,-157.1839 374.7554,-151.8304"/>
</g>
<!-- Node3 -->
<g id="node4" class="node">
<title>Node3</title>
<g id="a_node4"><a xlink:href="constants_8h.html" target="_top" xlink:title="Energy parameter constants. ">
<polygon fill="none" stroke="#000000" points="208.5,-62 208.5,-81 366.5,-81 366.5,-62 208.5,-62"/>
<text text-anchor="middle" x="287.5" y="-69" font-family="Helvetica,sans-Serif" font-size="10.00" fill="#000000">ViennaRNA/params/constants.h</text>
</a>
</g>
</g>
<!-- Node2&#45;&gt;Node3 -->
<g id="edge3" class="edge">
<title>Node2&#45;&gt;Node3</title>
<path fill="none" stroke="#191970" d="M757.3705,-258.621C624.5614,-251.3687 335.8756,-227.3444 275.5,-154 260.831,-136.1801 269.0938,-108.5482 277.4109,-90.2433"/>
<polygon fill="#191970" stroke="#191970" points="280.6088,-91.6719 281.8918,-81.1551 274.3304,-88.5764 280.6088,-91.6719"/>
</g>
<!-- Node5 -->
<g id="node6" class="node">
<title>Node5</title>
<g id="a_node6"><a xlink:href="fold__compound_8h.html" target="_top" xlink:title="The Basic Fold Compound API. ">
<polygon fill="none" stroke="#000000" points="899.5,-190.5 899.5,-209.5 1045.5,-209.5 1045.5,-190.5 899.5,-190.5"/>
<text text-anchor="middle" x="972.5" y="-197.5" font-family="Helvetica,sans-Serif" font-size="10.00" fill="#000000">ViennaRNA/fold_compound.h</text>
</a>
</g>
</g>
<!-- Node2&#45;&gt;Node5 -->
<g id="edge5" class="edge">
<title>Node2&#45;&gt;Node5</title>
<path fill="none" stroke="#191970" d="M860.7049,-246.4554C884.9658,-236.374 916.6356,-223.2139 940.0712,-213.4755"/>
<polygon fill="#191970" stroke="#191970" points="941.6739,-216.5997 949.5653,-209.5303 938.9877,-210.1356 941.6739,-216.5997"/>
</g>
<!-- Node6 -->
<g id="node7" class="node">
<title>Node6</title>
<g id="a_node7"><a xlink:href="model_8h.html" target="_top" xlink:title="The model details data structure and its corresponding modifiers. ">
<polygon fill="none" stroke="#000000" points="818.5,-62 818.5,-81 924.5,-81 924.5,-62 818.5,-62"/>
<text text-anchor="middle" x="871.5" y="-69" font-family="Helvetica,sans-Serif" font-size="10.00" fill="#000000">ViennaRNA/model.h</text>
</a>
</g>
</g>
<!-- Node2&#45;&gt;Node6 -->
<g id="edge29" class="edge">
<title>Node2&#45;&gt;Node6</title>
<path fill="none" stroke="#191970" d="M828.6248,-246.225C834.2109,-225.414 844.4125,-186.9656 852.5,-154 857.7355,-132.6595 863.3358,-108.1085 867.0893,-91.3746"/>
<polygon fill="#191970" stroke="#191970" points="870.6036,-91.6962 869.3657,-81.174 863.7716,-90.1716 870.6036,-91.6962"/>
</g>
<!-- Node2&#45;&gt;Node7 -->
<g id="edge30" class="edge">
<title>Node2&#45;&gt;Node7</title>
<path fill="none" stroke="#191970" d="M781.1037,-246.4304C728.9571,-226.6749 647.0422,-194.0423 632.5,-190 541.2644,-164.6392 515.6141,-171.2298 422.5,-154 415.7502,-152.751 408.6801,-151.4025 401.7347,-150.0403"/>
<polygon fill="#191970" stroke="#191970" points="402.1905,-146.5625 391.6999,-148.0446 400.8251,-153.428 402.1905,-146.5625"/>
</g>
<!-- Node9 -->
<g id="node10" class="node">
<title>Node9</title>
<g id="a_node10"><a xlink:href="dp__matrices_8h.html" target="_top" xlink:title="Functions to deal with standard dynamic programming (DP) matrices. ">
<polygon fill="none" stroke="#000000" points="710,-129 710,-148 843,-148 843,-129 710,-129"/>
<text text-anchor="middle" x="776.5" y="-136" font-family="Helvetica,sans-Serif" font-size="10.00" fill="#000000">ViennaRNA/dp_matrices.h</text>
</a>
</g>
</g>
<!-- Node2&#45;&gt;Node9 -->
<g id="edge31" class="edge">
<title>Node2&#45;&gt;Node9</title>
<path fill="none" stroke="#191970" d="M814,-246.4178C802.6368,-224.1659 786.231,-182.5314 779.0173,-157.9908"/>
<polygon fill="#191970" stroke="#191970" points="782.3308,-156.8291 776.4008,-148.0493 775.5613,-158.6108 782.3308,-156.8291"/>
</g>
<!-- Node10 -->
<g id="node11" class="node">
<title>Node10</title>
<g id="a_node11"><a xlink:href="hard_8h.html" target="_top" xlink:title="Functions and data structures for handling of secondary structure hard constraints. ">
<polygon fill="none" stroke="#000000" points="1215,-123.5 1215,-153.5 1334,-153.5 1334,-123.5 1215,-123.5"/>
<text text-anchor="start" x="1223" y="-141.5" font-family="Helvetica,sans-Serif" font-size="10.00" fill="#000000">ViennaRNA/constraints</text>
<text text-anchor="middle" x="1274.5" y="-130.5" font-family="Helvetica,sans-Serif" font-size="10.00" fill="#000000">/hard.h</text>
</a>
</g>
</g>
<!-- Node2&#45;&gt;Node10 -->
<g id="edge32" class="edge">
<title>Node2&#45;&gt;Node10</title>
<path fill="none" stroke="#191970" d="M891.5352,-250.9629C944.2869,-242.3791 1019.2222,-228.629 1083.5,-210 1132.7966,-195.7128 1187.3444,-173.3632 1225.6011,-157.4572"/>
<polygon fill="#191970" stroke="#191970" points="1227.0757,-160.6346 1234.9633,-153.5609 1224.3861,-154.1719 1227.0757,-160.6346"/>
</g>
<!-- Node12 -->
<g id="node13" class="node">
<title>Node12</title>
<g id="a_node13"><a xlink:href="soft_8h.html" target="_top" xlink:title="Functions and data structures for secondary structure soft constraints. ">
<polygon fill="none" stroke="#000000" points="1078,-123.5 1078,-153.5 1197,-153.5 1197,-123.5 1078,-123.5"/>
<text text-anchor="start" x="1086" y="-141.5" font-family="Helvetica,sans-Serif" font-size="10.00" fill="#000000">ViennaRNA/constraints</text>
<text text-anchor="middle" x="1137.5" y="-130.5" font-family="Helvetica,sans-Serif" font-size="10.00" fill="#000000">/soft.h</text>
</a>
</g>
</g>
<!-- Node2&#45;&gt;Node12 -->
<g id="edge33" class="edge">
<title>Node2&#45;&gt;Node12</title>
<path fill="none" stroke="#191970" d="M891.6062,-254.1441C936.9185,-247.3351 996.9641,-234.392 1045.5,-210 1069.9631,-197.7059 1093.1588,-176.6298 1110.3775,-160.5357"/>
<polygon fill="#191970" stroke="#191970" points="1112.9416,-162.9297 1117.8512,-153.5411 1108.1584,-157.8188 1112.9416,-162.9297"/>
</g>
<!-- Node13 -->
<g id="node14" class="node">
<title>Node13</title>
<g id="a_node14"><a xlink:href="grammar_8h.html" target="_top" xlink:title="Implementations for the RNA folding grammar. ">
<polygon fill="none" stroke="#000000" points="440.5,-129 440.5,-148 558.5,-148 558.5,-129 440.5,-129"/>
<text text-anchor="middle" x="499.5" y="-136" font-family="Helvetica,sans-Serif" font-size="10.00" fill="#000000">ViennaRNA/grammar.h</text>
</a>
</g>
</g>
<!-- Node2&#45;&gt;Node13 -->
<g id="edge34" class="edge">
<title>Node2&#45;&gt;Node13</title>
<path fill="none" stroke="#191970" d="M795.3582,-246.4519C768.2787,-230.5066 726.9805,-205.531 688.5,-190 662.2638,-179.4109 592.0029,-162.0569 544.8404,-150.4586"/>
<polygon fill="#191970" stroke="#191970" points="545.4049,-146.9931 534.8583,-148.0034 543.733,-153.7906 545.4049,-146.9931"/>
</g>
<!-- Node14 -->
<g id="node15" class="node">
<title>Node14</title>
<g id="a_node15"><a xlink:href="structured__domains_8h.html" target="_top" xlink:title="This module provides interfaces that deal with additional structured domains in the folding grammar...">
<polygon fill="none" stroke="#000000" points="577,-123.5 577,-153.5 692,-153.5 692,-123.5 577,-123.5"/>
<text text-anchor="start" x="585" y="-141.5" font-family="Helvetica,sans-Serif" font-size="10.00" fill="#000000">ViennaRNA/structured</text>
<text text-anchor="middle" x="634.5" y="-130.5" font-family="Helvetica,sans-Serif" font-size="10.00" fill="#000000">_domains.h</text>
</a>
</g>
</g>
<!-- Node2&#45;&gt;Node14 -->
<g id="edge35" class="edge">
<title>Node2&#45;&gt;Node14</title>
<path fill="none" stroke="#191970" d="M812.5237,-246.4098C799.3987,-230.6622 777.0555,-206.0693 753.5,-190 733.9869,-176.6884 710.4776,-165.637 689.5262,-157.2294"/>
<polygon fill="#191970" stroke="#191970" points="690.6917,-153.9272 680.1035,-153.5538 688.1479,-160.4486 690.6917,-153.9272"/>
</g>
<!-- Node15 -->
<g id="node16" class="node">
<title>Node15</title>
<g id="a_node16"><a xlink:href="unstructured__domains_8h.html" target="_top" xlink:title="Functions to modify unstructured domains, e.g. to incorporate ligands binding to unpaired stretches...">
<polygon fill="none" stroke="#000000" points="1391,-123.5 1391,-153.5 1516,-153.5 1516,-123.5 1391,-123.5"/>
<text text-anchor="start" x="1399" y="-141.5" font-family="Helvetica,sans-Serif" font-size="10.00" fill="#000000">ViennaRNA/unstructured</text>
<text text-anchor="middle" x="1453.5" y="-130.5" font-family="Helvetica,sans-Serif" font-size="10.00" fill="#000000">_domains.h</text>
</a>
</g>
</g>
<!-- Node2&#45;&gt;Node15 -->
<g id="edge36" class="edge">
<title>Node2&#45;&gt;Node15</title>
<path fill="none" stroke="#191970" d="M891.6989,-260.486C1017.6189,-257.7309 1283.5968,-247.5396 1367.5,-210 1391.5412,-199.2436 1412.9559,-177.8786 1428.6746,-161.292"/>
<polygon fill="#191970" stroke="#191970" points="1431.6107,-163.2795 1435.92,-153.6007 1426.5154,-158.4797 1431.6107,-163.2795"/>
</g>
<!-- Node16 -->
<g id="node17" class="node">
<title>Node16</title>
<g id="a_node17"><a xlink:href="utils_2structures_8h.html" target="_top" xlink:title="Various utility&#45; and helper&#45;functions for secondary structure parsing, converting, etc. ">
<polygon fill="none" stroke="#000000" points="1431.5,-62 1431.5,-81 1575.5,-81 1575.5,-62 1431.5,-62"/>
<text text-anchor="middle" x="1503.5" y="-69" font-family="Helvetica,sans-Serif" font-size="10.00" fill="#000000">ViennaRNA/utils/structures.h</text>
</a>
</g>
</g>
<!-- Node2&#45;&gt;Node16 -->
<g id="edge37" class="edge">
<title>Node2&#45;&gt;Node16</title>
<path fill="none" stroke="#191970" d="M891.7498,-258.561C1023.1825,-252.5101 1309.2409,-236.9216 1404.5,-210 1458.0556,-194.8644 1487.2414,-201.3415 1516.5,-154 1528.6823,-134.2887 1517.7839,-107.8886 1509.499,-90.318"/>
<polygon fill="#191970" stroke="#191970" points="1512.5747,-88.636 1505.1172,-81.1103 1506.2539,-91.644 1512.5747,-88.636"/>
</g>
<!-- Node4 -->
<g id="node5" class="node">
<title>Node4</title>
<polygon fill="none" stroke="#bfbfbf" points="263.5,-.5 263.5,-19.5 311.5,-19.5 311.5,-.5 263.5,-.5"/>
<text text-anchor="middle" x="287.5" y="-7.5" font-family="Helvetica,sans-Serif" font-size="10.00" fill="#000000">limits.h</text>
</g>
<!-- Node3&#45;&gt;Node4 -->
<g id="edge4" class="edge">
<title>Node3&#45;&gt;Node4</title>
<path fill="none" stroke="#191970" d="M287.5,-61.8906C287.5,-53.3657 287.5,-40.6392 287.5,-29.9235"/>
<polygon fill="#191970" stroke="#191970" points="291.0001,-29.7448 287.5,-19.7449 284.0001,-29.7449 291.0001,-29.7448"/>
</g>
<!-- Node5&#45;&gt;Node6 -->
<g id="edge6" class="edge">
<title>Node5&#45;&gt;Node6</title>
<path fill="none" stroke="#191970" d="M992.3241,-190.3695C1005.8215,-182.6136 1022.6157,-170.3161 1030.5,-154 1036.4946,-141.5947 1038.6035,-134.1427 1030.5,-123 1018.4644,-106.4505 971.4249,-92.504 931.6068,-83.3159"/>
<polygon fill="#191970" stroke="#191970" points="932.1887,-79.8595 921.6648,-81.0838 930.6552,-86.6895 932.1887,-79.8595"/>
</g>
<!-- Node5&#45;&gt;Node7 -->
<g id="edge7" class="edge">
<title>Node5&#45;&gt;Node7</title>
<path fill="none" stroke="#191970" d="M899.1429,-196.359C794.842,-190.5934 597.8674,-177.5285 431.5,-154 423.5306,-152.8729 415.1459,-151.4554 406.9484,-149.9381"/>
<polygon fill="#191970" stroke="#191970" points="407.5621,-146.4921 397.0825,-148.0507 406.2467,-153.3674 407.5621,-146.4921"/>
</g>
<!-- Node8 -->
<g id="node9" class="node">
<title>Node8</title>
<g id="a_node9"><a xlink:href="sequence_8h.html" target="_top" xlink:title="Functions and data structures related to sequence representations ,. ">
<polygon fill="none" stroke="#000000" points="899.5,-129 899.5,-148 1021.5,-148 1021.5,-129 899.5,-129"/>
<text text-anchor="middle" x="960.5" y="-136" font-family="Helvetica,sans-Serif" font-size="10.00" fill="#000000">ViennaRNA/sequence.h</text>
</a>
</g>
</g>
<!-- Node5&#45;&gt;Node8 -->
<g id="edge11" class="edge">
<title>Node5&#45;&gt;Node8</title>
<path fill="none" stroke="#191970" d="M970.625,-190.3906C968.9441,-181.776 966.426,-168.8708 964.3216,-158.0858"/>
<polygon fill="#191970" stroke="#191970" points="967.7518,-157.3895 962.4014,-148.2449 960.8814,-158.7301 967.7518,-157.3895"/>
</g>
<!-- Node5&#45;&gt;Node9 -->
<g id="edge12" class="edge">
<title>Node5&#45;&gt;Node9</title>
<path fill="none" stroke="#191970" d="M941.875,-190.3906C908.2176,-179.8298 854.0101,-162.8208 816.8941,-151.1747"/>
<polygon fill="#191970" stroke="#191970" points="817.4991,-147.6963 806.9099,-148.0419 815.4034,-154.3753 817.4991,-147.6963"/>
</g>
<!-- Node5&#45;&gt;Node10 -->
<g id="edge14" class="edge">
<title>Node5&#45;&gt;Node10</title>
<path fill="none" stroke="#191970" d="M1023.2568,-190.4773C1068.4905,-181.8881 1136.7516,-168.6755 1204.785,-154.3341"/>
<polygon fill="#191970" stroke="#191970" points="1205.7598,-157.7054 1214.8182,-152.2104 1204.3102,-150.8572 1205.7598,-157.7054"/>
</g>
<!-- Node5&#45;&gt;Node12 -->
<g id="edge18" class="edge">
<title>Node5&#45;&gt;Node12</title>
<path fill="none" stroke="#191970" d="M998.2813,-190.3906C1022.0594,-181.5279 1058.0211,-168.1239 1087.4382,-157.1594"/>
<polygon fill="#191970" stroke="#191970" points="1088.9886,-160.3168 1097.1365,-153.5446 1086.5438,-153.7576 1088.9886,-160.3168"/>
</g>
<!-- Node5&#45;&gt;Node13 -->
<g id="edge21" class="edge">
<title>Node5&#45;&gt;Node13</title>
<path fill="none" stroke="#191970" d="M899.1843,-194.0417C817.9833,-186.8881 683.3532,-173.381 568.5,-154 561.9114,-152.8882 555.0058,-151.5486 548.2157,-150.1283"/>
<polygon fill="#191970" stroke="#191970" points="548.9142,-146.6986 538.4005,-148.0069 547.4354,-153.5406 548.9142,-146.6986"/>
</g>
<!-- Node5&#45;&gt;Node14 -->
<g id="edge23" class="edge">
<title>Node5&#45;&gt;Node14</title>
<path fill="none" stroke="#191970" d="M910.1485,-190.4911C857.3542,-182.1945 779.4501,-169.3782 702.1144,-154.0557"/>
<polygon fill="#191970" stroke="#191970" points="702.6883,-150.6013 692.1966,-152.0761 701.318,-157.4659 702.6883,-150.6013"/>
</g>
<!-- Node5&#45;&gt;Node15 -->
<g id="edge24" class="edge">
<title>Node5&#45;&gt;Node15</title>
<path fill="none" stroke="#191970" d="M1045.7555,-191.2814C1120.6237,-182.2854 1240.2325,-167.6767 1343.5,-154 1355.6443,-152.3916 1368.5341,-150.6271 1381.052,-148.883"/>
<polygon fill="#191970" stroke="#191970" points="1381.5716,-152.3445 1390.9899,-147.492 1380.6012,-145.4121 1381.5716,-152.3445"/>
</g>
<!-- Node7&#45;&gt;Node2 -->
<g id="edge9" class="edge">
<title>Node7&#45;&gt;Node2</title>
<path fill="none" stroke="#191970" d="M409.2651,-148.0446C419.6981,-150.0617 430.4538,-152.141 440.5,-154 533.6141,-171.2298 559.2644,-164.6392 650.5,-190 664.1049,-193.7818 736.6776,-222.5871 783.8041,-242.4611"/>
<polygon fill="#191970" stroke="#191970" points="782.5817,-245.7444 793.1543,-246.4304 785.3171,-239.301 782.5817,-245.7444"/>
</g>
<!-- Node7&#45;&gt;Node3 -->
<g id="edge8" class="edge">
<title>Node7&#45;&gt;Node3</title>
<path fill="none" stroke="#191970" d="M344.0438,-128.9005C333.6537,-118.353 316.7662,-101.2096 304.1476,-88.3998"/>
<polygon fill="#191970" stroke="#191970" points="306.4498,-85.7495 296.9386,-81.0817 301.463,-90.6619 306.4498,-85.7495"/>
</g>
<!-- Node7&#45;&gt;Node6 -->
<g id="edge10" class="edge">
<title>Node7&#45;&gt;Node6</title>
<path fill="none" stroke="#191970" d="M398.3492,-128.9527C409.1735,-126.8244 420.7259,-124.6983 431.5,-123 565.0986,-101.9415 722.7721,-85.5133 808.4058,-77.2907"/>
<polygon fill="#191970" stroke="#191970" points="808.863,-80.763 818.4853,-76.3289 808.198,-73.7947 808.863,-80.763"/>
</g>
<!-- Node9&#45;&gt;Node2 -->
<g id="edge13" class="edge">
<title>Node9&#45;&gt;Node2</title>
<path fill="none" stroke="#191970" d="M784.0522,-148.0493C794.62,-166.9138 811.8058,-209.492 820.391,-236.7865"/>
<polygon fill="#191970" stroke="#191970" points="817.045,-237.8146 823.2285,-246.4178 823.7597,-235.8363 817.045,-237.8146"/>
</g>
<!-- Node10&#45;&gt;Node2 -->
<g id="edge15" class="edge">
<title>Node10&#45;&gt;Node2</title>
<path fill="none" stroke="#191970" d="M1248.2308,-153.5609C1214.6275,-169.5172 1154.9743,-194.5021 1101.5,-210 1035.2822,-229.1913 957.7538,-243.2047 901.5146,-251.726"/>
<polygon fill="#191970" stroke="#191970" points="900.9961,-248.2645 891.6218,-253.2014 902.0287,-255.1879 900.9961,-248.2645"/>
</g>
<!-- Node11 -->
<g id="node12" class="node">
<title>Node11</title>
<g id="a_node12"><a xlink:href="constraints_2basic_8h.html" target="_top" xlink:title="Functions and data structures for constraining secondary structure predictions and evaluation...">
<polygon fill="none" stroke="#000000" points="1215,-56.5 1215,-86.5 1334,-86.5 1334,-56.5 1215,-56.5"/>
<text text-anchor="start" x="1223" y="-74.5" font-family="Helvetica,sans-Serif" font-size="10.00" fill="#000000">ViennaRNA/constraints</text>
<text text-anchor="middle" x="1274.5" y="-63.5" font-family="Helvetica,sans-Serif" font-size="10.00" fill="#000000">/basic.h</text>
</a>
</g>
</g>
<!-- Node10&#45;&gt;Node11 -->
<g id="edge16" class="edge">
<title>Node10&#45;&gt;Node11</title>
<path fill="none" stroke="#191970" d="M1274.5,-123.2967C1274.5,-115.5013 1274.5,-105.7991 1274.5,-96.9064"/>
<polygon fill="#191970" stroke="#191970" points="1278.0001,-96.6431 1274.5,-86.6432 1271.0001,-96.6432 1278.0001,-96.6431"/>
</g>
<!-- Node11&#45;&gt;Node2 -->
<g id="edge17" class="edge">
<title>Node11&#45;&gt;Node2</title>
<path fill="none" stroke="#191970" d="M1302.4842,-86.6518C1328.8898,-102.9348 1361.8923,-129.7504 1343.5,-154 1290.9315,-223.3095 1032.9062,-248.8789 901.5885,-257.5111"/>
<polygon fill="#191970" stroke="#191970" points="901.3448,-254.0194 891.5891,-258.1517 901.7924,-261.0051 901.3448,-254.0194"/>
</g>
<!-- Node12&#45;&gt;Node2 -->
<g id="edge19" class="edge">
<title>Node12&#45;&gt;Node2</title>
<path fill="none" stroke="#191970" d="M1130.9436,-153.5411C1118.2341,-169.9681 1091.7097,-195.823 1063.5,-210 1013.1524,-235.3025 950.4199,-248.2854 901.7935,-254.8812"/>
<polygon fill="#191970" stroke="#191970" points="901.1094,-251.4405 891.6408,-256.1939 902.0071,-258.3827 901.1094,-251.4405"/>
</g>
<!-- Node12&#45;&gt;Node11 -->
<g id="edge20" class="edge">
<title>Node12&#45;&gt;Node11</title>
<path fill="none" stroke="#191970" d="M1168.2455,-123.4639C1187.7624,-113.9191 1213.2257,-101.4663 1234.3325,-91.144"/>
<polygon fill="#191970" stroke="#191970" points="1235.9375,-94.2552 1243.3831,-86.7177 1232.8622,-87.9669 1235.9375,-94.2552"/>
</g>
<!-- Node13&#45;&gt;Node2 -->
<g id="edge22" class="edge">
<title>Node13&#45;&gt;Node2</title>
<path fill="none" stroke="#191970" d="M547.4937,-148.0034C599.4551,-159.4738 678.3387,-178.6339 706.5,-190 740.6213,-203.7717 776.9582,-224.9692 800.3333,-240.7122"/>
<polygon fill="#191970" stroke="#191970" points="798.4113,-243.6384 808.6258,-246.4519 802.3952,-237.8827 798.4113,-243.6384"/>
</g>
<!-- Node15&#45;&gt;Node2 -->
<g id="edge25" class="edge">
<title>Node15&#45;&gt;Node2</title>
<path fill="none" stroke="#191970" d="M1448.8328,-153.6007C1437.8941,-170.6024 1413.4752,-197.4835 1385.5,-210 1301.4795,-247.5921 1034.8746,-257.7593 901.6643,-260.4975"/>
<polygon fill="#191970" stroke="#191970" points="901.4596,-257.0008 891.5303,-260.6967 901.5972,-263.9994 901.4596,-257.0008"/>
</g>
<!-- Node15&#45;&gt;Node16 -->
<g id="edge26" class="edge">
<title>Node15&#45;&gt;Node16</title>
<path fill="none" stroke="#191970" d="M1464.8458,-123.2967C1472.4091,-113.1618 1482.3776,-99.804 1490.2969,-89.1921"/>
<polygon fill="#191970" stroke="#191970" points="1493.1936,-91.1626 1496.3694,-81.055 1487.5835,-86.976 1493.1936,-91.1626"/>
</g>
<!-- Node16&#45;&gt;Node2 -->
<g id="edge28" class="edge">
<title>Node16&#45;&gt;Node2</title>
<path fill="none" stroke="#191970" d="M1516.1014,-81.1103C1530.617,-97.2682 1549.0732,-130.4201 1534.5,-154 1505.2414,-201.3415 1476.0556,-194.8644 1422.5,-210 1327.1574,-236.9452 1040.6808,-252.5375 901.6862,-258.5768"/>
<polygon fill="#191970" stroke="#191970" points="901.3743,-255.0869 891.5336,-259.0123 901.6744,-262.0805 901.3743,-255.0869"/>
</g>
<!-- Node17 -->
<g id="node18" class="node">
<title>Node17</title>
<polygon fill="none" stroke="#bfbfbf" points="879.5,-.5 879.5,-19.5 925.5,-19.5 925.5,-.5 879.5,-.5"/>
<text text-anchor="middle" x="902.5" y="-7.5" font-family="Helvetica,sans-Serif" font-size="10.00" fill="#000000">stdio.h</text>
</g>
<!-- Node16&#45;&gt;Node17 -->
<g id="edge27" class="edge">
<title>Node16&#45;&gt;Node17</title>
<path fill="none" stroke="#191970" d="M1431.3041,-64.1122C1300.6675,-50.7443 1029.868,-23.0335 935.6642,-13.3937"/>
<polygon fill="#191970" stroke="#191970" points="935.8818,-9.8978 925.5775,-12.3615 935.1692,-16.8614 935.8818,-9.8978"/>
</g>
<!-- Node18&#45;&gt;Node2 -->
<g id="edge46" class="edge">
<title>Node18&#45;&gt;Node2</title>
<path fill="none" stroke="#191970" d="M270.8237,-369.3881C310.8444,-355.1175 389.6263,-328.3635 458.5,-313 557.0452,-291.0178 672.7204,-276.602 747.2385,-268.7559"/>
<polygon fill="#191970" stroke="#191970" points="747.8895,-272.2072 757.4742,-267.6923 747.1659,-265.2447 747.8895,-272.2072"/>
</g>
<!-- Node18&#45;&gt;Node7 -->
<g id="edge47" class="edge">
<title>Node18&#45;&gt;Node7</title>
<path fill="none" stroke="#191970" d="M241.2021,-369.4569C233.9731,-346.8664 218.8092,-288.8041 237.5,-246 255.7428,-204.222 299.1155,-171.4174 327.3482,-153.5196"/>
<polygon fill="#191970" stroke="#191970" points="329.2477,-156.4604 335.9317,-148.24 325.5802,-150.4981 329.2477,-156.4604"/>
</g>
<!-- Node19 -->
<g id="node20" class="node">
<title>Node19</title>
<polygon fill="none" stroke="#bfbfbf" points="67,-313.5 67,-332.5 114,-332.5 114,-313.5 67,-313.5"/>
<text text-anchor="middle" x="90.5" y="-320.5" font-family="Helvetica,sans-Serif" font-size="10.00" fill="#000000">math.h</text>
</g>
<!-- Node18&#45;&gt;Node19 -->
<g id="edge40" class="edge">
<title>Node18&#45;&gt;Node19</title>
<path fill="none" stroke="#191970" d="M218.0265,-369.3733C191.871,-359.8622 151.7899,-345.2872 123.5568,-335.0207"/>
<polygon fill="#191970" stroke="#191970" points="124.7008,-331.7125 114.1068,-331.5843 122.3086,-338.2911 124.7008,-331.7125"/>
</g>
<!-- Node20 -->
<g id="node21" class="node">
<title>Node20</title>
<polygon fill="none" stroke="#bfbfbf" points="0,-313.5 0,-332.5 49,-332.5 49,-313.5 0,-313.5"/>
<text text-anchor="middle" x="24.5" y="-320.5" font-family="Helvetica,sans-Serif" font-size="10.00" fill="#000000">string.h</text>
</g>
<!-- Node18&#45;&gt;Node20 -->
<g id="edge41" class="edge">
<title>Node18&#45;&gt;Node20</title>
<path fill="none" stroke="#191970" d="M203.1136,-369.4845C167.2646,-361.0936 113.798,-348.2255 59.1735,-333.3731"/>
<polygon fill="#191970" stroke="#191970" points="59.8946,-329.9417 49.3253,-330.6768 58.0462,-336.6933 59.8946,-329.9417"/>
</g>
<!-- Node21 -->
<g id="node22" class="node">
<title>Node21</title>
<g id="a_node22"><a xlink:href="utils_2basic_8h.html" target="_top" xlink:title="General utility&#45; and helper&#45;functions used throughout the ViennaRNA Package. ">
<polygon fill="none" stroke="#000000" points="246.5,-313.5 246.5,-332.5 370.5,-332.5 370.5,-313.5 246.5,-313.5"/>
<text text-anchor="middle" x="308.5" y="-320.5" font-family="Helvetica,sans-Serif" font-size="10.00" fill="#000000">ViennaRNA/utils/basic.h</text>
</a>
</g>
</g>
<!-- Node18&#45;&gt;Node21 -->
<g id="edge42" class="edge">
<title>Node18&#45;&gt;Node21</title>
<path fill="none" stroke="#191970" d="M255.6479,-369.2455C265.0087,-361.0549 278.5858,-349.1749 289.6349,-339.5069"/>
<polygon fill="#191970" stroke="#191970" points="292.2588,-341.8618 297.4798,-332.6427 287.6492,-336.5937 292.2588,-341.8618"/>
</g>
<!-- Node21&#45;&gt;Node2 -->
<g id="edge45" class="edge">
<title>Node21&#45;&gt;Node2</title>
<path fill="none" stroke="#191970" d="M370.7417,-315.5817C465.1666,-304.3275 644.4581,-282.9585 747.1364,-270.7207"/>
<polygon fill="#191970" stroke="#191970" points="747.6176,-274.1882 757.133,-269.5292 746.7891,-267.2374 747.6176,-274.1882"/>
</g>
<!-- Node21&#45;&gt;Node17 -->
<g id="edge43" class="edge">
<title>Node21&#45;&gt;Node17</title>
<path fill="none" stroke="#191970" d="M285.3202,-313.4347C248.4341,-296.4891 180.5,-257.4779 180.5,-200 180.5,-200 180.5,-200 180.5,-138.5 180.5,-100.8735 170.8406,-80.3801 199.5,-56 225.2941,-34.0574 732.7463,-15.6486 869.0462,-11.0855"/>
<polygon fill="#191970" stroke="#191970" points="869.4079,-14.5755 879.2862,-10.7455 869.1755,-7.5794 869.4079,-14.5755"/>
</g>
<!-- Node22 -->
<g id="node23" class="node">
<title>Node22</title>
<polygon fill="none" stroke="#bfbfbf" points="246.5,-252 246.5,-271 298.5,-271 298.5,-252 246.5,-252"/>
<text text-anchor="middle" x="272.5" y="-259" font-family="Helvetica,sans-Serif" font-size="10.00" fill="#000000">stdarg.h</text>
</g>
<!-- Node21&#45;&gt;Node22 -->
<g id="edge44" class="edge">
<title>Node21&#45;&gt;Node22</title>
<path fill="none" stroke="#191970" d="M302.875,-313.3906C297.6747,-304.5068 289.8034,-291.0601 283.3767,-280.0811"/>
<polygon fill="#191970" stroke="#191970" points="286.2767,-278.1069 278.2043,-271.2449 280.2356,-281.6432 286.2767,-278.1069"/>
</g>
<!-- Node23&#45;&gt;Node2 -->
<g id="edge52" class="edge">
<title>Node23&#45;&gt;Node2</title>
<path fill="none" stroke="#191970" d="M683.1025,-369.3845C707.8037,-350.5377 763.1032,-308.345 796.7599,-282.6654"/>
<polygon fill="#191970" stroke="#191970" points="798.9914,-285.3652 804.8186,-276.5167 794.7453,-279.8 798.9914,-285.3652"/>
</g>
<!-- Node23&#45;&gt;Node7 -->
<g id="edge53" class="edge">
<title>Node23&#45;&gt;Node7</title>
<path fill="none" stroke="#191970" d="M669.9529,-369.4838C668.7133,-355.6913 664.6706,-329.9464 651.5,-313 583.7508,-225.828 459.2739,-173.7744 394.737,-151.4216"/>
<polygon fill="#191970" stroke="#191970" points="395.5061,-147.9866 384.9117,-148.0883 393.2571,-154.6155 395.5061,-147.9866"/>
</g>
<!-- Node23&#45;&gt;Node10 -->
<g id="edge54" class="edge">
<title>Node23&#45;&gt;Node10</title>
<path fill="none" stroke="#191970" d="M733.649,-369.452C779.4188,-361.7359 842.4931,-349.4523 896.5,-333 1034.1088,-291.0798 1181.2998,-200.2418 1243.7091,-159.2777"/>
<polygon fill="#191970" stroke="#191970" points="1245.8769,-162.0404 1252.2906,-153.6074 1242.0179,-156.2001 1245.8769,-162.0404"/>
</g>
<!-- Node23&#45;&gt;Node12 -->
<g id="edge55" class="edge">
<title>Node23&#45;&gt;Node12</title>
<path fill="none" stroke="#191970" d="M720.9008,-369.4564C805.7612,-351.2458 978.9969,-304.6339 1092.5,-210 1107.6552,-197.3642 1119.3093,-178.2633 1126.9567,-162.9818"/>
<polygon fill="#191970" stroke="#191970" points="1130.2839,-164.1334 1131.4,-153.5975 1123.9572,-161.1377 1130.2839,-164.1334"/>
</g>
<!-- Node23&#45;&gt;Node21 -->
<g id="edge49" class="edge">
<title>Node23&#45;&gt;Node21</title>
<path fill="none" stroke="#191970" d="M608.6813,-369.4369C545.2961,-359.6314 446.8079,-344.3957 380.08,-334.0731"/>
<polygon fill="#191970" stroke="#191970" points="380.4813,-330.5937 370.0637,-332.5237 379.4111,-337.5114 380.4813,-330.5937"/>
</g>
<!-- Node24 -->
<g id="node25" class="node">
<title>Node24</title>
<g id="a_node25"><a xlink:href="default_8h_source.html" target="_top" xlink:title="ViennaRNA/params/default.h">
<polygon fill="none" stroke="#000000" points="8.5,-190.5 8.5,-209.5 152.5,-209.5 152.5,-190.5 8.5,-190.5"/>
<text text-anchor="middle" x="80.5" y="-197.5" font-family="Helvetica,sans-Serif" font-size="10.00" fill="#000000">ViennaRNA/params/default.h</text>
</a>
</g>
</g>
<!-- Node23&#45;&gt;Node24 -->
<g id="edge50" class="edge">
<title>Node23&#45;&gt;Node24</title>
<path fill="none" stroke="#191970" d="M601.5886,-373.7891C487.9208,-364.8798 270.3612,-346.3864 237.5,-333 175.171,-307.6096 119.5497,-247.556 94.5215,-217.6117"/>
<polygon fill="#191970" stroke="#191970" points="97.0726,-215.2027 88.0271,-209.6865 91.6583,-219.6396 97.0726,-215.2027"/>
</g>
<!-- Node24&#45;&gt;Node3 -->
<g id="edge51" class="edge">
<title>Node24&#45;&gt;Node3</title>
<path fill="none" stroke="#191970" d="M96.0586,-190.3416C131.8856,-168.1012 220.4188,-113.1422 263.3648,-86.4825"/>
<polygon fill="#191970" stroke="#191970" points="265.393,-89.343 272.0432,-81.0952 261.7011,-83.3957 265.393,-89.343"/>
</g>
<!-- Node25&#45;&gt;Node2 -->
<g id="edge58" class="edge">
<title>Node25&#45;&gt;Node2</title>
<path fill="none" stroke="#191970" d="M423.4933,-369.4915C436.5037,-354.7211 463.8086,-326.5562 493.5,-313 537.4927,-292.9142 664.0264,-277.1903 747.2862,-268.6381"/>
<polygon fill="#191970" stroke="#191970" points="747.8734,-272.0966 757.4693,-267.6057 747.1672,-265.1323 747.8734,-272.0966"/>
</g>
<!-- Node25&#45;&gt;Node7 -->
<g id="edge59" class="edge">
<title>Node25&#45;&gt;Node7</title>
<path fill="none" stroke="#191970" d="M412.9927,-369.2742C403.703,-333.239 371.1328,-206.8983 358.5314,-158.0168"/>
<polygon fill="#191970" stroke="#191970" points="361.8561,-156.8929 355.9705,-148.0833 355.0778,-158.6404 361.8561,-156.8929"/>
</g>
<!-- Node25&#45;&gt;Node21 -->
<g id="edge57" class="edge">
<title>Node25&#45;&gt;Node21</title>
<path fill="none" stroke="#191970" d="M396.862,-369.2455C380.0614,-360.4527 355.1366,-347.4079 336.0382,-337.4125"/>
<polygon fill="#191970" stroke="#191970" points="337.4073,-334.1787 326.9244,-332.6427 334.1614,-340.3807 337.4073,-334.1787"/>
</g>
</g>
</svg>
        <g id="navigator" transform="translate(0 0)" fill="#404254">
                <rect fill="#f2f5e9" fill-opacity="0.5" stroke="#606060" stroke-width=".5" x="0" y="0" width="60" height="60"/>
                <use id="zoomplus" xlink:href="#zoomPlus" x="17" y="9" onmousedown="handleZoom(evt,'in')"/>
                <use id="zoomminus" xlink:href="#zoomMin" x="42" y="9" onmousedown="handleZoom(evt,'out')"/>
                <use id="reset" xlink:href="#resetDef" x="30" y="36" onmousedown="handleReset()"/>
                <g id="arrowUp" xlink:href="#dirArrow" transform="translate(30 24)" onmousedown="handlePan(0,-1)">
                  <use xlink:href="#rim" fill="#404040">
                        <set attributeName="fill" to="#808080" begin="arrowUp.mouseover" end="arrowUp.mouseout"/>
                  </use>
                  <path fill="none" stroke="white" stroke-width="1.5" d="M0,-3.0v7 M-2.5,-0.5L0,-3.0L2.5,-0.5"/>
                </g>
                <g id="arrowRight" xlink:href="#dirArrow" transform="rotate(90) translate(36 -43)" onmousedown="handlePan(1,0)">
                  <use xlink:href="#rim" fill="#404040">
                        <set attributeName="fill" to="#808080" begin="arrowRight.mouseover" end="arrowRight.mouseout"/>
                  </use>
                  <path fill="none" stroke="white" stroke-width="1.5" d="M0,-3.0v7 M-2.5,-0.5L0,-3.0L2.5,-0.5"/>
                </g>
                <g id="arrowDown" xlink:href="#dirArrow" transform="rotate(180) translate(-30 -48)" onmousedown="handlePan(0,1)">
                  <use xlink:href="#rim" fill="#404040">
                        <set attributeName="fill" to="#808080" begin="arrowDown.mouseover" end="arrowDown.mouseout"/>
                  </use>
                  <path fill="none" stroke="white" stroke-width="1.5" d="M0,-3.0v7 M-2.5,-0.5L0,-3.0L2.5,-0.5"/>
                </g>
                <g id="arrowLeft" xlink:href="#dirArrow" transform="rotate(270) translate(-36 17)" onmousedown="handlePan(-1,0)">
                  <use xlink:href="#rim" fill="#404040">
                        <set attributeName="fill" to="#808080" begin="arrowLeft.mouseover" end="arrowLeft.mouseout"/>
                  </use>
                  <path fill="none" stroke="white" stroke-width="1.5" d="M0,-3.0v7 M-2.5,-0.5L0,-3.0L2.5,-0.5"/>
                </g>
        </g>
        <svg viewBox="0 0 15 15" width="100%" height="30px" preserveAspectRatio="xMaxYMin meet">
         <g id="arrow_out" transform="scale(0.3 0.3)">
          <a xlink:href="all_8h__incl_org.svg" target="_base">
           <rect id="button" ry="5" rx="5" y="6" x="6" height="38" width="38"
                fill="#f2f5e9" fill-opacity="0.5" stroke="#606060" stroke-width="1.0"/>
           <path id="arrow"
             d="M 11.500037,31.436501 C 11.940474,20.09759 22.043105,11.32322 32.158766,21.979434 L 37.068811,17.246167 C 37.068811,17.246167 37.088388,32 37.088388,32 L 22.160133,31.978069 C 22.160133,31.978069 26.997745,27.140456 26.997745,27.140456 C 18.528582,18.264221 13.291696,25.230495 11.500037,31.436501 z"
             style="fill:#404040;"/>
          </a>
         </g>
        </svg>
</svg>
