<?xml version="1.0" encoding="UTF-8" standalone="no"?>
<!DOCTYPE svg PUBLIC "-//W3C//DTD SVG 1.1//EN"
 "http://www.w3.org/Graphics/SVG/1.1/DTD/svg11.dtd">
<!-- Generated by graphviz version 2.40.1 (20161225.0304)
 -->
<!-- Title: ViennaRNA/boltzmann_sampling.h Pages: 1 -->
<svg width="268pt" height="151pt"
 viewBox="0.00 0.00 267.50 151.00" xmlns="http://www.w3.org/2000/svg" xmlns:xlink="http://www.w3.org/1999/xlink">
<g id="graph0" class="graph" transform="scale(1 1) rotate(0) translate(4 147)">
<title>ViennaRNA/boltzmann_sampling.h</title>
<!-- Node17 -->
<g id="node1" class="node">
<title>Node17</title>
<polygon fill="#bfbfbf" stroke="#000000" points="38.5,-112.5 38.5,-142.5 154.5,-142.5 154.5,-112.5 38.5,-112.5"/>
<text text-anchor="start" x="46.5" y="-130.5" font-family="Helvetica,sans-Serif" font-size="10.00" fill="#000000">ViennaRNA/boltzmann</text>
<text text-anchor="middle" x="96.5" y="-119.5" font-family="Helvetica,sans-Serif" font-size="10.00" fill="#000000">_sampling.h</text>
</g>
<!-- Node18 -->
<g id="node2" class="node">
<title>Node18</title>
<g id="a_node2"><a xlink:href="alifold_8h.html" target="_top" xlink:title="Functions for comparative structure prediction using RNA sequence alignments. ">
<polygon fill="none" stroke="#000000" points="0,-.5 0,-19.5 105,-19.5 105,-.5 0,-.5"/>
<text text-anchor="middle" x="52.5" y="-7.5" font-family="Helvetica,sans-Serif" font-size="10.00" fill="#000000">ViennaRNA/alifold.h</text>
</a>
</g>
</g>
<!-- Node17&#45;&gt;Node18 -->
<g id="edge1" class="edge">
<title>Node17&#45;&gt;Node18</title>
<path fill="none" stroke="#191970" d="M83.775,-103.4666C79.542,-94.9336 75.0157,-85.1699 71.5,-76 63.9873,-56.4051 57.8241,-32.5579 54.7058,-19.5669"/>
<polygon fill="#191970" stroke="#191970" points="80.7065,-105.154 88.36,-112.4804 86.9458,-101.9803 80.7065,-105.154"/>
</g>
<!-- Node19 -->
<g id="node3" class="node">
<title>Node19</title>
<g id="a_node3"><a xlink:href="part__func_8h.html" target="_top" xlink:title="Partition function implementations. ">
<polygon fill="none" stroke="#000000" points="80.5,-56.5 80.5,-75.5 200.5,-75.5 200.5,-56.5 80.5,-56.5"/>
<text text-anchor="middle" x="140.5" y="-63.5" font-family="Helvetica,sans-Serif" font-size="10.00" fill="#000000">ViennaRNA/part_func.h</text>
</a>
</g>
</g>
<!-- Node17&#45;&gt;Node19 -->
<g id="edge2" class="edge">
<title>Node17&#45;&gt;Node19</title>
<path fill="none" stroke="#191970" d="M113.2593,-104.0751C120.2617,-94.2877 128.0162,-83.449 133.455,-75.8469"/>
<polygon fill="#191970" stroke="#191970" points="110.3486,-102.1283 107.3764,-112.2977 116.0416,-106.2014 110.3486,-102.1283"/>
</g>
<!-- Node19&#45;&gt;Node18 -->
<g id="edge3" class="edge">
<title>Node19&#45;&gt;Node18</title>
<path fill="none" stroke="#191970" d="M116.5655,-50.769C100.9717,-40.8456 81.099,-28.1994 67.6528,-19.6427"/>
<polygon fill="#191970" stroke="#191970" points="114.8559,-53.8296 125.1716,-56.2455 118.614,-47.9239 114.8559,-53.8296"/>
</g>
<!-- Node20 -->
<g id="node4" class="node">
<title>Node20</title>
<g id="a_node4"><a xlink:href="part__func__co_8h.html" target="_top" xlink:title="Partition function for two RNA sequences. ">
<polygon fill="none" stroke="#000000" points="123.5,-.5 123.5,-19.5 259.5,-19.5 259.5,-.5 123.5,-.5"/>
<text text-anchor="middle" x="191.5" y="-7.5" font-family="Helvetica,sans-Serif" font-size="10.00" fill="#000000">ViennaRNA/part_func_co.h</text>
</a>
</g>
</g>
<!-- Node19&#45;&gt;Node20 -->
<g id="edge4" class="edge">
<title>Node19&#45;&gt;Node20</title>
<path fill="none" stroke="#191970" d="M156.1749,-48.7884C164.8994,-39.2085 175.4354,-27.6396 182.7183,-19.6427"/>
<polygon fill="#191970" stroke="#191970" points="153.5291,-46.4954 149.3835,-56.2455 158.7046,-51.2088 153.5291,-46.4954"/>
</g>
</g>
</svg>
