<?xml version="1.0" encoding="UTF-8" standalone="no"?>
<!DOCTYPE svg PUBLIC "-//W3C//DTD SVG 1.1//EN"
 "http://www.w3.org/Graphics/SVG/1.1/DTD/svg11.dtd">
<!-- Generated by graphviz version 2.40.1 (20161225.0304)
 -->
<!-- Title: ViennaRNA/char_stream.h Pages: 1 -->
<svg width="142pt" height="151pt"
 viewBox="0.00 0.00 142.00 151.00" xmlns="http://www.w3.org/2000/svg" xmlns:xlink="http://www.w3.org/1999/xlink">
<g id="graph0" class="graph" transform="scale(1 1) rotate(0) translate(4 147)">
<title>ViennaRNA/char_stream.h</title>
<!-- Node0 -->
<g id="node1" class="node">
<title>Node0</title>
<polygon fill="#bfbfbf" stroke="#000000" points="0,-123.5 0,-142.5 134,-142.5 134,-123.5 0,-123.5"/>
<text text-anchor="middle" x="67" y="-130.5" font-family="Helvetica,sans-Serif" font-size="10.00" fill="#000000">ViennaRNA/char_stream.h</text>
</g>
<!-- Node1 -->
<g id="node2" class="node">
<title>Node1</title>
<g id="a_node2"><a xlink:href="datastructures_2char__stream_8h.html" target="_top" xlink:title="Implementation of a dynamic, buffered character stream. ">
<polygon fill="none" stroke="#000000" points="0,-56.5 0,-86.5 134,-86.5 134,-56.5 0,-56.5"/>
<text text-anchor="start" x="8" y="-74.5" font-family="Helvetica,sans-Serif" font-size="10.00" fill="#000000">ViennaRNA/datastructures</text>
<text text-anchor="middle" x="67" y="-63.5" font-family="Helvetica,sans-Serif" font-size="10.00" fill="#000000">/char_stream.h</text>
</a>
</g>
</g>
<!-- Node0&#45;&gt;Node1 -->
<g id="edge1" class="edge">
<title>Node0&#45;&gt;Node1</title>
<path fill="none" stroke="#191970" d="M67,-123.3906C67,-116.2234 67,-106.0862 67,-96.671"/>
<polygon fill="#191970" stroke="#191970" points="70.5001,-96.5446 67,-86.5446 63.5001,-96.5446 70.5001,-96.5446"/>
</g>
<!-- Node2 -->
<g id="node3" class="node">
<title>Node2</title>
<polygon fill="none" stroke="#bfbfbf" points="41,-.5 41,-19.5 93,-19.5 93,-.5 41,-.5"/>
<text text-anchor="middle" x="67" y="-7.5" font-family="Helvetica,sans-Serif" font-size="10.00" fill="#000000">stdarg.h</text>
</g>
<!-- Node1&#45;&gt;Node2 -->
<g id="edge2" class="edge">
<title>Node1&#45;&gt;Node2</title>
<path fill="none" stroke="#191970" d="M67,-56.2977C67,-48.3834 67,-38.6043 67,-30.0759"/>
<polygon fill="#191970" stroke="#191970" points="70.5001,-29.8469 67,-19.8469 63.5001,-29.847 70.5001,-29.8469"/>
</g>
</g>
</svg>
