<?xml version="1.0" encoding="UTF-8" standalone="no"?>
<!DOCTYPE svg PUBLIC "-//W3C//DTD SVG 1.1//EN"
 "http://www.w3.org/Graphics/SVG/1.1/DTD/svg11.dtd">
<!-- Generated by graphviz version 2.40.1 (20161225.0304)
 -->
<!-- Title: ViennaRNA/cofold.h Pages: 1 -->
<svg width="1435pt" height="397pt"
 viewBox="0.00 0.00 1435.00 397.00" xmlns="http://www.w3.org/2000/svg" xmlns:xlink="http://www.w3.org/1999/xlink">
<g id="graph0" class="graph" transform="scale(1 1) rotate(0) translate(4 393)">
<title>ViennaRNA/cofold.h</title>
<!-- Node0 -->
<g id="node1" class="node">
<title>Node0</title>
<polygon fill="#bfbfbf" stroke="#000000" points="733,-369.5 733,-388.5 839,-388.5 839,-369.5 733,-369.5"/>
<text text-anchor="middle" x="786" y="-376.5" font-family="Helvetica,sans-Serif" font-size="10.00" fill="#000000">ViennaRNA/cofold.h</text>
</g>
<!-- Node1 -->
<g id="node2" class="node">
<title>Node1</title>
<g id="a_node2"><a xlink:href="datastructures_2basic_8h.html" target="_top" xlink:title="Various data structures and pre&#45;processor macros. ">
<polygon fill="none" stroke="#000000" points="757,-246.5 757,-276.5 891,-276.5 891,-246.5 757,-246.5"/>
<text text-anchor="start" x="765" y="-264.5" font-family="Helvetica,sans-Serif" font-size="10.00" fill="#000000">ViennaRNA/datastructures</text>
<text text-anchor="middle" x="824" y="-253.5" font-family="Helvetica,sans-Serif" font-size="10.00" fill="#000000">/basic.h</text>
</a>
</g>
</g>
<!-- Node0&#45;&gt;Node1 -->
<g id="edge1" class="edge">
<title>Node0&#45;&gt;Node1</title>
<path fill="none" stroke="#191970" d="M788.6095,-369.0913C792.081,-356.1198 798.5353,-332.7143 805,-313 807.8711,-304.2444 811.2838,-294.7562 814.4193,-286.3378"/>
<polygon fill="#191970" stroke="#191970" points="817.7925,-287.3125 818.0516,-276.7209 811.244,-284.8392 817.7925,-287.3125"/>
</g>
<!-- Node6 -->
<g id="node7" class="node">
<title>Node6</title>
<g id="a_node7"><a xlink:href="params_2basic_8h.html" target="_top" xlink:title="Functions to deal with sets of energy parameters. ">
<polygon fill="none" stroke="#000000" points="85,-129 85,-148 223,-148 223,-129 85,-129"/>
<text text-anchor="middle" x="154" y="-136" font-family="Helvetica,sans-Serif" font-size="10.00" fill="#000000">ViennaRNA/params/basic.h</text>
</a>
</g>
</g>
<!-- Node0&#45;&gt;Node6 -->
<g id="edge37" class="edge">
<title>Node0&#45;&gt;Node6</title>
<path fill="none" stroke="#191970" d="M732.751,-375.6395C623.2979,-366.3325 369.2975,-332.1408 202,-210 183.6003,-196.5668 170.0987,-173.7938 162.183,-157.5585"/>
<polygon fill="#191970" stroke="#191970" points="165.3443,-156.0557 157.9823,-148.4365 158.9861,-158.9837 165.3443,-156.0557"/>
</g>
<!-- Node17 -->
<g id="node18" class="node">
<title>Node17</title>
<g id="a_node18"><a xlink:href="mfe_8h.html" target="_top" xlink:title="Compute Minimum Free energy (MFE) and backtrace corresponding secondary structures from RNA sequence ...">
<polygon fill="none" stroke="#000000" points="814,-313.5 814,-332.5 910,-332.5 910,-313.5 814,-313.5"/>
<text text-anchor="middle" x="862" y="-320.5" font-family="Helvetica,sans-Serif" font-size="10.00" fill="#000000">ViennaRNA/mfe.h</text>
</a>
</g>
</g>
<!-- Node0&#45;&gt;Node17 -->
<g id="edge38" class="edge">
<title>Node0&#45;&gt;Node17</title>
<path fill="none" stroke="#191970" d="M799.2382,-369.2455C810.681,-360.814 827.4296,-348.4729 840.7475,-338.6598"/>
<polygon fill="#191970" stroke="#191970" points="842.9391,-341.3924 848.9135,-332.6427 838.7867,-335.757 842.9391,-341.3924"/>
</g>
<!-- Node2 -->
<g id="node3" class="node">
<title>Node2</title>
<g id="a_node3"><a xlink:href="constants_8h.html" target="_top" xlink:title="Energy parameter constants. ">
<polygon fill="none" stroke="#000000" points="0,-62 0,-81 158,-81 158,-62 0,-62"/>
<text text-anchor="middle" x="79" y="-69" font-family="Helvetica,sans-Serif" font-size="10.00" fill="#000000">ViennaRNA/params/constants.h</text>
</a>
</g>
</g>
<!-- Node1&#45;&gt;Node2 -->
<g id="edge2" class="edge">
<title>Node1&#45;&gt;Node2</title>
<path fill="none" stroke="#191970" d="M756.8547,-258.7806C618.3932,-252.7089 305.4669,-236.4654 202,-210 142.6296,-194.8139 109.3933,-205.3843 76,-154 63.7836,-135.2019 67.6162,-108.5746 72.4462,-90.7041"/>
<polygon fill="#191970" stroke="#191970" points="75.8095,-91.6738 75.3696,-81.0881 69.1122,-89.6377 75.8095,-91.6738"/>
</g>
<!-- Node4 -->
<g id="node5" class="node">
<title>Node4</title>
<g id="a_node5"><a xlink:href="fold__compound_8h.html" target="_top" xlink:title="The Basic Fold Compound API. ">
<polygon fill="none" stroke="#000000" points="641,-190.5 641,-209.5 787,-209.5 787,-190.5 641,-190.5"/>
<text text-anchor="middle" x="714" y="-197.5" font-family="Helvetica,sans-Serif" font-size="10.00" fill="#000000">ViennaRNA/fold_compound.h</text>
</a>
</g>
</g>
<!-- Node1&#45;&gt;Node4 -->
<g id="edge4" class="edge">
<title>Node1&#45;&gt;Node4</title>
<path fill="none" stroke="#191970" d="M797.091,-246.4554C779.7032,-236.734 757.1951,-224.15 739.9916,-214.5317"/>
<polygon fill="#191970" stroke="#191970" points="741.4826,-211.3554 731.0461,-209.5303 738.0665,-217.4653 741.4826,-211.3554"/>
</g>
<!-- Node5 -->
<g id="node6" class="node">
<title>Node5</title>
<g id="a_node6"><a xlink:href="model_8h.html" target="_top" xlink:title="The model details data structure and its corresponding modifiers. ">
<polygon fill="none" stroke="#000000" points="198,-62 198,-81 304,-81 304,-62 198,-62"/>
<text text-anchor="middle" x="251" y="-69" font-family="Helvetica,sans-Serif" font-size="10.00" fill="#000000">ViennaRNA/model.h</text>
</a>
</g>
</g>
<!-- Node1&#45;&gt;Node5 -->
<g id="edge28" class="edge">
<title>Node1&#45;&gt;Node5</title>
<path fill="none" stroke="#191970" d="M756.762,-257.6181C624.7259,-248.5767 338.5155,-221.5155 271,-154 254.5256,-137.5256 250.7711,-109.9377 250.3092,-91.2443"/>
<polygon fill="#191970" stroke="#191970" points="253.8093,-91.1906 250.3544,-81.175 246.8094,-91.1591 253.8093,-91.1906"/>
</g>
<!-- Node1&#45;&gt;Node6 -->
<g id="edge29" class="edge">
<title>Node1&#45;&gt;Node6</title>
<path fill="none" stroke="#191970" d="M756.7932,-260.8307C621.4281,-258.6493 321.3107,-249.3748 228,-210 200.2043,-198.2709 174.9876,-173.6255 161.9669,-156.5736"/>
<polygon fill="#191970" stroke="#191970" points="164.6141,-154.248 156.0489,-148.0119 158.8558,-158.2282 164.6141,-154.248"/>
</g>
<!-- Node8 -->
<g id="node9" class="node">
<title>Node8</title>
<g id="a_node9"><a xlink:href="dp__matrices_8h.html" target="_top" xlink:title="Functions to deal with standard dynamic programming (DP) matrices. ">
<polygon fill="none" stroke="#000000" points="412.5,-129 412.5,-148 545.5,-148 545.5,-129 412.5,-129"/>
<text text-anchor="middle" x="479" y="-136" font-family="Helvetica,sans-Serif" font-size="10.00" fill="#000000">ViennaRNA/dp_matrices.h</text>
</a>
</g>
</g>
<!-- Node1&#45;&gt;Node8 -->
<g id="edge30" class="edge">
<title>Node1&#45;&gt;Node8</title>
<path fill="none" stroke="#191970" d="M756.6384,-248.352C717.0168,-239.2084 666.448,-225.8407 623,-210 577.9071,-193.5596 527.9224,-168.9088 500.0935,-153.2702"/>
<polygon fill="#191970" stroke="#191970" points="501.6282,-150.1147 491.2184,-148.1427 498.1264,-156.1759 501.6282,-150.1147"/>
</g>
<!-- Node9 -->
<g id="node10" class="node">
<title>Node9</title>
<g id="a_node10"><a xlink:href="hard_8h.html" target="_top" xlink:title="Functions and data structures for handling of secondary structure hard constraints. ">
<polygon fill="none" stroke="#000000" points="879.5,-123.5 879.5,-153.5 998.5,-153.5 998.5,-123.5 879.5,-123.5"/>
<text text-anchor="start" x="887.5" y="-141.5" font-family="Helvetica,sans-Serif" font-size="10.00" fill="#000000">ViennaRNA/constraints</text>
<text text-anchor="middle" x="939" y="-130.5" font-family="Helvetica,sans-Serif" font-size="10.00" fill="#000000">/hard.h</text>
</a>
</g>
</g>
<!-- Node1&#45;&gt;Node9 -->
<g id="edge31" class="edge">
<title>Node1&#45;&gt;Node9</title>
<path fill="none" stroke="#191970" d="M833.487,-246.4178C850.9132,-225.0239 887.4214,-185.7133 912.7025,-160.9037"/>
<polygon fill="#191970" stroke="#191970" points="915.3935,-163.1705 920.1543,-153.7056 910.5302,-158.1358 915.3935,-163.1705"/>
</g>
<!-- Node11 -->
<g id="node12" class="node">
<title>Node11</title>
<g id="a_node12"><a xlink:href="soft_8h.html" target="_top" xlink:title="Functions and data structures for secondary structure soft constraints. ">
<polygon fill="none" stroke="#000000" points="742.5,-123.5 742.5,-153.5 861.5,-153.5 861.5,-123.5 742.5,-123.5"/>
<text text-anchor="start" x="750.5" y="-141.5" font-family="Helvetica,sans-Serif" font-size="10.00" fill="#000000">ViennaRNA/constraints</text>
<text text-anchor="middle" x="802" y="-130.5" font-family="Helvetica,sans-Serif" font-size="10.00" fill="#000000">/soft.h</text>
</a>
</g>
</g>
<!-- Node1&#45;&gt;Node11 -->
<g id="edge32" class="edge">
<title>Node1&#45;&gt;Node11</title>
<path fill="none" stroke="#191970" d="M816.6881,-246.4178C810.5337,-225.8539 803.5719,-188.7363 800.9519,-163.8546"/>
<polygon fill="#191970" stroke="#191970" points="804.4237,-163.3738 800.0906,-153.7056 797.4488,-163.9657 804.4237,-163.3738"/>
</g>
<!-- Node12 -->
<g id="node13" class="node">
<title>Node12</title>
<g id="a_node13"><a xlink:href="grammar_8h.html" target="_top" xlink:title="Implementations for the RNA folding grammar. ">
<polygon fill="none" stroke="#000000" points="1055,-129 1055,-148 1173,-148 1173,-129 1055,-129"/>
<text text-anchor="middle" x="1114" y="-136" font-family="Helvetica,sans-Serif" font-size="10.00" fill="#000000">ViennaRNA/grammar.h</text>
</a>
</g>
</g>
<!-- Node1&#45;&gt;Node12 -->
<g id="edge33" class="edge">
<title>Node1&#45;&gt;Node12</title>
<path fill="none" stroke="#191970" d="M891.0874,-253.8622C933.503,-247.0111 988.2623,-234.1226 1032,-210 1056.8302,-196.3054 1079.1129,-171.8372 1094.5399,-155.3882"/>
<polygon fill="#191970" stroke="#191970" points="1097.1779,-157.6934 1101.5435,-148.0398 1092.1106,-152.8639 1097.1779,-157.6934"/>
</g>
<!-- Node13 -->
<g id="node14" class="node">
<title>Node13</title>
<g id="a_node14"><a xlink:href="structured__domains_8h.html" target="_top" xlink:title="This module provides interfaces that deal with additional structured domains in the folding grammar...">
<polygon fill="none" stroke="#000000" points="279.5,-123.5 279.5,-153.5 394.5,-153.5 394.5,-123.5 279.5,-123.5"/>
<text text-anchor="start" x="287.5" y="-141.5" font-family="Helvetica,sans-Serif" font-size="10.00" fill="#000000">ViennaRNA/structured</text>
<text text-anchor="middle" x="337" y="-130.5" font-family="Helvetica,sans-Serif" font-size="10.00" fill="#000000">_domains.h</text>
</a>
</g>
</g>
<!-- Node1&#45;&gt;Node13 -->
<g id="edge34" class="edge">
<title>Node1&#45;&gt;Node13</title>
<path fill="none" stroke="#191970" d="M756.8781,-248.8008C707.6818,-239.1372 639.401,-224.9834 580,-210 515.774,-193.7995 443.0035,-171.9109 393.9771,-156.6359"/>
<polygon fill="#191970" stroke="#191970" points="394.7817,-153.2205 384.1929,-153.5771 392.6929,-159.9016 394.7817,-153.2205"/>
</g>
<!-- Node14 -->
<g id="node15" class="node">
<title>Node14</title>
<g id="a_node15"><a xlink:href="unstructured__domains_8h.html" target="_top" xlink:title="Functions to modify unstructured domains, e.g. to incorporate ligands binding to unpaired stretches...">
<polygon fill="none" stroke="#000000" points="1191.5,-123.5 1191.5,-153.5 1316.5,-153.5 1316.5,-123.5 1191.5,-123.5"/>
<text text-anchor="start" x="1199.5" y="-141.5" font-family="Helvetica,sans-Serif" font-size="10.00" fill="#000000">ViennaRNA/unstructured</text>
<text text-anchor="middle" x="1254" y="-130.5" font-family="Helvetica,sans-Serif" font-size="10.00" fill="#000000">_domains.h</text>
</a>
</g>
</g>
<!-- Node1&#45;&gt;Node14 -->
<g id="edge35" class="edge">
<title>Node1&#45;&gt;Node14</title>
<path fill="none" stroke="#191970" d="M891.1704,-249.9824C940.6245,-241.2531 1009.0892,-227.7314 1068,-210 1115.6309,-195.6637 1168.251,-173.5613 1205.4519,-157.7267"/>
<polygon fill="#191970" stroke="#191970" points="1207.2126,-160.781 1215.0409,-153.6418 1204.4692,-154.341 1207.2126,-160.781"/>
</g>
<!-- Node15 -->
<g id="node16" class="node">
<title>Node15</title>
<g id="a_node16"><a xlink:href="utils_2structures_8h.html" target="_top" xlink:title="Various utility&#45; and helper&#45;functions for secondary structure parsing, converting, etc. ">
<polygon fill="none" stroke="#000000" points="1255,-62 1255,-81 1399,-81 1399,-62 1255,-62"/>
<text text-anchor="middle" x="1327" y="-69" font-family="Helvetica,sans-Serif" font-size="10.00" fill="#000000">ViennaRNA/utils/structures.h</text>
</a>
</g>
</g>
<!-- Node1&#45;&gt;Node15 -->
<g id="edge36" class="edge">
<title>Node1&#45;&gt;Node15</title>
<path fill="none" stroke="#191970" d="M891.299,-257.1454C1013.906,-247.8579 1265.468,-221.1851 1317,-154 1330.6445,-136.2109 1327.9786,-109.3357 1325.9028,-91.1342"/>
<polygon fill="#191970" stroke="#191970" points="1329.3719,-90.6564 1324.8378,-81.0808 1322.4109,-91.394 1329.3719,-90.6564"/>
</g>
<!-- Node3 -->
<g id="node4" class="node">
<title>Node3</title>
<polygon fill="none" stroke="#bfbfbf" points="55,-.5 55,-19.5 103,-19.5 103,-.5 55,-.5"/>
<text text-anchor="middle" x="79" y="-7.5" font-family="Helvetica,sans-Serif" font-size="10.00" fill="#000000">limits.h</text>
</g>
<!-- Node2&#45;&gt;Node3 -->
<g id="edge3" class="edge">
<title>Node2&#45;&gt;Node3</title>
<path fill="none" stroke="#191970" d="M79,-61.8906C79,-53.3657 79,-40.6392 79,-29.9235"/>
<polygon fill="#191970" stroke="#191970" points="82.5001,-29.7448 79,-19.7449 75.5001,-29.7449 82.5001,-29.7448"/>
</g>
<!-- Node4&#45;&gt;Node5 -->
<g id="edge5" class="edge">
<title>Node4&#45;&gt;Node5</title>
<path fill="none" stroke="#191970" d="M714.7896,-190.4728C715.5774,-173.9737 714.5272,-140.202 695,-123 666.9859,-98.3217 430.1887,-81.6438 314.3344,-74.8836"/>
<polygon fill="#191970" stroke="#191970" points="314.369,-71.3799 304.1841,-74.2987 313.9662,-78.3683 314.369,-71.3799"/>
</g>
<!-- Node4&#45;&gt;Node6 -->
<g id="edge6" class="edge">
<title>Node4&#45;&gt;Node6</title>
<path fill="none" stroke="#191970" d="M640.6384,-193.0224C552.7161,-184.512 400.9658,-169.3534 271,-154 258.7973,-152.5584 245.8913,-150.9417 233.2811,-149.311"/>
<polygon fill="#191970" stroke="#191970" points="233.6192,-145.8255 223.2506,-148.0032 232.7141,-152.7668 233.6192,-145.8255"/>
</g>
<!-- Node7 -->
<g id="node8" class="node">
<title>Node7</title>
<g id="a_node8"><a xlink:href="sequence_8h.html" target="_top" xlink:title="Functions and data structures related to sequence representations ,. ">
<polygon fill="none" stroke="#000000" points="564,-129 564,-148 686,-148 686,-129 564,-129"/>
<text text-anchor="middle" x="625" y="-136" font-family="Helvetica,sans-Serif" font-size="10.00" fill="#000000">ViennaRNA/sequence.h</text>
</a>
</g>
</g>
<!-- Node4&#45;&gt;Node7 -->
<g id="edge10" class="edge">
<title>Node4&#45;&gt;Node7</title>
<path fill="none" stroke="#191970" d="M700.0938,-190.3906C685.9862,-180.6421 663.9276,-165.3994 647.3615,-153.9521"/>
<polygon fill="#191970" stroke="#191970" points="649.0253,-150.8474 638.8086,-148.0419 645.0458,-156.6063 649.0253,-150.8474"/>
</g>
<!-- Node4&#45;&gt;Node8 -->
<g id="edge11" class="edge">
<title>Node4&#45;&gt;Node8</title>
<path fill="none" stroke="#191970" d="M677.5391,-190.4581C636.5485,-179.7308 569.9031,-162.2895 525.274,-150.61"/>
<polygon fill="#191970" stroke="#191970" points="526.1068,-147.2101 515.5464,-148.0643 524.3345,-153.9821 526.1068,-147.2101"/>
</g>
<!-- Node4&#45;&gt;Node9 -->
<g id="edge13" class="edge">
<title>Node4&#45;&gt;Node9</title>
<path fill="none" stroke="#191970" d="M749.1563,-190.3906C782.4973,-181.2774 833.4047,-167.3627 874.1129,-156.2358"/>
<polygon fill="#191970" stroke="#191970" points="875.2355,-159.5574 883.9588,-153.5446 873.3898,-152.8051 875.2355,-159.5574"/>
</g>
<!-- Node4&#45;&gt;Node11 -->
<g id="edge17" class="edge">
<title>Node4&#45;&gt;Node11</title>
<path fill="none" stroke="#191970" d="M727.75,-190.3906C739.5495,-182.1444 756.9742,-169.9669 771.9788,-159.4807"/>
<polygon fill="#191970" stroke="#191970" points="774.281,-162.1419 780.4728,-153.5446 770.2711,-156.4042 774.281,-162.1419"/>
</g>
<!-- Node4&#45;&gt;Node12 -->
<g id="edge20" class="edge">
<title>Node4&#45;&gt;Node12</title>
<path fill="none" stroke="#191970" d="M776.0611,-190.4581C848.8294,-179.27 969.0979,-160.7787 1044.8115,-149.1377"/>
<polygon fill="#191970" stroke="#191970" points="1045.3799,-152.5916 1054.7318,-147.6125 1044.3161,-145.6729 1045.3799,-152.5916"/>
</g>
<!-- Node4&#45;&gt;Node13 -->
<g id="edge22" class="edge">
<title>Node4&#45;&gt;Node13</title>
<path fill="none" stroke="#191970" d="M640.7526,-190.8132C580.0979,-182.8195 491.4599,-170.2507 404.7023,-154.043"/>
<polygon fill="#191970" stroke="#191970" points="405.1571,-150.5671 394.6816,-152.1529 403.8596,-157.4458 405.1571,-150.5671"/>
</g>
<!-- Node4&#45;&gt;Node14 -->
<g id="edge23" class="edge">
<title>Node4&#45;&gt;Node14</title>
<path fill="none" stroke="#191970" d="M787.2835,-195.3948C877.6138,-189.1363 1035.9482,-176.2743 1181.2555,-153.9999"/>
<polygon fill="#191970" stroke="#191970" points="1181.9048,-157.4411 1191.2501,-152.4495 1180.8317,-150.5238 1181.9048,-157.4411"/>
</g>
<!-- Node6&#45;&gt;Node1 -->
<g id="edge8" class="edge">
<title>Node6&#45;&gt;Node1</title>
<path fill="none" stroke="#191970" d="M166.92,-148.0119C183.7365,-164.0546 213.0569,-196.0988 246,-210 334.7024,-247.4302 610.2889,-257.6598 746.4225,-260.4528"/>
<polygon fill="#191970" stroke="#191970" points="746.7056,-263.959 756.7725,-260.6563 746.8433,-256.9603 746.7056,-263.959"/>
</g>
<!-- Node6&#45;&gt;Node2 -->
<g id="edge7" class="edge">
<title>Node6&#45;&gt;Node2</title>
<path fill="none" stroke="#191970" d="M143.2543,-128.9005C131.336,-118.2535 111.8943,-100.8856 97.5132,-88.0385"/>
<polygon fill="#191970" stroke="#191970" points="99.5151,-85.1337 89.7257,-81.0817 94.8516,-90.354 99.5151,-85.1337"/>
</g>
<!-- Node6&#45;&gt;Node5 -->
<g id="edge9" class="edge">
<title>Node6&#45;&gt;Node5</title>
<path fill="none" stroke="#191970" d="M167.8977,-128.9005C183.8164,-117.9052 210.1121,-99.7422 228.8599,-86.7927"/>
<polygon fill="#191970" stroke="#191970" points="230.8892,-89.6448 237.128,-81.0817 226.9108,-83.8852 230.8892,-89.6448"/>
</g>
<!-- Node8&#45;&gt;Node1 -->
<g id="edge12" class="edge">
<title>Node8&#45;&gt;Node1</title>
<path fill="none" stroke="#191970" d="M502.3863,-148.0214C533.7587,-162.8252 590.4528,-191.571 641,-210 677.8885,-223.4491 719.91,-235.1157 754.4267,-243.9279"/>
<polygon fill="#191970" stroke="#191970" points="753.864,-247.3957 764.4168,-246.453 755.5795,-240.6091 753.864,-247.3957"/>
</g>
<!-- Node9&#45;&gt;Node1 -->
<g id="edge14" class="edge">
<title>Node9&#45;&gt;Node1</title>
<path fill="none" stroke="#191970" d="M929.4125,-153.7056C911.9132,-175.1681 875.3899,-214.4851 850.1521,-239.239"/>
<polygon fill="#191970" stroke="#191970" points="847.4793,-236.9543 842.7155,-246.4178 852.3411,-241.9906 847.4793,-236.9543"/>
</g>
<!-- Node10 -->
<g id="node11" class="node">
<title>Node10</title>
<g id="a_node11"><a xlink:href="constraints_2basic_8h.html" target="_top" xlink:title="Functions and data structures for constraining secondary structure predictions and evaluation...">
<polygon fill="none" stroke="#000000" points="879.5,-56.5 879.5,-86.5 998.5,-86.5 998.5,-56.5 879.5,-56.5"/>
<text text-anchor="start" x="887.5" y="-74.5" font-family="Helvetica,sans-Serif" font-size="10.00" fill="#000000">ViennaRNA/constraints</text>
<text text-anchor="middle" x="939" y="-63.5" font-family="Helvetica,sans-Serif" font-size="10.00" fill="#000000">/basic.h</text>
</a>
</g>
</g>
<!-- Node9&#45;&gt;Node10 -->
<g id="edge15" class="edge">
<title>Node9&#45;&gt;Node10</title>
<path fill="none" stroke="#191970" d="M939,-123.2967C939,-115.5013 939,-105.7991 939,-96.9064"/>
<polygon fill="#191970" stroke="#191970" points="942.5001,-96.6431 939,-86.6432 935.5001,-96.6432 942.5001,-96.6431"/>
</g>
<!-- Node10&#45;&gt;Node1 -->
<g id="edge16" class="edge">
<title>Node10&#45;&gt;Node1</title>
<path fill="none" stroke="#191970" d="M970.6421,-86.5161C984.8158,-95.0591 1000.0935,-107.2327 1008,-123 1014.1759,-135.3161 1014.8581,-142.0504 1008,-154 982.233,-198.8965 929.6673,-226.8288 887.294,-242.9291"/>
<polygon fill="#191970" stroke="#191970" points="886.0565,-239.6549 877.8708,-246.3813 888.4645,-246.2277 886.0565,-239.6549"/>
</g>
<!-- Node11&#45;&gt;Node1 -->
<g id="edge18" class="edge">
<title>Node11&#45;&gt;Node1</title>
<path fill="none" stroke="#191970" d="M809.3488,-153.7056C815.5063,-174.3355 822.4611,-211.4615 825.0638,-236.2943"/>
<polygon fill="#191970" stroke="#191970" points="821.5894,-236.7469 825.9166,-246.4178 828.5647,-236.1592 821.5894,-236.7469"/>
</g>
<!-- Node11&#45;&gt;Node10 -->
<g id="edge19" class="edge">
<title>Node11&#45;&gt;Node10</title>
<path fill="none" stroke="#191970" d="M832.7455,-123.4639C852.2624,-113.9191 877.7257,-101.4663 898.8325,-91.144"/>
<polygon fill="#191970" stroke="#191970" points="900.4375,-94.2552 907.8831,-86.7177 897.3622,-87.9669 900.4375,-94.2552"/>
</g>
<!-- Node12&#45;&gt;Node1 -->
<g id="edge21" class="edge">
<title>Node12&#45;&gt;Node1</title>
<path fill="none" stroke="#191970" d="M1112.6396,-148.0398C1104.3372,-163.5409 1078.8933,-194.0645 1050,-210 1004.4518,-235.1212 946.9507,-248.0589 901.2841,-254.6823"/>
<polygon fill="#191970" stroke="#191970" points="900.5653,-251.2481 891.1361,-256.0792 901.52,-258.1827 900.5653,-251.2481"/>
</g>
<!-- Node14&#45;&gt;Node1 -->
<g id="edge24" class="edge">
<title>Node14&#45;&gt;Node1</title>
<path fill="none" stroke="#191970" d="M1228.3516,-153.6418C1195.6952,-169.549 1137.8872,-194.3826 1086,-210 1025.1116,-228.3267 954.0171,-242.1562 901.1926,-250.8452"/>
<polygon fill="#191970" stroke="#191970" points="900.5263,-247.4074 891.2144,-252.461 901.6453,-254.3174 900.5263,-247.4074"/>
</g>
<!-- Node14&#45;&gt;Node15 -->
<g id="edge25" class="edge">
<title>Node14&#45;&gt;Node15</title>
<path fill="none" stroke="#191970" d="M1270.5648,-123.2967C1282.049,-112.7564 1297.3312,-98.7303 1309.0962,-87.9323"/>
<polygon fill="#191970" stroke="#191970" points="1311.5886,-90.3954 1316.5894,-81.055 1306.8553,-85.2382 1311.5886,-90.3954"/>
</g>
<!-- Node15&#45;&gt;Node1 -->
<g id="edge27" class="edge">
<title>Node15&#45;&gt;Node1</title>
<path fill="none" stroke="#191970" d="M1335.5944,-81.0808C1344.1694,-97.7886 1351.4764,-132.5189 1335,-154 1283.4404,-221.2211 1031.6363,-247.8865 901.7312,-257.1603"/>
<polygon fill="#191970" stroke="#191970" points="901.1846,-253.6898 891.4519,-257.876 901.6708,-260.6729 901.1846,-253.6898"/>
</g>
<!-- Node16 -->
<g id="node17" class="node">
<title>Node16</title>
<polygon fill="none" stroke="#bfbfbf" points="1354,-.5 1354,-19.5 1400,-19.5 1400,-.5 1354,-.5"/>
<text text-anchor="middle" x="1377" y="-7.5" font-family="Helvetica,sans-Serif" font-size="10.00" fill="#000000">stdio.h</text>
</g>
<!-- Node15&#45;&gt;Node16 -->
<g id="edge26" class="edge">
<title>Node15&#45;&gt;Node16</title>
<path fill="none" stroke="#191970" d="M1334.8125,-61.8906C1342.254,-52.7376 1353.6334,-38.7409 1362.6992,-27.59"/>
<polygon fill="#191970" stroke="#191970" points="1365.4847,-29.712 1369.0774,-19.7449 1360.0533,-25.2962 1365.4847,-29.712"/>
</g>
<!-- Node17&#45;&gt;Node1 -->
<g id="edge40" class="edge">
<title>Node17&#45;&gt;Node1</title>
<path fill="none" stroke="#191970" d="M856.0625,-313.3906C851.3959,-305.838 844.6915,-294.9876 838.6188,-285.1593"/>
<polygon fill="#191970" stroke="#191970" points="841.5298,-283.2119 833.2958,-276.5446 835.5748,-286.8914 841.5298,-283.2119"/>
</g>
<!-- Node17&#45;&gt;Node16 -->
<g id="edge39" class="edge">
<title>Node17&#45;&gt;Node16</title>
<path fill="none" stroke="#191970" d="M910.1716,-317.6181C1046.8044,-301.7086 1427,-252.7036 1427,-200 1427,-200 1427,-200 1427,-138.5 1427,-100.8735 1422.9872,-90.5128 1408,-56 1403.6618,-46.01 1397.1066,-35.8691 1391.1398,-27.6603"/>
<polygon fill="#191970" stroke="#191970" points="1393.8629,-25.4589 1385.0289,-19.6098 1388.2873,-29.6912 1393.8629,-25.4589"/>
</g>
</g>
</svg>
