<?xml version="1.0" encoding="UTF-8" standalone="no"?>
<!DOCTYPE svg PUBLIC "-//W3C//DTD SVG 1.1//EN"
 "http://www.w3.org/Graphics/SVG/1.1/DTD/svg11.dtd">
<!-- Generated by graphviz version 2.40.1 (20161225.0304)
 -->
<!-- Title: ViennaRNA/concentrations.h Pages: 1 -->
<svg width="1224pt" height="397pt"
 viewBox="0.00 0.00 1223.50 397.00" xmlns="http://www.w3.org/2000/svg" xmlns:xlink="http://www.w3.org/1999/xlink">
<g id="graph0" class="graph" transform="scale(1 1) rotate(0) translate(4 393)">
<title>ViennaRNA/concentrations.h</title>
<!-- Node0 -->
<g id="node1" class="node">
<title>Node0</title>
<polygon fill="#bfbfbf" stroke="#000000" points="419.5,-369.5 419.5,-388.5 562.5,-388.5 562.5,-369.5 419.5,-369.5"/>
<text text-anchor="middle" x="491" y="-376.5" font-family="Helvetica,sans-Serif" font-size="10.00" fill="#000000">ViennaRNA/concentrations.h</text>
</g>
<!-- Node1 -->
<g id="node2" class="node">
<title>Node1</title>
<g id="a_node2"><a xlink:href="fold__compound_8h.html" target="_top" xlink:title="The Basic Fold Compound API. ">
<polygon fill="none" stroke="#000000" points="533,-313.5 533,-332.5 679,-332.5 679,-313.5 533,-313.5"/>
<text text-anchor="middle" x="606" y="-320.5" font-family="Helvetica,sans-Serif" font-size="10.00" fill="#000000">ViennaRNA/fold_compound.h</text>
</a>
</g>
</g>
<!-- Node0&#45;&gt;Node1 -->
<g id="edge1" class="edge">
<title>Node0&#45;&gt;Node1</title>
<path fill="none" stroke="#191970" d="M510.7692,-369.3733C529.1469,-360.4241 556.7312,-346.9917 577.4893,-336.8835"/>
<polygon fill="#191970" stroke="#191970" points="579.0304,-340.026 586.4888,-332.5011 575.9657,-333.7325 579.0304,-340.026"/>
</g>
<!-- Node3 -->
<g id="node4" class="node">
<title>Node3</title>
<g id="a_node4"><a xlink:href="params_2basic_8h.html" target="_top" xlink:title="Functions to deal with sets of energy parameters. ">
<polygon fill="none" stroke="#000000" points="307,-257.5 307,-276.5 445,-276.5 445,-257.5 307,-257.5"/>
<text text-anchor="middle" x="376" y="-264.5" font-family="Helvetica,sans-Serif" font-size="10.00" fill="#000000">ViennaRNA/params/basic.h</text>
</a>
</g>
</g>
<!-- Node0&#45;&gt;Node3 -->
<g id="edge37" class="edge">
<title>Node0&#45;&gt;Node3</title>
<path fill="none" stroke="#191970" d="M481.1952,-369.4509C461.5902,-350.3574 417.3484,-307.2697 392.9485,-283.5063"/>
<polygon fill="#191970" stroke="#191970" points="395.3859,-280.9946 385.78,-276.5249 390.502,-286.0093 395.3859,-280.9946"/>
</g>
<!-- Node2 -->
<g id="node3" class="node">
<title>Node2</title>
<g id="a_node3"><a xlink:href="model_8h.html" target="_top" xlink:title="The model details data structure and its corresponding modifiers. ">
<polygon fill="none" stroke="#000000" points="0,-129 0,-148 106,-148 106,-129 0,-129"/>
<text text-anchor="middle" x="53" y="-136" font-family="Helvetica,sans-Serif" font-size="10.00" fill="#000000">ViennaRNA/model.h</text>
</a>
</g>
</g>
<!-- Node1&#45;&gt;Node2 -->
<g id="edge2" class="edge">
<title>Node1&#45;&gt;Node2</title>
<path fill="none" stroke="#191970" d="M532.7487,-318.2968C469.4642,-312.77 376.1454,-301.0882 298,-277 243.2913,-260.1361 231.9812,-248.9162 182,-221 143.5522,-199.5256 100.8468,-171.2978 75.4932,-154.0488"/>
<polygon fill="#191970" stroke="#191970" points="77.2073,-150.9808 66.9775,-148.2234 73.255,-156.7583 77.2073,-150.9808"/>
</g>
<!-- Node1&#45;&gt;Node3 -->
<g id="edge3" class="edge">
<title>Node1&#45;&gt;Node3</title>
<path fill="none" stroke="#191970" d="M566.7229,-313.4369C527.5256,-303.8932 467.2,-289.2052 424.9165,-278.9101"/>
<polygon fill="#191970" stroke="#191970" points="425.6592,-275.4888 415.1151,-276.5237 424.0032,-282.2901 425.6592,-275.4888"/>
</g>
<!-- Node7 -->
<g id="node8" class="node">
<title>Node7</title>
<g id="a_node8"><a xlink:href="dp__matrices_8h.html" target="_top" xlink:title="Functions to deal with standard dynamic programming (DP) matrices. ">
<polygon fill="none" stroke="#000000" points="300.5,-129 300.5,-148 433.5,-148 433.5,-129 300.5,-129"/>
<text text-anchor="middle" x="367" y="-136" font-family="Helvetica,sans-Serif" font-size="10.00" fill="#000000">ViennaRNA/dp_matrices.h</text>
</a>
</g>
</g>
<!-- Node1&#45;&gt;Node7 -->
<g id="edge31" class="edge">
<title>Node1&#45;&gt;Node7</title>
<path fill="none" stroke="#191970" d="M593.4868,-313.3402C554.6066,-283.326 435.629,-191.4793 387.5136,-154.3358"/>
<polygon fill="#191970" stroke="#191970" points="389.4438,-151.4043 379.3893,-148.0641 385.1663,-156.9454 389.4438,-151.4043"/>
</g>
<!-- Node8 -->
<g id="node9" class="node">
<title>Node8</title>
<g id="a_node9"><a xlink:href="hard_8h.html" target="_top" xlink:title="Functions and data structures for handling of secondary structure hard constraints. ">
<polygon fill="none" stroke="#000000" points="451.5,-123.5 451.5,-153.5 570.5,-153.5 570.5,-123.5 451.5,-123.5"/>
<text text-anchor="start" x="459.5" y="-141.5" font-family="Helvetica,sans-Serif" font-size="10.00" fill="#000000">ViennaRNA/constraints</text>
<text text-anchor="middle" x="511" y="-130.5" font-family="Helvetica,sans-Serif" font-size="10.00" fill="#000000">/hard.h</text>
</a>
</g>
</g>
<!-- Node1&#45;&gt;Node8 -->
<g id="edge32" class="edge">
<title>Node1&#45;&gt;Node8</title>
<path fill="none" stroke="#191970" d="M596.7092,-313.481C580.5985,-296.4236 547.5265,-258.8795 530,-221 521.5956,-202.8358 516.7563,-180.6528 514.0673,-163.8659"/>
<polygon fill="#191970" stroke="#191970" points="517.4936,-163.1044 512.5949,-153.7101 510.566,-164.1089 517.4936,-163.1044"/>
</g>
<!-- Node10 -->
<g id="node11" class="node">
<title>Node10</title>
<g id="a_node11"><a xlink:href="soft_8h.html" target="_top" xlink:title="Functions and data structures for secondary structure soft constraints. ">
<polygon fill="none" stroke="#000000" points="627.5,-123.5 627.5,-153.5 746.5,-153.5 746.5,-123.5 627.5,-123.5"/>
<text text-anchor="start" x="635.5" y="-141.5" font-family="Helvetica,sans-Serif" font-size="10.00" fill="#000000">ViennaRNA/constraints</text>
<text text-anchor="middle" x="687" y="-130.5" font-family="Helvetica,sans-Serif" font-size="10.00" fill="#000000">/soft.h</text>
</a>
</g>
</g>
<!-- Node1&#45;&gt;Node10 -->
<g id="edge33" class="edge">
<title>Node1&#45;&gt;Node10</title>
<path fill="none" stroke="#191970" d="M616.2212,-313.4867C633.4406,-296.7246 667.7466,-259.9935 682,-221 688.7082,-202.648 689.6947,-180.4771 689.1484,-163.7425"/>
<polygon fill="#191970" stroke="#191970" points="692.6366,-163.4262 688.6128,-153.6253 685.6464,-163.7963 692.6366,-163.4262"/>
</g>
<!-- Node11 -->
<g id="node12" class="node">
<title>Node11</title>
<g id="a_node12"><a xlink:href="grammar_8h.html" target="_top" xlink:title="Implementations for the RNA folding grammar. ">
<polygon fill="none" stroke="#000000" points="821,-129 821,-148 939,-148 939,-129 821,-129"/>
<text text-anchor="middle" x="880" y="-136" font-family="Helvetica,sans-Serif" font-size="10.00" fill="#000000">ViennaRNA/grammar.h</text>
</a>
</g>
</g>
<!-- Node1&#45;&gt;Node11 -->
<g id="edge34" class="edge">
<title>Node1&#45;&gt;Node11</title>
<path fill="none" stroke="#191970" d="M620.3719,-313.4556C633.6058,-304.4854 653.6106,-290.4618 670,-277 713.7375,-241.0752 715.7608,-221.1772 763,-190 787.5825,-173.7759 818.1215,-160.5325 841.8344,-151.5397"/>
<polygon fill="#191970" stroke="#191970" points="843.0504,-154.8218 851.2136,-148.0681 840.6204,-148.2571 843.0504,-154.8218"/>
</g>
<!-- Node12 -->
<g id="node13" class="node">
<title>Node12</title>
<g id="a_node13"><a xlink:href="structured__domains_8h.html" target="_top" xlink:title="This module provides interfaces that deal with additional structured domains in the folding grammar...">
<polygon fill="none" stroke="#000000" points="957.5,-123.5 957.5,-153.5 1072.5,-153.5 1072.5,-123.5 957.5,-123.5"/>
<text text-anchor="start" x="965.5" y="-141.5" font-family="Helvetica,sans-Serif" font-size="10.00" fill="#000000">ViennaRNA/structured</text>
<text text-anchor="middle" x="1015" y="-130.5" font-family="Helvetica,sans-Serif" font-size="10.00" fill="#000000">_domains.h</text>
</a>
</g>
</g>
<!-- Node1&#45;&gt;Node12 -->
<g id="edge35" class="edge">
<title>Node1&#45;&gt;Node12</title>
<path fill="none" stroke="#191970" d="M627.2949,-313.356C645.5473,-304.7451 672.2569,-291.3128 694,-277 719.5976,-260.1499 773.5319,-203.5891 801,-190 804.3966,-188.3196 885.7895,-168.9388 947.1908,-154.4443"/>
<polygon fill="#191970" stroke="#191970" points="948.3135,-157.7756 957.2426,-152.0729 946.7062,-150.9627 948.3135,-157.7756"/>
</g>
<!-- Node13 -->
<g id="node14" class="node">
<title>Node13</title>
<g id="a_node14"><a xlink:href="unstructured__domains_8h.html" target="_top" xlink:title="Functions to modify unstructured domains, e.g. to incorporate ligands binding to unpaired stretches...">
<polygon fill="none" stroke="#000000" points="1090.5,-123.5 1090.5,-153.5 1215.5,-153.5 1215.5,-123.5 1090.5,-123.5"/>
<text text-anchor="start" x="1098.5" y="-141.5" font-family="Helvetica,sans-Serif" font-size="10.00" fill="#000000">ViennaRNA/unstructured</text>
<text text-anchor="middle" x="1153" y="-130.5" font-family="Helvetica,sans-Serif" font-size="10.00" fill="#000000">_domains.h</text>
</a>
</g>
</g>
<!-- Node1&#45;&gt;Node13 -->
<g id="edge36" class="edge">
<title>Node1&#45;&gt;Node13</title>
<path fill="none" stroke="#191970" d="M634.2572,-313.469C720.8814,-284.2512 983.7738,-195.579 1098.489,-156.8863"/>
<polygon fill="#191970" stroke="#191970" points="1099.7768,-160.1457 1108.1337,-153.6331 1097.5396,-153.5128 1099.7768,-160.1457"/>
</g>
<!-- Node16 -->
<g id="node17" class="node">
<title>Node16</title>
<g id="a_node17"><a xlink:href="sequence_8h.html" target="_top" xlink:title="Functions and data structures related to sequence representations ,. ">
<polygon fill="none" stroke="#000000" points="843,-257.5 843,-276.5 965,-276.5 965,-257.5 843,-257.5"/>
<text text-anchor="middle" x="904" y="-264.5" font-family="Helvetica,sans-Serif" font-size="10.00" fill="#000000">ViennaRNA/sequence.h</text>
</a>
</g>
</g>
<!-- Node1&#45;&gt;Node16 -->
<g id="edge30" class="edge">
<title>Node1&#45;&gt;Node16</title>
<path fill="none" stroke="#191970" d="M656.8894,-313.4369C708.5327,-303.7321 788.4826,-288.708 843.3749,-278.3926"/>
<polygon fill="#191970" stroke="#191970" points="844.1389,-281.8104 853.3205,-276.5237 842.8461,-274.9308 844.1389,-281.8104"/>
</g>
<!-- Node3&#45;&gt;Node2 -->
<g id="edge29" class="edge">
<title>Node3&#45;&gt;Node2</title>
<path fill="none" stroke="#191970" d="M351.9864,-257.4466C295.1091,-234.8189 152.0511,-177.9058 86.6135,-151.8726"/>
<polygon fill="#191970" stroke="#191970" points="87.7572,-148.5608 77.1717,-148.1163 85.1696,-155.065 87.7572,-148.5608"/>
</g>
<!-- Node4 -->
<g id="node5" class="node">
<title>Node4</title>
<g id="a_node5"><a xlink:href="constants_8h.html" target="_top" xlink:title="Energy parameter constants. ">
<polygon fill="none" stroke="#000000" points="124,-129 124,-148 282,-148 282,-129 124,-129"/>
<text text-anchor="middle" x="203" y="-136" font-family="Helvetica,sans-Serif" font-size="10.00" fill="#000000">ViennaRNA/params/constants.h</text>
</a>
</g>
</g>
<!-- Node3&#45;&gt;Node4 -->
<g id="edge4" class="edge">
<title>Node3&#45;&gt;Node4</title>
<path fill="none" stroke="#191970" d="M362.9969,-257.3416C333.4409,-235.3881 260.9649,-181.5549 224.579,-154.5283"/>
<polygon fill="#191970" stroke="#191970" points="226.2688,-151.4236 216.154,-148.2705 222.0948,-157.043 226.2688,-151.4236"/>
</g>
<!-- Node6 -->
<g id="node7" class="node">
<title>Node6</title>
<g id="a_node7"><a xlink:href="datastructures_2basic_8h.html" target="_top" xlink:title="Various data structures and pre&#45;processor macros. ">
<polygon fill="none" stroke="#000000" points="539,-190.5 539,-220.5 673,-220.5 673,-190.5 539,-190.5"/>
<text text-anchor="start" x="547" y="-208.5" font-family="Helvetica,sans-Serif" font-size="10.00" fill="#000000">ViennaRNA/datastructures</text>
<text text-anchor="middle" x="606" y="-197.5" font-family="Helvetica,sans-Serif" font-size="10.00" fill="#000000">/basic.h</text>
</a>
</g>
</g>
<!-- Node3&#45;&gt;Node6 -->
<g id="edge6" class="edge">
<title>Node3&#45;&gt;Node6</title>
<path fill="none" stroke="#191970" d="M406.875,-257.3906C439.3154,-248.2389 491.2819,-234.2449 534.0303,-223.0948"/>
<polygon fill="#191970" stroke="#191970" points="535.0411,-226.4484 543.8386,-220.5446 533.2796,-219.6737 535.0411,-226.4484"/>
</g>
<!-- Node5 -->
<g id="node6" class="node">
<title>Node5</title>
<polygon fill="none" stroke="#bfbfbf" points="179,-62 179,-81 227,-81 227,-62 179,-62"/>
<text text-anchor="middle" x="203" y="-69" font-family="Helvetica,sans-Serif" font-size="10.00" fill="#000000">limits.h</text>
</g>
<!-- Node4&#45;&gt;Node5 -->
<g id="edge5" class="edge">
<title>Node4&#45;&gt;Node5</title>
<path fill="none" stroke="#191970" d="M203,-128.9005C203,-119.149 203,-103.7597 203,-91.3695"/>
<polygon fill="#191970" stroke="#191970" points="206.5001,-91.0816 203,-81.0817 199.5001,-91.0817 206.5001,-91.0816"/>
</g>
<!-- Node6&#45;&gt;Node1 -->
<g id="edge8" class="edge">
<title>Node6&#45;&gt;Node1</title>
<path fill="none" stroke="#191970" d="M606,-220.7143C606,-241.8278 606,-280.0339 606,-303.3022"/>
<polygon fill="#191970" stroke="#191970" points="602.5001,-303.3844 606,-313.3845 609.5001,-303.3845 602.5001,-303.3844"/>
</g>
<!-- Node6&#45;&gt;Node2 -->
<g id="edge9" class="edge">
<title>Node6&#45;&gt;Node2</title>
<path fill="none" stroke="#191970" d="M538.874,-201.4575C443.9321,-195.0613 265.2416,-180.5241 115,-154 109.2603,-152.9867 103.2656,-151.7366 97.3621,-150.3896"/>
<polygon fill="#191970" stroke="#191970" points="98.1135,-146.9707 87.5744,-148.0557 96.4898,-153.7798 98.1135,-146.9707"/>
</g>
<!-- Node6&#45;&gt;Node3 -->
<g id="edge10" class="edge">
<title>Node6&#45;&gt;Node3</title>
<path fill="none" stroke="#191970" d="M555.5103,-220.5784C517.238,-231.1476 464.9669,-245.088 426.6518,-254.9247"/>
<polygon fill="#191970" stroke="#191970" points="425.557,-251.5919 416.7344,-257.4581 427.2896,-258.3741 425.557,-251.5919"/>
</g>
<!-- Node6&#45;&gt;Node4 -->
<g id="edge7" class="edge">
<title>Node6&#45;&gt;Node4</title>
<path fill="none" stroke="#191970" d="M538.9809,-194.7876C475.1841,-184.5324 376.4983,-168.5183 291,-154 283.0626,-152.6522 274.7268,-151.2138 266.4804,-149.777"/>
<polygon fill="#191970" stroke="#191970" points="266.9521,-146.3064 256.4986,-148.0314 265.7461,-153.2018 266.9521,-146.3064"/>
</g>
<!-- Node6&#45;&gt;Node7 -->
<g id="edge11" class="edge">
<title>Node6&#45;&gt;Node7</title>
<path fill="none" stroke="#191970" d="M546.6232,-190.4639C502.5894,-178.5284 443.9138,-162.0456 405.7417,-150.8678"/>
<polygon fill="#191970" stroke="#191970" points="406.6061,-147.4738 396.0246,-148.0053 404.6281,-154.1885 406.6061,-147.4738"/>
</g>
<!-- Node6&#45;&gt;Node8 -->
<g id="edge13" class="edge">
<title>Node6&#45;&gt;Node8</title>
<path fill="none" stroke="#191970" d="M578.9396,-190.4639C565.0969,-181.4756 548.4933,-169.9083 535.0952,-159.9699"/>
<polygon fill="#191970" stroke="#191970" points="536.9045,-156.9504 526.8148,-153.7177 532.6864,-162.5368 536.9045,-156.9504"/>
</g>
<!-- Node6&#45;&gt;Node10 -->
<g id="edge17" class="edge">
<title>Node6&#45;&gt;Node10</title>
<path fill="none" stroke="#191970" d="M618.6193,-190.2967C628.4096,-181.302 642.1596,-169.7687 654.8251,-159.8694"/>
<polygon fill="#191970" stroke="#191970" points="657.1363,-162.5077 662.939,-153.6432 652.8749,-156.9542 657.1363,-162.5077"/>
</g>
<!-- Node6&#45;&gt;Node11 -->
<g id="edge20" class="edge">
<title>Node6&#45;&gt;Node11</title>
<path fill="none" stroke="#191970" d="M661.7504,-190.4639C709.909,-178.3253 778.9367,-161.4831 826.4487,-150.3016"/>
<polygon fill="#191970" stroke="#191970" points="827.308,-153.6952 836.2454,-148.0053 825.7105,-146.8799 827.308,-153.6952"/>
</g>
<!-- Node6&#45;&gt;Node12 -->
<g id="edge22" class="edge">
<title>Node6&#45;&gt;Node12</title>
<path fill="none" stroke="#191970" d="M673.1049,-196.9674C740.024,-188.1024 845.9418,-173.1108 947.2167,-154.0614"/>
<polygon fill="#191970" stroke="#191970" points="948.1447,-157.4479 957.3169,-152.145 946.8397,-150.5706 948.1447,-157.4479"/>
</g>
<!-- Node6&#45;&gt;Node13 -->
<g id="edge23" class="edge">
<title>Node6&#45;&gt;Node13</title>
<path fill="none" stroke="#191970" d="M673.0764,-200.0223C764.0703,-192.455 931.2734,-177.069 1073,-154 1075.3641,-153.6152 1077.768,-153.2022 1080.1965,-152.7674"/>
<polygon fill="#191970" stroke="#191970" points="1081.0981,-156.1593 1090.2796,-150.8726 1079.8052,-149.2797 1081.0981,-156.1593"/>
</g>
<!-- Node14 -->
<g id="node15" class="node">
<title>Node14</title>
<g id="a_node15"><a xlink:href="utils_2structures_8h.html" target="_top" xlink:title="Various utility&#45; and helper&#45;functions for secondary structure parsing, converting, etc. ">
<polygon fill="none" stroke="#000000" points="712,-62 712,-81 856,-81 856,-62 712,-62"/>
<text text-anchor="middle" x="784" y="-69" font-family="Helvetica,sans-Serif" font-size="10.00" fill="#000000">ViennaRNA/utils/structures.h</text>
</a>
</g>
</g>
<!-- Node6&#45;&gt;Node14 -->
<g id="edge28" class="edge">
<title>Node6&#45;&gt;Node14</title>
<path fill="none" stroke="#191970" d="M673.2068,-193.7194C699.0637,-186.23 727.0792,-173.9912 747,-154 763.9571,-136.983 770.6509,-109.3252 775.4388,-90.7805"/>
<polygon fill="#191970" stroke="#191970" points="778.834,-91.6334 778.1007,-81.064 772.0828,-89.7838 778.834,-91.6334"/>
</g>
<!-- Node7&#45;&gt;Node6 -->
<g id="edge12" class="edge">
<title>Node7&#45;&gt;Node6</title>
<path fill="none" stroke="#191970" d="M405.7892,-148.0053C444.4704,-158.2859 504.163,-174.9109 548.3584,-187.6457"/>
<polygon fill="#191970" stroke="#191970" points="547.5256,-191.0482 558.1043,-190.4639 549.4701,-184.3237 547.5256,-191.0482"/>
</g>
<!-- Node8&#45;&gt;Node6 -->
<g id="edge14" class="edge">
<title>Node8&#45;&gt;Node6</title>
<path fill="none" stroke="#191970" d="M538.2252,-153.6432C552.0507,-162.6265 568.598,-174.1577 581.951,-184.0643"/>
<polygon fill="#191970" stroke="#191970" points="580.1144,-187.0633 590.2038,-190.2967 584.3329,-181.4772 580.1144,-187.0633"/>
</g>
<!-- Node9 -->
<g id="node10" class="node">
<title>Node9</title>
<g id="a_node10"><a xlink:href="constraints_2basic_8h.html" target="_top" xlink:title="Functions and data structures for constraining secondary structure predictions and evaluation...">
<polygon fill="none" stroke="#000000" points="539.5,-56.5 539.5,-86.5 658.5,-86.5 658.5,-56.5 539.5,-56.5"/>
<text text-anchor="start" x="547.5" y="-74.5" font-family="Helvetica,sans-Serif" font-size="10.00" fill="#000000">ViennaRNA/constraints</text>
<text text-anchor="middle" x="599" y="-63.5" font-family="Helvetica,sans-Serif" font-size="10.00" fill="#000000">/basic.h</text>
</a>
</g>
</g>
<!-- Node8&#45;&gt;Node9 -->
<g id="edge15" class="edge">
<title>Node8&#45;&gt;Node9</title>
<path fill="none" stroke="#191970" d="M530.9686,-123.2967C542.7825,-114.302 557.9306,-102.7687 570.9327,-92.8694"/>
<polygon fill="#191970" stroke="#191970" points="573.2743,-95.4857 579.1105,-86.6432 569.0338,-89.9162 573.2743,-95.4857"/>
</g>
<!-- Node9&#45;&gt;Node6 -->
<g id="edge16" class="edge">
<title>Node9&#45;&gt;Node6</title>
<path fill="none" stroke="#191970" d="M599.7972,-86.7614C600.9888,-109.5714 603.2477,-152.8131 604.6858,-180.3415"/>
<polygon fill="#191970" stroke="#191970" points="601.1936,-180.5852 605.2106,-190.389 608.1841,-180.22 601.1936,-180.5852"/>
</g>
<!-- Node10&#45;&gt;Node6 -->
<g id="edge18" class="edge">
<title>Node10&#45;&gt;Node6</title>
<path fill="none" stroke="#191970" d="M674.4461,-153.6432C664.6736,-162.6265 650.93,-174.1577 638.2597,-184.0643"/>
<polygon fill="#191970" stroke="#191970" points="635.942,-181.4311 630.141,-190.2967 640.2045,-186.9837 635.942,-181.4311"/>
</g>
<!-- Node10&#45;&gt;Node9 -->
<g id="edge19" class="edge">
<title>Node10&#45;&gt;Node9</title>
<path fill="none" stroke="#191970" d="M667.0314,-123.2967C655.2175,-114.302 640.0694,-102.7687 627.0673,-92.8694"/>
<polygon fill="#191970" stroke="#191970" points="628.9662,-89.9162 618.8895,-86.6432 624.7257,-95.4857 628.9662,-89.9162"/>
</g>
<!-- Node11&#45;&gt;Node6 -->
<g id="edge21" class="edge">
<title>Node11&#45;&gt;Node6</title>
<path fill="none" stroke="#191970" d="M846.0099,-148.0053C805.4709,-158.4155 736.6667,-175.331 683.0549,-188.1254"/>
<polygon fill="#191970" stroke="#191970" points="682.1491,-184.7431 673.2315,-190.4639 683.7702,-191.5528 682.1491,-184.7431"/>
</g>
<!-- Node13&#45;&gt;Node6 -->
<g id="edge24" class="edge">
<title>Node13&#45;&gt;Node6</title>
<path fill="none" stroke="#191970" d="M1093.6302,-153.5632C1092.7488,-153.7124 1091.8717,-153.8581 1091,-154 948.3192,-177.2243 779.8177,-192.6618 683.6054,-200.174"/>
<polygon fill="#191970" stroke="#191970" points="683.0817,-196.704 673.3809,-200.9636 683.6208,-203.6832 683.0817,-196.704"/>
</g>
<!-- Node13&#45;&gt;Node14 -->
<g id="edge25" class="edge">
<title>Node13&#45;&gt;Node14</title>
<path fill="none" stroke="#191970" d="M1090.311,-124.6584C1087.5044,-124.0879 1084.7241,-123.5325 1082,-123 1004.1859,-107.7899 914.4788,-92.6037 853.9876,-82.706"/>
<polygon fill="#191970" stroke="#191970" points="854.2236,-79.1983 843.7904,-81.0423 853.0964,-86.1069 854.2236,-79.1983"/>
</g>
<!-- Node14&#45;&gt;Node6 -->
<g id="edge27" class="edge">
<title>Node14&#45;&gt;Node6</title>
<path fill="none" stroke="#191970" d="M788.7418,-81.064C790.8831,-98.059 785.2851,-133.6432 765,-154 743.3483,-175.7283 712.134,-188.2983 683.0388,-195.5661"/>
<polygon fill="#191970" stroke="#191970" points="682.2198,-192.1631 673.2699,-197.8331 683.8022,-198.9819 682.2198,-192.1631"/>
</g>
<!-- Node15 -->
<g id="node16" class="node">
<title>Node15</title>
<polygon fill="none" stroke="#bfbfbf" points="761,-.5 761,-19.5 807,-19.5 807,-.5 761,-.5"/>
<text text-anchor="middle" x="784" y="-7.5" font-family="Helvetica,sans-Serif" font-size="10.00" fill="#000000">stdio.h</text>
</g>
<!-- Node14&#45;&gt;Node15 -->
<g id="edge26" class="edge">
<title>Node14&#45;&gt;Node15</title>
<path fill="none" stroke="#191970" d="M784,-61.8906C784,-53.3657 784,-40.6392 784,-29.9235"/>
<polygon fill="#191970" stroke="#191970" points="787.5001,-29.7448 784,-19.7449 780.5001,-29.7449 787.5001,-29.7448"/>
</g>
</g>
</svg>
