<?xml version="1.0" encoding="UTF-8" standalone="no"?>
<!DOCTYPE svg PUBLIC "-//W3C//DTD SVG 1.1//EN"
 "http://www.w3.org/Graphics/SVG/1.1/DTD/svg11.dtd">
<!-- Generated by graphviz version 2.40.1 (20161225.0304)
 -->
<!-- Title: ViennaRNA/constraints.h Pages: 1 -->
<svg width="1297pt" height="397pt"
 viewBox="0.00 0.00 1297.00 397.00" xmlns="http://www.w3.org/2000/svg" xmlns:xlink="http://www.w3.org/1999/xlink">
<g id="graph0" class="graph" transform="scale(1 1) rotate(0) translate(4 393)">
<title>ViennaRNA/constraints.h</title>
<!-- Node0 -->
<g id="node1" class="node">
<title>Node0</title>
<polygon fill="#bfbfbf" stroke="#000000" points="422.5,-369.5 422.5,-388.5 550.5,-388.5 550.5,-369.5 422.5,-369.5"/>
<text text-anchor="middle" x="486.5" y="-376.5" font-family="Helvetica,sans-Serif" font-size="10.00" fill="#000000">ViennaRNA/constraints.h</text>
</g>
<!-- Node1 -->
<g id="node2" class="node">
<title>Node1</title>
<g id="a_node2"><a xlink:href="constraints_2basic_8h.html" target="_top" xlink:title="Functions and data structures for constraining secondary structure predictions and evaluation...">
<polygon fill="none" stroke="#000000" points="427,-302.5 427,-332.5 546,-332.5 546,-302.5 427,-302.5"/>
<text text-anchor="start" x="435" y="-320.5" font-family="Helvetica,sans-Serif" font-size="10.00" fill="#000000">ViennaRNA/constraints</text>
<text text-anchor="middle" x="486.5" y="-309.5" font-family="Helvetica,sans-Serif" font-size="10.00" fill="#000000">/basic.h</text>
</a>
</g>
</g>
<!-- Node0&#45;&gt;Node1 -->
<g id="edge1" class="edge">
<title>Node0&#45;&gt;Node1</title>
<path fill="none" stroke="#191970" d="M486.5,-369.3906C486.5,-362.2234 486.5,-352.0862 486.5,-342.671"/>
<polygon fill="#191970" stroke="#191970" points="490.0001,-342.5446 486.5,-332.5446 483.0001,-342.5446 490.0001,-342.5446"/>
</g>
<!-- Node10 -->
<g id="node11" class="node">
<title>Node10</title>
<g id="a_node11"><a xlink:href="hard_8h.html" target="_top" xlink:title="Functions and data structures for handling of secondary structure hard constraints. ">
<polygon fill="none" stroke="#000000" points="0,-112.5 0,-142.5 119,-142.5 119,-112.5 0,-112.5"/>
<text text-anchor="start" x="8" y="-130.5" font-family="Helvetica,sans-Serif" font-size="10.00" fill="#000000">ViennaRNA/constraints</text>
<text text-anchor="middle" x="59.5" y="-119.5" font-family="Helvetica,sans-Serif" font-size="10.00" fill="#000000">/hard.h</text>
</a>
</g>
</g>
<!-- Node0&#45;&gt;Node10 -->
<g id="edge37" class="edge">
<title>Node0&#45;&gt;Node10</title>
<path fill="none" stroke="#191970" d="M422.3526,-371.0916C380.6817,-364.4199 325.8764,-352.7053 280.5,-333 183.7092,-290.9673 148.6749,-282.7663 84.5,-199 74.0747,-185.3921 67.7844,-167.1029 64.1211,-152.4285"/>
<polygon fill="#191970" stroke="#191970" points="67.4984,-151.4934 61.8963,-142.5008 60.6678,-153.0241 67.4984,-151.4934"/>
</g>
<!-- Node11 -->
<g id="node12" class="node">
<title>Node11</title>
<g id="a_node12"><a xlink:href="soft_8h.html" target="_top" xlink:title="Functions and data structures for secondary structure soft constraints. ">
<polygon fill="none" stroke="#000000" points="1170,-112.5 1170,-142.5 1289,-142.5 1289,-112.5 1170,-112.5"/>
<text text-anchor="start" x="1178" y="-130.5" font-family="Helvetica,sans-Serif" font-size="10.00" fill="#000000">ViennaRNA/constraints</text>
<text text-anchor="middle" x="1229.5" y="-119.5" font-family="Helvetica,sans-Serif" font-size="10.00" fill="#000000">/soft.h</text>
</a>
</g>
</g>
<!-- Node0&#45;&gt;Node11 -->
<g id="edge38" class="edge">
<title>Node0&#45;&gt;Node11</title>
<path fill="none" stroke="#191970" d="M550.5677,-375.6949C665.951,-367.9498 914.7059,-343.0028 1108.5,-266 1159.2511,-245.8344 1179.7537,-243.4353 1211.5,-199 1221.1061,-185.5543 1225.6013,-167.4874 1227.6974,-152.8791"/>
<polygon fill="#191970" stroke="#191970" points="1231.2235,-152.8479 1228.8775,-142.5161 1224.2684,-152.0558 1231.2235,-152.8479"/>
</g>
<!-- Node17 -->
<g id="node18" class="node">
<title>Node17</title>
<g id="a_node18"><a xlink:href="SHAPE_8h.html" target="_top" xlink:title="This module provides function to incorporate SHAPE reactivity data into the folding recursions by mea...">
<polygon fill="none" stroke="#000000" points="290,-302.5 290,-332.5 409,-332.5 409,-302.5 290,-302.5"/>
<text text-anchor="start" x="298" y="-320.5" font-family="Helvetica,sans-Serif" font-size="10.00" fill="#000000">ViennaRNA/constraints</text>
<text text-anchor="middle" x="349.5" y="-309.5" font-family="Helvetica,sans-Serif" font-size="10.00" fill="#000000">/SHAPE.h</text>
</a>
</g>
</g>
<!-- Node0&#45;&gt;Node17 -->
<g id="edge39" class="edge">
<title>Node0&#45;&gt;Node17</title>
<path fill="none" stroke="#191970" d="M465.0938,-369.3906C445.6941,-360.682 416.5271,-347.5888 392.3457,-336.7336"/>
<polygon fill="#191970" stroke="#191970" points="393.5703,-333.447 383.014,-332.5446 390.7035,-339.833 393.5703,-333.447"/>
</g>
<!-- Node18 -->
<g id="node19" class="node">
<title>Node18</title>
<g id="a_node19"><a xlink:href="ligand_8h.html" target="_top" xlink:title="Functions for incorporation of ligands binding to hairpin and interior loop motifs using the soft con...">
<polygon fill="none" stroke="#000000" points="564,-302.5 564,-332.5 683,-332.5 683,-302.5 564,-302.5"/>
<text text-anchor="start" x="572" y="-320.5" font-family="Helvetica,sans-Serif" font-size="10.00" fill="#000000">ViennaRNA/constraints</text>
<text text-anchor="middle" x="623.5" y="-309.5" font-family="Helvetica,sans-Serif" font-size="10.00" fill="#000000">/ligand.h</text>
</a>
</g>
</g>
<!-- Node0&#45;&gt;Node18 -->
<g id="edge41" class="edge">
<title>Node0&#45;&gt;Node18</title>
<path fill="none" stroke="#191970" d="M507.9063,-369.3906C527.3059,-360.682 556.4729,-347.5888 580.6543,-336.7336"/>
<polygon fill="#191970" stroke="#191970" points="582.2965,-339.833 589.986,-332.5446 579.4297,-333.447 582.2965,-339.833"/>
</g>
<!-- Node2 -->
<g id="node3" class="node">
<title>Node2</title>
<g id="a_node3"><a xlink:href="datastructures_2basic_8h.html" target="_top" xlink:title="Various data structures and pre&#45;processor macros. ">
<polygon fill="none" stroke="#000000" points="419.5,-235.5 419.5,-265.5 553.5,-265.5 553.5,-235.5 419.5,-235.5"/>
<text text-anchor="start" x="427.5" y="-253.5" font-family="Helvetica,sans-Serif" font-size="10.00" fill="#000000">ViennaRNA/datastructures</text>
<text text-anchor="middle" x="486.5" y="-242.5" font-family="Helvetica,sans-Serif" font-size="10.00" fill="#000000">/basic.h</text>
</a>
</g>
</g>
<!-- Node1&#45;&gt;Node2 -->
<g id="edge2" class="edge">
<title>Node1&#45;&gt;Node2</title>
<path fill="none" stroke="#191970" d="M486.5,-302.2967C486.5,-294.5013 486.5,-284.7991 486.5,-275.9064"/>
<polygon fill="#191970" stroke="#191970" points="490.0001,-275.6431 486.5,-265.6432 483.0001,-275.6432 490.0001,-275.6431"/>
</g>
<!-- Node3 -->
<g id="node4" class="node">
<title>Node3</title>
<g id="a_node4"><a xlink:href="constants_8h.html" target="_top" xlink:title="Energy parameter constants. ">
<polygon fill="none" stroke="#000000" points="474.5,-56.5 474.5,-75.5 632.5,-75.5 632.5,-56.5 474.5,-56.5"/>
<text text-anchor="middle" x="553.5" y="-63.5" font-family="Helvetica,sans-Serif" font-size="10.00" fill="#000000">ViennaRNA/params/constants.h</text>
</a>
</g>
</g>
<!-- Node2&#45;&gt;Node3 -->
<g id="edge3" class="edge">
<title>Node2&#45;&gt;Node3</title>
<path fill="none" stroke="#191970" d="M455.9267,-235.3418C409.4545,-210.3037 330.0925,-158.4487 366.5,-112 379.1976,-95.8004 422.9403,-84.5425 464.9271,-77.2203"/>
<polygon fill="#191970" stroke="#191970" points="465.6914,-80.641 474.9744,-75.5346 464.5331,-73.7375 465.6914,-80.641"/>
</g>
<!-- Node5 -->
<g id="node6" class="node">
<title>Node5</title>
<g id="a_node6"><a xlink:href="fold__compound_8h.html" target="_top" xlink:title="The Basic Fold Compound API. ">
<polygon fill="none" stroke="#000000" points="568.5,-179.5 568.5,-198.5 714.5,-198.5 714.5,-179.5 568.5,-179.5"/>
<text text-anchor="middle" x="641.5" y="-186.5" font-family="Helvetica,sans-Serif" font-size="10.00" fill="#000000">ViennaRNA/fold_compound.h</text>
</a>
</g>
</g>
<!-- Node2&#45;&gt;Node5 -->
<g id="edge5" class="edge">
<title>Node2&#45;&gt;Node5</title>
<path fill="none" stroke="#191970" d="M524.4173,-235.4554C549.9391,-225.329 583.2896,-212.0964 607.8656,-202.3453"/>
<polygon fill="#191970" stroke="#191970" points="609.4763,-205.4717 617.4805,-198.5303 606.8946,-198.9651 609.4763,-205.4717"/>
</g>
<!-- Node6 -->
<g id="node7" class="node">
<title>Node6</title>
<g id="a_node7"><a xlink:href="model_8h.html" target="_top" xlink:title="The model details data structure and its corresponding modifiers. ">
<polygon fill="none" stroke="#000000" points="857.5,-56.5 857.5,-75.5 963.5,-75.5 963.5,-56.5 857.5,-56.5"/>
<text text-anchor="middle" x="910.5" y="-63.5" font-family="Helvetica,sans-Serif" font-size="10.00" fill="#000000">ViennaRNA/model.h</text>
</a>
</g>
</g>
<!-- Node2&#45;&gt;Node6 -->
<g id="edge28" class="edge">
<title>Node2&#45;&gt;Node6</title>
<path fill="none" stroke="#191970" d="M553.7782,-244.0741C709.9215,-228.4766 1086.4074,-186.6722 1122.5,-143 1131.2771,-132.3797 1131.148,-122.7257 1122.5,-112 1104.0567,-89.1256 1029.3346,-77.0463 973.7922,-71.1007"/>
<polygon fill="#191970" stroke="#191970" points="973.9676,-67.6003 963.6624,-70.0606 973.2526,-74.5637 973.9676,-67.6003"/>
</g>
<!-- Node7 -->
<g id="node8" class="node">
<title>Node7</title>
<g id="a_node8"><a xlink:href="params_2basic_8h.html" target="_top" xlink:title="Functions to deal with sets of energy parameters. ">
<polygon fill="none" stroke="#000000" points="841.5,-118 841.5,-137 979.5,-137 979.5,-118 841.5,-118"/>
<text text-anchor="middle" x="910.5" y="-125" font-family="Helvetica,sans-Serif" font-size="10.00" fill="#000000">ViennaRNA/params/basic.h</text>
</a>
</g>
</g>
<!-- Node2&#45;&gt;Node7 -->
<g id="edge29" class="edge">
<title>Node2&#45;&gt;Node7</title>
<path fill="none" stroke="#191970" d="M553.6708,-237.2305C599.423,-228.1675 661.0325,-214.9314 714.5,-199 770.8489,-182.2101 834.3815,-156.3889 873.5958,-140.8036"/>
<polygon fill="#191970" stroke="#191970" points="875.0118,-144.0074 883.0224,-137.0734 872.4361,-137.4985 875.0118,-144.0074"/>
</g>
<!-- Node9 -->
<g id="node10" class="node">
<title>Node9</title>
<g id="a_node10"><a xlink:href="dp__matrices_8h.html" target="_top" xlink:title="Functions to deal with standard dynamic programming (DP) matrices. ">
<polygon fill="none" stroke="#000000" points="376,-118 376,-137 509,-137 509,-118 376,-118"/>
<text text-anchor="middle" x="442.5" y="-125" font-family="Helvetica,sans-Serif" font-size="10.00" fill="#000000">ViennaRNA/dp_matrices.h</text>
</a>
</g>
</g>
<!-- Node2&#45;&gt;Node9 -->
<g id="edge30" class="edge">
<title>Node2&#45;&gt;Node9</title>
<path fill="none" stroke="#191970" d="M476.4905,-235.4178C465.8509,-213.1659 450.7991,-171.5314 444.3834,-146.9908"/>
<polygon fill="#191970" stroke="#191970" points="447.7484,-146.0067 442.0903,-137.0493 440.9275,-147.5801 447.7484,-146.0067"/>
</g>
<!-- Node2&#45;&gt;Node10 -->
<g id="edge31" class="edge">
<title>Node2&#45;&gt;Node10</title>
<path fill="none" stroke="#191970" d="M419.4211,-245.6672C330.6793,-238.1853 179.9925,-222.2002 130.5,-199 106.514,-187.7563 84.4896,-166.9402 71.1921,-150.6566"/>
<polygon fill="#191970" stroke="#191970" points="73.9171,-148.458 65.0697,-142.6292 68.3511,-152.7031 73.9171,-148.458"/>
</g>
<!-- Node2&#45;&gt;Node11 -->
<g id="edge32" class="edge">
<title>Node2&#45;&gt;Node11</title>
<path fill="none" stroke="#191970" d="M553.7082,-247.5176C709.794,-240.4878 1087.2098,-221.7469 1140.5,-199 1165.4594,-188.3461 1187.9197,-166.6619 1204.3006,-149.9523"/>
<polygon fill="#191970" stroke="#191970" points="1206.9128,-152.2867 1211.3863,-142.6825 1201.9,-147.4008 1206.9128,-152.2867"/>
</g>
<!-- Node12 -->
<g id="node13" class="node">
<title>Node12</title>
<g id="a_node13"><a xlink:href="grammar_8h.html" target="_top" xlink:title="Implementations for the RNA folding grammar. ">
<polygon fill="none" stroke="#000000" points="527.5,-118 527.5,-137 645.5,-137 645.5,-118 527.5,-118"/>
<text text-anchor="middle" x="586.5" y="-125" font-family="Helvetica,sans-Serif" font-size="10.00" fill="#000000">ViennaRNA/grammar.h</text>
</a>
</g>
</g>
<!-- Node2&#45;&gt;Node12 -->
<g id="edge33" class="edge">
<title>Node2&#45;&gt;Node12</title>
<path fill="none" stroke="#191970" d="M494.1477,-235.4178C510.1145,-212.3641 545.7021,-168.5055 567.9317,-144.406"/>
<polygon fill="#191970" stroke="#191970" points="570.5675,-146.713 574.9107,-137.0493 565.4891,-141.8953 570.5675,-146.713"/>
</g>
<!-- Node13 -->
<g id="node14" class="node">
<title>Node13</title>
<g id="a_node14"><a xlink:href="structured__domains_8h.html" target="_top" xlink:title="This module provides interfaces that deal with additional structured domains in the folding grammar...">
<polygon fill="none" stroke="#000000" points="998,-112.5 998,-142.5 1113,-142.5 1113,-112.5 998,-112.5"/>
<text text-anchor="start" x="1006" y="-130.5" font-family="Helvetica,sans-Serif" font-size="10.00" fill="#000000">ViennaRNA/structured</text>
<text text-anchor="middle" x="1055.5" y="-119.5" font-family="Helvetica,sans-Serif" font-size="10.00" fill="#000000">_domains.h</text>
</a>
</g>
</g>
<!-- Node2&#45;&gt;Node13 -->
<g id="edge34" class="edge">
<title>Node2&#45;&gt;Node13</title>
<path fill="none" stroke="#191970" d="M553.6918,-239.8954C612.2323,-230.3204 699.2883,-215.2712 774.5,-199 849.459,-182.7835 934.7213,-160.5451 991.4746,-145.196"/>
<polygon fill="#191970" stroke="#191970" points="992.6458,-148.5048 1001.3805,-142.5085 990.8129,-141.749 992.6458,-148.5048"/>
</g>
<!-- Node14 -->
<g id="node15" class="node">
<title>Node14</title>
<g id="a_node15"><a xlink:href="unstructured__domains_8h.html" target="_top" xlink:title="Functions to modify unstructured domains, e.g. to incorporate ligands binding to unpaired stretches...">
<polygon fill="none" stroke="#000000" points="194,-112.5 194,-142.5 319,-142.5 319,-112.5 194,-112.5"/>
<text text-anchor="start" x="202" y="-130.5" font-family="Helvetica,sans-Serif" font-size="10.00" fill="#000000">ViennaRNA/unstructured</text>
<text text-anchor="middle" x="256.5" y="-119.5" font-family="Helvetica,sans-Serif" font-size="10.00" fill="#000000">_domains.h</text>
</a>
</g>
</g>
<!-- Node2&#45;&gt;Node14 -->
<g id="edge35" class="edge">
<title>Node2&#45;&gt;Node14</title>
<path fill="none" stroke="#191970" d="M419.239,-236.8947C388.8313,-228.5819 353.4065,-216.1915 324.5,-199 302.8038,-186.0967 282.0653,-166.2524 269.0095,-150.7407"/>
<polygon fill="#191970" stroke="#191970" points="271.5438,-148.3034 262.5894,-142.6404 266.0579,-152.6514 271.5438,-148.3034"/>
</g>
<!-- Node15 -->
<g id="node16" class="node">
<title>Node15</title>
<g id="a_node16"><a xlink:href="utils_2structures_8h.html" target="_top" xlink:title="Various utility&#45; and helper&#45;functions for secondary structure parsing, converting, etc. ">
<polygon fill="none" stroke="#000000" points="84.5,-56.5 84.5,-75.5 228.5,-75.5 228.5,-56.5 84.5,-56.5"/>
<text text-anchor="middle" x="156.5" y="-63.5" font-family="Helvetica,sans-Serif" font-size="10.00" fill="#000000">ViennaRNA/utils/structures.h</text>
</a>
</g>
</g>
<!-- Node2&#45;&gt;Node15 -->
<g id="edge36" class="edge">
<title>Node2&#45;&gt;Node15</title>
<path fill="none" stroke="#191970" d="M419.271,-245.4885C348.3168,-236.5533 238.4576,-211.7469 175.5,-143 160.9817,-127.1467 153.8469,-103.1769 152.2891,-86.1983"/>
<polygon fill="#191970" stroke="#191970" points="155.7794,-85.6742 152.0795,-75.7464 148.7808,-85.8146 155.7794,-85.6742"/>
</g>
<!-- Node4 -->
<g id="node5" class="node">
<title>Node4</title>
<polygon fill="none" stroke="#bfbfbf" points="529.5,-.5 529.5,-19.5 577.5,-19.5 577.5,-.5 529.5,-.5"/>
<text text-anchor="middle" x="553.5" y="-7.5" font-family="Helvetica,sans-Serif" font-size="10.00" fill="#000000">limits.h</text>
</g>
<!-- Node3&#45;&gt;Node4 -->
<g id="edge4" class="edge">
<title>Node3&#45;&gt;Node4</title>
<path fill="none" stroke="#191970" d="M553.5,-56.2455C553.5,-48.9382 553.5,-38.6944 553.5,-29.7046"/>
<polygon fill="#191970" stroke="#191970" points="557.0001,-29.6426 553.5,-19.6427 550.0001,-29.6427 557.0001,-29.6426"/>
</g>
<!-- Node5&#45;&gt;Node6 -->
<g id="edge6" class="edge">
<title>Node5&#45;&gt;Node6</title>
<path fill="none" stroke="#191970" d="M645.0008,-179.4382C651.582,-162.8854 667.4349,-129.0333 692.5,-112 717.3473,-95.1147 792.3015,-81.7847 847.4084,-73.912"/>
<polygon fill="#191970" stroke="#191970" points="848.0326,-77.3589 857.4506,-72.5059 847.0618,-70.4265 848.0326,-77.3589"/>
</g>
<!-- Node5&#45;&gt;Node7 -->
<g id="edge7" class="edge">
<title>Node5&#45;&gt;Node7</title>
<path fill="none" stroke="#191970" d="M683.2361,-179.4581C730.5515,-168.6406 807.7292,-150.9959 858.8136,-139.3168"/>
<polygon fill="#191970" stroke="#191970" points="859.6976,-142.7051 868.666,-137.0643 858.1374,-135.8811 859.6976,-142.7051"/>
</g>
<!-- Node8 -->
<g id="node9" class="node">
<title>Node8</title>
<g id="a_node9"><a xlink:href="sequence_8h.html" target="_top" xlink:title="Functions and data structures related to sequence representations ,. ">
<polygon fill="none" stroke="#000000" points="701.5,-118 701.5,-137 823.5,-137 823.5,-118 701.5,-118"/>
<text text-anchor="middle" x="762.5" y="-125" font-family="Helvetica,sans-Serif" font-size="10.00" fill="#000000">ViennaRNA/sequence.h</text>
</a>
</g>
</g>
<!-- Node5&#45;&gt;Node8 -->
<g id="edge11" class="edge">
<title>Node5&#45;&gt;Node8</title>
<path fill="none" stroke="#191970" d="M660.4063,-179.3906C680.2966,-169.2811 711.8123,-153.2628 734.5692,-141.6962"/>
<polygon fill="#191970" stroke="#191970" points="736.3978,-144.693 743.7265,-137.0419 733.226,-138.4528 736.3978,-144.693"/>
</g>
<!-- Node5&#45;&gt;Node9 -->
<g id="edge12" class="edge">
<title>Node5&#45;&gt;Node9</title>
<path fill="none" stroke="#191970" d="M610.4063,-179.3906C576.0876,-168.7846 520.7257,-151.6753 483.0302,-140.0257"/>
<polygon fill="#191970" stroke="#191970" points="483.963,-136.6507 473.3754,-137.0419 481.8961,-143.3386 483.963,-136.6507"/>
</g>
<!-- Node5&#45;&gt;Node10 -->
<g id="edge14" class="edge">
<title>Node5&#45;&gt;Node10</title>
<path fill="none" stroke="#191970" d="M568.2312,-182.1497C477.9263,-173.5857 319.8074,-158.1968 184.5,-143 166.6144,-140.9912 147.3088,-138.6719 129.3451,-136.4495"/>
<polygon fill="#191970" stroke="#191970" points="129.5893,-132.953 119.2337,-135.1914 128.725,-139.8994 129.5893,-132.953"/>
</g>
<!-- Node5&#45;&gt;Node11 -->
<g id="edge17" class="edge">
<title>Node5&#45;&gt;Node11</title>
<path fill="none" stroke="#191970" d="M714.5509,-183.1239C808.9153,-175.2787 978.2024,-160.341 1122.5,-143 1134.5116,-141.5565 1147.2574,-139.8573 1159.6063,-138.1228"/>
<polygon fill="#191970" stroke="#191970" points="1160.4547,-141.5374 1169.8613,-136.6622 1159.4676,-134.6073 1160.4547,-141.5374"/>
</g>
<!-- Node5&#45;&gt;Node12 -->
<g id="edge20" class="edge">
<title>Node5&#45;&gt;Node12</title>
<path fill="none" stroke="#191970" d="M632.9063,-179.3906C624.6403,-170.1478 611.9574,-155.966 601.9383,-144.7628"/>
<polygon fill="#191970" stroke="#191970" points="604.49,-142.3657 595.2149,-137.2449 599.2722,-147.0321 604.49,-142.3657"/>
</g>
<!-- Node5&#45;&gt;Node13 -->
<g id="edge22" class="edge">
<title>Node5&#45;&gt;Node13</title>
<path fill="none" stroke="#191970" d="M714.5923,-181.3655C782.7641,-173.7766 887.4623,-160.9293 987.8194,-143.0166"/>
<polygon fill="#191970" stroke="#191970" points="988.6096,-146.4306 997.829,-141.2102 987.3664,-139.5418 988.6096,-146.4306"/>
</g>
<!-- Node5&#45;&gt;Node14 -->
<g id="edge23" class="edge">
<title>Node5&#45;&gt;Node14</title>
<path fill="none" stroke="#191970" d="M581.7662,-179.4581C513.6851,-168.5828 402.4062,-150.8071 329.3057,-139.13"/>
<polygon fill="#191970" stroke="#191970" points="329.6797,-135.6454 319.2528,-137.5241 328.5755,-142.5578 329.6797,-135.6454"/>
</g>
<!-- Node7&#45;&gt;Node2 -->
<g id="edge9" class="edge">
<title>Node7&#45;&gt;Node2</title>
<path fill="none" stroke="#191970" d="M894.3932,-137.0734C863.2014,-151.9476 793.6243,-180.7872 732.5,-199 676.9102,-215.5637 612.5192,-229.214 563.4943,-238.2899"/>
<polygon fill="#191970" stroke="#191970" points="562.7964,-234.8594 553.5885,-240.1 564.0548,-241.7454 562.7964,-234.8594"/>
</g>
<!-- Node7&#45;&gt;Node3 -->
<g id="edge8" class="edge">
<title>Node7&#45;&gt;Node3</title>
<path fill="none" stroke="#191970" d="M863.9403,-117.9884C853.6012,-115.9487 842.6879,-113.8516 832.5,-112 761.989,-99.1849 681.1686,-86.0268 624.7261,-77.0843"/>
<polygon fill="#191970" stroke="#191970" points="625.2544,-73.6244 614.8306,-75.5201 624.1614,-80.5386 625.2544,-73.6244"/>
</g>
<!-- Node7&#45;&gt;Node6 -->
<g id="edge10" class="edge">
<title>Node7&#45;&gt;Node6</title>
<path fill="none" stroke="#191970" d="M910.5,-117.8906C910.5,-109.3657 910.5,-96.6392 910.5,-85.9235"/>
<polygon fill="#191970" stroke="#191970" points="914.0001,-85.7448 910.5,-75.7449 907.0001,-85.7449 914.0001,-85.7448"/>
</g>
<!-- Node9&#45;&gt;Node2 -->
<g id="edge13" class="edge">
<title>Node9&#45;&gt;Node2</title>
<path fill="none" stroke="#191970" d="M449.7417,-137.0493C459.6522,-155.8307 475.358,-198.1173 483.0925,-225.4249"/>
<polygon fill="#191970" stroke="#191970" points="479.7918,-226.636 485.719,-235.4178 486.5619,-224.8565 479.7918,-226.636"/>
</g>
<!-- Node10&#45;&gt;Node1 -->
<g id="edge16" class="edge">
<title>Node10&#45;&gt;Node1</title>
<path fill="none" stroke="#191970" d="M65.674,-142.589C73.0587,-158.8104 86.9251,-184.249 106.5,-199 155.8057,-236.1552 321.3992,-279.1714 416.934,-301.7673"/>
<polygon fill="#191970" stroke="#191970" points="416.2696,-305.2064 426.8053,-304.0884 417.8719,-298.3923 416.2696,-305.2064"/>
</g>
<!-- Node10&#45;&gt;Node2 -->
<g id="edge15" class="edge">
<title>Node10&#45;&gt;Node2</title>
<path fill="none" stroke="#191970" d="M78.0728,-142.6292C94.8709,-159.3924 120.333,-185.7964 148.5,-199 193.8734,-220.2692 324.2975,-235.4745 409.2893,-243.6231"/>
<polygon fill="#191970" stroke="#191970" points="409.1349,-247.124 419.4202,-244.5818 409.7944,-240.1552 409.1349,-247.124"/>
</g>
<!-- Node11&#45;&gt;Node1 -->
<g id="edge19" class="edge">
<title>Node11&#45;&gt;Node1</title>
<path fill="none" stroke="#191970" d="M1225.1012,-142.7832C1219.4695,-159.4271 1208.0274,-185.4759 1188.5,-199 956.9229,-359.3842 838.1437,-250.4716 556.3856,-301.9397"/>
<polygon fill="#191970" stroke="#191970" points="555.4735,-298.5498 546.2934,-303.8389 556.7682,-305.4291 555.4735,-298.5498"/>
</g>
<!-- Node11&#45;&gt;Node2 -->
<g id="edge18" class="edge">
<title>Node11&#45;&gt;Node2</title>
<path fill="none" stroke="#191970" d="M1224.299,-142.6825C1212.7408,-159.7612 1187.282,-186.7144 1158.5,-199 1105.2951,-221.7105 729.0017,-240.4278 563.8213,-247.4837"/>
<polygon fill="#191970" stroke="#191970" points="563.5713,-243.9911 553.7286,-247.9115 563.8678,-250.9848 563.5713,-243.9911"/>
</g>
<!-- Node12&#45;&gt;Node2 -->
<g id="edge21" class="edge">
<title>Node12&#45;&gt;Node2</title>
<path fill="none" stroke="#191970" d="M582.5621,-137.0493C570.1104,-156.4124 534.5694,-200.7594 510.2252,-227.9181"/>
<polygon fill="#191970" stroke="#191970" points="507.5352,-225.6734 503.3762,-235.4178 512.7042,-230.3938 507.5352,-225.6734"/>
</g>
<!-- Node14&#45;&gt;Node2 -->
<g id="edge24" class="edge">
<title>Node14&#45;&gt;Node2</title>
<path fill="none" stroke="#191970" d="M275.8569,-142.6404C292.4173,-158.6647 316.786,-183.7072 342.5,-199 366.6367,-213.3548 395.3181,-224.3621 420.7493,-232.4434"/>
<polygon fill="#191970" stroke="#191970" points="419.7331,-235.7926 430.3206,-235.3982 421.798,-229.1041 419.7331,-235.7926"/>
</g>
<!-- Node14&#45;&gt;Node15 -->
<g id="edge25" class="edge">
<title>Node14&#45;&gt;Node15</title>
<path fill="none" stroke="#191970" d="M232.0372,-112.4554C216.3765,-102.8241 196.1468,-90.3828 180.5644,-80.7996"/>
<polygon fill="#191970" stroke="#191970" points="182.348,-77.7876 171.9965,-75.5303 178.681,-83.7503 182.348,-77.7876"/>
</g>
<!-- Node15&#45;&gt;Node2 -->
<g id="edge27" class="edge">
<title>Node15&#45;&gt;Node2</title>
<path fill="none" stroke="#191970" d="M163.1757,-75.7464C168.9471,-91.6817 175.6313,-123.4882 193.5,-143 249.6296,-204.291 343.0392,-230.6557 409.3489,-241.9855"/>
<polygon fill="#191970" stroke="#191970" points="408.905,-245.4593 419.338,-243.6142 410.0315,-238.5505 408.905,-245.4593"/>
</g>
<!-- Node16 -->
<g id="node17" class="node">
<title>Node16</title>
<polygon fill="none" stroke="#bfbfbf" points="133.5,-.5 133.5,-19.5 179.5,-19.5 179.5,-.5 133.5,-.5"/>
<text text-anchor="middle" x="156.5" y="-7.5" font-family="Helvetica,sans-Serif" font-size="10.00" fill="#000000">stdio.h</text>
</g>
<!-- Node15&#45;&gt;Node16 -->
<g id="edge26" class="edge">
<title>Node15&#45;&gt;Node16</title>
<path fill="none" stroke="#191970" d="M156.5,-56.2455C156.5,-48.9382 156.5,-38.6944 156.5,-29.7046"/>
<polygon fill="#191970" stroke="#191970" points="160.0001,-29.6426 156.5,-19.6427 153.0001,-29.6427 160.0001,-29.6426"/>
</g>
<!-- Node17&#45;&gt;Node2 -->
<g id="edge40" class="edge">
<title>Node17&#45;&gt;Node2</title>
<path fill="none" stroke="#191970" d="M380.2455,-302.4639C399.7624,-292.9191 425.2257,-280.4663 446.3325,-270.144"/>
<polygon fill="#191970" stroke="#191970" points="447.9375,-273.2552 455.3831,-265.7177 444.8622,-266.9669 447.9375,-273.2552"/>
</g>
<!-- Node18&#45;&gt;Node2 -->
<g id="edge42" class="edge">
<title>Node18&#45;&gt;Node2</title>
<path fill="none" stroke="#191970" d="M592.7545,-302.4639C573.2376,-292.9191 547.7743,-280.4663 526.6675,-270.144"/>
<polygon fill="#191970" stroke="#191970" points="528.1378,-266.9669 517.6169,-265.7177 525.0625,-273.2552 528.1378,-266.9669"/>
</g>
</g>
</svg>
