<?xml version="1.0" encoding="UTF-8" standalone="no"?>
<!DOCTYPE svg PUBLIC "-//W3C//DTD SVG 1.1//EN"
 "http://www.w3.org/Graphics/SVG/1.1/DTD/svg11.dtd">
<!-- Generated by graphviz version 2.40.1 (20161225.0304)
 -->
<!-- Title: ViennaRNA/constraints/basic.h Pages: 1 -->
<svg width="1326pt" height="341pt"
 viewBox="0.00 0.00 1325.70 341.00" xmlns="http://www.w3.org/2000/svg" xmlns:xlink="http://www.w3.org/1999/xlink">
<g id="graph0" class="graph" transform="scale(1 1) rotate(0) translate(4 337)">
<title>ViennaRNA/constraints/basic.h</title>
<!-- Node0 -->
<g id="node1" class="node">
<title>Node0</title>
<polygon fill="#bfbfbf" stroke="#000000" points="622.2,-302.5 622.2,-332.5 741.2,-332.5 741.2,-302.5 622.2,-302.5"/>
<text text-anchor="start" x="630.2" y="-320.5" font-family="Helvetica,sans-Serif" font-size="10.00" fill="#000000">ViennaRNA/constraints</text>
<text text-anchor="middle" x="681.7" y="-309.5" font-family="Helvetica,sans-Serif" font-size="10.00" fill="#000000">/basic.h</text>
</g>
<!-- Node1 -->
<g id="node2" class="node">
<title>Node1</title>
<g id="a_node2"><a xlink:href="datastructures_2basic_8h.html" target="_top" xlink:title="Various data structures and pre&#45;processor macros. ">
<polygon fill="none" stroke="#000000" points="614.7,-235.5 614.7,-265.5 748.7,-265.5 748.7,-235.5 614.7,-235.5"/>
<text text-anchor="start" x="622.7" y="-253.5" font-family="Helvetica,sans-Serif" font-size="10.00" fill="#000000">ViennaRNA/datastructures</text>
<text text-anchor="middle" x="681.7" y="-242.5" font-family="Helvetica,sans-Serif" font-size="10.00" fill="#000000">/basic.h</text>
</a>
</g>
</g>
<!-- Node0&#45;&gt;Node1 -->
<g id="edge1" class="edge">
<title>Node0&#45;&gt;Node1</title>
<path fill="none" stroke="#191970" d="M681.7,-302.2967C681.7,-294.5013 681.7,-284.7991 681.7,-275.9064"/>
<polygon fill="#191970" stroke="#191970" points="685.2001,-275.6431 681.7,-265.6432 678.2001,-275.6432 685.2001,-275.6431"/>
</g>
<!-- Node2 -->
<g id="node3" class="node">
<title>Node2</title>
<g id="a_node3"><a xlink:href="constants_8h.html" target="_top" xlink:title="Energy parameter constants. ">
<polygon fill="none" stroke="#000000" points="507.7,-56.5 507.7,-75.5 665.7,-75.5 665.7,-56.5 507.7,-56.5"/>
<text text-anchor="middle" x="586.7" y="-63.5" font-family="Helvetica,sans-Serif" font-size="10.00" fill="#000000">ViennaRNA/params/constants.h</text>
</a>
</g>
</g>
<!-- Node1&#45;&gt;Node2 -->
<g id="edge2" class="edge">
<title>Node1&#45;&gt;Node2</title>
<path fill="none" stroke="#191970" d="M678.1389,-235.4809C671.4416,-209.0801 655.2972,-153.2454 629.7,-112 623.0599,-101.3007 613.6897,-90.9167 605.3904,-82.7305"/>
<polygon fill="#191970" stroke="#191970" points="607.5511,-79.9561 597.8857,-75.6167 602.7354,-85.0364 607.5511,-79.9561"/>
</g>
<!-- Node4 -->
<g id="node5" class="node">
<title>Node4</title>
<g id="a_node5"><a xlink:href="fold__compound_8h.html" target="_top" xlink:title="The Basic Fold Compound API. ">
<polygon fill="none" stroke="#000000" points="474.7,-179.5 474.7,-198.5 620.7,-198.5 620.7,-179.5 474.7,-179.5"/>
<text text-anchor="middle" x="547.7" y="-186.5" font-family="Helvetica,sans-Serif" font-size="10.00" fill="#000000">ViennaRNA/fold_compound.h</text>
</a>
</g>
</g>
<!-- Node1&#45;&gt;Node4 -->
<g id="edge4" class="edge">
<title>Node1&#45;&gt;Node4</title>
<path fill="none" stroke="#191970" d="M648.9199,-235.4554C627.15,-225.464 598.7914,-212.4487 577.6314,-202.7372"/>
<polygon fill="#191970" stroke="#191970" points="579.0137,-199.5206 568.4652,-198.5303 576.0938,-205.8826 579.0137,-199.5206"/>
</g>
<!-- Node5 -->
<g id="node6" class="node">
<title>Node5</title>
<g id="a_node6"><a xlink:href="model_8h.html" target="_top" xlink:title="The model details data structure and its corresponding modifiers. ">
<polygon fill="none" stroke="#000000" points="320.7,-56.5 320.7,-75.5 426.7,-75.5 426.7,-56.5 320.7,-56.5"/>
<text text-anchor="middle" x="373.7" y="-63.5" font-family="Helvetica,sans-Serif" font-size="10.00" fill="#000000">ViennaRNA/model.h</text>
</a>
</g>
</g>
<!-- Node1&#45;&gt;Node5 -->
<g id="edge27" class="edge">
<title>Node1&#45;&gt;Node5</title>
<path fill="none" stroke="#191970" d="M614.4809,-244.8409C451.3129,-230.4106 44.8369,-190.0382 6.7,-143 -1.977,-132.2978 -2.4164,-122.3304 6.7,-112 26.4232,-89.6504 210.6041,-75.5222 310.3018,-69.4468"/>
<polygon fill="#191970" stroke="#191970" points="310.7854,-72.9242 320.558,-68.832 310.3665,-65.9367 310.7854,-72.9242"/>
</g>
<!-- Node6 -->
<g id="node7" class="node">
<title>Node6</title>
<g id="a_node7"><a xlink:href="params_2basic_8h.html" target="_top" xlink:title="Functions to deal with sets of energy parameters. ">
<polygon fill="none" stroke="#000000" points="304.7,-118 304.7,-137 442.7,-137 442.7,-118 304.7,-118"/>
<text text-anchor="middle" x="373.7" y="-125" font-family="Helvetica,sans-Serif" font-size="10.00" fill="#000000">ViennaRNA/params/basic.h</text>
</a>
</g>
</g>
<!-- Node1&#45;&gt;Node6 -->
<g id="edge28" class="edge">
<title>Node1&#45;&gt;Node6</title>
<path fill="none" stroke="#191970" d="M614.2185,-243.1951C567.9763,-236.1225 506.4031,-222.8478 456.7,-199 428.1233,-185.2888 400.0631,-161.5766 384.6561,-145.2422"/>
<polygon fill="#191970" stroke="#191970" points="387.0489,-142.6631 377.8168,-137.465 381.7923,-147.2857 387.0489,-142.6631"/>
</g>
<!-- Node8 -->
<g id="node9" class="node">
<title>Node8</title>
<g id="a_node9"><a xlink:href="dp__matrices_8h.html" target="_top" xlink:title="Functions to deal with standard dynamic programming (DP) matrices. ">
<polygon fill="none" stroke="#000000" points="153.2,-118 153.2,-137 286.2,-137 286.2,-118 153.2,-118"/>
<text text-anchor="middle" x="219.7" y="-125" font-family="Helvetica,sans-Serif" font-size="10.00" fill="#000000">ViennaRNA/dp_matrices.h</text>
</a>
</g>
</g>
<!-- Node1&#45;&gt;Node8 -->
<g id="edge29" class="edge">
<title>Node1&#45;&gt;Node8</title>
<path fill="none" stroke="#191970" d="M614.4559,-240.4336C561.2546,-231.3001 485.5609,-216.5936 420.7,-199 358.0874,-182.0163 286.951,-156.4264 248.1808,-140.9093"/>
<polygon fill="#191970" stroke="#191970" points="249.1732,-137.5344 238.5916,-137.004 246.5329,-144.0173 249.1732,-137.5344"/>
</g>
<!-- Node9 -->
<g id="node10" class="node">
<title>Node9</title>
<g id="a_node10"><a xlink:href="hard_8h.html" target="_top" xlink:title="Functions and data structures for handling of secondary structure hard constraints. ">
<polygon fill="none" stroke="#000000" points="16.2,-112.5 16.2,-142.5 135.2,-142.5 135.2,-112.5 16.2,-112.5"/>
<text text-anchor="start" x="24.2" y="-130.5" font-family="Helvetica,sans-Serif" font-size="10.00" fill="#000000">ViennaRNA/constraints</text>
<text text-anchor="middle" x="75.7" y="-119.5" font-family="Helvetica,sans-Serif" font-size="10.00" fill="#000000">/hard.h</text>
</a>
</g>
</g>
<!-- Node1&#45;&gt;Node9 -->
<g id="edge30" class="edge">
<title>Node1&#45;&gt;Node9</title>
<path fill="none" stroke="#191970" d="M614.5864,-242.3437C547.7137,-233.2666 442.5508,-217.4265 352.7,-199 275.9596,-183.2622 188.7465,-160.784 132.9401,-145.2513"/>
<polygon fill="#191970" stroke="#191970" points="133.8103,-141.8604 123.2367,-142.5316 131.921,-148.6007 133.8103,-141.8604"/>
</g>
<!-- Node10 -->
<g id="node11" class="node">
<title>Node10</title>
<g id="a_node11"><a xlink:href="soft_8h.html" target="_top" xlink:title="Functions and data structures for secondary structure soft constraints. ">
<polygon fill="none" stroke="#000000" points="1089.2,-112.5 1089.2,-142.5 1208.2,-142.5 1208.2,-112.5 1089.2,-112.5"/>
<text text-anchor="start" x="1097.2" y="-130.5" font-family="Helvetica,sans-Serif" font-size="10.00" fill="#000000">ViennaRNA/constraints</text>
<text text-anchor="middle" x="1148.7" y="-119.5" font-family="Helvetica,sans-Serif" font-size="10.00" fill="#000000">/soft.h</text>
</a>
</g>
</g>
<!-- Node1&#45;&gt;Node10 -->
<g id="edge31" class="edge">
<title>Node1&#45;&gt;Node10</title>
<path fill="none" stroke="#191970" d="M734.3491,-235.4178C818.9671,-212.4008 985.0218,-168.6453 1079.2378,-144.5214"/>
<polygon fill="#191970" stroke="#191970" points="1080.1419,-147.9029 1088.9638,-142.0358 1078.4086,-141.1209 1080.1419,-147.9029"/>
</g>
<!-- Node11 -->
<g id="node12" class="node">
<title>Node11</title>
<g id="a_node12"><a xlink:href="grammar_8h.html" target="_top" xlink:title="Implementations for the RNA folding grammar. ">
<polygon fill="none" stroke="#000000" points="676.7,-118 676.7,-137 794.7,-137 794.7,-118 676.7,-118"/>
<text text-anchor="middle" x="735.7" y="-125" font-family="Helvetica,sans-Serif" font-size="10.00" fill="#000000">ViennaRNA/grammar.h</text>
</a>
</g>
</g>
<!-- Node1&#45;&gt;Node11 -->
<g id="edge32" class="edge">
<title>Node1&#45;&gt;Node11</title>
<path fill="none" stroke="#191970" d="M683.7072,-235.4178C690.8926,-212.8652 709.4089,-170.4026 722.584,-146.0053"/>
<polygon fill="#191970" stroke="#191970" points="725.7768,-147.4714 727.6819,-137.0493 719.6933,-144.0086 725.7768,-147.4714"/>
</g>
<!-- Node12 -->
<g id="node13" class="node">
<title>Node12</title>
<g id="a_node13"><a xlink:href="structured__domains_8h.html" target="_top" xlink:title="This module provides interfaces that deal with additional structured domains in the folding grammar...">
<polygon fill="none" stroke="#000000" points="813.2,-112.5 813.2,-142.5 928.2,-142.5 928.2,-112.5 813.2,-112.5"/>
<text text-anchor="start" x="821.2" y="-130.5" font-family="Helvetica,sans-Serif" font-size="10.00" fill="#000000">ViennaRNA/structured</text>
<text text-anchor="middle" x="870.7" y="-119.5" font-family="Helvetica,sans-Serif" font-size="10.00" fill="#000000">_domains.h</text>
</a>
</g>
</g>
<!-- Node1&#45;&gt;Node12 -->
<g id="edge33" class="edge">
<title>Node1&#45;&gt;Node12</title>
<path fill="none" stroke="#191970" d="M704.8751,-235.4178C738.5483,-213.5035 801.108,-172.79 839.0168,-148.1192"/>
<polygon fill="#191970" stroke="#191970" points="841.1589,-150.9011 847.6312,-142.513 837.3407,-145.0341 841.1589,-150.9011"/>
</g>
<!-- Node13 -->
<g id="node14" class="node">
<title>Node13</title>
<g id="a_node14"><a xlink:href="unstructured__domains_8h.html" target="_top" xlink:title="Functions to modify unstructured domains, e.g. to incorporate ligands binding to unpaired stretches...">
<polygon fill="none" stroke="#000000" points="946.2,-112.5 946.2,-142.5 1071.2,-142.5 1071.2,-112.5 946.2,-112.5"/>
<text text-anchor="start" x="954.2" y="-130.5" font-family="Helvetica,sans-Serif" font-size="10.00" fill="#000000">ViennaRNA/unstructured</text>
<text text-anchor="middle" x="1008.7" y="-119.5" font-family="Helvetica,sans-Serif" font-size="10.00" fill="#000000">_domains.h</text>
</a>
</g>
</g>
<!-- Node1&#45;&gt;Node13 -->
<g id="edge34" class="edge">
<title>Node1&#45;&gt;Node13</title>
<path fill="none" stroke="#191970" d="M717.1824,-235.4178C774.4463,-212.8562 887.2763,-170.3686 954.592,-145.9761"/>
<polygon fill="#191970" stroke="#191970" points="955.9648,-149.2016 964.1815,-142.513 953.5872,-142.6177 955.9648,-149.2016"/>
</g>
<!-- Node14 -->
<g id="node15" class="node">
<title>Node14</title>
<g id="a_node15"><a xlink:href="utils_2structures_8h.html" target="_top" xlink:title="Various utility&#45; and helper&#45;functions for secondary structure parsing, converting, etc. ">
<polygon fill="none" stroke="#000000" points="1173.7,-56.5 1173.7,-75.5 1317.7,-75.5 1317.7,-56.5 1173.7,-56.5"/>
<text text-anchor="middle" x="1245.7" y="-63.5" font-family="Helvetica,sans-Serif" font-size="10.00" fill="#000000">ViennaRNA/utils/structures.h</text>
</a>
</g>
</g>
<!-- Node1&#45;&gt;Node14 -->
<g id="edge35" class="edge">
<title>Node1&#45;&gt;Node14</title>
<path fill="none" stroke="#191970" d="M748.7666,-244.7008C874.7339,-232.9222 1139.8726,-202.1567 1208.7,-143 1225.4948,-128.565 1232.2177,-103.2089 1236.9321,-85.5538"/>
<polygon fill="#191970" stroke="#191970" points="1240.3588,-86.2958 1239.68,-75.7228 1233.6172,-84.4114 1240.3588,-86.2958"/>
</g>
<!-- Node3 -->
<g id="node4" class="node">
<title>Node3</title>
<polygon fill="none" stroke="#bfbfbf" points="562.7,-.5 562.7,-19.5 610.7,-19.5 610.7,-.5 562.7,-.5"/>
<text text-anchor="middle" x="586.7" y="-7.5" font-family="Helvetica,sans-Serif" font-size="10.00" fill="#000000">limits.h</text>
</g>
<!-- Node2&#45;&gt;Node3 -->
<g id="edge3" class="edge">
<title>Node2&#45;&gt;Node3</title>
<path fill="none" stroke="#191970" d="M586.7,-56.2455C586.7,-48.9382 586.7,-38.6944 586.7,-29.7046"/>
<polygon fill="#191970" stroke="#191970" points="590.2001,-29.6426 586.7,-19.6427 583.2001,-29.6427 590.2001,-29.6426"/>
</g>
<!-- Node4&#45;&gt;Node5 -->
<g id="edge5" class="edge">
<title>Node4&#45;&gt;Node5</title>
<path fill="none" stroke="#191970" d="M535.2151,-179.1789C523.4424,-169.8989 505.3222,-155.5662 489.7,-143 472.7166,-129.3389 469.5828,-124.4606 451.7,-112 435.357,-100.6123 416.0845,-89.2288 400.7858,-80.6348"/>
<polygon fill="#191970" stroke="#191970" points="402.2778,-77.46 391.8354,-75.6693 398.8818,-83.5812 402.2778,-77.46"/>
</g>
<!-- Node4&#45;&gt;Node6 -->
<g id="edge6" class="edge">
<title>Node4&#45;&gt;Node6</title>
<path fill="none" stroke="#191970" d="M520.5125,-179.3906C490.8883,-168.92 443.3313,-152.1111 410.4082,-140.4745"/>
<polygon fill="#191970" stroke="#191970" points="411.2914,-137.0745 400.6966,-137.0419 408.9586,-143.6744 411.2914,-137.0745"/>
</g>
<!-- Node7 -->
<g id="node8" class="node">
<title>Node7</title>
<g id="a_node8"><a xlink:href="sequence_8h.html" target="_top" xlink:title="Functions and data structures related to sequence representations ,. ">
<polygon fill="none" stroke="#000000" points="498.7,-118 498.7,-137 620.7,-137 620.7,-118 498.7,-118"/>
<text text-anchor="middle" x="559.7" y="-125" font-family="Helvetica,sans-Serif" font-size="10.00" fill="#000000">ViennaRNA/sequence.h</text>
</a>
</g>
</g>
<!-- Node4&#45;&gt;Node7 -->
<g id="edge10" class="edge">
<title>Node4&#45;&gt;Node7</title>
<path fill="none" stroke="#191970" d="M549.575,-179.3906C551.2559,-170.776 553.774,-157.8708 555.8784,-147.0858"/>
<polygon fill="#191970" stroke="#191970" points="559.3186,-147.7301 557.7986,-137.2449 552.4482,-146.3895 559.3186,-147.7301"/>
</g>
<!-- Node4&#45;&gt;Node8 -->
<g id="edge11" class="edge">
<title>Node4&#45;&gt;Node8</title>
<path fill="none" stroke="#191970" d="M493.5662,-179.4515C442.4942,-170.3643 363.8178,-156.1619 295.7,-143 289.3661,-141.7761 282.7413,-140.4675 276.1563,-139.1488"/>
<polygon fill="#191970" stroke="#191970" points="276.3832,-135.6242 265.8887,-137.0788 274.9998,-142.4861 276.3832,-135.6242"/>
</g>
<!-- Node4&#45;&gt;Node9 -->
<g id="edge13" class="edge">
<title>Node4&#45;&gt;Node9</title>
<path fill="none" stroke="#191970" d="M474.3727,-183.1101C395.3822,-176.2103 265.8457,-163.2925 145.4593,-143.1967"/>
<polygon fill="#191970" stroke="#191970" points="145.7727,-139.7001 135.3293,-141.4848 144.6063,-146.6022 145.7727,-139.7001"/>
</g>
<!-- Node4&#45;&gt;Node10 -->
<g id="edge16" class="edge">
<title>Node4&#45;&gt;Node10</title>
<path fill="none" stroke="#191970" d="M620.9338,-185.8824C722.0121,-180.8676 910.0633,-168.9798 1079.0129,-143.1389"/>
<polygon fill="#191970" stroke="#191970" points="1079.7399,-146.5681 1089.0859,-141.578 1078.6679,-139.6507 1079.7399,-146.5681"/>
</g>
<!-- Node4&#45;&gt;Node11 -->
<g id="edge19" class="edge">
<title>Node4&#45;&gt;Node11</title>
<path fill="none" stroke="#191970" d="M577.075,-179.3906C609.3586,-168.8298 661.3535,-151.8208 696.9547,-140.1747"/>
<polygon fill="#191970" stroke="#191970" points="698.1151,-143.4776 706.5313,-137.0419 695.9387,-136.8246 698.1151,-143.4776"/>
</g>
<!-- Node4&#45;&gt;Node12 -->
<g id="edge21" class="edge">
<title>Node4&#45;&gt;Node12</title>
<path fill="none" stroke="#191970" d="M605.3015,-179.4888C655.055,-171.0828 729.1041,-158.1184 803.0403,-143.0786"/>
<polygon fill="#191970" stroke="#191970" points="803.9013,-146.475 812.9962,-141.0405 802.4974,-139.6173 803.9013,-146.475"/>
</g>
<!-- Node4&#45;&gt;Node13 -->
<g id="edge22" class="edge">
<title>Node4&#45;&gt;Node13</title>
<path fill="none" stroke="#191970" d="M620.959,-182.5105C697.3401,-175.2576 820.7022,-162.1774 935.9862,-143.1998"/>
<polygon fill="#191970" stroke="#191970" points="936.7549,-146.6201 946.0444,-141.5255 935.6054,-139.7151 936.7549,-146.6201"/>
</g>
<!-- Node6&#45;&gt;Node1 -->
<g id="edge8" class="edge">
<title>Node6&#45;&gt;Node1</title>
<path fill="none" stroke="#191970" d="M388.8221,-137.2129C407.9393,-152.6807 440.9597,-182.8112 474.7,-199 515.5535,-218.6017 564.4266,-231.0602 604.4717,-238.8028"/>
<polygon fill="#191970" stroke="#191970" points="603.9789,-242.2713 614.4522,-240.6711 605.267,-235.3908 603.9789,-242.2713"/>
</g>
<!-- Node6&#45;&gt;Node2 -->
<g id="edge7" class="edge">
<title>Node6&#45;&gt;Node2</title>
<path fill="none" stroke="#191970" d="M406.9812,-117.8906C443.8705,-107.2395 503.4757,-90.0296 543.8325,-78.3772"/>
<polygon fill="#191970" stroke="#191970" points="545.0158,-81.6786 553.6524,-75.5419 543.074,-74.9533 545.0158,-81.6786"/>
</g>
<!-- Node6&#45;&gt;Node5 -->
<g id="edge9" class="edge">
<title>Node6&#45;&gt;Node5</title>
<path fill="none" stroke="#191970" d="M373.7,-117.8906C373.7,-109.3657 373.7,-96.6392 373.7,-85.9235"/>
<polygon fill="#191970" stroke="#191970" points="377.2001,-85.7448 373.7,-75.7449 370.2001,-85.7449 377.2001,-85.7448"/>
</g>
<!-- Node8&#45;&gt;Node1 -->
<g id="edge12" class="edge">
<title>Node8&#45;&gt;Node1</title>
<path fill="none" stroke="#191970" d="M249.9624,-137.004C292.1692,-151.7842 370.4923,-180.4986 438.7,-199 493.7214,-213.9246 556.5382,-226.7717 604.5747,-235.9015"/>
<polygon fill="#191970" stroke="#191970" points="604.1169,-239.3769 614.5926,-237.7927 605.4155,-232.4984 604.1169,-239.3769"/>
</g>
<!-- Node9&#45;&gt;Node0 -->
<g id="edge15" class="edge">
<title>Node9&#45;&gt;Node0</title>
<path fill="none" stroke="#191970" d="M114.4737,-142.5349C153.8184,-157.5802 216.6079,-181.0132 271.7,-199 391.5943,-238.1439 533.3173,-277.6238 614.8326,-299.6866"/>
<polygon fill="#191970" stroke="#191970" points="614.3882,-303.1919 624.9549,-302.4205 616.2135,-296.4341 614.3882,-303.1919"/>
</g>
<!-- Node9&#45;&gt;Node1 -->
<g id="edge14" class="edge">
<title>Node9&#45;&gt;Node1</title>
<path fill="none" stroke="#191970" d="M135.2831,-142.1742C194.8005,-157.6863 288.7253,-182.1887 370.7,-199 449.9382,-215.2501 541.0851,-229.4887 604.1897,-238.8512"/>
<polygon fill="#191970" stroke="#191970" points="604.057,-242.3695 614.4612,-240.369 605.0803,-235.4447 604.057,-242.3695"/>
</g>
<!-- Node10&#45;&gt;Node0 -->
<g id="edge18" class="edge">
<title>Node10&#45;&gt;Node0</title>
<path fill="none" stroke="#191970" d="M1111.6611,-142.5693C1027.2718,-176.9033 820.8687,-260.8789 728.1421,-298.6049"/>
<polygon fill="#191970" stroke="#191970" points="726.6788,-295.4216 718.735,-302.4322 729.3168,-301.9055 726.6788,-295.4216"/>
</g>
<!-- Node10&#45;&gt;Node1 -->
<g id="edge17" class="edge">
<title>Node10&#45;&gt;Node1</title>
<path fill="none" stroke="#191970" d="M1096.3053,-142.513C1012.4192,-165.3337 848.0371,-208.6547 753.3607,-232.9154"/>
<polygon fill="#191970" stroke="#191970" points="752.3984,-229.5488 743.5776,-235.4178 754.1331,-236.3305 752.3984,-229.5488"/>
</g>
<!-- Node11&#45;&gt;Node1 -->
<g id="edge20" class="edge">
<title>Node11&#45;&gt;Node1</title>
<path fill="none" stroke="#191970" d="M735.3333,-137.0493C730.2126,-156.08 711.814,-199.2441 697.7147,-226.5044"/>
<polygon fill="#191970" stroke="#191970" points="694.5764,-224.9507 692.9357,-235.4178 700.7456,-228.2585 694.5764,-224.9507"/>
</g>
<!-- Node13&#45;&gt;Node1 -->
<g id="edge23" class="edge">
<title>Node13&#45;&gt;Node1</title>
<path fill="none" stroke="#191970" d="M973.3933,-142.513C916.2432,-165.0337 803.4236,-207.5194 736.0149,-231.949"/>
<polygon fill="#191970" stroke="#191970" points="734.6272,-228.7288 726.4109,-235.4178 737.0052,-235.3125 734.6272,-228.7288"/>
</g>
<!-- Node13&#45;&gt;Node14 -->
<g id="edge24" class="edge">
<title>Node13&#45;&gt;Node14</title>
<path fill="none" stroke="#191970" d="M1066.6767,-112.4554C1107.4349,-101.8789 1161.2509,-87.914 1199.2005,-78.0663"/>
<polygon fill="#191970" stroke="#191970" points="1200.1731,-81.4299 1208.9734,-75.5303 1198.4148,-74.6543 1200.1731,-81.4299"/>
</g>
<!-- Node14&#45;&gt;Node1 -->
<g id="edge26" class="edge">
<title>Node14&#45;&gt;Node1</title>
<path fill="none" stroke="#191970" d="M1250.551,-75.7228C1252.5746,-92.2132 1246.9805,-125.5691 1226.7,-143 1157.8664,-202.162 892.6865,-232.9277 759.2258,-244.704"/>
<polygon fill="#191970" stroke="#191970" points="758.7287,-241.2339 749.069,-245.5858 759.3343,-248.2076 758.7287,-241.2339"/>
</g>
<!-- Node15 -->
<g id="node16" class="node">
<title>Node15</title>
<polygon fill="none" stroke="#bfbfbf" points="1222.7,-.5 1222.7,-19.5 1268.7,-19.5 1268.7,-.5 1222.7,-.5"/>
<text text-anchor="middle" x="1245.7" y="-7.5" font-family="Helvetica,sans-Serif" font-size="10.00" fill="#000000">stdio.h</text>
</g>
<!-- Node14&#45;&gt;Node15 -->
<g id="edge25" class="edge">
<title>Node14&#45;&gt;Node15</title>
<path fill="none" stroke="#191970" d="M1245.7,-56.2455C1245.7,-48.9382 1245.7,-38.6944 1245.7,-29.7046"/>
<polygon fill="#191970" stroke="#191970" points="1249.2001,-29.6426 1245.7,-19.6427 1242.2001,-29.6427 1249.2001,-29.6426"/>
</g>
</g>
</svg>
