<?xml version="1.0" encoding="UTF-8" standalone="no"?>
<!DOCTYPE svg PUBLIC "-//W3C//DTD SVG 1.1//EN"
 "http://www.w3.org/Graphics/SVG/1.1/DTD/svg11.dtd">
<!-- Generated by graphviz version 2.40.1 (20161225.0304)
 -->
<!-- Title: ViennaRNA/constraints_hard.h Pages: 1 -->
<svg width="1247pt" height="419pt"
 viewBox="0.00 0.00 1247.00 419.00" xmlns="http://www.w3.org/2000/svg" xmlns:xlink="http://www.w3.org/1999/xlink">
<g id="graph0" class="graph" transform="scale(1 1) rotate(0) translate(4 415)">
<title>ViennaRNA/constraints_hard.h</title>
<!-- Node0 -->
<g id="node1" class="node">
<title>Node0</title>
<polygon fill="#bfbfbf" stroke="#000000" points="641,-380.5 641,-410.5 760,-410.5 760,-380.5 641,-380.5"/>
<text text-anchor="start" x="649" y="-398.5" font-family="Helvetica,sans-Serif" font-size="10.00" fill="#000000">ViennaRNA/constraints</text>
<text text-anchor="middle" x="700.5" y="-387.5" font-family="Helvetica,sans-Serif" font-size="10.00" fill="#000000">_hard.h</text>
</g>
<!-- Node1 -->
<g id="node2" class="node">
<title>Node1</title>
<g id="a_node2"><a xlink:href="hard_8h.html" target="_top" xlink:title="Functions and data structures for handling of secondary structure hard constraints. ">
<polygon fill="none" stroke="#000000" points="641,-313.5 641,-343.5 760,-343.5 760,-313.5 641,-313.5"/>
<text text-anchor="start" x="649" y="-331.5" font-family="Helvetica,sans-Serif" font-size="10.00" fill="#000000">ViennaRNA/constraints</text>
<text text-anchor="middle" x="700.5" y="-320.5" font-family="Helvetica,sans-Serif" font-size="10.00" fill="#000000">/hard.h</text>
</a>
</g>
</g>
<!-- Node0&#45;&gt;Node1 -->
<g id="edge1" class="edge">
<title>Node0&#45;&gt;Node1</title>
<path fill="none" stroke="#191970" d="M700.5,-380.2967C700.5,-372.5013 700.5,-362.7991 700.5,-353.9064"/>
<polygon fill="#191970" stroke="#191970" points="704.0001,-353.6431 700.5,-343.6432 697.0001,-353.6432 704.0001,-353.6431"/>
</g>
<!-- Node2 -->
<g id="node3" class="node">
<title>Node2</title>
<g id="a_node3"><a xlink:href="datastructures_2basic_8h.html" target="_top" xlink:title="Various data structures and pre&#45;processor macros. ">
<polygon fill="none" stroke="#000000" points="633.5,-246.5 633.5,-276.5 767.5,-276.5 767.5,-246.5 633.5,-246.5"/>
<text text-anchor="start" x="641.5" y="-264.5" font-family="Helvetica,sans-Serif" font-size="10.00" fill="#000000">ViennaRNA/datastructures</text>
<text text-anchor="middle" x="700.5" y="-253.5" font-family="Helvetica,sans-Serif" font-size="10.00" fill="#000000">/basic.h</text>
</a>
</g>
</g>
<!-- Node1&#45;&gt;Node2 -->
<g id="edge2" class="edge">
<title>Node1&#45;&gt;Node2</title>
<path fill="none" stroke="#191970" d="M694.7392,-313.2967C693.7895,-305.4156 693.5236,-295.5857 693.9416,-286.6135"/>
<polygon fill="#191970" stroke="#191970" points="697.4304,-286.8924 694.7464,-276.6432 690.4531,-286.3291 697.4304,-286.8924"/>
</g>
<!-- Node11 -->
<g id="node12" class="node">
<title>Node11</title>
<g id="a_node12"><a xlink:href="constraints_2basic_8h.html" target="_top" xlink:title="Functions and data structures for constraining secondary structure predictions and evaluation...">
<polygon fill="none" stroke="#000000" points="1120,-56.5 1120,-86.5 1239,-86.5 1239,-56.5 1120,-56.5"/>
<text text-anchor="start" x="1128" y="-74.5" font-family="Helvetica,sans-Serif" font-size="10.00" fill="#000000">ViennaRNA/constraints</text>
<text text-anchor="middle" x="1179.5" y="-63.5" font-family="Helvetica,sans-Serif" font-size="10.00" fill="#000000">/basic.h</text>
</a>
</g>
</g>
<!-- Node1&#45;&gt;Node11 -->
<g id="edge36" class="edge">
<title>Node1&#45;&gt;Node11</title>
<path fill="none" stroke="#191970" d="M760.2193,-316.6804C839.9176,-299.589 984.2668,-263.9829 1098.5,-210 1138.7337,-190.9869 1160.6111,-193.2925 1181.5,-154 1190.8566,-136.3999 1189.4527,-113.5636 1186.2206,-96.3805"/>
<polygon fill="#191970" stroke="#191970" points="1189.6163,-95.5254 1184.0518,-86.5095 1182.7794,-97.0276 1189.6163,-95.5254"/>
</g>
<!-- Node2&#45;&gt;Node1 -->
<g id="edge30" class="edge">
<title>Node2&#45;&gt;Node1</title>
<path fill="none" stroke="#191970" d="M706.2536,-276.6432C707.2067,-284.5143 707.4761,-294.3414 707.0616,-303.3179"/>
<polygon fill="#191970" stroke="#191970" points="703.572,-303.0487 706.2608,-313.2967 710.5496,-303.6087 703.572,-303.0487"/>
</g>
<!-- Node3 -->
<g id="node4" class="node">
<title>Node3</title>
<g id="a_node4"><a xlink:href="constants_8h.html" target="_top" xlink:title="Energy parameter constants. ">
<polygon fill="none" stroke="#000000" points="924.5,-62 924.5,-81 1082.5,-81 1082.5,-62 924.5,-62"/>
<text text-anchor="middle" x="1003.5" y="-69" font-family="Helvetica,sans-Serif" font-size="10.00" fill="#000000">ViennaRNA/params/constants.h</text>
</a>
</g>
</g>
<!-- Node2&#45;&gt;Node3 -->
<g id="edge3" class="edge">
<title>Node2&#45;&gt;Node3</title>
<path fill="none" stroke="#191970" d="M767.8897,-254.5507C809.3751,-247.9015 862.308,-234.9836 903.5,-210 950.66,-181.3967 982.0753,-121.2576 995.7328,-90.498"/>
<polygon fill="#191970" stroke="#191970" points="998.9607,-91.8512 999.6808,-81.2808 992.5262,-89.095 998.9607,-91.8512"/>
</g>
<!-- Node5 -->
<g id="node6" class="node">
<title>Node5</title>
<g id="a_node6"><a xlink:href="fold__compound_8h.html" target="_top" xlink:title="The Basic Fold Compound API. ">
<polygon fill="none" stroke="#000000" points="397.5,-190.5 397.5,-209.5 543.5,-209.5 543.5,-190.5 397.5,-190.5"/>
<text text-anchor="middle" x="470.5" y="-197.5" font-family="Helvetica,sans-Serif" font-size="10.00" fill="#000000">ViennaRNA/fold_compound.h</text>
</a>
</g>
</g>
<!-- Node2&#45;&gt;Node5 -->
<g id="edge5" class="edge">
<title>Node2&#45;&gt;Node5</title>
<path fill="none" stroke="#191970" d="M644.2357,-246.4554C604.8497,-235.9239 552.899,-222.0328 516.0971,-212.1923"/>
<polygon fill="#191970" stroke="#191970" points="516.7066,-208.7323 506.1418,-209.5303 514.8983,-215.4948 516.7066,-208.7323"/>
</g>
<!-- Node6 -->
<g id="node7" class="node">
<title>Node6</title>
<g id="a_node7"><a xlink:href="model_8h.html" target="_top" xlink:title="The model details data structure and its corresponding modifiers. ">
<polygon fill="none" stroke="#000000" points="556.5,-62 556.5,-81 662.5,-81 662.5,-62 556.5,-62"/>
<text text-anchor="middle" x="609.5" y="-69" font-family="Helvetica,sans-Serif" font-size="10.00" fill="#000000">ViennaRNA/model.h</text>
</a>
</g>
</g>
<!-- Node2&#45;&gt;Node6 -->
<g id="edge27" class="edge">
<title>Node2&#45;&gt;Node6</title>
<path fill="none" stroke="#191970" d="M688.0962,-246.4596C672.2557,-226.5199 645.0402,-189.6801 629.5,-154 620.5691,-133.4948 615.1984,-108.3088 612.3054,-91.1976"/>
<polygon fill="#191970" stroke="#191970" points="615.7528,-90.5884 610.7495,-81.2494 608.8368,-91.6701 615.7528,-90.5884"/>
</g>
<!-- Node7 -->
<g id="node8" class="node">
<title>Node7</title>
<g id="a_node8"><a xlink:href="params_2basic_8h.html" target="_top" xlink:title="Functions to deal with sets of energy parameters. ">
<polygon fill="none" stroke="#000000" points="781.5,-129 781.5,-148 919.5,-148 919.5,-129 781.5,-129"/>
<text text-anchor="middle" x="850.5" y="-136" font-family="Helvetica,sans-Serif" font-size="10.00" fill="#000000">ViennaRNA/params/basic.h</text>
</a>
</g>
</g>
<!-- Node2&#45;&gt;Node7 -->
<g id="edge28" class="edge">
<title>Node2&#45;&gt;Node7</title>
<path fill="none" stroke="#191970" d="M714.2787,-246.4178C740.0576,-222.9631 794.8996,-177.9737 826.7106,-154.1668"/>
<polygon fill="#191970" stroke="#191970" points="829.0465,-156.7935 835.0289,-148.0493 824.8993,-151.1543 829.0465,-156.7935"/>
</g>
<!-- Node9 -->
<g id="node10" class="node">
<title>Node9</title>
<g id="a_node10"><a xlink:href="dp__matrices_8h.html" target="_top" xlink:title="Functions to deal with standard dynamic programming (DP) matrices. ">
<polygon fill="none" stroke="#000000" points="0,-129 0,-148 133,-148 133,-129 0,-129"/>
<text text-anchor="middle" x="66.5" y="-136" font-family="Helvetica,sans-Serif" font-size="10.00" fill="#000000">ViennaRNA/dp_matrices.h</text>
</a>
</g>
</g>
<!-- Node2&#45;&gt;Node9 -->
<g id="edge29" class="edge">
<title>Node2&#45;&gt;Node9</title>
<path fill="none" stroke="#191970" d="M633.3359,-255.6595C556.148,-247.9269 426.2457,-232.58 316.5,-210 237.7996,-193.8075 147.7512,-167.0357 99.9962,-151.2516"/>
<polygon fill="#191970" stroke="#191970" points="101.061,-147.9172 90.4671,-148.058 98.8366,-154.5544 101.061,-147.9172"/>
</g>
<!-- Node10 -->
<g id="node11" class="node">
<title>Node10</title>
<g id="a_node11"><a xlink:href="soft_8h.html" target="_top" xlink:title="Functions and data structures for secondary structure soft constraints. ">
<polygon fill="none" stroke="#000000" points="1032,-123.5 1032,-153.5 1151,-153.5 1151,-123.5 1032,-123.5"/>
<text text-anchor="start" x="1040" y="-141.5" font-family="Helvetica,sans-Serif" font-size="10.00" fill="#000000">ViennaRNA/constraints</text>
<text text-anchor="middle" x="1091.5" y="-130.5" font-family="Helvetica,sans-Serif" font-size="10.00" fill="#000000">/soft.h</text>
</a>
</g>
</g>
<!-- Node2&#45;&gt;Node10 -->
<g id="edge31" class="edge">
<title>Node2&#45;&gt;Node10</title>
<path fill="none" stroke="#191970" d="M767.5573,-254.6815C845.0262,-246.3748 966.9415,-230.8306 1008.5,-210 1031.4202,-198.5116 1051.8987,-177.433 1067.0555,-161.1276"/>
<polygon fill="#191970" stroke="#191970" points="1069.8286,-163.2843 1074.056,-153.5694 1064.693,-158.5277 1069.8286,-163.2843"/>
</g>
<!-- Node12 -->
<g id="node13" class="node">
<title>Node12</title>
<g id="a_node13"><a xlink:href="grammar_8h.html" target="_top" xlink:title="Implementations for the RNA folding grammar. ">
<polygon fill="none" stroke="#000000" points="151.5,-129 151.5,-148 269.5,-148 269.5,-129 151.5,-129"/>
<text text-anchor="middle" x="210.5" y="-136" font-family="Helvetica,sans-Serif" font-size="10.00" fill="#000000">ViennaRNA/grammar.h</text>
</a>
</g>
</g>
<!-- Node2&#45;&gt;Node12 -->
<g id="edge32" class="edge">
<title>Node2&#45;&gt;Node12</title>
<path fill="none" stroke="#191970" d="M633.4227,-255.4933C567.6549,-248.2629 465.2813,-233.997 379.5,-210 325.7303,-194.9581 266.0441,-168.9517 233.781,-152.7938"/>
<polygon fill="#191970" stroke="#191970" points="235.1795,-149.5774 224.6856,-148.1185 231.9793,-155.8031 235.1795,-149.5774"/>
</g>
<!-- Node13 -->
<g id="node14" class="node">
<title>Node13</title>
<g id="a_node14"><a xlink:href="structured__domains_8h.html" target="_top" xlink:title="This module provides interfaces that deal with additional structured domains in the folding grammar...">
<polygon fill="none" stroke="#000000" points="466,-123.5 466,-153.5 581,-153.5 581,-123.5 466,-123.5"/>
<text text-anchor="start" x="474" y="-141.5" font-family="Helvetica,sans-Serif" font-size="10.00" fill="#000000">ViennaRNA/structured</text>
<text text-anchor="middle" x="523.5" y="-130.5" font-family="Helvetica,sans-Serif" font-size="10.00" fill="#000000">_domains.h</text>
</a>
</g>
</g>
<!-- Node2&#45;&gt;Node13 -->
<g id="edge33" class="edge">
<title>Node2&#45;&gt;Node13</title>
<path fill="none" stroke="#191970" d="M662.3934,-246.4123C641.6898,-237.3486 616.1714,-224.725 595.5,-210 575.8877,-196.0295 556.6925,-176.5939 543.0603,-161.5121"/>
<polygon fill="#191970" stroke="#191970" points="545.342,-158.8094 536.0918,-153.6436 540.1016,-163.4504 545.342,-158.8094"/>
</g>
<!-- Node14 -->
<g id="node15" class="node">
<title>Node14</title>
<g id="a_node15"><a xlink:href="unstructured__domains_8h.html" target="_top" xlink:title="Functions to modify unstructured domains, e.g. to incorporate ligands binding to unpaired stretches...">
<polygon fill="none" stroke="#000000" points="638,-123.5 638,-153.5 763,-153.5 763,-123.5 638,-123.5"/>
<text text-anchor="start" x="646" y="-141.5" font-family="Helvetica,sans-Serif" font-size="10.00" fill="#000000">ViennaRNA/unstructured</text>
<text text-anchor="middle" x="700.5" y="-130.5" font-family="Helvetica,sans-Serif" font-size="10.00" fill="#000000">_domains.h</text>
</a>
</g>
</g>
<!-- Node2&#45;&gt;Node14 -->
<g id="edge34" class="edge">
<title>Node2&#45;&gt;Node14</title>
<path fill="none" stroke="#191970" d="M695.8857,-246.4178C693.4095,-225.8539 693.0865,-188.7363 694.9169,-163.8546"/>
<polygon fill="#191970" stroke="#191970" points="698.4196,-163.9893 695.8709,-153.7056 691.4503,-163.3341 698.4196,-163.9893"/>
</g>
<!-- Node15 -->
<g id="node16" class="node">
<title>Node15</title>
<g id="a_node16"><a xlink:href="utils_2structures_8h.html" target="_top" xlink:title="Various utility&#45; and helper&#45;functions for secondary structure parsing, converting, etc. ">
<polygon fill="none" stroke="#000000" points="762.5,-62 762.5,-81 906.5,-81 906.5,-62 762.5,-62"/>
<text text-anchor="middle" x="834.5" y="-69" font-family="Helvetica,sans-Serif" font-size="10.00" fill="#000000">ViennaRNA/utils/structures.h</text>
</a>
</g>
</g>
<!-- Node2&#45;&gt;Node15 -->
<g id="edge35" class="edge">
<title>Node2&#45;&gt;Node15</title>
<path fill="none" stroke="#191970" d="M767.5328,-248.0474C818.7729,-234.2005 885.9878,-206.8511 919.5,-154 926.8781,-142.3642 926.522,-134.854 919.5,-123 908.9373,-105.1689 889.7734,-93.1052 872.2328,-85.1656"/>
<polygon fill="#191970" stroke="#191970" points="873.295,-81.8156 862.72,-81.1686 870.5834,-88.2691 873.295,-81.8156"/>
</g>
<!-- Node4 -->
<g id="node5" class="node">
<title>Node4</title>
<polygon fill="none" stroke="#bfbfbf" points="979.5,-.5 979.5,-19.5 1027.5,-19.5 1027.5,-.5 979.5,-.5"/>
<text text-anchor="middle" x="1003.5" y="-7.5" font-family="Helvetica,sans-Serif" font-size="10.00" fill="#000000">limits.h</text>
</g>
<!-- Node3&#45;&gt;Node4 -->
<g id="edge4" class="edge">
<title>Node3&#45;&gt;Node4</title>
<path fill="none" stroke="#191970" d="M1003.5,-61.8906C1003.5,-53.3657 1003.5,-40.6392 1003.5,-29.9235"/>
<polygon fill="#191970" stroke="#191970" points="1007.0001,-29.7448 1003.5,-19.7449 1000.0001,-29.7449 1007.0001,-29.7448"/>
</g>
<!-- Node5&#45;&gt;Node1 -->
<g id="edge14" class="edge">
<title>Node5&#45;&gt;Node1</title>
<path fill="none" stroke="#191970" d="M487.6302,-209.5706C524.8869,-230.3857 613.9687,-280.1553 664.2892,-308.2692"/>
<polygon fill="#191970" stroke="#191970" points="662.7758,-311.4328 673.2128,-313.2548 666.19,-305.3219 662.7758,-311.4328"/>
</g>
<!-- Node5&#45;&gt;Node6 -->
<g id="edge6" class="edge">
<title>Node5&#45;&gt;Node6</title>
<path fill="none" stroke="#191970" d="M464.8197,-190.4737C456.3269,-174.8548 442.8061,-143.4929 457.5,-123 469.0505,-106.891 514.7166,-92.7797 553.0071,-83.4217"/>
<polygon fill="#191970" stroke="#191970" points="554.1474,-86.7482 563.0659,-81.0288 552.5273,-79.9383 554.1474,-86.7482"/>
</g>
<!-- Node5&#45;&gt;Node7 -->
<g id="edge7" class="edge">
<title>Node5&#45;&gt;Node7</title>
<path fill="none" stroke="#191970" d="M539.0101,-190.4616C600.3143,-181.7131 692.5765,-168.0207 772.5,-154 779.6054,-152.7535 787.0596,-151.3702 794.4243,-149.9578"/>
<polygon fill="#191970" stroke="#191970" points="795.2222,-153.3682 804.3703,-148.0238 793.8861,-146.4969 795.2222,-153.3682"/>
</g>
<!-- Node8 -->
<g id="node9" class="node">
<title>Node8</title>
<g id="a_node9"><a xlink:href="sequence_8h.html" target="_top" xlink:title="Functions and data structures related to sequence representations ,. ">
<polygon fill="none" stroke="#000000" points="287.5,-129 287.5,-148 409.5,-148 409.5,-129 287.5,-129"/>
<text text-anchor="middle" x="348.5" y="-136" font-family="Helvetica,sans-Serif" font-size="10.00" fill="#000000">ViennaRNA/sequence.h</text>
</a>
</g>
</g>
<!-- Node5&#45;&gt;Node8 -->
<g id="edge11" class="edge">
<title>Node5&#45;&gt;Node8</title>
<path fill="none" stroke="#191970" d="M451.4375,-190.3906C431.3828,-180.2811 399.6066,-164.2628 376.6616,-152.6962"/>
<polygon fill="#191970" stroke="#191970" points="377.9337,-149.418 367.4286,-148.0419 374.7827,-155.6687 377.9337,-149.418"/>
</g>
<!-- Node5&#45;&gt;Node9 -->
<g id="edge12" class="edge">
<title>Node5&#45;&gt;Node9</title>
<path fill="none" stroke="#191970" d="M397.3455,-191.0574C330.7408,-182.603 229.7722,-169.0044 142.5,-154 135.4745,-152.7921 128.1047,-151.421 120.8335,-150.0058"/>
<polygon fill="#191970" stroke="#191970" points="121.5106,-146.572 111.0208,-148.0598 120.1489,-153.4383 121.5106,-146.572"/>
</g>
<!-- Node5&#45;&gt;Node10 -->
<g id="edge15" class="edge">
<title>Node5&#45;&gt;Node10</title>
<path fill="none" stroke="#191970" d="M543.5627,-192.7643C664.1278,-180.8243 903.1632,-157.1517 1021.6117,-145.4213"/>
<polygon fill="#191970" stroke="#191970" points="1022.049,-148.8952 1031.6553,-144.4266 1021.359,-141.9293 1022.049,-148.8952"/>
</g>
<!-- Node5&#45;&gt;Node12 -->
<g id="edge19" class="edge">
<title>Node5&#45;&gt;Node12</title>
<path fill="none" stroke="#191970" d="M430.1603,-190.4581C384.5232,-179.6632 310.143,-162.0694 260.766,-150.3899"/>
<polygon fill="#191970" stroke="#191970" points="261.4715,-146.9602 250.9344,-148.0643 259.8602,-153.7722 261.4715,-146.9602"/>
</g>
<!-- Node5&#45;&gt;Node13 -->
<g id="edge21" class="edge">
<title>Node5&#45;&gt;Node13</title>
<path fill="none" stroke="#191970" d="M478.7813,-190.3906C485.4892,-182.6068 495.2159,-171.3202 503.8859,-161.2597"/>
<polygon fill="#191970" stroke="#191970" points="506.6578,-163.4046 510.5347,-153.5446 501.3552,-158.8349 506.6578,-163.4046"/>
</g>
<!-- Node5&#45;&gt;Node14 -->
<g id="edge22" class="edge">
<title>Node5&#45;&gt;Node14</title>
<path fill="none" stroke="#191970" d="M506.1851,-190.4581C540.2944,-181.3376 592.554,-167.3638 634.2893,-156.2042"/>
<polygon fill="#191970" stroke="#191970" points="635.3527,-159.5429 644.1092,-153.5784 633.5444,-152.7804 635.3527,-159.5429"/>
</g>
<!-- Node7&#45;&gt;Node2 -->
<g id="edge9" class="edge">
<title>Node7&#45;&gt;Node2</title>
<path fill="none" stroke="#191970" d="M842.6803,-148.0493C822.0085,-167.7449 766.9401,-213.2894 731.5988,-240.3014"/>
<polygon fill="#191970" stroke="#191970" points="729.3741,-237.5956 723.5072,-246.4178 733.5951,-243.1798 729.3741,-237.5956"/>
</g>
<!-- Node7&#45;&gt;Node3 -->
<g id="edge8" class="edge">
<title>Node7&#45;&gt;Node3</title>
<path fill="none" stroke="#191970" d="M872.4212,-128.9005C898.5525,-117.4574 942.4121,-98.2509 972.1296,-85.2374"/>
<polygon fill="#191970" stroke="#191970" points="973.8633,-88.2991 981.6195,-81.0817 971.0553,-81.887 973.8633,-88.2991"/>
</g>
<!-- Node7&#45;&gt;Node6 -->
<g id="edge10" class="edge">
<title>Node7&#45;&gt;Node6</title>
<path fill="none" stroke="#191970" d="M816.2265,-128.9717C773.6101,-117.124 700.7773,-96.8758 653.9185,-83.8487"/>
<polygon fill="#191970" stroke="#191970" points="654.6176,-80.4104 644.0454,-81.1039 652.7426,-87.1546 654.6176,-80.4104"/>
</g>
<!-- Node9&#45;&gt;Node2 -->
<g id="edge13" class="edge">
<title>Node9&#45;&gt;Node2</title>
<path fill="none" stroke="#191970" d="M101.7289,-148.058C152.8835,-163.1736 250.2016,-192.6558 334.5,-210 433.4755,-230.364 548.8456,-244.845 623.2559,-253.1633"/>
<polygon fill="#191970" stroke="#191970" points="623.153,-256.6732 633.4777,-254.2961 623.9241,-249.7158 623.153,-256.6732"/>
</g>
<!-- Node10&#45;&gt;Node2 -->
<g id="edge16" class="edge">
<title>Node10&#45;&gt;Node2</title>
<path fill="none" stroke="#191970" d="M1087.0591,-153.5694C1076.5354,-170.2778 1053.1708,-196.6316 1026.5,-210 984.4522,-231.0758 860.1444,-246.7401 777.6876,-254.9718"/>
<polygon fill="#191970" stroke="#191970" points="777.2074,-251.5021 767.5974,-255.9629 777.8917,-258.4685 777.2074,-251.5021"/>
</g>
<!-- Node10&#45;&gt;Node11 -->
<g id="edge17" class="edge">
<title>Node10&#45;&gt;Node11</title>
<path fill="none" stroke="#191970" d="M1111.4686,-123.2967C1123.2825,-114.302 1138.4306,-102.7687 1151.4327,-92.8694"/>
<polygon fill="#191970" stroke="#191970" points="1153.7743,-95.4857 1159.6105,-86.6432 1149.5338,-89.9162 1153.7743,-95.4857"/>
</g>
<!-- Node11&#45;&gt;Node2 -->
<g id="edge18" class="edge">
<title>Node11&#45;&gt;Node2</title>
<path fill="none" stroke="#191970" d="M1179.668,-86.7963C1179.0981,-104.6826 1175.6802,-134.339 1160.5,-154 1127.6974,-196.485 1104.5584,-193.4463 1053.5,-210 961.5018,-239.8267 850.3947,-252.4279 777.7213,-257.7203"/>
<polygon fill="#191970" stroke="#191970" points="777.459,-254.23 767.7278,-258.4196 777.9477,-261.2129 777.459,-254.23"/>
</g>
<!-- Node12&#45;&gt;Node2 -->
<g id="edge20" class="edge">
<title>Node12&#45;&gt;Node2</title>
<path fill="none" stroke="#191970" d="M235.8925,-148.1185C271.6319,-163.4537 338.1679,-193.402 397.5,-210 472.9983,-231.1204 561.3493,-244.7028 623.1604,-252.5851"/>
<polygon fill="#191970" stroke="#191970" points="622.8719,-256.0763 633.2299,-253.8489 623.7436,-249.1308 622.8719,-256.0763"/>
</g>
<!-- Node14&#45;&gt;Node2 -->
<g id="edge23" class="edge">
<title>Node14&#45;&gt;Node2</title>
<path fill="none" stroke="#191970" d="M705.1291,-153.7056C707.5967,-174.3355 707.9111,-211.4615 706.0721,-236.2943"/>
<polygon fill="#191970" stroke="#191970" points="702.5719,-236.1325 705.1143,-246.4178 709.5408,-236.792 702.5719,-236.1325"/>
</g>
<!-- Node14&#45;&gt;Node15 -->
<g id="edge24" class="edge">
<title>Node14&#45;&gt;Node15</title>
<path fill="none" stroke="#191970" d="M730.5722,-123.4639C753.157,-112.1715 783.8829,-96.8086 806.0616,-85.7192"/>
<polygon fill="#191970" stroke="#191970" points="807.9131,-88.7066 815.2922,-81.1039 804.7826,-82.4456 807.9131,-88.7066"/>
</g>
<!-- Node15&#45;&gt;Node2 -->
<g id="edge26" class="edge">
<title>Node15&#45;&gt;Node2</title>
<path fill="none" stroke="#191970" d="M878.001,-81.0817C900.1942,-88.7363 924.9338,-101.7867 937.5,-123 944.522,-134.854 944.8781,-142.3642 937.5,-154 902.9567,-208.4772 832.6048,-235.8593 777.414,-249.2876"/>
<polygon fill="#191970" stroke="#191970" points="776.5953,-245.8845 767.6478,-251.5582 778.1806,-252.7026 776.5953,-245.8845"/>
</g>
<!-- Node16 -->
<g id="node17" class="node">
<title>Node16</title>
<polygon fill="none" stroke="#bfbfbf" points="811.5,-.5 811.5,-19.5 857.5,-19.5 857.5,-.5 811.5,-.5"/>
<text text-anchor="middle" x="834.5" y="-7.5" font-family="Helvetica,sans-Serif" font-size="10.00" fill="#000000">stdio.h</text>
</g>
<!-- Node15&#45;&gt;Node16 -->
<g id="edge25" class="edge">
<title>Node15&#45;&gt;Node16</title>
<path fill="none" stroke="#191970" d="M834.5,-61.8906C834.5,-53.3657 834.5,-40.6392 834.5,-29.9235"/>
<polygon fill="#191970" stroke="#191970" points="838.0001,-29.7448 834.5,-19.7449 831.0001,-29.7449 838.0001,-29.7448"/>
</g>
</g>
</svg>
