<?xml version="1.0" encoding="UTF-8" standalone="no"?>
<!DOCTYPE svg PUBLIC "-//W3C//DTD SVG 1.1//EN"
 "http://www.w3.org/Graphics/SVG/1.1/DTD/svg11.dtd">
<!-- Generated by graphviz version 2.40.1 (20161225.0304)
 -->
<!-- Title: ViennaRNA/datastructures/char_stream.h Pages: 1 -->
<svg width="258pt" height="151pt"
 viewBox="0.00 0.00 258.00 151.00" xmlns="http://www.w3.org/2000/svg" xmlns:xlink="http://www.w3.org/1999/xlink">
<g id="graph0" class="graph" transform="scale(1 1) rotate(0) translate(4 147)">
<title>ViennaRNA/datastructures/char_stream.h</title>
<!-- Node2 -->
<g id="node1" class="node">
<title>Node2</title>
<polygon fill="#bfbfbf" stroke="#000000" points="67,-112.5 67,-142.5 201,-142.5 201,-112.5 67,-112.5"/>
<text text-anchor="start" x="75" y="-130.5" font-family="Helvetica,sans-Serif" font-size="10.00" fill="#000000">ViennaRNA/datastructures</text>
<text text-anchor="middle" x="134" y="-119.5" font-family="Helvetica,sans-Serif" font-size="10.00" fill="#000000">/char_stream.h</text>
</g>
<!-- Node3 -->
<g id="node2" class="node">
<title>Node3</title>
<g id="a_node2"><a xlink:href="char__stream_8h.html" target="_top" xlink:title="Use ViennaRNA/datastructures/char_stream.h instead. ">
<polygon fill="none" stroke="#000000" points="0,-56.5 0,-75.5 134,-75.5 134,-56.5 0,-56.5"/>
<text text-anchor="middle" x="67" y="-63.5" font-family="Helvetica,sans-Serif" font-size="10.00" fill="#000000">ViennaRNA/char_stream.h</text>
</a>
</g>
</g>
<!-- Node2&#45;&gt;Node3 -->
<g id="edge1" class="edge">
<title>Node2&#45;&gt;Node3</title>
<path fill="none" stroke="#191970" d="M109.7667,-105.256C98.7774,-95.1688 86.3441,-83.7561 77.7275,-75.8469"/>
<polygon fill="#191970" stroke="#191970" points="107.7044,-108.1139 117.4382,-112.2977 112.438,-102.957 107.7044,-108.1139"/>
</g>
<!-- Node4 -->
<g id="node3" class="node">
<title>Node4</title>
<g id="a_node3"><a xlink:href="eval_8h.html" target="_top" xlink:title="Functions and variables related to energy evaluation of sequence/structure pairs. ...">
<polygon fill="none" stroke="#000000" points="152,-56.5 152,-75.5 250,-75.5 250,-56.5 152,-56.5"/>
<text text-anchor="middle" x="201" y="-63.5" font-family="Helvetica,sans-Serif" font-size="10.00" fill="#000000">ViennaRNA/eval.h</text>
</a>
</g>
</g>
<!-- Node2&#45;&gt;Node4 -->
<g id="edge2" class="edge">
<title>Node2&#45;&gt;Node4</title>
<path fill="none" stroke="#191970" d="M158.2333,-105.256C169.2226,-95.1688 181.6559,-83.7561 190.2725,-75.8469"/>
<polygon fill="#191970" stroke="#191970" points="155.562,-102.957 150.5618,-112.2977 160.2956,-108.1139 155.562,-102.957"/>
</g>
<!-- Node5 -->
<g id="node4" class="node">
<title>Node5</title>
<g id="a_node4"><a xlink:href="fold_8h.html" target="_top" xlink:title="MFE calculations for single RNA sequences. ">
<polygon fill="none" stroke="#000000" points="153.5,-.5 153.5,-19.5 248.5,-19.5 248.5,-.5 153.5,-.5"/>
<text text-anchor="middle" x="201" y="-7.5" font-family="Helvetica,sans-Serif" font-size="10.00" fill="#000000">ViennaRNA/fold.h</text>
</a>
</g>
</g>
<!-- Node4&#45;&gt;Node5 -->
<g id="edge3" class="edge">
<title>Node4&#45;&gt;Node5</title>
<path fill="none" stroke="#191970" d="M201,-46.1575C201,-37.155 201,-26.9199 201,-19.6427"/>
<polygon fill="#191970" stroke="#191970" points="197.5001,-46.2455 201,-56.2455 204.5001,-46.2456 197.5001,-46.2455"/>
</g>
</g>
</svg>
