<?xml version="1.0" encoding="UTF-8" standalone="no"?>
<!DOCTYPE svg PUBLIC "-//W3C//DTD SVG 1.1//EN"
 "http://www.w3.org/Graphics/SVG/1.1/DTD/svg11.dtd">
<!-- Generated by graphviz version 2.40.1 (20161225.0304)
 -->
<!-- Title: ViennaRNA/loops Pages: 1 -->
<svg width="135pt" height="295pt"
 viewBox="0.00 0.00 135.00 295.00" xmlns="http://www.w3.org/2000/svg" xmlns:xlink="http://www.w3.org/1999/xlink">
<g id="graph0" class="graph" transform="scale(1 1) rotate(0) translate(4 291)">
<title>ViennaRNA/loops</title>
<g id="clust1" class="cluster">
<title>clusterdir_b65dce601f6c2aa1a9f53e1dbd97d018</title>
<g id="a_clust1"><a xlink:href="dir_b65dce601f6c2aa1a9f53e1dbd97d018.html" target="_top" xlink:title="ViennaRNA">
<polygon fill="#ddddee" stroke="#000000" points="49,-208 49,-279 119,-279 119,-208 49,-208"/>
<text text-anchor="middle" x="84" y="-267" font-family="Helvetica,sans-Serif" font-size="10.00" fill="#000000">ViennaRNA</text>
</a>
</g>
</g>
<!-- dir_e0244ac7ebefc16cab8ba03c1831bb2c -->
<g id="node1" class="node">
<title>dir_e0244ac7ebefc16cab8ba03c1831bb2c</title>
<g id="a_node1"><a xlink:href="dir_e0244ac7ebefc16cab8ba03c1831bb2c.html" target="_top" xlink:title="loops">
<polygon fill="#eeeeff" stroke="#000000" points="111,-252 57,-252 57,-216 111,-216 111,-252"/>
<text text-anchor="middle" x="84" y="-231.5" font-family="Helvetica,sans-Serif" font-size="10.00" fill="#000000">loops</text>
</a>
</g>
</g>
<!-- dir_fca7cdd19784fbd943eb50b086bcba79 -->
<g id="node2" class="node">
<title>dir_fca7cdd19784fbd943eb50b086bcba79</title>
<g id="a_node2"><a xlink:href="dir_fca7cdd19784fbd943eb50b086bcba79.html" target="_top" xlink:title="constraints">
<polygon fill="none" stroke="#000000" points="86.5,-180 21.5,-180 21.5,-144 86.5,-144 86.5,-180"/>
<text text-anchor="middle" x="54" y="-159.5" font-family="Helvetica,sans-Serif" font-size="10.00" fill="#000000">constraints</text>
</a>
</g>
</g>
<!-- dir_e0244ac7ebefc16cab8ba03c1831bb2c&#45;&gt;dir_fca7cdd19784fbd943eb50b086bcba79 -->
<g id="edge6" class="edge">
<title>dir_e0244ac7ebefc16cab8ba03c1831bb2c&#45;&gt;dir_fca7cdd19784fbd943eb50b086bcba79</title>
<path fill="none" stroke="#000000" d="M76.4297,-215.8314C73.1507,-207.9617 69.238,-198.5712 65.6055,-189.8533"/>
<polygon fill="#000000" stroke="#000000" points="68.7492,-188.2979 61.6722,-180.4133 62.2876,-190.9902 68.7492,-188.2979"/>
<g id="a_edge6&#45;headlabel"><a xlink:href="dir_000004_000002.html" target="_top" xlink:title="2">
<text text-anchor="middle" x="72.7525" y="-188.024" font-family="Helvetica,sans-Serif" font-size="10.00" fill="#000000">2</text>
</a>
</g>
</g>
<!-- dir_788695b667a2248eec3656daa7404354 -->
<g id="node3" class="node">
<title>dir_788695b667a2248eec3656daa7404354</title>
<g id="a_node3"><a xlink:href="dir_788695b667a2248eec3656daa7404354.html" target="_top" xlink:title="params">
<polygon fill="none" stroke="#000000" points="54,-36 0,-36 0,0 54,0 54,-36"/>
<text text-anchor="middle" x="27" y="-15.5" font-family="Helvetica,sans-Serif" font-size="10.00" fill="#000000">params</text>
</a>
</g>
</g>
<!-- dir_e0244ac7ebefc16cab8ba03c1831bb2c&#45;&gt;dir_788695b667a2248eec3656daa7404354 -->
<g id="edge7" class="edge">
<title>dir_e0244ac7ebefc16cab8ba03c1831bb2c&#45;&gt;dir_788695b667a2248eec3656daa7404354</title>
<path fill="none" stroke="#000000" d="M56.9091,-221.6565C40.6517,-212.6445 21.3635,-198.7271 12,-180 -9.5212,-136.9575 4.2474,-79.4528 15.8654,-45.8006"/>
<polygon fill="#000000" stroke="#000000" points="19.2408,-46.7591 19.3606,-36.165 12.6604,-44.3721 19.2408,-46.7591"/>
<g id="a_edge7&#45;headlabel"><a xlink:href="dir_000004_000006.html" target="_top" xlink:title="4">
<text text-anchor="middle" x="20.6843" y="-48.6064" font-family="Helvetica,sans-Serif" font-size="10.00" fill="#000000">4</text>
</a>
</g>
</g>
<!-- dir_99e275c152145741e4b8bbe1e7e65f5d -->
<g id="node4" class="node">
<title>dir_99e275c152145741e4b8bbe1e7e65f5d</title>
<g id="a_node4"><a xlink:href="dir_99e275c152145741e4b8bbe1e7e65f5d.html" target="_top" xlink:title="datastructures">
<polygon fill="none" stroke="#000000" points="100.5,-108 21.5,-108 21.5,-72 100.5,-72 100.5,-108"/>
<text text-anchor="middle" x="61" y="-87.5" font-family="Helvetica,sans-Serif" font-size="10.00" fill="#000000">datastructures</text>
</a>
</g>
</g>
<!-- dir_e0244ac7ebefc16cab8ba03c1831bb2c&#45;&gt;dir_99e275c152145741e4b8bbe1e7e65f5d -->
<g id="edge8" class="edge">
<title>dir_e0244ac7ebefc16cab8ba03c1831bb2c&#45;&gt;dir_99e275c152145741e4b8bbe1e7e65f5d</title>
<path fill="none" stroke="#000000" d="M90.4267,-215.7322C95.9408,-197.3051 101.9836,-168.1985 95,-144 92.2478,-134.4635 87.2576,-124.9881 81.933,-116.6989"/>
<polygon fill="#000000" stroke="#000000" points="84.6595,-114.4863 76.114,-108.2232 78.8886,-118.4483 84.6595,-114.4863"/>
<g id="a_edge8&#45;headlabel"><a xlink:href="dir_000004_000001.html" target="_top" xlink:title="4">
<text text-anchor="middle" x="89.0347" y="-113.3427" font-family="Helvetica,sans-Serif" font-size="10.00" fill="#000000">4</text>
</a>
</g>
</g>
<!-- dir_1ed026dd4a6b3990a24ff2e0510f1e28 -->
<g id="node5" class="node">
<title>dir_1ed026dd4a6b3990a24ff2e0510f1e28</title>
<g id="a_node5"><a xlink:href="dir_1ed026dd4a6b3990a24ff2e0510f1e28.html" target="_top" xlink:title="utils">
<polygon fill="none" stroke="#000000" points="126,-36 72,-36 72,0 126,0 126,-36"/>
<text text-anchor="middle" x="99" y="-15.5" font-family="Helvetica,sans-Serif" font-size="10.00" fill="#000000">utils</text>
</a>
</g>
</g>
<!-- dir_e0244ac7ebefc16cab8ba03c1831bb2c&#45;&gt;dir_1ed026dd4a6b3990a24ff2e0510f1e28 -->
<g id="edge9" class="edge">
<title>dir_e0244ac7ebefc16cab8ba03c1831bb2c&#45;&gt;dir_1ed026dd4a6b3990a24ff2e0510f1e28</title>
<path fill="none" stroke="#000000" d="M95.7508,-215.8241C101.5858,-205.7142 108.0139,-192.6495 111,-180 121.8749,-133.933 113.3326,-78.6385 106.1589,-46.0165"/>
<polygon fill="#000000" stroke="#000000" points="109.5665,-45.2169 103.9043,-36.262 102.7463,-46.7933 109.5665,-45.2169"/>
<g id="a_edge9&#45;headlabel"><a xlink:href="dir_000004_000007.html" target="_top" xlink:title="3">
<text text-anchor="middle" x="113.1423" y="-45.5798" font-family="Helvetica,sans-Serif" font-size="10.00" fill="#000000">3</text>
</a>
</g>
</g>
<!-- dir_fca7cdd19784fbd943eb50b086bcba79&#45;&gt;dir_99e275c152145741e4b8bbe1e7e65f5d -->
<g id="edge1" class="edge">
<title>dir_fca7cdd19784fbd943eb50b086bcba79&#45;&gt;dir_99e275c152145741e4b8bbe1e7e65f5d</title>
<path fill="none" stroke="#000000" d="M49.814,-143.8314C49.8122,-136.131 50.4816,-126.9743 51.6222,-118.4166"/>
<polygon fill="#000000" stroke="#000000" points="55.0986,-118.8427 53.2338,-108.4133 48.1877,-117.7292 55.0986,-118.8427"/>
<g id="a_edge1&#45;headlabel"><a xlink:href="dir_000002_000001.html" target="_top" xlink:title="5">
<text text-anchor="middle" x="57.3301" y="-120.3431" font-family="Helvetica,sans-Serif" font-size="10.00" fill="#000000">5</text>
</a>
</g>
</g>
<!-- dir_788695b667a2248eec3656daa7404354&#45;&gt;dir_99e275c152145741e4b8bbe1e7e65f5d -->
<g id="edge2" class="edge">
<title>dir_788695b667a2248eec3656daa7404354&#45;&gt;dir_99e275c152145741e4b8bbe1e7e65f5d</title>
<path fill="none" stroke="#000000" d="M41.6712,-36.4133C46.1576,-44.3141 50.7985,-53.7132 54.5579,-62.417"/>
<polygon fill="#000000" stroke="#000000" points="51.3734,-63.8778 58.3728,-71.8314 57.861,-61.2489 51.3734,-63.8778"/>
<g id="a_edge2&#45;headlabel"><a xlink:href="dir_000006_000001.html" target="_top" xlink:title="1">
<text text-anchor="middle" x="47.3921" y="-59.1125" font-family="Helvetica,sans-Serif" font-size="10.00" fill="#000000">1</text>
</a>
</g>
</g>
<!-- dir_99e275c152145741e4b8bbe1e7e65f5d&#45;&gt;dir_fca7cdd19784fbd943eb50b086bcba79 -->
<g id="edge3" class="edge">
<title>dir_99e275c152145741e4b8bbe1e7e65f5d&#45;&gt;dir_fca7cdd19784fbd943eb50b086bcba79</title>
<path fill="none" stroke="#000000" d="M65.1858,-108.4133C65.1734,-116.1442 64.4921,-125.3097 63.3415,-133.8545"/>
<polygon fill="#000000" stroke="#000000" points="59.8696,-133.3992 61.7188,-143.8314 66.7788,-134.523 59.8696,-133.3992"/>
<g id="a_edge3&#45;headlabel"><a xlink:href="dir_000001_000002.html" target="_top" xlink:title="2">
<text text-anchor="middle" x="57.6442" y="-126.8954" font-family="Helvetica,sans-Serif" font-size="10.00" fill="#000000">2</text>
</a>
</g>
</g>
<!-- dir_99e275c152145741e4b8bbe1e7e65f5d&#45;&gt;dir_788695b667a2248eec3656daa7404354 -->
<g id="edge4" class="edge">
<title>dir_99e275c152145741e4b8bbe1e7e65f5d&#45;&gt;dir_788695b667a2248eec3656daa7404354</title>
<path fill="none" stroke="#000000" d="M46.468,-71.8314C41.9848,-63.9617 37.3365,-54.5712 33.559,-45.8533"/>
<polygon fill="#000000" stroke="#000000" points="36.7291,-44.3575 29.7191,-36.4133 30.245,-46.9951 36.7291,-44.3575"/>
<g id="a_edge4&#45;headlabel"><a xlink:href="dir_000001_000006.html" target="_top" xlink:title="2">
<text text-anchor="middle" x="40.7134" y="-44.1175" font-family="Helvetica,sans-Serif" font-size="10.00" fill="#000000">2</text>
</a>
</g>
</g>
<!-- dir_99e275c152145741e4b8bbe1e7e65f5d&#45;&gt;dir_1ed026dd4a6b3990a24ff2e0510f1e28 -->
<g id="edge5" class="edge">
<title>dir_99e275c152145741e4b8bbe1e7e65f5d&#45;&gt;dir_1ed026dd4a6b3990a24ff2e0510f1e28</title>
<path fill="none" stroke="#000000" d="M64.6366,-71.8314C68.1324,-63.7079 73.0727,-53.9637 78.1844,-45.0118"/>
<polygon fill="#000000" stroke="#000000" points="81.1955,-46.7958 83.3059,-36.4133 75.1815,-43.2137 81.1955,-46.7958"/>
<g id="a_edge5&#45;headlabel"><a xlink:href="dir_000001_000007.html" target="_top" xlink:title="1">
<text text-anchor="middle" x="81.7954" y="-48.837" font-family="Helvetica,sans-Serif" font-size="10.00" fill="#000000">1</text>
</a>
</g>
</g>
<!-- dir_1ed026dd4a6b3990a24ff2e0510f1e28&#45;&gt;dir_99e275c152145741e4b8bbe1e7e65f5d -->
<g id="edge10" class="edge">
<title>dir_1ed026dd4a6b3990a24ff2e0510f1e28&#45;&gt;dir_99e275c152145741e4b8bbe1e7e65f5d</title>
<path fill="none" stroke="#000000" d="M95.2579,-36.4133C91.77,-44.484 86.88,-54.1182 81.8218,-62.9775"/>
<polygon fill="#000000" stroke="#000000" points="78.6576,-61.45 76.5414,-71.8314 84.6696,-65.0355 78.6576,-61.45"/>
<g id="a_edge10&#45;headlabel"><a xlink:href="dir_000007_000001.html" target="_top" xlink:title="3">
<text text-anchor="middle" x="78.0602" y="-54.4085" font-family="Helvetica,sans-Serif" font-size="10.00" fill="#000000">3</text>
</a>
</g>
</g>
</g>
</svg>
