<?xml version="1.0" encoding="UTF-8" standalone="no"?>
<!DOCTYPE svg PUBLIC "-//W3C//DTD SVG 1.1//EN"
 "http://www.w3.org/Graphics/SVG/1.1/DTD/svg11.dtd">
<!-- Generated by graphviz version 2.40.1 (20161225.0304)
 -->
<!-- Title: ViennaRNA/plotting Pages: 1 -->
<svg width="125pt" height="223pt"
 viewBox="0.00 0.00 124.50 223.00" xmlns="http://www.w3.org/2000/svg" xmlns:xlink="http://www.w3.org/1999/xlink">
<g id="graph0" class="graph" transform="scale(1 1) rotate(0) translate(4 219)">
<title>ViennaRNA/plotting</title>
<g id="clust1" class="cluster">
<title>clusterdir_b65dce601f6c2aa1a9f53e1dbd97d018</title>
<g id="a_clust1"><a xlink:href="dir_b65dce601f6c2aa1a9f53e1dbd97d018.html" target="_top" xlink:title="ViennaRNA">
<polygon fill="#ddddee" stroke="#000000" points="38.5,-136 38.5,-207 108.5,-207 108.5,-136 38.5,-136"/>
<text text-anchor="middle" x="73.5" y="-195" font-family="Helvetica,sans-Serif" font-size="10.00" fill="#000000">ViennaRNA</text>
</a>
</g>
</g>
<!-- dir_d24edb0250b189e2f0cf5729e296356a -->
<g id="node1" class="node">
<title>dir_d24edb0250b189e2f0cf5729e296356a</title>
<g id="a_node1"><a xlink:href="dir_d24edb0250b189e2f0cf5729e296356a.html" target="_top" xlink:title="plotting">
<polygon fill="#eeeeff" stroke="#000000" points="100.5,-180 46.5,-180 46.5,-144 100.5,-144 100.5,-180"/>
<text text-anchor="middle" x="73.5" y="-159.5" font-family="Helvetica,sans-Serif" font-size="10.00" fill="#000000">plotting</text>
</a>
</g>
</g>
<!-- dir_99e275c152145741e4b8bbe1e7e65f5d -->
<g id="node2" class="node">
<title>dir_99e275c152145741e4b8bbe1e7e65f5d</title>
<g id="a_node2"><a xlink:href="dir_99e275c152145741e4b8bbe1e7e65f5d.html" target="_top" xlink:title="datastructures">
<polygon fill="none" stroke="#000000" points="79,-108 0,-108 0,-72 79,-72 79,-108"/>
<text text-anchor="middle" x="39.5" y="-87.5" font-family="Helvetica,sans-Serif" font-size="10.00" fill="#000000">datastructures</text>
</a>
</g>
</g>
<!-- dir_d24edb0250b189e2f0cf5729e296356a&#45;&gt;dir_99e275c152145741e4b8bbe1e7e65f5d -->
<g id="edge3" class="edge">
<title>dir_d24edb0250b189e2f0cf5729e296356a&#45;&gt;dir_99e275c152145741e4b8bbe1e7e65f5d</title>
<path fill="none" stroke="#000000" d="M64.9204,-143.8314C61.1642,-135.8771 56.6743,-126.369 52.5202,-117.5723"/>
<polygon fill="#000000" stroke="#000000" points="55.6301,-115.9612 48.1952,-108.4133 49.3004,-118.9503 55.6301,-115.9612"/>
<g id="a_edge3&#45;headlabel"><a xlink:href="dir_000005_000001.html" target="_top" xlink:title="2">
<text text-anchor="middle" x="59.7324" y="-115.4993" font-family="Helvetica,sans-Serif" font-size="10.00" fill="#000000">2</text>
</a>
</g>
</g>
<!-- dir_1ed026dd4a6b3990a24ff2e0510f1e28 -->
<g id="node3" class="node">
<title>dir_1ed026dd4a6b3990a24ff2e0510f1e28</title>
<g id="a_node3"><a xlink:href="dir_1ed026dd4a6b3990a24ff2e0510f1e28.html" target="_top" xlink:title="utils">
<polygon fill="none" stroke="#000000" points="66.5,-36 12.5,-36 12.5,0 66.5,0 66.5,-36"/>
<text text-anchor="middle" x="39.5" y="-15.5" font-family="Helvetica,sans-Serif" font-size="10.00" fill="#000000">utils</text>
</a>
</g>
</g>
<!-- dir_d24edb0250b189e2f0cf5729e296356a&#45;&gt;dir_1ed026dd4a6b3990a24ff2e0510f1e28 -->
<g id="edge4" class="edge">
<title>dir_d24edb0250b189e2f0cf5729e296356a&#45;&gt;dir_1ed026dd4a6b3990a24ff2e0510f1e28</title>
<path fill="none" stroke="#000000" d="M81.9587,-143.8459C89.3845,-125.255 97.6854,-95.7917 88.5,-72 84.3808,-61.3306 77.0664,-51.4665 69.3251,-43.1681"/>
<polygon fill="#000000" stroke="#000000" points="71.7181,-40.6113 62.175,-36.0091 66.7652,-45.558 71.7181,-40.6113"/>
<g id="a_edge4&#45;headlabel"><a xlink:href="dir_000005_000007.html" target="_top" xlink:title="1">
<text text-anchor="middle" x="76.2672" y="-38.6483" font-family="Helvetica,sans-Serif" font-size="10.00" fill="#000000">1</text>
</a>
</g>
</g>
<!-- dir_99e275c152145741e4b8bbe1e7e65f5d&#45;&gt;dir_1ed026dd4a6b3990a24ff2e0510f1e28 -->
<g id="edge1" class="edge">
<title>dir_99e275c152145741e4b8bbe1e7e65f5d&#45;&gt;dir_1ed026dd4a6b3990a24ff2e0510f1e28</title>
<path fill="none" stroke="#000000" d="M33.5476,-71.8314C32.7972,-64.131 32.5763,-54.9743 32.8849,-46.4166"/>
<polygon fill="#000000" stroke="#000000" points="36.3792,-46.6161 33.524,-36.4133 29.3935,-46.1697 36.3792,-46.6161"/>
<g id="a_edge1&#45;headlabel"><a xlink:href="dir_000001_000007.html" target="_top" xlink:title="1">
<text text-anchor="middle" x="38.9836" y="-47.8844" font-family="Helvetica,sans-Serif" font-size="10.00" fill="#000000">1</text>
</a>
</g>
</g>
<!-- dir_1ed026dd4a6b3990a24ff2e0510f1e28&#45;&gt;dir_99e275c152145741e4b8bbe1e7e65f5d -->
<g id="edge2" class="edge">
<title>dir_1ed026dd4a6b3990a24ff2e0510f1e28&#45;&gt;dir_99e275c152145741e4b8bbe1e7e65f5d</title>
<path fill="none" stroke="#000000" d="M45.476,-36.4133C46.2071,-44.0593 46.4203,-53.1084 46.1155,-61.5726"/>
<polygon fill="#000000" stroke="#000000" points="42.6048,-61.6264 45.4524,-71.8314 49.5902,-62.078 42.6048,-61.6264"/>
<g id="a_edge2&#45;headlabel"><a xlink:href="dir_000007_000001.html" target="_top" xlink:title="3">
<text text-anchor="middle" x="40.0032" y="-55.3562" font-family="Helvetica,sans-Serif" font-size="10.00" fill="#000000">3</text>
</a>
</g>
</g>
</g>
</svg>
