<?xml version="1.0" encoding="UTF-8" standalone="no"?>
<!DOCTYPE svg PUBLIC "-//W3C//DTD SVG 1.1//EN"
 "http://www.w3.org/Graphics/SVG/1.1/DTD/svg11.dtd">
<!-- Generated by graphviz version 2.40.1 (20161225.0304)
 -->
<!-- Title: ViennaRNA Pages: 1 -->
<svg width="250pt" height="292pt"
 viewBox="0.00 0.00 250.00 292.00" xmlns="http://www.w3.org/2000/svg" xmlns:xlink="http://www.w3.org/1999/xlink">
<g id="graph0" class="graph" transform="scale(1 1) rotate(0) translate(4 288)">
<title>ViennaRNA</title>
<g id="clust1" class="cluster">
<title>clusterdir_b65dce601f6c2aa1a9f53e1dbd97d018</title>
<g id="a_clust1"><a xlink:href="dir_b65dce601f6c2aa1a9f53e1dbd97d018.html" target="_top">
<polygon fill="#eeeeff" stroke="#000000" points="8,-8 8,-276 234,-276 234,-8 8,-8"/>
</a>
</g>
</g>
<!-- dir_b65dce601f6c2aa1a9f53e1dbd97d018 -->
<g id="node1" class="node">
<title>dir_b65dce601f6c2aa1a9f53e1dbd97d018</title>
<text text-anchor="middle" x="127" y="-247.5" font-family="Helvetica,sans-Serif" font-size="10.00" fill="#000000">ViennaRNA</text>
</g>
<!-- dir_1b72173c60d46e2c13825429ad9f87ab -->
<g id="node4" class="node">
<title>dir_1b72173c60d46e2c13825429ad9f87ab</title>
<g id="a_node4"><a xlink:href="dir_1b72173c60d46e2c13825429ad9f87ab.html" target="_top" xlink:title="io">
<polygon fill="#ffffff" stroke="#000000" points="154,-196 100,-196 100,-160 154,-160 154,-196"/>
<text text-anchor="middle" x="127" y="-175.5" font-family="Helvetica,sans-Serif" font-size="10.00" fill="#000000">io</text>
</a>
</g>
</g>
<!-- dir_b65dce601f6c2aa1a9f53e1dbd97d018&#45;&gt;dir_1b72173c60d46e2c13825429ad9f87ab -->
<g id="edge15" class="edge">
<title>dir_b65dce601f6c2aa1a9f53e1dbd97d018&#45;&gt;dir_1b72173c60d46e2c13825429ad9f87ab</title>
<path fill="none" stroke="#000000" d="M127,-231.8314C127,-224.131 127,-214.9743 127,-206.4166"/>
<polygon fill="#000000" stroke="#000000" points="130.5001,-206.4132 127,-196.4133 123.5001,-206.4133 130.5001,-206.4132"/>
<g id="a_edge15&#45;headlabel"><a xlink:href="dir_000000_000003.html" target="_top" xlink:title="5">
<text text-anchor="middle" x="133.3393" y="-207.5079" font-family="Helvetica,sans-Serif" font-size="10.00" fill="#000000">5</text>
</a>
</g>
</g>
<!-- dir_e0244ac7ebefc16cab8ba03c1831bb2c -->
<g id="node5" class="node">
<title>dir_e0244ac7ebefc16cab8ba03c1831bb2c</title>
<g id="a_node5"><a xlink:href="dir_e0244ac7ebefc16cab8ba03c1831bb2c.html" target="_top" xlink:title="loops">
<polygon fill="#ffffff" stroke="#000000" points="82,-196 28,-196 28,-160 82,-160 82,-196"/>
<text text-anchor="middle" x="55" y="-175.5" font-family="Helvetica,sans-Serif" font-size="10.00" fill="#000000">loops</text>
</a>
</g>
</g>
<!-- dir_b65dce601f6c2aa1a9f53e1dbd97d018&#45;&gt;dir_e0244ac7ebefc16cab8ba03c1831bb2c -->
<g id="edge13" class="edge">
<title>dir_b65dce601f6c2aa1a9f53e1dbd97d018&#45;&gt;dir_e0244ac7ebefc16cab8ba03c1831bb2c</title>
<path fill="none" stroke="#000000" d="M108.8314,-231.8314C100.2848,-223.2848 89.9443,-212.9443 80.6198,-203.6198"/>
<polygon fill="#000000" stroke="#000000" points="82.9592,-201.0095 73.4133,-196.4133 78.0095,-205.9592 82.9592,-201.0095"/>
<g id="a_edge13&#45;headlabel"><a xlink:href="dir_000000_000004.html" target="_top" xlink:title="5">
<text text-anchor="middle" x="87.5087" y="-199.0436" font-family="Helvetica,sans-Serif" font-size="10.00" fill="#000000">5</text>
</a>
</g>
</g>
<!-- dir_d24edb0250b189e2f0cf5729e296356a -->
<g id="node7" class="node">
<title>dir_d24edb0250b189e2f0cf5729e296356a</title>
<g id="a_node7"><a xlink:href="dir_d24edb0250b189e2f0cf5729e296356a.html" target="_top" xlink:title="plotting">
<polygon fill="#ffffff" stroke="#000000" points="226,-196 172,-196 172,-160 226,-160 226,-196"/>
<text text-anchor="middle" x="199" y="-175.5" font-family="Helvetica,sans-Serif" font-size="10.00" fill="#000000">plotting</text>
</a>
</g>
</g>
<!-- dir_b65dce601f6c2aa1a9f53e1dbd97d018&#45;&gt;dir_d24edb0250b189e2f0cf5729e296356a -->
<g id="edge14" class="edge">
<title>dir_b65dce601f6c2aa1a9f53e1dbd97d018&#45;&gt;dir_d24edb0250b189e2f0cf5729e296356a</title>
<path fill="none" stroke="#000000" d="M145.1686,-231.8314C153.7152,-223.2848 164.0557,-212.9443 173.3802,-203.6198"/>
<polygon fill="#000000" stroke="#000000" points="175.9905,-205.9592 180.5867,-196.4133 171.0408,-201.0095 175.9905,-205.9592"/>
<g id="a_edge14&#45;headlabel"><a xlink:href="dir_000000_000005.html" target="_top" xlink:title="8">
<text text-anchor="middle" x="175.4564" y="-208.0087" font-family="Helvetica,sans-Serif" font-size="10.00" fill="#000000">8</text>
</a>
</g>
</g>
<!-- dir_fca7cdd19784fbd943eb50b086bcba79 -->
<g id="node2" class="node">
<title>dir_fca7cdd19784fbd943eb50b086bcba79</title>
<g id="a_node2"><a xlink:href="dir_fca7cdd19784fbd943eb50b086bcba79.html" target="_top" xlink:title="constraints">
<polygon fill="#ffffff" stroke="#000000" points="81.5,-52 16.5,-52 16.5,-16 81.5,-16 81.5,-52"/>
<text text-anchor="middle" x="49" y="-31.5" font-family="Helvetica,sans-Serif" font-size="10.00" fill="#000000">constraints</text>
</a>
</g>
</g>
<!-- dir_99e275c152145741e4b8bbe1e7e65f5d -->
<g id="node3" class="node">
<title>dir_99e275c152145741e4b8bbe1e7e65f5d</title>
<g id="a_node3"><a xlink:href="dir_99e275c152145741e4b8bbe1e7e65f5d.html" target="_top" xlink:title="datastructures">
<polygon fill="#ffffff" stroke="#000000" points="166.5,-124 87.5,-124 87.5,-88 166.5,-88 166.5,-124"/>
<text text-anchor="middle" x="127" y="-103.5" font-family="Helvetica,sans-Serif" font-size="10.00" fill="#000000">datastructures</text>
</a>
</g>
</g>
<!-- dir_fca7cdd19784fbd943eb50b086bcba79&#45;&gt;dir_99e275c152145741e4b8bbe1e7e65f5d -->
<g id="edge1" class="edge">
<title>dir_fca7cdd19784fbd943eb50b086bcba79&#45;&gt;dir_99e275c152145741e4b8bbe1e7e65f5d</title>
<path fill="none" stroke="#000000" d="M74.6282,-52.1628C84.797,-60.7744 96.2774,-71.2081 105.9547,-80.5888"/>
<polygon fill="#000000" stroke="#000000" points="103.701,-83.2827 113.2697,-87.8314 108.626,-78.3084 103.701,-83.2827"/>
<g id="a_edge1&#45;headlabel"><a xlink:href="dir_000002_000001.html" target="_top" xlink:title="5">
<text text-anchor="middle" x="99.149" y="-80.2713" font-family="Helvetica,sans-Serif" font-size="10.00" fill="#000000">5</text>
</a>
</g>
</g>
<!-- dir_99e275c152145741e4b8bbe1e7e65f5d&#45;&gt;dir_fca7cdd19784fbd943eb50b086bcba79 -->
<g id="edge3" class="edge">
<title>dir_99e275c152145741e4b8bbe1e7e65f5d&#45;&gt;dir_fca7cdd19784fbd943eb50b086bcba79</title>
<path fill="none" stroke="#000000" d="M101.3649,-87.8314C91.2732,-79.2848 79.8905,-68.9443 70.2607,-59.6198"/>
<polygon fill="#000000" stroke="#000000" points="72.5436,-56.9551 62.9717,-52.4133 67.6221,-61.933 72.5436,-56.9551"/>
<g id="a_edge3&#45;headlabel"><a xlink:href="dir_000001_000002.html" target="_top" xlink:title="2">
<text text-anchor="middle" x="77.096" y="-54.9634" font-family="Helvetica,sans-Serif" font-size="10.00" fill="#000000">2</text>
</a>
</g>
</g>
<!-- dir_788695b667a2248eec3656daa7404354 -->
<g id="node6" class="node">
<title>dir_788695b667a2248eec3656daa7404354</title>
<g id="a_node6"><a xlink:href="dir_788695b667a2248eec3656daa7404354.html" target="_top" xlink:title="params">
<polygon fill="#ffffff" stroke="#000000" points="154,-52 100,-52 100,-16 154,-16 154,-52"/>
<text text-anchor="middle" x="127" y="-31.5" font-family="Helvetica,sans-Serif" font-size="10.00" fill="#000000">params</text>
</a>
</g>
</g>
<!-- dir_99e275c152145741e4b8bbe1e7e65f5d&#45;&gt;dir_788695b667a2248eec3656daa7404354 -->
<g id="edge4" class="edge">
<title>dir_99e275c152145741e4b8bbe1e7e65f5d&#45;&gt;dir_788695b667a2248eec3656daa7404354</title>
<path fill="none" stroke="#000000" d="M121.0476,-87.8314C120.2972,-80.131 120.0763,-70.9743 120.3849,-62.4166"/>
<polygon fill="#000000" stroke="#000000" points="123.8792,-62.6161 121.024,-52.4133 116.8935,-62.1697 123.8792,-62.6161"/>
<g id="a_edge4&#45;headlabel"><a xlink:href="dir_000001_000006.html" target="_top" xlink:title="2">
<text text-anchor="middle" x="126.4836" y="-63.8844" font-family="Helvetica,sans-Serif" font-size="10.00" fill="#000000">2</text>
</a>
</g>
</g>
<!-- dir_1ed026dd4a6b3990a24ff2e0510f1e28 -->
<g id="node9" class="node">
<title>dir_1ed026dd4a6b3990a24ff2e0510f1e28</title>
<g id="a_node9"><a xlink:href="dir_1ed026dd4a6b3990a24ff2e0510f1e28.html" target="_top" xlink:title="utils">
<polygon fill="#ffffff" stroke="#000000" points="226,-52 172,-52 172,-16 226,-16 226,-52"/>
<text text-anchor="middle" x="199" y="-31.5" font-family="Helvetica,sans-Serif" font-size="10.00" fill="#000000">utils</text>
</a>
</g>
</g>
<!-- dir_99e275c152145741e4b8bbe1e7e65f5d&#45;&gt;dir_1ed026dd4a6b3990a24ff2e0510f1e28 -->
<g id="edge5" class="edge">
<title>dir_99e275c152145741e4b8bbe1e7e65f5d&#45;&gt;dir_1ed026dd4a6b3990a24ff2e0510f1e28</title>
<path fill="none" stroke="#000000" d="M139.2162,-87.8314C147.0663,-79.1337 157.4496,-68.5783 167.4049,-59.1265"/>
<polygon fill="#000000" stroke="#000000" points="169.9508,-61.5384 174.8853,-52.1628 165.1812,-56.4148 169.9508,-61.5384"/>
<g id="a_edge5&#45;headlabel"><a xlink:href="dir_000001_000007.html" target="_top" xlink:title="1">
<text text-anchor="middle" x="169.2544" y="-63.5658" font-family="Helvetica,sans-Serif" font-size="10.00" fill="#000000">1</text>
</a>
</g>
</g>
<!-- dir_1b72173c60d46e2c13825429ad9f87ab&#45;&gt;dir_99e275c152145741e4b8bbe1e7e65f5d -->
<g id="edge16" class="edge">
<title>dir_1b72173c60d46e2c13825429ad9f87ab&#45;&gt;dir_99e275c152145741e4b8bbe1e7e65f5d</title>
<path fill="none" stroke="#000000" d="M127,-159.8314C127,-152.131 127,-142.9743 127,-134.4166"/>
<polygon fill="#000000" stroke="#000000" points="130.5001,-134.4132 127,-124.4133 123.5001,-134.4133 130.5001,-134.4132"/>
<g id="a_edge16&#45;headlabel"><a xlink:href="dir_000003_000001.html" target="_top" xlink:title="1">
<text text-anchor="middle" x="133.3393" y="-135.5079" font-family="Helvetica,sans-Serif" font-size="10.00" fill="#000000">1</text>
</a>
</g>
</g>
<!-- dir_e0244ac7ebefc16cab8ba03c1831bb2c&#45;&gt;dir_fca7cdd19784fbd943eb50b086bcba79 -->
<g id="edge6" class="edge">
<title>dir_e0244ac7ebefc16cab8ba03c1831bb2c&#45;&gt;dir_fca7cdd19784fbd943eb50b086bcba79</title>
<path fill="none" stroke="#000000" d="M54.2401,-159.7623C53.2167,-135.201 51.3853,-91.2474 50.1814,-62.3541"/>
<polygon fill="#000000" stroke="#000000" points="53.6671,-61.9352 49.7537,-52.0896 46.6732,-62.2267 53.6671,-61.9352"/>
<g id="a_edge6&#45;headlabel"><a xlink:href="dir_000004_000002.html" target="_top" xlink:title="2">
<text text-anchor="middle" x="56.6535" y="-62.9085" font-family="Helvetica,sans-Serif" font-size="10.00" fill="#000000">2</text>
</a>
</g>
</g>
<!-- dir_e0244ac7ebefc16cab8ba03c1831bb2c&#45;&gt;dir_99e275c152145741e4b8bbe1e7e65f5d -->
<g id="edge8" class="edge">
<title>dir_e0244ac7ebefc16cab8ba03c1831bb2c&#45;&gt;dir_99e275c152145741e4b8bbe1e7e65f5d</title>
<path fill="none" stroke="#000000" d="M73.1686,-159.8314C81.7152,-151.2848 92.0557,-140.9443 101.3802,-131.6198"/>
<polygon fill="#000000" stroke="#000000" points="103.9905,-133.9592 108.5867,-124.4133 99.0408,-129.0095 103.9905,-133.9592"/>
<g id="a_edge8&#45;headlabel"><a xlink:href="dir_000004_000001.html" target="_top" xlink:title="4">
<text text-anchor="middle" x="103.4564" y="-136.0087" font-family="Helvetica,sans-Serif" font-size="10.00" fill="#000000">4</text>
</a>
</g>
</g>
<!-- dir_e0244ac7ebefc16cab8ba03c1831bb2c&#45;&gt;dir_788695b667a2248eec3656daa7404354 -->
<g id="edge7" class="edge">
<title>dir_e0244ac7ebefc16cab8ba03c1831bb2c&#45;&gt;dir_788695b667a2248eec3656daa7404354</title>
<path fill="none" stroke="#000000" d="M57.0194,-159.8143C59.7001,-140.9372 65.6228,-111.0081 78,-88 83.5101,-77.7573 91.3764,-67.9113 99.1979,-59.4966"/>
<polygon fill="#000000" stroke="#000000" points="101.8325,-61.8079 106.2996,-52.2009 96.8164,-56.9254 101.8325,-61.8079"/>
<g id="a_edge7&#45;headlabel"><a xlink:href="dir_000004_000006.html" target="_top" xlink:title="4">
<text text-anchor="middle" x="101.3598" y="-63.8641" font-family="Helvetica,sans-Serif" font-size="10.00" fill="#000000">4</text>
</a>
</g>
</g>
<!-- dir_e0244ac7ebefc16cab8ba03c1831bb2c&#45;&gt;dir_1ed026dd4a6b3990a24ff2e0510f1e28 -->
<g id="edge9" class="edge">
<title>dir_e0244ac7ebefc16cab8ba03c1831bb2c&#45;&gt;dir_1ed026dd4a6b3990a24ff2e0510f1e28</title>
<path fill="none" stroke="#000000" d="M82.0382,-164.2523C85.0489,-162.7898 88.0811,-161.3462 91,-160 128.2549,-142.8177 149.2519,-155.1078 176,-124 190.7269,-106.8728 196.2238,-81.5463 198.1823,-62.1193"/>
<polygon fill="#000000" stroke="#000000" points="201.6817,-62.2576 198.9424,-52.023 194.7015,-61.732 201.6817,-62.2576"/>
<g id="a_edge9&#45;headlabel"><a xlink:href="dir_000004_000007.html" target="_top" xlink:title="3">
<text text-anchor="middle" x="204.2432" y="-63.5552" font-family="Helvetica,sans-Serif" font-size="10.00" fill="#000000">3</text>
</a>
</g>
</g>
<!-- dir_788695b667a2248eec3656daa7404354&#45;&gt;dir_99e275c152145741e4b8bbe1e7e65f5d -->
<g id="edge2" class="edge">
<title>dir_788695b667a2248eec3656daa7404354&#45;&gt;dir_99e275c152145741e4b8bbe1e7e65f5d</title>
<path fill="none" stroke="#000000" d="M132.976,-52.4133C133.7071,-60.0593 133.9203,-69.1084 133.6155,-77.5726"/>
<polygon fill="#000000" stroke="#000000" points="130.1048,-77.6264 132.9524,-87.8314 137.0902,-78.078 130.1048,-77.6264"/>
<g id="a_edge2&#45;headlabel"><a xlink:href="dir_000006_000001.html" target="_top" xlink:title="1">
<text text-anchor="middle" x="127.5032" y="-71.3562" font-family="Helvetica,sans-Serif" font-size="10.00" fill="#000000">1</text>
</a>
</g>
</g>
<!-- dir_d24edb0250b189e2f0cf5729e296356a&#45;&gt;dir_99e275c152145741e4b8bbe1e7e65f5d -->
<g id="edge11" class="edge">
<title>dir_d24edb0250b189e2f0cf5729e296356a&#45;&gt;dir_99e275c152145741e4b8bbe1e7e65f5d</title>
<path fill="none" stroke="#000000" d="M180.8314,-159.8314C172.2848,-151.2848 161.9443,-140.9443 152.6198,-131.6198"/>
<polygon fill="#000000" stroke="#000000" points="154.9592,-129.0095 145.4133,-124.4133 150.0095,-133.9592 154.9592,-129.0095"/>
<g id="a_edge11&#45;headlabel"><a xlink:href="dir_000005_000001.html" target="_top" xlink:title="2">
<text text-anchor="middle" x="159.5087" y="-127.0436" font-family="Helvetica,sans-Serif" font-size="10.00" fill="#000000">2</text>
</a>
</g>
</g>
<!-- dir_d24edb0250b189e2f0cf5729e296356a&#45;&gt;dir_1ed026dd4a6b3990a24ff2e0510f1e28 -->
<g id="edge12" class="edge">
<title>dir_d24edb0250b189e2f0cf5729e296356a&#45;&gt;dir_1ed026dd4a6b3990a24ff2e0510f1e28</title>
<path fill="none" stroke="#000000" d="M199,-159.7623C199,-135.201 199,-91.2474 199,-62.3541"/>
<polygon fill="#000000" stroke="#000000" points="202.5001,-62.0896 199,-52.0896 195.5001,-62.0897 202.5001,-62.0896"/>
<g id="a_edge12&#45;headlabel"><a xlink:href="dir_000005_000007.html" target="_top" xlink:title="1">
<text text-anchor="middle" x="205.3393" y="-63.1842" font-family="Helvetica,sans-Serif" font-size="10.00" fill="#000000">1</text>
</a>
</g>
</g>
<!-- dir_856cfc6b1dfc1d665aea22b9048c064e -->
<g id="node8" class="node">
<title>dir_856cfc6b1dfc1d665aea22b9048c064e</title>
<g id="a_node8"><a xlink:href="dir_856cfc6b1dfc1d665aea22b9048c064e.html" target="_top" xlink:title="search">
<polygon fill="#ffffff" stroke="#000000" points="73,-268 19,-268 19,-232 73,-232 73,-268"/>
<text text-anchor="middle" x="46" y="-247.5" font-family="Helvetica,sans-Serif" font-size="10.00" fill="#000000">search</text>
</a>
</g>
</g>
<!-- dir_1ed026dd4a6b3990a24ff2e0510f1e28&#45;&gt;dir_99e275c152145741e4b8bbe1e7e65f5d -->
<g id="edge10" class="edge">
<title>dir_1ed026dd4a6b3990a24ff2e0510f1e28&#45;&gt;dir_99e275c152145741e4b8bbe1e7e65f5d</title>
<path fill="none" stroke="#000000" d="M186.5627,-52.4133C178.7259,-61.0787 168.4215,-71.5464 158.5436,-80.9223"/>
<polygon fill="#000000" stroke="#000000" points="156.0561,-78.4561 151.121,-87.8314 160.8255,-83.5799 156.0561,-78.4561"/>
<g id="a_edge10&#45;headlabel"><a xlink:href="dir_000007_000001.html" target="_top" xlink:title="3">
<text text-anchor="middle" x="156.7528" y="-71.4287" font-family="Helvetica,sans-Serif" font-size="10.00" fill="#000000">3</text>
</a>
</g>
</g>
</g>
</svg>
