<?xml version="1.0" encoding="UTF-8" standalone="no"?>
<!DOCTYPE svg PUBLIC "-//W3C//DTD SVG 1.1//EN"
 "http://www.w3.org/Graphics/SVG/1.1/DTD/svg11.dtd">
<!-- Generated by graphviz version 2.40.1 (20161225.0304)
 -->
<!-- Title: ViennaRNA/dist_vars.h Pages: 1 -->
<svg width="258pt" height="84pt"
 viewBox="0.00 0.00 257.50 84.00" xmlns="http://www.w3.org/2000/svg" xmlns:xlink="http://www.w3.org/1999/xlink">
<g id="graph0" class="graph" transform="scale(1 1) rotate(0) translate(4 80)">
<title>ViennaRNA/dist_vars.h</title>
<!-- Node1 -->
<g id="node1" class="node">
<title>Node1</title>
<polygon fill="#bfbfbf" stroke="#000000" points="67,-56.5 67,-75.5 186,-75.5 186,-56.5 67,-56.5"/>
<text text-anchor="middle" x="126.5" y="-63.5" font-family="Helvetica,sans-Serif" font-size="10.00" fill="#000000">ViennaRNA/dist_vars.h</text>
</g>
<!-- Node2 -->
<g id="node2" class="node">
<title>Node2</title>
<g id="a_node2"><a xlink:href="stringdist_8h.html" target="_top" xlink:title="Functions for String Alignment. ">
<polygon fill="none" stroke="#000000" points="0,-.5 0,-19.5 119,-19.5 119,-.5 0,-.5"/>
<text text-anchor="middle" x="59.5" y="-7.5" font-family="Helvetica,sans-Serif" font-size="10.00" fill="#000000">ViennaRNA/stringdist.h</text>
</a>
</g>
</g>
<!-- Node1&#45;&gt;Node2 -->
<g id="edge1" class="edge">
<title>Node1&#45;&gt;Node2</title>
<path fill="none" stroke="#191970" d="M106.9324,-49.645C95.2802,-39.9058 80.8916,-27.8795 71.0368,-19.6427"/>
<polygon fill="#191970" stroke="#191970" points="104.9121,-52.5179 114.8295,-56.2455 109.4012,-47.1469 104.9121,-52.5179"/>
</g>
<!-- Node3 -->
<g id="node3" class="node">
<title>Node3</title>
<g id="a_node3"><a xlink:href="treedist_8h.html" target="_top" xlink:title="Functions for Tree Edit Distances. ">
<polygon fill="none" stroke="#000000" points="137.5,-.5 137.5,-19.5 249.5,-19.5 249.5,-.5 137.5,-.5"/>
<text text-anchor="middle" x="193.5" y="-7.5" font-family="Helvetica,sans-Serif" font-size="10.00" fill="#000000">ViennaRNA/treedist.h</text>
</a>
</g>
</g>
<!-- Node1&#45;&gt;Node3 -->
<g id="edge2" class="edge">
<title>Node1&#45;&gt;Node3</title>
<path fill="none" stroke="#191970" d="M146.0676,-49.645C157.7198,-39.9058 172.1084,-27.8795 181.9632,-19.6427"/>
<polygon fill="#191970" stroke="#191970" points="143.5988,-47.1469 138.1705,-56.2455 148.0879,-52.5179 143.5988,-47.1469"/>
</g>
</g>
</svg>
