<?xml version="1.0" encoding="UTF-8" standalone="no"?>
<!DOCTYPE svg PUBLIC "-//W3C//DTD SVG 1.1//EN"
 "http://www.w3.org/Graphics/SVG/1.1/DTD/svg11.dtd">
<!-- Generated by graphviz version 2.40.1 (20161225.0304)
 -->
<!-- Title: ViennaRNA/dp_matrices.h Pages: 1 -->
<svg width="1256pt" height="341pt"
 viewBox="0.00 0.00 1256.00 341.00" xmlns="http://www.w3.org/2000/svg" xmlns:xlink="http://www.w3.org/1999/xlink">
<g id="graph0" class="graph" transform="scale(1 1) rotate(0) translate(4 337)">
<title>ViennaRNA/dp_matrices.h</title>
<!-- Node0 -->
<g id="node1" class="node">
<title>Node0</title>
<polygon fill="#bfbfbf" stroke="#000000" points="639.5,-313.5 639.5,-332.5 772.5,-332.5 772.5,-313.5 639.5,-313.5"/>
<text text-anchor="middle" x="706" y="-320.5" font-family="Helvetica,sans-Serif" font-size="10.00" fill="#000000">ViennaRNA/dp_matrices.h</text>
</g>
<!-- Node1 -->
<g id="node2" class="node">
<title>Node1</title>
<g id="a_node2"><a xlink:href="datastructures_2basic_8h.html" target="_top" xlink:title="Various data structures and pre&#45;processor macros. ">
<polygon fill="none" stroke="#000000" points="639,-246.5 639,-276.5 773,-276.5 773,-246.5 639,-246.5"/>
<text text-anchor="start" x="647" y="-264.5" font-family="Helvetica,sans-Serif" font-size="10.00" fill="#000000">ViennaRNA/datastructures</text>
<text text-anchor="middle" x="706" y="-253.5" font-family="Helvetica,sans-Serif" font-size="10.00" fill="#000000">/basic.h</text>
</a>
</g>
</g>
<!-- Node0&#45;&gt;Node1 -->
<g id="edge1" class="edge">
<title>Node0&#45;&gt;Node1</title>
<path fill="none" stroke="#191970" d="M700.9375,-313.3906C699.539,-306.2234 699.0098,-296.0862 699.3497,-286.671"/>
<polygon fill="#191970" stroke="#191970" points="702.8515,-286.7767 700.1029,-276.5446 695.8707,-286.2574 702.8515,-286.7767"/>
</g>
<!-- Node1&#45;&gt;Node0 -->
<g id="edge29" class="edge">
<title>Node1&#45;&gt;Node0</title>
<path fill="none" stroke="#191970" d="M711.8971,-276.5446C712.8593,-284.6241 713.0074,-294.681 712.3414,-303.3693"/>
<polygon fill="#191970" stroke="#191970" points="708.8567,-303.028 711.0625,-313.3906 715.8003,-303.9142 708.8567,-303.028"/>
</g>
<!-- Node2 -->
<g id="node3" class="node">
<title>Node2</title>
<g id="a_node3"><a xlink:href="constants_8h.html" target="_top" xlink:title="Energy parameter constants. ">
<polygon fill="none" stroke="#000000" points="0,-62 0,-81 158,-81 158,-62 0,-62"/>
<text text-anchor="middle" x="79" y="-69" font-family="Helvetica,sans-Serif" font-size="10.00" fill="#000000">ViennaRNA/params/constants.h</text>
</a>
</g>
</g>
<!-- Node1&#45;&gt;Node2 -->
<g id="edge2" class="edge">
<title>Node1&#45;&gt;Node2</title>
<path fill="none" stroke="#191970" d="M638.8006,-255.5392C478.813,-240.6545 85.8837,-199.7482 49,-154 33.5455,-134.8311 49.5465,-106.9983 63.4551,-89.072"/>
<polygon fill="#191970" stroke="#191970" points="66.3215,-91.0966 69.9678,-81.149 60.914,-86.6515 66.3215,-91.0966"/>
</g>
<!-- Node4 -->
<g id="node5" class="node">
<title>Node4</title>
<g id="a_node5"><a xlink:href="fold__compound_8h.html" target="_top" xlink:title="The Basic Fold Compound API. ">
<polygon fill="none" stroke="#000000" points="460,-190.5 460,-209.5 606,-209.5 606,-190.5 460,-190.5"/>
<text text-anchor="middle" x="533" y="-197.5" font-family="Helvetica,sans-Serif" font-size="10.00" fill="#000000">ViennaRNA/fold_compound.h</text>
</a>
</g>
</g>
<!-- Node1&#45;&gt;Node4 -->
<g id="edge4" class="edge">
<title>Node1&#45;&gt;Node4</title>
<path fill="none" stroke="#191970" d="M663.6794,-246.4554C634.8139,-236.194 596.9761,-222.7429 569.4484,-212.9571"/>
<polygon fill="#191970" stroke="#191970" points="570.4036,-209.5821 559.8089,-209.5303 568.0588,-216.1778 570.4036,-209.5821"/>
</g>
<!-- Node5 -->
<g id="node6" class="node">
<title>Node5</title>
<g id="a_node6"><a xlink:href="model_8h.html" target="_top" xlink:title="The model details data structure and its corresponding modifiers. ">
<polygon fill="none" stroke="#000000" points="447,-62 447,-81 553,-81 553,-62 447,-62"/>
<text text-anchor="middle" x="500" y="-69" font-family="Helvetica,sans-Serif" font-size="10.00" fill="#000000">ViennaRNA/model.h</text>
</a>
</g>
</g>
<!-- Node1&#45;&gt;Node5 -->
<g id="edge27" class="edge">
<title>Node1&#45;&gt;Node5</title>
<path fill="none" stroke="#191970" d="M704.4048,-246.2781C700.642,-218.0229 688.6589,-157.2332 653,-123 628.7502,-99.7197 593.6381,-86.9492 563.1653,-79.9506"/>
<polygon fill="#191970" stroke="#191970" points="563.5411,-76.4522 553.0313,-77.7916 562.0825,-83.2985 563.5411,-76.4522"/>
</g>
<!-- Node6 -->
<g id="node7" class="node">
<title>Node6</title>
<g id="a_node7"><a xlink:href="params_2basic_8h.html" target="_top" xlink:title="Functions to deal with sets of energy parameters. ">
<polygon fill="none" stroke="#000000" points="58,-129 58,-148 196,-148 196,-129 58,-129"/>
<text text-anchor="middle" x="127" y="-136" font-family="Helvetica,sans-Serif" font-size="10.00" fill="#000000">ViennaRNA/params/basic.h</text>
</a>
</g>
</g>
<!-- Node1&#45;&gt;Node6 -->
<g id="edge28" class="edge">
<title>Node1&#45;&gt;Node6</title>
<path fill="none" stroke="#191970" d="M638.7436,-253.4222C572.9769,-244.5195 470.469,-228.9225 383,-210 303.0438,-192.7028 211.1538,-166.4509 162.0059,-151.0329"/>
<polygon fill="#191970" stroke="#191970" points="163.0648,-147.697 152.4745,-148.007 160.9467,-154.3688 163.0648,-147.697"/>
</g>
<!-- Node8 -->
<g id="node9" class="node">
<title>Node8</title>
<g id="a_node9"><a xlink:href="hard_8h.html" target="_top" xlink:title="Functions and data structures for handling of secondary structure hard constraints. ">
<polygon fill="none" stroke="#000000" points="837.5,-123.5 837.5,-153.5 956.5,-153.5 956.5,-123.5 837.5,-123.5"/>
<text text-anchor="start" x="845.5" y="-141.5" font-family="Helvetica,sans-Serif" font-size="10.00" fill="#000000">ViennaRNA/constraints</text>
<text text-anchor="middle" x="897" y="-130.5" font-family="Helvetica,sans-Serif" font-size="10.00" fill="#000000">/hard.h</text>
</a>
</g>
</g>
<!-- Node1&#45;&gt;Node8 -->
<g id="edge30" class="edge">
<title>Node1&#45;&gt;Node8</title>
<path fill="none" stroke="#191970" d="M724.8061,-246.4178C756.3292,-224.411 819.7574,-183.4461 860.2991,-158.8078"/>
<polygon fill="#191970" stroke="#191970" points="862.3244,-161.6737 869.0812,-153.513 858.7101,-155.6789 862.3244,-161.6737"/>
</g>
<!-- Node10 -->
<g id="node11" class="node">
<title>Node10</title>
<g id="a_node11"><a xlink:href="soft_8h.html" target="_top" xlink:title="Functions and data structures for secondary structure soft constraints. ">
<polygon fill="none" stroke="#000000" points="700.5,-123.5 700.5,-153.5 819.5,-153.5 819.5,-123.5 700.5,-123.5"/>
<text text-anchor="start" x="708.5" y="-141.5" font-family="Helvetica,sans-Serif" font-size="10.00" fill="#000000">ViennaRNA/constraints</text>
<text text-anchor="middle" x="760" y="-130.5" font-family="Helvetica,sans-Serif" font-size="10.00" fill="#000000">/soft.h</text>
</a>
</g>
</g>
<!-- Node1&#45;&gt;Node10 -->
<g id="edge31" class="edge">
<title>Node1&#45;&gt;Node10</title>
<path fill="none" stroke="#191970" d="M708.0072,-246.4178C714.6765,-225.485 731.1076,-187.3994 743.9687,-162.5276"/>
<polygon fill="#191970" stroke="#191970" points="747.0578,-164.1731 748.6953,-153.7056 740.8876,-160.8673 747.0578,-164.1731"/>
</g>
<!-- Node11 -->
<g id="node12" class="node">
<title>Node11</title>
<g id="a_node12"><a xlink:href="grammar_8h.html" target="_top" xlink:title="Implementations for the RNA folding grammar. ">
<polygon fill="none" stroke="#000000" points="214,-129 214,-148 332,-148 332,-129 214,-129"/>
<text text-anchor="middle" x="273" y="-136" font-family="Helvetica,sans-Serif" font-size="10.00" fill="#000000">ViennaRNA/grammar.h</text>
</a>
</g>
</g>
<!-- Node1&#45;&gt;Node11 -->
<g id="edge32" class="edge">
<title>Node1&#45;&gt;Node11</title>
<path fill="none" stroke="#191970" d="M638.8535,-252.5628C584.8267,-244.0436 507.5552,-229.6067 442,-210 388.7964,-194.0875 329.3813,-168.5688 296.907,-152.7096"/>
<polygon fill="#191970" stroke="#191970" points="298.2397,-149.4628 287.7304,-148.1192 295.108,-155.7232 298.2397,-149.4628"/>
</g>
<!-- Node12 -->
<g id="node13" class="node">
<title>Node12</title>
<g id="a_node13"><a xlink:href="structured__domains_8h.html" target="_top" xlink:title="This module provides interfaces that deal with additional structured domains in the folding grammar...">
<polygon fill="none" stroke="#000000" points="528.5,-123.5 528.5,-153.5 643.5,-153.5 643.5,-123.5 528.5,-123.5"/>
<text text-anchor="start" x="536.5" y="-141.5" font-family="Helvetica,sans-Serif" font-size="10.00" fill="#000000">ViennaRNA/structured</text>
<text text-anchor="middle" x="586" y="-130.5" font-family="Helvetica,sans-Serif" font-size="10.00" fill="#000000">_domains.h</text>
</a>
</g>
</g>
<!-- Node1&#45;&gt;Node12 -->
<g id="edge33" class="edge">
<title>Node1&#45;&gt;Node12</title>
<path fill="none" stroke="#191970" d="M691.2856,-246.4178C670.4136,-225.0239 632.0618,-185.7133 607.8573,-160.9037"/>
<polygon fill="#191970" stroke="#191970" points="610.3232,-158.4193 600.8347,-153.7056 605.3127,-163.3076 610.3232,-158.4193"/>
</g>
<!-- Node13 -->
<g id="node14" class="node">
<title>Node13</title>
<g id="a_node14"><a xlink:href="unstructured__domains_8h.html" target="_top" xlink:title="Functions to modify unstructured domains, e.g. to incorporate ligands binding to unpaired stretches...">
<polygon fill="none" stroke="#000000" points="1013.5,-123.5 1013.5,-153.5 1138.5,-153.5 1138.5,-123.5 1013.5,-123.5"/>
<text text-anchor="start" x="1021.5" y="-141.5" font-family="Helvetica,sans-Serif" font-size="10.00" fill="#000000">ViennaRNA/unstructured</text>
<text text-anchor="middle" x="1076" y="-130.5" font-family="Helvetica,sans-Serif" font-size="10.00" fill="#000000">_domains.h</text>
</a>
</g>
</g>
<!-- Node1&#45;&gt;Node13 -->
<g id="edge34" class="edge">
<title>Node1&#45;&gt;Node13</title>
<path fill="none" stroke="#191970" d="M773.2981,-253.3402C844.8234,-244.3434 952.4781,-228.6456 990,-210 1013.4457,-198.3492 1034.8034,-177.2904 1050.6313,-161.0336"/>
<polygon fill="#191970" stroke="#191970" points="1053.489,-163.1145 1057.9421,-153.5009 1048.4659,-158.2393 1053.489,-163.1145"/>
</g>
<!-- Node14 -->
<g id="node15" class="node">
<title>Node14</title>
<g id="a_node15"><a xlink:href="utils_2structures_8h.html" target="_top" xlink:title="Various utility&#45; and helper&#45;functions for secondary structure parsing, converting, etc. ">
<polygon fill="none" stroke="#000000" points="1104,-62 1104,-81 1248,-81 1248,-62 1104,-62"/>
<text text-anchor="middle" x="1176" y="-69" font-family="Helvetica,sans-Serif" font-size="10.00" fill="#000000">ViennaRNA/utils/structures.h</text>
</a>
</g>
</g>
<!-- Node1&#45;&gt;Node14 -->
<g id="edge35" class="edge">
<title>Node1&#45;&gt;Node14</title>
<path fill="none" stroke="#191970" d="M773.225,-256.4898C839.1336,-250.3771 941.6622,-237.2636 1027,-210 1080.0135,-193.0633 1102.4216,-195.944 1139,-154 1154.633,-136.0739 1161.6254,-109.041 1166.7798,-90.8535"/>
<polygon fill="#191970" stroke="#191970" points="1170.1946,-91.6525 1169.7328,-81.0677 1163.493,-89.6302 1170.1946,-91.6525"/>
</g>
<!-- Node3 -->
<g id="node4" class="node">
<title>Node3</title>
<polygon fill="none" stroke="#bfbfbf" points="55,-.5 55,-19.5 103,-19.5 103,-.5 55,-.5"/>
<text text-anchor="middle" x="79" y="-7.5" font-family="Helvetica,sans-Serif" font-size="10.00" fill="#000000">limits.h</text>
</g>
<!-- Node2&#45;&gt;Node3 -->
<g id="edge3" class="edge">
<title>Node2&#45;&gt;Node3</title>
<path fill="none" stroke="#191970" d="M79,-61.8906C79,-53.3657 79,-40.6392 79,-29.9235"/>
<polygon fill="#191970" stroke="#191970" points="82.5001,-29.7448 79,-19.7449 75.5001,-29.7449 82.5001,-29.7448"/>
</g>
<!-- Node4&#45;&gt;Node0 -->
<g id="edge11" class="edge">
<title>Node4&#45;&gt;Node0</title>
<path fill="none" stroke="#191970" d="M544.2837,-209.7328C562.0093,-224.8415 597.6956,-254.5362 630,-277 646.1486,-288.2295 665.0689,-299.6865 679.9916,-308.3575"/>
<polygon fill="#191970" stroke="#191970" points="678.2925,-311.4179 688.706,-313.3695 681.7824,-305.3499 678.2925,-311.4179"/>
</g>
<!-- Node4&#45;&gt;Node5 -->
<g id="edge5" class="edge">
<title>Node4&#45;&gt;Node5</title>
<path fill="none" stroke="#191970" d="M530.103,-190.1588C527.3946,-180.8646 523.2861,-166.5223 520,-154 514.4075,-132.6886 508.5261,-108.1326 504.6005,-91.3896"/>
<polygon fill="#191970" stroke="#191970" points="507.9003,-90.1277 502.2228,-81.1825 501.0828,-91.7158 507.9003,-90.1277"/>
</g>
<!-- Node4&#45;&gt;Node6 -->
<g id="edge6" class="edge">
<title>Node4&#45;&gt;Node6</title>
<path fill="none" stroke="#191970" d="M459.8634,-190.9529C393.2707,-182.4282 292.3096,-168.785 205,-154 197.7938,-152.7797 190.2326,-151.4013 182.7712,-149.9823"/>
<polygon fill="#191970" stroke="#191970" points="183.1843,-146.4974 172.7014,-148.0333 181.8541,-153.3699 183.1843,-146.4974"/>
</g>
<!-- Node7 -->
<g id="node8" class="node">
<title>Node7</title>
<g id="a_node8"><a xlink:href="sequence_8h.html" target="_top" xlink:title="Functions and data structures related to sequence representations ,. ">
<polygon fill="none" stroke="#000000" points="350,-129 350,-148 472,-148 472,-129 350,-129"/>
<text text-anchor="middle" x="411" y="-136" font-family="Helvetica,sans-Serif" font-size="10.00" fill="#000000">ViennaRNA/sequence.h</text>
</a>
</g>
</g>
<!-- Node4&#45;&gt;Node7 -->
<g id="edge10" class="edge">
<title>Node4&#45;&gt;Node7</title>
<path fill="none" stroke="#191970" d="M513.9375,-190.3906C493.8828,-180.2811 462.1066,-164.2628 439.1616,-152.6962"/>
<polygon fill="#191970" stroke="#191970" points="440.4337,-149.418 429.9286,-148.0419 437.2827,-155.6687 440.4337,-149.418"/>
</g>
<!-- Node4&#45;&gt;Node8 -->
<g id="edge12" class="edge">
<title>Node4&#45;&gt;Node8</title>
<path fill="none" stroke="#191970" d="M603.2116,-190.4997C660.9892,-182.3583 745.2343,-169.7484 827.3446,-154.2501"/>
<polygon fill="#191970" stroke="#191970" points="828.1767,-157.6546 837.3456,-152.3459 826.8674,-150.7782 828.1767,-157.6546"/>
</g>
<!-- Node4&#45;&gt;Node10 -->
<g id="edge16" class="edge">
<title>Node4&#45;&gt;Node10</title>
<path fill="none" stroke="#191970" d="M568.4688,-190.3906C602.1773,-181.2581 653.6834,-167.3038 694.7965,-156.1653"/>
<polygon fill="#191970" stroke="#191970" points="695.7328,-159.5379 704.4696,-153.5446 693.9022,-152.7814 695.7328,-159.5379"/>
</g>
<!-- Node4&#45;&gt;Node11 -->
<g id="edge19" class="edge">
<title>Node4&#45;&gt;Node11</title>
<path fill="none" stroke="#191970" d="M492.6603,-190.4581C447.0232,-179.6632 372.643,-162.0694 323.266,-150.3899"/>
<polygon fill="#191970" stroke="#191970" points="323.9715,-146.9602 313.4344,-148.0643 322.3602,-153.7722 323.9715,-146.9602"/>
</g>
<!-- Node4&#45;&gt;Node12 -->
<g id="edge21" class="edge">
<title>Node4&#45;&gt;Node12</title>
<path fill="none" stroke="#191970" d="M541.2813,-190.3906C547.9892,-182.6068 557.7159,-171.3202 566.3859,-161.2597"/>
<polygon fill="#191970" stroke="#191970" points="569.1578,-163.4046 573.0347,-153.5446 563.8552,-158.8349 569.1578,-163.4046"/>
</g>
<!-- Node4&#45;&gt;Node13 -->
<g id="edge22" class="edge">
<title>Node4&#45;&gt;Node13</title>
<path fill="none" stroke="#191970" d="M606.2529,-192.9877C692.4293,-184.5601 839.7682,-169.5941 966,-154 977.9627,-152.5222 990.6408,-150.8421 1002.9719,-149.1465"/>
<polygon fill="#191970" stroke="#191970" points="1003.8015,-152.565 1013.2251,-147.7228 1002.8387,-145.6315 1003.8015,-152.565"/>
</g>
<!-- Node6&#45;&gt;Node1 -->
<g id="edge8" class="edge">
<title>Node6&#45;&gt;Node1</title>
<path fill="none" stroke="#191970" d="M163.8453,-148.007C216.4359,-162.7912 315.5353,-191.5111 401,-210 478.1025,-226.6799 566.8903,-240.7758 628.774,-249.9804"/>
<polygon fill="#191970" stroke="#191970" points="628.4478,-253.4701 638.8525,-251.4718 629.4726,-246.5456 628.4478,-253.4701"/>
</g>
<!-- Node6&#45;&gt;Node2 -->
<g id="edge7" class="edge">
<title>Node6&#45;&gt;Node2</title>
<path fill="none" stroke="#191970" d="M120.1228,-128.9005C112.7802,-118.6515 100.9759,-102.1747 91.8938,-89.4976"/>
<polygon fill="#191970" stroke="#191970" points="94.5336,-87.1724 85.8645,-81.0817 88.8432,-91.2492 94.5336,-87.1724"/>
</g>
<!-- Node6&#45;&gt;Node5 -->
<g id="edge9" class="edge">
<title>Node6&#45;&gt;Node5</title>
<path fill="none" stroke="#191970" d="M173.9868,-128.9787C184.2021,-126.9602 194.9566,-124.8743 205,-123 284.8365,-108.1008 377.0834,-92.2087 436.8675,-82.0831"/>
<polygon fill="#191970" stroke="#191970" points="437.6323,-85.5036 446.9087,-80.385 436.465,-78.6016 437.6323,-85.5036"/>
</g>
<!-- Node8&#45;&gt;Node1 -->
<g id="edge13" class="edge">
<title>Node8&#45;&gt;Node1</title>
<path fill="none" stroke="#191970" d="M878.293,-153.513C846.8369,-175.48 783.4183,-216.442 742.8286,-241.1146"/>
<polygon fill="#191970" stroke="#191970" points="740.7906,-238.2564 734.0346,-246.4178 744.4055,-244.2508 740.7906,-238.2564"/>
</g>
<!-- Node9 -->
<g id="node10" class="node">
<title>Node9</title>
<g id="a_node10"><a xlink:href="constraints_2basic_8h.html" target="_top" xlink:title="Functions and data structures for constraining secondary structure predictions and evaluation...">
<polygon fill="none" stroke="#000000" points="837.5,-56.5 837.5,-86.5 956.5,-86.5 956.5,-56.5 837.5,-56.5"/>
<text text-anchor="start" x="845.5" y="-74.5" font-family="Helvetica,sans-Serif" font-size="10.00" fill="#000000">ViennaRNA/constraints</text>
<text text-anchor="middle" x="897" y="-63.5" font-family="Helvetica,sans-Serif" font-size="10.00" fill="#000000">/basic.h</text>
</a>
</g>
</g>
<!-- Node8&#45;&gt;Node9 -->
<g id="edge14" class="edge">
<title>Node8&#45;&gt;Node9</title>
<path fill="none" stroke="#191970" d="M897,-123.2967C897,-115.5013 897,-105.7991 897,-96.9064"/>
<polygon fill="#191970" stroke="#191970" points="900.5001,-96.6431 897,-86.6432 893.5001,-96.6432 900.5001,-96.6431"/>
</g>
<!-- Node9&#45;&gt;Node1 -->
<g id="edge15" class="edge">
<title>Node9&#45;&gt;Node1</title>
<path fill="none" stroke="#191970" d="M928.6421,-86.5161C942.8158,-95.0591 958.0935,-107.2327 966,-123 972.1759,-135.3161 973.6582,-142.5467 966,-154 925.5582,-214.4833 844.1523,-240.9763 783.1457,-252.5569"/>
<polygon fill="#191970" stroke="#191970" points="782.3786,-249.1387 773.1572,-254.3556 783.6193,-256.0279 782.3786,-249.1387"/>
</g>
<!-- Node10&#45;&gt;Node1 -->
<g id="edge17" class="edge">
<title>Node10&#45;&gt;Node1</title>
<path fill="none" stroke="#191970" d="M757.9534,-153.7056C751.2754,-174.613 734.9474,-212.4634 722.1256,-237.2898"/>
<polygon fill="#191970" stroke="#191970" points="718.8727,-235.9502 717.2357,-246.4178 725.0431,-239.2557 718.8727,-235.9502"/>
</g>
<!-- Node10&#45;&gt;Node9 -->
<g id="edge18" class="edge">
<title>Node10&#45;&gt;Node9</title>
<path fill="none" stroke="#191970" d="M790.7455,-123.4639C810.2624,-113.9191 835.7257,-101.4663 856.8325,-91.144"/>
<polygon fill="#191970" stroke="#191970" points="858.4375,-94.2552 865.8831,-86.7177 855.3622,-87.9669 858.4375,-94.2552"/>
</g>
<!-- Node11&#45;&gt;Node1 -->
<g id="edge20" class="edge">
<title>Node11&#45;&gt;Node1</title>
<path fill="none" stroke="#191970" d="M299.0469,-148.1192C335.022,-163.1863 401.2926,-192.4414 460,-210 515.7637,-226.6782 580.0051,-239.6156 628.9093,-248.3519"/>
<polygon fill="#191970" stroke="#191970" points="628.3342,-251.8044 638.7906,-250.0976 629.552,-244.9112 628.3342,-251.8044"/>
</g>
<!-- Node13&#45;&gt;Node1 -->
<g id="edge23" class="edge">
<title>Node13&#45;&gt;Node1</title>
<path fill="none" stroke="#191970" d="M1070.9452,-153.5009C1059.7373,-170.1465 1035.2823,-196.4427 1008,-210 969.8771,-228.9442 859.3569,-244.8455 783.0833,-253.7674"/>
<polygon fill="#191970" stroke="#191970" points="782.5599,-250.3044 773.0265,-254.9265 783.3615,-257.2584 782.5599,-250.3044"/>
</g>
<!-- Node13&#45;&gt;Node14 -->
<g id="edge24" class="edge">
<title>Node13&#45;&gt;Node14</title>
<path fill="none" stroke="#191970" d="M1098.6915,-123.2967C1115.0283,-112.351 1136.9759,-97.6462 1153.3119,-86.701"/>
<polygon fill="#191970" stroke="#191970" points="1155.3793,-89.5289 1161.7388,-81.055 1151.483,-83.7135 1155.3793,-89.5289"/>
</g>
<!-- Node14&#45;&gt;Node1 -->
<g id="edge26" class="edge">
<title>Node14&#45;&gt;Node1</title>
<path fill="none" stroke="#191970" d="M1180.4895,-81.0677C1182.0965,-97.7551 1175.7889,-132.455 1157,-154 1120.4216,-195.944 1098.0135,-193.0633 1045,-210 958.003,-237.7937 853.1402,-250.8816 783.2305,-256.8385"/>
<polygon fill="#191970" stroke="#191970" points="782.8548,-253.3575 773.1759,-257.6665 783.4294,-260.3339 782.8548,-253.3575"/>
</g>
<!-- Node15 -->
<g id="node16" class="node">
<title>Node15</title>
<polygon fill="none" stroke="#bfbfbf" points="1153,-.5 1153,-19.5 1199,-19.5 1199,-.5 1153,-.5"/>
<text text-anchor="middle" x="1176" y="-7.5" font-family="Helvetica,sans-Serif" font-size="10.00" fill="#000000">stdio.h</text>
</g>
<!-- Node14&#45;&gt;Node15 -->
<g id="edge25" class="edge">
<title>Node14&#45;&gt;Node15</title>
<path fill="none" stroke="#191970" d="M1176,-61.8906C1176,-53.3657 1176,-40.6392 1176,-29.9235"/>
<polygon fill="#191970" stroke="#191970" points="1179.5001,-29.7448 1176,-19.7449 1172.5001,-29.7449 1179.5001,-29.7448"/>
</g>
</g>
</svg>
