<?xml version="1.0" encoding="UTF-8" standalone="no"?>
<!DOCTYPE svg PUBLIC "-//W3C//DTD SVG 1.1//EN"
 "http://www.w3.org/Graphics/SVG/1.1/DTD/svg11.dtd">
<!-- Generated by graphviz version 2.40.1 (20161225.0304)
 -->
<!-- Title: ViennaRNA/energy_const.h Pages: 1 -->
<svg width="166pt" height="140pt"
 viewBox="0.00 0.00 166.00 140.00" xmlns="http://www.w3.org/2000/svg" xmlns:xlink="http://www.w3.org/1999/xlink">
<g id="graph0" class="graph" transform="scale(1 1) rotate(0) translate(4 136)">
<title>ViennaRNA/energy_const.h</title>
<!-- Node0 -->
<g id="node1" class="node">
<title>Node0</title>
<polygon fill="#bfbfbf" stroke="#000000" points="10,-112.5 10,-131.5 148,-131.5 148,-112.5 10,-112.5"/>
<text text-anchor="middle" x="79" y="-119.5" font-family="Helvetica,sans-Serif" font-size="10.00" fill="#000000">ViennaRNA/energy_const.h</text>
</g>
<!-- Node1 -->
<g id="node2" class="node">
<title>Node1</title>
<g id="a_node2"><a xlink:href="constants_8h.html" target="_top" xlink:title="Energy parameter constants. ">
<polygon fill="none" stroke="#000000" points="0,-56.5 0,-75.5 158,-75.5 158,-56.5 0,-56.5"/>
<text text-anchor="middle" x="79" y="-63.5" font-family="Helvetica,sans-Serif" font-size="10.00" fill="#000000">ViennaRNA/params/constants.h</text>
</a>
</g>
</g>
<!-- Node0&#45;&gt;Node1 -->
<g id="edge1" class="edge">
<title>Node0&#45;&gt;Node1</title>
<path fill="none" stroke="#191970" d="M79,-112.2455C79,-104.9382 79,-94.6944 79,-85.7046"/>
<polygon fill="#191970" stroke="#191970" points="82.5001,-85.6426 79,-75.6427 75.5001,-85.6427 82.5001,-85.6426"/>
</g>
<!-- Node2 -->
<g id="node3" class="node">
<title>Node2</title>
<polygon fill="none" stroke="#bfbfbf" points="55,-.5 55,-19.5 103,-19.5 103,-.5 55,-.5"/>
<text text-anchor="middle" x="79" y="-7.5" font-family="Helvetica,sans-Serif" font-size="10.00" fill="#000000">limits.h</text>
</g>
<!-- Node1&#45;&gt;Node2 -->
<g id="edge2" class="edge">
<title>Node1&#45;&gt;Node2</title>
<path fill="none" stroke="#191970" d="M79,-56.2455C79,-48.9382 79,-38.6944 79,-29.7046"/>
<polygon fill="#191970" stroke="#191970" points="82.5001,-29.6426 79,-19.6427 75.5001,-29.6427 82.5001,-29.6426"/>
</g>
</g>
</svg>
