<?xml version="1.0" encoding="UTF-8" standalone="no"?>
<!DOCTYPE svg PUBLIC "-//W3C//DTD SVG 1.1//EN"
 "http://www.w3.org/Graphics/SVG/1.1/DTD/svg11.dtd">
<!-- Generated by graphviz version 2.40.1 (20161225.0304)
 -->
<!-- Title: ViennaRNA/equilibrium_probs.h Pages: 1 -->
<svg width="268pt" height="151pt"
 viewBox="0.00 0.00 267.50 151.00" xmlns="http://www.w3.org/2000/svg" xmlns:xlink="http://www.w3.org/1999/xlink">
<g id="graph0" class="graph" transform="scale(1 1) rotate(0) translate(4 147)">
<title>ViennaRNA/equilibrium_probs.h</title>
<!-- Node17 -->
<g id="node1" class="node">
<title>Node17</title>
<polygon fill="#bfbfbf" stroke="#000000" points="88.5,-112.5 88.5,-142.5 206.5,-142.5 206.5,-112.5 88.5,-112.5"/>
<text text-anchor="start" x="96.5" y="-130.5" font-family="Helvetica,sans-Serif" font-size="10.00" fill="#000000">ViennaRNA/equilibrium</text>
<text text-anchor="middle" x="147.5" y="-119.5" font-family="Helvetica,sans-Serif" font-size="10.00" fill="#000000">_probs.h</text>
</g>
<!-- Node18 -->
<g id="node2" class="node">
<title>Node18</title>
<g id="a_node2"><a xlink:href="part__func_8h.html" target="_top" xlink:title="Partition function implementations. ">
<polygon fill="none" stroke="#000000" points="43.5,-56.5 43.5,-75.5 163.5,-75.5 163.5,-56.5 43.5,-56.5"/>
<text text-anchor="middle" x="103.5" y="-63.5" font-family="Helvetica,sans-Serif" font-size="10.00" fill="#000000">ViennaRNA/part_func.h</text>
</a>
</g>
</g>
<!-- Node17&#45;&gt;Node18 -->
<g id="edge1" class="edge">
<title>Node17&#45;&gt;Node18</title>
<path fill="none" stroke="#191970" d="M130.7407,-104.0751C123.7383,-94.2877 115.9838,-83.449 110.545,-75.8469"/>
<polygon fill="#191970" stroke="#191970" points="127.9584,-106.2014 136.6236,-112.2977 133.6514,-102.1283 127.9584,-106.2014"/>
</g>
<!-- Node20 -->
<g id="node4" class="node">
<title>Node20</title>
<g id="a_node4"><a xlink:href="part__func__co_8h.html" target="_top" xlink:title="Partition function for two RNA sequences. ">
<polygon fill="none" stroke="#000000" points="123.5,-.5 123.5,-19.5 259.5,-19.5 259.5,-.5 123.5,-.5"/>
<text text-anchor="middle" x="191.5" y="-7.5" font-family="Helvetica,sans-Serif" font-size="10.00" fill="#000000">ViennaRNA/part_func_co.h</text>
</a>
</g>
</g>
<!-- Node17&#45;&gt;Node20 -->
<g id="edge4" class="edge">
<title>Node17&#45;&gt;Node20</title>
<path fill="none" stroke="#191970" d="M160.225,-103.4666C164.458,-94.9336 168.9843,-85.1699 172.5,-76 180.0127,-56.4051 186.1759,-32.5579 189.2942,-19.5669"/>
<polygon fill="#191970" stroke="#191970" points="157.0542,-101.9803 155.64,-112.4804 163.2935,-105.154 157.0542,-101.9803"/>
</g>
<!-- Node19 -->
<g id="node3" class="node">
<title>Node19</title>
<g id="a_node3"><a xlink:href="alifold_8h.html" target="_top" xlink:title="Functions for comparative structure prediction using RNA sequence alignments. ">
<polygon fill="none" stroke="#000000" points="0,-.5 0,-19.5 105,-19.5 105,-.5 0,-.5"/>
<text text-anchor="middle" x="52.5" y="-7.5" font-family="Helvetica,sans-Serif" font-size="10.00" fill="#000000">ViennaRNA/alifold.h</text>
</a>
</g>
</g>
<!-- Node18&#45;&gt;Node19 -->
<g id="edge2" class="edge">
<title>Node18&#45;&gt;Node19</title>
<path fill="none" stroke="#191970" d="M87.8251,-48.7884C79.1006,-39.2085 68.5646,-27.6396 61.2817,-19.6427"/>
<polygon fill="#191970" stroke="#191970" points="85.2954,-51.2088 94.6165,-56.2455 90.4709,-46.4954 85.2954,-51.2088"/>
</g>
<!-- Node18&#45;&gt;Node20 -->
<g id="edge3" class="edge">
<title>Node18&#45;&gt;Node20</title>
<path fill="none" stroke="#191970" d="M127.4345,-50.769C143.0283,-40.8456 162.901,-28.1994 176.3472,-19.6427"/>
<polygon fill="#191970" stroke="#191970" points="125.386,-47.9239 118.8284,-56.2455 129.1441,-53.8296 125.386,-47.9239"/>
</g>
</g>
</svg>
