<?xml version="1.0" encoding="UTF-8" standalone="no"?>
<!DOCTYPE svg PUBLIC "-//W3C//DTD SVG 1.1//EN"
 "http://www.w3.org/Graphics/SVG/1.1/DTD/svg11.dtd">
<!-- Generated by graphviz version 2.40.1 (20161225.0304)
 -->
<!-- Title: ViennaRNA/loops/external.h Pages: 1 -->
<svg width="258pt" height="151pt"
 viewBox="0.00 0.00 258.00 151.00" xmlns="http://www.w3.org/2000/svg" xmlns:xlink="http://www.w3.org/1999/xlink">
<g id="graph0" class="graph" transform="scale(1 1) rotate(0) translate(4 147)">
<title>ViennaRNA/loops/external.h</title>
<!-- Node17 -->
<g id="node1" class="node">
<title>Node17</title>
<polygon fill="#bfbfbf" stroke="#000000" points="46,-123.5 46,-142.5 186,-142.5 186,-123.5 46,-123.5"/>
<text text-anchor="middle" x="116" y="-130.5" font-family="Helvetica,sans-Serif" font-size="10.00" fill="#000000">ViennaRNA/loops/external.h</text>
</g>
<!-- Node18 -->
<g id="node2" class="node">
<title>Node18</title>
<g id="a_node2"><a xlink:href="exterior__loops_8h.html" target="_top" xlink:title="Use ViennaRNA/loops/external.h instead. ">
<polygon fill="none" stroke="#000000" points="0,-56.5 0,-86.5 104,-86.5 104,-56.5 0,-56.5"/>
<text text-anchor="start" x="8" y="-74.5" font-family="Helvetica,sans-Serif" font-size="10.00" fill="#000000">ViennaRNA/exterior</text>
<text text-anchor="middle" x="52" y="-63.5" font-family="Helvetica,sans-Serif" font-size="10.00" fill="#000000">_loops.h</text>
</a>
</g>
</g>
<!-- Node17&#45;&gt;Node18 -->
<g id="edge1" class="edge">
<title>Node17&#45;&gt;Node18</title>
<path fill="none" stroke="#191970" d="M98.5276,-116.2101C88.8809,-106.9403 76.9983,-95.5218 67.6562,-86.5446"/>
<polygon fill="#191970" stroke="#191970" points="96.3644,-118.9854 106,-123.3906 101.2146,-113.9381 96.3644,-118.9854"/>
</g>
<!-- Node19 -->
<g id="node3" class="node">
<title>Node19</title>
<g id="a_node3"><a xlink:href="all_8h.html" target="_top" xlink:title="Energy evaluation for MFE and partition function calculations. ">
<polygon fill="none" stroke="#000000" points="122,-62 122,-81 238,-81 238,-62 122,-62"/>
<text text-anchor="middle" x="180" y="-69" font-family="Helvetica,sans-Serif" font-size="10.00" fill="#000000">ViennaRNA/loops/all.h</text>
</a>
</g>
</g>
<!-- Node17&#45;&gt;Node19 -->
<g id="edge2" class="edge">
<title>Node17&#45;&gt;Node19</title>
<path fill="none" stroke="#191970" d="M133.4566,-116.2253C145.1353,-105.0028 160.0967,-90.6258 169.859,-81.2449"/>
<polygon fill="#191970" stroke="#191970" points="130.7854,-113.9381 126,-123.3906 135.6356,-118.9854 130.7854,-113.9381"/>
</g>
<!-- Node20 -->
<g id="node4" class="node">
<title>Node20</title>
<g id="a_node4"><a xlink:href="loop__energies_8h.html" target="_top" xlink:title="Use ViennaRNA/loops/all.h instead. ">
<polygon fill="none" stroke="#000000" points="110,-.5 110,-19.5 250,-19.5 250,-.5 110,-.5"/>
<text text-anchor="middle" x="180" y="-7.5" font-family="Helvetica,sans-Serif" font-size="10.00" fill="#000000">ViennaRNA/loop_energies.h</text>
</a>
</g>
</g>
<!-- Node19&#45;&gt;Node20 -->
<g id="edge3" class="edge">
<title>Node19&#45;&gt;Node20</title>
<path fill="none" stroke="#191970" d="M180,-51.7462C180,-41.0519 180,-28.314 180,-19.7449"/>
<polygon fill="#191970" stroke="#191970" points="176.5001,-51.8906 180,-61.8906 183.5001,-51.8907 176.5001,-51.8906"/>
</g>
</g>
</svg>
