<?xml version="1.0" encoding="UTF-8" standalone="no"?>
<!DOCTYPE svg PUBLIC "-//W3C//DTD SVG 1.1//EN"
 "http://www.w3.org/Graphics/SVG/1.1/DTD/svg11.dtd">
<!-- Generated by graphviz version 2.40.1 (20161225.0304)
 -->
<!-- Title: ViennaRNA/file_formats_msa.h Pages: 1 -->
<svg width="141pt" height="162pt"
 viewBox="0.00 0.00 141.00 162.00" xmlns="http://www.w3.org/2000/svg" xmlns:xlink="http://www.w3.org/1999/xlink">
<g id="graph0" class="graph" transform="scale(1 1) rotate(0) translate(4 158)">
<title>ViennaRNA/file_formats_msa.h</title>
<!-- Node0 -->
<g id="node1" class="node">
<title>Node0</title>
<polygon fill="#bfbfbf" stroke="#000000" points="5.5,-123.5 5.5,-153.5 127.5,-153.5 127.5,-123.5 5.5,-123.5"/>
<text text-anchor="start" x="13.5" y="-141.5" font-family="Helvetica,sans-Serif" font-size="10.00" fill="#000000">ViennaRNA/file_formats</text>
<text text-anchor="middle" x="66.5" y="-130.5" font-family="Helvetica,sans-Serif" font-size="10.00" fill="#000000">_msa.h</text>
</g>
<!-- Node1 -->
<g id="node2" class="node">
<title>Node1</title>
<g id="a_node2"><a xlink:href="io_2file__formats__msa_8h.html" target="_top" xlink:title="Functions dealing with file formats for Multiple Sequence Alignments (MSA) ">
<polygon fill="none" stroke="#000000" points="0,-56.5 0,-86.5 133,-86.5 133,-56.5 0,-56.5"/>
<text text-anchor="start" x="8" y="-74.5" font-family="Helvetica,sans-Serif" font-size="10.00" fill="#000000">ViennaRNA/io/file_formats</text>
<text text-anchor="middle" x="66.5" y="-63.5" font-family="Helvetica,sans-Serif" font-size="10.00" fill="#000000">_msa.h</text>
</a>
</g>
</g>
<!-- Node0&#45;&gt;Node1 -->
<g id="edge1" class="edge">
<title>Node0&#45;&gt;Node1</title>
<path fill="none" stroke="#191970" d="M66.5,-123.2967C66.5,-115.5013 66.5,-105.7991 66.5,-96.9064"/>
<polygon fill="#191970" stroke="#191970" points="70.0001,-96.6431 66.5,-86.6432 63.0001,-96.6432 70.0001,-96.6431"/>
</g>
<!-- Node2 -->
<g id="node3" class="node">
<title>Node2</title>
<polygon fill="none" stroke="#bfbfbf" points="43.5,-.5 43.5,-19.5 89.5,-19.5 89.5,-.5 43.5,-.5"/>
<text text-anchor="middle" x="66.5" y="-7.5" font-family="Helvetica,sans-Serif" font-size="10.00" fill="#000000">stdio.h</text>
</g>
<!-- Node1&#45;&gt;Node2 -->
<g id="edge2" class="edge">
<title>Node1&#45;&gt;Node2</title>
<path fill="none" stroke="#191970" d="M66.5,-56.2977C66.5,-48.3834 66.5,-38.6043 66.5,-30.0759"/>
<polygon fill="#191970" stroke="#191970" points="70.0001,-29.8469 66.5,-19.8469 63.0001,-29.847 70.0001,-29.8469"/>
</g>
</g>
</svg>
