<?xml version="1.0" encoding="UTF-8" standalone="no"?>
<!DOCTYPE svg PUBLIC "-//W3C//DTD SVG 1.1//EN"
 "http://www.w3.org/Graphics/SVG/1.1/DTD/svg11.dtd">
<!-- Generated by graphviz version 2.40.1 (20161225.0304)
 -->
<!-- Title: ViennaRNA/file_formats.h Pages: 1 -->
<svg width="1529pt" height="397pt"
 viewBox="0.00 0.00 1528.87 397.00" xmlns="http://www.w3.org/2000/svg" xmlns:xlink="http://www.w3.org/1999/xlink">
<g id="graph0" class="graph" transform="scale(1 1) rotate(0) translate(4 393)">
<title>ViennaRNA/file_formats.h</title>
<!-- Node0 -->
<g id="node1" class="node">
<title>Node0</title>
<polygon fill="#bfbfbf" stroke="#000000" points="1338.8688,-369.5 1338.8688,-388.5 1469.8688,-388.5 1469.8688,-369.5 1338.8688,-369.5"/>
<text text-anchor="middle" x="1404.3688" y="-376.5" font-family="Helvetica,sans-Serif" font-size="10.00" fill="#000000">ViennaRNA/file_formats.h</text>
</g>
<!-- Node1 -->
<g id="node2" class="node">
<title>Node1</title>
<g id="a_node2"><a xlink:href="io_2file__formats_8h.html" target="_top" xlink:title="Read and write different file formats for RNA sequences, structures. ">
<polygon fill="none" stroke="#000000" points="1284.8688,-313.5 1284.8688,-332.5 1425.8688,-332.5 1425.8688,-313.5 1284.8688,-313.5"/>
<text text-anchor="middle" x="1355.3688" y="-320.5" font-family="Helvetica,sans-Serif" font-size="10.00" fill="#000000">ViennaRNA/io/file_formats.h</text>
</a>
</g>
</g>
<!-- Node0&#45;&gt;Node1 -->
<g id="edge1" class="edge">
<title>Node0&#45;&gt;Node1</title>
<path fill="none" stroke="#191970" d="M1395.8336,-369.2455C1388.8776,-361.2958 1378.8805,-349.8706 1370.5637,-340.3656"/>
<polygon fill="#191970" stroke="#191970" points="1373.0252,-337.8637 1363.8061,-332.6427 1367.7572,-342.4732 1373.0252,-337.8637"/>
</g>
<!-- Node18 -->
<g id="node19" class="node">
<title>Node18</title>
<g id="a_node19"><a xlink:href="io_2file__formats__msa_8h.html" target="_top" xlink:title="Functions dealing with file formats for Multiple Sequence Alignments (MSA) ">
<polygon fill="none" stroke="#000000" points="1387.8688,-246.5 1387.8688,-276.5 1520.8688,-276.5 1520.8688,-246.5 1387.8688,-246.5"/>
<text text-anchor="start" x="1395.8688" y="-264.5" font-family="Helvetica,sans-Serif" font-size="10.00" fill="#000000">ViennaRNA/io/file_formats</text>
<text text-anchor="middle" x="1454.3688" y="-253.5" font-family="Helvetica,sans-Serif" font-size="10.00" fill="#000000">_msa.h</text>
</a>
</g>
</g>
<!-- Node0&#45;&gt;Node18 -->
<g id="edge39" class="edge">
<title>Node0&#45;&gt;Node18</title>
<path fill="none" stroke="#191970" d="M1411.9759,-369.2813C1418.6846,-360.3044 1428.3103,-346.3748 1434.3688,-333 1441.0651,-318.217 1446.0124,-300.6802 1449.3113,-286.6742"/>
<polygon fill="#191970" stroke="#191970" points="1452.7626,-287.277 1451.5144,-276.756 1445.9292,-285.7591 1452.7626,-287.277"/>
</g>
<!-- Node2 -->
<g id="node3" class="node">
<title>Node2</title>
<polygon fill="none" stroke="#bfbfbf" points="1336.3688,-.5 1336.3688,-19.5 1382.3688,-19.5 1382.3688,-.5 1336.3688,-.5"/>
<text text-anchor="middle" x="1359.3688" y="-7.5" font-family="Helvetica,sans-Serif" font-size="10.00" fill="#000000">stdio.h</text>
</g>
<!-- Node1&#45;&gt;Node2 -->
<g id="edge2" class="edge">
<title>Node1&#45;&gt;Node2</title>
<path fill="none" stroke="#191970" d="M1355.8917,-313.4343C1356.976,-292.7481 1359.3688,-242.3036 1359.3688,-200 1359.3688,-200 1359.3688,-200 1359.3688,-138.5 1359.3688,-100.0012 1359.3688,-55.0145 1359.3688,-29.7812"/>
<polygon fill="#191970" stroke="#191970" points="1362.8689,-29.6718 1359.3688,-19.6719 1355.8689,-29.6719 1362.8689,-29.6718"/>
</g>
<!-- Node3 -->
<g id="node4" class="node">
<title>Node3</title>
<g id="a_node4"><a xlink:href="datastructures_2basic_8h.html" target="_top" xlink:title="Various data structures and pre&#45;processor macros. ">
<polygon fill="none" stroke="#000000" points="702.3688,-246.5 702.3688,-276.5 836.3688,-276.5 836.3688,-246.5 702.3688,-246.5"/>
<text text-anchor="start" x="710.3688" y="-264.5" font-family="Helvetica,sans-Serif" font-size="10.00" fill="#000000">ViennaRNA/datastructures</text>
<text text-anchor="middle" x="769.3688" y="-253.5" font-family="Helvetica,sans-Serif" font-size="10.00" fill="#000000">/basic.h</text>
</a>
</g>
</g>
<!-- Node1&#45;&gt;Node3 -->
<g id="edge3" class="edge">
<title>Node1&#45;&gt;Node3</title>
<path fill="none" stroke="#191970" d="M1284.6835,-315.5817C1174.1694,-303.9833 961.2906,-281.642 846.7782,-269.624"/>
<polygon fill="#191970" stroke="#191970" points="846.9949,-266.1276 836.6842,-268.5647 846.2642,-273.0894 846.9949,-266.1276"/>
</g>
<!-- Node4 -->
<g id="node5" class="node">
<title>Node4</title>
<g id="a_node5"><a xlink:href="constants_8h.html" target="_top" xlink:title="Energy parameter constants. ">
<polygon fill="none" stroke="#000000" points="256.3688,-62 256.3688,-81 414.3688,-81 414.3688,-62 256.3688,-62"/>
<text text-anchor="middle" x="335.3688" y="-69" font-family="Helvetica,sans-Serif" font-size="10.00" fill="#000000">ViennaRNA/params/constants.h</text>
</a>
</g>
</g>
<!-- Node3&#45;&gt;Node4 -->
<g id="edge4" class="edge">
<title>Node3&#45;&gt;Node4</title>
<path fill="none" stroke="#191970" d="M702.0437,-253.4282C596.3981,-239.2919 399.0862,-206.4666 354.3688,-154 339.4466,-136.4919 335.6688,-109.5541 334.9861,-91.2615"/>
<polygon fill="#191970" stroke="#191970" points="338.485,-91.1165 334.8891,-81.1506 331.4853,-91.1837 338.485,-91.1165"/>
</g>
<!-- Node6 -->
<g id="node7" class="node">
<title>Node6</title>
<g id="a_node7"><a xlink:href="fold__compound_8h.html" target="_top" xlink:title="The Basic Fold Compound API. ">
<polygon fill="none" stroke="#000000" points="543.3688,-190.5 543.3688,-209.5 689.3688,-209.5 689.3688,-190.5 543.3688,-190.5"/>
<text text-anchor="middle" x="616.3688" y="-197.5" font-family="Helvetica,sans-Serif" font-size="10.00" fill="#000000">ViennaRNA/fold_compound.h</text>
</a>
</g>
</g>
<!-- Node3&#45;&gt;Node6 -->
<g id="edge6" class="edge">
<title>Node3&#45;&gt;Node6</title>
<path fill="none" stroke="#191970" d="M731.9408,-246.4554C706.7482,-236.329 673.828,-223.0964 649.5692,-213.3453"/>
<polygon fill="#191970" stroke="#191970" points="650.6622,-210.0125 640.0783,-209.5303 648.0515,-216.5074 650.6622,-210.0125"/>
</g>
<!-- Node7 -->
<g id="node8" class="node">
<title>Node7</title>
<g id="a_node8"><a xlink:href="model_8h.html" target="_top" xlink:title="The model details data structure and its corresponding modifiers. ">
<polygon fill="none" stroke="#000000" points="132.3688,-62 132.3688,-81 238.3688,-81 238.3688,-62 132.3688,-62"/>
<text text-anchor="middle" x="185.3688" y="-69" font-family="Helvetica,sans-Serif" font-size="10.00" fill="#000000">ViennaRNA/model.h</text>
</a>
</g>
</g>
<!-- Node3&#45;&gt;Node7 -->
<g id="edge30" class="edge">
<title>Node3&#45;&gt;Node7</title>
<path fill="none" stroke="#191970" d="M702.3058,-257.305C524.276,-245.4522 50.4391,-208.964 8.3688,-154 -25.8126,-109.3428 58.6141,-87.9201 122.2948,-78.3711"/>
<polygon fill="#191970" stroke="#191970" points="122.9116,-81.8186 132.3157,-76.9388 121.921,-74.8891 122.9116,-81.8186"/>
</g>
<!-- Node8 -->
<g id="node9" class="node">
<title>Node8</title>
<g id="a_node9"><a xlink:href="params_2basic_8h.html" target="_top" xlink:title="Functions to deal with sets of energy parameters. ">
<polygon fill="none" stroke="#000000" points="169.3688,-129 169.3688,-148 307.3688,-148 307.3688,-129 169.3688,-129"/>
<text text-anchor="middle" x="238.3688" y="-136" font-family="Helvetica,sans-Serif" font-size="10.00" fill="#000000">ViennaRNA/params/basic.h</text>
</a>
</g>
</g>
<!-- Node3&#45;&gt;Node8 -->
<g id="edge31" class="edge">
<title>Node3&#45;&gt;Node8</title>
<path fill="none" stroke="#191970" d="M702.355,-258.8833C592.5895,-253.6425 380.2286,-239.7183 312.3688,-210 284.8806,-197.9619 259.7472,-173.6023 246.615,-156.6824"/>
<polygon fill="#191970" stroke="#191970" points="249.2383,-154.3291 240.6152,-148.1733 243.5174,-158.3629 249.2383,-154.3291"/>
</g>
<!-- Node10 -->
<g id="node11" class="node">
<title>Node10</title>
<g id="a_node11"><a xlink:href="dp__matrices_8h.html" target="_top" xlink:title="Functions to deal with standard dynamic programming (DP) matrices. ">
<polygon fill="none" stroke="#000000" points="17.8688,-129 17.8688,-148 150.8688,-148 150.8688,-129 17.8688,-129"/>
<text text-anchor="middle" x="84.3688" y="-136" font-family="Helvetica,sans-Serif" font-size="10.00" fill="#000000">ViennaRNA/dp_matrices.h</text>
</a>
</g>
</g>
<!-- Node3&#45;&gt;Node10 -->
<g id="edge32" class="edge">
<title>Node3&#45;&gt;Node10</title>
<path fill="none" stroke="#191970" d="M702.3295,-259.5027C606.8642,-255.4763 427.1414,-243.6663 278.3688,-210 216.2421,-195.9411 146.8396,-168.9005 110.0581,-152.4017"/>
<polygon fill="#191970" stroke="#191970" points="111.13,-149.0425 100.582,-148.0473 108.2071,-155.4031 111.13,-149.0425"/>
</g>
<!-- Node11 -->
<g id="node12" class="node">
<title>Node11</title>
<g id="a_node12"><a xlink:href="hard_8h.html" target="_top" xlink:title="Functions and data structures for handling of secondary structure hard constraints. ">
<polygon fill="none" stroke="#000000" points="810.8688,-123.5 810.8688,-153.5 929.8688,-153.5 929.8688,-123.5 810.8688,-123.5"/>
<text text-anchor="start" x="818.8688" y="-141.5" font-family="Helvetica,sans-Serif" font-size="10.00" fill="#000000">ViennaRNA/constraints</text>
<text text-anchor="middle" x="870.3688" y="-130.5" font-family="Helvetica,sans-Serif" font-size="10.00" fill="#000000">/hard.h</text>
</a>
</g>
</g>
<!-- Node3&#45;&gt;Node11 -->
<g id="edge33" class="edge">
<title>Node3&#45;&gt;Node11</title>
<path fill="none" stroke="#191970" d="M777.1391,-246.4178C792.0656,-225.1161 823.8882,-186.0519 846.3304,-161.2253"/>
<polygon fill="#191970" stroke="#191970" points="849.0553,-163.433 853.2538,-153.7056 843.9055,-158.6916 849.0553,-163.433"/>
</g>
<!-- Node13 -->
<g id="node14" class="node">
<title>Node13</title>
<g id="a_node14"><a xlink:href="soft_8h.html" target="_top" xlink:title="Functions and data structures for secondary structure soft constraints. ">
<polygon fill="none" stroke="#000000" points="947.8688,-123.5 947.8688,-153.5 1066.8688,-153.5 1066.8688,-123.5 947.8688,-123.5"/>
<text text-anchor="start" x="955.8688" y="-141.5" font-family="Helvetica,sans-Serif" font-size="10.00" fill="#000000">ViennaRNA/constraints</text>
<text text-anchor="middle" x="1007.3688" y="-130.5" font-family="Helvetica,sans-Serif" font-size="10.00" fill="#000000">/soft.h</text>
</a>
</g>
</g>
<!-- Node3&#45;&gt;Node13 -->
<g id="edge34" class="edge">
<title>Node3&#45;&gt;Node13</title>
<path fill="none" stroke="#191970" d="M793.938,-246.4178C834.2897,-224.1798 914.6173,-182.5834 964.4725,-158.0368"/>
<polygon fill="#191970" stroke="#191970" points="966.2707,-161.0535 973.7133,-153.513 963.1929,-154.7664 966.2707,-161.0535"/>
</g>
<!-- Node14 -->
<g id="node15" class="node">
<title>Node14</title>
<g id="a_node15"><a xlink:href="grammar_8h.html" target="_top" xlink:title="Implementations for the RNA folding grammar. ">
<polygon fill="none" stroke="#000000" points="363.3688,-129 363.3688,-148 481.3688,-148 481.3688,-129 363.3688,-129"/>
<text text-anchor="middle" x="422.3688" y="-136" font-family="Helvetica,sans-Serif" font-size="10.00" fill="#000000">ViennaRNA/grammar.h</text>
</a>
</g>
</g>
<!-- Node3&#45;&gt;Node14 -->
<g id="edge35" class="edge">
<title>Node3&#45;&gt;Node14</title>
<path fill="none" stroke="#191970" d="M702.1698,-254.3073C651.8783,-247.0906 582.3994,-233.5732 525.3688,-210 491.1661,-195.8626 455.8463,-171.3645 436.4568,-155.0435"/>
<polygon fill="#191970" stroke="#191970" points="438.533,-152.2065 428.7303,-148.1866 433.8866,-157.4421 438.533,-152.2065"/>
</g>
<!-- Node15 -->
<g id="node16" class="node">
<title>Node15</title>
<g id="a_node16"><a xlink:href="structured__domains_8h.html" target="_top" xlink:title="This module provides interfaces that deal with additional structured domains in the folding grammar...">
<polygon fill="none" stroke="#000000" points="677.8688,-123.5 677.8688,-153.5 792.8688,-153.5 792.8688,-123.5 677.8688,-123.5"/>
<text text-anchor="start" x="685.8688" y="-141.5" font-family="Helvetica,sans-Serif" font-size="10.00" fill="#000000">ViennaRNA/structured</text>
<text text-anchor="middle" x="735.3688" y="-130.5" font-family="Helvetica,sans-Serif" font-size="10.00" fill="#000000">_domains.h</text>
</a>
</g>
</g>
<!-- Node3&#45;&gt;Node15 -->
<g id="edge36" class="edge">
<title>Node3&#45;&gt;Node15</title>
<path fill="none" stroke="#191970" d="M765.1997,-246.4178C759.4899,-225.7616 749.1631,-188.4031 742.285,-163.5206"/>
<polygon fill="#191970" stroke="#191970" points="745.6098,-162.4116 739.5719,-153.7056 738.8628,-164.2767 745.6098,-162.4116"/>
</g>
<!-- Node16 -->
<g id="node17" class="node">
<title>Node16</title>
<g id="a_node17"><a xlink:href="unstructured__domains_8h.html" target="_top" xlink:title="Functions to modify unstructured domains, e.g. to incorporate ligands binding to unpaired stretches...">
<polygon fill="none" stroke="#000000" points="1123.8688,-123.5 1123.8688,-153.5 1248.8688,-153.5 1248.8688,-123.5 1123.8688,-123.5"/>
<text text-anchor="start" x="1131.8688" y="-141.5" font-family="Helvetica,sans-Serif" font-size="10.00" fill="#000000">ViennaRNA/unstructured</text>
<text text-anchor="middle" x="1186.3688" y="-130.5" font-family="Helvetica,sans-Serif" font-size="10.00" fill="#000000">_domains.h</text>
</a>
</g>
</g>
<!-- Node3&#45;&gt;Node16 -->
<g id="edge37" class="edge">
<title>Node3&#45;&gt;Node16</title>
<path fill="none" stroke="#191970" d="M836.495,-255.4668C919.3286,-247.5662 1054.5933,-232.0756 1100.3688,-210 1123.9507,-198.6274 1145.2919,-177.5349 1161.079,-161.1947"/>
<polygon fill="#191970" stroke="#191970" points="1163.9572,-163.2512 1168.3683,-153.6183 1158.9128,-158.3979 1163.9572,-163.2512"/>
</g>
<!-- Node17 -->
<g id="node18" class="node">
<title>Node17</title>
<g id="a_node18"><a xlink:href="utils_2structures_8h.html" target="_top" xlink:title="Various utility&#45; and helper&#45;functions for secondary structure parsing, converting, etc. ">
<polygon fill="none" stroke="#000000" points="1187.3688,-62 1187.3688,-81 1331.3688,-81 1331.3688,-62 1187.3688,-62"/>
<text text-anchor="middle" x="1259.3688" y="-69" font-family="Helvetica,sans-Serif" font-size="10.00" fill="#000000">ViennaRNA/utils/structures.h</text>
</a>
</g>
</g>
<!-- Node3&#45;&gt;Node17 -->
<g id="edge38" class="edge">
<title>Node3&#45;&gt;Node17</title>
<path fill="none" stroke="#191970" d="M836.6963,-258.7242C911.7965,-254.1458 1035.9667,-242.0306 1138.3688,-210 1190.7268,-193.6228 1219.1319,-200.4197 1248.3688,-154 1260.2002,-135.2151 1258.4416,-108.9451 1257.2058,-91.1334"/>
<polygon fill="#191970" stroke="#191970" points="1260.6941,-90.8278 1256.6233,-81.0462 1253.7057,-91.2314 1260.6941,-90.8278"/>
</g>
<!-- Node5 -->
<g id="node6" class="node">
<title>Node5</title>
<polygon fill="none" stroke="#bfbfbf" points="311.3688,-.5 311.3688,-19.5 359.3688,-19.5 359.3688,-.5 311.3688,-.5"/>
<text text-anchor="middle" x="335.3688" y="-7.5" font-family="Helvetica,sans-Serif" font-size="10.00" fill="#000000">limits.h</text>
</g>
<!-- Node4&#45;&gt;Node5 -->
<g id="edge5" class="edge">
<title>Node4&#45;&gt;Node5</title>
<path fill="none" stroke="#191970" d="M335.3688,-61.8906C335.3688,-53.3657 335.3688,-40.6392 335.3688,-29.9235"/>
<polygon fill="#191970" stroke="#191970" points="338.8689,-29.7448 335.3688,-19.7449 331.8689,-29.7449 338.8689,-29.7448"/>
</g>
<!-- Node6&#45;&gt;Node7 -->
<g id="edge7" class="edge">
<title>Node6&#45;&gt;Node7</title>
<path fill="none" stroke="#191970" d="M595.068,-190.3649C576.8119,-181.7596 550.1002,-168.3305 528.3688,-154 510.173,-142.0011 510.3085,-131.8016 490.3688,-123 390.4878,-78.9116 354.4565,-108.2653 247.3688,-87 241.9955,-85.933 236.3885,-84.701 230.8379,-83.4073"/>
<polygon fill="#191970" stroke="#191970" points="231.5116,-79.9696 220.9704,-81.0344 229.8749,-86.7756 231.5116,-79.9696"/>
</g>
<!-- Node6&#45;&gt;Node8 -->
<g id="edge8" class="edge">
<title>Node6&#45;&gt;Node8</title>
<path fill="none" stroke="#191970" d="M557.721,-190.4581C490.0262,-179.4443 378.8315,-161.3531 307.1262,-149.6867"/>
<polygon fill="#191970" stroke="#191970" points="307.2754,-146.1651 296.8431,-148.0137 306.1512,-153.0742 307.2754,-146.1651"/>
</g>
<!-- Node9 -->
<g id="node10" class="node">
<title>Node9</title>
<g id="a_node10"><a xlink:href="sequence_8h.html" target="_top" xlink:title="Functions and data structures related to sequence representations ,. ">
<polygon fill="none" stroke="#000000" points="537.3688,-129 537.3688,-148 659.3688,-148 659.3688,-129 537.3688,-129"/>
<text text-anchor="middle" x="598.3688" y="-136" font-family="Helvetica,sans-Serif" font-size="10.00" fill="#000000">ViennaRNA/sequence.h</text>
</a>
</g>
</g>
<!-- Node6&#45;&gt;Node9 -->
<g id="edge12" class="edge">
<title>Node6&#45;&gt;Node9</title>
<path fill="none" stroke="#191970" d="M613.5563,-190.3906C611.0349,-181.776 607.2578,-168.8708 604.1012,-158.0858"/>
<polygon fill="#191970" stroke="#191970" points="607.3891,-156.8591 601.2209,-148.2449 600.6709,-158.8254 607.3891,-156.8591"/>
</g>
<!-- Node6&#45;&gt;Node10 -->
<g id="edge13" class="edge">
<title>Node6&#45;&gt;Node10</title>
<path fill="none" stroke="#191970" d="M543.0303,-194.8871C452.6926,-188.0638 294.6887,-174.419 160.3688,-154 152.8708,-152.8602 144.9935,-151.4717 137.2667,-149.9991"/>
<polygon fill="#191970" stroke="#191970" points="137.7275,-146.5228 127.2403,-148.0286 136.3776,-153.3914 137.7275,-146.5228"/>
</g>
<!-- Node6&#45;&gt;Node11 -->
<g id="edge15" class="edge">
<title>Node6&#45;&gt;Node11</title>
<path fill="none" stroke="#191970" d="M655.7776,-190.4581C694.4144,-181.1031 754.1393,-166.6422 800.78,-155.3493"/>
<polygon fill="#191970" stroke="#191970" points="801.6262,-158.7456 810.5217,-152.9905 799.9789,-151.9422 801.6262,-158.7456"/>
</g>
<!-- Node6&#45;&gt;Node13 -->
<g id="edge19" class="edge">
<title>Node6&#45;&gt;Node13</title>
<path fill="none" stroke="#191970" d="M689.5301,-191.2237C752.6685,-183.2658 846.5081,-170.5248 937.6395,-154.0484"/>
<polygon fill="#191970" stroke="#191970" points="938.3798,-157.4712 947.5889,-152.2325 937.123,-150.585 938.3798,-157.4712"/>
</g>
<!-- Node6&#45;&gt;Node14 -->
<g id="edge22" class="edge">
<title>Node6&#45;&gt;Node14</title>
<path fill="none" stroke="#191970" d="M586.0563,-190.3906C552.7423,-179.8298 499.088,-162.8208 462.3507,-151.1747"/>
<polygon fill="#191970" stroke="#191970" points="463.0586,-147.7275 452.4684,-148.0419 460.9432,-154.4002 463.0586,-147.7275"/>
</g>
<!-- Node6&#45;&gt;Node15 -->
<g id="edge24" class="edge">
<title>Node6&#45;&gt;Node15</title>
<path fill="none" stroke="#191970" d="M634.9625,-190.3906C651.5897,-181.7976 676.4771,-168.9356 697.3137,-158.1671"/>
<polygon fill="#191970" stroke="#191970" points="698.9813,-161.2451 706.2581,-153.5446 695.7674,-155.0265 698.9813,-161.2451"/>
</g>
<!-- Node6&#45;&gt;Node16 -->
<g id="edge25" class="edge">
<title>Node6&#45;&gt;Node16</title>
<path fill="none" stroke="#191970" d="M689.6012,-193.5452C780.2755,-185.3493 939.3942,-170.301 1075.3688,-154 1087.7166,-152.5197 1100.8177,-150.8124 1113.5263,-149.0837"/>
<polygon fill="#191970" stroke="#191970" points="1114.1824,-152.5265 1123.6123,-147.6967 1113.2286,-145.5918 1114.1824,-152.5265"/>
</g>
<!-- Node8&#45;&gt;Node3 -->
<g id="edge10" class="edge">
<title>Node8&#45;&gt;Node3</title>
<path fill="none" stroke="#191970" d="M251.5994,-148.1733C268.5193,-164.1577 297.7902,-195.7326 330.3688,-210 393.8501,-237.8008 583.7869,-251.7799 691.9395,-257.7585"/>
<polygon fill="#191970" stroke="#191970" points="691.9686,-261.2651 702.1436,-258.3123 692.348,-254.2754 691.9686,-261.2651"/>
</g>
<!-- Node8&#45;&gt;Node4 -->
<g id="edge9" class="edge">
<title>Node8&#45;&gt;Node4</title>
<path fill="none" stroke="#191970" d="M252.2665,-128.9005C268.1851,-117.9052 294.4809,-99.7422 313.2286,-86.7927"/>
<polygon fill="#191970" stroke="#191970" points="315.2579,-89.6448 321.4968,-81.0817 311.2796,-83.8852 315.2579,-89.6448"/>
</g>
<!-- Node8&#45;&gt;Node7 -->
<g id="edge11" class="edge">
<title>Node8&#45;&gt;Node7</title>
<path fill="none" stroke="#191970" d="M230.7752,-128.9005C222.589,-118.552 209.3803,-101.8542 199.3145,-89.1295"/>
<polygon fill="#191970" stroke="#191970" points="201.8974,-86.7531 192.9483,-81.0817 196.4074,-91.0959 201.8974,-86.7531"/>
</g>
<!-- Node10&#45;&gt;Node3 -->
<g id="edge14" class="edge">
<title>Node10&#45;&gt;Node3</title>
<path fill="none" stroke="#191970" d="M111.6223,-148.0473C151.7253,-163.7012 228.4012,-194.6194 296.3688,-210 433.7734,-241.0938 597.5791,-253.5438 691.9881,-258.4371"/>
<polygon fill="#191970" stroke="#191970" points="691.8637,-261.9352 702.027,-258.9424 692.2157,-254.944 691.8637,-261.9352"/>
</g>
<!-- Node11&#45;&gt;Node3 -->
<g id="edge16" class="edge">
<title>Node11&#45;&gt;Node3</title>
<path fill="none" stroke="#191970" d="M862.512,-153.7056C847.5204,-175.0756 815.6834,-214.1465 793.2775,-238.9181"/>
<polygon fill="#191970" stroke="#191970" points="790.5696,-236.6918 786.3676,-246.4178 795.7176,-241.435 790.5696,-236.6918"/>
</g>
<!-- Node12 -->
<g id="node13" class="node">
<title>Node12</title>
<g id="a_node13"><a xlink:href="constraints_2basic_8h.html" target="_top" xlink:title="Functions and data structures for constraining secondary structure predictions and evaluation...">
<polygon fill="none" stroke="#000000" points="947.8688,-56.5 947.8688,-86.5 1066.8688,-86.5 1066.8688,-56.5 947.8688,-56.5"/>
<text text-anchor="start" x="955.8688" y="-74.5" font-family="Helvetica,sans-Serif" font-size="10.00" fill="#000000">ViennaRNA/constraints</text>
<text text-anchor="middle" x="1007.3688" y="-63.5" font-family="Helvetica,sans-Serif" font-size="10.00" fill="#000000">/basic.h</text>
</a>
</g>
</g>
<!-- Node11&#45;&gt;Node12 -->
<g id="edge17" class="edge">
<title>Node11&#45;&gt;Node12</title>
<path fill="none" stroke="#191970" d="M901.1142,-123.4639C920.6311,-113.9191 946.0945,-101.4663 967.2012,-91.144"/>
<polygon fill="#191970" stroke="#191970" points="968.8063,-94.2552 976.2519,-86.7177 965.731,-87.9669 968.8063,-94.2552"/>
</g>
<!-- Node12&#45;&gt;Node3 -->
<g id="edge18" class="edge">
<title>Node12&#45;&gt;Node3</title>
<path fill="none" stroke="#191970" d="M1038.5642,-86.6198C1052.5353,-95.1874 1067.5905,-107.3517 1075.3688,-123 1081.5015,-135.3376 1083.3346,-142.7584 1075.3688,-154 1048.4025,-192.0554 928.1927,-225.8756 846.713,-245.0054"/>
<polygon fill="#191970" stroke="#191970" points="845.4319,-241.7096 836.4813,-247.3785 847.0135,-248.5286 845.4319,-241.7096"/>
</g>
<!-- Node13&#45;&gt;Node3 -->
<g id="edge20" class="edge">
<title>Node13&#45;&gt;Node3</title>
<path fill="none" stroke="#191970" d="M982.9251,-153.513C942.6566,-175.7107 862.3388,-217.3047 812.4204,-241.8867"/>
<polygon fill="#191970" stroke="#191970" points="810.6085,-238.8767 803.1665,-246.4178 813.6868,-245.1636 810.6085,-238.8767"/>
</g>
<!-- Node13&#45;&gt;Node12 -->
<g id="edge21" class="edge">
<title>Node13&#45;&gt;Node12</title>
<path fill="none" stroke="#191970" d="M1007.3688,-123.2967C1007.3688,-115.5013 1007.3688,-105.7991 1007.3688,-96.9064"/>
<polygon fill="#191970" stroke="#191970" points="1010.8689,-96.6431 1007.3688,-86.6432 1003.8689,-96.6432 1010.8689,-96.6431"/>
</g>
<!-- Node14&#45;&gt;Node3 -->
<g id="edge23" class="edge">
<title>Node14&#45;&gt;Node3</title>
<path fill="none" stroke="#191970" d="M439.9372,-148.1866C463.0014,-163.6175 503.9278,-193.6974 543.3688,-210 591.186,-229.7649 647.7544,-242.4606 692.3873,-250.3005"/>
<polygon fill="#191970" stroke="#191970" points="691.8532,-253.76 702.3003,-251.997 693.034,-246.8603 691.8532,-253.76"/>
</g>
<!-- Node16&#45;&gt;Node3 -->
<g id="edge26" class="edge">
<title>Node16&#45;&gt;Node3</title>
<path fill="none" stroke="#191970" d="M1181.3714,-153.6183C1170.2162,-170.3716 1145.8096,-196.7665 1118.3688,-210 1072.1383,-232.295 934.6309,-247.8734 846.587,-255.7001"/>
<polygon fill="#191970" stroke="#191970" points="846.0275,-252.2356 836.3703,-256.5933 846.6372,-259.209 846.0275,-252.2356"/>
</g>
<!-- Node16&#45;&gt;Node17 -->
<g id="edge27" class="edge">
<title>Node16&#45;&gt;Node17</title>
<path fill="none" stroke="#191970" d="M1202.9336,-123.2967C1214.4178,-112.7564 1229.7,-98.7303 1241.465,-87.9323"/>
<polygon fill="#191970" stroke="#191970" points="1243.9574,-90.3954 1248.9581,-81.055 1239.2241,-85.2382 1243.9574,-90.3954"/>
</g>
<!-- Node17&#45;&gt;Node2 -->
<g id="edge28" class="edge">
<title>Node17&#45;&gt;Node2</title>
<path fill="none" stroke="#191970" d="M1274.9938,-61.8906C1291.1385,-51.9616 1316.5509,-36.333 1335.2711,-24.8201"/>
<polygon fill="#191970" stroke="#191970" points="1337.169,-27.7619 1343.8535,-19.5419 1333.5019,-21.7992 1337.169,-27.7619"/>
</g>
<!-- Node17&#45;&gt;Node3 -->
<g id="edge29" class="edge">
<title>Node17&#45;&gt;Node3</title>
<path fill="none" stroke="#191970" d="M1267.4944,-81.0462C1275.0733,-97.3994 1280.7235,-131.2089 1266.3688,-154 1237.1319,-200.4197 1208.7268,-193.6228 1156.3688,-210 1052.6198,-242.452 926.5262,-254.461 847.0147,-258.901"/>
<polygon fill="#191970" stroke="#191970" points="846.3932,-255.429 836.5929,-259.4544 846.7644,-262.4191 846.3932,-255.429"/>
</g>
<!-- Node18&#45;&gt;Node2 -->
<g id="edge40" class="edge">
<title>Node18&#45;&gt;Node2</title>
<path fill="none" stroke="#191970" d="M1448.5691,-246.1461C1432.0526,-202.4208 1384.7902,-77.2999 1366.6133,-29.1789"/>
<polygon fill="#191970" stroke="#191970" points="1369.822,-27.7685 1363.0141,-19.6505 1363.2736,-30.2421 1369.822,-27.7685"/>
</g>
</g>
</svg>
