<?xml version="1.0" encoding="UTF-8" standalone="no"?>
<!DOCTYPE svg PUBLIC "-//W3C//DTD SVG 1.1//EN"
 "http://www.w3.org/Graphics/SVG/1.1/DTD/svg11.dtd">
<!-- Generated by graphviz version 2.40.1 (20161225.0304)
 -->
<!-- Title: ViennaRNA/grammar.h Pages: 1 -->
<svg width="1251pt" height="341pt"
 viewBox="0.00 0.00 1250.50 341.00" xmlns="http://www.w3.org/2000/svg" xmlns:xlink="http://www.w3.org/1999/xlink">
<g id="graph0" class="graph" transform="scale(1 1) rotate(0) translate(4 337)">
<title>ViennaRNA/grammar.h</title>
<!-- Node0 -->
<g id="node1" class="node">
<title>Node0</title>
<polygon fill="#bfbfbf" stroke="#000000" points="611.5,-313.5 611.5,-332.5 729.5,-332.5 729.5,-313.5 611.5,-313.5"/>
<text text-anchor="middle" x="670.5" y="-320.5" font-family="Helvetica,sans-Serif" font-size="10.00" fill="#000000">ViennaRNA/grammar.h</text>
</g>
<!-- Node1 -->
<g id="node2" class="node">
<title>Node1</title>
<g id="a_node2"><a xlink:href="datastructures_2basic_8h.html" target="_top" xlink:title="Various data structures and pre&#45;processor macros. ">
<polygon fill="none" stroke="#000000" points="603.5,-246.5 603.5,-276.5 737.5,-276.5 737.5,-246.5 603.5,-246.5"/>
<text text-anchor="start" x="611.5" y="-264.5" font-family="Helvetica,sans-Serif" font-size="10.00" fill="#000000">ViennaRNA/datastructures</text>
<text text-anchor="middle" x="670.5" y="-253.5" font-family="Helvetica,sans-Serif" font-size="10.00" fill="#000000">/basic.h</text>
</a>
</g>
</g>
<!-- Node0&#45;&gt;Node1 -->
<g id="edge1" class="edge">
<title>Node0&#45;&gt;Node1</title>
<path fill="none" stroke="#191970" d="M665.4375,-313.3906C664.039,-306.2234 663.5098,-296.0862 663.8497,-286.671"/>
<polygon fill="#191970" stroke="#191970" points="667.3515,-286.7767 664.6029,-276.5446 660.3707,-286.2574 667.3515,-286.7767"/>
</g>
<!-- Node1&#45;&gt;Node0 -->
<g id="edge32" class="edge">
<title>Node1&#45;&gt;Node0</title>
<path fill="none" stroke="#191970" d="M676.3971,-276.5446C677.3593,-284.6241 677.5074,-294.681 676.8414,-303.3693"/>
<polygon fill="#191970" stroke="#191970" points="673.3567,-303.028 675.5625,-313.3906 680.3003,-303.9142 673.3567,-303.028"/>
</g>
<!-- Node2 -->
<g id="node3" class="node">
<title>Node2</title>
<g id="a_node3"><a xlink:href="constants_8h.html" target="_top" xlink:title="Energy parameter constants. ">
<polygon fill="none" stroke="#000000" points="727.5,-62 727.5,-81 885.5,-81 885.5,-62 727.5,-62"/>
<text text-anchor="middle" x="806.5" y="-69" font-family="Helvetica,sans-Serif" font-size="10.00" fill="#000000">ViennaRNA/params/constants.h</text>
</a>
</g>
</g>
<!-- Node1&#45;&gt;Node2 -->
<g id="edge2" class="edge">
<title>Node1&#45;&gt;Node2</title>
<path fill="none" stroke="#191970" d="M704.4651,-246.4498C738.1545,-229.4366 787.7931,-198.2289 809.5,-154 819.1865,-134.2632 816.1873,-108.5574 812.2273,-91.1226"/>
<polygon fill="#191970" stroke="#191970" points="815.5031,-89.8103 809.6099,-81.0057 808.7262,-91.5636 815.5031,-89.8103"/>
</g>
<!-- Node4 -->
<g id="node5" class="node">
<title>Node4</title>
<g id="a_node5"><a xlink:href="fold__compound_8h.html" target="_top" xlink:title="The Basic Fold Compound API. ">
<polygon fill="none" stroke="#000000" points="460.5,-190.5 460.5,-209.5 606.5,-209.5 606.5,-190.5 460.5,-190.5"/>
<text text-anchor="middle" x="533.5" y="-197.5" font-family="Helvetica,sans-Serif" font-size="10.00" fill="#000000">ViennaRNA/fold_compound.h</text>
</a>
</g>
</g>
<!-- Node1&#45;&gt;Node4 -->
<g id="edge4" class="edge">
<title>Node1&#45;&gt;Node4</title>
<path fill="none" stroke="#191970" d="M636.986,-246.4554C614.7288,-236.464 585.7353,-223.4487 564.1015,-213.7372"/>
<polygon fill="#191970" stroke="#191970" points="565.2865,-210.4327 554.7301,-209.5303 562.4197,-216.8187 565.2865,-210.4327"/>
</g>
<!-- Node5 -->
<g id="node6" class="node">
<title>Node5</title>
<g id="a_node6"><a xlink:href="model_8h.html" target="_top" xlink:title="The model details data structure and its corresponding modifiers. ">
<polygon fill="none" stroke="#000000" points="581.5,-62 581.5,-81 687.5,-81 687.5,-62 581.5,-62"/>
<text text-anchor="middle" x="634.5" y="-69" font-family="Helvetica,sans-Serif" font-size="10.00" fill="#000000">ViennaRNA/model.h</text>
</a>
</g>
</g>
<!-- Node1&#45;&gt;Node5 -->
<g id="edge27" class="edge">
<title>Node1&#45;&gt;Node5</title>
<path fill="none" stroke="#191970" d="M667.6148,-246.2727C661.1432,-212.1167 645.472,-129.408 638.254,-91.313"/>
<polygon fill="#191970" stroke="#191970" points="641.6054,-90.1994 636.3049,-81.0258 634.7278,-91.5026 641.6054,-90.1994"/>
</g>
<!-- Node6 -->
<g id="node7" class="node">
<title>Node6</title>
<g id="a_node7"><a xlink:href="params_2basic_8h.html" target="_top" xlink:title="Functions to deal with sets of energy parameters. ">
<polygon fill="none" stroke="#000000" points="662.5,-129 662.5,-148 800.5,-148 800.5,-129 662.5,-129"/>
<text text-anchor="middle" x="731.5" y="-136" font-family="Helvetica,sans-Serif" font-size="10.00" fill="#000000">ViennaRNA/params/basic.h</text>
</a>
</g>
</g>
<!-- Node1&#45;&gt;Node6 -->
<g id="edge28" class="edge">
<title>Node1&#45;&gt;Node6</title>
<path fill="none" stroke="#191970" d="M673.3655,-246.4178C681.872,-223.765 702.9536,-181.0248 717.5247,-156.6811"/>
<polygon fill="#191970" stroke="#191970" points="720.5902,-158.3806 722.9385,-148.0493 714.66,-154.6612 720.5902,-158.3806"/>
</g>
<!-- Node8 -->
<g id="node9" class="node">
<title>Node8</title>
<g id="a_node9"><a xlink:href="dp__matrices_8h.html" target="_top" xlink:title="Functions to deal with standard dynamic programming (DP) matrices. ">
<polygon fill="none" stroke="#000000" points="1000,-129 1000,-148 1133,-148 1133,-129 1000,-129"/>
<text text-anchor="middle" x="1066.5" y="-136" font-family="Helvetica,sans-Serif" font-size="10.00" fill="#000000">ViennaRNA/dp_matrices.h</text>
</a>
</g>
</g>
<!-- Node1&#45;&gt;Node8 -->
<g id="edge29" class="edge">
<title>Node1&#45;&gt;Node8</title>
<path fill="none" stroke="#191970" d="M731.7301,-246.4591C771.0992,-237.1086 823.0769,-224.1882 868.5,-210 924.8383,-192.4024 988.7564,-167.0536 1028.5131,-151.7423"/>
<polygon fill="#191970" stroke="#191970" points="1029.995,-154.9227 1038.0809,-148.0766 1027.4906,-148.386 1029.995,-154.9227"/>
</g>
<!-- Node9 -->
<g id="node10" class="node">
<title>Node9</title>
<g id="a_node10"><a xlink:href="hard_8h.html" target="_top" xlink:title="Functions and data structures for handling of secondary structure hard constraints. ">
<polygon fill="none" stroke="#000000" points="0,-123.5 0,-153.5 119,-153.5 119,-123.5 0,-123.5"/>
<text text-anchor="start" x="8" y="-141.5" font-family="Helvetica,sans-Serif" font-size="10.00" fill="#000000">ViennaRNA/constraints</text>
<text text-anchor="middle" x="59.5" y="-130.5" font-family="Helvetica,sans-Serif" font-size="10.00" fill="#000000">/hard.h</text>
</a>
</g>
</g>
<!-- Node1&#45;&gt;Node9 -->
<g id="edge30" class="edge">
<title>Node1&#45;&gt;Node9</title>
<path fill="none" stroke="#191970" d="M603.1524,-260.6421C476.2848,-258.1232 207.536,-248.2746 124.5,-210 101.5026,-199.3996 81.285,-178.6167 69.3475,-162.1777"/>
<polygon fill="#191970" stroke="#191970" points="72.0698,-159.9522 63.6024,-153.584 66.2505,-163.8426 72.0698,-159.9522"/>
</g>
<!-- Node11 -->
<g id="node12" class="node">
<title>Node11</title>
<g id="a_node12"><a xlink:href="soft_8h.html" target="_top" xlink:title="Functions and data structures for secondary structure soft constraints. ">
<polygon fill="none" stroke="#000000" points="176,-123.5 176,-153.5 295,-153.5 295,-123.5 176,-123.5"/>
<text text-anchor="start" x="184" y="-141.5" font-family="Helvetica,sans-Serif" font-size="10.00" fill="#000000">ViennaRNA/constraints</text>
<text text-anchor="middle" x="235.5" y="-130.5" font-family="Helvetica,sans-Serif" font-size="10.00" fill="#000000">/soft.h</text>
</a>
</g>
</g>
<!-- Node1&#45;&gt;Node11 -->
<g id="edge31" class="edge">
<title>Node1&#45;&gt;Node11</title>
<path fill="none" stroke="#191970" d="M603.3324,-252.3043C549.7653,-243.6654 473.4053,-229.1972 408.5,-210 359.8483,-195.6102 305.9743,-173.6539 271.3467,-157.8696"/>
<polygon fill="#191970" stroke="#191970" points="272.6558,-154.6188 262.1107,-153.5928 269.7143,-160.9708 272.6558,-154.6188"/>
</g>
<!-- Node12 -->
<g id="node13" class="node">
<title>Node12</title>
<g id="a_node13"><a xlink:href="structured__domains_8h.html" target="_top" xlink:title="This module provides interfaces that deal with additional structured domains in the folding grammar...">
<polygon fill="none" stroke="#000000" points="313,-123.5 313,-153.5 428,-153.5 428,-123.5 313,-123.5"/>
<text text-anchor="start" x="321" y="-141.5" font-family="Helvetica,sans-Serif" font-size="10.00" fill="#000000">ViennaRNA/structured</text>
<text text-anchor="middle" x="370.5" y="-130.5" font-family="Helvetica,sans-Serif" font-size="10.00" fill="#000000">_domains.h</text>
</a>
</g>
</g>
<!-- Node1&#45;&gt;Node12 -->
<g id="edge33" class="edge">
<title>Node1&#45;&gt;Node12</title>
<path fill="none" stroke="#191970" d="M603.3436,-254.3889C558.4123,-247.5921 499.0347,-234.5705 451.5,-210 427.8723,-197.7869 405.5684,-177.1673 390.3708,-161.2007"/>
<polygon fill="#191970" stroke="#191970" points="392.8707,-158.7491 383.5063,-153.7935 387.7365,-163.5073 392.8707,-158.7491"/>
</g>
<!-- Node13 -->
<g id="node14" class="node">
<title>Node13</title>
<g id="a_node14"><a xlink:href="unstructured__domains_8h.html" target="_top" xlink:title="Functions to modify unstructured domains, e.g. to incorporate ligands binding to unpaired stretches...">
<polygon fill="none" stroke="#000000" points="857,-123.5 857,-153.5 982,-153.5 982,-123.5 857,-123.5"/>
<text text-anchor="start" x="865" y="-141.5" font-family="Helvetica,sans-Serif" font-size="10.00" fill="#000000">ViennaRNA/unstructured</text>
<text text-anchor="middle" x="919.5" y="-130.5" font-family="Helvetica,sans-Serif" font-size="10.00" fill="#000000">_domains.h</text>
</a>
</g>
</g>
<!-- Node1&#45;&gt;Node13 -->
<g id="edge34" class="edge">
<title>Node1&#45;&gt;Node13</title>
<path fill="none" stroke="#191970" d="M737.6121,-246.8584C768.123,-238.8212 803.8735,-226.9492 833.5,-210 855.9527,-197.1548 877.1561,-176.6033 893.1351,-160.8233"/>
<polygon fill="#191970" stroke="#191970" points="895.8821,-163.0297 900.5422,-153.5147 890.9656,-158.0469 895.8821,-163.0297"/>
</g>
<!-- Node14 -->
<g id="node15" class="node">
<title>Node14</title>
<g id="a_node15"><a xlink:href="utils_2structures_8h.html" target="_top" xlink:title="Various utility&#45; and helper&#45;functions for secondary structure parsing, converting, etc. ">
<polygon fill="none" stroke="#000000" points="1098.5,-62 1098.5,-81 1242.5,-81 1242.5,-62 1098.5,-62"/>
<text text-anchor="middle" x="1170.5" y="-69" font-family="Helvetica,sans-Serif" font-size="10.00" fill="#000000">ViennaRNA/utils/structures.h</text>
</a>
</g>
</g>
<!-- Node1&#45;&gt;Node14 -->
<g id="edge35" class="edge">
<title>Node1&#45;&gt;Node14</title>
<path fill="none" stroke="#191970" d="M737.7737,-253.8414C851.8513,-240.0523 1076.1454,-207.407 1133.5,-154 1151.0813,-137.6288 1157.6248,-109.8155 1162.2086,-91.0596"/>
<polygon fill="#191970" stroke="#191970" points="1165.6385,-91.7755 1164.7496,-81.2181 1158.8607,-90.0255 1165.6385,-91.7755"/>
</g>
<!-- Node3 -->
<g id="node4" class="node">
<title>Node3</title>
<polygon fill="none" stroke="#bfbfbf" points="782.5,-.5 782.5,-19.5 830.5,-19.5 830.5,-.5 782.5,-.5"/>
<text text-anchor="middle" x="806.5" y="-7.5" font-family="Helvetica,sans-Serif" font-size="10.00" fill="#000000">limits.h</text>
</g>
<!-- Node2&#45;&gt;Node3 -->
<g id="edge3" class="edge">
<title>Node2&#45;&gt;Node3</title>
<path fill="none" stroke="#191970" d="M806.5,-61.8906C806.5,-53.3657 806.5,-40.6392 806.5,-29.9235"/>
<polygon fill="#191970" stroke="#191970" points="810.0001,-29.7448 806.5,-19.7449 803.0001,-29.7449 810.0001,-29.7448"/>
</g>
<!-- Node4&#45;&gt;Node0 -->
<g id="edge20" class="edge">
<title>Node4&#45;&gt;Node0</title>
<path fill="none" stroke="#191970" d="M539.6755,-209.9218C549.7466,-225.5487 570.9609,-256.2481 594.5,-277 608.6795,-289.5005 626.7018,-300.5753 641.6374,-308.7242"/>
<polygon fill="#191970" stroke="#191970" points="640.0009,-311.818 650.476,-313.4065 643.2778,-305.6324 640.0009,-311.818"/>
</g>
<!-- Node4&#45;&gt;Node5 -->
<g id="edge5" class="edge">
<title>Node4&#45;&gt;Node5</title>
<path fill="none" stroke="#191970" d="M543.768,-190.1941C553.0088,-181.1585 566.7472,-167.1918 577.5,-154 594.7619,-132.8227 612.2809,-106.6057 623.2544,-89.4867"/>
<polygon fill="#191970" stroke="#191970" points="626.2352,-91.3216 628.6343,-81.002 620.3234,-87.5732 626.2352,-91.3216"/>
</g>
<!-- Node4&#45;&gt;Node6 -->
<g id="edge6" class="edge">
<title>Node4&#45;&gt;Node6</title>
<path fill="none" stroke="#191970" d="M564.4375,-190.3906C598.5837,-179.7846 653.6674,-162.6753 691.1735,-151.0257"/>
<polygon fill="#191970" stroke="#191970" points="692.268,-154.3507 700.7797,-148.0419 690.1916,-147.6658 692.268,-154.3507"/>
</g>
<!-- Node7 -->
<g id="node8" class="node">
<title>Node7</title>
<g id="a_node8"><a xlink:href="sequence_8h.html" target="_top" xlink:title="Functions and data structures related to sequence representations ,. ">
<polygon fill="none" stroke="#000000" points="446.5,-129 446.5,-148 568.5,-148 568.5,-129 446.5,-129"/>
<text text-anchor="middle" x="507.5" y="-136" font-family="Helvetica,sans-Serif" font-size="10.00" fill="#000000">ViennaRNA/sequence.h</text>
</a>
</g>
</g>
<!-- Node4&#45;&gt;Node7 -->
<g id="edge10" class="edge">
<title>Node4&#45;&gt;Node7</title>
<path fill="none" stroke="#191970" d="M529.4375,-190.3906C525.7576,-181.6862 520.2258,-168.6015 515.638,-157.7494"/>
<polygon fill="#191970" stroke="#191970" points="518.7375,-156.0927 511.6198,-148.2449 512.29,-158.8185 518.7375,-156.0927"/>
</g>
<!-- Node4&#45;&gt;Node8 -->
<g id="edge11" class="edge">
<title>Node4&#45;&gt;Node8</title>
<path fill="none" stroke="#191970" d="M606.7714,-194.9949C697.4481,-188.2602 856.4217,-174.6845 991.5,-154 998.9021,-152.8665 1006.6772,-151.4816 1014.3031,-150.0107"/>
<polygon fill="#191970" stroke="#191970" points="1015.0737,-153.426 1024.1981,-148.0414 1013.7073,-146.5607 1015.0737,-153.426"/>
</g>
<!-- Node4&#45;&gt;Node9 -->
<g id="edge13" class="edge">
<title>Node4&#45;&gt;Node9</title>
<path fill="none" stroke="#191970" d="M460.3331,-191.2479C386.2223,-182.2844 268.3173,-167.7543 166.5,-154 154.5109,-152.3804 141.7762,-150.5938 129.4314,-148.827"/>
<polygon fill="#191970" stroke="#191970" points="129.575,-145.3117 119.1784,-147.3516 128.5779,-152.2403 129.575,-145.3117"/>
</g>
<!-- Node4&#45;&gt;Node11 -->
<g id="edge17" class="edge">
<title>Node4&#45;&gt;Node11</title>
<path fill="none" stroke="#191970" d="M483.6195,-190.4227C439.1647,-181.7972 372.0744,-168.5599 305.0671,-154.3088"/>
<polygon fill="#191970" stroke="#191970" points="305.6945,-150.864 295.1841,-152.1993 304.2332,-157.7098 305.6945,-150.864"/>
</g>
<!-- Node4&#45;&gt;Node12 -->
<g id="edge21" class="edge">
<title>Node4&#45;&gt;Node12</title>
<path fill="none" stroke="#191970" d="M508.0313,-190.3906C484.5414,-181.5279 449.0155,-168.1239 419.955,-157.1594"/>
<polygon fill="#191970" stroke="#191970" points="420.966,-153.8001 410.3743,-153.5446 418.4949,-160.3494 420.966,-153.8001"/>
</g>
<!-- Node4&#45;&gt;Node13 -->
<g id="edge22" class="edge">
<title>Node4&#45;&gt;Node13</title>
<path fill="none" stroke="#191970" d="M593.389,-190.4581C661.748,-179.5667 773.5455,-161.7544 846.8307,-150.0781"/>
<polygon fill="#191970" stroke="#191970" points="847.5827,-153.5026 856.9074,-148.4727 846.4812,-146.5898 847.5827,-153.5026"/>
</g>
<!-- Node6&#45;&gt;Node1 -->
<g id="edge8" class="edge">
<title>Node6&#45;&gt;Node1</title>
<path fill="none" stroke="#191970" d="M730.5899,-148.0493C724.3861,-167.08 703.531,-210.2441 687.8803,-237.5044"/>
<polygon fill="#191970" stroke="#191970" points="684.6847,-236.0313 682.5941,-246.4178 690.7055,-239.602 684.6847,-236.0313"/>
</g>
<!-- Node6&#45;&gt;Node2 -->
<g id="edge7" class="edge">
<title>Node6&#45;&gt;Node2</title>
<path fill="none" stroke="#191970" d="M742.2457,-128.9005C754.164,-118.2535 773.6057,-100.8856 787.9868,-88.0385"/>
<polygon fill="#191970" stroke="#191970" points="790.6484,-90.354 795.7743,-81.0817 785.9849,-85.1337 790.6484,-90.354"/>
</g>
<!-- Node6&#45;&gt;Node5 -->
<g id="edge9" class="edge">
<title>Node6&#45;&gt;Node5</title>
<path fill="none" stroke="#191970" d="M717.6023,-128.9005C701.6836,-117.9052 675.3879,-99.7422 656.6401,-86.7927"/>
<polygon fill="#191970" stroke="#191970" points="658.5892,-83.8852 648.372,-81.0817 654.6108,-89.6448 658.5892,-83.8852"/>
</g>
<!-- Node8&#45;&gt;Node1 -->
<g id="edge12" class="edge">
<title>Node8&#45;&gt;Node1</title>
<path fill="none" stroke="#191970" d="M1049.5595,-148.0766C1017.6444,-162.7015 947.6128,-190.911 886.5,-210 841.1756,-224.1574 789.3252,-237.0524 747.7253,-246.398"/>
<polygon fill="#191970" stroke="#191970" points="746.9289,-242.9896 737.9266,-248.5761 748.4478,-249.8228 746.9289,-242.9896"/>
</g>
<!-- Node9&#45;&gt;Node1 -->
<g id="edge14" class="edge">
<title>Node9&#45;&gt;Node1</title>
<path fill="none" stroke="#191970" d="M76.5151,-153.584C91.8923,-170.5702 115.2439,-197.4366 142.5,-210 221.1727,-246.2634 466.5538,-257.0097 593.2332,-260.1813"/>
<polygon fill="#191970" stroke="#191970" points="593.1769,-263.6808 603.2582,-260.4226 593.3454,-256.6829 593.1769,-263.6808"/>
</g>
<!-- Node10 -->
<g id="node11" class="node">
<title>Node10</title>
<g id="a_node11"><a xlink:href="constraints_2basic_8h.html" target="_top" xlink:title="Functions and data structures for constraining secondary structure predictions and evaluation...">
<polygon fill="none" stroke="#000000" points="88,-56.5 88,-86.5 207,-86.5 207,-56.5 88,-56.5"/>
<text text-anchor="start" x="96" y="-74.5" font-family="Helvetica,sans-Serif" font-size="10.00" fill="#000000">ViennaRNA/constraints</text>
<text text-anchor="middle" x="147.5" y="-63.5" font-family="Helvetica,sans-Serif" font-size="10.00" fill="#000000">/basic.h</text>
</a>
</g>
</g>
<!-- Node9&#45;&gt;Node10 -->
<g id="edge15" class="edge">
<title>Node9&#45;&gt;Node10</title>
<path fill="none" stroke="#191970" d="M79.4686,-123.2967C91.2825,-114.302 106.4306,-102.7687 119.4327,-92.8694"/>
<polygon fill="#191970" stroke="#191970" points="121.7743,-95.4857 127.6105,-86.6432 117.5338,-89.9162 121.7743,-95.4857"/>
</g>
<!-- Node10&#45;&gt;Node1 -->
<g id="edge16" class="edge">
<title>Node10&#45;&gt;Node1</title>
<path fill="none" stroke="#191970" d="M146.6949,-86.6936C146.5818,-105.0381 149.2716,-135.7007 166.5,-154 223.898,-214.9656 466.8072,-244.2495 593.2592,-255.5882"/>
<polygon fill="#191970" stroke="#191970" points="593.0018,-259.079 603.2704,-256.4702 593.6161,-252.106 593.0018,-259.079"/>
</g>
<!-- Node11&#45;&gt;Node1 -->
<g id="edge18" class="edge">
<title>Node11&#45;&gt;Node1</title>
<path fill="none" stroke="#191970" d="M275.4214,-153.5928C313.7979,-169.4585 373.2742,-194.2573 426.5,-210 481.5774,-226.2904 544.9032,-239.1754 593.2931,-247.9828"/>
<polygon fill="#191970" stroke="#191970" points="592.9219,-251.4722 603.384,-249.8001 594.1627,-244.583 592.9219,-251.4722"/>
</g>
<!-- Node11&#45;&gt;Node10 -->
<g id="edge19" class="edge">
<title>Node11&#45;&gt;Node10</title>
<path fill="none" stroke="#191970" d="M215.5314,-123.2967C203.7175,-114.302 188.5694,-102.7687 175.5673,-92.8694"/>
<polygon fill="#191970" stroke="#191970" points="177.4662,-89.9162 167.3895,-86.6432 173.2257,-95.4857 177.4662,-89.9162"/>
</g>
<!-- Node13&#45;&gt;Node1 -->
<g id="edge23" class="edge">
<title>Node13&#45;&gt;Node1</title>
<path fill="none" stroke="#191970" d="M913.7226,-153.5147C902.0619,-169.671 877.6268,-195.0529 851.5,-210 819.7333,-228.1736 780.9259,-240.51 747.3497,-248.5406"/>
<polygon fill="#191970" stroke="#191970" points="746.5296,-245.1378 737.5712,-250.7944 748.1019,-251.9589 746.5296,-245.1378"/>
</g>
<!-- Node13&#45;&gt;Node14 -->
<g id="edge24" class="edge">
<title>Node13&#45;&gt;Node14</title>
<path fill="none" stroke="#191970" d="M975.8293,-123.4639C1020.8281,-111.4522 1083.0809,-94.835 1124.9664,-83.6544"/>
<polygon fill="#191970" stroke="#191970" points="1126.1316,-86.966 1134.8906,-81.0053 1124.3262,-80.2028 1126.1316,-86.966"/>
</g>
<!-- Node14&#45;&gt;Node1 -->
<g id="edge26" class="edge">
<title>Node14&#45;&gt;Node1</title>
<path fill="none" stroke="#191970" d="M1175.3907,-81.2181C1177.7681,-98.4574 1172.5319,-134.4157 1151.5,-154 1094.0515,-207.4944 869.1162,-240.1592 748.2202,-253.909"/>
<polygon fill="#191970" stroke="#191970" points="747.4693,-250.4712 737.9213,-255.0631 748.2489,-257.4276 747.4693,-250.4712"/>
</g>
<!-- Node15 -->
<g id="node16" class="node">
<title>Node15</title>
<polygon fill="none" stroke="#bfbfbf" points="1147.5,-.5 1147.5,-19.5 1193.5,-19.5 1193.5,-.5 1147.5,-.5"/>
<text text-anchor="middle" x="1170.5" y="-7.5" font-family="Helvetica,sans-Serif" font-size="10.00" fill="#000000">stdio.h</text>
</g>
<!-- Node14&#45;&gt;Node15 -->
<g id="edge25" class="edge">
<title>Node14&#45;&gt;Node15</title>
<path fill="none" stroke="#191970" d="M1170.5,-61.8906C1170.5,-53.3657 1170.5,-40.6392 1170.5,-29.9235"/>
<polygon fill="#191970" stroke="#191970" points="1174.0001,-29.7448 1170.5,-19.7449 1167.0001,-29.7449 1174.0001,-29.7448"/>
</g>
</g>
</svg>
