<?xml version="1.0" encoding="UTF-8" standalone="no"?>
<!DOCTYPE svg PUBLIC "-//W3C//DTD SVG 1.1//EN"
 "http://www.w3.org/Graphics/SVG/1.1/DTD/svg11.dtd">
<!-- Generated by graphviz version 2.40.1 (20161225.0304)
 -->
<!-- Title: Distance Based Partitioning of the Secondary Structure Space Pages: 1 -->
<svg width="524pt" height="160pt"
 viewBox="0.00 0.00 524.00 159.50" xmlns="http://www.w3.org/2000/svg" xmlns:xlink="http://www.w3.org/1999/xlink">
<g id="graph0" class="graph" transform="scale(1 1) rotate(0) translate(4 155.5)">
<title>Distance Based Partitioning of the Secondary Structure Space</title>
<!-- Node4 -->
<g id="node1" class="node">
<title>Node4</title>
<g id="a_node1"><a xlink:href="group__kl__neighborhood__stochbt.html" target="_top" xlink:title="Contains functions related to stochastic backtracking from a specified distance class. ">
<polygon fill="none" stroke="#000000" points="365.5,-110 365.5,-151 505.5,-151 505.5,-110 365.5,-110"/>
<text text-anchor="start" x="373.5" y="-139" font-family="Helvetica,sans-Serif" font-size="10.00" fill="#000000">Stochastic Backtracking</text>
<text text-anchor="start" x="373.5" y="-128" font-family="Helvetica,sans-Serif" font-size="10.00" fill="#000000"> of Structures from Distance</text>
<text text-anchor="middle" x="435.5" y="-117" font-family="Helvetica,sans-Serif" font-size="10.00" fill="#000000"> Based Partitioning</text>
</a>
</g>
</g>
<!-- Node1 -->
<g id="node2" class="node">
<title>Node1</title>
<g id="a_node2"><a xlink:href="group__class__fold.html" target="_top" xlink:title="Classified Dynamic\l Programming Variants">
<polygon fill="none" stroke="#000000" points="0,-55.5 0,-85.5 116,-85.5 116,-55.5 0,-55.5"/>
<text text-anchor="start" x="8" y="-73.5" font-family="Helvetica,sans-Serif" font-size="10.00" fill="#000000">Classified Dynamic</text>
<text text-anchor="middle" x="58" y="-62.5" font-family="Helvetica,sans-Serif" font-size="10.00" fill="#000000"> Programming Variants</text>
</a>
</g>
</g>
<!-- Node0 -->
<g id="node3" class="node">
<title>Node0</title>
<polygon fill="#bfbfbf" stroke="#000000" points="152,-55.5 152,-85.5 319,-85.5 319,-55.5 152,-55.5"/>
<text text-anchor="start" x="160" y="-73.5" font-family="Helvetica,sans-Serif" font-size="10.00" fill="#000000">Distance Based Partitioning</text>
<text text-anchor="middle" x="235.5" y="-62.5" font-family="Helvetica,sans-Serif" font-size="10.00" fill="#000000"> of the Secondary Structure Space</text>
</g>
<!-- Node1&#45;&gt;Node0 -->
<g id="edge1" class="edge">
<title>Node1&#45;&gt;Node0</title>
<path fill="none" stroke="#000000" d="M126.1996,-70.5C134.586,-70.5 143.2315,-70.5 151.8137,-70.5"/>
<polygon fill="#000000" stroke="#000000" points="126.1202,-67.0001 116.1201,-70.5 126.1201,-74.0001 126.1202,-67.0001"/>
</g>
<!-- Node0&#45;&gt;Node4 -->
<g id="edge4" class="edge">
<title>Node0&#45;&gt;Node4</title>
<path fill="none" stroke="#000000" d="M295.4928,-88.4978C318.0517,-95.2655 343.8633,-103.009 367.1286,-109.9886"/>
<polygon fill="#000000" stroke="#000000" points="296.2943,-85.0842 285.7103,-85.5631 294.2828,-91.789 296.2943,-85.0842"/>
</g>
<!-- Node3 -->
<g id="node4" class="node">
<title>Node3</title>
<g id="a_node4"><a xlink:href="group__kl__neighborhood__pf.html" target="_top" xlink:title="Compute the partition function and stochastically sample secondary structures for a partitioning of t...">
<polygon fill="none" stroke="#000000" points="373.5,-50 373.5,-91 497.5,-91 497.5,-50 373.5,-50"/>
<text text-anchor="start" x="381.5" y="-79" font-family="Helvetica,sans-Serif" font-size="10.00" fill="#000000">Computing Partition</text>
<text text-anchor="start" x="381.5" y="-68" font-family="Helvetica,sans-Serif" font-size="10.00" fill="#000000"> Functions of a Distance</text>
<text text-anchor="middle" x="435.5" y="-57" font-family="Helvetica,sans-Serif" font-size="10.00" fill="#000000"> Based Partitioning</text>
</a>
</g>
</g>
<!-- Node0&#45;&gt;Node3 -->
<g id="edge3" class="edge">
<title>Node0&#45;&gt;Node3</title>
<path fill="none" stroke="#000000" d="M329.4568,-70.5C344.3966,-70.5 359.5169,-70.5 373.4774,-70.5"/>
<polygon fill="#000000" stroke="#000000" points="329.1592,-67.0001 319.1592,-70.5 329.1591,-74.0001 329.1592,-67.0001"/>
</g>
<!-- Node2 -->
<g id="node5" class="node">
<title>Node2</title>
<g id="a_node5"><a xlink:href="group__kl__neighborhood__mfe.html" target="_top" xlink:title="Compute the minimum free energy (MFE) and secondary structures for a partitioning of the secondary st...">
<polygon fill="none" stroke="#000000" points="355,-.5 355,-30.5 516,-30.5 516,-.5 355,-.5"/>
<text text-anchor="start" x="363" y="-18.5" font-family="Helvetica,sans-Serif" font-size="10.00" fill="#000000">Computing MFE representatives</text>
<text text-anchor="middle" x="435.5" y="-7.5" font-family="Helvetica,sans-Serif" font-size="10.00" fill="#000000"> of a Distance Based Partitioning</text>
</a>
</g>
</g>
<!-- Node0&#45;&gt;Node2 -->
<g id="edge2" class="edge">
<title>Node0&#45;&gt;Node2</title>
<path fill="none" stroke="#000000" d="M299.9589,-52.7738C326.0712,-45.5929 355.9002,-37.3899 380.9152,-30.5108"/>
<polygon fill="#000000" stroke="#000000" points="298.8649,-49.4447 290.1509,-55.471 300.721,-56.1941 298.8649,-49.4447"/>
</g>
</g>
</svg>
