<?xml version="1.0" encoding="UTF-8" standalone="no"?>
<!DOCTYPE svg PUBLIC "-//W3C//DTD SVG 1.1//EN"
 "http://www.w3.org/Graphics/SVG/1.1/DTD/svg11.dtd">
<!-- Generated by graphviz version 2.40.1 (20161225.0304)
 -->
<!-- Title: Stochastic Backtracking of Structures from Distance Based Partitioning Pages: 1 -->
<svg width="351pt" height="88pt"
 viewBox="0.00 0.00 351.00 88.00" xmlns="http://www.w3.org/2000/svg" xmlns:xlink="http://www.w3.org/1999/xlink">
<g id="graph0" class="graph" transform="scale(1 1) rotate(0) translate(4 84)">
<title>Stochastic Backtracking of Structures from Distance Based Partitioning</title>
<!-- Node0 -->
<g id="node1" class="node">
<title>Node0</title>
<polygon fill="#bfbfbf" stroke="#000000" points="203,-19 203,-60 343,-60 343,-19 203,-19"/>
<text text-anchor="start" x="211" y="-48" font-family="Helvetica,sans-Serif" font-size="10.00" fill="#000000">Stochastic Backtracking</text>
<text text-anchor="start" x="211" y="-37" font-family="Helvetica,sans-Serif" font-size="10.00" fill="#000000"> of Structures from Distance</text>
<text text-anchor="middle" x="273" y="-26" font-family="Helvetica,sans-Serif" font-size="10.00" fill="#000000"> Based Partitioning</text>
</g>
<!-- Node1 -->
<g id="node2" class="node">
<title>Node1</title>
<g id="a_node2"><a xlink:href="group__kl__neighborhood.html" target="_top" xlink:title="Distance Based Partitioning\l of the Secondary Structure Space">
<polygon fill="none" stroke="#000000" points="0,-49.5 0,-79.5 167,-79.5 167,-49.5 0,-49.5"/>
<text text-anchor="start" x="8" y="-67.5" font-family="Helvetica,sans-Serif" font-size="10.00" fill="#000000">Distance Based Partitioning</text>
<text text-anchor="middle" x="83.5" y="-56.5" font-family="Helvetica,sans-Serif" font-size="10.00" fill="#000000"> of the Secondary Structure Space</text>
</a>
</g>
</g>
<!-- Node1&#45;&gt;Node0 -->
<g id="edge1" class="edge">
<title>Node1&#45;&gt;Node0</title>
<path fill="none" stroke="#000000" d="M177.247,-52.1323C185.8507,-50.9973 194.4655,-49.8608 202.8074,-48.7602"/>
<polygon fill="#000000" stroke="#000000" points="176.6254,-48.6839 167.1691,-53.4619 177.541,-55.6238 176.6254,-48.6839"/>
</g>
<!-- Node2 -->
<g id="node3" class="node">
<title>Node2</title>
<g id="a_node3"><a xlink:href="group__subopt__stochbt.html" target="_top" xlink:title="Functions to draw random structure samples from the ensemble according to their equilibrium probabili...">
<polygon fill="none" stroke="#000000" points="15,-.5 15,-30.5 152,-30.5 152,-.5 15,-.5"/>
<text text-anchor="start" x="23" y="-18.5" font-family="Helvetica,sans-Serif" font-size="10.00" fill="#000000">Random Structure Samples</text>
<text text-anchor="middle" x="83.5" y="-7.5" font-family="Helvetica,sans-Serif" font-size="10.00" fill="#000000"> from the Ensemble</text>
</a>
</g>
</g>
<!-- Node2&#45;&gt;Node0 -->
<g id="edge2" class="edge">
<title>Node2&#45;&gt;Node0</title>
<path fill="none" stroke="#000000" d="M162.3742,-25.4893C175.8394,-27.1947 189.7449,-28.9558 202.9609,-30.6296"/>
<polygon fill="#000000" stroke="#000000" points="162.5423,-21.9828 152.1818,-24.1985 161.6627,-28.9273 162.5423,-21.9828"/>
</g>
</g>
</svg>
