<?xml version="1.0" encoding="UTF-8" standalone="no"?>
<!DOCTYPE svg PUBLIC "-//W3C//DTD SVG 1.1//EN"
 "http://www.w3.org/Graphics/SVG/1.1/DTD/svg11.dtd">
<!-- Generated by graphviz version 2.40.1 (20161225.0304)
 -->
<!-- Title: Combinatorics Algorithms Pages: 1 -->
<svg width="293pt" height="29pt"
 viewBox="0.00 0.00 293.00 29.00" xmlns="http://www.w3.org/2000/svg" xmlns:xlink="http://www.w3.org/1999/xlink">
<g id="graph0" class="graph" transform="scale(1 1) rotate(0) translate(4 25)">
<title>Combinatorics Algorithms</title>
<!-- Node0 -->
<g id="node1" class="node">
<title>Node0</title>
<polygon fill="#bfbfbf" stroke="#000000" points="0,-.5 0,-19.5 129,-19.5 129,-.5 0,-.5"/>
<text text-anchor="middle" x="64.5" y="-7.5" font-family="Helvetica,sans-Serif" font-size="10.00" fill="#000000">Combinatorics Algorithms</text>
</g>
<!-- Node1 -->
<g id="node2" class="node">
<title>Node1</title>
<g id="a_node2"><a xlink:href="group__utils.html" target="_top" xlink:title="Utilities">
<polygon fill="none" stroke="#000000" points="235,-.5 235,-19.5 285,-19.5 285,-.5 235,-.5"/>
<text text-anchor="middle" x="260" y="-7.5" font-family="Helvetica,sans-Serif" font-size="10.00" fill="#000000">Utilities</text>
</a>
</g>
</g>
<!-- Node0&#45;&gt;Node1 -->
<g id="edge2" class="edge">
<title>Node0&#45;&gt;Node1</title>
<path fill="none" stroke="#006400" stroke-dasharray="5,2" d="M129.0558,-10C165.0912,-10 207.9561,-10 234.5765,-10"/>
<text text-anchor="middle" x="182" y="-13" font-family="Helvetica,sans-Serif" font-size="10.00" fill="#000000">combinatorics.h</text>
</g>
<!-- Node1&#45;&gt;Node0 -->
<g id="edge1" class="edge">
<title>Node1&#45;&gt;Node0</title>
<path fill="none" stroke="#000000" d="M224.834,-8.2307C222.1835,-8.1383 219.5496,-8.0593 217,-8 188.1468,-7.3294 156.2172,-7.5924 129.0618,-8.1156"/>
<polygon fill="#000000" stroke="#000000" points="224.8625,-11.7346 234.9954,-8.6403 225.1445,-4.7403 224.8625,-11.7346"/>
</g>
</g>
</svg>
