<?xml version="1.0" encoding="UTF-8" standalone="no"?>
<!DOCTYPE svg PUBLIC "-//W3C//DTD SVG 1.1//EN"
 "http://www.w3.org/Graphics/SVG/1.1/DTD/svg11.dtd">
<!-- Generated by graphviz version 2.40.1 (20161225.0304)
 -->
<!-- Title: Refolding Paths of Secondary Structures Pages: 1 -->
<svg width="469pt" height="50pt"
 viewBox="0.00 0.00 469.00 50.00" xmlns="http://www.w3.org/2000/svg" xmlns:xlink="http://www.w3.org/1999/xlink">
<g id="graph0" class="graph" transform="scale(1 1) rotate(0) translate(4 46)">
<title>Refolding Paths of Secondary Structures</title>
<!-- Node0 -->
<g id="node1" class="node">
<title>Node0</title>
<polygon fill="#bfbfbf" stroke="#000000" points="186,-6 186,-36 300,-36 300,-6 186,-6"/>
<text text-anchor="start" x="194" y="-24" font-family="Helvetica,sans-Serif" font-size="10.00" fill="#000000">Refolding Paths of</text>
<text text-anchor="middle" x="243" y="-13" font-family="Helvetica,sans-Serif" font-size="10.00" fill="#000000"> Secondary Structures</text>
</g>
<!-- Node2 -->
<g id="node3" class="node">
<title>Node2</title>
<g id="a_node3"><a xlink:href="group__direct__paths.html" target="_top" xlink:title="Heuristics to explore direct, optimal (re&#45;)folding paths between two secondary structures. ">
<polygon fill="none" stroke="#000000" points="336,-.5 336,-41.5 461,-41.5 461,-.5 336,-.5"/>
<text text-anchor="start" x="344" y="-29.5" font-family="Helvetica,sans-Serif" font-size="10.00" fill="#000000">Direct Refolding Paths</text>
<text text-anchor="start" x="344" y="-18.5" font-family="Helvetica,sans-Serif" font-size="10.00" fill="#000000"> between two Secondary</text>
<text text-anchor="middle" x="398.5" y="-7.5" font-family="Helvetica,sans-Serif" font-size="10.00" fill="#000000"> Structures</text>
</a>
</g>
</g>
<!-- Node0&#45;&gt;Node2 -->
<g id="edge2" class="edge">
<title>Node0&#45;&gt;Node2</title>
<path fill="none" stroke="#000000" d="M310.0271,-21C318.6444,-21 327.4409,-21 335.9821,-21"/>
<polygon fill="#000000" stroke="#000000" points="310.0195,-17.5001 300.0195,-21 310.0195,-24.5001 310.0195,-17.5001"/>
</g>
<!-- Node1 -->
<g id="node2" class="node">
<title>Node1</title>
<g id="a_node2"><a xlink:href="group__landscape.html" target="_top" xlink:title="The RNA Secondary Structure\l Landscape">
<polygon fill="none" stroke="#000000" points="0,-6 0,-36 150,-36 150,-6 0,-6"/>
<text text-anchor="start" x="8" y="-24" font-family="Helvetica,sans-Serif" font-size="10.00" fill="#000000">The RNA Secondary Structure</text>
<text text-anchor="middle" x="75" y="-13" font-family="Helvetica,sans-Serif" font-size="10.00" fill="#000000"> Landscape</text>
</a>
</g>
</g>
<!-- Node1&#45;&gt;Node0 -->
<g id="edge1" class="edge">
<title>Node1&#45;&gt;Node0</title>
<path fill="none" stroke="#000000" d="M160.2896,-21C168.9342,-21 177.5605,-21 185.8023,-21"/>
<polygon fill="#000000" stroke="#000000" points="160.1553,-17.5001 150.1552,-21 160.1552,-24.5001 160.1553,-17.5001"/>
</g>
</g>
</svg>
