<?xml version="1.0" encoding="UTF-8" standalone="no"?>
<!DOCTYPE svg PUBLIC "-//W3C//DTD SVG 1.1//EN"
 "http://www.w3.org/Graphics/SVG/1.1/DTD/svg11.dtd">
<!-- Generated by graphviz version 2.40.1 (20161225.0304)
 -->
<!-- Title: Nucleic Acid Sequences and Structures Pages: 1 -->
<svg width="301pt" height="39pt"
 viewBox="0.00 0.00 301.00 39.00" xmlns="http://www.w3.org/2000/svg" xmlns:xlink="http://www.w3.org/1999/xlink">
<g id="graph0" class="graph" transform="scale(1 1) rotate(0) translate(4 35)">
<title>Nucleic Acid Sequences and Structures</title>
<!-- Node0 -->
<g id="node1" class="node">
<title>Node0</title>
<polygon fill="#bfbfbf" stroke="#000000" points="0,-.5 0,-30.5 124,-30.5 124,-.5 0,-.5"/>
<text text-anchor="start" x="8" y="-18.5" font-family="Helvetica,sans-Serif" font-size="10.00" fill="#000000">Nucleic Acid Sequences</text>
<text text-anchor="middle" x="62" y="-7.5" font-family="Helvetica,sans-Serif" font-size="10.00" fill="#000000"> and Structures</text>
</g>
<!-- Node1 -->
<g id="node2" class="node">
<title>Node1</title>
<g id="a_node2"><a xlink:href="group__file__utils.html" target="_top" xlink:title="Functions to parse, write, and convert various file formats and to deal with file system related issu...">
<polygon fill="none" stroke="#000000" points="220,-6 220,-25 293,-25 293,-6 220,-6"/>
<text text-anchor="middle" x="256.5" y="-13" font-family="Helvetica,sans-Serif" font-size="10.00" fill="#000000">Files and I/O</text>
</a>
</g>
</g>
<!-- Node0&#45;&gt;Node1 -->
<g id="edge2" class="edge">
<title>Node0&#45;&gt;Node1</title>
<path fill="none" stroke="#006400" stroke-dasharray="5,2" d="M124.0758,-15.5C155.6496,-15.5 192.9402,-15.5 219.8911,-15.5"/>
<text text-anchor="middle" x="172" y="-18.5" font-family="Helvetica,sans-Serif" font-size="10.00" fill="#000000">file_formats.h</text>
</g>
<!-- Node1&#45;&gt;Node0 -->
<g id="edge1" class="edge">
<title>Node1&#45;&gt;Node0</title>
<path fill="none" stroke="#000000" d="M209.7347,-13.6722C207.1183,-13.6048 204.5264,-13.5463 202,-13.5 176.4809,-13.0319 148.3434,-13.2843 124.0286,-13.7448"/>
<polygon fill="#000000" stroke="#000000" points="209.7612,-17.1744 219.8601,-13.9709 209.9677,-10.1775 209.7612,-17.1744"/>
</g>
</g>
</svg>
