<?xml version="1.0" encoding="UTF-8" standalone="no"?>
<!DOCTYPE svg PUBLIC "-//W3C//DTD SVG 1.1//EN"
 "http://www.w3.org/Graphics/SVG/1.1/DTD/svg11.dtd">
<!-- Generated by graphviz version 2.40.1 (20161225.0304)
 -->
<!-- Title: Minimum Free Energy (MFE) Algorithms Pages: 1 -->
<svg width="365pt" height="129pt"
 viewBox="0.00 0.00 365.00 129.05" xmlns="http://www.w3.org/2000/svg" xmlns:xlink="http://www.w3.org/1999/xlink">
<g id="graph0" class="graph" transform="scale(1 1) rotate(0) translate(4 125.0454)">
<title>Minimum Free Energy (MFE) Algorithms</title>
<!-- Node1 -->
<g id="node1" class="node">
<title>Node1</title>
<g id="a_node1"><a xlink:href="group__mfe__global.html" target="_top" xlink:title="Variations of the global Minimum Free Energy (MFE) prediction algorithm. ">
<polygon fill="none" stroke="#000000" points="227.5,-98.5 227.5,-117.5 342.5,-117.5 342.5,-98.5 227.5,-98.5"/>
<text text-anchor="middle" x="285" y="-105.5" font-family="Helvetica,sans-Serif" font-size="10.00" fill="#000000">Global MFE Prediction</text>
</a>
</g>
</g>
<!-- Node2 -->
<g id="node2" class="node">
<title>Node2</title>
<g id="a_node2"><a xlink:href="group__mfe__window.html" target="_top" xlink:title="Variations of the local (sliding window) Minimum Free Energy (MFE) prediction algorithm. ">
<polygon fill="none" stroke="#000000" points="228.5,-47 228.5,-77 341.5,-77 341.5,-47 228.5,-47"/>
<text text-anchor="start" x="236.5" y="-65" font-family="Helvetica,sans-Serif" font-size="10.00" fill="#000000">Local (sliding window)</text>
<text text-anchor="middle" x="285" y="-54" font-family="Helvetica,sans-Serif" font-size="10.00" fill="#000000"> MFE Prediction</text>
</a>
</g>
</g>
<!-- Node0 -->
<g id="node3" class="node">
<title>Node0</title>
<polygon fill="#bfbfbf" stroke="#000000" points="0,-54 0,-84 113,-84 113,-54 0,-54"/>
<text text-anchor="start" x="8" y="-72" font-family="Helvetica,sans-Serif" font-size="10.00" fill="#000000">Minimum Free Energy</text>
<text text-anchor="middle" x="56.5" y="-61" font-family="Helvetica,sans-Serif" font-size="10.00" fill="#000000"> (MFE) Algorithms</text>
</g>
<!-- Node0&#45;&gt;Node1 -->
<g id="edge1" class="edge">
<title>Node0&#45;&gt;Node1</title>
<path fill="none" stroke="#000000" d="M83.3721,-90.1249C96.8557,-99.3973 113.925,-109.2433 131,-114 165.0229,-123.478 204.9036,-121.5866 235.5555,-117.5306"/>
<polygon fill="#000000" stroke="#000000" points="85.2327,-87.1524 75.0652,-84.1736 81.1559,-92.8427 85.2327,-87.1524"/>
</g>
<!-- Node0&#45;&gt;Node1 -->
<g id="edge4" class="edge">
<title>Node0&#45;&gt;Node1</title>
<path fill="none" stroke="#006400" stroke-dasharray="5,2" d="M113.2767,-78.6906C148.6994,-84.7364 194.0889,-92.4834 229.3058,-98.4942"/>
<text text-anchor="middle" x="163" y="-94" font-family="Helvetica,sans-Serif" font-size="10.00" fill="#000000">mfe.h</text>
</g>
<!-- Node0&#45;&gt;Node2 -->
<g id="edge2" class="edge">
<title>Node0&#45;&gt;Node2</title>
<path fill="none" stroke="#000000" d="M123.3687,-66.9515C156.612,-65.9331 196.3595,-64.7155 228.1194,-63.7425"/>
<polygon fill="#000000" stroke="#000000" points="123.1648,-63.456 113.2767,-67.2607 123.3793,-70.4527 123.1648,-63.456"/>
</g>
<!-- Node0&#45;&gt;Node2 -->
<g id="edge5" class="edge">
<title>Node0&#45;&gt;Node2</title>
<path fill="none" stroke="#006400" stroke-dasharray="5,2" d="M105.4225,-53.9187C113.876,-51.8747 122.6355,-50.1032 131,-49 163.054,-44.7723 199.0526,-47.4049 228.1804,-51.3761"/>
<text text-anchor="middle" x="163" y="-52" font-family="Helvetica,sans-Serif" font-size="10.00" fill="#000000">mfe_window.h</text>
</g>
<!-- Node3 -->
<g id="node4" class="node">
<title>Node3</title>
<g id="a_node4"><a xlink:href="group__mfe__backtracking.html" target="_top" xlink:title="Backtracking related interfaces. ">
<polygon fill="none" stroke="#000000" points="213,-.5 213,-19.5 357,-19.5 357,-.5 213,-.5"/>
<text text-anchor="middle" x="285" y="-7.5" font-family="Helvetica,sans-Serif" font-size="10.00" fill="#000000">Backtracking MFE structures</text>
</a>
</g>
</g>
<!-- Node0&#45;&gt;Node3 -->
<g id="edge3" class="edge">
<title>Node0&#45;&gt;Node3</title>
<path fill="none" stroke="#000000" d="M104.5067,-50.4662C113.2511,-47.4159 122.3452,-44.4539 131,-42 163.3141,-32.8378 200.1273,-25.0927 229.6565,-19.518"/>
<polygon fill="#000000" stroke="#000000" points="103.0641,-47.2648 94.8247,-53.9253 105.4193,-53.8568 103.0641,-47.2648"/>
</g>
</g>
</svg>
