<?xml version="1.0" encoding="UTF-8" standalone="no"?>
<!DOCTYPE svg PUBLIC "-//W3C//DTD SVG 1.1//EN"
 "http://www.w3.org/Graphics/SVG/1.1/DTD/svg11.dtd">
<!-- Generated by graphviz version 2.40.1 (20161225.0304)
 -->
<!-- Title: Global Partition Function and Equilibrium Probabilities Pages: 1 -->
<svg width="531pt" height="110pt"
 viewBox="0.00 0.00 531.00 110.00" xmlns="http://www.w3.org/2000/svg" xmlns:xlink="http://www.w3.org/1999/xlink">
<g id="graph0" class="graph" transform="scale(1 1) rotate(0) translate(4 106)">
<title>Global Partition Function and Equilibrium Probabilities</title>
<!-- Node1 -->
<g id="node1" class="node">
<title>Node1</title>
<g id="a_node1"><a xlink:href="group__pf__fold.html" target="_top" xlink:title="Compute the partition function to assess various equilibrium properties. ">
<polygon fill="none" stroke="#000000" points="0,-36 0,-66 134,-66 134,-36 0,-36"/>
<text text-anchor="start" x="8" y="-54" font-family="Helvetica,sans-Serif" font-size="10.00" fill="#000000">Partition Function</text>
<text text-anchor="middle" x="67" y="-43" font-family="Helvetica,sans-Serif" font-size="10.00" fill="#000000"> and Equilibrium Properties</text>
</a>
</g>
</g>
<!-- Node0 -->
<g id="node4" class="node">
<title>Node0</title>
<polygon fill="#bfbfbf" stroke="#000000" points="219,-36 219,-66 362,-66 362,-36 219,-36"/>
<text text-anchor="start" x="227" y="-54" font-family="Helvetica,sans-Serif" font-size="10.00" fill="#000000">Global Partition Function</text>
<text text-anchor="middle" x="290.5" y="-43" font-family="Helvetica,sans-Serif" font-size="10.00" fill="#000000"> and Equilibrium Probabilities</text>
</g>
<!-- Node1&#45;&gt;Node0 -->
<g id="edge1" class="edge">
<title>Node1&#45;&gt;Node0</title>
<path fill="none" stroke="#000000" d="M144.2632,-51C168.4536,-51 195.0343,-51 218.8225,-51"/>
<polygon fill="#000000" stroke="#000000" points="144.0574,-47.5001 134.0574,-51 144.0573,-54.5001 144.0574,-47.5001"/>
</g>
<!-- Node2 -->
<g id="node2" class="node">
<title>Node2</title>
<g id="a_node2"><a xlink:href="group__kl__neighborhood__pf.html" target="_top" xlink:title="Compute the partition function and stochastically sample secondary structures for a partitioning of t...">
<polygon fill="none" stroke="#000000" points="399,-60.5 399,-101.5 523,-101.5 523,-60.5 399,-60.5"/>
<text text-anchor="start" x="407" y="-89.5" font-family="Helvetica,sans-Serif" font-size="10.00" fill="#000000">Computing Partition</text>
<text text-anchor="start" x="407" y="-78.5" font-family="Helvetica,sans-Serif" font-size="10.00" fill="#000000"> Functions of a Distance</text>
<text text-anchor="middle" x="461" y="-67.5" font-family="Helvetica,sans-Serif" font-size="10.00" fill="#000000"> Based Partitioning</text>
</a>
</g>
</g>
<!-- Node3 -->
<g id="node3" class="node">
<title>Node3</title>
<g id="a_node3"><a xlink:href="group__part__func__global__deprecated.html" target="_top" xlink:title="Deprecated Interface\l for Global Partition\l Function Computation">
<polygon fill="none" stroke="#000000" points="403,-.5 403,-41.5 519,-41.5 519,-.5 403,-.5"/>
<text text-anchor="start" x="411" y="-29.5" font-family="Helvetica,sans-Serif" font-size="10.00" fill="#000000">Deprecated Interface</text>
<text text-anchor="start" x="411" y="-18.5" font-family="Helvetica,sans-Serif" font-size="10.00" fill="#000000"> for Global Partition</text>
<text text-anchor="middle" x="461" y="-7.5" font-family="Helvetica,sans-Serif" font-size="10.00" fill="#000000"> Function Computation</text>
</a>
</g>
</g>
<!-- Node0&#45;&gt;Node1 -->
<g id="edge4" class="edge">
<title>Node0&#45;&gt;Node1</title>
<path fill="none" stroke="#006400" stroke-dasharray="5,2" d="M218.8055,-38.783C212.7957,-38.0641 206.8015,-37.451 201,-37 179.2877,-35.3121 173.7053,-35.2245 152,-37 146.1867,-37.4755 140.1719,-38.1311 134.1519,-38.9008"/>
<text text-anchor="middle" x="176.5" y="-40" font-family="Helvetica,sans-Serif" font-size="10.00" fill="#000000">part_func.h</text>
</g>
<!-- Node0&#45;&gt;Node2 -->
<g id="edge2" class="edge">
<title>Node0&#45;&gt;Node2</title>
<path fill="none" stroke="#000000" d="M372.3803,-65.4071C381.3343,-66.9826 390.338,-68.5668 398.9953,-70.0901"/>
<polygon fill="#000000" stroke="#000000" points="372.7684,-61.9217 362.3132,-63.6358 371.5554,-68.8158 372.7684,-61.9217"/>
</g>
<!-- Node0&#45;&gt;Node3 -->
<g id="edge3" class="edge">
<title>Node0&#45;&gt;Node3</title>
<path fill="none" stroke="#000000" d="M372.2273,-36.6198C382.6112,-34.7928 393.0648,-32.9534 402.9707,-31.2104"/>
<polygon fill="#000000" stroke="#000000" points="371.5554,-33.1842 362.3132,-38.3642 372.7684,-40.0783 371.5554,-33.1842"/>
</g>
</g>
</svg>
