<?xml version="1.0" encoding="UTF-8" standalone="no"?>
<!DOCTYPE svg PUBLIC "-//W3C//DTD SVG 1.1//EN"
 "http://www.w3.org/Graphics/SVG/1.1/DTD/svg11.dtd">
<!-- Generated by graphviz version 2.40.1 (20161225.0304)
 -->
<!-- Title: Utilities Pages: 1 -->
<svg width="327pt" height="717pt"
 viewBox="0.00 0.00 327.00 716.84" xmlns="http://www.w3.org/2000/svg" xmlns:xlink="http://www.w3.org/1999/xlink">
<g id="graph0" class="graph" transform="scale(1 1) rotate(0) translate(4 712.844)">
<title>Utilities</title>
<!-- Node12 -->
<g id="node1" class="node">
<title>Node12</title>
<g id="a_node1"><a xlink:href="group__command__files.html" target="_top" xlink:title="Functions to parse and interpret the content of Command Files. ">
<polygon fill="none" stroke="#000000" points="201.5,-688.344 201.5,-707.344 287.5,-707.344 287.5,-688.344 201.5,-688.344"/>
<text text-anchor="middle" x="244.5" y="-695.344" font-family="Helvetica,sans-Serif" font-size="10.00" fill="#000000">Command Files</text>
</a>
</g>
</g>
<!-- Node10 -->
<g id="node2" class="node">
<title>Node10</title>
<g id="a_node2"><a xlink:href="group__message__utils.html" target="_top" xlink:title="Functions to print various kind of messages. ">
<polygon fill="none" stroke="#000000" points="213.5,-650.344 213.5,-669.344 275.5,-669.344 275.5,-650.344 213.5,-650.344"/>
<text text-anchor="middle" x="244.5" y="-657.344" font-family="Helvetica,sans-Serif" font-size="10.00" fill="#000000">Messages</text>
</a>
</g>
</g>
<!-- Node9 -->
<g id="node3" class="node">
<title>Node9</title>
<g id="a_node3"><a xlink:href="group__data__structures.html" target="_top" xlink:title="All datastructures and typedefs shared among the ViennaRNA Package can be found here. ">
<polygon fill="none" stroke="#000000" points="179,-612.344 179,-631.344 310,-631.344 310,-612.344 179,-612.344"/>
<text text-anchor="middle" x="244.5" y="-619.344" font-family="Helvetica,sans-Serif" font-size="10.00" fill="#000000">(Abstract) Data Structures</text>
</a>
</g>
</g>
<!-- Node8 -->
<g id="node4" class="node">
<title>Node8</title>
<g id="a_node4"><a xlink:href="group__combinatorics__utils.html" target="_top" xlink:title="Implementations to solve various combinatorial aspects for strings of objects. ">
<polygon fill="none" stroke="#000000" points="180,-574.344 180,-593.344 309,-593.344 309,-574.344 180,-574.344"/>
<text text-anchor="middle" x="244.5" y="-581.344" font-family="Helvetica,sans-Serif" font-size="10.00" fill="#000000">Combinatorics Algorithms</text>
</a>
</g>
</g>
<!-- Node3 -->
<g id="node5" class="node">
<title>Node3</title>
<g id="a_node5"><a xlink:href="group__struct__utils.html" target="_top" xlink:title="Functions to create, parse, convert, manipulate, and compare secondary structure representations. ">
<polygon fill="none" stroke="#000000" points="191.5,-523.844 191.5,-553.844 297.5,-553.844 297.5,-523.844 191.5,-523.844"/>
<text text-anchor="start" x="199.5" y="-541.844" font-family="Helvetica,sans-Serif" font-size="10.00" fill="#000000">Secondary Structure</text>
<text text-anchor="middle" x="244.5" y="-530.844" font-family="Helvetica,sans-Serif" font-size="10.00" fill="#000000"> Utilities</text>
</a>
</g>
</g>
<!-- Node11 -->
<g id="node6" class="node">
<title>Node11</title>
<g id="a_node6"><a xlink:href="group__units.html" target="_top" xlink:title="Functions to convert between various physical units. ">
<polygon fill="none" stroke="#000000" points="201,-481.344 201,-500.344 288,-500.344 288,-481.344 201,-481.344"/>
<text text-anchor="middle" x="244.5" y="-488.344" font-family="Helvetica,sans-Serif" font-size="10.00" fill="#000000">Unit Conversion</text>
</a>
</g>
</g>
<!-- Node2 -->
<g id="node7" class="node">
<title>Node2</title>
<g id="a_node7"><a xlink:href="group__string__utils.html" target="_top" xlink:title="Functions to parse, convert, manipulate, create, and compare (nucleic acid sequence) strings...">
<polygon fill="none" stroke="#000000" points="182,-422.844 182,-452.844 307,-452.844 307,-422.844 182,-422.844"/>
<text text-anchor="start" x="190" y="-440.844" font-family="Helvetica,sans-Serif" font-size="10.00" fill="#000000">(Nucleic Acid Sequence)</text>
<text text-anchor="middle" x="244.5" y="-429.844" font-family="Helvetica,sans-Serif" font-size="10.00" fill="#000000"> String Utilitites</text>
</a>
</g>
</g>
<!-- Node1 -->
<g id="node8" class="node">
<title>Node1</title>
<g id="a_node8"><a xlink:href="group__alphabet__utils.html" target="_top" xlink:title="Functions to cope with various aspects related to the nucleotide sequence alphabet. ">
<polygon fill="none" stroke="#000000" points="188,-358.844 188,-388.844 301,-388.844 301,-358.844 188,-358.844"/>
<text text-anchor="start" x="196" y="-376.844" font-family="Helvetica,sans-Serif" font-size="10.00" fill="#000000">Utilities to deal with</text>
<text text-anchor="middle" x="244.5" y="-365.844" font-family="Helvetica,sans-Serif" font-size="10.00" fill="#000000"> Nucleotide Alphabets</text>
</a>
</g>
</g>
<!-- Node6 -->
<g id="node9" class="node">
<title>Node6</title>
<g id="a_node9"><a xlink:href="group__plotting__utils.html" target="_top" xlink:title="Functions for Creating Secondary Structure Plots, Dot&#45;Plots, and More. ">
<polygon fill="none" stroke="#000000" points="219.5,-303.344 219.5,-322.344 269.5,-322.344 269.5,-303.344 219.5,-303.344"/>
<text text-anchor="middle" x="244.5" y="-310.344" font-family="Helvetica,sans-Serif" font-size="10.00" fill="#000000">Plotting</text>
</a>
</g>
</g>
<!-- Node7 -->
<g id="node10" class="node">
<title>Node7</title>
<g id="a_node10"><a xlink:href="group__search__utils.html" target="_top" xlink:title="Implementations of various search algorithms to detect strings of objects within other strings of obj...">
<polygon fill="none" stroke="#000000" points="196,-244.344 196,-263.344 293,-263.344 293,-244.344 196,-244.344"/>
<text text-anchor="middle" x="244.5" y="-251.344" font-family="Helvetica,sans-Serif" font-size="10.00" fill="#000000">Search Algorithms</text>
</a>
</g>
</g>
<!-- Node5 -->
<g id="node11" class="node">
<title>Node5</title>
<g id="a_node11"><a xlink:href="group__file__utils.html" target="_top" xlink:title="Functions to parse, write, and convert various file formats and to deal with file system related issu...">
<polygon fill="none" stroke="#000000" points="208,-174.344 208,-193.344 281,-193.344 281,-174.344 208,-174.344"/>
<text text-anchor="middle" x="244.5" y="-181.344" font-family="Helvetica,sans-Serif" font-size="10.00" fill="#000000">Files and I/O</text>
</a>
</g>
</g>
<!-- Node0 -->
<g id="node12" class="node">
<title>Node0</title>
<polygon fill="#bfbfbf" stroke="#000000" points="0,-367.344 0,-386.344 50,-386.344 50,-367.344 0,-367.344"/>
<text text-anchor="middle" x="25" y="-374.344" font-family="Helvetica,sans-Serif" font-size="10.00" fill="#000000">Utilities</text>
</g>
<!-- Node0&#45;&gt;Node12 -->
<g id="edge15" class="edge">
<title>Node0&#45;&gt;Node12</title>
<path fill="none" stroke="#006400" stroke-dasharray="5,2" d="M25.8087,-386.471C29.8689,-433.7963 48.6037,-640.3223 68,-660.844 101.8715,-696.6808 160.8727,-702.4265 201.2616,-701.5426"/>
<text text-anchor="middle" x="110" y="-700.844" font-family="Helvetica,sans-Serif" font-size="10.00" fill="#000000">commands.h</text>
</g>
<!-- Node0&#45;&gt;Node10 -->
<g id="edge10" class="edge">
<title>Node0&#45;&gt;Node10</title>
<path fill="none" stroke="#000000" d="M25.4854,-396.6515C27.2331,-450.5466 34.9951,-597.9988 68,-630.844 106.1893,-668.8485 173.6849,-668.6595 213.2217,-664.5907"/>
<polygon fill="#000000" stroke="#000000" points="28.9761,-396.2765 25.1902,-386.3812 21.979,-396.4776 28.9761,-396.2765"/>
</g>
<!-- Node0&#45;&gt;Node9 -->
<g id="edge9" class="edge">
<title>Node0&#45;&gt;Node9</title>
<path fill="none" stroke="#000000" d="M25.8383,-396.5147C28.3905,-446.2451 37.8344,-575.0219 68,-602.844 100.7362,-633.037 152.7505,-635.1985 191.8497,-631.3537"/>
<polygon fill="#000000" stroke="#000000" points="29.3293,-396.2409 25.3608,-386.4174 22.3371,-396.5716 29.3293,-396.2409"/>
</g>
<!-- Node0&#45;&gt;Node8 -->
<g id="edge8" class="edge">
<title>Node0&#45;&gt;Node8</title>
<path fill="none" stroke="#000000" d="M26.0396,-396.5956C28.9718,-443.6691 39.067,-560.3036 68,-583.844 84.7571,-597.4779 136.5983,-596.0932 179.7927,-592.0979"/>
<polygon fill="#000000" stroke="#000000" points="29.5251,-396.2429 25.4539,-386.4615 22.5368,-396.6468 29.5251,-396.2429"/>
</g>
<!-- Node0&#45;&gt;Node8 -->
<g id="edge13" class="edge">
<title>Node0&#45;&gt;Node8</title>
<path fill="none" stroke="#006400" stroke-dasharray="5,2" d="M26.0448,-386.5107C29.8076,-419.4965 43.7438,-526.8477 68,-549.844 76.2941,-557.7073 132.897,-567.7054 179.8015,-574.8198"/>
<text text-anchor="middle" x="110" y="-572.844" font-family="Helvetica,sans-Serif" font-size="10.00" fill="#000000">combinatorics.h</text>
</g>
<!-- Node0&#45;&gt;Node3 -->
<g id="edge3" class="edge">
<title>Node0&#45;&gt;Node3</title>
<path fill="none" stroke="#000000" d="M28.1085,-397.0359C34.1149,-433.2129 48.4657,-506.8072 68,-522.844 101.8876,-550.6642 152.7371,-552.4703 191.1651,-548.6032"/>
<polygon fill="#000000" stroke="#000000" points="31.4944,-396.0452 26.4556,-386.7253 24.5827,-397.1533 31.4944,-396.0452"/>
</g>
<!-- Node0&#45;&gt;Node11 -->
<g id="edge11" class="edge">
<title>Node0&#45;&gt;Node11</title>
<path fill="none" stroke="#000000" d="M28.9331,-396.1876C35.7649,-427.6415 50.7557,-487.6048 68,-499.844 113.9129,-532.4308 184.6906,-513.6772 221.0972,-500.4414"/>
<polygon fill="#000000" stroke="#000000" points="32.3525,-395.4398 26.8666,-386.3759 25.5028,-396.8826 32.3525,-395.4398"/>
</g>
<!-- Node0&#45;&gt;Node11 -->
<g id="edge16" class="edge">
<title>Node0&#45;&gt;Node11</title>
<path fill="none" stroke="#006400" stroke-dasharray="5,2" d="M26.9174,-386.605C31.0089,-404.6441 42.3928,-443.0692 68,-461.844 88.5981,-476.9462 155.6024,-484.614 200.8687,-488.166"/>
<text text-anchor="middle" x="110" y="-485.844" font-family="Helvetica,sans-Serif" font-size="10.00" fill="#000000">units.h</text>
</g>
<!-- Node0&#45;&gt;Node2 -->
<g id="edge2" class="edge">
<title>Node0&#45;&gt;Node2</title>
<path fill="none" stroke="#000000" d="M31.9641,-395.971C38.6407,-411.1872 50.3388,-431.4328 68,-440.844 103.2956,-459.6521 148.4717,-458.5051 184.2829,-452.8605"/>
<polygon fill="#000000" stroke="#000000" points="35.1086,-394.4092 28.1326,-386.4352 28.6133,-397.0191 35.1086,-394.4092"/>
</g>
<!-- Node0&#45;&gt;Node2 -->
<g id="edge20" class="edge">
<title>Node0&#45;&gt;Node2</title>
<path fill="none" stroke="#006400" stroke-dasharray="5,2" d="M44.8256,-386.5097C52.012,-389.7702 60.2653,-393.2392 68,-395.844 105.0149,-408.3095 147.5819,-418.553 181.638,-425.8025"/>
<text text-anchor="middle" x="110" y="-420.844" font-family="Helvetica,sans-Serif" font-size="10.00" fill="#000000">strings.h</text>
</g>
<!-- Node0&#45;&gt;Node1 -->
<g id="edge1" class="edge">
<title>Node0&#45;&gt;Node1</title>
<path fill="none" stroke="#000000" d="M60.6231,-381.3084C63.1168,-381.5217 65.5944,-381.7046 68,-381.844 105.2708,-384.0036 114.7014,-383.4539 152,-381.844 163.5949,-381.3435 175.9845,-380.4918 187.8047,-379.5259"/>
<polygon fill="#000000" stroke="#000000" points="60.7209,-377.8009 50.4235,-380.2936 60.0278,-384.7665 60.7209,-377.8009"/>
</g>
<!-- Node0&#45;&gt;Node1 -->
<g id="edge12" class="edge">
<title>Node0&#45;&gt;Node1</title>
<path fill="none" stroke="#006400" stroke-dasharray="5,2" d="M40.2888,-367.2619C48.2312,-362.8438 58.2865,-358.0892 68,-355.844 107.6133,-346.6878 153.3013,-351.7596 188.2675,-358.8211"/>
<text text-anchor="middle" x="110" y="-369.844" font-family="Helvetica,sans-Serif" font-size="10.00" fill="#000000">alphabet.h</text>
<text text-anchor="middle" x="110" y="-358.844" font-family="Helvetica,sans-Serif" font-size="10.00" fill="#000000">sequence.h</text>
</g>
<!-- Node0&#45;&gt;Node6 -->
<g id="edge6" class="edge">
<title>Node0&#45;&gt;Node6</title>
<path fill="none" stroke="#000000" d="M44.1346,-360.9226C51.2458,-355.7223 59.6281,-350.3809 68,-346.844 119.0235,-325.2877 184.1436,-317.2785 219.2829,-314.3935"/>
<polygon fill="#000000" stroke="#000000" points="41.673,-358.4017 35.9033,-367.2877 45.9551,-363.9392 41.673,-358.4017"/>
</g>
<!-- Node0&#45;&gt;Node6 -->
<g id="edge18" class="edge">
<title>Node0&#45;&gt;Node6</title>
<path fill="none" stroke="#006400" stroke-dasharray="5,2" d="M27.7825,-367.1833C32.8556,-351.5955 45.2435,-321.3785 68,-308.844 116.0562,-282.3742 183.2009,-294.8764 219.245,-304.792"/>
<text text-anchor="middle" x="110" y="-311.844" font-family="Helvetica,sans-Serif" font-size="10.00" fill="#000000">utils.h</text>
</g>
<!-- Node0&#45;&gt;Node7 -->
<g id="edge7" class="edge">
<title>Node0&#45;&gt;Node7</title>
<path fill="none" stroke="#000000" d="M29.1464,-357.3579C34.5259,-337.0316 45.956,-305.8123 68,-288.844 104.513,-260.7381 157.5439,-253.4008 195.937,-252.2299"/>
<polygon fill="#000000" stroke="#000000" points="25.735,-356.5751 26.8059,-367.1157 32.5419,-358.2079 25.735,-356.5751"/>
</g>
<!-- Node0&#45;&gt;Node7 -->
<g id="edge21" class="edge">
<title>Node0&#45;&gt;Node7</title>
<path fill="none" stroke="#006400" stroke-dasharray="5,2" d="M26.5769,-367.216C31.4233,-338.9383 47.0499,-257.1582 68,-241.844 114.3666,-207.9508 187.1722,-229.9765 223.0505,-244.3119"/>
<text text-anchor="middle" x="110" y="-244.844" font-family="Helvetica,sans-Serif" font-size="10.00" fill="#000000">BoyerMoore.h</text>
</g>
<!-- Node0&#45;&gt;Node5 -->
<g id="edge5" class="edge">
<title>Node0&#45;&gt;Node5</title>
<path fill="none" stroke="#000000" d="M27.9659,-356.6804C33.9058,-319.0679 48.3916,-240.3366 68,-221.844 87.8388,-203.1341 162.2478,-192.3029 207.8807,-187.2838"/>
<polygon fill="#000000" stroke="#000000" points="24.4518,-356.5069 26.4006,-366.921 31.3715,-357.5646 24.4518,-356.5069"/>
</g>
<!-- Node0&#45;&gt;Node5 -->
<g id="edge14" class="edge">
<title>Node0&#45;&gt;Node5</title>
<path fill="none" stroke="#006400" stroke-dasharray="5,2" d="M25.3374,-367.2081C26.9134,-328.4929 34.937,-185.0465 68,-157.844 115.2385,-118.9787 194.6402,-155.5562 228.4625,-174.3028"/>
<text text-anchor="middle" x="110" y="-182.844" font-family="Helvetica,sans-Serif" font-size="10.00" fill="#000000">commands.h</text>
<text text-anchor="middle" x="110" y="-171.844" font-family="Helvetica,sans-Serif" font-size="10.00" fill="#000000">file_formats_msa.h</text>
<text text-anchor="middle" x="110" y="-160.844" font-family="Helvetica,sans-Serif" font-size="10.00" fill="#000000">utils.h</text>
</g>
<!-- Node14 -->
<g id="node13" class="node">
<title>Node14</title>
<g id="a_node13"><a xlink:href="group__buffer__utils.html" target="_top" xlink:title="Functions that provide dynamically buffered stream&#45;like data structures. ">
<polygon fill="none" stroke="#000000" points="220.5,-105.344 220.5,-124.344 268.5,-124.344 268.5,-105.344 220.5,-105.344"/>
<text text-anchor="middle" x="244.5" y="-112.344" font-family="Helvetica,sans-Serif" font-size="10.00" fill="#000000">Buffers</text>
</a>
</g>
</g>
<!-- Node0&#45;&gt;Node14 -->
<g id="edge22" class="edge">
<title>Node0&#45;&gt;Node14</title>
<path fill="none" stroke="#006400" stroke-dasharray="5,2" d="M25.8393,-367.2533C29.8998,-321.9337 48.1246,-130.7337 68,-113.844 90.2998,-94.8941 177.5739,-104.7777 220.4551,-111.0183"/>
<text text-anchor="middle" x="110" y="-127.844" font-family="Helvetica,sans-Serif" font-size="10.00" fill="#000000">char_stream.h</text>
<text text-anchor="middle" x="110" y="-116.844" font-family="Helvetica,sans-Serif" font-size="10.00" fill="#000000">stream_output.h</text>
</g>
<!-- Node4 -->
<g id="node14" class="node">
<title>Node4</title>
<g id="a_node14"><a xlink:href="group__aln__utils.html" target="_top" xlink:title="Functions to extract features from and to manipulate multiple sequence alignments. ">
<polygon fill="none" stroke="#000000" points="173,-53.844 173,-83.844 316,-83.844 316,-53.844 173,-53.844"/>
<text text-anchor="start" x="181" y="-71.844" font-family="Helvetica,sans-Serif" font-size="10.00" fill="#000000">Multiple Sequence Alignment</text>
<text text-anchor="middle" x="244.5" y="-60.844" font-family="Helvetica,sans-Serif" font-size="10.00" fill="#000000"> Utilities</text>
</a>
</g>
</g>
<!-- Node0&#45;&gt;Node4 -->
<g id="edge4" class="edge">
<title>Node0&#45;&gt;Node4</title>
<path fill="none" stroke="#000000" d="M26.7301,-356.8598C32.1765,-296.06 49.6971,-116.3296 68,-97.844 82.6932,-83.0041 130.6673,-75.7527 172.8955,-72.2122"/>
<polygon fill="#000000" stroke="#000000" points="23.2228,-356.7893 25.8305,-367.0582 30.1957,-357.4045 23.2228,-356.7893"/>
</g>
<!-- Node0&#45;&gt;Node4 -->
<g id="edge19" class="edge">
<title>Node0&#45;&gt;Node4</title>
<path fill="none" stroke="#006400" stroke-dasharray="5,2" d="M25.5725,-367.0135C28.6612,-315.6566 44.0886,-79.7397 68,-58.844 106.5946,-25.1169 169.9453,-39.6487 209.3291,-53.8292"/>
<text text-anchor="middle" x="110" y="-61.844" font-family="Helvetica,sans-Serif" font-size="10.00" fill="#000000">alignments.h</text>
</g>
<!-- Node13 -->
<g id="node15" class="node">
<title>Node13</title>
<g id="a_node15"><a xlink:href="group__file__formats__msa.html" target="_top" xlink:title="Functions to read/write multiple sequence alignments (MSA) in various file formats. ">
<polygon fill="none" stroke="#000000" points="170,-12.344 170,-31.344 319,-31.344 319,-12.344 170,-12.344"/>
<text text-anchor="middle" x="244.5" y="-19.344" font-family="Helvetica,sans-Serif" font-size="10.00" fill="#000000">Multiple Sequence Alignments</text>
</a>
</g>
</g>
<!-- Node0&#45;&gt;Node13 -->
<g id="edge17" class="edge">
<title>Node0&#45;&gt;Node13</title>
<path fill="none" stroke="#006400" stroke-dasharray="5,2" d="M25.4387,-367.0392C27.9791,-312.4375 41.6152,-47.4779 68,-23.844 108.7445,12.6524 178.4802,-.7742 216.9688,-12.2484"/>
<text text-anchor="middle" x="110" y="-26.844" font-family="Helvetica,sans-Serif" font-size="10.00" fill="#000000">file_formats_msa.h</text>
</g>
</g>
</svg>
