<?xml version="1.0" encoding="UTF-8" standalone="no"?>
<!DOCTYPE svg PUBLIC "-//W3C//DTD SVG 1.1//EN"
 "http://www.w3.org/Graphics/SVG/1.1/DTD/svg11.dtd">
<!-- Generated by graphviz version 2.40.1 (20161225.0304)
 -->
<!-- Title: Unit Conversion Pages: 1 -->
<svg width="211pt" height="29pt"
 viewBox="0.00 0.00 211.00 29.00" xmlns="http://www.w3.org/2000/svg" xmlns:xlink="http://www.w3.org/1999/xlink">
<g id="graph0" class="graph" transform="scale(1 1) rotate(0) translate(4 25)">
<title>Unit Conversion</title>
<!-- Node0 -->
<g id="node1" class="node">
<title>Node0</title>
<polygon fill="#bfbfbf" stroke="#000000" points="0,-.5 0,-19.5 87,-19.5 87,-.5 0,-.5"/>
<text text-anchor="middle" x="43.5" y="-7.5" font-family="Helvetica,sans-Serif" font-size="10.00" fill="#000000">Unit Conversion</text>
</g>
<!-- Node1 -->
<g id="node2" class="node">
<title>Node1</title>
<g id="a_node2"><a xlink:href="group__utils.html" target="_top" xlink:title="Utilities">
<polygon fill="none" stroke="#000000" points="153,-.5 153,-19.5 203,-19.5 203,-.5 153,-.5"/>
<text text-anchor="middle" x="178" y="-7.5" font-family="Helvetica,sans-Serif" font-size="10.00" fill="#000000">Utilities</text>
</a>
</g>
</g>
<!-- Node0&#45;&gt;Node1 -->
<g id="edge2" class="edge">
<title>Node0&#45;&gt;Node1</title>
<path fill="none" stroke="#006400" stroke-dasharray="5,2" d="M87.1683,-10C108.9526,-10 134.5169,-10 152.9652,-10"/>
<text text-anchor="middle" x="120" y="-13" font-family="Helvetica,sans-Serif" font-size="10.00" fill="#000000">units.h</text>
</g>
<!-- Node1&#45;&gt;Node0 -->
<g id="edge1" class="edge">
<title>Node1&#45;&gt;Node0</title>
<path fill="none" stroke="#000000" d="M142.834,-8.2307C140.1835,-8.1383 137.5496,-8.0593 135,-8 119.4328,-7.6382 102.3753,-7.8465 87.2499,-8.2414"/>
<polygon fill="#000000" stroke="#000000" points="142.8625,-11.7346 152.9954,-8.6403 143.1445,-4.7403 142.8625,-11.7346"/>
</g>
</g>
</svg>
