<?xml version="1.0" encoding="UTF-8" standalone="no"?>
<!DOCTYPE svg PUBLIC "-//W3C//DTD SVG 1.1//EN"
 "http://www.w3.org/Graphics/SVG/1.1/DTD/svg11.dtd">
<!-- Generated by graphviz version 2.40.1 (20161225.0304)
 -->
<!-- Title: Constraining the RNA Folding Grammar Pages: 1 -->
<svg width="420pt" height="66pt"
 viewBox="0.00 0.00 420.00 66.00" xmlns="http://www.w3.org/2000/svg" xmlns:xlink="http://www.w3.org/1999/xlink">
<g id="graph0" class="graph" transform="scale(1 1) rotate(0) translate(4 62)">
<title>Constraining the RNA Folding Grammar</title>
<!-- Node0 -->
<g id="node1" class="node">
<title>Node0</title>
<polygon fill="#bfbfbf" stroke="#000000" points="172,-14 172,-44 285,-44 285,-14 172,-14"/>
<text text-anchor="start" x="180" y="-32" font-family="Helvetica,sans-Serif" font-size="10.00" fill="#000000">Constraining the RNA</text>
<text text-anchor="middle" x="228.5" y="-21" font-family="Helvetica,sans-Serif" font-size="10.00" fill="#000000"> Folding Grammar</text>
</g>
<!-- Node3 -->
<g id="node3" class="node">
<title>Node3</title>
<g id="a_node3"><a xlink:href="group__soft__constraints.html" target="_top" xlink:title="Functions and data structures for secondary structure soft constraints. ">
<polygon fill="none" stroke="#000000" points="322.5,-38.5 322.5,-57.5 410.5,-57.5 410.5,-38.5 322.5,-38.5"/>
<text text-anchor="middle" x="366.5" y="-45.5" font-family="Helvetica,sans-Serif" font-size="10.00" fill="#000000">Soft Constraints</text>
</a>
</g>
</g>
<!-- Node0&#45;&gt;Node3 -->
<g id="edge3" class="edge">
<title>Node0&#45;&gt;Node3</title>
<path fill="none" stroke="#000000" d="M294.9602,-38.1503C304.1637,-39.4175 313.4276,-40.6929 322.0956,-41.8864"/>
<polygon fill="#000000" stroke="#000000" points="295.412,-34.6796 285.0281,-36.7828 294.4572,-41.6142 295.412,-34.6796"/>
</g>
<!-- Node2 -->
<g id="node4" class="node">
<title>Node2</title>
<g id="a_node4"><a xlink:href="group__hard__constraints.html" target="_top" xlink:title="This module covers all functionality for hard constraints in secondary structure prediction. ">
<polygon fill="none" stroke="#000000" points="321,-.5 321,-19.5 412,-19.5 412,-.5 321,-.5"/>
<text text-anchor="middle" x="366.5" y="-7.5" font-family="Helvetica,sans-Serif" font-size="10.00" fill="#000000">Hard Constraints</text>
</a>
</g>
</g>
<!-- Node0&#45;&gt;Node2 -->
<g id="edge2" class="edge">
<title>Node0&#45;&gt;Node2</title>
<path fill="none" stroke="#000000" d="M295.1654,-19.8214C303.8484,-18.6259 312.5807,-17.4237 320.8115,-16.2904"/>
<polygon fill="#000000" stroke="#000000" points="294.4572,-16.3858 285.0281,-21.2172 295.412,-23.3204 294.4572,-16.3858"/>
</g>
<!-- Node1 -->
<g id="node2" class="node">
<title>Node1</title>
<g id="a_node2"><a xlink:href="group__grammar.html" target="_top" xlink:title="The RNA folding grammar as implemented in RNAlib. ">
<polygon fill="none" stroke="#000000" points="0,-19.5 0,-38.5 136,-38.5 136,-19.5 0,-19.5"/>
<text text-anchor="middle" x="68" y="-26.5" font-family="Helvetica,sans-Serif" font-size="10.00" fill="#000000">The RNA Folding Grammar</text>
</a>
</g>
</g>
<!-- Node1&#45;&gt;Node0 -->
<g id="edge1" class="edge">
<title>Node1&#45;&gt;Node0</title>
<path fill="none" stroke="#000000" d="M146.2222,-29C154.9065,-29 163.6225,-29 171.9631,-29"/>
<polygon fill="#000000" stroke="#000000" points="146.0665,-25.5001 136.0664,-29 146.0664,-32.5001 146.0665,-25.5001"/>
</g>
</g>
</svg>
