<?xml version="1.0" encoding="UTF-8" standalone="no"?>
<!DOCTYPE svg PUBLIC "-//W3C//DTD SVG 1.1//EN"
 "http://www.w3.org/Graphics/SVG/1.1/DTD/svg11.dtd">
<!-- Generated by graphviz version 2.40.1 (20161225.0304)
 -->
<!-- Title: Local (sliding window) MFE Prediction Pages: 1 -->
<svg width="355pt" height="101pt"
 viewBox="0.00 0.00 355.00 100.50" xmlns="http://www.w3.org/2000/svg" xmlns:xlink="http://www.w3.org/1999/xlink">
<g id="graph0" class="graph" transform="scale(1 1) rotate(0) translate(4 96.5)">
<title>Local (sliding window) MFE Prediction</title>
<!-- Node0 -->
<g id="node1" class="node">
<title>Node0</title>
<polygon fill="#bfbfbf" stroke="#000000" points="0,-31 0,-61 113,-61 113,-31 0,-31"/>
<text text-anchor="start" x="8" y="-49" font-family="Helvetica,sans-Serif" font-size="10.00" fill="#000000">Local (sliding window)</text>
<text text-anchor="middle" x="56.5" y="-38" font-family="Helvetica,sans-Serif" font-size="10.00" fill="#000000"> MFE Prediction</text>
</g>
<!-- Node1 -->
<g id="node2" class="node">
<title>Node1</title>
<g id="a_node2"><a xlink:href="group__mfe.html" target="_top" xlink:title="Predicting the Minimum Free Energy (MFE) and a corresponding (consensus) secondary structure...">
<polygon fill="none" stroke="#000000" points="223.5,-62 223.5,-92 336.5,-92 336.5,-62 223.5,-62"/>
<text text-anchor="start" x="231.5" y="-80" font-family="Helvetica,sans-Serif" font-size="10.00" fill="#000000">Minimum Free Energy</text>
<text text-anchor="middle" x="280" y="-69" font-family="Helvetica,sans-Serif" font-size="10.00" fill="#000000"> (MFE) Algorithms</text>
</a>
</g>
</g>
<!-- Node0&#45;&gt;Node1 -->
<g id="edge3" class="edge">
<title>Node0&#45;&gt;Node1</title>
<path fill="none" stroke="#006400" stroke-dasharray="5,2" d="M113.0302,-54.4265C119.0945,-55.3067 125.1742,-56.1789 131,-57 161.4967,-61.298 195.5363,-65.883 223.3732,-69.5774"/>
<text text-anchor="middle" x="163" y="-68" font-family="Helvetica,sans-Serif" font-size="10.00" fill="#000000">mfe_window.h</text>
</g>
<!-- Node2 -->
<g id="node3" class="node">
<title>Node2</title>
<g id="a_node3"><a xlink:href="group__mfe__window__deprecated.html" target="_top" xlink:title="Deprecated Interface\l for Local (Sliding Window)\l MFE Prediction">
<polygon fill="none" stroke="#000000" points="213,-.5 213,-41.5 347,-41.5 347,-.5 213,-.5"/>
<text text-anchor="start" x="221" y="-29.5" font-family="Helvetica,sans-Serif" font-size="10.00" fill="#000000">Deprecated Interface</text>
<text text-anchor="start" x="221" y="-18.5" font-family="Helvetica,sans-Serif" font-size="10.00" fill="#000000"> for Local (Sliding Window)</text>
<text text-anchor="middle" x="280" y="-7.5" font-family="Helvetica,sans-Serif" font-size="10.00" fill="#000000"> MFE Prediction</text>
</a>
</g>
</g>
<!-- Node0&#45;&gt;Node2 -->
<g id="edge2" class="edge">
<title>Node0&#45;&gt;Node2</title>
<path fill="none" stroke="#000000" d="M123.3886,-35.9512C125.9572,-35.6201 128.5013,-35.3016 131,-35 157.6975,-31.7771 187.1625,-28.8718 212.7934,-26.5541"/>
<polygon fill="#000000" stroke="#000000" points="122.8541,-32.4914 113.404,-37.2816 123.7787,-39.43 122.8541,-32.4914"/>
</g>
<!-- Node1&#45;&gt;Node0 -->
<g id="edge1" class="edge">
<title>Node1&#45;&gt;Node0</title>
<path fill="none" stroke="#000000" d="M213.1608,-63.0016C207.034,-61.9092 200.9111,-60.8877 195,-60 168.2324,-55.98 138.3767,-52.7978 113.2584,-50.4898"/>
<polygon fill="#000000" stroke="#000000" points="212.9699,-66.5253 223.4387,-64.8958 214.2387,-59.6412 212.9699,-66.5253"/>
</g>
</g>
</svg>
