<?xml version="1.0" encoding="UTF-8" standalone="no"?>
<!DOCTYPE svg PUBLIC "-//W3C//DTD SVG 1.1//EN"
 "http://www.w3.org/Graphics/SVG/1.1/DTD/svg11.dtd">
<!-- Generated by graphviz version 2.40.1 (20161225.0304)
 -->
<!-- Title: RNA&#45;RNA Interaction Pages: 1 -->
<svg width="363pt" height="178pt"
 viewBox="0.00 0.00 363.00 177.50" xmlns="http://www.w3.org/2000/svg" xmlns:xlink="http://www.w3.org/1999/xlink">
<g id="graph0" class="graph" transform="scale(1 1) rotate(0) translate(4 173.5)">
<title>RNA&#45;RNA Interaction</title>
<!-- Node2 -->
<g id="node1" class="node">
<title>Node2</title>
<g id="a_node1"><a xlink:href="group__up__cofold.html" target="_top" xlink:title="RNA&#45;RNA interaction as a stepwise process. ">
<polygon fill="none" stroke="#000000" points="221,-117 221,-169 355,-169 355,-117 221,-117"/>
<text text-anchor="start" x="229" y="-157" font-family="Helvetica,sans-Serif" font-size="10.00" fill="#000000">Partition Function</text>
<text text-anchor="start" x="229" y="-146" font-family="Helvetica,sans-Serif" font-size="10.00" fill="#000000"> for two Hybridized</text>
<text text-anchor="start" x="229" y="-135" font-family="Helvetica,sans-Serif" font-size="10.00" fill="#000000"> Sequences as a Stepwise</text>
<text text-anchor="middle" x="288" y="-124" font-family="Helvetica,sans-Serif" font-size="10.00" fill="#000000"> Process</text>
</a>
</g>
</g>
<!-- Node3 -->
<g id="node2" class="node">
<title>Node3</title>
<g id="a_node2"><a xlink:href="group__pf__fold.html" target="_top" xlink:title="Compute the partition function to assess various equilibrium properties. ">
<polygon fill="none" stroke="#000000" points="221,-68 221,-98 355,-98 355,-68 221,-68"/>
<text text-anchor="start" x="229" y="-86" font-family="Helvetica,sans-Serif" font-size="10.00" fill="#000000">Partition Function</text>
<text text-anchor="middle" x="288" y="-75" font-family="Helvetica,sans-Serif" font-size="10.00" fill="#000000"> and Equilibrium Properties</text>
</a>
</g>
</g>
<!-- Node0 -->
<g id="node3" class="node">
<title>Node0</title>
<polygon fill="#bfbfbf" stroke="#000000" points="0,-56.5 0,-75.5 112,-75.5 112,-56.5 0,-56.5"/>
<text text-anchor="middle" x="56" y="-63.5" font-family="Helvetica,sans-Serif" font-size="10.00" fill="#000000">RNA&#45;RNA Interaction</text>
</g>
<!-- Node0&#45;&gt;Node2 -->
<g id="edge2" class="edge">
<title>Node0&#45;&gt;Node2</title>
<path fill="none" stroke="#000000" d="M93.9058,-78.8697C105.4849,-82.7839 118.2594,-87.0849 130,-91 159.7235,-100.9119 192.6332,-111.7627 220.6892,-120.976"/>
<polygon fill="#000000" stroke="#000000" points="94.6882,-75.4396 84.094,-75.549 92.4442,-82.0701 94.6882,-75.4396"/>
</g>
<!-- Node0&#45;&gt;Node3 -->
<g id="edge3" class="edge">
<title>Node0&#45;&gt;Node3</title>
<path fill="none" stroke="#006400" stroke-dasharray="5,2" d="M112.1607,-70.1152C144.882,-72.5129 186.351,-75.5516 220.7986,-78.0758"/>
<text text-anchor="middle" x="166.5" y="-79" font-family="Helvetica,sans-Serif" font-size="10.00" fill="#000000">concentrations.h</text>
</g>
<!-- Node1 -->
<g id="node4" class="node">
<title>Node1</title>
<g id="a_node4"><a xlink:href="group__pf__cofold.html" target="_top" xlink:title="Partition Function Cofolding. ">
<polygon fill="none" stroke="#000000" points="237,-.5 237,-41.5 339,-41.5 339,-.5 237,-.5"/>
<text text-anchor="start" x="245" y="-29.5" font-family="Helvetica,sans-Serif" font-size="10.00" fill="#000000">Partition Function</text>
<text text-anchor="start" x="245" y="-18.5" font-family="Helvetica,sans-Serif" font-size="10.00" fill="#000000"> for Two Hybridized</text>
<text text-anchor="middle" x="288" y="-7.5" font-family="Helvetica,sans-Serif" font-size="10.00" fill="#000000"> Sequences</text>
</a>
</g>
</g>
<!-- Node0&#45;&gt;Node1 -->
<g id="edge1" class="edge">
<title>Node0&#45;&gt;Node1</title>
<path fill="none" stroke="#000000" d="M115.4948,-54.4601C153.0395,-47.1777 201.0339,-37.8684 236.8623,-30.919"/>
<polygon fill="#000000" stroke="#000000" points="114.3518,-51.1165 105.2012,-56.4567 115.6848,-57.9884 114.3518,-51.1165"/>
</g>
<!-- Node0&#45;&gt;Node1 -->
<g id="edge4" class="edge">
<title>Node0&#45;&gt;Node1</title>
<path fill="none" stroke="#006400" stroke-dasharray="5,2" d="M65.4053,-56.1991C78.4734,-43.3661 103.5199,-21.5046 130,-13 164.5181,-1.9138 205.4468,-4.3872 236.9978,-9.3844"/>
<text text-anchor="middle" x="166.5" y="-27" font-family="Helvetica,sans-Serif" font-size="10.00" fill="#000000">concentrations.h</text>
<text text-anchor="middle" x="166.5" y="-16" font-family="Helvetica,sans-Serif" font-size="10.00" fill="#000000">part_func_up.h</text>
</g>
</g>
</svg>
