<?xml version="1.0" encoding="UTF-8" standalone="no"?>
<!DOCTYPE svg PUBLIC "-//W3C//DTD SVG 1.1//EN"
 "http://www.w3.org/Graphics/SVG/1.1/DTD/svg11.dtd">
<!-- Generated by graphviz version 2.40.1 (20161225.0304)
 -->
<!-- Title: Utilities to deal with Nucleotide Alphabets Pages: 1 -->
<svg width="258pt" height="46pt"
 viewBox="0.00 0.00 258.00 45.50" xmlns="http://www.w3.org/2000/svg" xmlns:xlink="http://www.w3.org/1999/xlink">
<g id="graph0" class="graph" transform="scale(1 1) rotate(0) translate(4 41.5)">
<title>Utilities to deal with Nucleotide Alphabets</title>
<!-- Node0 -->
<g id="node1" class="node">
<title>Node0</title>
<polygon fill="#bfbfbf" stroke="#000000" points="0,-.5 0,-30.5 113,-30.5 113,-.5 0,-.5"/>
<text text-anchor="start" x="8" y="-18.5" font-family="Helvetica,sans-Serif" font-size="10.00" fill="#000000">Utilities to deal with</text>
<text text-anchor="middle" x="56.5" y="-7.5" font-family="Helvetica,sans-Serif" font-size="10.00" fill="#000000"> Nucleotide Alphabets</text>
</g>
<!-- Node1 -->
<g id="node2" class="node">
<title>Node1</title>
<g id="a_node2"><a xlink:href="group__utils.html" target="_top" xlink:title="Utilities">
<polygon fill="none" stroke="#000000" points="200,-6 200,-25 250,-25 250,-6 200,-6"/>
<text text-anchor="middle" x="225" y="-13" font-family="Helvetica,sans-Serif" font-size="10.00" fill="#000000">Utilities</text>
</a>
</g>
</g>
<!-- Node0&#45;&gt;Node1 -->
<g id="edge2" class="edge">
<title>Node0&#45;&gt;Node1</title>
<path fill="none" stroke="#006400" stroke-dasharray="5,2" d="M113.0768,-15.5C142.5239,-15.5 177.0449,-15.5 199.8791,-15.5"/>
<text text-anchor="middle" x="156.5" y="-29.5" font-family="Helvetica,sans-Serif" font-size="10.00" fill="#000000">alphabet.h</text>
<text text-anchor="middle" x="156.5" y="-18.5" font-family="Helvetica,sans-Serif" font-size="10.00" fill="#000000">sequence.h</text>
</g>
<!-- Node1&#45;&gt;Node0 -->
<g id="edge1" class="edge">
<title>Node1&#45;&gt;Node0</title>
<path fill="none" stroke="#000000" d="M189.834,-13.7307C187.1835,-13.6383 184.5496,-13.5593 182,-13.5 159.4524,-12.9759 134.623,-13.2025 113.0423,-13.6585"/>
<polygon fill="#000000" stroke="#000000" points="189.8625,-17.2346 199.9954,-14.1403 190.1445,-10.2403 189.8625,-17.2346"/>
</g>
</g>
</svg>
