<?xml version="1.0" encoding="UTF-8" standalone="no"?>
<!DOCTYPE svg PUBLIC "-//W3C//DTD SVG 1.1//EN"
 "http://www.w3.org/Graphics/SVG/1.1/DTD/svg11.dtd">
<!-- Generated by graphviz version 2.40.1 (20161225.0304)
 -->
<!-- Title: The RNA Folding Grammar Pages: 1 -->
<svg width="307pt" height="188pt"
 viewBox="0.00 0.00 307.00 187.50" xmlns="http://www.w3.org/2000/svg" xmlns:xlink="http://www.w3.org/1999/xlink">
<g id="graph0" class="graph" transform="scale(1 1) rotate(0) translate(4 183.5)">
<title>The RNA Folding Grammar</title>
<!-- Node1 -->
<g id="node1" class="node">
<title>Node1</title>
<g id="a_node1"><a xlink:href="group__model__details.html" target="_top" xlink:title="Functions and data structures to fine&#45;tune the implemented secondary structure evaluation model...">
<polygon fill="none" stroke="#000000" points="180.5,-149 180.5,-179 290.5,-179 290.5,-149 180.5,-149"/>
<text text-anchor="start" x="188.5" y="-167" font-family="Helvetica,sans-Serif" font-size="10.00" fill="#000000">Fine&#45;tuning of the</text>
<text text-anchor="middle" x="235.5" y="-156" font-family="Helvetica,sans-Serif" font-size="10.00" fill="#000000"> Implemented Models</text>
</a>
</g>
</g>
<!-- Node2 -->
<g id="node2" class="node">
<title>Node2</title>
<g id="a_node2"><a xlink:href="group__energy__parameters.html" target="_top" xlink:title="All relevant functions to retrieve and copy pre&#45;calculated energy parameter sets as well as reading/w...">
<polygon fill="none" stroke="#000000" points="185,-110.5 185,-129.5 286,-129.5 286,-110.5 185,-110.5"/>
<text text-anchor="middle" x="235.5" y="-117.5" font-family="Helvetica,sans-Serif" font-size="10.00" fill="#000000">Energy Parameters</text>
</a>
</g>
</g>
<!-- Node4 -->
<g id="node3" class="node">
<title>Node4</title>
<g id="a_node3"><a xlink:href="group__constraints.html" target="_top" xlink:title="This module provides general functions that allow for an easy control of constrained secondary struct...">
<polygon fill="none" stroke="#000000" points="179,-61 179,-91 292,-91 292,-61 179,-61"/>
<text text-anchor="start" x="187" y="-79" font-family="Helvetica,sans-Serif" font-size="10.00" fill="#000000">Constraining the RNA</text>
<text text-anchor="middle" x="235.5" y="-68" font-family="Helvetica,sans-Serif" font-size="10.00" fill="#000000"> Folding Grammar</text>
</a>
</g>
</g>
<!-- Node0 -->
<g id="node4" class="node">
<title>Node0</title>
<polygon fill="#bfbfbf" stroke="#000000" points="0,-88.5 0,-107.5 136,-107.5 136,-88.5 0,-88.5"/>
<text text-anchor="middle" x="68" y="-95.5" font-family="Helvetica,sans-Serif" font-size="10.00" fill="#000000">The RNA Folding Grammar</text>
</g>
<!-- Node0&#45;&gt;Node1 -->
<g id="edge1" class="edge">
<title>Node0&#45;&gt;Node1</title>
<path fill="none" stroke="#000000" d="M101.8316,-111.342C122.169,-119.3612 148.568,-129.7686 172,-139 180.1572,-142.2137 188.9045,-145.6584 197.219,-148.932"/>
<polygon fill="#000000" stroke="#000000" points="102.9611,-108.0252 92.3743,-107.6128 100.3932,-114.5372 102.9611,-108.0252"/>
</g>
<!-- Node0&#45;&gt;Node2 -->
<g id="edge2" class="edge">
<title>Node0&#45;&gt;Node2</title>
<path fill="none" stroke="#000000" d="M146.143,-108.2636C159.3144,-109.9935 172.6716,-111.7479 184.9037,-113.3545"/>
<polygon fill="#000000" stroke="#000000" points="146.4993,-104.7804 136.1287,-106.9482 145.5877,-111.7208 146.4993,-104.7804"/>
</g>
<!-- Node0&#45;&gt;Node4 -->
<g id="edge4" class="edge">
<title>Node0&#45;&gt;Node4</title>
<path fill="none" stroke="#000000" d="M146.2076,-87.728C157.246,-86.2781 168.4133,-84.8114 178.9381,-83.429"/>
<polygon fill="#000000" stroke="#000000" points="145.5877,-84.2792 136.1287,-89.0518 146.4993,-91.2196 145.5877,-84.2792"/>
</g>
<!-- Node3 -->
<g id="node5" class="node">
<title>Node3</title>
<g id="a_node5"><a xlink:href="group__domains.html" target="_top" xlink:title="This module covers simple and straight&#45;forward extensions to the RNA folding grammar. ">
<polygon fill="none" stroke="#000000" points="172,-.5 172,-41.5 299,-41.5 299,-.5 172,-.5"/>
<text text-anchor="start" x="180" y="-29.5" font-family="Helvetica,sans-Serif" font-size="10.00" fill="#000000">Extending the Folding</text>
<text text-anchor="start" x="180" y="-18.5" font-family="Helvetica,sans-Serif" font-size="10.00" fill="#000000"> Grammar with Additional</text>
<text text-anchor="middle" x="235.5" y="-7.5" font-family="Helvetica,sans-Serif" font-size="10.00" fill="#000000"> Domains</text>
</a>
</g>
</g>
<!-- Node0&#45;&gt;Node3 -->
<g id="edge3" class="edge">
<title>Node0&#45;&gt;Node3</title>
<path fill="none" stroke="#000000" d="M98.1441,-84.1427C123.9303,-72.2888 161.4114,-55.0586 190.7085,-41.5907"/>
<polygon fill="#000000" stroke="#000000" points="96.4994,-81.0466 88.8753,-88.4036 99.4232,-87.4068 96.4994,-81.0466"/>
</g>
</g>
</svg>
