<?xml version="1.0" encoding="UTF-8" standalone="no"?>
<!DOCTYPE svg PUBLIC "-//W3C//DTD SVG 1.1//EN"
 "http://www.w3.org/Graphics/SVG/1.1/DTD/svg11.dtd">
<!-- Generated by graphviz version 2.40.1 (20161225.0304)
 -->
<!-- Title: Computing MFE representatives of a Distance Based Partitioning Pages: 1 -->
<svg width="372pt" height="78pt"
 viewBox="0.00 0.00 372.00 77.50" xmlns="http://www.w3.org/2000/svg" xmlns:xlink="http://www.w3.org/1999/xlink">
<g id="graph0" class="graph" transform="scale(1 1) rotate(0) translate(4 73.5)">
<title>Computing MFE representatives of a Distance Based Partitioning</title>
<!-- Node1 -->
<g id="node1" class="node">
<title>Node1</title>
<g id="a_node1"><a xlink:href="group__kl__neighborhood.html" target="_top" xlink:title="Distance Based Partitioning\l of the Secondary Structure Space">
<polygon fill="none" stroke="#000000" points="0,-39 0,-69 167,-69 167,-39 0,-39"/>
<text text-anchor="start" x="8" y="-57" font-family="Helvetica,sans-Serif" font-size="10.00" fill="#000000">Distance Based Partitioning</text>
<text text-anchor="middle" x="83.5" y="-46" font-family="Helvetica,sans-Serif" font-size="10.00" fill="#000000"> of the Secondary Structure Space</text>
</a>
</g>
</g>
<!-- Node0 -->
<g id="node3" class="node">
<title>Node0</title>
<polygon fill="#bfbfbf" stroke="#000000" points="203,-17 203,-47 364,-47 364,-17 203,-17"/>
<text text-anchor="start" x="211" y="-35" font-family="Helvetica,sans-Serif" font-size="10.00" fill="#000000">Computing MFE representatives</text>
<text text-anchor="middle" x="283.5" y="-24" font-family="Helvetica,sans-Serif" font-size="10.00" fill="#000000"> of a Distance Based Partitioning</text>
</g>
<!-- Node1&#45;&gt;Node0 -->
<g id="edge1" class="edge">
<title>Node1&#45;&gt;Node0</title>
<path fill="none" stroke="#000000" d="M177.1526,-43.6982C185.7027,-42.7577 194.3149,-41.8104 202.7378,-40.8838"/>
<polygon fill="#000000" stroke="#000000" points="176.7165,-40.225 167.1592,-44.7975 177.4819,-47.183 176.7165,-40.225"/>
</g>
<!-- Node2 -->
<g id="node2" class="node">
<title>Node2</title>
<g id="a_node2"><a xlink:href="group__mfe__global.html" target="_top" xlink:title="Variations of the global Minimum Free Energy (MFE) prediction algorithm. ">
<polygon fill="none" stroke="#000000" points="26,-.5 26,-19.5 141,-19.5 141,-.5 26,-.5"/>
<text text-anchor="middle" x="83.5" y="-7.5" font-family="Helvetica,sans-Serif" font-size="10.00" fill="#000000">Global MFE Prediction</text>
</a>
</g>
</g>
<!-- Node2&#45;&gt;Node0 -->
<g id="edge2" class="edge">
<title>Node2&#45;&gt;Node0</title>
<path fill="none" stroke="#000000" d="M151.2265,-17.4499C167.8289,-19.2762 185.7607,-21.2487 202.9016,-23.1342"/>
<polygon fill="#000000" stroke="#000000" points="151.4027,-13.9483 141.08,-16.3338 150.6373,-20.9063 151.4027,-13.9483"/>
</g>
</g>
</svg>
