<?xml version="1.0" encoding="UTF-8" standalone="no"?>
<!DOCTYPE svg PUBLIC "-//W3C//DTD SVG 1.1//EN"
 "http://www.w3.org/Graphics/SVG/1.1/DTD/svg11.dtd">
<!-- Generated by graphviz version 2.40.1 (20161225.0304)
 -->
<!-- Title: Ligands Binding to RNA Structures Pages: 1 -->
<svg width="277pt" height="110pt"
 viewBox="0.00 0.00 277.00 110.00" xmlns="http://www.w3.org/2000/svg" xmlns:xlink="http://www.w3.org/1999/xlink">
<g id="graph0" class="graph" transform="scale(1 1) rotate(0) translate(4 106)">
<title>Ligands Binding to RNA Structures</title>
<!-- Node0 -->
<g id="node1" class="node">
<title>Node0</title>
<polygon fill="#bfbfbf" stroke="#000000" points="0,-30.5 0,-60.5 97,-60.5 97,-30.5 0,-30.5"/>
<text text-anchor="start" x="8" y="-48.5" font-family="Helvetica,sans-Serif" font-size="10.00" fill="#000000">Ligands Binding to</text>
<text text-anchor="middle" x="48.5" y="-37.5" font-family="Helvetica,sans-Serif" font-size="10.00" fill="#000000"> RNA Structures</text>
</g>
<!-- Node2 -->
<g id="node2" class="node">
<title>Node2</title>
<g id="a_node2"><a xlink:href="group__constraints__ligand.html" target="_top" xlink:title="Ligand binding to specific hairpin/interior loop like motifs using the Soft Constraints feature...">
<polygon fill="none" stroke="#000000" points="133,-49.5 133,-101.5 269,-101.5 269,-49.5 133,-49.5"/>
<text text-anchor="start" x="141" y="-89.5" font-family="Helvetica,sans-Serif" font-size="10.00" fill="#000000">Incorporating Ligands</text>
<text text-anchor="start" x="141" y="-78.5" font-family="Helvetica,sans-Serif" font-size="10.00" fill="#000000"> Binding to Specific</text>
<text text-anchor="start" x="141" y="-67.5" font-family="Helvetica,sans-Serif" font-size="10.00" fill="#000000"> Sequence/Structure Motifs</text>
<text text-anchor="middle" x="201" y="-56.5" font-family="Helvetica,sans-Serif" font-size="10.00" fill="#000000"> using Soft Constraints</text>
</a>
</g>
</g>
<!-- Node0&#45;&gt;Node2 -->
<g id="edge2" class="edge">
<title>Node0&#45;&gt;Node2</title>
<path fill="none" stroke="#000000" d="M107.2044,-57.0484C115.5749,-58.6951 124.2438,-60.4004 132.777,-62.0791"/>
<polygon fill="#000000" stroke="#000000" points="107.6588,-53.5708 97.1712,-55.0747 106.3076,-60.4391 107.6588,-53.5708"/>
</g>
<!-- Node1 -->
<g id="node3" class="node">
<title>Node1</title>
<g id="a_node3"><a xlink:href="group__ligands__up.html" target="_top" xlink:title="Add ligand binding to loop regions using the Unstructured Domains feature. ">
<polygon fill="none" stroke="#000000" points="142,-.5 142,-30.5 260,-30.5 260,-.5 142,-.5"/>
<text text-anchor="start" x="150" y="-18.5" font-family="Helvetica,sans-Serif" font-size="10.00" fill="#000000">Ligands Binding to</text>
<text text-anchor="middle" x="201" y="-7.5" font-family="Helvetica,sans-Serif" font-size="10.00" fill="#000000"> Unstructured Domains</text>
</a>
</g>
</g>
<!-- Node0&#45;&gt;Node1 -->
<g id="edge1" class="edge">
<title>Node0&#45;&gt;Node1</title>
<path fill="none" stroke="#000000" d="M107.0282,-33.9862C118.4405,-31.7412 130.4136,-29.3859 141.846,-27.1369"/>
<polygon fill="#000000" stroke="#000000" points="106.3076,-30.5608 97.1712,-35.9253 107.6588,-37.4292 106.3076,-30.5608"/>
</g>
</g>
</svg>
