<?xml version="1.0" encoding="UTF-8" standalone="no"?>
<!DOCTYPE svg PUBLIC "-//W3C//DTD SVG 1.1//EN"
 "http://www.w3.org/Graphics/SVG/1.1/DTD/svg11.dtd">
<!-- Generated by graphviz version 2.40.1 (20161225.0304)
 -->
<!-- Title: (Abstract) Data Structures Pages: 1 -->
<svg width="397pt" height="154pt"
 viewBox="0.00 0.00 397.00 154.00" xmlns="http://www.w3.org/2000/svg" xmlns:xlink="http://www.w3.org/1999/xlink">
<g id="graph0" class="graph" transform="scale(1 1) rotate(0) translate(4 150)">
<title>(Abstract) Data Structures</title>
<!-- Node0 -->
<g id="node1" class="node">
<title>Node0</title>
<polygon fill="#bfbfbf" stroke="#000000" points="86,-66.5 86,-85.5 217,-85.5 217,-66.5 86,-66.5"/>
<text text-anchor="middle" x="151.5" y="-73.5" font-family="Helvetica,sans-Serif" font-size="10.00" fill="#000000">(Abstract) Data Structures</text>
</g>
<!-- Node2 -->
<g id="node2" class="node">
<title>Node2</title>
<g id="a_node2"><a xlink:href="group__fold__compound.html" target="_top" xlink:title="This module provides interfaces that deal with the most basic data structure used in structure predic...">
<polygon fill="none" stroke="#000000" points="268.5,-126.5 268.5,-145.5 373.5,-145.5 373.5,-126.5 268.5,-126.5"/>
<text text-anchor="middle" x="321" y="-133.5" font-family="Helvetica,sans-Serif" font-size="10.00" fill="#000000">The Fold Compound</text>
</a>
</g>
</g>
<!-- Node0&#45;&gt;Node2 -->
<g id="edge2" class="edge">
<title>Node0&#45;&gt;Node2</title>
<path fill="none" stroke="#000000" d="M182.2311,-89.4551C202.1881,-97.9328 228.8814,-108.7878 253,-117 262.979,-120.3978 273.9275,-123.6569 284.0678,-126.4871"/>
<polygon fill="#000000" stroke="#000000" points="183.5862,-86.228 173.016,-85.5063 180.8291,-92.6622 183.5862,-86.228"/>
</g>
<!-- Node5 -->
<g id="node4" class="node">
<title>Node5</title>
<g id="a_node4"><a xlink:href="group__buffer__utils.html" target="_top" xlink:title="Functions that provide dynamically buffered stream&#45;like data structures. ">
<polygon fill="none" stroke="#000000" points="297,-88.5 297,-107.5 345,-107.5 345,-88.5 297,-88.5"/>
<text text-anchor="middle" x="321" y="-95.5" font-family="Helvetica,sans-Serif" font-size="10.00" fill="#000000">Buffers</text>
</a>
</g>
</g>
<!-- Node0&#45;&gt;Node5 -->
<g id="edge5" class="edge">
<title>Node0&#45;&gt;Node5</title>
<path fill="none" stroke="#000000" d="M226.9587,-85.7941C252.082,-89.0549 278.3077,-92.4588 296.6612,-94.841"/>
<polygon fill="#000000" stroke="#000000" points="227.4005,-82.3221 217.0331,-84.5058 226.4994,-89.2639 227.4005,-82.3221"/>
</g>
<!-- Node3 -->
<g id="node5" class="node">
<title>Node3</title>
<g id="a_node5"><a xlink:href="group__dp__matrices.html" target="_top" xlink:title="This module provides interfaces that deal with creation and destruction of dynamic programming matric...">
<polygon fill="none" stroke="#000000" points="253,-39 253,-69 389,-69 389,-39 253,-39"/>
<text text-anchor="start" x="261" y="-57" font-family="Helvetica,sans-Serif" font-size="10.00" fill="#000000">The Dynamic Programming</text>
<text text-anchor="middle" x="321" y="-46" font-family="Helvetica,sans-Serif" font-size="10.00" fill="#000000"> Matrices</text>
</a>
</g>
</g>
<!-- Node0&#45;&gt;Node3 -->
<g id="edge3" class="edge">
<title>Node0&#45;&gt;Node3</title>
<path fill="none" stroke="#000000" d="M227.0388,-66.1956C235.6304,-65.0804 244.3498,-63.9487 252.8382,-62.847"/>
<polygon fill="#000000" stroke="#000000" points="226.4994,-62.7361 217.0331,-67.4942 227.4005,-69.6779 226.4994,-62.7361"/>
</g>
<!-- Node4 -->
<g id="node6" class="node">
<title>Node4</title>
<g id="a_node6"><a xlink:href="group__hash__table__utils.html" target="_top" xlink:title="Various implementations of hash table functions. ">
<polygon fill="none" stroke="#000000" points="285,-.5 285,-19.5 357,-19.5 357,-.5 285,-.5"/>
<text text-anchor="middle" x="321" y="-7.5" font-family="Helvetica,sans-Serif" font-size="10.00" fill="#000000">Hash Tables</text>
</a>
</g>
</g>
<!-- Node0&#45;&gt;Node4 -->
<g id="edge4" class="edge">
<title>Node0&#45;&gt;Node4</title>
<path fill="none" stroke="#000000" d="M179.0182,-61.786C199.1513,-51.7521 227.3194,-38.4633 253,-29 263.1215,-25.2702 274.3196,-21.8596 284.6582,-18.9893"/>
<polygon fill="#000000" stroke="#000000" points="177.1806,-58.7927 169.8262,-66.4192 180.3314,-65.0435 177.1806,-58.7927"/>
</g>
<!-- Node1 -->
<g id="node3" class="node">
<title>Node1</title>
<g id="a_node3"><a xlink:href="group__utils.html" target="_top" xlink:title="Utilities">
<polygon fill="none" stroke="#000000" points="0,-66.5 0,-85.5 50,-85.5 50,-66.5 0,-66.5"/>
<text text-anchor="middle" x="25" y="-73.5" font-family="Helvetica,sans-Serif" font-size="10.00" fill="#000000">Utilities</text>
</a>
</g>
</g>
<!-- Node1&#45;&gt;Node0 -->
<g id="edge1" class="edge">
<title>Node1&#45;&gt;Node0</title>
<path fill="none" stroke="#000000" d="M60.3308,-76C68.3358,-76 77.0872,-76 85.8995,-76"/>
<polygon fill="#000000" stroke="#000000" points="60.2952,-72.5001 50.2951,-76 60.2951,-79.5001 60.2952,-72.5001"/>
</g>
</g>
</svg>
