<?xml version="1.0" encoding="UTF-8" standalone="no"?>
<!DOCTYPE svg PUBLIC "-//W3C//DTD SVG 1.1//EN"
 "http://www.w3.org/Graphics/SVG/1.1/DTD/svg11.dtd">
<!-- Generated by graphviz version 2.40.1 (20161225.0304)
 -->
<!-- Title: Extending the Folding Grammar with Additional Domains Pages: 1 -->
<svg width="458pt" height="66pt"
 viewBox="0.00 0.00 458.00 66.00" xmlns="http://www.w3.org/2000/svg" xmlns:xlink="http://www.w3.org/1999/xlink">
<g id="graph0" class="graph" transform="scale(1 1) rotate(0) translate(4 62)">
<title>Extending the Folding Grammar with Additional Domains</title>
<!-- Node3 -->
<g id="node1" class="node">
<title>Node3</title>
<g id="a_node1"><a xlink:href="group__domains__struc.html" target="_top" xlink:title="Add and modify structured domains to the RNA folding grammar. ">
<polygon fill="none" stroke="#000000" points="340.5,-38.5 340.5,-57.5 444.5,-57.5 444.5,-38.5 340.5,-38.5"/>
<text text-anchor="middle" x="392.5" y="-45.5" font-family="Helvetica,sans-Serif" font-size="10.00" fill="#000000">Structured Domains</text>
</a>
</g>
</g>
<!-- Node1 -->
<g id="node2" class="node">
<title>Node1</title>
<g id="a_node2"><a xlink:href="group__grammar.html" target="_top" xlink:title="The RNA folding grammar as implemented in RNAlib. ">
<polygon fill="none" stroke="#000000" points="0,-19.5 0,-38.5 136,-38.5 136,-19.5 0,-19.5"/>
<text text-anchor="middle" x="68" y="-26.5" font-family="Helvetica,sans-Serif" font-size="10.00" fill="#000000">The RNA Folding Grammar</text>
</a>
</g>
</g>
<!-- Node0 -->
<g id="node4" class="node">
<title>Node0</title>
<polygon fill="#bfbfbf" stroke="#000000" points="172,-8.5 172,-49.5 299,-49.5 299,-8.5 172,-8.5"/>
<text text-anchor="start" x="180" y="-37.5" font-family="Helvetica,sans-Serif" font-size="10.00" fill="#000000">Extending the Folding</text>
<text text-anchor="start" x="180" y="-26.5" font-family="Helvetica,sans-Serif" font-size="10.00" fill="#000000"> Grammar with Additional</text>
<text text-anchor="middle" x="235.5" y="-15.5" font-family="Helvetica,sans-Serif" font-size="10.00" fill="#000000"> Domains</text>
</g>
<!-- Node1&#45;&gt;Node0 -->
<g id="edge1" class="edge">
<title>Node1&#45;&gt;Node0</title>
<path fill="none" stroke="#000000" d="M146.143,-29C154.7231,-29 163.382,-29 171.7574,-29"/>
<polygon fill="#000000" stroke="#000000" points="146.1287,-25.5001 136.1287,-29 146.1286,-32.5001 146.1287,-25.5001"/>
</g>
<!-- Node2 -->
<g id="node3" class="node">
<title>Node2</title>
<g id="a_node3"><a xlink:href="group__domains__up.html" target="_top" xlink:title="Add and modify unstructured domains to the RNA folding grammar. ">
<polygon fill="none" stroke="#000000" points="335,-.5 335,-19.5 450,-19.5 450,-.5 335,-.5"/>
<text text-anchor="middle" x="392.5" y="-7.5" font-family="Helvetica,sans-Serif" font-size="10.00" fill="#000000">Unstructured Domains</text>
</a>
</g>
</g>
<!-- Node0&#45;&gt;Node3 -->
<g id="edge3" class="edge">
<title>Node0&#45;&gt;Node3</title>
<path fill="none" stroke="#000000" d="M309.3094,-37.9324C319.7498,-39.1958 330.3011,-40.4727 340.2213,-41.6733"/>
<polygon fill="#000000" stroke="#000000" points="309.706,-34.4549 299.3579,-36.728 308.8649,-41.4042 309.706,-34.4549"/>
</g>
<!-- Node0&#45;&gt;Node2 -->
<g id="edge2" class="edge">
<title>Node0&#45;&gt;Node2</title>
<path fill="none" stroke="#000000" d="M309.3256,-20.0657C317.8663,-19.0321 326.481,-17.9896 334.7635,-16.9872"/>
<polygon fill="#000000" stroke="#000000" points="308.8649,-16.5958 299.3579,-21.272 309.706,-23.5451 308.8649,-16.5958"/>
</g>
</g>
</svg>
