<?xml version="1.0" encoding="UTF-8" standalone="no"?>
<!DOCTYPE svg PUBLIC "-//W3C//DTD SVG 1.1//EN"
 "http://www.w3.org/Graphics/SVG/1.1/DTD/svg11.dtd">
<!-- Generated by graphviz version 2.40.1 (20161225.0304)
 -->
<!-- Title: Global MFE Prediction Pages: 1 -->
<svg width="345pt" height="137pt"
 viewBox="0.00 0.00 345.00 137.00" xmlns="http://www.w3.org/2000/svg" xmlns:xlink="http://www.w3.org/1999/xlink">
<g id="graph0" class="graph" transform="scale(1 1) rotate(0) translate(4 133)">
<title>Global MFE Prediction</title>
<!-- Node3 -->
<g id="node1" class="node">
<title>Node3</title>
<g id="a_node1"><a xlink:href="group__mfe__global__deprecated.html" target="_top" xlink:title="Deprecated Interface\l for Global MFE Prediction">
<polygon fill="none" stroke="#000000" points="190.5,-98.5 190.5,-128.5 322.5,-128.5 322.5,-98.5 190.5,-98.5"/>
<text text-anchor="start" x="198.5" y="-116.5" font-family="Helvetica,sans-Serif" font-size="10.00" fill="#000000">Deprecated Interface</text>
<text text-anchor="middle" x="256.5" y="-105.5" font-family="Helvetica,sans-Serif" font-size="10.00" fill="#000000"> for Global MFE Prediction</text>
</a>
</g>
</g>
<!-- Node0 -->
<g id="node2" class="node">
<title>Node0</title>
<polygon fill="#bfbfbf" stroke="#000000" points="0,-54 0,-73 115,-73 115,-54 0,-54"/>
<text text-anchor="middle" x="57.5" y="-61" font-family="Helvetica,sans-Serif" font-size="10.00" fill="#000000">Global MFE Prediction</text>
</g>
<!-- Node0&#45;&gt;Node3 -->
<g id="edge3" class="edge">
<title>Node0&#45;&gt;Node3</title>
<path fill="none" stroke="#000000" d="M105.1367,-75.469C132.5258,-82.3507 167.1921,-91.0608 196.436,-98.4085"/>
<polygon fill="#000000" stroke="#000000" points="105.9503,-72.0647 95.3988,-73.0223 104.2444,-78.8537 105.9503,-72.0647"/>
</g>
<!-- Node1 -->
<g id="node3" class="node">
<title>Node1</title>
<g id="a_node3"><a xlink:href="group__mfe.html" target="_top" xlink:title="Predicting the Minimum Free Energy (MFE) and a corresponding (consensus) secondary structure...">
<polygon fill="none" stroke="#000000" points="200,-49.5 200,-79.5 313,-79.5 313,-49.5 200,-49.5"/>
<text text-anchor="start" x="208" y="-67.5" font-family="Helvetica,sans-Serif" font-size="10.00" fill="#000000">Minimum Free Energy</text>
<text text-anchor="middle" x="256.5" y="-56.5" font-family="Helvetica,sans-Serif" font-size="10.00" fill="#000000"> (MFE) Algorithms</text>
</a>
</g>
</g>
<!-- Node0&#45;&gt;Node1 -->
<g id="edge4" class="edge">
<title>Node0&#45;&gt;Node1</title>
<path fill="none" stroke="#006400" stroke-dasharray="5,2" d="M115.059,-63.7892C141.6902,-63.9231 173.2279,-64.0815 199.7575,-64.2149"/>
<text text-anchor="middle" x="145.5" y="-66.5" font-family="Helvetica,sans-Serif" font-size="10.00" fill="#000000">mfe.h</text>
</g>
<!-- Node2 -->
<g id="node4" class="node">
<title>Node2</title>
<g id="a_node4"><a xlink:href="group__kl__neighborhood__mfe.html" target="_top" xlink:title="Compute the minimum free energy (MFE) and secondary structures for a partitioning of the secondary st...">
<polygon fill="none" stroke="#000000" points="176,-.5 176,-30.5 337,-30.5 337,-.5 176,-.5"/>
<text text-anchor="start" x="184" y="-18.5" font-family="Helvetica,sans-Serif" font-size="10.00" fill="#000000">Computing MFE representatives</text>
<text text-anchor="middle" x="256.5" y="-7.5" font-family="Helvetica,sans-Serif" font-size="10.00" fill="#000000"> of a Distance Based Partitioning</text>
</a>
</g>
</g>
<!-- Node0&#45;&gt;Node2 -->
<g id="edge2" class="edge">
<title>Node0&#45;&gt;Node2</title>
<path fill="none" stroke="#000000" d="M107.0515,-51.5479C133.3791,-45.1975 166.006,-37.3277 194.0513,-30.563"/>
<polygon fill="#000000" stroke="#000000" points="106.1928,-48.1545 97.2923,-53.9018 107.8343,-54.9594 106.1928,-48.1545"/>
</g>
<!-- Node1&#45;&gt;Node0 -->
<g id="edge1" class="edge">
<title>Node1&#45;&gt;Node0</title>
<path fill="none" stroke="#000000" d="M189.8873,-61.9661C171.4612,-61.5146 151.4565,-61.2556 133,-61.5 127.2311,-61.5764 121.2149,-61.6856 115.2069,-61.8141"/>
<polygon fill="#000000" stroke="#000000" points="189.8518,-65.4663 199.9418,-62.2348 190.0389,-58.4688 189.8518,-65.4663"/>
</g>
</g>
</svg>
