<?xml version="1.0" encoding="UTF-8" standalone="no"?>
<!DOCTYPE svg PUBLIC "-//W3C//DTD SVG 1.1//EN"
 "http://www.w3.org/Graphics/SVG/1.1/DTD/svg11.dtd">
<!-- Generated by graphviz version 2.40.1 (20161225.0304)
 -->
<!-- Title: The RNA Secondary Structure Landscape Pages: 1 -->
<svg width="343pt" height="100pt"
 viewBox="0.00 0.00 343.00 99.50" xmlns="http://www.w3.org/2000/svg" xmlns:xlink="http://www.w3.org/1999/xlink">
<g id="graph0" class="graph" transform="scale(1 1) rotate(0) translate(4 95.5)">
<title>The RNA Secondary Structure Landscape</title>
<!-- Node1 -->
<g id="node1" class="node">
<title>Node1</title>
<g id="a_node1"><a xlink:href="group__neighbors.html" target="_top" xlink:title="Different functions to generate structural neighbors of a secondary structure according to a particul...">
<polygon fill="none" stroke="#000000" points="186,-50 186,-91 335,-91 335,-50 186,-50"/>
<text text-anchor="start" x="194" y="-79" font-family="Helvetica,sans-Serif" font-size="10.00" fill="#000000">Neighborhood Relation</text>
<text text-anchor="start" x="194" y="-68" font-family="Helvetica,sans-Serif" font-size="10.00" fill="#000000"> and Move Sets for Secondary</text>
<text text-anchor="middle" x="260.5" y="-57" font-family="Helvetica,sans-Serif" font-size="10.00" fill="#000000"> Structures</text>
</a>
</g>
</g>
<!-- Node2 -->
<g id="node2" class="node">
<title>Node2</title>
<g id="a_node2"><a xlink:href="group__paths.html" target="_top" xlink:title="Refolding Paths of\l Secondary Structures">
<polygon fill="none" stroke="#000000" points="203.5,-.5 203.5,-30.5 317.5,-30.5 317.5,-.5 203.5,-.5"/>
<text text-anchor="start" x="211.5" y="-18.5" font-family="Helvetica,sans-Serif" font-size="10.00" fill="#000000">Refolding Paths of</text>
<text text-anchor="middle" x="260.5" y="-7.5" font-family="Helvetica,sans-Serif" font-size="10.00" fill="#000000"> Secondary Structures</text>
</a>
</g>
</g>
<!-- Node0 -->
<g id="node3" class="node">
<title>Node0</title>
<polygon fill="#bfbfbf" stroke="#000000" points="0,-27.5 0,-57.5 150,-57.5 150,-27.5 0,-27.5"/>
<text text-anchor="start" x="8" y="-45.5" font-family="Helvetica,sans-Serif" font-size="10.00" fill="#000000">The RNA Secondary Structure</text>
<text text-anchor="middle" x="75" y="-34.5" font-family="Helvetica,sans-Serif" font-size="10.00" fill="#000000"> Landscape</text>
</g>
<!-- Node0&#45;&gt;Node1 -->
<g id="edge1" class="edge">
<title>Node0&#45;&gt;Node1</title>
<path fill="none" stroke="#000000" d="M160.1719,-55.3561C168.7302,-56.648 177.3752,-57.9529 185.8128,-59.2265"/>
<polygon fill="#000000" stroke="#000000" points="160.5929,-51.8801 150.1825,-53.8483 159.5481,-58.8017 160.5929,-51.8801"/>
</g>
<!-- Node0&#45;&gt;Node2 -->
<g id="edge2" class="edge">
<title>Node0&#45;&gt;Node2</title>
<path fill="none" stroke="#000000" d="M160.2578,-30.0905C174.8948,-27.9601 189.7823,-25.7931 203.4494,-23.8039"/>
<polygon fill="#000000" stroke="#000000" points="159.5741,-26.6531 150.1825,-31.557 160.5824,-33.5801 159.5741,-26.6531"/>
</g>
</g>
</svg>
