<?xml version="1.0" encoding="UTF-8" standalone="no"?>
<!DOCTYPE svg PUBLIC "-//W3C//DTD SVG 1.1//EN"
 "http://www.w3.org/Graphics/SVG/1.1/DTD/svg11.dtd">
<!-- Generated by graphviz version 2.40.1 (20161225.0304)
 -->
<!-- Title: Search Algorithms Pages: 1 -->
<svg width="252pt" height="29pt"
 viewBox="0.00 0.00 252.00 29.00" xmlns="http://www.w3.org/2000/svg" xmlns:xlink="http://www.w3.org/1999/xlink">
<g id="graph0" class="graph" transform="scale(1 1) rotate(0) translate(4 25)">
<title>Search Algorithms</title>
<!-- Node0 -->
<g id="node1" class="node">
<title>Node0</title>
<polygon fill="#bfbfbf" stroke="#000000" points="0,-.5 0,-19.5 97,-19.5 97,-.5 0,-.5"/>
<text text-anchor="middle" x="48.5" y="-7.5" font-family="Helvetica,sans-Serif" font-size="10.00" fill="#000000">Search Algorithms</text>
</g>
<!-- Node1 -->
<g id="node2" class="node">
<title>Node1</title>
<g id="a_node2"><a xlink:href="group__utils.html" target="_top" xlink:title="Utilities">
<polygon fill="none" stroke="#000000" points="194,-.5 194,-19.5 244,-19.5 244,-.5 194,-.5"/>
<text text-anchor="middle" x="219" y="-7.5" font-family="Helvetica,sans-Serif" font-size="10.00" fill="#000000">Utilities</text>
</a>
</g>
</g>
<!-- Node0&#45;&gt;Node1 -->
<g id="edge2" class="edge">
<title>Node0&#45;&gt;Node1</title>
<path fill="none" stroke="#006400" stroke-dasharray="5,2" d="M97.3585,-10C128.8475,-10 168.4914,-10 193.7963,-10"/>
<text text-anchor="middle" x="145.5" y="-13" font-family="Helvetica,sans-Serif" font-size="10.00" fill="#000000">BoyerMoore.h</text>
</g>
<!-- Node1&#45;&gt;Node0 -->
<g id="edge1" class="edge">
<title>Node1&#45;&gt;Node0</title>
<path fill="none" stroke="#000000" d="M183.834,-8.2307C181.1835,-8.1383 178.5496,-8.0593 176,-8 149.9947,-7.3956 121.0015,-7.7673 97.2416,-8.3465"/>
<polygon fill="#000000" stroke="#000000" points="183.8625,-11.7346 193.9954,-8.6403 184.1445,-4.7403 183.8625,-11.7346"/>
</g>
</g>
</svg>
