<?xml version="1.0" encoding="UTF-8" standalone="no"?>
<!DOCTYPE svg PUBLIC "-//W3C//DTD SVG 1.1//EN"
 "http://www.w3.org/Graphics/SVG/1.1/DTD/svg11.dtd">
<!-- Generated by graphviz version 2.40.1 (20161225.0304)
 -->
<!-- Title: Files and I/O Pages: 1 -->
<svg width="350pt" height="248pt"
 viewBox="0.00 0.00 350.00 247.64" xmlns="http://www.w3.org/2000/svg" xmlns:xlink="http://www.w3.org/1999/xlink">
<g id="graph0" class="graph" transform="scale(1 1) rotate(0) translate(4 243.6371)">
<title>Files and I/O</title>
<!-- Node4 -->
<g id="node1" class="node">
<title>Node4</title>
<g id="a_node1"><a xlink:href="group__command__files.html" target="_top" xlink:title="Functions to parse and interpret the content of Command Files. ">
<polygon fill="none" stroke="#000000" points="224.5,-212.8676 224.5,-231.8676 310.5,-231.8676 310.5,-212.8676 224.5,-212.8676"/>
<text text-anchor="middle" x="267.5" y="-219.8676" font-family="Helvetica,sans-Serif" font-size="10.00" fill="#000000">Command Files</text>
</a>
</g>
</g>
<!-- Node2 -->
<g id="node2" class="node">
<title>Node2</title>
<g id="a_node2"><a xlink:href="group__file__formats.html" target="_top" xlink:title="Functions to read/write different file formats for nucleic acid sequences and secondary structures...">
<polygon fill="none" stroke="#000000" points="205.5,-148.3676 205.5,-178.3676 329.5,-178.3676 329.5,-148.3676 205.5,-148.3676"/>
<text text-anchor="start" x="213.5" y="-166.3676" font-family="Helvetica,sans-Serif" font-size="10.00" fill="#000000">Nucleic Acid Sequences</text>
<text text-anchor="middle" x="267.5" y="-155.3676" font-family="Helvetica,sans-Serif" font-size="10.00" fill="#000000"> and Structures</text>
</a>
</g>
</g>
<!-- Node0 -->
<g id="node3" class="node">
<title>Node0</title>
<polygon fill="#bfbfbf" stroke="#000000" points="0,-112.8676 0,-131.8676 73,-131.8676 73,-112.8676 0,-112.8676"/>
<text text-anchor="middle" x="36.5" y="-119.8676" font-family="Helvetica,sans-Serif" font-size="10.00" fill="#000000">Files and I/O</text>
</g>
<!-- Node0&#45;&gt;Node4 -->
<g id="edge4" class="edge">
<title>Node0&#45;&gt;Node4</title>
<path fill="none" stroke="#000000" d="M40.9082,-141.8624C47.4,-165.4491 62.0321,-204.1364 91,-221.3676 134.4541,-247.2158 195.2149,-240.1595 232.9212,-231.8768"/>
<polygon fill="#000000" stroke="#000000" points="44.2455,-140.7816 38.4118,-131.9374 37.4569,-142.4891 44.2455,-140.7816"/>
</g>
<!-- Node0&#45;&gt;Node4 -->
<g id="edge6" class="edge">
<title>Node0&#45;&gt;Node4</title>
<path fill="none" stroke="#006400" stroke-dasharray="5,2" d="M42.6192,-131.9871C51.5756,-145.2411 69.5422,-168.8919 91,-181.3676 113.3005,-194.3333 179.4642,-207.5131 224.1392,-215.3116"/>
<text text-anchor="middle" x="133" y="-208.3676" font-family="Helvetica,sans-Serif" font-size="10.00" fill="#000000">commands.h</text>
</g>
<!-- Node0&#45;&gt;Node2 -->
<g id="edge2" class="edge">
<title>Node0&#45;&gt;Node2</title>
<path fill="none" stroke="#000000" d="M53.3929,-139.1273C63.4179,-147.8743 76.897,-157.7033 91,-162.3676 127.5117,-174.4432 170.643,-174.9193 205.1288,-172.2669"/>
<polygon fill="#000000" stroke="#000000" points="55.5714,-136.3754 45.8463,-132.1714 50.8272,-141.5225 55.5714,-136.3754"/>
</g>
<!-- Node0&#45;&gt;Node2 -->
<g id="edge7" class="edge">
<title>Node0&#45;&gt;Node2</title>
<path fill="none" stroke="#006400" stroke-dasharray="5,2" d="M73.1026,-128.8642C108.5965,-135.164 163.1319,-144.8434 205.4171,-152.3486"/>
<text text-anchor="middle" x="133" y="-149.3676" font-family="Helvetica,sans-Serif" font-size="10.00" fill="#000000">file_formats.h</text>
</g>
<!-- Node1 -->
<g id="node4" class="node">
<title>Node1</title>
<g id="a_node4"><a xlink:href="group__utils.html" target="_top" xlink:title="Utilities">
<polygon fill="none" stroke="#000000" points="242.5,-60.8676 242.5,-79.8676 292.5,-79.8676 292.5,-60.8676 242.5,-60.8676"/>
<text text-anchor="middle" x="267.5" y="-67.8676" font-family="Helvetica,sans-Serif" font-size="10.00" fill="#000000">Utilities</text>
</a>
</g>
</g>
<!-- Node0&#45;&gt;Node1 -->
<g id="edge5" class="edge">
<title>Node0&#45;&gt;Node1</title>
<path fill="none" stroke="#006400" stroke-dasharray="5,2" d="M51.6379,-112.8135C62.2541,-106.5663 76.9972,-98.7741 91,-94.3676 143.212,-77.9374 207.5991,-72.7541 242.3659,-71.1196"/>
<text text-anchor="middle" x="133" y="-119.3676" font-family="Helvetica,sans-Serif" font-size="10.00" fill="#000000">commands.h</text>
<text text-anchor="middle" x="133" y="-108.3676" font-family="Helvetica,sans-Serif" font-size="10.00" fill="#000000">file_formats_msa.h</text>
<text text-anchor="middle" x="133" y="-97.3676" font-family="Helvetica,sans-Serif" font-size="10.00" fill="#000000">utils.h</text>
</g>
<!-- Node3 -->
<g id="node5" class="node">
<title>Node3</title>
<g id="a_node5"><a xlink:href="group__file__formats__msa.html" target="_top" xlink:title="Functions to read/write multiple sequence alignments (MSA) in various file formats. ">
<polygon fill="none" stroke="#000000" points="193,-16.8676 193,-35.8676 342,-35.8676 342,-16.8676 193,-16.8676"/>
<text text-anchor="middle" x="267.5" y="-23.8676" font-family="Helvetica,sans-Serif" font-size="10.00" fill="#000000">Multiple Sequence Alignments</text>
</a>
</g>
</g>
<!-- Node0&#45;&gt;Node3 -->
<g id="edge3" class="edge">
<title>Node0&#45;&gt;Node3</title>
<path fill="none" stroke="#000000" d="M47.0873,-103.6319C56.5899,-88.6366 71.9577,-68.3579 91,-57.3676 121.5832,-39.7164 159.7419,-31.6233 192.747,-28.0825"/>
<polygon fill="#000000" stroke="#000000" points="43.8649,-102.1989 41.7099,-112.5723 49.8635,-105.8069 43.8649,-102.1989"/>
</g>
<!-- Node0&#45;&gt;Node3 -->
<g id="edge8" class="edge">
<title>Node0&#45;&gt;Node3</title>
<path fill="none" stroke="#006400" stroke-dasharray="5,2" d="M38.0496,-112.7921C42.1471,-91.0235 55.4969,-38.0345 91,-16.3676 138.4187,12.5712 207.0155,-4.4102 243.139,-16.8441"/>
<text text-anchor="middle" x="133" y="-19.3676" font-family="Helvetica,sans-Serif" font-size="10.00" fill="#000000">file_formats_msa.h</text>
</g>
<!-- Node1&#45;&gt;Node0 -->
<g id="edge1" class="edge">
<title>Node1&#45;&gt;Node0</title>
<path fill="none" stroke="#000000" d="M232.3179,-64.6323C195.6871,-60.1784 137.3025,-57.4096 91,-75.3676 71.197,-83.0481 53.6615,-101.2539 44.1147,-112.6192"/>
<polygon fill="#000000" stroke="#000000" points="232.1239,-68.1371 242.4973,-65.9822 233.0442,-61.1979 232.1239,-68.1371"/>
</g>
</g>
</svg>
