<?xml version="1.0" encoding="UTF-8" standalone="no"?>
<!DOCTYPE svg PUBLIC "-//W3C//DTD SVG 1.1//EN"
 "http://www.w3.org/Graphics/SVG/1.1/DTD/svg11.dtd">
<!-- Generated by graphviz version 2.40.1 (20161225.0304)
 -->
<!-- Title: Multiple Sequence Alignments Pages: 1 -->
<svg width="520pt" height="36pt"
 viewBox="0.00 0.00 520.00 35.54" xmlns="http://www.w3.org/2000/svg" xmlns:xlink="http://www.w3.org/1999/xlink">
<g id="graph0" class="graph" transform="scale(1 1) rotate(0) translate(4 31.5377)">
<title>Multiple Sequence Alignments</title>
<!-- Node1 -->
<g id="node1" class="node">
<title>Node1</title>
<g id="a_node1"><a xlink:href="group__file__utils.html" target="_top" xlink:title="Functions to parse, write, and convert various file formats and to deal with file system related issu...">
<polygon fill="none" stroke="#000000" points="0,-7.0377 0,-26.0377 73,-26.0377 73,-7.0377 0,-7.0377"/>
<text text-anchor="middle" x="36.5" y="-14.0377" font-family="Helvetica,sans-Serif" font-size="10.00" fill="#000000">Files and I/O</text>
</a>
</g>
</g>
<!-- Node0 -->
<g id="node3" class="node">
<title>Node0</title>
<polygon fill="#bfbfbf" stroke="#000000" points="193,-7.0377 193,-26.0377 342,-26.0377 342,-7.0377 193,-7.0377"/>
<text text-anchor="middle" x="267.5" y="-14.0377" font-family="Helvetica,sans-Serif" font-size="10.00" fill="#000000">Multiple Sequence Alignments</text>
</g>
<!-- Node1&#45;&gt;Node0 -->
<g id="edge1" class="edge">
<title>Node1&#45;&gt;Node0</title>
<path fill="none" stroke="#000000" d="M83.3272,-16.5377C114.7514,-16.5377 156.8246,-16.5377 192.8249,-16.5377"/>
<polygon fill="#000000" stroke="#000000" points="83.1027,-13.0378 73.1026,-16.5377 83.1026,-20.0378 83.1027,-13.0378"/>
</g>
<!-- Node2 -->
<g id="node2" class="node">
<title>Node2</title>
<g id="a_node2"><a xlink:href="group__utils.html" target="_top" xlink:title="Utilities">
<polygon fill="none" stroke="#000000" points="462,-7.0377 462,-26.0377 512,-26.0377 512,-7.0377 462,-7.0377"/>
<text text-anchor="middle" x="487" y="-14.0377" font-family="Helvetica,sans-Serif" font-size="10.00" fill="#000000">Utilities</text>
</a>
</g>
</g>
<!-- Node0&#45;&gt;Node1 -->
<g id="edge3" class="edge">
<title>Node0&#45;&gt;Node1</title>
<path fill="none" stroke="#006400" stroke-dasharray="5,2" d="M216.7783,-7.0233C181.4334,-1.7351 133.237,2.8006 91,-2.5377 83.4403,-3.4932 75.4278,-5.1661 67.9403,-7.0305"/>
<text text-anchor="middle" x="133" y="-5.5377" font-family="Helvetica,sans-Serif" font-size="10.00" fill="#000000">file_formats_msa.h</text>
</g>
<!-- Node0&#45;&gt;Node2 -->
<g id="edge2" class="edge">
<title>Node0&#45;&gt;Node2</title>
<path fill="none" stroke="#006400" stroke-dasharray="5,2" d="M342.119,-16.5377C383.7541,-16.5377 432.93,-16.5377 461.9546,-16.5377"/>
<text text-anchor="middle" x="402" y="-19.5377" font-family="Helvetica,sans-Serif" font-size="10.00" fill="#000000">file_formats_msa.h</text>
</g>
</g>
</svg>
