<?xml version="1.0" encoding="UTF-8" standalone="no"?>
<!DOCTYPE svg PUBLIC "-//W3C//DTD SVG 1.1//EN"
 "http://www.w3.org/Graphics/SVG/1.1/DTD/svg11.dtd">
<!-- Generated by graphviz version 2.40.1 (20161225.0304)
 -->
<!-- Title: Command Files Pages: 1 -->
<svg width="260pt" height="76pt"
 viewBox="0.00 0.00 260.00 76.00" xmlns="http://www.w3.org/2000/svg" xmlns:xlink="http://www.w3.org/1999/xlink">
<g id="graph0" class="graph" transform="scale(1 1) rotate(0) translate(4 72)">
<title>Command Files</title>
<!-- Node0 -->
<g id="node1" class="node">
<title>Node0</title>
<polygon fill="#bfbfbf" stroke="#000000" points="0,-26.5 0,-45.5 86,-45.5 86,-26.5 0,-26.5"/>
<text text-anchor="middle" x="43" y="-33.5" font-family="Helvetica,sans-Serif" font-size="10.00" fill="#000000">Command Files</text>
</g>
<!-- Node1 -->
<g id="node2" class="node">
<title>Node1</title>
<g id="a_node2"><a xlink:href="group__file__utils.html" target="_top" xlink:title="Functions to parse, write, and convert various file formats and to deal with file system related issu...">
<polygon fill="none" stroke="#000000" points="179,-48.5 179,-67.5 252,-67.5 252,-48.5 179,-48.5"/>
<text text-anchor="middle" x="215.5" y="-55.5" font-family="Helvetica,sans-Serif" font-size="10.00" fill="#000000">Files and I/O</text>
</a>
</g>
</g>
<!-- Node0&#45;&gt;Node1 -->
<g id="edge3" class="edge">
<title>Node0&#45;&gt;Node1</title>
<path fill="none" stroke="#006400" stroke-dasharray="5,2" d="M86.2522,-44.241C92.203,-45.2457 98.2446,-46.1985 104,-47 128.8527,-50.4611 156.9708,-53.2272 178.7528,-55.1199"/>
<text text-anchor="middle" x="132.5" y="-56" font-family="Helvetica,sans-Serif" font-size="10.00" fill="#000000">commands.h</text>
</g>
<!-- Node2 -->
<g id="node3" class="node">
<title>Node2</title>
<g id="a_node3"><a xlink:href="group__utils.html" target="_top" xlink:title="Utilities">
<polygon fill="none" stroke="#000000" points="190.5,-.5 190.5,-19.5 240.5,-19.5 240.5,-.5 190.5,-.5"/>
<text text-anchor="middle" x="215.5" y="-7.5" font-family="Helvetica,sans-Serif" font-size="10.00" fill="#000000">Utilities</text>
</a>
</g>
</g>
<!-- Node0&#45;&gt;Node2 -->
<g id="edge2" class="edge">
<title>Node0&#45;&gt;Node2</title>
<path fill="none" stroke="#006400" stroke-dasharray="5,2" d="M86.0841,-29.5062C118.8157,-24.5727 162.7223,-17.9549 190.0528,-13.8355"/>
<text text-anchor="middle" x="132.5" y="-29" font-family="Helvetica,sans-Serif" font-size="10.00" fill="#000000">commands.h</text>
</g>
<!-- Node1&#45;&gt;Node0 -->
<g id="edge1" class="edge">
<title>Node1&#45;&gt;Node0</title>
<path fill="none" stroke="#000000" d="M168.7434,-51.0508C166.1248,-50.6884 163.53,-50.3357 161,-50 136.2548,-46.7165 108.5399,-43.4093 86.1908,-40.8343"/>
<polygon fill="#000000" stroke="#000000" points="168.4832,-54.5487 178.8744,-52.4819 169.4623,-47.6175 168.4832,-54.5487"/>
</g>
</g>
</svg>
