<?xml version="1.0" encoding="UTF-8" standalone="no"?>
<!DOCTYPE svg PUBLIC "-//W3C//DTD SVG 1.1//EN"
 "http://www.w3.org/Graphics/SVG/1.1/DTD/svg11.dtd">
<!-- Generated by graphviz version 2.40.1 (20161225.0304)
 -->
<!-- Title: Multiple Sequence Alignment Utilities Pages: 1 -->
<svg width="444pt" height="50pt"
 viewBox="0.00 0.00 444.00 50.00" xmlns="http://www.w3.org/2000/svg" xmlns:xlink="http://www.w3.org/1999/xlink">
<g id="graph0" class="graph" transform="scale(1 1) rotate(0) translate(4 46)">
<title>Multiple Sequence Alignment Utilities</title>
<!-- Node1 -->
<g id="node1" class="node">
<title>Node1</title>
<g id="a_node1"><a xlink:href="group__utils.html" target="_top" xlink:title="Utilities">
<polygon fill="none" stroke="#000000" points="0,-11.5 0,-30.5 50,-30.5 50,-11.5 0,-11.5"/>
<text text-anchor="middle" x="25" y="-18.5" font-family="Helvetica,sans-Serif" font-size="10.00" fill="#000000">Utilities</text>
</a>
</g>
</g>
<!-- Node0 -->
<g id="node2" class="node">
<title>Node0</title>
<polygon fill="#bfbfbf" stroke="#000000" points="142,-6 142,-36 285,-36 285,-6 142,-6"/>
<text text-anchor="start" x="150" y="-24" font-family="Helvetica,sans-Serif" font-size="10.00" fill="#000000">Multiple Sequence Alignment</text>
<text text-anchor="middle" x="213.5" y="-13" font-family="Helvetica,sans-Serif" font-size="10.00" fill="#000000"> Utilities</text>
</g>
<!-- Node1&#45;&gt;Node0 -->
<g id="edge1" class="edge">
<title>Node1&#45;&gt;Node0</title>
<path fill="none" stroke="#000000" d="M60.3145,-21C83.2821,-21 114.0486,-21 141.9822,-21"/>
<polygon fill="#000000" stroke="#000000" points="60.0314,-17.5001 50.0313,-21 60.0313,-24.5001 60.0314,-17.5001"/>
</g>
<!-- Node0&#45;&gt;Node1 -->
<g id="edge3" class="edge">
<title>Node0&#45;&gt;Node1</title>
<path fill="none" stroke="#006400" stroke-dasharray="5,2" d="M141.863,-6.9122C118.2614,-4.1855 91.9356,-3.2016 68,-7 61.9519,-7.9598 55.5975,-9.6344 49.6849,-11.4991"/>
<text text-anchor="middle" x="96" y="-10" font-family="Helvetica,sans-Serif" font-size="10.00" fill="#000000">alignments.h</text>
</g>
<!-- Node2 -->
<g id="node3" class="node">
<title>Node2</title>
<g id="a_node3"><a xlink:href="group__aln__utils__deprecated.html" target="_top" xlink:title="Deprecated Interface\l for Multiple Sequence\l Alignment Utilities">
<polygon fill="none" stroke="#000000" points="322,-.5 322,-41.5 436,-41.5 436,-.5 322,-.5"/>
<text text-anchor="start" x="330" y="-29.5" font-family="Helvetica,sans-Serif" font-size="10.00" fill="#000000">Deprecated Interface</text>
<text text-anchor="start" x="330" y="-18.5" font-family="Helvetica,sans-Serif" font-size="10.00" fill="#000000"> for Multiple Sequence</text>
<text text-anchor="middle" x="379" y="-7.5" font-family="Helvetica,sans-Serif" font-size="10.00" fill="#000000"> Alignment Utilities</text>
</a>
</g>
</g>
<!-- Node0&#45;&gt;Node2 -->
<g id="edge2" class="edge">
<title>Node0&#45;&gt;Node2</title>
<path fill="none" stroke="#000000" d="M295.2848,-21C304.3067,-21 313.3439,-21 321.9674,-21"/>
<polygon fill="#000000" stroke="#000000" points="295.1282,-17.5001 285.1282,-21 295.1281,-24.5001 295.1282,-17.5001"/>
</g>
</g>
</svg>
