<?xml version="1.0" encoding="UTF-8" standalone="no"?>
<!DOCTYPE svg PUBLIC "-//W3C//DTD SVG 1.1//EN"
 "http://www.w3.org/Graphics/SVG/1.1/DTD/svg11.dtd">
<!-- Generated by graphviz version 2.40.1 (20161225.0304)
 -->
<!-- Title: Suboptimals and Representative Structures Pages: 1 -->
<svg width="339pt" height="269pt"
 viewBox="0.00 0.00 339.00 269.00" xmlns="http://www.w3.org/2000/svg" xmlns:xlink="http://www.w3.org/1999/xlink">
<g id="graph0" class="graph" transform="scale(1 1) rotate(0) translate(4 265)">
<title>Suboptimals and Representative Structures</title>
<!-- Node1 -->
<g id="node1" class="node">
<title>Node1</title>
<g id="a_node1"><a xlink:href="group__subopt__zuker.html" target="_top" xlink:title="Suboptimal Structures\l sensu Stiegler et al.\l 1984 / Zuker et al. 1989">
<polygon fill="none" stroke="#000000" points="201,-219.5 201,-260.5 324,-260.5 324,-219.5 201,-219.5"/>
<text text-anchor="start" x="209" y="-248.5" font-family="Helvetica,sans-Serif" font-size="10.00" fill="#000000">Suboptimal Structures</text>
<text text-anchor="start" x="209" y="-237.5" font-family="Helvetica,sans-Serif" font-size="10.00" fill="#000000"> sensu Stiegler et al.</text>
<text text-anchor="middle" x="262.5" y="-226.5" font-family="Helvetica,sans-Serif" font-size="10.00" fill="#000000"> 1984 / Zuker et al. 1989</text>
</a>
</g>
</g>
<!-- Node4 -->
<g id="node2" class="node">
<title>Node4</title>
<g id="a_node2"><a xlink:href="group__mea__fold.html" target="_top" xlink:title="Compute the Structure\l with Maximum Expected\l Accuracy (MEA)">
<polygon fill="none" stroke="#000000" points="198.5,-159.5 198.5,-200.5 326.5,-200.5 326.5,-159.5 198.5,-159.5"/>
<text text-anchor="start" x="206.5" y="-188.5" font-family="Helvetica,sans-Serif" font-size="10.00" fill="#000000">Compute the Structure</text>
<text text-anchor="start" x="206.5" y="-177.5" font-family="Helvetica,sans-Serif" font-size="10.00" fill="#000000"> with Maximum Expected</text>
<text text-anchor="middle" x="262.5" y="-166.5" font-family="Helvetica,sans-Serif" font-size="10.00" fill="#000000"> Accuracy (MEA)</text>
</a>
</g>
</g>
<!-- Node3 -->
<g id="node3" class="node">
<title>Node3</title>
<g id="a_node3"><a xlink:href="group__subopt__stochbt.html" target="_top" xlink:title="Functions to draw random structure samples from the ensemble according to their equilibrium probabili...">
<polygon fill="none" stroke="#000000" points="194,-110 194,-140 331,-140 331,-110 194,-110"/>
<text text-anchor="start" x="202" y="-128" font-family="Helvetica,sans-Serif" font-size="10.00" fill="#000000">Random Structure Samples</text>
<text text-anchor="middle" x="262.5" y="-117" font-family="Helvetica,sans-Serif" font-size="10.00" fill="#000000"> from the Ensemble</text>
</a>
</g>
</g>
<!-- Node5 -->
<g id="node4" class="node">
<title>Node5</title>
<g id="a_node4"><a xlink:href="group__centroid__fold.html" target="_top" xlink:title="Compute the Centroid\l Structure">
<polygon fill="none" stroke="#000000" points="206,-61 206,-91 319,-91 319,-61 206,-61"/>
<text text-anchor="start" x="214" y="-79" font-family="Helvetica,sans-Serif" font-size="10.00" fill="#000000">Compute the Centroid</text>
<text text-anchor="middle" x="262.5" y="-68" font-family="Helvetica,sans-Serif" font-size="10.00" fill="#000000"> Structure</text>
</a>
</g>
</g>
<!-- Node0 -->
<g id="node5" class="node">
<title>Node0</title>
<polygon fill="#bfbfbf" stroke="#000000" points="0,-110 0,-140 158,-140 158,-110 0,-110"/>
<text text-anchor="start" x="8" y="-128" font-family="Helvetica,sans-Serif" font-size="10.00" fill="#000000">Suboptimals and Representative</text>
<text text-anchor="middle" x="79" y="-117" font-family="Helvetica,sans-Serif" font-size="10.00" fill="#000000"> Structures</text>
</g>
<!-- Node0&#45;&gt;Node1 -->
<g id="edge1" class="edge">
<title>Node0&#45;&gt;Node1</title>
<path fill="none" stroke="#000000" d="M104.6115,-146.5432C127.1895,-164.8819 161.4662,-191.171 194,-210 199.7307,-213.3167 205.8967,-216.5025 212.0971,-219.478"/>
<polygon fill="#000000" stroke="#000000" points="106.799,-143.8107 96.8475,-140.1751 102.3598,-149.223 106.799,-143.8107"/>
</g>
<!-- Node0&#45;&gt;Node4 -->
<g id="edge4" class="edge">
<title>Node0&#45;&gt;Node4</title>
<path fill="none" stroke="#000000" d="M138.8714,-142.9451C157.8789,-148.6422 178.971,-154.9641 198.2723,-160.7492"/>
<polygon fill="#000000" stroke="#000000" points="139.7261,-139.5475 129.1422,-140.029 137.7163,-146.2528 139.7261,-139.5475"/>
</g>
<!-- Node0&#45;&gt;Node3 -->
<g id="edge3" class="edge">
<title>Node0&#45;&gt;Node3</title>
<path fill="none" stroke="#000000" d="M168.2691,-125C176.9146,-125 185.5895,-125 193.9864,-125"/>
<polygon fill="#000000" stroke="#000000" points="168.152,-121.5001 158.1519,-125 168.1519,-128.5001 168.152,-121.5001"/>
</g>
<!-- Node0&#45;&gt;Node5 -->
<g id="edge5" class="edge">
<title>Node0&#45;&gt;Node5</title>
<path fill="none" stroke="#000000" d="M144.9959,-107.3771C165.0716,-102.0163 186.9375,-96.1775 206.3034,-91.0062"/>
<polygon fill="#000000" stroke="#000000" points="144.0616,-104.0039 135.3031,-109.9654 145.8676,-110.7669 144.0616,-104.0039"/>
</g>
<!-- Node2 -->
<g id="node6" class="node">
<title>Node2</title>
<g id="a_node6"><a xlink:href="group__subopt__wuchty.html" target="_top" xlink:title="Suboptimal Structures\l within an Energy Band\l around the MFE">
<polygon fill="none" stroke="#000000" points="203.5,-.5 203.5,-41.5 321.5,-41.5 321.5,-.5 203.5,-.5"/>
<text text-anchor="start" x="211.5" y="-29.5" font-family="Helvetica,sans-Serif" font-size="10.00" fill="#000000">Suboptimal Structures</text>
<text text-anchor="start" x="211.5" y="-18.5" font-family="Helvetica,sans-Serif" font-size="10.00" fill="#000000"> within an Energy Band</text>
<text text-anchor="middle" x="262.5" y="-7.5" font-family="Helvetica,sans-Serif" font-size="10.00" fill="#000000"> around the MFE</text>
</a>
</g>
</g>
<!-- Node0&#45;&gt;Node2 -->
<g id="edge2" class="edge">
<title>Node0&#45;&gt;Node2</title>
<path fill="none" stroke="#000000" d="M109.4635,-104.0022C132.2433,-88.7139 164.4274,-67.9752 194,-52 200.5464,-48.4636 207.5735,-44.9652 214.5428,-41.6631"/>
<polygon fill="#000000" stroke="#000000" points="107.2424,-101.2789 100.9172,-109.7784 111.1622,-107.0785 107.2424,-101.2789"/>
</g>
</g>
</svg>
