<?xml version="1.0" encoding="UTF-8" standalone="no"?>
<!DOCTYPE svg PUBLIC "-//W3C//DTD SVG 1.1//EN"
 "http://www.w3.org/Graphics/SVG/1.1/DTD/svg11.dtd">
<!-- Generated by graphviz version 2.40.1 (20161225.0304)
 -->
<!-- Title: Partition Function for Two Hybridized Sequences Pages: 1 -->
<svg width="353pt" height="90pt"
 viewBox="0.00 0.00 353.00 89.50" xmlns="http://www.w3.org/2000/svg" xmlns:xlink="http://www.w3.org/1999/xlink">
<g id="graph0" class="graph" transform="scale(1 1) rotate(0) translate(4 85.5)">
<title>Partition Function for Two Hybridized Sequences</title>
<!-- Node2 -->
<g id="node1" class="node">
<title>Node2</title>
<g id="a_node1"><a xlink:href="group__pf__fold.html" target="_top" xlink:title="Compute the partition function to assess various equilibrium properties. ">
<polygon fill="none" stroke="#000000" points="211,-.5 211,-30.5 345,-30.5 345,-.5 211,-.5"/>
<text text-anchor="start" x="219" y="-18.5" font-family="Helvetica,sans-Serif" font-size="10.00" fill="#000000">Partition Function</text>
<text text-anchor="middle" x="278" y="-7.5" font-family="Helvetica,sans-Serif" font-size="10.00" fill="#000000"> and Equilibrium Properties</text>
</a>
</g>
</g>
<!-- Node1 -->
<g id="node2" class="node">
<title>Node1</title>
<g id="a_node2"><a xlink:href="group__cofold.html" target="_top" xlink:title="RNA&#45;RNA Interaction">
<polygon fill="none" stroke="#000000" points="222,-57 222,-76 334,-76 334,-57 222,-57"/>
<text text-anchor="middle" x="278" y="-64" font-family="Helvetica,sans-Serif" font-size="10.00" fill="#000000">RNA&#45;RNA Interaction</text>
</a>
</g>
</g>
<!-- Node0 -->
<g id="node3" class="node">
<title>Node0</title>
<polygon fill="#bfbfbf" stroke="#000000" points="0,-21 0,-62 102,-62 102,-21 0,-21"/>
<text text-anchor="start" x="8" y="-50" font-family="Helvetica,sans-Serif" font-size="10.00" fill="#000000">Partition Function</text>
<text text-anchor="start" x="8" y="-39" font-family="Helvetica,sans-Serif" font-size="10.00" fill="#000000"> for Two Hybridized</text>
<text text-anchor="middle" x="51" y="-28" font-family="Helvetica,sans-Serif" font-size="10.00" fill="#000000"> Sequences</text>
</g>
<!-- Node1&#45;&gt;Node0 -->
<g id="edge1" class="edge">
<title>Node1&#45;&gt;Node0</title>
<path fill="none" stroke="#000000" d="M211.8274,-57.7375C205.4674,-56.9552 199.1124,-56.1967 193,-55.5 162.9722,-52.0776 129.3148,-48.7376 102.3069,-46.1787"/>
<polygon fill="#000000" stroke="#000000" points="211.4349,-61.2156 221.7914,-58.9808 212.3017,-54.2694 211.4349,-61.2156"/>
</g>
<!-- Node0&#45;&gt;Node2 -->
<g id="edge2" class="edge">
<title>Node0&#45;&gt;Node2</title>
<path fill="none" stroke="#006400" stroke-dasharray="5,2" d="M102.2433,-35.5473C108.2294,-34.8553 114.2493,-34.1609 120,-33.5 149.7588,-30.0797 182.6739,-26.3253 210.7243,-23.1344"/>
<text text-anchor="middle" x="156.5" y="-36.5" font-family="Helvetica,sans-Serif" font-size="10.00" fill="#000000">concentrations.h</text>
</g>
<!-- Node0&#45;&gt;Node1 -->
<g id="edge3" class="edge">
<title>Node0&#45;&gt;Node1</title>
<path fill="none" stroke="#006400" stroke-dasharray="5,2" d="M102.1883,-50.0674C108.1842,-50.9502 114.2215,-51.7843 120,-52.5 153.7515,-56.6805 191.7096,-60.0857 221.9605,-62.4907"/>
<text text-anchor="middle" x="156.5" y="-73.5" font-family="Helvetica,sans-Serif" font-size="10.00" fill="#000000">concentrations.h</text>
<text text-anchor="middle" x="156.5" y="-62.5" font-family="Helvetica,sans-Serif" font-size="10.00" fill="#000000">part_func_up.h</text>
</g>
</g>
</svg>
