<?xml version="1.0" encoding="UTF-8" standalone="no"?>
<!DOCTYPE svg PUBLIC "-//W3C//DTD SVG 1.1//EN"
 "http://www.w3.org/Graphics/SVG/1.1/DTD/svg11.dtd">
<!-- Generated by graphviz version 2.40.1 (20161225.0304)
 -->
<!-- Title: Plotting Pages: 1 -->
<svg width="184pt" height="76pt"
 viewBox="0.00 0.00 184.00 76.00" xmlns="http://www.w3.org/2000/svg" xmlns:xlink="http://www.w3.org/1999/xlink">
<g id="graph0" class="graph" transform="scale(1 1) rotate(0) translate(4 72)">
<title>Plotting</title>
<!-- Node0 -->
<g id="node1" class="node">
<title>Node0</title>
<polygon fill="#bfbfbf" stroke="#000000" points="0,-25.5 0,-44.5 50,-44.5 50,-25.5 0,-25.5"/>
<text text-anchor="middle" x="25" y="-32.5" font-family="Helvetica,sans-Serif" font-size="10.00" fill="#000000">Plotting</text>
</g>
<!-- Node1 -->
<g id="node2" class="node">
<title>Node1</title>
<g id="a_node2"><a xlink:href="group__utils.html" target="_top" xlink:title="Utilities">
<polygon fill="none" stroke="#000000" points="119.5,-48.5 119.5,-67.5 169.5,-67.5 169.5,-48.5 119.5,-48.5"/>
<text text-anchor="middle" x="144.5" y="-55.5" font-family="Helvetica,sans-Serif" font-size="10.00" fill="#000000">Utilities</text>
</a>
</g>
</g>
<!-- Node0&#45;&gt;Node1 -->
<g id="edge3" class="edge">
<title>Node0&#45;&gt;Node1</title>
<path fill="none" stroke="#006400" stroke-dasharray="5,2" d="M50.3734,-41.9159C56.1439,-43.37 62.264,-44.8192 68,-46 84.9861,-49.4967 104.2784,-52.5164 119.2396,-54.652"/>
<text text-anchor="middle" x="81.5" y="-53" font-family="Helvetica,sans-Serif" font-size="10.00" fill="#000000">utils.h</text>
</g>
<!-- Node2 -->
<g id="node3" class="node">
<title>Node2</title>
<g id="a_node3"><a xlink:href="group__annotation__utils.html" target="_top" xlink:title="Functions to generate annotations for Secondary Structure Plots, Dot&#45;Plots, and Others. ">
<polygon fill="none" stroke="#000000" points="113,-.5 113,-19.5 176,-19.5 176,-.5 113,-.5"/>
<text text-anchor="middle" x="144.5" y="-7.5" font-family="Helvetica,sans-Serif" font-size="10.00" fill="#000000">Annotation</text>
</a>
</g>
</g>
<!-- Node0&#45;&gt;Node2 -->
<g id="edge2" class="edge">
<title>Node0&#45;&gt;Node2</title>
<path fill="none" stroke="#000000" d="M59.9613,-27.6859C76.6221,-24.2004 96.4086,-20.061 112.6491,-16.6634"/>
<polygon fill="#000000" stroke="#000000" points="59.1225,-24.2855 50.0511,-29.7592 60.5559,-31.1372 59.1225,-24.2855"/>
</g>
<!-- Node1&#45;&gt;Node0 -->
<g id="edge1" class="edge">
<title>Node1&#45;&gt;Node0</title>
<path fill="none" stroke="#000000" d="M109.6478,-51.292C90.5581,-47.6179 67.3391,-43.149 50.0511,-39.8216"/>
<polygon fill="#000000" stroke="#000000" points="109.0006,-54.7316 119.4819,-53.1848 110.3236,-47.8578 109.0006,-54.7316"/>
</g>
</g>
</svg>
