<?xml version="1.0" encoding="UTF-8" standalone="no"?>
<!DOCTYPE svg PUBLIC "-//W3C//DTD SVG 1.1//EN"
 "http://www.w3.org/Graphics/SVG/1.1/DTD/svg11.dtd">
<!-- Generated by graphviz version 2.40.1 (20161225.0304)
 -->
<!-- Title: Secondary Structure Utilities Pages: 1 -->
<svg width="366pt" height="296pt"
 viewBox="0.00 0.00 366.00 295.50" xmlns="http://www.w3.org/2000/svg" xmlns:xlink="http://www.w3.org/1999/xlink">
<g id="graph0" class="graph" transform="scale(1 1) rotate(0) translate(4 291.5)">
<title>Secondary Structure Utilities</title>
<!-- Node4 -->
<g id="node1" class="node">
<title>Node4</title>
<g id="a_node1"><a xlink:href="group__struct__utils__plist.html" target="_top" xlink:title="Pair List Representation\l of Secondary Structures">
<polygon fill="none" stroke="#000000" points="230.5,-257 230.5,-287 355.5,-287 355.5,-257 230.5,-257"/>
<text text-anchor="start" x="238.5" y="-275" font-family="Helvetica,sans-Serif" font-size="10.00" fill="#000000">Pair List Representation</text>
<text text-anchor="middle" x="293" y="-264" font-family="Helvetica,sans-Serif" font-size="10.00" fill="#000000"> of Secondary Structures</text>
</a>
</g>
</g>
<!-- Node6 -->
<g id="node2" class="node">
<title>Node6</title>
<g id="a_node2"><a xlink:href="group__struct__utils__tree.html" target="_top" xlink:title="Tree Representation\l of Secondary Structures">
<polygon fill="none" stroke="#000000" points="230.5,-208 230.5,-238 355.5,-238 355.5,-208 230.5,-208"/>
<text text-anchor="start" x="238.5" y="-226" font-family="Helvetica,sans-Serif" font-size="10.00" fill="#000000">Tree Representation</text>
<text text-anchor="middle" x="293" y="-215" font-family="Helvetica,sans-Serif" font-size="10.00" fill="#000000"> of Secondary Structures</text>
</a>
</g>
</g>
<!-- Node2 -->
<g id="node3" class="node">
<title>Node2</title>
<g id="a_node3"><a xlink:href="group__struct__utils__dot__bracket.html" target="_top" xlink:title="Dot&#45;Bracket Notation\l of Secondary Structures">
<polygon fill="none" stroke="#000000" points="230.5,-159 230.5,-189 355.5,-189 355.5,-159 230.5,-159"/>
<text text-anchor="start" x="238.5" y="-177" font-family="Helvetica,sans-Serif" font-size="10.00" fill="#000000">Dot&#45;Bracket Notation</text>
<text text-anchor="middle" x="293" y="-166" font-family="Helvetica,sans-Serif" font-size="10.00" fill="#000000"> of Secondary Structures</text>
</a>
</g>
</g>
<!-- Node0 -->
<g id="node4" class="node">
<title>Node0</title>
<polygon fill="#bfbfbf" stroke="#000000" points="86,-134 86,-164 192,-164 192,-134 86,-134"/>
<text text-anchor="start" x="94" y="-152" font-family="Helvetica,sans-Serif" font-size="10.00" fill="#000000">Secondary Structure</text>
<text text-anchor="middle" x="139" y="-141" font-family="Helvetica,sans-Serif" font-size="10.00" fill="#000000"> Utilities</text>
</g>
<!-- Node0&#45;&gt;Node4 -->
<g id="edge4" class="edge">
<title>Node0&#45;&gt;Node4</title>
<path fill="none" stroke="#000000" d="M154.8497,-172.3931C170.9543,-194.5824 197.7773,-227.4952 228,-248 232.9773,-251.3769 238.4899,-254.3502 244.1388,-256.9487"/>
<polygon fill="#000000" stroke="#000000" points="157.6616,-170.3076 149.0201,-164.1776 151.9527,-174.3585 157.6616,-170.3076"/>
</g>
<!-- Node0&#45;&gt;Node6 -->
<g id="edge6" class="edge">
<title>Node0&#45;&gt;Node6</title>
<path fill="none" stroke="#000000" d="M172.1016,-169.247C188.5796,-178.8969 208.9951,-190.2199 228,-199 234.7706,-202.1279 242.0742,-205.1485 249.2556,-207.9302"/>
<polygon fill="#000000" stroke="#000000" points="173.774,-166.1697 163.3863,-164.0849 170.2066,-172.1925 173.774,-166.1697"/>
</g>
<!-- Node0&#45;&gt;Node2 -->
<g id="edge2" class="edge">
<title>Node0&#45;&gt;Node2</title>
<path fill="none" stroke="#000000" d="M202.3504,-159.2842C211.6162,-160.7883 221.1543,-162.3367 230.4048,-163.8384"/>
<polygon fill="#000000" stroke="#000000" points="202.8612,-155.8213 192.4295,-157.6736 201.7394,-162.7309 202.8612,-155.8213"/>
</g>
<!-- Node3 -->
<g id="node5" class="node">
<title>Node3</title>
<g id="a_node5"><a xlink:href="group__struct__utils__pair__table.html" target="_top" xlink:title="Pair Table Representation\l of Secondary Structures">
<polygon fill="none" stroke="#000000" points="228,-110 228,-140 358,-140 358,-110 228,-110"/>
<text text-anchor="start" x="236" y="-128" font-family="Helvetica,sans-Serif" font-size="10.00" fill="#000000">Pair Table Representation</text>
<text text-anchor="middle" x="293" y="-117" font-family="Helvetica,sans-Serif" font-size="10.00" fill="#000000"> of Secondary Structures</text>
</a>
</g>
</g>
<!-- Node0&#45;&gt;Node3 -->
<g id="edge3" class="edge">
<title>Node0&#45;&gt;Node3</title>
<path fill="none" stroke="#000000" d="M202.5392,-139.0978C210.94,-137.7886 219.5614,-136.445 227.9866,-135.132"/>
<polygon fill="#000000" stroke="#000000" points="201.7713,-135.6751 192.4295,-140.6733 202.8492,-142.5916 201.7713,-135.6751"/>
</g>
<!-- Node5 -->
<g id="node7" class="node">
<title>Node5</title>
<g id="a_node7"><a xlink:href="group__struct__utils__helix__list.html" target="_top" xlink:title="Helix List Representation\l of Secondary Structures">
<polygon fill="none" stroke="#000000" points="229.5,-61 229.5,-91 356.5,-91 356.5,-61 229.5,-61"/>
<text text-anchor="start" x="237.5" y="-79" font-family="Helvetica,sans-Serif" font-size="10.00" fill="#000000">Helix List Representation</text>
<text text-anchor="middle" x="293" y="-68" font-family="Helvetica,sans-Serif" font-size="10.00" fill="#000000"> of Secondary Structures</text>
</a>
</g>
</g>
<!-- Node0&#45;&gt;Node5 -->
<g id="edge5" class="edge">
<title>Node0&#45;&gt;Node5</title>
<path fill="none" stroke="#000000" d="M172.8569,-128.7978C189.2197,-119.441 209.319,-108.5334 228,-100 234.784,-96.9011 242.0945,-93.8956 249.2786,-91.1199"/>
<polygon fill="#000000" stroke="#000000" points="171.0896,-125.7767 164.1837,-133.8116 174.5929,-131.837 171.0896,-125.7767"/>
</g>
<!-- Node7 -->
<g id="node8" class="node">
<title>Node7</title>
<g id="a_node8"><a xlink:href="group__struct__utils__deprecated.html" target="_top" xlink:title="Deprecated Interface\l for Secondary Structure\l Utilities">
<polygon fill="none" stroke="#000000" points="231.5,-.5 231.5,-41.5 354.5,-41.5 354.5,-.5 231.5,-.5"/>
<text text-anchor="start" x="239.5" y="-29.5" font-family="Helvetica,sans-Serif" font-size="10.00" fill="#000000">Deprecated Interface</text>
<text text-anchor="start" x="239.5" y="-18.5" font-family="Helvetica,sans-Serif" font-size="10.00" fill="#000000"> for Secondary Structure</text>
<text text-anchor="middle" x="293" y="-7.5" font-family="Helvetica,sans-Serif" font-size="10.00" fill="#000000"> Utilities</text>
</a>
</g>
</g>
<!-- Node0&#45;&gt;Node7 -->
<g id="edge7" class="edge">
<title>Node0&#45;&gt;Node7</title>
<path fill="none" stroke="#000000" d="M155.7574,-125.7145C172.2139,-104.1414 199.0093,-72.2688 228,-51 232.6097,-47.6181 237.6615,-44.483 242.8476,-41.6151"/>
<polygon fill="#000000" stroke="#000000" points="152.754,-123.8865 149.5656,-133.9902 158.3588,-128.08 152.754,-123.8865"/>
</g>
<!-- Node1 -->
<g id="node6" class="node">
<title>Node1</title>
<g id="a_node6"><a xlink:href="group__utils.html" target="_top" xlink:title="Utilities">
<polygon fill="none" stroke="#000000" points="0,-139.5 0,-158.5 50,-158.5 50,-139.5 0,-139.5"/>
<text text-anchor="middle" x="25" y="-146.5" font-family="Helvetica,sans-Serif" font-size="10.00" fill="#000000">Utilities</text>
</a>
</g>
</g>
<!-- Node1&#45;&gt;Node0 -->
<g id="edge1" class="edge">
<title>Node1&#45;&gt;Node0</title>
<path fill="none" stroke="#000000" d="M60.2636,-149C68.4159,-149 77.2659,-149 85.9906,-149"/>
<polygon fill="#000000" stroke="#000000" points="60.0178,-145.5001 50.0178,-149 60.0177,-152.5001 60.0178,-145.5001"/>
</g>
</g>
</svg>
