<?xml version="1.0" encoding="UTF-8" standalone="no"?>
<!DOCTYPE svg PUBLIC "-//W3C//DTD SVG 1.1//EN"
 "http://www.w3.org/Graphics/SVG/1.1/DTD/svg11.dtd">
<!-- Generated by graphviz version 2.40.1 (20161225.0304)
 -->
<!-- Title: ViennaRNA/loops/hairpin.h Pages: 1 -->
<svg width="292pt" height="140pt"
 viewBox="0.00 0.00 291.50 140.00" xmlns="http://www.w3.org/2000/svg" xmlns:xlink="http://www.w3.org/1999/xlink">
<g id="graph0" class="graph" transform="scale(1 1) rotate(0) translate(4 136)">
<title>ViennaRNA/loops/hairpin.h</title>
<!-- Node21 -->
<g id="node1" class="node">
<title>Node21</title>
<polygon fill="#bfbfbf" stroke="#000000" points="73.5,-112.5 73.5,-131.5 207.5,-131.5 207.5,-112.5 73.5,-112.5"/>
<text text-anchor="middle" x="140.5" y="-119.5" font-family="Helvetica,sans-Serif" font-size="10.00" fill="#000000">ViennaRNA/loops/hairpin.h</text>
</g>
<!-- Node22 -->
<g id="node2" class="node">
<title>Node22</title>
<g id="a_node2"><a xlink:href="hairpin__loops_8h.html" target="_top" xlink:title="Use ViennaRNA/loops/hairpin.h instead. ">
<polygon fill="none" stroke="#000000" points="0,-56.5 0,-75.5 137,-75.5 137,-56.5 0,-56.5"/>
<text text-anchor="middle" x="68.5" y="-63.5" font-family="Helvetica,sans-Serif" font-size="10.00" fill="#000000">ViennaRNA/hairpin_loops.h</text>
</a>
</g>
</g>
<!-- Node21&#45;&gt;Node22 -->
<g id="edge1" class="edge">
<title>Node21&#45;&gt;Node22</title>
<path fill="none" stroke="#191970" d="M119.836,-105.928C107.2511,-96.1397 91.5908,-83.9595 80.8977,-75.6427"/>
<polygon fill="#191970" stroke="#191970" points="117.9162,-108.8688 127.9586,-112.2455 122.2138,-103.3434 117.9162,-108.8688"/>
</g>
<!-- Node23 -->
<g id="node3" class="node">
<title>Node23</title>
<g id="a_node3"><a xlink:href="all_8h.html" target="_top" xlink:title="Energy evaluation for MFE and partition function calculations. ">
<polygon fill="none" stroke="#000000" points="155.5,-56.5 155.5,-75.5 271.5,-75.5 271.5,-56.5 155.5,-56.5"/>
<text text-anchor="middle" x="213.5" y="-63.5" font-family="Helvetica,sans-Serif" font-size="10.00" fill="#000000">ViennaRNA/loops/all.h</text>
</a>
</g>
</g>
<!-- Node21&#45;&gt;Node23 -->
<g id="edge2" class="edge">
<title>Node21&#45;&gt;Node23</title>
<path fill="none" stroke="#191970" d="M161.451,-105.928C174.2107,-96.1397 190.0885,-83.9595 200.9301,-75.6427"/>
<polygon fill="#191970" stroke="#191970" points="159.0196,-103.3819 153.2156,-112.2455 163.2803,-108.9359 159.0196,-103.3819"/>
</g>
<!-- Node24 -->
<g id="node4" class="node">
<title>Node24</title>
<g id="a_node4"><a xlink:href="loop__energies_8h.html" target="_top" xlink:title="Use ViennaRNA/loops/all.h instead. ">
<polygon fill="none" stroke="#000000" points="143.5,-.5 143.5,-19.5 283.5,-19.5 283.5,-.5 143.5,-.5"/>
<text text-anchor="middle" x="213.5" y="-7.5" font-family="Helvetica,sans-Serif" font-size="10.00" fill="#000000">ViennaRNA/loop_energies.h</text>
</a>
</g>
</g>
<!-- Node23&#45;&gt;Node24 -->
<g id="edge3" class="edge">
<title>Node23&#45;&gt;Node24</title>
<path fill="none" stroke="#191970" d="M213.5,-46.1575C213.5,-37.155 213.5,-26.9199 213.5,-19.6427"/>
<polygon fill="#191970" stroke="#191970" points="210.0001,-46.2455 213.5,-56.2455 217.0001,-46.2456 210.0001,-46.2455"/>
</g>
</g>
</svg>
