<?xml version="1.0" encoding="UTF-8" standalone="no"?>
<!DOCTYPE svg PUBLIC "-//W3C//DTD SVG 1.1//EN"
 "http://www.w3.org/Graphics/SVG/1.1/DTD/svg11.dtd">
<!-- Generated by graphviz version 2.40.1 (20161225.0304)
 -->
<!-- Title: ViennaRNA/hairpin_loops.h Pages: 1 -->
<!--zoomable 453 -->
<svg id="main" version="1.1" xmlns="http://www.w3.org/2000/svg" xmlns:xlink="http://www.w3.org/1999/xlink" xml:space="preserve" onload="init(evt)">
<style type="text/css"><![CDATA[
.edge:hover path { stroke: red; }
.edge:hover polygon { stroke: red; fill: red; }
]]></style>
<script type="text/javascript"><![CDATA[
var edges = document.getElementsByTagName('g');
if (edges && edges.length) {
  for (var i=0;i<edges.length;i++) {
    if (edges[i].id.substr(0,4)=='edge') {
      edges[i].setAttribute('class','edge');
    }
  }
}
]]></script>
        <defs>
                <circle id="rim" cx="0" cy="0" r="7"/>
                <circle id="rim2" cx="0" cy="0" r="3.5"/>
                <g id="zoomPlus">
                        <use xlink:href="#rim" fill="#404040">
                                <set attributeName="fill" to="#808080" begin="zoomplus.mouseover" end="zoomplus.mouseout"/>
                        </use>
                        <path d="M-4,0h8M0,-4v8" fill="none" stroke="white" stroke-width="1.5" pointer-events="none"/>
                </g>
                <g id="zoomMin">
                        <use xlink:href="#rim" fill="#404040">
                                <set attributeName="fill" to="#808080" begin="zoomminus.mouseover" end="zoomminus.mouseout"/>
                        </use>
                        <path d="M-4,0h8" fill="none" stroke="white" stroke-width="1.5" pointer-events="none"/>
                </g>
                <g id="dirArrow">
                        <path fill="none" stroke="white" stroke-width="1.5" d="M0,-3.0v7 M-2.5,-0.5L0,-3.0L2.5,-0.5"/>
                </g>
               <g id="resetDef">
                       <use xlink:href="#rim2" fill="#404040">
                               <set attributeName="fill" to="#808080" begin="reset.mouseover" end="reset.mouseout"/>
                       </use>
               </g>
        </defs>

<script type="text/javascript">
var viewWidth = 1382;
var viewHeight = 453;
var sectionId = 'dynsection-0';
</script>
<script xlink:href="svgpan.js"/>
<svg id="graph" class="graph">
<g id="viewport">
<title>ViennaRNA/hairpin_loops.h</title>
<!-- Node0 -->
<g id="node1" class="node">
<title>Node0</title>
<polygon fill="#bfbfbf" stroke="#000000" points="141.5,-425.5 141.5,-444.5 278.5,-444.5 278.5,-425.5 141.5,-425.5"/>
<text text-anchor="middle" x="210" y="-432.5" font-family="Helvetica,sans-Serif" font-size="10.00" fill="#000000">ViennaRNA/hairpin_loops.h</text>
</g>
<!-- Node1 -->
<g id="node2" class="node">
<title>Node1</title>
<g id="a_node2"><a xlink:href="hairpin_8h.html" target="_top" xlink:title="Energy evaluation of hairpin loops for MFE and partition function calculations. ">
<polygon fill="none" stroke="#000000" points="143,-369.5 143,-388.5 277,-388.5 277,-369.5 143,-369.5"/>
<text text-anchor="middle" x="210" y="-376.5" font-family="Helvetica,sans-Serif" font-size="10.00" fill="#000000">ViennaRNA/loops/hairpin.h</text>
</a>
</g>
</g>
<!-- Node0&#45;&gt;Node1 -->
<g id="edge1" class="edge">
<title>Node0&#45;&gt;Node1</title>
<path fill="none" stroke="#191970" d="M210,-425.2455C210,-417.9382 210,-407.6944 210,-398.7046"/>
<polygon fill="#191970" stroke="#191970" points="213.5001,-398.6426 210,-388.6427 206.5001,-398.6427 213.5001,-398.6426"/>
</g>
<!-- Node2 -->
<g id="node3" class="node">
<title>Node2</title>
<polygon fill="none" stroke="#bfbfbf" points="67.5,-313.5 67.5,-332.5 114.5,-332.5 114.5,-313.5 67.5,-313.5"/>
<text text-anchor="middle" x="91" y="-320.5" font-family="Helvetica,sans-Serif" font-size="10.00" fill="#000000">math.h</text>
</g>
<!-- Node1&#45;&gt;Node2 -->
<g id="edge2" class="edge">
<title>Node1&#45;&gt;Node2</title>
<path fill="none" stroke="#191970" d="M189.5432,-369.3733C170.5262,-360.4241 141.9825,-346.9917 120.5024,-336.8835"/>
<polygon fill="#191970" stroke="#191970" points="121.7284,-333.5923 111.1899,-332.5011 118.7478,-339.926 121.7284,-333.5923"/>
</g>
<!-- Node3 -->
<g id="node4" class="node">
<title>Node3</title>
<polygon fill="none" stroke="#bfbfbf" points="132.5,-313.5 132.5,-332.5 181.5,-332.5 181.5,-313.5 132.5,-313.5"/>
<text text-anchor="middle" x="157" y="-320.5" font-family="Helvetica,sans-Serif" font-size="10.00" fill="#000000">string.h</text>
</g>
<!-- Node1&#45;&gt;Node3 -->
<g id="edge3" class="edge">
<title>Node1&#45;&gt;Node3</title>
<path fill="none" stroke="#191970" d="M200.7681,-369.2455C193.1683,-361.2155 182.2123,-349.6394 173.1632,-340.0781"/>
<polygon fill="#191970" stroke="#191970" points="175.542,-337.4998 166.1261,-332.6427 170.4579,-342.3115 175.542,-337.4998"/>
</g>
<!-- Node4 -->
<g id="node5" class="node">
<title>Node4</title>
<g id="a_node5"><a xlink:href="utils_2basic_8h.html" target="_top" xlink:title="General utility&#45; and helper&#45;functions used throughout the ViennaRNA Package. ">
<polygon fill="none" stroke="#000000" points="755,-313.5 755,-332.5 879,-332.5 879,-313.5 755,-313.5"/>
<text text-anchor="middle" x="817" y="-320.5" font-family="Helvetica,sans-Serif" font-size="10.00" fill="#000000">ViennaRNA/utils/basic.h</text>
</a>
</g>
</g>
<!-- Node1&#45;&gt;Node4 -->
<g id="edge4" class="edge">
<title>Node1&#45;&gt;Node4</title>
<path fill="none" stroke="#191970" d="M277.0856,-373.6745C376.351,-365.6591 568.1763,-349.6513 731,-333 735.4088,-332.5491 739.9429,-332.0695 744.5149,-331.5736"/>
<polygon fill="#191970" stroke="#191970" points="744.9942,-335.0421 754.5503,-330.4672 744.227,-328.0842 744.9942,-335.0421"/>
</g>
<!-- Node7 -->
<g id="node8" class="node">
<title>Node7</title>
<g id="a_node8"><a xlink:href="datastructures_2basic_8h.html" target="_top" xlink:title="Various data structures and pre&#45;processor macros. ">
<polygon fill="none" stroke="#000000" points="700,-246.5 700,-276.5 834,-276.5 834,-246.5 700,-246.5"/>
<text text-anchor="start" x="708" y="-264.5" font-family="Helvetica,sans-Serif" font-size="10.00" fill="#000000">ViennaRNA/datastructures</text>
<text text-anchor="middle" x="767" y="-253.5" font-family="Helvetica,sans-Serif" font-size="10.00" fill="#000000">/basic.h</text>
</a>
</g>
</g>
<!-- Node1&#45;&gt;Node7 -->
<g id="edge43" class="edge">
<title>Node1&#45;&gt;Node7</title>
<path fill="none" stroke="#191970" d="M255.1098,-369.484C350.1095,-349.4437 571.7235,-302.6939 689.7729,-277.7912"/>
<polygon fill="#191970" stroke="#191970" points="690.763,-281.1594 699.8252,-275.6706 689.3181,-274.3102 690.763,-281.1594"/>
</g>
<!-- Node12 -->
<g id="node13" class="node">
<title>Node12</title>
<g id="a_node13"><a xlink:href="params_2basic_8h.html" target="_top" xlink:title="Functions to deal with sets of energy parameters. ">
<polygon fill="none" stroke="#000000" points="58,-129 58,-148 196,-148 196,-129 58,-129"/>
<text text-anchor="middle" x="127" y="-136" font-family="Helvetica,sans-Serif" font-size="10.00" fill="#000000">ViennaRNA/params/basic.h</text>
</a>
</g>
</g>
<!-- Node1&#45;&gt;Node12 -->
<g id="edge44" class="edge">
<title>Node1&#45;&gt;Node12</title>
<path fill="none" stroke="#191970" d="M207.1778,-369.1094C203.4422,-356.1574 196.5603,-332.7729 190,-313 171.1371,-256.1462 146.432,-189.8035 134.3282,-157.7639"/>
<polygon fill="#191970" stroke="#191970" points="137.5496,-156.3876 130.7331,-148.2767 131.0038,-158.868 137.5496,-156.3876"/>
</g>
<!-- Node5 -->
<g id="node6" class="node">
<title>Node5</title>
<polygon fill="none" stroke="#bfbfbf" points="1282,-.5 1282,-19.5 1328,-19.5 1328,-.5 1282,-.5"/>
<text text-anchor="middle" x="1305" y="-7.5" font-family="Helvetica,sans-Serif" font-size="10.00" fill="#000000">stdio.h</text>
</g>
<!-- Node4&#45;&gt;Node5 -->
<g id="edge5" class="edge">
<title>Node4&#45;&gt;Node5</title>
<path fill="none" stroke="#191970" d="M879.0051,-315.7967C1024.1899,-298.0934 1374,-250.2273 1374,-200 1374,-200 1374,-200 1374,-138.5 1374,-94.2976 1341.9173,-50.6289 1321.5053,-27.3186"/>
<polygon fill="#191970" stroke="#191970" points="1323.9015,-24.7505 1314.5942,-19.6885 1318.7133,-29.4498 1323.9015,-24.7505"/>
</g>
<!-- Node6 -->
<g id="node7" class="node">
<title>Node6</title>
<polygon fill="none" stroke="#bfbfbf" points="852,-252 852,-271 904,-271 904,-252 852,-252"/>
<text text-anchor="middle" x="878" y="-259" font-family="Helvetica,sans-Serif" font-size="10.00" fill="#000000">stdarg.h</text>
</g>
<!-- Node4&#45;&gt;Node6 -->
<g id="edge6" class="edge">
<title>Node4&#45;&gt;Node6</title>
<path fill="none" stroke="#191970" d="M826.5313,-313.3906C835.7879,-304.0581 850.039,-289.6902 861.2003,-278.4374"/>
<polygon fill="#191970" stroke="#191970" points="863.7772,-280.8095 868.3344,-271.2449 858.8072,-275.88 863.7772,-280.8095"/>
</g>
<!-- Node4&#45;&gt;Node7 -->
<g id="edge7" class="edge">
<title>Node4&#45;&gt;Node7</title>
<path fill="none" stroke="#191970" d="M809.1875,-313.3906C802.9219,-305.6839 793.8645,-294.5434 785.7471,-284.5589"/>
<polygon fill="#191970" stroke="#191970" points="788.2554,-282.0959 779.2314,-276.5446 782.824,-286.5117 788.2554,-282.0959"/>
</g>
<!-- Node8 -->
<g id="node9" class="node">
<title>Node8</title>
<g id="a_node9"><a xlink:href="constants_8h.html" target="_top" xlink:title="Energy parameter constants. ">
<polygon fill="none" stroke="#000000" points="0,-62 0,-81 158,-81 158,-62 0,-62"/>
<text text-anchor="middle" x="79" y="-69" font-family="Helvetica,sans-Serif" font-size="10.00" fill="#000000">ViennaRNA/params/constants.h</text>
</a>
</g>
</g>
<!-- Node7&#45;&gt;Node8 -->
<g id="edge8" class="edge">
<title>Node7&#45;&gt;Node8</title>
<path fill="none" stroke="#191970" d="M699.6934,-258.5947C600.2095,-253.4513 408.3769,-240.2801 248,-210 157.7154,-192.9537 104.4756,-227.2416 49,-154 34.133,-134.3719 49.98,-106.6595 63.695,-88.8845"/>
<polygon fill="#191970" stroke="#191970" points="66.4921,-90.9929 70.1126,-81.0359 61.073,-86.5619 66.4921,-90.9929"/>
</g>
<!-- Node10 -->
<g id="node11" class="node">
<title>Node10</title>
<g id="a_node11"><a xlink:href="fold__compound_8h.html" target="_top" xlink:title="The Basic Fold Compound API. ">
<polygon fill="none" stroke="#000000" points="566,-190.5 566,-209.5 712,-209.5 712,-190.5 566,-190.5"/>
<text text-anchor="middle" x="639" y="-197.5" font-family="Helvetica,sans-Serif" font-size="10.00" fill="#000000">ViennaRNA/fold_compound.h</text>
</a>
</g>
</g>
<!-- Node7&#45;&gt;Node10 -->
<g id="edge10" class="edge">
<title>Node7&#45;&gt;Node10</title>
<path fill="none" stroke="#191970" d="M735.6877,-246.4554C714.9862,-236.509 688.0477,-223.5659 667.8647,-213.8686"/>
<polygon fill="#191970" stroke="#191970" points="669.3648,-210.7064 658.8355,-209.5303 666.3333,-217.0159 669.3648,-210.7064"/>
</g>
<!-- Node11 -->
<g id="node12" class="node">
<title>Node11</title>
<g id="a_node12"><a xlink:href="model_8h.html" target="_top" xlink:title="The model details data structure and its corresponding modifiers. ">
<polygon fill="none" stroke="#000000" points="307,-62 307,-81 413,-81 413,-62 307,-62"/>
<text text-anchor="middle" x="360" y="-69" font-family="Helvetica,sans-Serif" font-size="10.00" fill="#000000">ViennaRNA/model.h</text>
</a>
</g>
</g>
<!-- Node7&#45;&gt;Node11 -->
<g id="edge34" class="edge">
<title>Node7&#45;&gt;Node11</title>
<path fill="none" stroke="#191970" d="M699.6615,-251.9958C599.9791,-236.4775 420.4344,-202.4913 379,-154 364.0559,-136.5107 360.283,-109.5687 359.6074,-91.27"/>
<polygon fill="#191970" stroke="#191970" points="363.1063,-91.1227 359.5149,-81.1552 356.1066,-91.1869 363.1063,-91.1227"/>
</g>
<!-- Node7&#45;&gt;Node12 -->
<g id="edge35" class="edge">
<title>Node7&#45;&gt;Node12</title>
<path fill="none" stroke="#191970" d="M699.9036,-259.3704C609.1608,-255.2319 443.1825,-243.3437 306,-210 248.5573,-196.0379 184.8745,-169.2748 150.9268,-152.7466"/>
<polygon fill="#191970" stroke="#191970" points="152.2872,-149.5137 141.7775,-148.1733 149.1574,-155.7751 152.2872,-149.5137"/>
</g>
<!-- Node14 -->
<g id="node15" class="node">
<title>Node14</title>
<g id="a_node15"><a xlink:href="dp__matrices_8h.html" target="_top" xlink:title="Functions to deal with standard dynamic programming (DP) matrices. ">
<polygon fill="none" stroke="#000000" points="700.5,-129 700.5,-148 833.5,-148 833.5,-129 700.5,-129"/>
<text text-anchor="middle" x="767" y="-136" font-family="Helvetica,sans-Serif" font-size="10.00" fill="#000000">ViennaRNA/dp_matrices.h</text>
</a>
</g>
</g>
<!-- Node7&#45;&gt;Node14 -->
<g id="edge36" class="edge">
<title>Node7&#45;&gt;Node14</title>
<path fill="none" stroke="#191970" d="M762.3857,-246.4178C759.7062,-224.1659 759.548,-182.5314 761.9111,-157.9908"/>
<polygon fill="#191970" stroke="#191970" points="765.3858,-158.4107 763.1743,-148.0493 758.4417,-157.5283 765.3858,-158.4107"/>
</g>
<!-- Node15 -->
<g id="node16" class="node">
<title>Node15</title>
<g id="a_node16"><a xlink:href="hard_8h.html" target="_top" xlink:title="Functions and data structures for handling of secondary structure hard constraints. ">
<polygon fill="none" stroke="#000000" points="988.5,-123.5 988.5,-153.5 1107.5,-153.5 1107.5,-123.5 988.5,-123.5"/>
<text text-anchor="start" x="996.5" y="-141.5" font-family="Helvetica,sans-Serif" font-size="10.00" fill="#000000">ViennaRNA/constraints</text>
<text text-anchor="middle" x="1048" y="-130.5" font-family="Helvetica,sans-Serif" font-size="10.00" fill="#000000">/hard.h</text>
</a>
</g>
</g>
<!-- Node7&#45;&gt;Node15 -->
<g id="edge37" class="edge">
<title>Node7&#45;&gt;Node15</title>
<path fill="none" stroke="#191970" d="M796.8419,-246.4178C845.368,-223.9949 941.4184,-181.8903 999.7241,-157.428"/>
<polygon fill="#191970" stroke="#191970" points="1001.2179,-160.5971 1009.0961,-153.513 998.5197,-154.138 1001.2179,-160.5971"/>
</g>
<!-- Node17 -->
<g id="node18" class="node">
<title>Node17</title>
<g id="a_node18"><a xlink:href="soft_8h.html" target="_top" xlink:title="Functions and data structures for secondary structure soft constraints. ">
<polygon fill="none" stroke="#000000" points="851.5,-123.5 851.5,-153.5 970.5,-153.5 970.5,-123.5 851.5,-123.5"/>
<text text-anchor="start" x="859.5" y="-141.5" font-family="Helvetica,sans-Serif" font-size="10.00" fill="#000000">ViennaRNA/constraints</text>
<text text-anchor="middle" x="911" y="-130.5" font-family="Helvetica,sans-Serif" font-size="10.00" fill="#000000">/soft.h</text>
</a>
</g>
</g>
<!-- Node7&#45;&gt;Node17 -->
<g id="edge38" class="edge">
<title>Node7&#45;&gt;Node17</title>
<path fill="none" stroke="#191970" d="M780.043,-246.4178C802.8038,-224.7473 849.4776,-184.6937 880.6205,-159.9486"/>
<polygon fill="#191970" stroke="#191970" points="882.8668,-162.6349 888.5693,-153.7056 878.543,-157.1298 882.8668,-162.6349"/>
</g>
<!-- Node18 -->
<g id="node19" class="node">
<title>Node18</title>
<g id="a_node19"><a xlink:href="grammar_8h.html" target="_top" xlink:title="Implementations for the RNA folding grammar. ">
<polygon fill="none" stroke="#000000" points="214,-129 214,-148 332,-148 332,-129 214,-129"/>
<text text-anchor="middle" x="273" y="-136" font-family="Helvetica,sans-Serif" font-size="10.00" fill="#000000">ViennaRNA/grammar.h</text>
</a>
</g>
</g>
<!-- Node7&#45;&gt;Node18 -->
<g id="edge39" class="edge">
<title>Node7&#45;&gt;Node18</title>
<path fill="none" stroke="#191970" d="M699.7634,-258.7975C595.0844,-253.5684 399.0434,-239.8458 337,-210 312.0099,-197.9786 290.3199,-173.9785 279.2668,-157.1112"/>
<polygon fill="#191970" stroke="#191970" points="282.1027,-155.0261 274.0435,-148.1486 276.0548,-158.5508 282.1027,-155.0261"/>
</g>
<!-- Node19 -->
<g id="node20" class="node">
<title>Node19</title>
<g id="a_node20"><a xlink:href="structured__domains_8h.html" target="_top" xlink:title="This module provides interfaces that deal with additional structured domains in the folding grammar...">
<polygon fill="none" stroke="#000000" points="388.5,-123.5 388.5,-153.5 503.5,-153.5 503.5,-123.5 388.5,-123.5"/>
<text text-anchor="start" x="396.5" y="-141.5" font-family="Helvetica,sans-Serif" font-size="10.00" fill="#000000">ViennaRNA/structured</text>
<text text-anchor="middle" x="446" y="-130.5" font-family="Helvetica,sans-Serif" font-size="10.00" fill="#000000">_domains.h</text>
</a>
</g>
</g>
<!-- Node7&#45;&gt;Node19 -->
<g id="edge40" class="edge">
<title>Node7&#45;&gt;Node19</title>
<path fill="none" stroke="#191970" d="M699.9099,-250.9254C657.7507,-242.8644 602.8605,-229.7348 557,-210 526.329,-196.8016 494.6241,-175.4741 472.992,-159.5415"/>
<polygon fill="#191970" stroke="#191970" points="475.0395,-156.7022 464.9359,-153.5135 470.8457,-162.3069 475.0395,-156.7022"/>
</g>
<!-- Node20 -->
<g id="node21" class="node">
<title>Node20</title>
<g id="a_node21"><a xlink:href="unstructured__domains_8h.html" target="_top" xlink:title="Functions to modify unstructured domains, e.g. to incorporate ligands binding to unpaired stretches...">
<polygon fill="none" stroke="#000000" points="1220.5,-123.5 1220.5,-153.5 1345.5,-153.5 1345.5,-123.5 1220.5,-123.5"/>
<text text-anchor="start" x="1228.5" y="-141.5" font-family="Helvetica,sans-Serif" font-size="10.00" fill="#000000">ViennaRNA/unstructured</text>
<text text-anchor="middle" x="1283" y="-130.5" font-family="Helvetica,sans-Serif" font-size="10.00" fill="#000000">_domains.h</text>
</a>
</g>
</g>
<!-- Node7&#45;&gt;Node20 -->
<g id="edge41" class="edge">
<title>Node7&#45;&gt;Node20</title>
<path fill="none" stroke="#191970" d="M830.7833,-246.4978C831.862,-246.3271 832.9348,-246.161 834,-246 994.3038,-221.7693 1049.2055,-276.6427 1197,-210 1221.0097,-199.1737 1242.4285,-177.8176 1258.1567,-161.2521"/>
<polygon fill="#191970" stroke="#191970" points="1261.0874,-163.2461 1265.407,-153.5718 1255.9973,-158.4409 1261.0874,-163.2461"/>
</g>
<!-- Node21 -->
<g id="node22" class="node">
<title>Node21</title>
<g id="a_node22"><a xlink:href="utils_2structures_8h.html" target="_top" xlink:title="Various utility&#45; and helper&#45;functions for secondary structure parsing, converting, etc. ">
<polygon fill="none" stroke="#000000" points="1164,-62 1164,-81 1308,-81 1308,-62 1164,-62"/>
<text text-anchor="middle" x="1236" y="-69" font-family="Helvetica,sans-Serif" font-size="10.00" fill="#000000">ViennaRNA/utils/structures.h</text>
</a>
</g>
</g>
<!-- Node7&#45;&gt;Node21 -->
<g id="edge42" class="edge">
<title>Node7&#45;&gt;Node21</title>
<path fill="none" stroke="#191970" d="M833.836,-246.4721C904.4748,-231.5317 1005.8554,-210.7261 1008,-210 1062.2252,-191.6408 1075.5732,-184.5332 1124,-154 1156.3076,-133.63 1190.215,-104.8059 1212.4241,-87.1757"/>
<polygon fill="#191970" stroke="#191970" points="1214.6009,-89.9166 1220.3355,-81.0078 1210.297,-84.3961 1214.6009,-89.9166"/>
</g>
<!-- Node9 -->
<g id="node10" class="node">
<title>Node9</title>
<polygon fill="none" stroke="#bfbfbf" points="55,-.5 55,-19.5 103,-19.5 103,-.5 55,-.5"/>
<text text-anchor="middle" x="79" y="-7.5" font-family="Helvetica,sans-Serif" font-size="10.00" fill="#000000">limits.h</text>
</g>
<!-- Node8&#45;&gt;Node9 -->
<g id="edge9" class="edge">
<title>Node8&#45;&gt;Node9</title>
<path fill="none" stroke="#191970" d="M79,-61.8906C79,-53.3657 79,-40.6392 79,-29.9235"/>
<polygon fill="#191970" stroke="#191970" points="82.5001,-29.7448 79,-19.7449 75.5001,-29.7449 82.5001,-29.7448"/>
</g>
<!-- Node10&#45;&gt;Node11 -->
<g id="edge11" class="edge">
<title>Node10&#45;&gt;Node11</title>
<path fill="none" stroke="#191970" d="M618.106,-190.4663C599.8712,-181.8244 572.9665,-168.2863 551,-154 532.4383,-141.928 531.4406,-133.5988 512,-123 479.9114,-105.5057 440.7999,-92.4182 410.2871,-83.8145"/>
<polygon fill="#191970" stroke="#191970" points="410.8615,-80.3427 400.2915,-81.0688 409.0072,-87.0927 410.8615,-80.3427"/>
</g>
<!-- Node10&#45;&gt;Node12 -->
<g id="edge12" class="edge">
<title>Node10&#45;&gt;Node12</title>
<path fill="none" stroke="#191970" d="M565.7906,-194.2773C479.3061,-187.0468 331.2208,-173.19 205,-154 197.3221,-152.8327 189.2525,-151.43 181.3339,-149.9518"/>
<polygon fill="#191970" stroke="#191970" points="181.9058,-146.4977 171.4254,-148.051 180.5869,-153.3724 181.9058,-146.4977"/>
</g>
<!-- Node13 -->
<g id="node14" class="node">
<title>Node13</title>
<g id="a_node14"><a xlink:href="sequence_8h.html" target="_top" xlink:title="Functions and data structures related to sequence representations ,. ">
<polygon fill="none" stroke="#000000" points="560,-129 560,-148 682,-148 682,-129 560,-129"/>
<text text-anchor="middle" x="621" y="-136" font-family="Helvetica,sans-Serif" font-size="10.00" fill="#000000">ViennaRNA/sequence.h</text>
</a>
</g>
</g>
<!-- Node10&#45;&gt;Node13 -->
<g id="edge16" class="edge">
<title>Node10&#45;&gt;Node13</title>
<path fill="none" stroke="#191970" d="M636.1875,-190.3906C633.6661,-181.776 629.889,-168.8708 626.7324,-158.0858"/>
<polygon fill="#191970" stroke="#191970" points="630.0203,-156.8591 623.8522,-148.2449 623.3021,-158.8254 630.0203,-156.8591"/>
</g>
<!-- Node10&#45;&gt;Node14 -->
<g id="edge17" class="edge">
<title>Node10&#45;&gt;Node14</title>
<path fill="none" stroke="#191970" d="M659,-190.3906C680.2289,-180.1908 713.9762,-163.9763 738.096,-152.3875"/>
<polygon fill="#191970" stroke="#191970" points="739.6426,-155.5275 747.1404,-148.0419 736.6111,-149.2179 739.6426,-155.5275"/>
</g>
<!-- Node10&#45;&gt;Node15 -->
<g id="edge19" class="edge">
<title>Node10&#45;&gt;Node15</title>
<path fill="none" stroke="#191970" d="M712.1374,-192.0643C779.0921,-184.3591 881.1047,-171.5162 978.3568,-154.2127"/>
<polygon fill="#191970" stroke="#191970" points="979.1357,-157.6289 988.3583,-152.4142 977.8967,-150.7394 979.1357,-157.6289"/>
</g>
<!-- Node10&#45;&gt;Node17 -->
<g id="edge23" class="edge">
<title>Node10&#45;&gt;Node17</title>
<path fill="none" stroke="#191970" d="M681.5948,-190.4256C720.7732,-181.6124 780.756,-168.1021 841.5387,-154.329"/>
<polygon fill="#191970" stroke="#191970" points="842.3189,-157.741 851.2977,-152.1169 840.7714,-150.9142 842.3189,-157.741"/>
</g>
<!-- Node10&#45;&gt;Node18 -->
<g id="edge26" class="edge">
<title>Node10&#45;&gt;Node18</title>
<path fill="none" stroke="#191970" d="M582.2141,-190.4581C516.6683,-179.4443 409.0036,-161.3531 339.5746,-149.6867"/>
<polygon fill="#191970" stroke="#191970" points="340.0598,-146.2192 329.618,-148.0137 338.8997,-153.1225 340.0598,-146.2192"/>
</g>
<!-- Node10&#45;&gt;Node19 -->
<g id="edge28" class="edge">
<title>Node10&#45;&gt;Node19</title>
<path fill="none" stroke="#191970" d="M608.8438,-190.3906C580.5469,-181.3737 537.4988,-167.6563 502.769,-156.5896"/>
<polygon fill="#191970" stroke="#191970" points="503.8037,-153.246 493.2131,-153.5446 501.6784,-159.9156 503.8037,-153.246"/>
</g>
<!-- Node10&#45;&gt;Node20 -->
<g id="edge29" class="edge">
<title>Node10&#45;&gt;Node20</title>
<path fill="none" stroke="#191970" d="M712.248,-193.005C836.3423,-181.1544 1086.4656,-157.2684 1210.2332,-145.449"/>
<polygon fill="#191970" stroke="#191970" points="1210.7443,-148.9162 1220.3663,-144.4813 1210.0788,-141.9479 1210.7443,-148.9162"/>
</g>
<!-- Node12&#45;&gt;Node7 -->
<g id="edge14" class="edge">
<title>Node12&#45;&gt;Node7</title>
<path fill="none" stroke="#191970" d="M152.573,-148.0471C189.8613,-163.7007 260.7173,-194.6184 324,-210 450.1799,-240.6694 600.7219,-253.1869 689.9033,-258.218"/>
<polygon fill="#191970" stroke="#191970" points="689.7597,-261.7153 699.9361,-258.7669 690.1422,-254.7257 689.7597,-261.7153"/>
</g>
<!-- Node12&#45;&gt;Node8 -->
<g id="edge13" class="edge">
<title>Node12&#45;&gt;Node8</title>
<path fill="none" stroke="#191970" d="M120.1228,-128.9005C112.7802,-118.6515 100.9759,-102.1747 91.8938,-89.4976"/>
<polygon fill="#191970" stroke="#191970" points="94.5336,-87.1724 85.8645,-81.0817 88.8432,-91.2492 94.5336,-87.1724"/>
</g>
<!-- Node12&#45;&gt;Node11 -->
<g id="edge15" class="edge">
<title>Node12&#45;&gt;Node11</title>
<path fill="none" stroke="#191970" d="M160.3832,-128.9005C201.5621,-117.0594 271.6498,-96.9054 316.8689,-83.9025"/>
<polygon fill="#191970" stroke="#191970" points="318.0354,-87.209 326.6787,-81.0817 316.1009,-80.4816 318.0354,-87.209"/>
</g>
<!-- Node14&#45;&gt;Node7 -->
<g id="edge18" class="edge">
<title>Node14&#45;&gt;Node7</title>
<path fill="none" stroke="#191970" d="M770.8257,-148.0493C774.0176,-166.8307 774.5965,-209.1173 772.5624,-236.4249"/>
<polygon fill="#191970" stroke="#191970" points="769.0746,-236.1319 771.6143,-246.4178 776.0433,-236.7931 769.0746,-236.1319"/>
</g>
<!-- Node15&#45;&gt;Node7 -->
<g id="edge20" class="edge">
<title>Node15&#45;&gt;Node7</title>
<path fill="none" stroke="#191970" d="M1018.3079,-153.513C969.8798,-175.8953 873.8395,-217.9978 815.4562,-242.4964"/>
<polygon fill="#191970" stroke="#191970" points="813.9481,-239.3332 806.0704,-246.4178 816.6467,-245.7921 813.9481,-239.3332"/>
</g>
<!-- Node16 -->
<g id="node17" class="node">
<title>Node16</title>
<g id="a_node17"><a xlink:href="constraints_2basic_8h.html" target="_top" xlink:title="Functions and data structures for constraining secondary structure predictions and evaluation...">
<polygon fill="none" stroke="#000000" points="988.5,-56.5 988.5,-86.5 1107.5,-86.5 1107.5,-56.5 988.5,-56.5"/>
<text text-anchor="start" x="996.5" y="-74.5" font-family="Helvetica,sans-Serif" font-size="10.00" fill="#000000">ViennaRNA/constraints</text>
<text text-anchor="middle" x="1048" y="-63.5" font-family="Helvetica,sans-Serif" font-size="10.00" fill="#000000">/basic.h</text>
</a>
</g>
</g>
<!-- Node15&#45;&gt;Node16 -->
<g id="edge21" class="edge">
<title>Node15&#45;&gt;Node16</title>
<path fill="none" stroke="#191970" d="M1048,-123.2967C1048,-115.5013 1048,-105.7991 1048,-96.9064"/>
<polygon fill="#191970" stroke="#191970" points="1051.5001,-96.6431 1048,-86.6432 1044.5001,-96.6432 1051.5001,-96.6431"/>
</g>
<!-- Node16&#45;&gt;Node7 -->
<g id="edge22" class="edge">
<title>Node16&#45;&gt;Node7</title>
<path fill="none" stroke="#191970" d="M1075.8636,-86.5616C1102.1687,-102.7692 1135.0879,-129.5225 1117,-154 1100.1767,-176.7662 937.3032,-219.8988 839.777,-244.0318"/>
<polygon fill="#191970" stroke="#191970" points="838.8404,-240.6578 829.9687,-246.4494 840.5157,-247.4544 838.8404,-240.6578"/>
</g>
<!-- Node17&#45;&gt;Node7 -->
<g id="edge24" class="edge">
<title>Node17&#45;&gt;Node7</title>
<path fill="none" stroke="#191970" d="M897.8274,-153.7056C874.9761,-175.4456 828.2866,-215.5049 797.2026,-240.1919"/>
<polygon fill="#191970" stroke="#191970" points="794.9763,-237.49 789.2715,-246.4178 799.2986,-242.9961 794.9763,-237.49"/>
</g>
<!-- Node17&#45;&gt;Node16 -->
<g id="edge25" class="edge">
<title>Node17&#45;&gt;Node16</title>
<path fill="none" stroke="#191970" d="M941.7455,-123.4639C961.2624,-113.9191 986.7257,-101.4663 1007.8325,-91.144"/>
<polygon fill="#191970" stroke="#191970" points="1009.4375,-94.2552 1016.8831,-86.7177 1006.3622,-87.9669 1009.4375,-94.2552"/>
</g>
<!-- Node18&#45;&gt;Node7 -->
<g id="edge27" class="edge">
<title>Node18&#45;&gt;Node7</title>
<path fill="none" stroke="#191970" d="M285.0277,-148.1486C299.9332,-164.0966 325.1053,-195.6192 355,-210 412.8766,-237.8414 587.3567,-251.6524 689.8097,-257.6267"/>
<polygon fill="#191970" stroke="#191970" points="689.6146,-261.1211 699.7981,-258.1977 690.0142,-254.1326 689.6146,-261.1211"/>
</g>
<!-- Node20&#45;&gt;Node7 -->
<g id="edge30" class="edge">
<title>Node20&#45;&gt;Node7</title>
<path fill="none" stroke="#191970" d="M1278.3198,-153.5718C1267.3689,-170.5464 1242.9386,-197.4021 1215,-210 1067.2055,-276.6427 1012.3038,-221.7693 852,-246 849.4952,-246.3786 846.948,-246.7853 844.3748,-247.2139"/>
<polygon fill="#191970" stroke="#191970" points="843.6039,-243.7954 834.3544,-248.9623 844.8072,-250.6912 843.6039,-243.7954"/>
</g>
<!-- Node20&#45;&gt;Node21 -->
<g id="edge31" class="edge">
<title>Node20&#45;&gt;Node21</title>
<path fill="none" stroke="#191970" d="M1272.335,-123.2967C1265.2965,-113.2631 1256.0423,-100.0709 1248.6348,-89.5113"/>
<polygon fill="#191970" stroke="#191970" points="1251.3109,-87.2316 1242.7027,-81.055 1245.5803,-91.2516 1251.3109,-87.2316"/>
</g>
<!-- Node21&#45;&gt;Node5 -->
<g id="edge32" class="edge">
<title>Node21&#45;&gt;Node5</title>
<path fill="none" stroke="#191970" d="M1246.7813,-61.8906C1257.3526,-52.4683 1273.6825,-37.9134 1286.3603,-26.6137"/>
<polygon fill="#191970" stroke="#191970" points="1288.9304,-29.0114 1294.0667,-19.7449 1284.2728,-23.7858 1288.9304,-29.0114"/>
</g>
<!-- Node21&#45;&gt;Node7 -->
<g id="edge33" class="edge">
<title>Node21&#45;&gt;Node7</title>
<path fill="none" stroke="#191970" d="M1231.2065,-81.0078C1216.9047,-97.3031 1178.435,-131.0276 1142,-154 1093.5732,-184.5332 1080.2252,-191.6408 1026,-210 1023.8283,-210.7353 919.8963,-232.0608 844.3034,-247.0357"/>
<polygon fill="#191970" stroke="#191970" points="843.4362,-243.6393 834.3046,-249.0119 844.7935,-250.5065 843.4362,-243.6393"/>
</g>
</g>
</svg>
        <g id="navigator" transform="translate(0 0)" fill="#404254">
                <rect fill="#f2f5e9" fill-opacity="0.5" stroke="#606060" stroke-width=".5" x="0" y="0" width="60" height="60"/>
                <use id="zoomplus" xlink:href="#zoomPlus" x="17" y="9" onmousedown="handleZoom(evt,'in')"/>
                <use id="zoomminus" xlink:href="#zoomMin" x="42" y="9" onmousedown="handleZoom(evt,'out')"/>
                <use id="reset" xlink:href="#resetDef" x="30" y="36" onmousedown="handleReset()"/>
                <g id="arrowUp" xlink:href="#dirArrow" transform="translate(30 24)" onmousedown="handlePan(0,-1)">
                  <use xlink:href="#rim" fill="#404040">
                        <set attributeName="fill" to="#808080" begin="arrowUp.mouseover" end="arrowUp.mouseout"/>
                  </use>
                  <path fill="none" stroke="white" stroke-width="1.5" d="M0,-3.0v7 M-2.5,-0.5L0,-3.0L2.5,-0.5"/>
                </g>
                <g id="arrowRight" xlink:href="#dirArrow" transform="rotate(90) translate(36 -43)" onmousedown="handlePan(1,0)">
                  <use xlink:href="#rim" fill="#404040">
                        <set attributeName="fill" to="#808080" begin="arrowRight.mouseover" end="arrowRight.mouseout"/>
                  </use>
                  <path fill="none" stroke="white" stroke-width="1.5" d="M0,-3.0v7 M-2.5,-0.5L0,-3.0L2.5,-0.5"/>
                </g>
                <g id="arrowDown" xlink:href="#dirArrow" transform="rotate(180) translate(-30 -48)" onmousedown="handlePan(0,1)">
                  <use xlink:href="#rim" fill="#404040">
                        <set attributeName="fill" to="#808080" begin="arrowDown.mouseover" end="arrowDown.mouseout"/>
                  </use>
                  <path fill="none" stroke="white" stroke-width="1.5" d="M0,-3.0v7 M-2.5,-0.5L0,-3.0L2.5,-0.5"/>
                </g>
                <g id="arrowLeft" xlink:href="#dirArrow" transform="rotate(270) translate(-36 17)" onmousedown="handlePan(-1,0)">
                  <use xlink:href="#rim" fill="#404040">
                        <set attributeName="fill" to="#808080" begin="arrowLeft.mouseover" end="arrowLeft.mouseout"/>
                  </use>
                  <path fill="none" stroke="white" stroke-width="1.5" d="M0,-3.0v7 M-2.5,-0.5L0,-3.0L2.5,-0.5"/>
                </g>
        </g>
        <svg viewBox="0 0 15 15" width="100%" height="30px" preserveAspectRatio="xMaxYMin meet">
         <g id="arrow_out" transform="scale(0.3 0.3)">
          <a xlink:href="hairpin__loops_8h__incl_org.svg" target="_base">
           <rect id="button" ry="5" rx="5" y="6" x="6" height="38" width="38"
                fill="#f2f5e9" fill-opacity="0.5" stroke="#606060" stroke-width="1.0"/>
           <path id="arrow"
             d="M 11.500037,31.436501 C 11.940474,20.09759 22.043105,11.32322 32.158766,21.979434 L 37.068811,17.246167 C 37.068811,17.246167 37.088388,32 37.088388,32 L 22.160133,31.978069 C 22.160133,31.978069 26.997745,27.140456 26.997745,27.140456 C 18.528582,18.264221 13.291696,25.230495 11.500037,31.436501 z"
             style="fill:#404040;"/>
          </a>
         </g>
        </svg>
</svg>
