<?xml version="1.0" encoding="UTF-8" standalone="no"?>
<!DOCTYPE svg PUBLIC "-//W3C//DTD SVG 1.1//EN"
 "http://www.w3.org/Graphics/SVG/1.1/DTD/svg11.dtd">
<!-- Generated by graphviz version 2.40.1 (20161225.0304)
 -->
<!-- Title: ViennaRNA/loops/internal.h Pages: 1 -->
<svg width="256pt" height="151pt"
 viewBox="0.00 0.00 255.50 151.00" xmlns="http://www.w3.org/2000/svg" xmlns:xlink="http://www.w3.org/1999/xlink">
<g id="graph0" class="graph" transform="scale(1 1) rotate(0) translate(4 147)">
<title>ViennaRNA/loops/internal.h</title>
<!-- Node20 -->
<g id="node1" class="node">
<title>Node20</title>
<polygon fill="#bfbfbf" stroke="#000000" points="45,-123.5 45,-142.5 182,-142.5 182,-123.5 45,-123.5"/>
<text text-anchor="middle" x="113.5" y="-130.5" font-family="Helvetica,sans-Serif" font-size="10.00" fill="#000000">ViennaRNA/loops/internal.h</text>
</g>
<!-- Node21 -->
<g id="node2" class="node">
<title>Node21</title>
<g id="a_node2"><a xlink:href="interior__loops_8h.html" target="_top" xlink:title="Use ViennaRNA/loops/internal.h instead. ">
<polygon fill="none" stroke="#000000" points="0,-56.5 0,-86.5 101,-86.5 101,-56.5 0,-56.5"/>
<text text-anchor="start" x="8" y="-74.5" font-family="Helvetica,sans-Serif" font-size="10.00" fill="#000000">ViennaRNA/interior</text>
<text text-anchor="middle" x="50.5" y="-63.5" font-family="Helvetica,sans-Serif" font-size="10.00" fill="#000000">_loops.h</text>
</a>
</g>
</g>
<!-- Node20&#45;&gt;Node21 -->
<g id="edge1" class="edge">
<title>Node20&#45;&gt;Node21</title>
<path fill="none" stroke="#191970" d="M96.3006,-116.2101C86.8047,-106.9403 75.1077,-95.5218 65.9115,-86.5446"/>
<polygon fill="#191970" stroke="#191970" points="94.0556,-118.9097 103.6563,-123.3906 98.9454,-113.9007 94.0556,-118.9097"/>
</g>
<!-- Node22 -->
<g id="node3" class="node">
<title>Node22</title>
<g id="a_node3"><a xlink:href="all_8h.html" target="_top" xlink:title="Energy evaluation for MFE and partition function calculations. ">
<polygon fill="none" stroke="#000000" points="119.5,-62 119.5,-81 235.5,-81 235.5,-62 119.5,-62"/>
<text text-anchor="middle" x="177.5" y="-69" font-family="Helvetica,sans-Serif" font-size="10.00" fill="#000000">ViennaRNA/loops/all.h</text>
</a>
</g>
</g>
<!-- Node20&#45;&gt;Node22 -->
<g id="edge2" class="edge">
<title>Node20&#45;&gt;Node22</title>
<path fill="none" stroke="#191970" d="M130.9566,-116.2253C142.6353,-105.0028 157.5967,-90.6258 167.359,-81.2449"/>
<polygon fill="#191970" stroke="#191970" points="128.2854,-113.9381 123.5,-123.3906 133.1356,-118.9854 128.2854,-113.9381"/>
</g>
<!-- Node23 -->
<g id="node4" class="node">
<title>Node23</title>
<g id="a_node4"><a xlink:href="loop__energies_8h.html" target="_top" xlink:title="Use ViennaRNA/loops/all.h instead. ">
<polygon fill="none" stroke="#000000" points="107.5,-.5 107.5,-19.5 247.5,-19.5 247.5,-.5 107.5,-.5"/>
<text text-anchor="middle" x="177.5" y="-7.5" font-family="Helvetica,sans-Serif" font-size="10.00" fill="#000000">ViennaRNA/loop_energies.h</text>
</a>
</g>
</g>
<!-- Node22&#45;&gt;Node23 -->
<g id="edge3" class="edge">
<title>Node22&#45;&gt;Node23</title>
<path fill="none" stroke="#191970" d="M177.5,-51.7462C177.5,-41.0519 177.5,-28.314 177.5,-19.7449"/>
<polygon fill="#191970" stroke="#191970" points="174.0001,-51.8906 177.5,-61.8906 181.0001,-51.8907 174.0001,-51.8906"/>
</g>
</g>
</svg>
