<?xml version="1.0" encoding="UTF-8" standalone="no"?>
<!DOCTYPE svg PUBLIC "-//W3C//DTD SVG 1.1//EN"
 "http://www.w3.org/Graphics/SVG/1.1/DTD/svg11.dtd">
<!-- Generated by graphviz version 2.40.1 (20161225.0304)
 -->
<!-- Title: ViennaRNA/interior_loops.h Pages: 1 -->
<svg width="1556pt" height="464pt"
 viewBox="0.00 0.00 1555.50 464.00" xmlns="http://www.w3.org/2000/svg" xmlns:xlink="http://www.w3.org/1999/xlink">
<g id="graph0" class="graph" transform="scale(1 1) rotate(0) translate(4 460)">
<title>ViennaRNA/interior_loops.h</title>
<!-- Node0 -->
<g id="node1" class="node">
<title>Node0</title>
<polygon fill="#bfbfbf" stroke="#000000" points="439.5,-425.5 439.5,-455.5 540.5,-455.5 540.5,-425.5 439.5,-425.5"/>
<text text-anchor="start" x="447.5" y="-443.5" font-family="Helvetica,sans-Serif" font-size="10.00" fill="#000000">ViennaRNA/interior</text>
<text text-anchor="middle" x="490" y="-432.5" font-family="Helvetica,sans-Serif" font-size="10.00" fill="#000000">_loops.h</text>
</g>
<!-- Node1 -->
<g id="node2" class="node">
<title>Node1</title>
<g id="a_node2"><a xlink:href="internal_8h.html" target="_top" xlink:title="Energy evaluation of interior loops for MFE and partition function calculations. ">
<polygon fill="none" stroke="#000000" points="421.5,-369.5 421.5,-388.5 558.5,-388.5 558.5,-369.5 421.5,-369.5"/>
<text text-anchor="middle" x="490" y="-376.5" font-family="Helvetica,sans-Serif" font-size="10.00" fill="#000000">ViennaRNA/loops/internal.h</text>
</a>
</g>
</g>
<!-- Node0&#45;&gt;Node1 -->
<g id="edge1" class="edge">
<title>Node0&#45;&gt;Node1</title>
<path fill="none" stroke="#191970" d="M490,-425.2977C490,-417.3834 490,-407.6043 490,-399.0759"/>
<polygon fill="#191970" stroke="#191970" points="493.5001,-398.8469 490,-388.8469 486.5001,-398.847 493.5001,-398.8469"/>
</g>
<!-- Node2 -->
<g id="node3" class="node">
<title>Node2</title>
<g id="a_node3"><a xlink:href="utils_2basic_8h.html" target="_top" xlink:title="General utility&#45; and helper&#45;functions used throughout the ViennaRNA Package. ">
<polygon fill="none" stroke="#000000" points="142,-313.5 142,-332.5 266,-332.5 266,-313.5 142,-313.5"/>
<text text-anchor="middle" x="204" y="-320.5" font-family="Helvetica,sans-Serif" font-size="10.00" fill="#000000">ViennaRNA/utils/basic.h</text>
</a>
</g>
</g>
<!-- Node1&#45;&gt;Node2 -->
<g id="edge2" class="edge">
<title>Node1&#45;&gt;Node2</title>
<path fill="none" stroke="#191970" d="M441.1598,-369.4369C391.699,-359.7522 315.184,-344.7703 262.512,-334.4569"/>
<polygon fill="#191970" stroke="#191970" points="263.125,-331.0105 252.6387,-332.5237 261.7798,-337.8801 263.125,-331.0105"/>
</g>
<!-- Node5 -->
<g id="node6" class="node">
<title>Node5</title>
<g id="a_node6"><a xlink:href="datastructures_2basic_8h.html" target="_top" xlink:title="Various data structures and pre&#45;processor macros. ">
<polygon fill="none" stroke="#000000" points="619,-246.5 619,-276.5 753,-276.5 753,-246.5 619,-246.5"/>
<text text-anchor="start" x="627" y="-264.5" font-family="Helvetica,sans-Serif" font-size="10.00" fill="#000000">ViennaRNA/datastructures</text>
<text text-anchor="middle" x="686" y="-253.5" font-family="Helvetica,sans-Serif" font-size="10.00" fill="#000000">/basic.h</text>
</a>
</g>
</g>
<!-- Node1&#45;&gt;Node5 -->
<g id="edge43" class="edge">
<title>Node1&#45;&gt;Node5</title>
<path fill="none" stroke="#191970" d="M506.0395,-369.3845C537.8771,-350.2982 609.6542,-307.2685 652.3145,-281.6941"/>
<polygon fill="#191970" stroke="#191970" points="654.1736,-284.6604 660.9509,-276.5167 650.5744,-278.6566 654.1736,-284.6604"/>
</g>
<!-- Node10 -->
<g id="node11" class="node">
<title>Node10</title>
<g id="a_node11"><a xlink:href="params_2basic_8h.html" target="_top" xlink:title="Functions to deal with sets of energy parameters. ">
<polygon fill="none" stroke="#000000" points="260,-129 260,-148 398,-148 398,-129 260,-129"/>
<text text-anchor="middle" x="329" y="-136" font-family="Helvetica,sans-Serif" font-size="10.00" fill="#000000">ViennaRNA/params/basic.h</text>
</a>
</g>
</g>
<!-- Node1&#45;&gt;Node10 -->
<g id="edge44" class="edge">
<title>Node1&#45;&gt;Node10</title>
<path fill="none" stroke="#191970" d="M483.4892,-369.2742C459.1119,-332.8597 373.0012,-204.2285 341.0493,-156.4992"/>
<polygon fill="#191970" stroke="#191970" points="343.8869,-154.4461 335.4154,-148.0833 338.0699,-158.3402 343.8869,-154.4461"/>
</g>
<!-- Node13 -->
<g id="node14" class="node">
<title>Node13</title>
<g id="a_node14"><a xlink:href="hard_8h.html" target="_top" xlink:title="Functions and data structures for handling of secondary structure hard constraints. ">
<polygon fill="none" stroke="#000000" points="1252.5,-123.5 1252.5,-153.5 1371.5,-153.5 1371.5,-123.5 1252.5,-123.5"/>
<text text-anchor="start" x="1260.5" y="-141.5" font-family="Helvetica,sans-Serif" font-size="10.00" fill="#000000">ViennaRNA/constraints</text>
<text text-anchor="middle" x="1312" y="-130.5" font-family="Helvetica,sans-Serif" font-size="10.00" fill="#000000">/hard.h</text>
</a>
</g>
</g>
<!-- Node1&#45;&gt;Node13 -->
<g id="edge45" class="edge">
<title>Node1&#45;&gt;Node13</title>
<path fill="none" stroke="#191970" d="M529.3152,-369.4983C628.1438,-345.3624 894.6583,-278.7182 1113,-210 1164.9221,-193.6587 1223.4563,-172.261 1263.5249,-157.1462"/>
<polygon fill="#191970" stroke="#191970" points="1264.9325,-160.3559 1273.0455,-153.542 1262.4541,-153.8093 1264.9325,-160.3559"/>
</g>
<!-- Node15 -->
<g id="node16" class="node">
<title>Node15</title>
<g id="a_node16"><a xlink:href="soft_8h.html" target="_top" xlink:title="Functions and data structures for secondary structure soft constraints. ">
<polygon fill="none" stroke="#000000" points="1428.5,-123.5 1428.5,-153.5 1547.5,-153.5 1547.5,-123.5 1428.5,-123.5"/>
<text text-anchor="start" x="1436.5" y="-141.5" font-family="Helvetica,sans-Serif" font-size="10.00" fill="#000000">ViennaRNA/constraints</text>
<text text-anchor="middle" x="1488" y="-130.5" font-family="Helvetica,sans-Serif" font-size="10.00" fill="#000000">/soft.h</text>
</a>
</g>
</g>
<!-- Node1&#45;&gt;Node15 -->
<g id="edge46" class="edge">
<title>Node1&#45;&gt;Node15</title>
<path fill="none" stroke="#191970" d="M543.1156,-369.438C591.0509,-360.6207 663.4364,-346.8393 726,-333 986.5012,-275.3761 1293.294,-192.3968 1423.9262,-156.3453"/>
<polygon fill="#191970" stroke="#191970" points="1425.0666,-159.6614 1433.7733,-153.6244 1423.2023,-152.9142 1425.0666,-159.6614"/>
</g>
<!-- Node20 -->
<g id="node21" class="node">
<title>Node20</title>
<g id="a_node21"><a xlink:href="default_8h_source.html" target="_top" xlink:title="ViennaRNA/params/default.h">
<polygon fill="none" stroke="#000000" points="0,-190.5 0,-209.5 144,-209.5 144,-190.5 0,-190.5"/>
<text text-anchor="middle" x="72" y="-197.5" font-family="Helvetica,sans-Serif" font-size="10.00" fill="#000000">ViennaRNA/params/default.h</text>
</a>
</g>
</g>
<!-- Node1&#45;&gt;Node20 -->
<g id="edge41" class="edge">
<title>Node1&#45;&gt;Node20</title>
<path fill="none" stroke="#191970" d="M421.4909,-373.7516C324.3396,-365.7718 155.743,-349.7381 133,-333 95.628,-305.4954 80.5315,-249.5277 74.949,-219.7188"/>
<polygon fill="#191970" stroke="#191970" points="78.3709,-218.9633 73.2487,-209.689 71.4694,-220.1334 78.3709,-218.9633"/>
</g>
<!-- Node3 -->
<g id="node4" class="node">
<title>Node3</title>
<polygon fill="none" stroke="#bfbfbf" points="170,-.5 170,-19.5 216,-19.5 216,-.5 170,-.5"/>
<text text-anchor="middle" x="193" y="-7.5" font-family="Helvetica,sans-Serif" font-size="10.00" fill="#000000">stdio.h</text>
</g>
<!-- Node2&#45;&gt;Node3 -->
<g id="edge3" class="edge">
<title>Node2&#45;&gt;Node3</title>
<path fill="none" stroke="#191970" d="M199.6843,-313.3382C190.9497,-292.874 172,-243.4681 172,-200 172,-200 172,-200 172,-138.5 172,-99.3148 181.6289,-54.2778 187.8464,-29.281"/>
<polygon fill="#191970" stroke="#191970" points="191.2391,-30.1409 190.3403,-19.5843 184.4597,-28.3973 191.2391,-30.1409"/>
</g>
<!-- Node4 -->
<g id="node5" class="node">
<title>Node4</title>
<polygon fill="none" stroke="#bfbfbf" points="200,-252 200,-271 252,-271 252,-252 200,-252"/>
<text text-anchor="middle" x="226" y="-259" font-family="Helvetica,sans-Serif" font-size="10.00" fill="#000000">stdarg.h</text>
</g>
<!-- Node2&#45;&gt;Node4 -->
<g id="edge4" class="edge">
<title>Node2&#45;&gt;Node4</title>
<path fill="none" stroke="#191970" d="M207.4375,-313.3906C210.5513,-304.6862 215.232,-291.6015 219.114,-280.7494"/>
<polygon fill="#191970" stroke="#191970" points="222.4412,-281.8394 222.514,-271.2449 215.8503,-279.4817 222.4412,-281.8394"/>
</g>
<!-- Node2&#45;&gt;Node5 -->
<g id="edge5" class="edge">
<title>Node2&#45;&gt;Node5</title>
<path fill="none" stroke="#191970" d="M266.0263,-315.0859C353.6056,-303.9113 513.4248,-283.5194 608.6468,-271.3698"/>
<polygon fill="#191970" stroke="#191970" points="609.3152,-274.8129 618.7918,-270.0753 608.4292,-267.8692 609.3152,-274.8129"/>
</g>
<!-- Node6 -->
<g id="node7" class="node">
<title>Node6</title>
<g id="a_node7"><a xlink:href="constants_8h.html" target="_top" xlink:title="Energy parameter constants. ">
<polygon fill="none" stroke="#000000" points="200,-62 200,-81 358,-81 358,-62 200,-62"/>
<text text-anchor="middle" x="279" y="-69" font-family="Helvetica,sans-Serif" font-size="10.00" fill="#000000">ViennaRNA/params/constants.h</text>
</a>
</g>
</g>
<!-- Node5&#45;&gt;Node6 -->
<g id="edge6" class="edge">
<title>Node5&#45;&gt;Node6</title>
<path fill="none" stroke="#191970" d="M618.6632,-255.7534C506.7671,-244.549 290.8469,-215.3149 251,-154 237.8752,-133.8041 251.9129,-106.8115 264.3991,-89.2923"/>
<polygon fill="#191970" stroke="#191970" points="267.3746,-91.1613 270.6351,-81.0806 261.7999,-86.9278 267.3746,-91.1613"/>
</g>
<!-- Node8 -->
<g id="node9" class="node">
<title>Node8</title>
<g id="a_node9"><a xlink:href="fold__compound_8h.html" target="_top" xlink:title="The Basic Fold Compound API. ">
<polygon fill="none" stroke="#000000" points="819,-190.5 819,-209.5 965,-209.5 965,-190.5 819,-190.5"/>
<text text-anchor="middle" x="892" y="-197.5" font-family="Helvetica,sans-Serif" font-size="10.00" fill="#000000">ViennaRNA/fold_compound.h</text>
</a>
</g>
</g>
<!-- Node5&#45;&gt;Node8 -->
<g id="edge8" class="edge">
<title>Node5&#45;&gt;Node8</title>
<path fill="none" stroke="#191970" d="M736.3933,-246.4554C771.3679,-236.0139 817.4046,-222.27 850.3127,-212.4455"/>
<polygon fill="#191970" stroke="#191970" points="851.4965,-215.7448 860.0773,-209.5303 849.494,-209.0373 851.4965,-215.7448"/>
</g>
<!-- Node9 -->
<g id="node10" class="node">
<title>Node9</title>
<g id="a_node10"><a xlink:href="model_8h.html" target="_top" xlink:title="The model details data structure and its corresponding modifiers. ">
<polygon fill="none" stroke="#000000" points="724,-62 724,-81 830,-81 830,-62 724,-62"/>
<text text-anchor="middle" x="777" y="-69" font-family="Helvetica,sans-Serif" font-size="10.00" fill="#000000">ViennaRNA/model.h</text>
</a>
</g>
</g>
<!-- Node5&#45;&gt;Node9 -->
<g id="edge32" class="edge">
<title>Node5&#45;&gt;Node9</title>
<path fill="none" stroke="#191970" d="M698.9326,-246.1745C715.1151,-226.2206 742.5723,-189.6665 758,-154 766.9031,-133.4173 771.9429,-108.0634 774.5618,-90.9371"/>
<polygon fill="#191970" stroke="#191970" points="778.0322,-91.3918 775.9496,-81.0037 771.0995,-90.4232 778.0322,-91.3918"/>
</g>
<!-- Node5&#45;&gt;Node10 -->
<g id="edge33" class="edge">
<title>Node5&#45;&gt;Node10</title>
<path fill="none" stroke="#191970" d="M618.9322,-253.843C547.4614,-244.4968 439.8559,-227.7328 403,-210 376.1032,-197.0589 350.9912,-173.1138 337.6575,-156.5199"/>
<polygon fill="#191970" stroke="#191970" points="340.2668,-154.16 331.5251,-148.1739 334.6258,-158.3049 340.2668,-154.16"/>
</g>
<!-- Node12 -->
<g id="node13" class="node">
<title>Node12</title>
<g id="a_node13"><a xlink:href="dp__matrices_8h.html" target="_top" xlink:title="Functions to deal with standard dynamic programming (DP) matrices. ">
<polygon fill="none" stroke="#000000" points="472.5,-129 472.5,-148 605.5,-148 605.5,-129 472.5,-129"/>
<text text-anchor="middle" x="539" y="-136" font-family="Helvetica,sans-Serif" font-size="10.00" fill="#000000">ViennaRNA/dp_matrices.h</text>
</a>
</g>
</g>
<!-- Node5&#45;&gt;Node12 -->
<g id="edge34" class="edge">
<title>Node5&#45;&gt;Node12</title>
<path fill="none" stroke="#191970" d="M663.3607,-246.4178C632.9007,-223.2638 580.0897,-179.1238 554.0414,-155.0928"/>
<polygon fill="#191970" stroke="#191970" points="556.2592,-152.3731 546.5868,-148.0493 551.4517,-157.4612 556.2592,-152.3731"/>
</g>
<!-- Node5&#45;&gt;Node13 -->
<g id="edge35" class="edge">
<title>Node5&#45;&gt;Node13</title>
<path fill="none" stroke="#191970" d="M753.057,-253.869C824.9503,-245.5648 942.0388,-230.6567 1042,-210 1113.035,-195.3208 1193.319,-172.3417 1247.8337,-156.4128"/>
<polygon fill="#191970" stroke="#191970" points="1249.0904,-159.6919 1257.7049,-153.5242 1247.1244,-152.9737 1249.0904,-159.6919"/>
</g>
<!-- Node5&#45;&gt;Node15 -->
<g id="edge36" class="edge">
<title>Node5&#45;&gt;Node15</title>
<path fill="none" stroke="#191970" d="M753.016,-260.311C900.5127,-257.1163 1248.6521,-245.9832 1361,-210 1395.2821,-199.02 1429.9787,-176.2916 1454.6098,-159.3921"/>
<polygon fill="#191970" stroke="#191970" points="1456.6391,-162.2443 1462.8852,-153.6864 1452.6656,-156.4813 1456.6391,-162.2443"/>
</g>
<!-- Node16 -->
<g id="node17" class="node">
<title>Node16</title>
<g id="a_node17"><a xlink:href="grammar_8h.html" target="_top" xlink:title="Implementations for the RNA folding grammar. ">
<polygon fill="none" stroke="#000000" points="983,-129 983,-148 1101,-148 1101,-129 983,-129"/>
<text text-anchor="middle" x="1042" y="-136" font-family="Helvetica,sans-Serif" font-size="10.00" fill="#000000">ViennaRNA/grammar.h</text>
</a>
</g>
</g>
<!-- Node5&#45;&gt;Node16 -->
<g id="edge37" class="edge">
<title>Node5&#45;&gt;Node16</title>
<path fill="none" stroke="#191970" d="M753.2546,-253.5739C823.716,-244.8463 928.8827,-229.4373 965,-210 988.893,-197.1415 1009.251,-172.8238 1023.4335,-156.1491"/>
<polygon fill="#191970" stroke="#191970" points="1026.3872,-158.0837 1030.2732,-148.2272 1021.0888,-153.5091 1026.3872,-158.0837"/>
</g>
<!-- Node17 -->
<g id="node18" class="node">
<title>Node17</title>
<g id="a_node18"><a xlink:href="structured__domains_8h.html" target="_top" xlink:title="This module provides interfaces that deal with additional structured domains in the folding grammar...">
<polygon fill="none" stroke="#000000" points="1119.5,-123.5 1119.5,-153.5 1234.5,-153.5 1234.5,-123.5 1119.5,-123.5"/>
<text text-anchor="start" x="1127.5" y="-141.5" font-family="Helvetica,sans-Serif" font-size="10.00" fill="#000000">ViennaRNA/structured</text>
<text text-anchor="middle" x="1177" y="-130.5" font-family="Helvetica,sans-Serif" font-size="10.00" fill="#000000">_domains.h</text>
</a>
</g>
</g>
<!-- Node5&#45;&gt;Node17 -->
<g id="edge38" class="edge">
<title>Node5&#45;&gt;Node17</title>
<path fill="none" stroke="#191970" d="M753.2306,-255.6124C819.2998,-248.7041 922.5075,-234.8941 1009,-210 1054.8847,-196.7936 1104.9365,-174.374 1138.3655,-158.1557"/>
<polygon fill="#191970" stroke="#191970" points="1140.3218,-161.0946 1147.7592,-153.5489 1137.2396,-154.8096 1140.3218,-161.0946"/>
</g>
<!-- Node18 -->
<g id="node19" class="node">
<title>Node18</title>
<g id="a_node19"><a xlink:href="unstructured__domains_8h.html" target="_top" xlink:title="Functions to modify unstructured domains, e.g. to incorporate ligands binding to unpaired stretches...">
<polygon fill="none" stroke="#000000" points="623.5,-123.5 623.5,-153.5 748.5,-153.5 748.5,-123.5 623.5,-123.5"/>
<text text-anchor="start" x="631.5" y="-141.5" font-family="Helvetica,sans-Serif" font-size="10.00" fill="#000000">ViennaRNA/unstructured</text>
<text text-anchor="middle" x="686" y="-130.5" font-family="Helvetica,sans-Serif" font-size="10.00" fill="#000000">_domains.h</text>
</a>
</g>
</g>
<!-- Node5&#45;&gt;Node18 -->
<g id="edge39" class="edge">
<title>Node5&#45;&gt;Node18</title>
<path fill="none" stroke="#191970" d="M681.3857,-246.4178C678.9095,-225.8539 678.5865,-188.7363 680.4169,-163.8546"/>
<polygon fill="#191970" stroke="#191970" points="683.9196,-163.9893 681.3709,-153.7056 676.9503,-163.3341 683.9196,-163.9893"/>
</g>
<!-- Node19 -->
<g id="node20" class="node">
<title>Node19</title>
<g id="a_node20"><a xlink:href="utils_2structures_8h.html" target="_top" xlink:title="Various utility&#45; and helper&#45;functions for secondary structure parsing, converting, etc. ">
<polygon fill="none" stroke="#000000" points="376,-62 376,-81 520,-81 520,-62 376,-62"/>
<text text-anchor="middle" x="448" y="-69" font-family="Helvetica,sans-Serif" font-size="10.00" fill="#000000">ViennaRNA/utils/structures.h</text>
</a>
</g>
</g>
<!-- Node5&#45;&gt;Node19 -->
<g id="edge40" class="edge">
<title>Node5&#45;&gt;Node19</title>
<path fill="none" stroke="#191970" d="M618.9075,-248.3759C565.9753,-234.0018 494.8171,-205.7617 455,-154 441.077,-135.9003 438.198,-109.0943 440.1198,-90.9935"/>
<polygon fill="#191970" stroke="#191970" points="443.5915,-91.4596 441.881,-81.0038 436.6978,-90.2442 443.5915,-91.4596"/>
</g>
<!-- Node7 -->
<g id="node8" class="node">
<title>Node7</title>
<polygon fill="none" stroke="#bfbfbf" points="255,-.5 255,-19.5 303,-19.5 303,-.5 255,-.5"/>
<text text-anchor="middle" x="279" y="-7.5" font-family="Helvetica,sans-Serif" font-size="10.00" fill="#000000">limits.h</text>
</g>
<!-- Node6&#45;&gt;Node7 -->
<g id="edge7" class="edge">
<title>Node6&#45;&gt;Node7</title>
<path fill="none" stroke="#191970" d="M279,-61.8906C279,-53.3657 279,-40.6392 279,-29.9235"/>
<polygon fill="#191970" stroke="#191970" points="282.5001,-29.7448 279,-19.7449 275.5001,-29.7449 282.5001,-29.7448"/>
</g>
<!-- Node8&#45;&gt;Node9 -->
<g id="edge9" class="edge">
<title>Node8&#45;&gt;Node9</title>
<path fill="none" stroke="#191970" d="M904.7356,-190.346C922.9671,-175.3429 952.5719,-145.7871 936,-123 923.9644,-106.4505 876.9249,-92.504 837.1068,-83.3159"/>
<polygon fill="#191970" stroke="#191970" points="837.6887,-79.8595 827.1648,-81.0838 836.1552,-86.6895 837.6887,-79.8595"/>
</g>
<!-- Node8&#45;&gt;Node10 -->
<g id="edge10" class="edge">
<title>Node8&#45;&gt;Node10</title>
<path fill="none" stroke="#191970" d="M818.9014,-192.3065C733.6807,-183.2994 588.5982,-167.8484 464,-154 445.8981,-151.9881 426.4365,-149.78 408.0815,-147.677"/>
<polygon fill="#191970" stroke="#191970" points="408.3478,-144.1846 398.0139,-146.5214 407.5495,-151.139 408.3478,-144.1846"/>
</g>
<!-- Node11 -->
<g id="node12" class="node">
<title>Node11</title>
<g id="a_node12"><a xlink:href="sequence_8h.html" target="_top" xlink:title="Functions and data structures related to sequence representations ,. ">
<polygon fill="none" stroke="#000000" points="805,-129 805,-148 927,-148 927,-129 805,-129"/>
<text text-anchor="middle" x="866" y="-136" font-family="Helvetica,sans-Serif" font-size="10.00" fill="#000000">ViennaRNA/sequence.h</text>
</a>
</g>
</g>
<!-- Node8&#45;&gt;Node11 -->
<g id="edge14" class="edge">
<title>Node8&#45;&gt;Node11</title>
<path fill="none" stroke="#191970" d="M887.9375,-190.3906C884.2576,-181.6862 878.7258,-168.6015 874.138,-157.7494"/>
<polygon fill="#191970" stroke="#191970" points="877.2375,-156.0927 870.1198,-148.2449 870.79,-158.8185 877.2375,-156.0927"/>
</g>
<!-- Node8&#45;&gt;Node12 -->
<g id="edge15" class="edge">
<title>Node8&#45;&gt;Node12</title>
<path fill="none" stroke="#191970" d="M830.5503,-190.4569C774.3433,-181.5709 688.9412,-167.6748 615,-154 608.3275,-152.766 601.3372,-151.4172 594.4127,-150.0467"/>
<polygon fill="#191970" stroke="#191970" points="594.8518,-146.5652 584.3592,-148.034 593.4776,-153.429 594.8518,-146.5652"/>
</g>
<!-- Node8&#45;&gt;Node13 -->
<g id="edge17" class="edge">
<title>Node8&#45;&gt;Node13</title>
<path fill="none" stroke="#191970" d="M965.1168,-192.477C1034.226,-184.9039 1140.993,-172.013 1242.2638,-154.2219"/>
<polygon fill="#191970" stroke="#191970" points="1243.1271,-157.6234 1252.3608,-152.4283 1241.9028,-150.7313 1243.1271,-157.6234"/>
</g>
<!-- Node8&#45;&gt;Node15 -->
<g id="edge21" class="edge">
<title>Node8&#45;&gt;Node15</title>
<path fill="none" stroke="#191970" d="M965.0267,-194.2786C1060.7143,-186.5187 1233.6753,-171.5889 1381,-154 1393.0127,-152.5658 1405.7591,-150.8713 1418.1082,-149.1384"/>
<polygon fill="#191970" stroke="#191970" points="1418.9563,-152.5531 1428.3632,-147.6787 1417.9698,-145.6229 1418.9563,-152.5531"/>
</g>
<!-- Node8&#45;&gt;Node16 -->
<g id="edge24" class="edge">
<title>Node8&#45;&gt;Node16</title>
<path fill="none" stroke="#191970" d="M915.4375,-190.3906C940.6453,-180.0554 980.9153,-163.5447 1009.2477,-151.9284"/>
<polygon fill="#191970" stroke="#191970" points="1010.8023,-155.0739 1018.7271,-148.0419 1008.1468,-148.5971 1010.8023,-155.0739"/>
</g>
<!-- Node8&#45;&gt;Node17 -->
<g id="edge26" class="edge">
<title>Node8&#45;&gt;Node17</title>
<path fill="none" stroke="#191970" d="M938.4102,-190.4788C980.4253,-181.7981 1044.2796,-168.4541 1109.2593,-154.1411"/>
<polygon fill="#191970" stroke="#191970" points="1110.2627,-157.5039 1119.2726,-151.9296 1108.7531,-150.6686 1110.2627,-157.5039"/>
</g>
<!-- Node8&#45;&gt;Node18 -->
<g id="edge27" class="edge">
<title>Node8&#45;&gt;Node18</title>
<path fill="none" stroke="#191970" d="M859.8125,-190.3906C829.4805,-181.3352 783.2689,-167.539 746.118,-156.4479"/>
<polygon fill="#191970" stroke="#191970" points="746.9766,-153.0516 736.3933,-153.5446 744.9741,-159.7591 746.9766,-153.0516"/>
</g>
<!-- Node10&#45;&gt;Node5 -->
<g id="edge12" class="edge">
<title>Node10&#45;&gt;Node5</title>
<path fill="none" stroke="#191970" d="M342.6212,-148.1739C359.7517,-163.8679 389.1223,-194.6624 421,-210 453.8783,-225.819 543.0589,-240.867 608.9872,-250.5659"/>
<polygon fill="#191970" stroke="#191970" points="608.5457,-254.0384 618.9458,-252.0166 609.5549,-247.1115 608.5457,-254.0384"/>
</g>
<!-- Node10&#45;&gt;Node6 -->
<g id="edge11" class="edge">
<title>Node10&#45;&gt;Node6</title>
<path fill="none" stroke="#191970" d="M321.8362,-128.9005C314.1134,-118.552 301.6524,-101.8542 292.1563,-89.1295"/>
<polygon fill="#191970" stroke="#191970" points="294.9364,-87.0027 286.1505,-81.0817 289.3264,-91.1893 294.9364,-87.0027"/>
</g>
<!-- Node10&#45;&gt;Node9 -->
<g id="edge13" class="edge">
<title>Node10&#45;&gt;Node9</title>
<path fill="none" stroke="#191970" d="M392.7117,-128.9717C478.0215,-116.2133 628.4683,-93.7134 713.6126,-80.9798"/>
<polygon fill="#191970" stroke="#191970" points="714.2913,-84.4173 723.6636,-79.4766 713.2559,-77.4943 714.2913,-84.4173"/>
</g>
<!-- Node12&#45;&gt;Node5 -->
<g id="edge16" class="edge">
<title>Node12&#45;&gt;Node5</title>
<path fill="none" stroke="#191970" d="M554.2382,-148.0493C580.8973,-167.5787 635.1044,-212.5225 665.1501,-239.6136"/>
<polygon fill="#191970" stroke="#191970" points="662.848,-242.2512 672.5892,-246.4178 667.5724,-237.086 662.848,-242.2512"/>
</g>
<!-- Node13&#45;&gt;Node5 -->
<g id="edge18" class="edge">
<title>Node13&#45;&gt;Node5</title>
<path fill="none" stroke="#191970" d="M1270.9724,-153.5242C1221.3487,-169.4491 1135.4563,-194.4072 1060,-210 958.4861,-230.9775 839.3086,-246.0266 763.1803,-254.2512"/>
<polygon fill="#191970" stroke="#191970" points="762.764,-250.7757 753.1921,-255.3177 763.5072,-257.7361 762.764,-250.7757"/>
</g>
<!-- Node14 -->
<g id="node15" class="node">
<title>Node14</title>
<g id="a_node15"><a xlink:href="constraints_2basic_8h.html" target="_top" xlink:title="Functions and data structures for constraining secondary structure predictions and evaluation...">
<polygon fill="none" stroke="#000000" points="1340.5,-56.5 1340.5,-86.5 1459.5,-86.5 1459.5,-56.5 1340.5,-56.5"/>
<text text-anchor="start" x="1348.5" y="-74.5" font-family="Helvetica,sans-Serif" font-size="10.00" fill="#000000">ViennaRNA/constraints</text>
<text text-anchor="middle" x="1400" y="-63.5" font-family="Helvetica,sans-Serif" font-size="10.00" fill="#000000">/basic.h</text>
</a>
</g>
</g>
<!-- Node13&#45;&gt;Node14 -->
<g id="edge19" class="edge">
<title>Node13&#45;&gt;Node14</title>
<path fill="none" stroke="#191970" d="M1331.9686,-123.2967C1343.7825,-114.302 1358.9306,-102.7687 1371.9327,-92.8694"/>
<polygon fill="#191970" stroke="#191970" points="1374.2743,-95.4857 1380.1105,-86.6432 1370.0338,-89.9162 1374.2743,-95.4857"/>
</g>
<!-- Node14&#45;&gt;Node5 -->
<g id="edge20" class="edge">
<title>Node14&#45;&gt;Node5</title>
<path fill="none" stroke="#191970" d="M1401.0379,-86.6035C1401.4268,-105.1472 1399.057,-136.3071 1381,-154 1337.232,-196.8856 934.7224,-238.6173 763.0245,-254.6326"/>
<polygon fill="#191970" stroke="#191970" points="762.6769,-251.1497 753.0431,-255.5589 763.3238,-258.1198 762.6769,-251.1497"/>
</g>
<!-- Node15&#45;&gt;Node5 -->
<g id="edge22" class="edge">
<title>Node15&#45;&gt;Node5</title>
<path fill="none" stroke="#191970" d="M1475.798,-153.6864C1456.1662,-170.7687 1417.3241,-197.7254 1379,-210 1266.777,-245.9432 919.2863,-257.0915 763.1924,-260.3003"/>
<polygon fill="#191970" stroke="#191970" points="763.1201,-256.8009 753.1921,-260.5003 763.2601,-263.7995 763.1201,-256.8009"/>
</g>
<!-- Node15&#45;&gt;Node14 -->
<g id="edge23" class="edge">
<title>Node15&#45;&gt;Node14</title>
<path fill="none" stroke="#191970" d="M1468.0314,-123.2967C1456.2175,-114.302 1441.0694,-102.7687 1428.0673,-92.8694"/>
<polygon fill="#191970" stroke="#191970" points="1429.9662,-89.9162 1419.8895,-86.6432 1425.7257,-95.4857 1429.9662,-89.9162"/>
</g>
<!-- Node16&#45;&gt;Node5 -->
<g id="edge25" class="edge">
<title>Node16&#45;&gt;Node5</title>
<path fill="none" stroke="#191970" d="M1041.3693,-148.2272C1034.2409,-163.9979 1011.0578,-194.9001 983,-210 946.3693,-229.7136 838.7119,-245.2836 763.5561,-253.9421"/>
<polygon fill="#191970" stroke="#191970" points="762.7202,-250.5143 753.1777,-255.1177 763.5082,-257.4698 762.7202,-250.5143"/>
</g>
<!-- Node18&#45;&gt;Node5 -->
<g id="edge28" class="edge">
<title>Node18&#45;&gt;Node5</title>
<path fill="none" stroke="#191970" d="M690.6291,-153.7056C693.0967,-174.3355 693.4111,-211.4615 691.5721,-236.2943"/>
<polygon fill="#191970" stroke="#191970" points="688.0719,-236.1325 690.6143,-246.4178 695.0408,-236.792 688.0719,-236.1325"/>
</g>
<!-- Node18&#45;&gt;Node19 -->
<g id="edge29" class="edge">
<title>Node18&#45;&gt;Node19</title>
<path fill="none" stroke="#191970" d="M632.5882,-123.4639C590.0101,-111.4776 531.1409,-94.9052 491.4274,-83.7254"/>
<polygon fill="#191970" stroke="#191970" points="492.3394,-80.3461 481.765,-81.0053 490.4424,-87.0842 492.3394,-80.3461"/>
</g>
<!-- Node19&#45;&gt;Node3 -->
<g id="edge30" class="edge">
<title>Node19&#45;&gt;Node3</title>
<path fill="none" stroke="#191970" d="M408.436,-61.9581C358.3645,-49.882 273.0143,-29.2976 226.1815,-18.0026"/>
<polygon fill="#191970" stroke="#191970" points="226.7903,-14.5492 216.2485,-15.607 225.1491,-21.354 226.7903,-14.5492"/>
</g>
<!-- Node19&#45;&gt;Node5 -->
<g id="edge31" class="edge">
<title>Node19&#45;&gt;Node5</title>
<path fill="none" stroke="#191970" d="M452.6377,-81.0038C455.4786,-97.5922 456.1873,-132.1437 473,-154 508.663,-200.3614 569.4687,-227.8533 617.0675,-243.4133"/>
<polygon fill="#191970" stroke="#191970" points="616.1147,-246.7828 626.7047,-246.4616 618.2258,-240.1087 616.1147,-246.7828"/>
</g>
<!-- Node20&#45;&gt;Node6 -->
<g id="edge42" class="edge">
<title>Node20&#45;&gt;Node6</title>
<path fill="none" stroke="#191970" d="M87.5586,-190.3416C123.3856,-168.1012 211.9188,-113.1422 254.8648,-86.4825"/>
<polygon fill="#191970" stroke="#191970" points="256.893,-89.343 263.5432,-81.0952 253.2011,-83.3957 256.893,-89.343"/>
</g>
</g>
</svg>
