<?xml version="1.0" encoding="UTF-8" standalone="no"?>
<!DOCTYPE svg PUBLIC "-//W3C//DTD SVG 1.1//EN"
 "http://www.w3.org/Graphics/SVG/1.1/DTD/svg11.dtd">
<!-- Generated by graphviz version 2.40.1 (20161225.0304)
 -->
<!-- Title: ViennaRNA/Lfold.h Pages: 1 -->
<!--zoomable 397 -->
<svg id="main" version="1.1" xmlns="http://www.w3.org/2000/svg" xmlns:xlink="http://www.w3.org/1999/xlink" xml:space="preserve" onload="init(evt)">
<style type="text/css"><![CDATA[
.edge:hover path { stroke: red; }
.edge:hover polygon { stroke: red; fill: red; }
]]></style>
<script type="text/javascript"><![CDATA[
var edges = document.getElementsByTagName('g');
if (edges && edges.length) {
  for (var i=0;i<edges.length;i++) {
    if (edges[i].id.substr(0,4)=='edge') {
      edges[i].setAttribute('class','edge');
    }
  }
}
]]></script>
        <defs>
                <circle id="rim" cx="0" cy="0" r="7"/>
                <circle id="rim2" cx="0" cy="0" r="3.5"/>
                <g id="zoomPlus">
                        <use xlink:href="#rim" fill="#404040">
                                <set attributeName="fill" to="#808080" begin="zoomplus.mouseover" end="zoomplus.mouseout"/>
                        </use>
                        <path d="M-4,0h8M0,-4v8" fill="none" stroke="white" stroke-width="1.5" pointer-events="none"/>
                </g>
                <g id="zoomMin">
                        <use xlink:href="#rim" fill="#404040">
                                <set attributeName="fill" to="#808080" begin="zoomminus.mouseover" end="zoomminus.mouseout"/>
                        </use>
                        <path d="M-4,0h8" fill="none" stroke="white" stroke-width="1.5" pointer-events="none"/>
                </g>
                <g id="dirArrow">
                        <path fill="none" stroke="white" stroke-width="1.5" d="M0,-3.0v7 M-2.5,-0.5L0,-3.0L2.5,-0.5"/>
                </g>
               <g id="resetDef">
                       <use xlink:href="#rim2" fill="#404040">
                               <set attributeName="fill" to="#808080" begin="reset.mouseover" end="reset.mouseout"/>
                       </use>
               </g>
        </defs>

<script type="text/javascript">
var viewWidth = 1380;
var viewHeight = 397;
var sectionId = 'dynsection-0';
</script>
<script xlink:href="svgpan.js"/>
<svg id="graph" class="graph">
<g id="viewport">
<title>ViennaRNA/Lfold.h</title>
<!-- Node0 -->
<g id="node1" class="node">
<title>Node0</title>
<polygon fill="#bfbfbf" stroke="#000000" points="974,-369.5 974,-388.5 1075,-388.5 1075,-369.5 974,-369.5"/>
<text text-anchor="middle" x="1024.5" y="-376.5" font-family="Helvetica,sans-Serif" font-size="10.00" fill="#000000">ViennaRNA/Lfold.h</text>
</g>
<!-- Node1 -->
<g id="node2" class="node">
<title>Node1</title>
<g id="a_node2"><a xlink:href="mfe__window_8h.html" target="_top" xlink:title="Compute local Minimum Free Energy (MFE) using a sliding window approach and backtrace corresponding s...">
<polygon fill="none" stroke="#000000" points="957.5,-313.5 957.5,-332.5 1091.5,-332.5 1091.5,-313.5 957.5,-313.5"/>
<text text-anchor="middle" x="1024.5" y="-320.5" font-family="Helvetica,sans-Serif" font-size="10.00" fill="#000000">ViennaRNA/mfe_window.h</text>
</a>
</g>
</g>
<!-- Node0&#45;&gt;Node1 -->
<g id="edge1" class="edge">
<title>Node0&#45;&gt;Node1</title>
<path fill="none" stroke="#191970" d="M1024.5,-369.2455C1024.5,-361.9382 1024.5,-351.6944 1024.5,-342.7046"/>
<polygon fill="#191970" stroke="#191970" points="1028.0001,-342.6426 1024.5,-332.6427 1021.0001,-342.6427 1028.0001,-342.6426"/>
</g>
<!-- Node2 -->
<g id="node3" class="node">
<title>Node2</title>
<polygon fill="none" stroke="#bfbfbf" points="1298.5,-.5 1298.5,-19.5 1344.5,-19.5 1344.5,-.5 1298.5,-.5"/>
<text text-anchor="middle" x="1321.5" y="-7.5" font-family="Helvetica,sans-Serif" font-size="10.00" fill="#000000">stdio.h</text>
</g>
<!-- Node1&#45;&gt;Node2 -->
<g id="edge2" class="edge">
<title>Node1&#45;&gt;Node2</title>
<path fill="none" stroke="#191970" d="M1090.176,-313.4407C1190.7749,-296.9263 1371.5,-259.0422 1371.5,-200 1371.5,-200 1371.5,-200 1371.5,-138.5 1371.5,-100.8735 1367.4872,-90.5128 1352.5,-56 1348.1618,-46.01 1341.6066,-35.8691 1335.6398,-27.6603"/>
<polygon fill="#191970" stroke="#191970" points="1338.3629,-25.4589 1329.5289,-19.6098 1332.7873,-29.6912 1338.3629,-25.4589"/>
</g>
<!-- Node3 -->
<g id="node4" class="node">
<title>Node3</title>
<g id="a_node4"><a xlink:href="datastructures_2basic_8h.html" target="_top" xlink:title="Various data structures and pre&#45;processor macros. ">
<polygon fill="none" stroke="#000000" points="698.5,-246.5 698.5,-276.5 832.5,-276.5 832.5,-246.5 698.5,-246.5"/>
<text text-anchor="start" x="706.5" y="-264.5" font-family="Helvetica,sans-Serif" font-size="10.00" fill="#000000">ViennaRNA/datastructures</text>
<text text-anchor="middle" x="765.5" y="-253.5" font-family="Helvetica,sans-Serif" font-size="10.00" fill="#000000">/basic.h</text>
</a>
</g>
</g>
<!-- Node1&#45;&gt;Node3 -->
<g id="edge3" class="edge">
<title>Node1&#45;&gt;Node3</title>
<path fill="none" stroke="#191970" d="M984.3154,-313.4581C945.5813,-304.2606 886.0619,-290.1276 838.8718,-278.9223"/>
<polygon fill="#191970" stroke="#191970" points="839.5391,-275.4835 829.001,-276.5784 837.9218,-282.2941 839.5391,-275.4835"/>
</g>
<!-- Node4 -->
<g id="node5" class="node">
<title>Node4</title>
<g id="a_node5"><a xlink:href="constants_8h.html" target="_top" xlink:title="Energy parameter constants. ">
<polygon fill="none" stroke="#000000" points="1017.5,-62 1017.5,-81 1175.5,-81 1175.5,-62 1017.5,-62"/>
<text text-anchor="middle" x="1096.5" y="-69" font-family="Helvetica,sans-Serif" font-size="10.00" fill="#000000">ViennaRNA/params/constants.h</text>
</a>
</g>
</g>
<!-- Node3&#45;&gt;Node4 -->
<g id="edge4" class="edge">
<title>Node3&#45;&gt;Node4</title>
<path fill="none" stroke="#191970" d="M832.6964,-249.8691C920.7827,-233.0185 1067.5375,-198.8589 1096.5,-154 1108.5952,-135.2663 1105.9789,-108.8058 1102.0714,-90.9454"/>
<polygon fill="#191970" stroke="#191970" points="1105.4243,-89.9268 1099.5915,-81.082 1098.6356,-91.6337 1105.4243,-89.9268"/>
</g>
<!-- Node6 -->
<g id="node7" class="node">
<title>Node6</title>
<g id="a_node7"><a xlink:href="fold__compound_8h.html" target="_top" xlink:title="The Basic Fold Compound API. ">
<polygon fill="none" stroke="#000000" points="547.5,-190.5 547.5,-209.5 693.5,-209.5 693.5,-190.5 547.5,-190.5"/>
<text text-anchor="middle" x="620.5" y="-197.5" font-family="Helvetica,sans-Serif" font-size="10.00" fill="#000000">ViennaRNA/fold_compound.h</text>
</a>
</g>
</g>
<!-- Node3&#45;&gt;Node6 -->
<g id="edge6" class="edge">
<title>Node3&#45;&gt;Node6</title>
<path fill="none" stroke="#191970" d="M730.029,-246.4554C706.2598,-236.374 675.232,-223.2139 652.2715,-213.4755"/>
<polygon fill="#191970" stroke="#191970" points="653.5427,-210.2129 642.9699,-209.5303 650.8094,-216.6572 653.5427,-210.2129"/>
</g>
<!-- Node7 -->
<g id="node8" class="node">
<title>Node7</title>
<g id="a_node8"><a xlink:href="model_8h.html" target="_top" xlink:title="The model details data structure and its corresponding modifiers. ">
<polygon fill="none" stroke="#000000" points="868.5,-62 868.5,-81 974.5,-81 974.5,-62 868.5,-62"/>
<text text-anchor="middle" x="921.5" y="-69" font-family="Helvetica,sans-Serif" font-size="10.00" fill="#000000">ViennaRNA/model.h</text>
</a>
</g>
</g>
<!-- Node3&#45;&gt;Node7 -->
<g id="edge30" class="edge">
<title>Node3&#45;&gt;Node7</title>
<path fill="none" stroke="#191970" d="M794.3967,-246.4183C825.6594,-228.5804 874.6264,-195.9382 901.5,-154 913.7554,-134.8745 918.5034,-108.8737 920.3414,-91.2091"/>
<polygon fill="#191970" stroke="#191970" points="923.8337,-91.4453 921.165,-81.1922 916.8573,-90.8717 923.8337,-91.4453"/>
</g>
<!-- Node8 -->
<g id="node9" class="node">
<title>Node8</title>
<g id="a_node9"><a xlink:href="params_2basic_8h.html" target="_top" xlink:title="Functions to deal with sets of energy parameters. ">
<polygon fill="none" stroke="#000000" points="949.5,-129 949.5,-148 1087.5,-148 1087.5,-129 949.5,-129"/>
<text text-anchor="middle" x="1018.5" y="-136" font-family="Helvetica,sans-Serif" font-size="10.00" fill="#000000">ViennaRNA/params/basic.h</text>
</a>
</g>
</g>
<!-- Node3&#45;&gt;Node8 -->
<g id="edge31" class="edge">
<title>Node3&#45;&gt;Node8</title>
<path fill="none" stroke="#191970" d="M830.6077,-246.4105C860.8821,-238.2551 896.6381,-226.4157 926.5,-210 953.2386,-195.3013 979.0604,-170.9454 996.8286,-154.8088"/>
<polygon fill="#191970" stroke="#191970" points="999.2794,-157.3125 1004.4,-148.0373 994.6129,-152.0948 999.2794,-157.3125"/>
</g>
<!-- Node10 -->
<g id="node11" class="node">
<title>Node10</title>
<g id="a_node11"><a xlink:href="dp__matrices_8h.html" target="_top" xlink:title="Functions to deal with standard dynamic programming (DP) matrices. ">
<polygon fill="none" stroke="#000000" points="0,-129 0,-148 133,-148 133,-129 0,-129"/>
<text text-anchor="middle" x="66.5" y="-136" font-family="Helvetica,sans-Serif" font-size="10.00" fill="#000000">ViennaRNA/dp_matrices.h</text>
</a>
</g>
</g>
<!-- Node3&#45;&gt;Node10 -->
<g id="edge32" class="edge">
<title>Node3&#45;&gt;Node10</title>
<path fill="none" stroke="#191970" d="M698.3195,-257.2682C610.09,-250.7044 451.0037,-236.0317 317.5,-210 238.1388,-194.5255 147.5167,-167.3862 99.7155,-151.3654"/>
<polygon fill="#191970" stroke="#191970" points="100.7791,-148.0303 90.1847,-148.1237 98.525,-154.6575 100.7791,-148.0303"/>
</g>
<!-- Node11 -->
<g id="node12" class="node">
<title>Node11</title>
<g id="a_node12"><a xlink:href="hard_8h.html" target="_top" xlink:title="Functions and data structures for handling of secondary structure hard constraints. ">
<polygon fill="none" stroke="#000000" points="288,-123.5 288,-153.5 407,-153.5 407,-123.5 288,-123.5"/>
<text text-anchor="start" x="296" y="-141.5" font-family="Helvetica,sans-Serif" font-size="10.00" fill="#000000">ViennaRNA/constraints</text>
<text text-anchor="middle" x="347.5" y="-130.5" font-family="Helvetica,sans-Serif" font-size="10.00" fill="#000000">/hard.h</text>
</a>
</g>
</g>
<!-- Node3&#45;&gt;Node11 -->
<g id="edge33" class="edge">
<title>Node3&#45;&gt;Node11</title>
<path fill="none" stroke="#191970" d="M698.4576,-256.8469C610.256,-249.6101 461.0348,-233.9505 412.5,-210 389.9267,-198.8607 369.784,-178.3225 357.7357,-162.1067"/>
<polygon fill="#191970" stroke="#191970" points="360.4588,-159.8894 351.9109,-153.6297 354.6895,-163.8537 360.4588,-159.8894"/>
</g>
<!-- Node13 -->
<g id="node14" class="node">
<title>Node13</title>
<g id="a_node14"><a xlink:href="soft_8h.html" target="_top" xlink:title="Functions and data structures for secondary structure soft constraints. ">
<polygon fill="none" stroke="#000000" points="151,-123.5 151,-153.5 270,-153.5 270,-123.5 151,-123.5"/>
<text text-anchor="start" x="159" y="-141.5" font-family="Helvetica,sans-Serif" font-size="10.00" fill="#000000">ViennaRNA/constraints</text>
<text text-anchor="middle" x="210.5" y="-130.5" font-family="Helvetica,sans-Serif" font-size="10.00" fill="#000000">/soft.h</text>
</a>
</g>
</g>
<!-- Node3&#45;&gt;Node13 -->
<g id="edge34" class="edge">
<title>Node3&#45;&gt;Node13</title>
<path fill="none" stroke="#191970" d="M698.2122,-257.6697C620.6022,-251.9281 490.0151,-238.5532 381.5,-210 332.1586,-197.017 278.0723,-174.3058 244.0738,-157.9596"/>
<polygon fill="#191970" stroke="#191970" points="245.5578,-154.7891 235.0379,-153.5312 242.4772,-161.0749 245.5578,-154.7891"/>
</g>
<!-- Node14 -->
<g id="node15" class="node">
<title>Node14</title>
<g id="a_node15"><a xlink:href="grammar_8h.html" target="_top" xlink:title="Implementations for the RNA folding grammar. ">
<polygon fill="none" stroke="#000000" points="641.5,-129 641.5,-148 759.5,-148 759.5,-129 641.5,-129"/>
<text text-anchor="middle" x="700.5" y="-136" font-family="Helvetica,sans-Serif" font-size="10.00" fill="#000000">ViennaRNA/grammar.h</text>
</a>
</g>
</g>
<!-- Node3&#45;&gt;Node14 -->
<g id="edge35" class="edge">
<title>Node3&#45;&gt;Node14</title>
<path fill="none" stroke="#191970" d="M752.9155,-246.4178C738.4118,-224.0657 716.1168,-182.1559 705.5685,-157.6602"/>
<polygon fill="#191970" stroke="#191970" points="708.6868,-156.032 701.7207,-148.0493 702.1883,-158.6338 708.6868,-156.032"/>
</g>
<!-- Node15 -->
<g id="node16" class="node">
<title>Node15</title>
<g id="a_node16"><a xlink:href="structured__domains_8h.html" target="_top" xlink:title="This module provides interfaces that deal with additional structured domains in the folding grammar...">
<polygon fill="none" stroke="#000000" points="778,-123.5 778,-153.5 893,-153.5 893,-123.5 778,-123.5"/>
<text text-anchor="start" x="786" y="-141.5" font-family="Helvetica,sans-Serif" font-size="10.00" fill="#000000">ViennaRNA/structured</text>
<text text-anchor="middle" x="835.5" y="-130.5" font-family="Helvetica,sans-Serif" font-size="10.00" fill="#000000">_domains.h</text>
</a>
</g>
</g>
<!-- Node3&#45;&gt;Node15 -->
<g id="edge36" class="edge">
<title>Node3&#45;&gt;Node15</title>
<path fill="none" stroke="#191970" d="M774.0834,-246.4178C785.9963,-225.485 807.6711,-187.3994 821.8257,-162.5276"/>
<polygon fill="#191970" stroke="#191970" points="824.9421,-164.1279 826.8464,-153.7056 818.8583,-160.6655 824.9421,-164.1279"/>
</g>
<!-- Node16 -->
<g id="node17" class="node">
<title>Node16</title>
<g id="a_node17"><a xlink:href="unstructured__domains_8h.html" target="_top" xlink:title="Functions to modify unstructured domains, e.g. to incorporate ligands binding to unpaired stretches...">
<polygon fill="none" stroke="#000000" points="1144,-123.5 1144,-153.5 1269,-153.5 1269,-123.5 1144,-123.5"/>
<text text-anchor="start" x="1152" y="-141.5" font-family="Helvetica,sans-Serif" font-size="10.00" fill="#000000">ViennaRNA/unstructured</text>
<text text-anchor="middle" x="1206.5" y="-130.5" font-family="Helvetica,sans-Serif" font-size="10.00" fill="#000000">_domains.h</text>
</a>
</g>
</g>
<!-- Node3&#45;&gt;Node16 -->
<g id="edge37" class="edge">
<title>Node3&#45;&gt;Node16</title>
<path fill="none" stroke="#191970" d="M832.7717,-256.319C921.0874,-248.9992 1070.5123,-233.8065 1120.5,-210 1144.1373,-198.7429 1165.4717,-177.6363 1181.2422,-161.2615"/>
<polygon fill="#191970" stroke="#191970" points="1184.1291,-163.3078 1188.5229,-153.667 1179.076,-158.4636 1184.1291,-163.3078"/>
</g>
<!-- Node17 -->
<g id="node18" class="node">
<title>Node17</title>
<g id="a_node18"><a xlink:href="utils_2structures_8h.html" target="_top" xlink:title="Various utility&#45; and helper&#45;functions for secondary structure parsing, converting, etc. ">
<polygon fill="none" stroke="#000000" points="1199.5,-62 1199.5,-81 1343.5,-81 1343.5,-62 1199.5,-62"/>
<text text-anchor="middle" x="1271.5" y="-69" font-family="Helvetica,sans-Serif" font-size="10.00" fill="#000000">ViennaRNA/utils/structures.h</text>
</a>
</g>
</g>
<!-- Node3&#45;&gt;Node17 -->
<g id="edge38" class="edge">
<title>Node3&#45;&gt;Node17</title>
<path fill="none" stroke="#191970" d="M832.6827,-255.0629C928.1749,-245.8909 1097.9099,-228.1522 1157.5,-210 1210.738,-193.7827 1240.2414,-201.3415 1269.5,-154 1281.2654,-134.9632 1276.1315,-108.5683 1272.3259,-90.8057"/>
<polygon fill="#191970" stroke="#191970" points="1275.7509,-90.0843 1270.291,-81.0046 1268.897,-91.5073 1275.7509,-90.0843"/>
</g>
<!-- Node5 -->
<g id="node6" class="node">
<title>Node5</title>
<polygon fill="none" stroke="#bfbfbf" points="1072.5,-.5 1072.5,-19.5 1120.5,-19.5 1120.5,-.5 1072.5,-.5"/>
<text text-anchor="middle" x="1096.5" y="-7.5" font-family="Helvetica,sans-Serif" font-size="10.00" fill="#000000">limits.h</text>
</g>
<!-- Node4&#45;&gt;Node5 -->
<g id="edge5" class="edge">
<title>Node4&#45;&gt;Node5</title>
<path fill="none" stroke="#191970" d="M1096.5,-61.8906C1096.5,-53.3657 1096.5,-40.6392 1096.5,-29.9235"/>
<polygon fill="#191970" stroke="#191970" points="1100.0001,-29.7448 1096.5,-19.7449 1093.0001,-29.7449 1100.0001,-29.7448"/>
</g>
<!-- Node6&#45;&gt;Node7 -->
<g id="edge7" class="edge">
<title>Node6&#45;&gt;Node7</title>
<path fill="none" stroke="#191970" d="M618.8249,-190.4358C616.578,-174.1847 614.7112,-141.18 632.5,-123 663.0951,-91.7321 782.6228,-79.2409 858.0465,-74.4044"/>
<polygon fill="#191970" stroke="#191970" points="858.6151,-77.8763 868.3825,-73.7716 858.1873,-70.8893 858.6151,-77.8763"/>
</g>
<!-- Node6&#45;&gt;Node8 -->
<g id="edge8" class="edge">
<title>Node6&#45;&gt;Node8</title>
<path fill="none" stroke="#191970" d="M682.2508,-190.4581C753.8195,-179.3991 871.5658,-161.2047 947.0308,-149.5436"/>
<polygon fill="#191970" stroke="#191970" points="947.5836,-152.9998 956.9318,-148.0137 946.5146,-146.0819 947.5836,-152.9998"/>
</g>
<!-- Node9 -->
<g id="node10" class="node">
<title>Node9</title>
<g id="a_node10"><a xlink:href="sequence_8h.html" target="_top" xlink:title="Functions and data structures related to sequence representations ,. ">
<polygon fill="none" stroke="#000000" points="463.5,-129 463.5,-148 585.5,-148 585.5,-129 463.5,-129"/>
<text text-anchor="middle" x="524.5" y="-136" font-family="Helvetica,sans-Serif" font-size="10.00" fill="#000000">ViennaRNA/sequence.h</text>
</a>
</g>
</g>
<!-- Node6&#45;&gt;Node9 -->
<g id="edge12" class="edge">
<title>Node6&#45;&gt;Node9</title>
<path fill="none" stroke="#191970" d="M605.5,-190.3906C590.1419,-180.5519 566.0479,-165.1167 548.1255,-153.6351"/>
<polygon fill="#191970" stroke="#191970" points="549.703,-150.4891 539.3947,-148.0419 545.927,-156.3833 549.703,-150.4891"/>
</g>
<!-- Node6&#45;&gt;Node10 -->
<g id="edge13" class="edge">
<title>Node6&#45;&gt;Node10</title>
<path fill="none" stroke="#191970" d="M547.1627,-195.4298C452.9183,-188.9908 284.4103,-175.565 141.5,-154 134.0955,-152.8827 126.3189,-151.5068 118.6924,-150.0401"/>
<polygon fill="#191970" stroke="#191970" points="119.2873,-146.59 108.7969,-148.0739 117.9231,-153.4558 119.2873,-146.59"/>
</g>
<!-- Node6&#45;&gt;Node11 -->
<g id="edge15" class="edge">
<title>Node6&#45;&gt;Node11</title>
<path fill="none" stroke="#191970" d="M578.1433,-190.4581C535.1789,-180.7793 467.9527,-165.6349 417.1408,-154.1883"/>
<polygon fill="#191970" stroke="#191970" points="417.7341,-150.7343 407.2093,-151.951 416.1956,-157.5632 417.7341,-150.7343"/>
</g>
<!-- Node6&#45;&gt;Node13 -->
<g id="edge19" class="edge">
<title>Node6&#45;&gt;Node13</title>
<path fill="none" stroke="#191970" d="M547.4805,-192.1162C480.3382,-184.4251 377.8439,-171.5735 280.1846,-154.2194"/>
<polygon fill="#191970" stroke="#191970" points="280.6027,-150.7386 270.1415,-152.4155 279.3652,-157.6283 280.6027,-150.7386"/>
</g>
<!-- Node6&#45;&gt;Node14 -->
<g id="edge22" class="edge">
<title>Node6&#45;&gt;Node14</title>
<path fill="none" stroke="#191970" d="M633,-190.3906C645.5636,-180.7324 665.1423,-165.6812 679.9849,-154.271"/>
<polygon fill="#191970" stroke="#191970" points="682.2928,-156.9115 688.0878,-148.0419 678.0265,-151.3618 682.2928,-156.9115"/>
</g>
<!-- Node6&#45;&gt;Node15 -->
<g id="edge24" class="edge">
<title>Node6&#45;&gt;Node15</title>
<path fill="none" stroke="#191970" d="M654.0938,-190.3906C685.8856,-181.2967 734.3923,-167.4215 773.2499,-156.3064"/>
<polygon fill="#191970" stroke="#191970" points="774.2533,-159.6599 782.9051,-153.5446 772.3281,-152.9298 774.2533,-159.6599"/>
</g>
<!-- Node6&#45;&gt;Node16 -->
<g id="edge25" class="edge">
<title>Node6&#45;&gt;Node16</title>
<path fill="none" stroke="#191970" d="M693.5898,-193.9343C787.117,-185.9435 954.0764,-170.908 1096.5,-154 1108.4696,-152.579 1121.1512,-150.928 1133.4837,-149.244"/>
<polygon fill="#191970" stroke="#191970" points="1134.3113,-152.6629 1143.7376,-147.8259 1133.3523,-145.7289 1134.3113,-152.6629"/>
</g>
<!-- Node8&#45;&gt;Node3 -->
<g id="edge10" class="edge">
<title>Node8&#45;&gt;Node3</title>
<path fill="none" stroke="#191970" d="M1015.4324,-148.2854C1004.6281,-163.5802 975.167,-193.1418 944.5,-210 913.2742,-227.1654 875.6036,-239.3271 842.8398,-247.505"/>
<polygon fill="#191970" stroke="#191970" points="841.7425,-244.1692 832.8418,-249.9162 843.3837,-250.9741 841.7425,-244.1692"/>
</g>
<!-- Node8&#45;&gt;Node4 -->
<g id="edge9" class="edge">
<title>Node8&#45;&gt;Node4</title>
<path fill="none" stroke="#191970" d="M1029.6755,-128.9005C1042.1864,-118.1539 1062.6686,-100.5603 1077.6642,-87.6794"/>
<polygon fill="#191970" stroke="#191970" points="1080.0401,-90.2526 1085.3452,-81.0817 1075.4789,-84.9426 1080.0401,-90.2526"/>
</g>
<!-- Node8&#45;&gt;Node7 -->
<g id="edge11" class="edge">
<title>Node8&#45;&gt;Node7</title>
<path fill="none" stroke="#191970" d="M1004.6023,-128.9005C988.6836,-117.9052 962.3879,-99.7422 943.6401,-86.7927"/>
<polygon fill="#191970" stroke="#191970" points="945.5892,-83.8852 935.372,-81.0817 941.6108,-89.6448 945.5892,-83.8852"/>
</g>
<!-- Node10&#45;&gt;Node3 -->
<g id="edge14" class="edge">
<title>Node10&#45;&gt;Node3</title>
<path fill="none" stroke="#191970" d="M101.3916,-148.1237C152.5678,-163.4663 250.4939,-193.4248 335.5,-210 457.9419,-233.8748 601.9026,-248.1949 688.3743,-255.4677"/>
<polygon fill="#191970" stroke="#191970" points="688.1147,-258.9581 698.3703,-256.2986 688.6946,-251.9822 688.1147,-258.9581"/>
</g>
<!-- Node11&#45;&gt;Node3 -->
<g id="edge16" class="edge">
<title>Node11&#45;&gt;Node3</title>
<path fill="none" stroke="#191970" d="M364.914,-153.6297C380.4071,-170.3934 403.7465,-196.7979 430.5,-210 474.9273,-231.9236 603.7199,-246.9001 688.1116,-254.8286"/>
<polygon fill="#191970" stroke="#191970" points="687.8943,-258.3234 698.1745,-255.7606 688.5399,-251.3532 687.8943,-258.3234"/>
</g>
<!-- Node12 -->
<g id="node13" class="node">
<title>Node12</title>
<g id="a_node13"><a xlink:href="constraints_2basic_8h.html" target="_top" xlink:title="Functions and data structures for constraining secondary structure predictions and evaluation...">
<polygon fill="none" stroke="#000000" points="288,-56.5 288,-86.5 407,-86.5 407,-56.5 288,-56.5"/>
<text text-anchor="start" x="296" y="-74.5" font-family="Helvetica,sans-Serif" font-size="10.00" fill="#000000">ViennaRNA/constraints</text>
<text text-anchor="middle" x="347.5" y="-63.5" font-family="Helvetica,sans-Serif" font-size="10.00" fill="#000000">/basic.h</text>
</a>
</g>
</g>
<!-- Node11&#45;&gt;Node12 -->
<g id="edge17" class="edge">
<title>Node11&#45;&gt;Node12</title>
<path fill="none" stroke="#191970" d="M347.5,-123.2967C347.5,-115.5013 347.5,-105.7991 347.5,-96.9064"/>
<polygon fill="#191970" stroke="#191970" points="351.0001,-96.6431 347.5,-86.6432 344.0001,-96.6432 351.0001,-96.6431"/>
</g>
<!-- Node12&#45;&gt;Node3 -->
<g id="edge18" class="edge">
<title>Node12&#45;&gt;Node3</title>
<path fill="none" stroke="#191970" d="M367.8277,-86.7003C381.391,-96.8901 399.5879,-110.6531 415.5,-123 432.9935,-136.5739 436.606,-140.9586 454.5,-154 490.7606,-180.4273 497.2704,-192.2981 538.5,-210 586.3135,-230.5287 643.4564,-243.4352 688.4477,-251.1937"/>
<polygon fill="#191970" stroke="#191970" points="687.9972,-254.6669 698.438,-252.8667 689.1535,-247.763 687.9972,-254.6669"/>
</g>
<!-- Node13&#45;&gt;Node3 -->
<g id="edge20" class="edge">
<title>Node13&#45;&gt;Node3</title>
<path fill="none" stroke="#191970" d="M248.1302,-153.5312C285.8603,-169.9494 345.5197,-195.7963 399.5,-210 497.3742,-235.7533 613.2038,-249.1591 688.0046,-255.7533"/>
<polygon fill="#191970" stroke="#191970" points="688.0172,-259.2673 698.2809,-256.6391 688.6184,-252.2932 688.0172,-259.2673"/>
</g>
<!-- Node13&#45;&gt;Node12 -->
<g id="edge21" class="edge">
<title>Node13&#45;&gt;Node12</title>
<path fill="none" stroke="#191970" d="M241.2455,-123.4639C260.7624,-113.9191 286.2257,-101.4663 307.3325,-91.144"/>
<polygon fill="#191970" stroke="#191970" points="308.9375,-94.2552 316.3831,-86.7177 305.8622,-87.9669 308.9375,-94.2552"/>
</g>
<!-- Node14&#45;&gt;Node3 -->
<g id="edge23" class="edge">
<title>Node14&#45;&gt;Node3</title>
<path fill="none" stroke="#191970" d="M709.372,-148.0493C722.6052,-166.9969 745.8211,-209.8676 758.138,-237.1463"/>
<polygon fill="#191970" stroke="#191970" points="754.9646,-238.6263 762.144,-246.4178 761.3905,-235.8498 754.9646,-238.6263"/>
</g>
<!-- Node16&#45;&gt;Node3 -->
<g id="edge26" class="edge">
<title>Node16&#45;&gt;Node3</title>
<path fill="none" stroke="#191970" d="M1201.526,-153.667C1190.3922,-170.465 1166.0052,-196.9008 1138.5,-210 1088.0458,-234.0286 936.2899,-249.282 842.5535,-256.5218"/>
<polygon fill="#191970" stroke="#191970" points="842.2522,-253.0345 832.5458,-257.2813 842.782,-260.0145 842.2522,-253.0345"/>
</g>
<!-- Node16&#45;&gt;Node17 -->
<g id="edge27" class="edge">
<title>Node16&#45;&gt;Node17</title>
<path fill="none" stroke="#191970" d="M1221.2495,-123.2967C1231.3768,-112.8578 1244.8212,-98.9997 1255.2552,-88.2446"/>
<polygon fill="#191970" stroke="#191970" points="1257.7792,-90.6695 1262.2303,-81.055 1252.755,-85.7953 1257.7792,-90.6695"/>
</g>
<!-- Node17&#45;&gt;Node2 -->
<g id="edge28" class="edge">
<title>Node17&#45;&gt;Node2</title>
<path fill="none" stroke="#191970" d="M1279.3125,-61.8906C1286.754,-52.7376 1298.1334,-38.7409 1307.1992,-27.59"/>
<polygon fill="#191970" stroke="#191970" points="1309.9847,-29.712 1313.5774,-19.7449 1304.5533,-25.2962 1309.9847,-29.712"/>
</g>
<!-- Node17&#45;&gt;Node3 -->
<g id="edge29" class="edge">
<title>Node17&#45;&gt;Node3</title>
<path fill="none" stroke="#191970" d="M1281.1621,-81.0046C1291.2725,-97.2949 1301.7073,-131.0122 1287.5,-154 1258.2414,-201.3415 1228.738,-193.7827 1175.5,-210 1115.5354,-228.2663 944.0367,-246.1139 842.777,-255.2348"/>
<polygon fill="#191970" stroke="#191970" points="842.2493,-251.7679 832.6001,-256.1433 842.8718,-258.7402 842.2493,-251.7679"/>
</g>
</g>
</svg>
        <g id="navigator" transform="translate(0 0)" fill="#404254">
                <rect fill="#f2f5e9" fill-opacity="0.5" stroke="#606060" stroke-width=".5" x="0" y="0" width="60" height="60"/>
                <use id="zoomplus" xlink:href="#zoomPlus" x="17" y="9" onmousedown="handleZoom(evt,'in')"/>
                <use id="zoomminus" xlink:href="#zoomMin" x="42" y="9" onmousedown="handleZoom(evt,'out')"/>
                <use id="reset" xlink:href="#resetDef" x="30" y="36" onmousedown="handleReset()"/>
                <g id="arrowUp" xlink:href="#dirArrow" transform="translate(30 24)" onmousedown="handlePan(0,-1)">
                  <use xlink:href="#rim" fill="#404040">
                        <set attributeName="fill" to="#808080" begin="arrowUp.mouseover" end="arrowUp.mouseout"/>
                  </use>
                  <path fill="none" stroke="white" stroke-width="1.5" d="M0,-3.0v7 M-2.5,-0.5L0,-3.0L2.5,-0.5"/>
                </g>
                <g id="arrowRight" xlink:href="#dirArrow" transform="rotate(90) translate(36 -43)" onmousedown="handlePan(1,0)">
                  <use xlink:href="#rim" fill="#404040">
                        <set attributeName="fill" to="#808080" begin="arrowRight.mouseover" end="arrowRight.mouseout"/>
                  </use>
                  <path fill="none" stroke="white" stroke-width="1.5" d="M0,-3.0v7 M-2.5,-0.5L0,-3.0L2.5,-0.5"/>
                </g>
                <g id="arrowDown" xlink:href="#dirArrow" transform="rotate(180) translate(-30 -48)" onmousedown="handlePan(0,1)">
                  <use xlink:href="#rim" fill="#404040">
                        <set attributeName="fill" to="#808080" begin="arrowDown.mouseover" end="arrowDown.mouseout"/>
                  </use>
                  <path fill="none" stroke="white" stroke-width="1.5" d="M0,-3.0v7 M-2.5,-0.5L0,-3.0L2.5,-0.5"/>
                </g>
                <g id="arrowLeft" xlink:href="#dirArrow" transform="rotate(270) translate(-36 17)" onmousedown="handlePan(-1,0)">
                  <use xlink:href="#rim" fill="#404040">
                        <set attributeName="fill" to="#808080" begin="arrowLeft.mouseover" end="arrowLeft.mouseout"/>
                  </use>
                  <path fill="none" stroke="white" stroke-width="1.5" d="M0,-3.0v7 M-2.5,-0.5L0,-3.0L2.5,-0.5"/>
                </g>
        </g>
        <svg viewBox="0 0 15 15" width="100%" height="30px" preserveAspectRatio="xMaxYMin meet">
         <g id="arrow_out" transform="scale(0.3 0.3)">
          <a xlink:href="Lfold_8h__incl_org.svg" target="_base">
           <rect id="button" ry="5" rx="5" y="6" x="6" height="38" width="38"
                fill="#f2f5e9" fill-opacity="0.5" stroke="#606060" stroke-width="1.0"/>
           <path id="arrow"
             d="M 11.500037,31.436501 C 11.940474,20.09759 22.043105,11.32322 32.158766,21.979434 L 37.068811,17.246167 C 37.068811,17.246167 37.088388,32 37.088388,32 L 22.160133,31.978069 C 22.160133,31.978069 26.997745,27.140456 26.997745,27.140456 C 18.528582,18.264221 13.291696,25.230495 11.500037,31.436501 z"
             style="fill:#404040;"/>
          </a>
         </g>
        </svg>
</svg>
