<?xml version="1.0" encoding="UTF-8" standalone="no"?>
<!DOCTYPE svg PUBLIC "-//W3C//DTD SVG 1.1//EN"
 "http://www.w3.org/Graphics/SVG/1.1/DTD/svg11.dtd">
<!-- Generated by graphviz version 2.40.1 (20161225.0304)
 -->
<!-- Title: ViennaRNA/LPfold.h Pages: 1 -->
<!--zoomable 408 -->
<svg id="main" version="1.1" xmlns="http://www.w3.org/2000/svg" xmlns:xlink="http://www.w3.org/1999/xlink" xml:space="preserve" onload="init(evt)">
<style type="text/css"><![CDATA[
.edge:hover path { stroke: red; }
.edge:hover polygon { stroke: red; fill: red; }
]]></style>
<script type="text/javascript"><![CDATA[
var edges = document.getElementsByTagName('g');
if (edges && edges.length) {
  for (var i=0;i<edges.length;i++) {
    if (edges[i].id.substr(0,4)=='edge') {
      edges[i].setAttribute('class','edge');
    }
  }
}
]]></script>
        <defs>
                <circle id="rim" cx="0" cy="0" r="7"/>
                <circle id="rim2" cx="0" cy="0" r="3.5"/>
                <g id="zoomPlus">
                        <use xlink:href="#rim" fill="#404040">
                                <set attributeName="fill" to="#808080" begin="zoomplus.mouseover" end="zoomplus.mouseout"/>
                        </use>
                        <path d="M-4,0h8M0,-4v8" fill="none" stroke="white" stroke-width="1.5" pointer-events="none"/>
                </g>
                <g id="zoomMin">
                        <use xlink:href="#rim" fill="#404040">
                                <set attributeName="fill" to="#808080" begin="zoomminus.mouseover" end="zoomminus.mouseout"/>
                        </use>
                        <path d="M-4,0h8" fill="none" stroke="white" stroke-width="1.5" pointer-events="none"/>
                </g>
                <g id="dirArrow">
                        <path fill="none" stroke="white" stroke-width="1.5" d="M0,-3.0v7 M-2.5,-0.5L0,-3.0L2.5,-0.5"/>
                </g>
               <g id="resetDef">
                       <use xlink:href="#rim2" fill="#404040">
                               <set attributeName="fill" to="#808080" begin="reset.mouseover" end="reset.mouseout"/>
                       </use>
               </g>
        </defs>

<script type="text/javascript">
var viewWidth = 1396;
var viewHeight = 408;
var sectionId = 'dynsection-0';
</script>
<script xlink:href="svgpan.js"/>
<svg id="graph" class="graph">
<g id="viewport">
<title>ViennaRNA/LPfold.h</title>
<!-- Node0 -->
<g id="node1" class="node">
<title>Node0</title>
<polygon fill="#bfbfbf" stroke="#000000" points="213.5,-380.5 213.5,-399.5 320.5,-399.5 320.5,-380.5 213.5,-380.5"/>
<text text-anchor="middle" x="267" y="-387.5" font-family="Helvetica,sans-Serif" font-size="10.00" fill="#000000">ViennaRNA/LPfold.h</text>
</g>
<!-- Node1 -->
<g id="node2" class="node">
<title>Node1</title>
<g id="a_node2"><a xlink:href="datastructures_2basic_8h.html" target="_top" xlink:title="Various data structures and pre&#45;processor macros. ">
<polygon fill="none" stroke="#000000" points="424,-246.5 424,-276.5 558,-276.5 558,-246.5 424,-246.5"/>
<text text-anchor="start" x="432" y="-264.5" font-family="Helvetica,sans-Serif" font-size="10.00" fill="#000000">ViennaRNA/datastructures</text>
<text text-anchor="middle" x="491" y="-253.5" font-family="Helvetica,sans-Serif" font-size="10.00" fill="#000000">/basic.h</text>
</a>
</g>
</g>
<!-- Node0&#45;&gt;Node1 -->
<g id="edge1" class="edge">
<title>Node0&#45;&gt;Node1</title>
<path fill="none" stroke="#191970" d="M283.8364,-380.3416C320.2343,-359.4616 406.9033,-309.743 455.8257,-281.6781"/>
<polygon fill="#191970" stroke="#191970" points="457.5682,-284.7136 464.5007,-276.7016 454.085,-278.6417 457.5682,-284.7136"/>
</g>
<!-- Node6 -->
<g id="node7" class="node">
<title>Node6</title>
<g id="a_node7"><a xlink:href="params_2basic_8h.html" target="_top" xlink:title="Functions to deal with sets of energy parameters. ">
<polygon fill="none" stroke="#000000" points="10,-129 10,-148 148,-148 148,-129 10,-129"/>
<text text-anchor="middle" x="79" y="-136" font-family="Helvetica,sans-Serif" font-size="10.00" fill="#000000">ViennaRNA/params/basic.h</text>
</a>
</g>
</g>
<!-- Node0&#45;&gt;Node6 -->
<g id="edge37" class="edge">
<title>Node0&#45;&gt;Node6</title>
<path fill="none" stroke="#191970" d="M250.3227,-380.4289C236.4339,-371.961 216.6329,-358.6937 202,-344 150.6662,-292.4531 142.7829,-273.8937 108,-210 98.7232,-192.9591 90.6603,-172.3126 85.4074,-157.5958"/>
<polygon fill="#191970" stroke="#191970" points="88.6853,-156.3653 82.102,-148.064 82.0716,-158.6588 88.6853,-156.3653"/>
</g>
<!-- Node17 -->
<g id="node18" class="node">
<title>Node17</title>
<g id="a_node18"><a xlink:href="part__func__window_8h.html" target="_top" xlink:title="Partition function and equilibrium probability implementation for the sliding window algorithm...">
<polygon fill="none" stroke="#000000" points="211,-313.5 211,-343.5 323,-343.5 323,-313.5 211,-313.5"/>
<text text-anchor="start" x="219" y="-331.5" font-family="Helvetica,sans-Serif" font-size="10.00" fill="#000000">ViennaRNA/part_func</text>
<text text-anchor="middle" x="267" y="-320.5" font-family="Helvetica,sans-Serif" font-size="10.00" fill="#000000">_window.h</text>
</a>
</g>
</g>
<!-- Node0&#45;&gt;Node17 -->
<g id="edge38" class="edge">
<title>Node0&#45;&gt;Node17</title>
<path fill="none" stroke="#191970" d="M267,-380.3906C267,-373.2234 267,-363.0862 267,-353.671"/>
<polygon fill="#191970" stroke="#191970" points="270.5001,-353.5446 267,-343.5446 263.5001,-353.5446 270.5001,-353.5446"/>
</g>
<!-- Node2 -->
<g id="node3" class="node">
<title>Node2</title>
<g id="a_node3"><a xlink:href="constants_8h.html" target="_top" xlink:title="Energy parameter constants. ">
<polygon fill="none" stroke="#000000" points="0,-62 0,-81 158,-81 158,-62 0,-62"/>
<text text-anchor="middle" x="79" y="-69" font-family="Helvetica,sans-Serif" font-size="10.00" fill="#000000">ViennaRNA/params/constants.h</text>
</a>
</g>
</g>
<!-- Node1&#45;&gt;Node2 -->
<g id="edge2" class="edge">
<title>Node1&#45;&gt;Node2</title>
<path fill="none" stroke="#191970" d="M423.9066,-254.1468C377.748,-247.2032 315.9919,-234.1067 266,-210 210.1686,-183.0774 207.1361,-159.4465 157,-123 139.335,-110.1584 118.6857,-96.5852 103.0722,-86.5988"/>
<polygon fill="#191970" stroke="#191970" points="104.8393,-83.5748 94.5219,-81.1661 101.0853,-89.4831 104.8393,-83.5748"/>
</g>
<!-- Node4 -->
<g id="node5" class="node">
<title>Node4</title>
<g id="a_node5"><a xlink:href="fold__compound_8h.html" target="_top" xlink:title="The Basic Fold Compound API. ">
<polygon fill="none" stroke="#000000" points="561,-190.5 561,-209.5 707,-209.5 707,-190.5 561,-190.5"/>
<text text-anchor="middle" x="634" y="-197.5" font-family="Helvetica,sans-Serif" font-size="10.00" fill="#000000">ViennaRNA/fold_compound.h</text>
</a>
</g>
</g>
<!-- Node1&#45;&gt;Node4 -->
<g id="edge4" class="edge">
<title>Node1&#45;&gt;Node4</title>
<path fill="none" stroke="#191970" d="M525.9817,-246.4554C549.3184,-236.419 579.7498,-223.3314 602.363,-213.6061"/>
<polygon fill="#191970" stroke="#191970" points="604.0364,-216.6965 611.8401,-209.5303 601.2708,-210.2659 604.0364,-216.6965"/>
</g>
<!-- Node5 -->
<g id="node6" class="node">
<title>Node5</title>
<g id="a_node6"><a xlink:href="model_8h.html" target="_top" xlink:title="The model details data structure and its corresponding modifiers. ">
<polygon fill="none" stroke="#000000" points="176,-62 176,-81 282,-81 282,-62 176,-62"/>
<text text-anchor="middle" x="229" y="-69" font-family="Helvetica,sans-Serif" font-size="10.00" fill="#000000">ViennaRNA/model.h</text>
</a>
</g>
</g>
<!-- Node1&#45;&gt;Node5 -->
<g id="edge28" class="edge">
<title>Node1&#45;&gt;Node5</title>
<path fill="none" stroke="#191970" d="M423.9705,-253.5353C363.3098,-242.4325 277.0771,-216.0888 234,-154 221.2654,-135.6451 222.1707,-109.1027 224.8356,-91.1199"/>
<polygon fill="#191970" stroke="#191970" points="228.2982,-91.6393 226.616,-81.1789 221.4078,-90.4052 228.2982,-91.6393"/>
</g>
<!-- Node1&#45;&gt;Node6 -->
<g id="edge29" class="edge">
<title>Node1&#45;&gt;Node6</title>
<path fill="none" stroke="#191970" d="M423.945,-255.9839C339.3319,-247.9211 199.5046,-231.5077 153,-210 125.7632,-197.4034 100.5714,-173.1737 87.3572,-156.4357"/>
<polygon fill="#191970" stroke="#191970" points="89.9915,-154.1041 81.3114,-148.029 84.3085,-158.1911 89.9915,-154.1041"/>
</g>
<!-- Node8 -->
<g id="node9" class="node">
<title>Node8</title>
<g id="a_node9"><a xlink:href="dp__matrices_8h.html" target="_top" xlink:title="Functions to deal with standard dynamic programming (DP) matrices. ">
<polygon fill="none" stroke="#000000" points="242.5,-129 242.5,-148 375.5,-148 375.5,-129 242.5,-129"/>
<text text-anchor="middle" x="309" y="-136" font-family="Helvetica,sans-Serif" font-size="10.00" fill="#000000">ViennaRNA/dp_matrices.h</text>
</a>
</g>
</g>
<!-- Node1&#45;&gt;Node8 -->
<g id="edge30" class="edge">
<title>Node1&#45;&gt;Node8</title>
<path fill="none" stroke="#191970" d="M448.2481,-246.3779C427.0808,-237.0456 401.8308,-224.1706 381,-210 357.1839,-193.7986 332.7944,-171.3067 319.0315,-155.9007"/>
<polygon fill="#191970" stroke="#191970" points="321.652,-153.5784 312.55,-148.1558 316.2838,-158.0709 321.652,-153.5784"/>
</g>
<!-- Node9 -->
<g id="node10" class="node">
<title>Node9</title>
<g id="a_node10"><a xlink:href="hard_8h.html" target="_top" xlink:title="Functions and data structures for handling of secondary structure hard constraints. ">
<polygon fill="none" stroke="#000000" points="879.5,-123.5 879.5,-153.5 998.5,-153.5 998.5,-123.5 879.5,-123.5"/>
<text text-anchor="start" x="887.5" y="-141.5" font-family="Helvetica,sans-Serif" font-size="10.00" fill="#000000">ViennaRNA/constraints</text>
<text text-anchor="middle" x="939" y="-130.5" font-family="Helvetica,sans-Serif" font-size="10.00" fill="#000000">/hard.h</text>
</a>
</g>
</g>
<!-- Node1&#45;&gt;Node9 -->
<g id="edge31" class="edge">
<title>Node1&#45;&gt;Node9</title>
<path fill="none" stroke="#191970" d="M558.0246,-249.4708C607.6254,-240.497 676.4838,-226.8938 736,-210 788.1082,-195.209 846.1931,-173.0117 886.9462,-157.2789"/>
<polygon fill="#191970" stroke="#191970" points="888.3341,-160.4949 896.4014,-153.6268 885.8119,-153.965 888.3341,-160.4949"/>
</g>
<!-- Node11 -->
<g id="node12" class="node">
<title>Node11</title>
<g id="a_node12"><a xlink:href="soft_8h.html" target="_top" xlink:title="Functions and data structures for secondary structure soft constraints. ">
<polygon fill="none" stroke="#000000" points="1016.5,-123.5 1016.5,-153.5 1135.5,-153.5 1135.5,-123.5 1016.5,-123.5"/>
<text text-anchor="start" x="1024.5" y="-141.5" font-family="Helvetica,sans-Serif" font-size="10.00" fill="#000000">ViennaRNA/constraints</text>
<text text-anchor="middle" x="1076" y="-130.5" font-family="Helvetica,sans-Serif" font-size="10.00" fill="#000000">/soft.h</text>
</a>
</g>
</g>
<!-- Node1&#45;&gt;Node11 -->
<g id="edge32" class="edge">
<title>Node1&#45;&gt;Node11</title>
<path fill="none" stroke="#191970" d="M558.0013,-250.7978C618.3919,-241.4049 709.3423,-226.6671 788,-210 863.0269,-194.1022 948.3008,-171.5888 1006.5474,-156.0935"/>
<polygon fill="#191970" stroke="#191970" points="1007.6142,-159.4315 1016.3777,-153.4774 1005.8139,-152.667 1007.6142,-159.4315"/>
</g>
<!-- Node12 -->
<g id="node13" class="node">
<title>Node12</title>
<g id="a_node13"><a xlink:href="grammar_8h.html" target="_top" xlink:title="Implementations for the RNA folding grammar. ">
<polygon fill="none" stroke="#000000" points="432,-129 432,-148 550,-148 550,-129 432,-129"/>
<text text-anchor="middle" x="491" y="-136" font-family="Helvetica,sans-Serif" font-size="10.00" fill="#000000">ViennaRNA/grammar.h</text>
</a>
</g>
</g>
<!-- Node1&#45;&gt;Node12 -->
<g id="edge33" class="edge">
<title>Node1&#45;&gt;Node12</title>
<path fill="none" stroke="#191970" d="M486.3857,-246.4178C483.7062,-224.1659 483.548,-182.5314 485.9111,-157.9908"/>
<polygon fill="#191970" stroke="#191970" points="489.3858,-158.4107 487.1743,-148.0493 482.4417,-157.5283 489.3858,-158.4107"/>
</g>
<!-- Node13 -->
<g id="node14" class="node">
<title>Node13</title>
<g id="a_node14"><a xlink:href="structured__domains_8h.html" target="_top" xlink:title="This module provides interfaces that deal with additional structured domains in the folding grammar...">
<polygon fill="none" stroke="#000000" points="746.5,-123.5 746.5,-153.5 861.5,-153.5 861.5,-123.5 746.5,-123.5"/>
<text text-anchor="start" x="754.5" y="-141.5" font-family="Helvetica,sans-Serif" font-size="10.00" fill="#000000">ViennaRNA/structured</text>
<text text-anchor="middle" x="804" y="-130.5" font-family="Helvetica,sans-Serif" font-size="10.00" fill="#000000">_domains.h</text>
</a>
</g>
</g>
<!-- Node1&#45;&gt;Node13 -->
<g id="edge34" class="edge">
<title>Node1&#45;&gt;Node13</title>
<path fill="none" stroke="#191970" d="M558.1599,-254.284C604.3486,-247.4025 666.1134,-234.3239 716,-210 741.0892,-197.7669 765.3832,-177.1494 782.0655,-161.1887"/>
<polygon fill="#191970" stroke="#191970" points="784.9257,-163.2859 789.6137,-153.7847 780.0239,-158.2887 784.9257,-163.2859"/>
</g>
<!-- Node14 -->
<g id="node15" class="node">
<title>Node14</title>
<g id="a_node15"><a xlink:href="unstructured__domains_8h.html" target="_top" xlink:title="Functions to modify unstructured domains, e.g. to incorporate ligands binding to unpaired stretches...">
<polygon fill="none" stroke="#000000" points="1153.5,-123.5 1153.5,-153.5 1278.5,-153.5 1278.5,-123.5 1153.5,-123.5"/>
<text text-anchor="start" x="1161.5" y="-141.5" font-family="Helvetica,sans-Serif" font-size="10.00" fill="#000000">ViennaRNA/unstructured</text>
<text text-anchor="middle" x="1216" y="-130.5" font-family="Helvetica,sans-Serif" font-size="10.00" fill="#000000">_domains.h</text>
</a>
</g>
</g>
<!-- Node1&#45;&gt;Node14 -->
<g id="edge35" class="edge">
<title>Node1&#45;&gt;Node14</title>
<path fill="none" stroke="#191970" d="M558.2986,-252.4859C631.1263,-243.0608 750.3976,-227.2582 853,-210 979.4404,-188.7322 1010.4719,-180.1191 1136,-154 1138.345,-153.5121 1140.7326,-153.0113 1143.1474,-152.5022"/>
<polygon fill="#191970" stroke="#191970" points="1144.1302,-155.8717 1153.1873,-150.3745 1142.6789,-149.0238 1144.1302,-155.8717"/>
</g>
<!-- Node15 -->
<g id="node16" class="node">
<title>Node15</title>
<g id="a_node16"><a xlink:href="utils_2structures_8h.html" target="_top" xlink:title="Various utility&#45; and helper&#45;functions for secondary structure parsing, converting, etc. ">
<polygon fill="none" stroke="#000000" points="1244,-62 1244,-81 1388,-81 1388,-62 1244,-62"/>
<text text-anchor="middle" x="1316" y="-69" font-family="Helvetica,sans-Serif" font-size="10.00" fill="#000000">ViennaRNA/utils/structures.h</text>
</a>
</g>
</g>
<!-- Node1&#45;&gt;Node15 -->
<g id="edge36" class="edge">
<title>Node1&#45;&gt;Node15</title>
<path fill="none" stroke="#191970" d="M558.0903,-256.2393C738.5344,-241.9831 1223.9001,-200.5374 1279,-154 1297.4497,-138.4173 1303.7773,-110.1807 1308.1104,-91.1358"/>
<polygon fill="#191970" stroke="#191970" points="1311.5766,-91.6906 1310.5078,-81.1498 1304.77,-90.0565 1311.5766,-91.6906"/>
</g>
<!-- Node3 -->
<g id="node4" class="node">
<title>Node3</title>
<polygon fill="none" stroke="#bfbfbf" points="55,-.5 55,-19.5 103,-19.5 103,-.5 55,-.5"/>
<text text-anchor="middle" x="79" y="-7.5" font-family="Helvetica,sans-Serif" font-size="10.00" fill="#000000">limits.h</text>
</g>
<!-- Node2&#45;&gt;Node3 -->
<g id="edge3" class="edge">
<title>Node2&#45;&gt;Node3</title>
<path fill="none" stroke="#191970" d="M79,-61.8906C79,-53.3657 79,-40.6392 79,-29.9235"/>
<polygon fill="#191970" stroke="#191970" points="82.5001,-29.7448 79,-19.7449 75.5001,-29.7449 82.5001,-29.7448"/>
</g>
<!-- Node4&#45;&gt;Node5 -->
<g id="edge5" class="edge">
<title>Node4&#45;&gt;Node5</title>
<path fill="none" stroke="#191970" d="M626.008,-190.3898C610.2205,-171.6551 575.1665,-131.3484 559,-123 513.6221,-99.5667 374.4454,-83.9981 292.0407,-76.566"/>
<polygon fill="#191970" stroke="#191970" points="292.307,-73.0759 282.0368,-75.6785 291.6884,-80.0485 292.307,-73.0759"/>
</g>
<!-- Node4&#45;&gt;Node6 -->
<g id="edge6" class="edge">
<title>Node4&#45;&gt;Node6</title>
<path fill="none" stroke="#191970" d="M560.8727,-191.8967C456.6503,-180.3477 266.1224,-159.2352 158.5044,-147.3099"/>
<polygon fill="#191970" stroke="#191970" points="158.6789,-143.8079 148.3542,-146.1852 157.9079,-150.7654 158.6789,-143.8079"/>
</g>
<!-- Node7 -->
<g id="node8" class="node">
<title>Node7</title>
<g id="a_node8"><a xlink:href="sequence_8h.html" target="_top" xlink:title="Functions and data structures related to sequence representations ,. ">
<polygon fill="none" stroke="#000000" points="606,-129 606,-148 728,-148 728,-129 606,-129"/>
<text text-anchor="middle" x="667" y="-136" font-family="Helvetica,sans-Serif" font-size="10.00" fill="#000000">ViennaRNA/sequence.h</text>
</a>
</g>
</g>
<!-- Node4&#45;&gt;Node7 -->
<g id="edge10" class="edge">
<title>Node4&#45;&gt;Node7</title>
<path fill="none" stroke="#191970" d="M639.1563,-190.3906C643.9232,-181.5068 651.1385,-168.0601 657.0297,-157.0811"/>
<polygon fill="#191970" stroke="#191970" points="660.1269,-158.7114 661.7711,-148.2449 653.9588,-155.4016 660.1269,-158.7114"/>
</g>
<!-- Node4&#45;&gt;Node8 -->
<g id="edge11" class="edge">
<title>Node4&#45;&gt;Node8</title>
<path fill="none" stroke="#191970" d="M583.5753,-190.4581C525.73,-179.512 430.9423,-161.5752 369.2576,-149.9026"/>
<polygon fill="#191970" stroke="#191970" points="369.752,-146.4341 359.2755,-148.0137 368.4504,-153.312 369.752,-146.4341"/>
</g>
<!-- Node4&#45;&gt;Node9 -->
<g id="edge13" class="edge">
<title>Node4&#45;&gt;Node9</title>
<path fill="none" stroke="#191970" d="M685.8783,-190.4314C731.7054,-181.8659 800.6005,-168.7147 869.2032,-154.3468"/>
<polygon fill="#191970" stroke="#191970" points="870.2547,-157.7023 879.32,-152.2185 868.8136,-150.8522 870.2547,-157.7023"/>
</g>
<!-- Node4&#45;&gt;Node11 -->
<g id="edge17" class="edge">
<title>Node4&#45;&gt;Node11</title>
<path fill="none" stroke="#191970" d="M707.0716,-193.2334C780.481,-185.9317 897.0161,-172.9718 1006.4753,-154.1722"/>
<polygon fill="#191970" stroke="#191970" points="1007.112,-157.6141 1016.3654,-152.4541 1005.9139,-150.7174 1007.112,-157.6141"/>
</g>
<!-- Node4&#45;&gt;Node12 -->
<g id="edge20" class="edge">
<title>Node4&#45;&gt;Node12</title>
<path fill="none" stroke="#191970" d="M611.6563,-190.3906C587.7297,-180.1005 549.5691,-163.6888 522.5784,-152.0809"/>
<polygon fill="#191970" stroke="#191970" points="523.7561,-148.7775 513.1869,-148.0419 520.9905,-155.208 523.7561,-148.7775"/>
</g>
<!-- Node4&#45;&gt;Node13 -->
<g id="edge22" class="edge">
<title>Node4&#45;&gt;Node13</title>
<path fill="none" stroke="#191970" d="M660.5625,-190.3906C685.1677,-181.4893 722.4351,-168.0073 752.8161,-157.0165"/>
<polygon fill="#191970" stroke="#191970" points="754.2004,-160.2378 762.4133,-153.5446 751.8191,-153.6553 754.2004,-160.2378"/>
</g>
<!-- Node4&#45;&gt;Node14 -->
<g id="edge23" class="edge">
<title>Node4&#45;&gt;Node14</title>
<path fill="none" stroke="#191970" d="M707.1213,-196.3016C804.5856,-190.7294 982.558,-178.3157 1143.2876,-154.1535"/>
<polygon fill="#191970" stroke="#191970" points="1144.0003,-157.5854 1153.3597,-152.6204 1142.9468,-150.6651 1144.0003,-157.5854"/>
</g>
<!-- Node6&#45;&gt;Node1 -->
<g id="edge8" class="edge">
<title>Node6&#45;&gt;Node1</title>
<path fill="none" stroke="#191970" d="M92.2955,-148.029C109.3112,-163.8009 138.7194,-195.0707 171,-210 213.3957,-229.6074 333.3512,-244.9809 413.7993,-253.6534"/>
<polygon fill="#191970" stroke="#191970" points="413.581,-257.1498 423.8956,-254.7292 414.3228,-250.1892 413.581,-257.1498"/>
</g>
<!-- Node6&#45;&gt;Node2 -->
<g id="edge7" class="edge">
<title>Node6&#45;&gt;Node2</title>
<path fill="none" stroke="#191970" d="M79,-128.9005C79,-119.149 79,-103.7597 79,-91.3695"/>
<polygon fill="#191970" stroke="#191970" points="82.5001,-91.0816 79,-81.0817 75.5001,-91.0817 82.5001,-91.0816"/>
</g>
<!-- Node6&#45;&gt;Node5 -->
<g id="edge9" class="edge">
<title>Node6&#45;&gt;Node5</title>
<path fill="none" stroke="#191970" d="M100.4913,-128.9005C126.1103,-117.4574 169.1099,-98.2509 198.2447,-85.2374"/>
<polygon fill="#191970" stroke="#191970" points="199.8454,-88.3557 207.5485,-81.0817 196.9905,-81.9643 199.8454,-88.3557"/>
</g>
<!-- Node8&#45;&gt;Node1 -->
<g id="edge12" class="edge">
<title>Node8&#45;&gt;Node1</title>
<path fill="none" stroke="#191970" d="M324.082,-148.1558C341.7415,-162.7607 370.7735,-190.7984 399,-210 416.576,-221.9564 437.2981,-232.9905 454.7078,-241.7525"/>
<polygon fill="#191970" stroke="#191970" points="453.4863,-245.0541 463.9981,-246.3779 456.6062,-238.7878 453.4863,-245.0541"/>
</g>
<!-- Node9&#45;&gt;Node1 -->
<g id="edge14" class="edge">
<title>Node9&#45;&gt;Node1</title>
<path fill="none" stroke="#191970" d="M909.755,-153.6268C873.5447,-169.405 810.2856,-194.0232 754,-210 692.496,-227.458 621.0155,-241.402 568.0424,-250.3544"/>
<polygon fill="#191970" stroke="#191970" points="567.3264,-246.9254 558.0384,-252.0227 568.478,-253.83 567.3264,-246.9254"/>
</g>
<!-- Node10 -->
<g id="node11" class="node">
<title>Node10</title>
<g id="a_node11"><a xlink:href="constraints_2basic_8h.html" target="_top" xlink:title="Functions and data structures for constraining secondary structure predictions and evaluation...">
<polygon fill="none" stroke="#000000" points="879.5,-56.5 879.5,-86.5 998.5,-86.5 998.5,-56.5 879.5,-56.5"/>
<text text-anchor="start" x="887.5" y="-74.5" font-family="Helvetica,sans-Serif" font-size="10.00" fill="#000000">ViennaRNA/constraints</text>
<text text-anchor="middle" x="939" y="-63.5" font-family="Helvetica,sans-Serif" font-size="10.00" fill="#000000">/basic.h</text>
</a>
</g>
</g>
<!-- Node9&#45;&gt;Node10 -->
<g id="edge15" class="edge">
<title>Node9&#45;&gt;Node10</title>
<path fill="none" stroke="#191970" d="M939,-123.2967C939,-115.5013 939,-105.7991 939,-96.9064"/>
<polygon fill="#191970" stroke="#191970" points="942.5001,-96.6431 939,-86.6432 935.5001,-96.6432 942.5001,-96.6431"/>
</g>
<!-- Node10&#45;&gt;Node1 -->
<g id="edge16" class="edge">
<title>Node10&#45;&gt;Node1</title>
<path fill="none" stroke="#191970" d="M879.0948,-73.0538C749.6693,-77.0296 453.1325,-89.7104 423,-123 391.5138,-157.7852 434.9468,-209.8068 465.5187,-239.1942"/>
<polygon fill="#191970" stroke="#191970" points="463.2662,-241.8796 472.9607,-246.1536 468.0474,-236.7669 463.2662,-241.8796"/>
</g>
<!-- Node11&#45;&gt;Node1 -->
<g id="edge18" class="edge">
<title>Node11&#45;&gt;Node1</title>
<path fill="none" stroke="#191970" d="M1029.5471,-153.549C975.9216,-169.0364 885.245,-193.2084 806,-210 725.5837,-227.0398 632.3188,-242.0629 568.1854,-251.4198"/>
<polygon fill="#191970" stroke="#191970" points="567.5445,-247.976 558.149,-252.8723 568.5472,-254.9038 567.5445,-247.976"/>
</g>
<!-- Node11&#45;&gt;Node10 -->
<g id="edge19" class="edge">
<title>Node11&#45;&gt;Node10</title>
<path fill="none" stroke="#191970" d="M1045.2545,-123.4639C1025.7376,-113.9191 1000.2743,-101.4663 979.1675,-91.144"/>
<polygon fill="#191970" stroke="#191970" points="980.6378,-87.9669 970.1169,-86.7177 977.5625,-94.2552 980.6378,-87.9669"/>
</g>
<!-- Node12&#45;&gt;Node1 -->
<g id="edge21" class="edge">
<title>Node12&#45;&gt;Node1</title>
<path fill="none" stroke="#191970" d="M494.8257,-148.0493C498.0176,-166.8307 498.5965,-209.1173 496.5624,-236.4249"/>
<polygon fill="#191970" stroke="#191970" points="493.0746,-236.1319 495.6143,-246.4178 500.0433,-236.7931 493.0746,-236.1319"/>
</g>
<!-- Node14&#45;&gt;Node1 -->
<g id="edge24" class="edge">
<title>Node14&#45;&gt;Node1</title>
<path fill="none" stroke="#191970" d="M1156.2354,-153.5337C1155.4865,-153.6903 1154.7411,-153.8458 1154,-154 1028.4719,-180.1191 997.4404,-188.7322 871,-210 766.8226,-227.5231 645.4607,-243.5456 568.3778,-252.9154"/>
<polygon fill="#191970" stroke="#191970" points="567.7766,-249.4625 558.2686,-254.1367 568.6162,-256.4119 567.7766,-249.4625"/>
</g>
<!-- Node14&#45;&gt;Node15 -->
<g id="edge25" class="edge">
<title>Node14&#45;&gt;Node15</title>
<path fill="none" stroke="#191970" d="M1238.6915,-123.2967C1255.0283,-112.351 1276.9759,-97.6462 1293.3119,-86.701"/>
<polygon fill="#191970" stroke="#191970" points="1295.3793,-89.5289 1301.7388,-81.055 1291.483,-83.7135 1295.3793,-89.5289"/>
</g>
<!-- Node15&#45;&gt;Node1 -->
<g id="edge27" class="edge">
<title>Node15&#45;&gt;Node1</title>
<path fill="none" stroke="#191970" d="M1321.032,-81.1498C1323.7941,-98.6098 1319.0707,-135.3591 1297,-154 1242.0773,-200.3878 759.6514,-241.7165 568.4669,-256.1009"/>
<polygon fill="#191970" stroke="#191970" points="567.9256,-252.6315 558.2144,-256.8674 568.4476,-259.612 567.9256,-252.6315"/>
</g>
<!-- Node16 -->
<g id="node17" class="node">
<title>Node16</title>
<polygon fill="none" stroke="#bfbfbf" points="1293,-.5 1293,-19.5 1339,-19.5 1339,-.5 1293,-.5"/>
<text text-anchor="middle" x="1316" y="-7.5" font-family="Helvetica,sans-Serif" font-size="10.00" fill="#000000">stdio.h</text>
</g>
<!-- Node15&#45;&gt;Node16 -->
<g id="edge26" class="edge">
<title>Node15&#45;&gt;Node16</title>
<path fill="none" stroke="#191970" d="M1316,-61.8906C1316,-53.3657 1316,-40.6392 1316,-29.9235"/>
<polygon fill="#191970" stroke="#191970" points="1319.5001,-29.7448 1316,-19.7449 1312.5001,-29.7449 1319.5001,-29.7448"/>
</g>
<!-- Node17&#45;&gt;Node1 -->
<g id="edge39" class="edge">
<title>Node17&#45;&gt;Node1</title>
<path fill="none" stroke="#191970" d="M317.27,-313.4639C350.8728,-303.4131 395.2566,-290.1375 430.7515,-279.5208"/>
<polygon fill="#191970" stroke="#191970" points="431.9332,-282.8206 440.5108,-276.6017 429.9272,-276.1142 431.9332,-282.8206"/>
</g>
<!-- Node17&#45;&gt;Node6 -->
<g id="edge40" class="edge">
<title>Node17&#45;&gt;Node6</title>
<path fill="none" stroke="#191970" d="M245.4764,-313.2533C216.5257,-292.1162 164.366,-251.7703 127,-210 112.2814,-193.5466 98.5731,-172.2868 89.6063,-157.2387"/>
<polygon fill="#191970" stroke="#191970" points="92.4926,-155.24 84.4355,-148.36 86.4436,-158.7628 92.4926,-155.24"/>
</g>
</g>
</svg>
        <g id="navigator" transform="translate(0 0)" fill="#404254">
                <rect fill="#f2f5e9" fill-opacity="0.5" stroke="#606060" stroke-width=".5" x="0" y="0" width="60" height="60"/>
                <use id="zoomplus" xlink:href="#zoomPlus" x="17" y="9" onmousedown="handleZoom(evt,'in')"/>
                <use id="zoomminus" xlink:href="#zoomMin" x="42" y="9" onmousedown="handleZoom(evt,'out')"/>
                <use id="reset" xlink:href="#resetDef" x="30" y="36" onmousedown="handleReset()"/>
                <g id="arrowUp" xlink:href="#dirArrow" transform="translate(30 24)" onmousedown="handlePan(0,-1)">
                  <use xlink:href="#rim" fill="#404040">
                        <set attributeName="fill" to="#808080" begin="arrowUp.mouseover" end="arrowUp.mouseout"/>
                  </use>
                  <path fill="none" stroke="white" stroke-width="1.5" d="M0,-3.0v7 M-2.5,-0.5L0,-3.0L2.5,-0.5"/>
                </g>
                <g id="arrowRight" xlink:href="#dirArrow" transform="rotate(90) translate(36 -43)" onmousedown="handlePan(1,0)">
                  <use xlink:href="#rim" fill="#404040">
                        <set attributeName="fill" to="#808080" begin="arrowRight.mouseover" end="arrowRight.mouseout"/>
                  </use>
                  <path fill="none" stroke="white" stroke-width="1.5" d="M0,-3.0v7 M-2.5,-0.5L0,-3.0L2.5,-0.5"/>
                </g>
                <g id="arrowDown" xlink:href="#dirArrow" transform="rotate(180) translate(-30 -48)" onmousedown="handlePan(0,1)">
                  <use xlink:href="#rim" fill="#404040">
                        <set attributeName="fill" to="#808080" begin="arrowDown.mouseover" end="arrowDown.mouseout"/>
                  </use>
                  <path fill="none" stroke="white" stroke-width="1.5" d="M0,-3.0v7 M-2.5,-0.5L0,-3.0L2.5,-0.5"/>
                </g>
                <g id="arrowLeft" xlink:href="#dirArrow" transform="rotate(270) translate(-36 17)" onmousedown="handlePan(-1,0)">
                  <use xlink:href="#rim" fill="#404040">
                        <set attributeName="fill" to="#808080" begin="arrowLeft.mouseover" end="arrowLeft.mouseout"/>
                  </use>
                  <path fill="none" stroke="white" stroke-width="1.5" d="M0,-3.0v7 M-2.5,-0.5L0,-3.0L2.5,-0.5"/>
                </g>
        </g>
        <svg viewBox="0 0 15 15" width="100%" height="30px" preserveAspectRatio="xMaxYMin meet">
         <g id="arrow_out" transform="scale(0.3 0.3)">
          <a xlink:href="LPfold_8h__incl_org.svg" target="_base">
           <rect id="button" ry="5" rx="5" y="6" x="6" height="38" width="38"
                fill="#f2f5e9" fill-opacity="0.5" stroke="#606060" stroke-width="1.0"/>
           <path id="arrow"
             d="M 11.500037,31.436501 C 11.940474,20.09759 22.043105,11.32322 32.158766,21.979434 L 37.068811,17.246167 C 37.068811,17.246167 37.088388,32 37.088388,32 L 22.160133,31.978069 C 22.160133,31.978069 26.997745,27.140456 26.997745,27.140456 C 18.528582,18.264221 13.291696,25.230495 11.500037,31.436501 z"
             style="fill:#404040;"/>
          </a>
         </g>
        </svg>
</svg>
