<?xml version="1.0" encoding="UTF-8" standalone="no"?>
<!DOCTYPE svg PUBLIC "-//W3C//DTD SVG 1.1//EN"
 "http://www.w3.org/Graphics/SVG/1.1/DTD/svg11.dtd">
<!-- Generated by graphviz version 2.40.1 (20161225.0304)
 -->
<!-- Title: ViennaRNA/mfe.h Pages: 1 -->
<svg width="351pt" height="84pt"
 viewBox="0.00 0.00 351.00 84.00" xmlns="http://www.w3.org/2000/svg" xmlns:xlink="http://www.w3.org/1999/xlink">
<g id="graph0" class="graph" transform="scale(1 1) rotate(0) translate(4 80)">
<title>ViennaRNA/mfe.h</title>
<!-- Node17 -->
<g id="node1" class="node">
<title>Node17</title>
<polygon fill="#bfbfbf" stroke="#000000" points="128.5,-56.5 128.5,-75.5 224.5,-75.5 224.5,-56.5 128.5,-56.5"/>
<text text-anchor="middle" x="176.5" y="-63.5" font-family="Helvetica,sans-Serif" font-size="10.00" fill="#000000">ViennaRNA/mfe.h</text>
</g>
<!-- Node18 -->
<g id="node2" class="node">
<title>Node18</title>
<g id="a_node2"><a xlink:href="alifold_8h.html" target="_top" xlink:title="Functions for comparative structure prediction using RNA sequence alignments. ">
<polygon fill="none" stroke="#000000" points="0,-.5 0,-19.5 105,-19.5 105,-.5 0,-.5"/>
<text text-anchor="middle" x="52.5" y="-7.5" font-family="Helvetica,sans-Serif" font-size="10.00" fill="#000000">ViennaRNA/alifold.h</text>
</a>
</g>
</g>
<!-- Node17&#45;&gt;Node18 -->
<g id="edge1" class="edge">
<title>Node17&#45;&gt;Node18</title>
<path fill="none" stroke="#191970" d="M146.0476,-52.2473C123.5278,-42.0771 93.4383,-28.4883 73.5382,-19.5011"/>
<polygon fill="#191970" stroke="#191970" points="144.6294,-55.4471 155.1836,-56.3733 147.5105,-49.0675 144.6294,-55.4471"/>
</g>
<!-- Node19 -->
<g id="node3" class="node">
<title>Node19</title>
<g id="a_node3"><a xlink:href="cofold_8h.html" target="_top" xlink:title="MFE implementations for RNA&#45;RNA interaction. ">
<polygon fill="none" stroke="#000000" points="123.5,-.5 123.5,-19.5 229.5,-19.5 229.5,-.5 123.5,-.5"/>
<text text-anchor="middle" x="176.5" y="-7.5" font-family="Helvetica,sans-Serif" font-size="10.00" fill="#000000">ViennaRNA/cofold.h</text>
</a>
</g>
</g>
<!-- Node17&#45;&gt;Node19 -->
<g id="edge2" class="edge">
<title>Node17&#45;&gt;Node19</title>
<path fill="none" stroke="#191970" d="M176.5,-46.1575C176.5,-37.155 176.5,-26.9199 176.5,-19.6427"/>
<polygon fill="#191970" stroke="#191970" points="173.0001,-46.2455 176.5,-56.2455 180.0001,-46.2456 173.0001,-46.2455"/>
</g>
<!-- Node20 -->
<g id="node4" class="node">
<title>Node20</title>
<g id="a_node4"><a xlink:href="fold_8h.html" target="_top" xlink:title="MFE calculations for single RNA sequences. ">
<polygon fill="none" stroke="#000000" points="248,-.5 248,-19.5 343,-19.5 343,-.5 248,-.5"/>
<text text-anchor="middle" x="295.5" y="-7.5" font-family="Helvetica,sans-Serif" font-size="10.00" fill="#000000">ViennaRNA/fold.h</text>
</a>
</g>
</g>
<!-- Node17&#45;&gt;Node20 -->
<g id="edge3" class="edge">
<title>Node17&#45;&gt;Node20</title>
<path fill="none" stroke="#191970" d="M206.0144,-52.1109C227.5938,-41.9559 256.2976,-28.4482 275.3101,-19.5011"/>
<polygon fill="#191970" stroke="#191970" points="204.5147,-48.9484 196.9568,-56.3733 207.4953,-55.2821 204.5147,-48.9484"/>
</g>
</g>
</svg>
