<?xml version="1.0" encoding="UTF-8" standalone="no"?>
<!DOCTYPE svg PUBLIC "-//W3C//DTD SVG 1.1//EN"
 "http://www.w3.org/Graphics/SVG/1.1/DTD/svg11.dtd">
<!-- Generated by graphviz version 2.40.1 (20161225.0304)
 -->
<!-- Title: ViennaRNA/neighbor.h Pages: 1 -->
<svg width="224pt" height="140pt"
 viewBox="0.00 0.00 224.00 140.00" xmlns="http://www.w3.org/2000/svg" xmlns:xlink="http://www.w3.org/1999/xlink">
<g id="graph0" class="graph" transform="scale(1 1) rotate(0) translate(4 136)">
<title>ViennaRNA/neighbor.h</title>
<!-- Node17 -->
<g id="node1" class="node">
<title>Node17</title>
<polygon fill="#bfbfbf" stroke="#000000" points="49,-112.5 49,-131.5 165,-131.5 165,-112.5 49,-112.5"/>
<text text-anchor="middle" x="107" y="-119.5" font-family="Helvetica,sans-Serif" font-size="10.00" fill="#000000">ViennaRNA/neighbor.h</text>
</g>
<!-- Node18 -->
<g id="node2" class="node">
<title>Node18</title>
<g id="a_node2"><a xlink:href="eval_8h.html" target="_top" xlink:title="Functions and variables related to energy evaluation of sequence/structure pairs. ...">
<polygon fill="none" stroke="#000000" points="0,-56.5 0,-75.5 98,-75.5 98,-56.5 0,-56.5"/>
<text text-anchor="middle" x="49" y="-63.5" font-family="Helvetica,sans-Serif" font-size="10.00" fill="#000000">ViennaRNA/eval.h</text>
</a>
</g>
</g>
<!-- Node17&#45;&gt;Node18 -->
<g id="edge1" class="edge">
<title>Node17&#45;&gt;Node18</title>
<path fill="none" stroke="#191970" d="M89.4707,-105.0751C79.4917,-95.4402 67.3524,-83.7196 58.9871,-75.6427"/>
<polygon fill="#191970" stroke="#191970" points="87.272,-107.8175 96.8972,-112.2455 92.1342,-102.7817 87.272,-107.8175"/>
</g>
<!-- Node20 -->
<g id="node4" class="node">
<title>Node20</title>
<g id="a_node4"><a xlink:href="walk_8h.html" target="_top" xlink:title="Methods to generate particular paths such as gradient or random walks through the energy landscape of...">
<polygon fill="none" stroke="#000000" points="116,-56.5 116,-75.5 216,-75.5 216,-56.5 116,-56.5"/>
<text text-anchor="middle" x="166" y="-63.5" font-family="Helvetica,sans-Serif" font-size="10.00" fill="#000000">ViennaRNA/walk.h</text>
</a>
</g>
</g>
<!-- Node17&#45;&gt;Node20 -->
<g id="edge3" class="edge">
<title>Node17&#45;&gt;Node20</title>
<path fill="none" stroke="#191970" d="M124.5307,-105.3607C134.7377,-95.6727 147.2469,-83.7995 155.8408,-75.6427"/>
<polygon fill="#191970" stroke="#191970" points="122.1206,-102.8227 117.277,-112.2455 126.9396,-107.8998 122.1206,-102.8227"/>
</g>
<!-- Node19 -->
<g id="node3" class="node">
<title>Node19</title>
<g id="a_node3"><a xlink:href="fold_8h.html" target="_top" xlink:title="MFE calculations for single RNA sequences. ">
<polygon fill="none" stroke="#000000" points="1.5,-.5 1.5,-19.5 96.5,-19.5 96.5,-.5 1.5,-.5"/>
<text text-anchor="middle" x="49" y="-7.5" font-family="Helvetica,sans-Serif" font-size="10.00" fill="#000000">ViennaRNA/fold.h</text>
</a>
</g>
</g>
<!-- Node18&#45;&gt;Node19 -->
<g id="edge2" class="edge">
<title>Node18&#45;&gt;Node19</title>
<path fill="none" stroke="#191970" d="M49,-46.1575C49,-37.155 49,-26.9199 49,-19.6427"/>
<polygon fill="#191970" stroke="#191970" points="45.5001,-46.2455 49,-56.2455 52.5001,-46.2456 45.5001,-46.2455"/>
</g>
</g>
</svg>
