<?xml version="1.0" encoding="UTF-8" standalone="no"?>
<!DOCTYPE svg PUBLIC "-//W3C//DTD SVG 1.1//EN"
 "http://www.w3.org/Graphics/SVG/1.1/DTD/svg11.dtd">
<!-- Generated by graphviz version 2.40.1 (20161225.0304)
 -->
<!-- Title: ViennaRNA/params/basic.h Pages: 1 -->
<!--zoomable 341 -->
<svg id="main" version="1.1" xmlns="http://www.w3.org/2000/svg" xmlns:xlink="http://www.w3.org/1999/xlink" xml:space="preserve" onload="init(evt)">
<style type="text/css"><![CDATA[
.edge:hover path { stroke: red; }
.edge:hover polygon { stroke: red; fill: red; }
]]></style>
<script type="text/javascript"><![CDATA[
var edges = document.getElementsByTagName('g');
if (edges && edges.length) {
  for (var i=0;i<edges.length;i++) {
    if (edges[i].id.substr(0,4)=='edge') {
      edges[i].setAttribute('class','edge');
    }
  }
}
]]></script>
        <defs>
                <circle id="rim" cx="0" cy="0" r="7"/>
                <circle id="rim2" cx="0" cy="0" r="3.5"/>
                <g id="zoomPlus">
                        <use xlink:href="#rim" fill="#404040">
                                <set attributeName="fill" to="#808080" begin="zoomplus.mouseover" end="zoomplus.mouseout"/>
                        </use>
                        <path d="M-4,0h8M0,-4v8" fill="none" stroke="white" stroke-width="1.5" pointer-events="none"/>
                </g>
                <g id="zoomMin">
                        <use xlink:href="#rim" fill="#404040">
                                <set attributeName="fill" to="#808080" begin="zoomminus.mouseover" end="zoomminus.mouseout"/>
                        </use>
                        <path d="M-4,0h8" fill="none" stroke="white" stroke-width="1.5" pointer-events="none"/>
                </g>
                <g id="dirArrow">
                        <path fill="none" stroke="white" stroke-width="1.5" d="M0,-3.0v7 M-2.5,-0.5L0,-3.0L2.5,-0.5"/>
                </g>
               <g id="resetDef">
                       <use xlink:href="#rim2" fill="#404040">
                               <set attributeName="fill" to="#808080" begin="reset.mouseover" end="reset.mouseout"/>
                       </use>
               </g>
        </defs>

<script type="text/javascript">
var viewWidth = 1307;
var viewHeight = 341;
var sectionId = 'dynsection-0';
</script>
<script xlink:href="svgpan.js"/>
<svg id="graph" class="graph">
<g id="viewport">
<title>ViennaRNA/params/basic.h</title>
<!-- Node0 -->
<g id="node1" class="node">
<title>Node0</title>
<polygon fill="#bfbfbf" stroke="#000000" points="580,-313.5 580,-332.5 718,-332.5 718,-313.5 580,-313.5"/>
<text text-anchor="middle" x="649" y="-320.5" font-family="Helvetica,sans-Serif" font-size="10.00" fill="#000000">ViennaRNA/params/basic.h</text>
</g>
<!-- Node1 -->
<g id="node2" class="node">
<title>Node1</title>
<g id="a_node2"><a xlink:href="constants_8h.html" target="_top" xlink:title="Energy parameter constants. ">
<polygon fill="none" stroke="#000000" points="250,-190.5 250,-209.5 408,-209.5 408,-190.5 250,-190.5"/>
<text text-anchor="middle" x="329" y="-197.5" font-family="Helvetica,sans-Serif" font-size="10.00" fill="#000000">ViennaRNA/params/constants.h</text>
</a>
</g>
</g>
<!-- Node0&#45;&gt;Node1 -->
<g id="edge1" class="edge">
<title>Node0&#45;&gt;Node1</title>
<path fill="none" stroke="#191970" d="M624.1564,-313.4507C567.4479,-291.6534 428.3719,-238.1961 363.4407,-213.2381"/>
<polygon fill="#191970" stroke="#191970" points="364.6384,-209.9489 354.0484,-209.628 362.1268,-216.4828 364.6384,-209.9489"/>
</g>
<!-- Node3 -->
<g id="node4" class="node">
<title>Node3</title>
<g id="a_node4"><a xlink:href="datastructures_2basic_8h.html" target="_top" xlink:title="Various data structures and pre&#45;processor macros. ">
<polygon fill="none" stroke="#000000" points="683,-246.5 683,-276.5 817,-276.5 817,-246.5 683,-246.5"/>
<text text-anchor="start" x="691" y="-264.5" font-family="Helvetica,sans-Serif" font-size="10.00" fill="#000000">ViennaRNA/datastructures</text>
<text text-anchor="middle" x="750" y="-253.5" font-family="Helvetica,sans-Serif" font-size="10.00" fill="#000000">/basic.h</text>
</a>
</g>
</g>
<!-- Node0&#45;&gt;Node3 -->
<g id="edge3" class="edge">
<title>Node0&#45;&gt;Node3</title>
<path fill="none" stroke="#191970" d="M659.7188,-313.3906C671.9869,-304.9132 692.2945,-292.2809 710.6089,-281.6028"/>
<polygon fill="#191970" stroke="#191970" points="712.4752,-284.567 719.3955,-276.5446 708.9828,-278.5004 712.4752,-284.567"/>
</g>
<!-- Node5 -->
<g id="node6" class="node">
<title>Node5</title>
<g id="a_node6"><a xlink:href="model_8h.html" target="_top" xlink:title="The model details data structure and its corresponding modifiers. ">
<polygon fill="none" stroke="#000000" points="66,-129 66,-148 172,-148 172,-129 66,-129"/>
<text text-anchor="middle" x="119" y="-136" font-family="Helvetica,sans-Serif" font-size="10.00" fill="#000000">ViennaRNA/model.h</text>
</a>
</g>
</g>
<!-- Node0&#45;&gt;Node5 -->
<g id="edge35" class="edge">
<title>Node0&#45;&gt;Node5</title>
<path fill="none" stroke="#191970" d="M595.0466,-313.4993C515.2101,-298.2476 362.0133,-264.3726 241,-210 204.6622,-193.673 165.3732,-169.3166 141.4742,-153.6699"/>
<polygon fill="#191970" stroke="#191970" points="143.3778,-150.7326 133.1065,-148.1344 139.5157,-156.5708 143.3778,-150.7326"/>
</g>
<!-- Node2 -->
<g id="node3" class="node">
<title>Node2</title>
<polygon fill="none" stroke="#bfbfbf" points="0,-129 0,-148 48,-148 48,-129 0,-129"/>
<text text-anchor="middle" x="24" y="-136" font-family="Helvetica,sans-Serif" font-size="10.00" fill="#000000">limits.h</text>
</g>
<!-- Node1&#45;&gt;Node2 -->
<g id="edge2" class="edge">
<title>Node1&#45;&gt;Node2</title>
<path fill="none" stroke="#191970" d="M249.7046,-192.3454C194.7244,-185.6516 120.3034,-173.8127 57,-154 55.1425,-153.4186 53.2551,-152.7533 51.3718,-152.0325"/>
<polygon fill="#191970" stroke="#191970" points="52.7181,-148.8018 42.1466,-148.0993 49.9727,-155.2409 52.7181,-148.8018"/>
</g>
<!-- Node3&#45;&gt;Node0 -->
<g id="edge27" class="edge">
<title>Node3&#45;&gt;Node0</title>
<path fill="none" stroke="#191970" d="M731.1897,-276.5446C716.4217,-286.24 695.8053,-298.7829 678.8358,-308.3912"/>
<polygon fill="#191970" stroke="#191970" points="676.883,-305.4723 669.8438,-313.3906 680.2845,-311.5903 676.883,-305.4723"/>
</g>
<!-- Node3&#45;&gt;Node1 -->
<g id="edge4" class="edge">
<title>Node3&#45;&gt;Node1</title>
<path fill="none" stroke="#191970" d="M682.8258,-251.6871C606.7989,-240.5811 483.2691,-222.5358 404.1106,-210.9722"/>
<polygon fill="#191970" stroke="#191970" points="404.6054,-207.5074 394.2045,-209.5251 403.5935,-214.4339 404.6054,-207.5074"/>
</g>
<!-- Node4 -->
<g id="node5" class="node">
<title>Node4</title>
<g id="a_node5"><a xlink:href="fold__compound_8h.html" target="_top" xlink:title="The Basic Fold Compound API. ">
<polygon fill="none" stroke="#000000" points="576,-190.5 576,-209.5 722,-209.5 722,-190.5 576,-190.5"/>
<text text-anchor="middle" x="649" y="-197.5" font-family="Helvetica,sans-Serif" font-size="10.00" fill="#000000">ViennaRNA/fold_compound.h</text>
</a>
</g>
</g>
<!-- Node3&#45;&gt;Node4 -->
<g id="edge5" class="edge">
<title>Node3&#45;&gt;Node4</title>
<path fill="none" stroke="#191970" d="M725.2926,-246.4554C709.4753,-236.8241 689.0433,-224.3828 673.3051,-214.7996"/>
<polygon fill="#191970" stroke="#191970" points="675.0129,-211.7418 664.6514,-209.5303 671.3723,-217.7206 675.0129,-211.7418"/>
</g>
<!-- Node3&#45;&gt;Node5 -->
<g id="edge26" class="edge">
<title>Node3&#45;&gt;Node5</title>
<path fill="none" stroke="#191970" d="M682.8887,-257.1864C620.8275,-251.534 526.8568,-238.7044 450,-210 433.9339,-203.9996 433.1213,-195.8504 417,-190 317.2622,-153.8053 285.0255,-174.8897 181,-154 175.629,-152.9214 170.0234,-151.6823 164.4736,-150.3847"/>
<polygon fill="#191970" stroke="#191970" points="165.1485,-146.9472 154.6069,-148.0079 163.5091,-153.7526 165.1485,-146.9472"/>
</g>
<!-- Node7 -->
<g id="node8" class="node">
<title>Node7</title>
<g id="a_node8"><a xlink:href="dp__matrices_8h.html" target="_top" xlink:title="Functions to deal with standard dynamic programming (DP) matrices. ">
<polygon fill="none" stroke="#000000" points="874.5,-129 874.5,-148 1007.5,-148 1007.5,-129 874.5,-129"/>
<text text-anchor="middle" x="941" y="-136" font-family="Helvetica,sans-Serif" font-size="10.00" fill="#000000">ViennaRNA/dp_matrices.h</text>
</a>
</g>
</g>
<!-- Node3&#45;&gt;Node7 -->
<g id="edge28" class="edge">
<title>Node3&#45;&gt;Node7</title>
<path fill="none" stroke="#191970" d="M768.8061,-246.4178C802.8339,-222.6624 874.0384,-176.8166 913.502,-153.2617"/>
<polygon fill="#191970" stroke="#191970" points="915.508,-156.1422 922.3458,-148.0493 911.9536,-150.1117 915.508,-156.1422"/>
</g>
<!-- Node8 -->
<g id="node9" class="node">
<title>Node8</title>
<g id="a_node9"><a xlink:href="hard_8h.html" target="_top" xlink:title="Functions and data structures for handling of secondary structure hard constraints. ">
<polygon fill="none" stroke="#000000" points="190.5,-123.5 190.5,-153.5 309.5,-153.5 309.5,-123.5 190.5,-123.5"/>
<text text-anchor="start" x="198.5" y="-141.5" font-family="Helvetica,sans-Serif" font-size="10.00" fill="#000000">ViennaRNA/constraints</text>
<text text-anchor="middle" x="250" y="-130.5" font-family="Helvetica,sans-Serif" font-size="10.00" fill="#000000">/hard.h</text>
</a>
</g>
</g>
<!-- Node3&#45;&gt;Node8 -->
<g id="edge29" class="edge">
<title>Node3&#45;&gt;Node8</title>
<path fill="none" stroke="#191970" d="M682.8321,-250.8653C631.8082,-241.6143 560.3585,-227.039 499,-210 472.7269,-202.7041 467.1128,-197.8505 441,-190 399.7275,-177.5919 353.1209,-165.4822 316.2196,-156.1261"/>
<polygon fill="#191970" stroke="#191970" points="316.6343,-152.6209 306.0813,-153.5623 314.918,-159.4072 316.6343,-152.6209"/>
</g>
<!-- Node10 -->
<g id="node11" class="node">
<title>Node10</title>
<g id="a_node11"><a xlink:href="soft_8h.html" target="_top" xlink:title="Functions and data structures for secondary structure soft constraints. ">
<polygon fill="none" stroke="#000000" points="737.5,-123.5 737.5,-153.5 856.5,-153.5 856.5,-123.5 737.5,-123.5"/>
<text text-anchor="start" x="745.5" y="-141.5" font-family="Helvetica,sans-Serif" font-size="10.00" fill="#000000">ViennaRNA/constraints</text>
<text text-anchor="middle" x="797" y="-130.5" font-family="Helvetica,sans-Serif" font-size="10.00" fill="#000000">/soft.h</text>
</a>
</g>
</g>
<!-- Node3&#45;&gt;Node10 -->
<g id="edge30" class="edge">
<title>Node3&#45;&gt;Node10</title>
<path fill="none" stroke="#191970" d="M751.1489,-246.4178C756.6028,-225.5772 770.765,-187.7346 782.1847,-162.8571"/>
<polygon fill="#191970" stroke="#191970" points="785.4044,-164.2371 786.5607,-153.7056 779.0892,-161.2174 785.4044,-164.2371"/>
</g>
<!-- Node11 -->
<g id="node12" class="node">
<title>Node11</title>
<g id="a_node12"><a xlink:href="grammar_8h.html" target="_top" xlink:title="Implementations for the RNA folding grammar. ">
<polygon fill="none" stroke="#000000" points="328,-129 328,-148 446,-148 446,-129 328,-129"/>
<text text-anchor="middle" x="387" y="-136" font-family="Helvetica,sans-Serif" font-size="10.00" fill="#000000">ViennaRNA/grammar.h</text>
</a>
</g>
</g>
<!-- Node3&#45;&gt;Node11 -->
<g id="edge31" class="edge">
<title>Node3&#45;&gt;Node11</title>
<path fill="none" stroke="#191970" d="M682.7888,-246.456C645.5576,-236.916 598.7999,-223.8028 558,-210 505.4645,-192.227 445.9058,-167.6758 412.5887,-152.4582"/>
<polygon fill="#191970" stroke="#191970" points="413.671,-149.1014 403.1282,-148.053 410.7161,-155.4472 413.671,-149.1014"/>
</g>
<!-- Node12 -->
<g id="node13" class="node">
<title>Node12</title>
<g id="a_node13"><a xlink:href="structured__domains_8h.html" target="_top" xlink:title="This module provides interfaces that deal with additional structured domains in the folding grammar...">
<polygon fill="none" stroke="#000000" points="604.5,-123.5 604.5,-153.5 719.5,-153.5 719.5,-123.5 604.5,-123.5"/>
<text text-anchor="start" x="612.5" y="-141.5" font-family="Helvetica,sans-Serif" font-size="10.00" fill="#000000">ViennaRNA/structured</text>
<text text-anchor="middle" x="662" y="-130.5" font-family="Helvetica,sans-Serif" font-size="10.00" fill="#000000">_domains.h</text>
</a>
</g>
</g>
<!-- Node3&#45;&gt;Node12 -->
<g id="edge32" class="edge">
<title>Node3&#45;&gt;Node12</title>
<path fill="none" stroke="#191970" d="M748.8786,-246.3454C747.1133,-230.9928 742.5851,-207.1289 731,-190 722.7787,-177.8445 710.7157,-167.4383 698.9665,-159.2273"/>
<polygon fill="#191970" stroke="#191970" points="700.7973,-156.2419 690.5262,-153.6428 696.9347,-162.0798 700.7973,-156.2419"/>
</g>
<!-- Node13 -->
<g id="node14" class="node">
<title>Node13</title>
<g id="a_node14"><a xlink:href="unstructured__domains_8h.html" target="_top" xlink:title="Functions to modify unstructured domains, e.g. to incorporate ligands binding to unpaired stretches...">
<polygon fill="none" stroke="#000000" points="1064.5,-123.5 1064.5,-153.5 1189.5,-153.5 1189.5,-123.5 1064.5,-123.5"/>
<text text-anchor="start" x="1072.5" y="-141.5" font-family="Helvetica,sans-Serif" font-size="10.00" fill="#000000">ViennaRNA/unstructured</text>
<text text-anchor="middle" x="1127" y="-130.5" font-family="Helvetica,sans-Serif" font-size="10.00" fill="#000000">_domains.h</text>
</a>
</g>
</g>
<!-- Node3&#45;&gt;Node13 -->
<g id="edge33" class="edge">
<title>Node3&#45;&gt;Node13</title>
<path fill="none" stroke="#191970" d="M817.0386,-253.7279C890.3025,-244.8922 1002.215,-229.177 1041,-210 1064.4689,-198.3959 1085.8237,-177.3314 1101.6447,-161.0606"/>
<polygon fill="#191970" stroke="#191970" points="1104.5059,-163.1375 1108.9519,-153.5206 1099.4791,-158.266 1104.5059,-163.1375"/>
</g>
<!-- Node14 -->
<g id="node15" class="node">
<title>Node14</title>
<g id="a_node15"><a xlink:href="utils_2structures_8h.html" target="_top" xlink:title="Various utility&#45; and helper&#45;functions for secondary structure parsing, converting, etc. ">
<polygon fill="none" stroke="#000000" points="1155,-62 1155,-81 1299,-81 1299,-62 1155,-62"/>
<text text-anchor="middle" x="1227" y="-69" font-family="Helvetica,sans-Serif" font-size="10.00" fill="#000000">ViennaRNA/utils/structures.h</text>
</a>
</g>
</g>
<!-- Node3&#45;&gt;Node14 -->
<g id="edge34" class="edge">
<title>Node3&#45;&gt;Node14</title>
<path fill="none" stroke="#191970" d="M817.1139,-257.0376C884.617,-251.2648 990.8453,-238.3404 1079,-210 1131.2271,-193.2098 1152.8692,-195.2813 1189,-154 1204.7238,-136.0348 1212.0728,-109.0108 1217.4888,-90.8361"/>
<polygon fill="#191970" stroke="#191970" points="1220.9029,-91.6481 1220.5856,-81.0581 1214.2296,-89.5346 1220.9029,-91.6481"/>
</g>
<!-- Node4&#45;&gt;Node0 -->
<g id="edge7" class="edge">
<title>Node4&#45;&gt;Node0</title>
<path fill="none" stroke="#191970" d="M649,-209.6068C649,-229.686 649,-276.4497 649,-303.2305"/>
<polygon fill="#191970" stroke="#191970" points="645.5001,-303.3484 649,-313.3484 652.5001,-303.3484 645.5001,-303.3484"/>
</g>
<!-- Node4&#45;&gt;Node5 -->
<g id="edge6" class="edge">
<title>Node4&#45;&gt;Node5</title>
<path fill="none" stroke="#191970" d="M575.9982,-196.1564C483.54,-190.5263 319.5651,-177.9964 181,-154 175.187,-152.9933 169.1141,-151.7361 163.1399,-150.376"/>
<polygon fill="#191970" stroke="#191970" points="163.7817,-146.9309 153.2425,-148.0157 162.1578,-153.74 163.7817,-146.9309"/>
</g>
<!-- Node6 -->
<g id="node7" class="node">
<title>Node6</title>
<g id="a_node7"><a xlink:href="sequence_8h.html" target="_top" xlink:title="Functions and data structures related to sequence representations ,. ">
<polygon fill="none" stroke="#000000" points="464,-129 464,-148 586,-148 586,-129 464,-129"/>
<text text-anchor="middle" x="525" y="-136" font-family="Helvetica,sans-Serif" font-size="10.00" fill="#000000">ViennaRNA/sequence.h</text>
</a>
</g>
</g>
<!-- Node4&#45;&gt;Node6 -->
<g id="edge8" class="edge">
<title>Node4&#45;&gt;Node6</title>
<path fill="none" stroke="#191970" d="M629.625,-190.3906C609.1505,-180.2359 576.6558,-164.1196 553.3115,-152.5416"/>
<polygon fill="#191970" stroke="#191970" points="554.7528,-149.3496 544.2389,-148.0419 551.6425,-155.6207 554.7528,-149.3496"/>
</g>
<!-- Node4&#45;&gt;Node7 -->
<g id="edge9" class="edge">
<title>Node4&#45;&gt;Node7</title>
<path fill="none" stroke="#191970" d="M694.3046,-190.4581C745.8796,-179.5956 830.1408,-161.8488 885.586,-150.1711"/>
<polygon fill="#191970" stroke="#191970" points="886.5251,-153.5502 895.5891,-148.0643 885.0824,-146.7004 886.5251,-153.5502"/>
</g>
<!-- Node4&#45;&gt;Node8 -->
<g id="edge11" class="edge">
<title>Node4&#45;&gt;Node8</title>
<path fill="none" stroke="#191970" d="M575.9767,-191.5752C511.2153,-183.7024 413.863,-170.8899 319.7551,-154.0482"/>
<polygon fill="#191970" stroke="#191970" points="320.2407,-150.5794 309.7776,-152.2451 318.9957,-157.4678 320.2407,-150.5794"/>
</g>
<!-- Node4&#45;&gt;Node10 -->
<g id="edge15" class="edge">
<title>Node4&#45;&gt;Node10</title>
<path fill="none" stroke="#191970" d="M672.125,-190.3906C693.2678,-181.6049 725.1497,-168.3567 751.4064,-157.446"/>
<polygon fill="#191970" stroke="#191970" points="752.9037,-160.614 760.7951,-153.5446 750.2176,-154.1499 752.9037,-160.614"/>
</g>
<!-- Node4&#45;&gt;Node11 -->
<g id="edge18" class="edge">
<title>Node4&#45;&gt;Node11</title>
<path fill="none" stroke="#191970" d="M608.35,-190.4581C562.3618,-179.6632 487.4095,-162.0694 437.6527,-150.3899"/>
<polygon fill="#191970" stroke="#191970" points="438.2806,-146.9422 427.7454,-148.0643 436.6809,-153.757 438.2806,-146.9422"/>
</g>
<!-- Node4&#45;&gt;Node12 -->
<g id="edge20" class="edge">
<title>Node4&#45;&gt;Node12</title>
<path fill="none" stroke="#191970" d="M651.0313,-190.3906C652.5626,-183.1463 654.7352,-172.8679 656.7434,-163.3676"/>
<polygon fill="#191970" stroke="#191970" points="660.176,-164.0523 658.8198,-153.5446 653.3273,-162.6045 660.176,-164.0523"/>
</g>
<!-- Node4&#45;&gt;Node13 -->
<g id="edge21" class="edge">
<title>Node4&#45;&gt;Node13</title>
<path fill="none" stroke="#191970" d="M722.1522,-191.138C796.2515,-182.089 914.1478,-167.4937 1016,-154 1028.3286,-152.3667 1041.42,-150.5828 1054.1249,-148.8253"/>
<polygon fill="#191970" stroke="#191970" points="1054.7857,-152.2672 1064.2092,-147.4248 1053.8228,-145.3337 1054.7857,-152.2672"/>
</g>
<!-- Node7&#45;&gt;Node3 -->
<g id="edge10" class="edge">
<title>Node7&#45;&gt;Node3</title>
<path fill="none" stroke="#191970" d="M929.9972,-148.0493C902.4729,-167.9526 831.0235,-214.2531 786.7704,-241.15"/>
<polygon fill="#191970" stroke="#191970" points="784.7907,-238.2566 778.0346,-246.4178 788.4055,-244.251 784.7907,-238.2566"/>
</g>
<!-- Node8&#45;&gt;Node3 -->
<g id="edge12" class="edge">
<title>Node8&#45;&gt;Node3</title>
<path fill="none" stroke="#191970" d="M309.9157,-150.8095C352.0579,-160.5979 409.3834,-175.0834 459,-190 485.1128,-197.8505 490.7269,-202.7041 517,-210 568.6694,-224.3484 627.4946,-236.9497 673.1653,-246.0958"/>
<polygon fill="#191970" stroke="#191970" points="672.5073,-249.5334 682.9981,-248.0526 673.8736,-242.668 672.5073,-249.5334"/>
</g>
<!-- Node9 -->
<g id="node10" class="node">
<title>Node9</title>
<g id="a_node10"><a xlink:href="constraints_2basic_8h.html" target="_top" xlink:title="Functions and data structures for constraining secondary structure predictions and evaluation...">
<polygon fill="none" stroke="#000000" points="737.5,-56.5 737.5,-86.5 856.5,-86.5 856.5,-56.5 737.5,-56.5"/>
<text text-anchor="start" x="745.5" y="-74.5" font-family="Helvetica,sans-Serif" font-size="10.00" fill="#000000">ViennaRNA/constraints</text>
<text text-anchor="middle" x="797" y="-63.5" font-family="Helvetica,sans-Serif" font-size="10.00" fill="#000000">/basic.h</text>
</a>
</g>
</g>
<!-- Node8&#45;&gt;Node9 -->
<g id="edge13" class="edge">
<title>Node8&#45;&gt;Node9</title>
<path fill="none" stroke="#191970" d="M309.7576,-124.6398C312.8771,-124.053 315.9718,-123.5016 319,-123 463.2533,-99.1061 633.9159,-83.7975 727.293,-76.5132"/>
<polygon fill="#191970" stroke="#191970" points="727.7623,-79.9874 737.4631,-75.7278 727.2232,-73.0082 727.7623,-79.9874"/>
</g>
<!-- Node9&#45;&gt;Node3 -->
<g id="edge14" class="edge">
<title>Node9&#45;&gt;Node3</title>
<path fill="none" stroke="#191970" d="M856.7576,-77.2979C914.6374,-84.2949 996.4469,-98.3154 1016,-123 1024.5549,-133.8 1023.7039,-142.5773 1016,-154 974.184,-216.001 889.921,-242.2529 827.3841,-253.3622"/>
<polygon fill="#191970" stroke="#191970" points="826.4351,-249.9724 817.1529,-255.0803 827.5944,-256.8758 826.4351,-249.9724"/>
</g>
<!-- Node10&#45;&gt;Node3 -->
<g id="edge16" class="edge">
<title>Node10&#45;&gt;Node3</title>
<path fill="none" stroke="#191970" d="M795.8188,-153.7056C790.3306,-174.613 776.1567,-212.4634 764.7478,-237.2898"/>
<polygon fill="#191970" stroke="#191970" points="761.5391,-235.8868 760.3774,-246.4178 767.8527,-238.9098 761.5391,-235.8868"/>
</g>
<!-- Node10&#45;&gt;Node9 -->
<g id="edge17" class="edge">
<title>Node10&#45;&gt;Node9</title>
<path fill="none" stroke="#191970" d="M797,-123.2967C797,-115.5013 797,-105.7991 797,-96.9064"/>
<polygon fill="#191970" stroke="#191970" points="800.5001,-96.6431 797,-86.6432 793.5001,-96.6432 800.5001,-96.6431"/>
</g>
<!-- Node11&#45;&gt;Node3 -->
<g id="edge19" class="edge">
<title>Node11&#45;&gt;Node3</title>
<path fill="none" stroke="#191970" d="M414.6602,-148.053C451.5082,-162.5237 518.0297,-190.3884 576,-210 613.1343,-222.5627 655.2039,-234.5542 688.7366,-243.8002"/>
<polygon fill="#191970" stroke="#191970" points="687.8345,-247.182 698.4044,-246.456 689.6888,-240.432 687.8345,-247.182"/>
</g>
<!-- Node13&#45;&gt;Node3 -->
<g id="edge22" class="edge">
<title>Node13&#45;&gt;Node3</title>
<path fill="none" stroke="#191970" d="M1121.9549,-153.5206C1110.756,-170.1843 1086.3093,-196.4971 1059,-210 1019.7281,-229.4178 905.4812,-245.2862 827.4074,-254.0574"/>
<polygon fill="#191970" stroke="#191970" points="826.6746,-250.6171 817.1202,-255.1956 827.4444,-257.5746 826.6746,-250.6171"/>
</g>
<!-- Node13&#45;&gt;Node14 -->
<g id="edge23" class="edge">
<title>Node13&#45;&gt;Node14</title>
<path fill="none" stroke="#191970" d="M1149.6915,-123.2967C1166.0283,-112.351 1187.9759,-97.6462 1204.3119,-86.701"/>
<polygon fill="#191970" stroke="#191970" points="1206.3793,-89.5289 1212.7388,-81.055 1202.483,-83.7135 1206.3793,-89.5289"/>
</g>
<!-- Node14&#45;&gt;Node3 -->
<g id="edge25" class="edge">
<title>Node14&#45;&gt;Node3</title>
<path fill="none" stroke="#191970" d="M1231.3422,-81.0581C1232.6987,-97.7306 1225.898,-132.408 1207,-154 1170.8692,-195.2813 1149.2271,-193.2098 1097,-210 1007.3222,-238.83 898.9408,-251.7068 827.3621,-257.3305"/>
<polygon fill="#191970" stroke="#191970" points="826.7825,-253.8642 817.075,-258.1086 827.3105,-260.8443 826.7825,-253.8642"/>
</g>
<!-- Node15 -->
<g id="node16" class="node">
<title>Node15</title>
<polygon fill="none" stroke="#bfbfbf" points="1204,-.5 1204,-19.5 1250,-19.5 1250,-.5 1204,-.5"/>
<text text-anchor="middle" x="1227" y="-7.5" font-family="Helvetica,sans-Serif" font-size="10.00" fill="#000000">stdio.h</text>
</g>
<!-- Node14&#45;&gt;Node15 -->
<g id="edge24" class="edge">
<title>Node14&#45;&gt;Node15</title>
<path fill="none" stroke="#191970" d="M1227,-61.8906C1227,-53.3657 1227,-40.6392 1227,-29.9235"/>
<polygon fill="#191970" stroke="#191970" points="1230.5001,-29.7448 1227,-19.7449 1223.5001,-29.7449 1230.5001,-29.7448"/>
</g>
</g>
</svg>
        <g id="navigator" transform="translate(0 0)" fill="#404254">
                <rect fill="#f2f5e9" fill-opacity="0.5" stroke="#606060" stroke-width=".5" x="0" y="0" width="60" height="60"/>
                <use id="zoomplus" xlink:href="#zoomPlus" x="17" y="9" onmousedown="handleZoom(evt,'in')"/>
                <use id="zoomminus" xlink:href="#zoomMin" x="42" y="9" onmousedown="handleZoom(evt,'out')"/>
                <use id="reset" xlink:href="#resetDef" x="30" y="36" onmousedown="handleReset()"/>
                <g id="arrowUp" xlink:href="#dirArrow" transform="translate(30 24)" onmousedown="handlePan(0,-1)">
                  <use xlink:href="#rim" fill="#404040">
                        <set attributeName="fill" to="#808080" begin="arrowUp.mouseover" end="arrowUp.mouseout"/>
                  </use>
                  <path fill="none" stroke="white" stroke-width="1.5" d="M0,-3.0v7 M-2.5,-0.5L0,-3.0L2.5,-0.5"/>
                </g>
                <g id="arrowRight" xlink:href="#dirArrow" transform="rotate(90) translate(36 -43)" onmousedown="handlePan(1,0)">
                  <use xlink:href="#rim" fill="#404040">
                        <set attributeName="fill" to="#808080" begin="arrowRight.mouseover" end="arrowRight.mouseout"/>
                  </use>
                  <path fill="none" stroke="white" stroke-width="1.5" d="M0,-3.0v7 M-2.5,-0.5L0,-3.0L2.5,-0.5"/>
                </g>
                <g id="arrowDown" xlink:href="#dirArrow" transform="rotate(180) translate(-30 -48)" onmousedown="handlePan(0,1)">
                  <use xlink:href="#rim" fill="#404040">
                        <set attributeName="fill" to="#808080" begin="arrowDown.mouseover" end="arrowDown.mouseout"/>
                  </use>
                  <path fill="none" stroke="white" stroke-width="1.5" d="M0,-3.0v7 M-2.5,-0.5L0,-3.0L2.5,-0.5"/>
                </g>
                <g id="arrowLeft" xlink:href="#dirArrow" transform="rotate(270) translate(-36 17)" onmousedown="handlePan(-1,0)">
                  <use xlink:href="#rim" fill="#404040">
                        <set attributeName="fill" to="#808080" begin="arrowLeft.mouseover" end="arrowLeft.mouseout"/>
                  </use>
                  <path fill="none" stroke="white" stroke-width="1.5" d="M0,-3.0v7 M-2.5,-0.5L0,-3.0L2.5,-0.5"/>
                </g>
        </g>
        <svg viewBox="0 0 15 15" width="100%" height="30px" preserveAspectRatio="xMaxYMin meet">
         <g id="arrow_out" transform="scale(0.3 0.3)">
          <a xlink:href="params_2basic_8h__incl_org.svg" target="_base">
           <rect id="button" ry="5" rx="5" y="6" x="6" height="38" width="38"
                fill="#f2f5e9" fill-opacity="0.5" stroke="#606060" stroke-width="1.0"/>
           <path id="arrow"
             d="M 11.500037,31.436501 C 11.940474,20.09759 22.043105,11.32322 32.158766,21.979434 L 37.068811,17.246167 C 37.068811,17.246167 37.088388,32 37.088388,32 L 22.160133,31.978069 C 22.160133,31.978069 26.997745,27.140456 26.997745,27.140456 C 18.528582,18.264221 13.291696,25.230495 11.500037,31.436501 z"
             style="fill:#404040;"/>
          </a>
         </g>
        </svg>
</svg>
