<?xml version="1.0" encoding="UTF-8" standalone="no"?>
<!DOCTYPE svg PUBLIC "-//W3C//DTD SVG 1.1//EN"
 "http://www.w3.org/Graphics/SVG/1.1/DTD/svg11.dtd">
<!-- Generated by graphviz version 2.40.1 (20161225.0304)
 -->
<!-- Title: ViennaRNA/part_func.h Pages: 1 -->
<svg width="268pt" height="84pt"
 viewBox="0.00 0.00 267.50 84.00" xmlns="http://www.w3.org/2000/svg" xmlns:xlink="http://www.w3.org/1999/xlink">
<g id="graph0" class="graph" transform="scale(1 1) rotate(0) translate(4 80)">
<title>ViennaRNA/part_func.h</title>
<!-- Node20 -->
<g id="node1" class="node">
<title>Node20</title>
<polygon fill="#bfbfbf" stroke="#000000" points="61.5,-56.5 61.5,-75.5 181.5,-75.5 181.5,-56.5 61.5,-56.5"/>
<text text-anchor="middle" x="121.5" y="-63.5" font-family="Helvetica,sans-Serif" font-size="10.00" fill="#000000">ViennaRNA/part_func.h</text>
</g>
<!-- Node21 -->
<g id="node2" class="node">
<title>Node21</title>
<g id="a_node2"><a xlink:href="alifold_8h.html" target="_top" xlink:title="Functions for comparative structure prediction using RNA sequence alignments. ">
<polygon fill="none" stroke="#000000" points="0,-.5 0,-19.5 105,-19.5 105,-.5 0,-.5"/>
<text text-anchor="middle" x="52.5" y="-7.5" font-family="Helvetica,sans-Serif" font-size="10.00" fill="#000000">ViennaRNA/alifold.h</text>
</a>
</g>
</g>
<!-- Node20&#45;&gt;Node21 -->
<g id="edge1" class="edge">
<title>Node20&#45;&gt;Node21</title>
<path fill="none" stroke="#191970" d="M101.697,-49.928C89.6364,-40.1397 74.6286,-27.9595 64.3812,-19.6427"/>
<polygon fill="#191970" stroke="#191970" points="99.5109,-52.6614 109.4811,-56.2455 103.9221,-47.2262 99.5109,-52.6614"/>
</g>
<!-- Node22 -->
<g id="node3" class="node">
<title>Node22</title>
<g id="a_node3"><a xlink:href="part__func__co_8h.html" target="_top" xlink:title="Partition function for two RNA sequences. ">
<polygon fill="none" stroke="#000000" points="123.5,-.5 123.5,-19.5 259.5,-19.5 259.5,-.5 123.5,-.5"/>
<text text-anchor="middle" x="191.5" y="-7.5" font-family="Helvetica,sans-Serif" font-size="10.00" fill="#000000">ViennaRNA/part_func_co.h</text>
</a>
</g>
</g>
<!-- Node20&#45;&gt;Node22 -->
<g id="edge2" class="edge">
<title>Node20&#45;&gt;Node22</title>
<path fill="none" stroke="#191970" d="M141.59,-49.928C153.8253,-40.1397 169.0507,-27.9595 179.4467,-19.6427"/>
<polygon fill="#191970" stroke="#191970" points="139.3153,-47.2655 133.6931,-56.2455 143.6882,-52.7316 139.3153,-47.2655"/>
</g>
</g>
</svg>
