<?xml version="1.0" encoding="UTF-8" standalone="no"?>
<!DOCTYPE svg PUBLIC "-//W3C//DTD SVG 1.1//EN"
 "http://www.w3.org/Graphics/SVG/1.1/DTD/svg11.dtd">
<!-- Generated by graphviz version 2.40.1 (20161225.0304)
 -->
<!-- Title: ViennaRNA/part_func.h Pages: 1 -->
<svg width="1434pt" height="408pt"
 viewBox="0.00 0.00 1434.00 408.00" xmlns="http://www.w3.org/2000/svg" xmlns:xlink="http://www.w3.org/1999/xlink">
<g id="graph0" class="graph" transform="scale(1 1) rotate(0) translate(4 404)">
<title>ViennaRNA/part_func.h</title>
<!-- Node0 -->
<g id="node1" class="node">
<title>Node0</title>
<polygon fill="#bfbfbf" stroke="#000000" points="641,-380.5 641,-399.5 761,-399.5 761,-380.5 641,-380.5"/>
<text text-anchor="middle" x="701" y="-387.5" font-family="Helvetica,sans-Serif" font-size="10.00" fill="#000000">ViennaRNA/part_func.h</text>
</g>
<!-- Node1 -->
<g id="node2" class="node">
<title>Node1</title>
<g id="a_node2"><a xlink:href="datastructures_2basic_8h.html" target="_top" xlink:title="Various data structures and pre&#45;processor macros. ">
<polygon fill="none" stroke="#000000" points="720,-246.5 720,-276.5 854,-276.5 854,-246.5 720,-246.5"/>
<text text-anchor="start" x="728" y="-264.5" font-family="Helvetica,sans-Serif" font-size="10.00" fill="#000000">ViennaRNA/datastructures</text>
<text text-anchor="middle" x="787" y="-253.5" font-family="Helvetica,sans-Serif" font-size="10.00" fill="#000000">/basic.h</text>
</a>
</g>
</g>
<!-- Node0&#45;&gt;Node1 -->
<g id="edge1" class="edge">
<title>Node0&#45;&gt;Node1</title>
<path fill="none" stroke="#191970" d="M701.3752,-380.1868C702.3903,-364.7089 706.1436,-334.2099 720,-313 727.8649,-300.9613 739.5289,-290.5917 750.93,-282.3779"/>
<polygon fill="#191970" stroke="#191970" points="753.2321,-285.0449 759.5299,-276.525 749.2936,-279.2579 753.2321,-285.0449"/>
</g>
<!-- Node6 -->
<g id="node7" class="node">
<title>Node6</title>
<g id="a_node7"><a xlink:href="params_2basic_8h.html" target="_top" xlink:title="Functions to deal with sets of energy parameters. ">
<polygon fill="none" stroke="#000000" points="85,-129 85,-148 223,-148 223,-129 85,-129"/>
<text text-anchor="middle" x="154" y="-136" font-family="Helvetica,sans-Serif" font-size="10.00" fill="#000000">ViennaRNA/params/basic.h</text>
</a>
</g>
</g>
<!-- Node0&#45;&gt;Node6 -->
<g id="edge37" class="edge">
<title>Node0&#45;&gt;Node6</title>
<path fill="none" stroke="#191970" d="M640.7782,-382.72C553.6114,-370.3952 388.9456,-340.3135 263,-277 220.643,-255.7069 207.554,-248.5783 180,-210 168.7569,-194.2586 161.8686,-173.1276 158.032,-157.9254"/>
<polygon fill="#191970" stroke="#191970" points="161.416,-157.0237 155.7591,-148.0654 154.5949,-158.5961 161.416,-157.0237"/>
</g>
<!-- Node17 -->
<g id="node18" class="node">
<title>Node17</title>
<g id="a_node18"><a xlink:href="centroid_8h.html" target="_top" xlink:title="Centroid structure computation. ">
<polygon fill="none" stroke="#000000" points="863,-319 863,-338 977,-338 977,-319 863,-319"/>
<text text-anchor="middle" x="920" y="-326" font-family="Helvetica,sans-Serif" font-size="10.00" fill="#000000">ViennaRNA/centroid.h</text>
</a>
</g>
</g>
<!-- Node0&#45;&gt;Node17 -->
<g id="edge38" class="edge">
<title>Node0&#45;&gt;Node17</title>
<path fill="none" stroke="#191970" d="M735.2188,-380.3906C773.2275,-369.7169 834.6911,-352.4566 876.1884,-340.8033"/>
<polygon fill="#191970" stroke="#191970" points="877.3402,-344.1153 886.0215,-338.0419 875.4477,-337.3759 877.3402,-344.1153"/>
</g>
<!-- Node18 -->
<g id="node19" class="node">
<title>Node18</title>
<g id="a_node19"><a xlink:href="equilibrium__probs_8h.html" target="_top" xlink:title="Equilibrium Probability implementations. ">
<polygon fill="none" stroke="#000000" points="555,-313.5 555,-343.5 673,-343.5 673,-313.5 555,-313.5"/>
<text text-anchor="start" x="563" y="-331.5" font-family="Helvetica,sans-Serif" font-size="10.00" fill="#000000">ViennaRNA/equilibrium</text>
<text text-anchor="middle" x="614" y="-320.5" font-family="Helvetica,sans-Serif" font-size="10.00" fill="#000000">_probs.h</text>
</a>
</g>
</g>
<!-- Node0&#45;&gt;Node18 -->
<g id="edge41" class="edge">
<title>Node0&#45;&gt;Node18</title>
<path fill="none" stroke="#191970" d="M687.4063,-380.3906C675.7409,-372.1444 658.5141,-359.9669 643.68,-349.4807"/>
<polygon fill="#191970" stroke="#191970" points="645.4687,-346.459 635.2826,-343.5446 641.428,-352.175 645.4687,-346.459"/>
</g>
<!-- Node19 -->
<g id="node20" class="node">
<title>Node19</title>
<g id="a_node20"><a xlink:href="boltzmann__sampling_8h.html" target="_top" xlink:title="Boltzmann Sampling of secondary structures from the ensemble. ">
<polygon fill="none" stroke="#000000" points="729,-313.5 729,-343.5 845,-343.5 845,-313.5 729,-313.5"/>
<text text-anchor="start" x="737" y="-331.5" font-family="Helvetica,sans-Serif" font-size="10.00" fill="#000000">ViennaRNA/boltzmann</text>
<text text-anchor="middle" x="787" y="-320.5" font-family="Helvetica,sans-Serif" font-size="10.00" fill="#000000">_sampling.h</text>
</a>
</g>
</g>
<!-- Node0&#45;&gt;Node19 -->
<g id="edge44" class="edge">
<title>Node0&#45;&gt;Node19</title>
<path fill="none" stroke="#191970" d="M714.4375,-380.3906C725.9688,-372.1444 742.9976,-359.9669 757.6611,-349.4807"/>
<polygon fill="#191970" stroke="#191970" points="759.8638,-352.2084 765.962,-343.5446 755.792,-346.5145 759.8638,-352.2084"/>
</g>
<!-- Node2 -->
<g id="node3" class="node">
<title>Node2</title>
<g id="a_node3"><a xlink:href="constants_8h.html" target="_top" xlink:title="Energy parameter constants. ">
<polygon fill="none" stroke="#000000" points="0,-62 0,-81 158,-81 158,-62 0,-62"/>
<text text-anchor="middle" x="79" y="-69" font-family="Helvetica,sans-Serif" font-size="10.00" fill="#000000">ViennaRNA/params/constants.h</text>
</a>
</g>
</g>
<!-- Node1&#45;&gt;Node2 -->
<g id="edge2" class="edge">
<title>Node1&#45;&gt;Node2</title>
<path fill="none" stroke="#191970" d="M719.952,-258.3428C588.0195,-251.6779 299.1743,-234.7241 203,-210 143.2545,-194.6408 109.6904,-205.6758 76,-154 63.7561,-135.2198 67.5949,-108.5885 72.4338,-90.7122"/>
<polygon fill="#191970" stroke="#191970" points="75.7981,-91.6786 75.3626,-81.0927 69.1016,-89.6397 75.7981,-91.6786"/>
</g>
<!-- Node4 -->
<g id="node5" class="node">
<title>Node4</title>
<g id="a_node5"><a xlink:href="fold__compound_8h.html" target="_top" xlink:title="The Basic Fold Compound API. ">
<polygon fill="none" stroke="#000000" points="590,-190.5 590,-209.5 736,-209.5 736,-190.5 590,-190.5"/>
<text text-anchor="middle" x="663" y="-197.5" font-family="Helvetica,sans-Serif" font-size="10.00" fill="#000000">ViennaRNA/fold_compound.h</text>
</a>
</g>
</g>
<!-- Node1&#45;&gt;Node4 -->
<g id="edge4" class="edge">
<title>Node1&#45;&gt;Node4</title>
<path fill="none" stroke="#191970" d="M756.6662,-246.4554C736.7024,-236.554 710.751,-223.683 691.2285,-214.0004"/>
<polygon fill="#191970" stroke="#191970" points="692.7294,-210.838 682.2156,-209.5303 689.6191,-217.1091 692.7294,-210.838"/>
</g>
<!-- Node5 -->
<g id="node6" class="node">
<title>Node5</title>
<g id="a_node6"><a xlink:href="model_8h.html" target="_top" xlink:title="The model details data structure and its corresponding modifiers. ">
<polygon fill="none" stroke="#000000" points="198,-62 198,-81 304,-81 304,-62 198,-62"/>
<text text-anchor="middle" x="251" y="-69" font-family="Helvetica,sans-Serif" font-size="10.00" fill="#000000">ViennaRNA/model.h</text>
</a>
</g>
</g>
<!-- Node1&#45;&gt;Node5 -->
<g id="edge28" class="edge">
<title>Node1&#45;&gt;Node5</title>
<path fill="none" stroke="#191970" d="M719.6273,-256.7518C594.051,-246.4669 331.3613,-217.729 270,-154 253.8841,-137.2622 250.4267,-109.7363 250.1395,-91.1287"/>
<polygon fill="#191970" stroke="#191970" points="253.6394,-91.1584 250.2752,-81.1119 246.64,-91.0635 253.6394,-91.1584"/>
</g>
<!-- Node1&#45;&gt;Node6 -->
<g id="edge29" class="edge">
<title>Node1&#45;&gt;Node6</title>
<path fill="none" stroke="#191970" d="M719.8162,-260.4024C590.9396,-257.4351 314.4846,-246.793 228,-210 200.3864,-198.2524 175.2822,-173.8252 162.1908,-156.8107"/>
<polygon fill="#191970" stroke="#191970" points="164.8078,-154.4449 156.214,-148.2484 159.0679,-158.4516 164.8078,-154.4449"/>
</g>
<!-- Node8 -->
<g id="node9" class="node">
<title>Node8</title>
<g id="a_node9"><a xlink:href="dp__matrices_8h.html" target="_top" xlink:title="Functions to deal with standard dynamic programming (DP) matrices. ">
<polygon fill="none" stroke="#000000" points="1001.5,-129 1001.5,-148 1134.5,-148 1134.5,-129 1001.5,-129"/>
<text text-anchor="middle" x="1068" y="-136" font-family="Helvetica,sans-Serif" font-size="10.00" fill="#000000">ViennaRNA/dp_matrices.h</text>
</a>
</g>
</g>
<!-- Node1&#45;&gt;Node8 -->
<g id="edge30" class="edge">
<title>Node1&#45;&gt;Node8</title>
<path fill="none" stroke="#191970" d="M816.8419,-246.4178C869.2278,-222.2114 976.9989,-175.0677 1032.8778,-151.9444"/>
<polygon fill="#191970" stroke="#191970" points="1034.4389,-155.087 1042.3585,-148.0493 1031.7787,-148.6121 1034.4389,-155.087"/>
</g>
<!-- Node9 -->
<g id="node10" class="node">
<title>Node9</title>
<g id="a_node10"><a xlink:href="hard_8h.html" target="_top" xlink:title="Functions and data structures for handling of secondary structure hard constraints. ">
<polygon fill="none" stroke="#000000" points="864.5,-123.5 864.5,-153.5 983.5,-153.5 983.5,-123.5 864.5,-123.5"/>
<text text-anchor="start" x="872.5" y="-141.5" font-family="Helvetica,sans-Serif" font-size="10.00" fill="#000000">ViennaRNA/constraints</text>
<text text-anchor="middle" x="924" y="-130.5" font-family="Helvetica,sans-Serif" font-size="10.00" fill="#000000">/hard.h</text>
</a>
</g>
</g>
<!-- Node1&#45;&gt;Node9 -->
<g id="edge31" class="edge">
<title>Node1&#45;&gt;Node9</title>
<path fill="none" stroke="#191970" d="M799.1846,-246.4178C820.6206,-224.8395 864.7291,-185.0342 894.4608,-160.2653"/>
<polygon fill="#191970" stroke="#191970" points="896.9356,-162.7616 902.4346,-153.7056 892.4884,-157.3558 896.9356,-162.7616"/>
</g>
<!-- Node11 -->
<g id="node12" class="node">
<title>Node11</title>
<g id="a_node12"><a xlink:href="soft_8h.html" target="_top" xlink:title="Functions and data structures for secondary structure soft constraints. ">
<polygon fill="none" stroke="#000000" points="727.5,-123.5 727.5,-153.5 846.5,-153.5 846.5,-123.5 727.5,-123.5"/>
<text text-anchor="start" x="735.5" y="-141.5" font-family="Helvetica,sans-Serif" font-size="10.00" fill="#000000">ViennaRNA/constraints</text>
<text text-anchor="middle" x="787" y="-130.5" font-family="Helvetica,sans-Serif" font-size="10.00" fill="#000000">/soft.h</text>
</a>
</g>
</g>
<!-- Node1&#45;&gt;Node11 -->
<g id="edge32" class="edge">
<title>Node1&#45;&gt;Node11</title>
<path fill="none" stroke="#191970" d="M782.3857,-246.4178C779.9095,-225.8539 779.5865,-188.7363 781.4169,-163.8546"/>
<polygon fill="#191970" stroke="#191970" points="784.9196,-163.9893 782.3709,-153.7056 777.9503,-163.3341 784.9196,-163.9893"/>
</g>
<!-- Node12 -->
<g id="node13" class="node">
<title>Node12</title>
<g id="a_node13"><a xlink:href="grammar_8h.html" target="_top" xlink:title="Implementations for the RNA folding grammar. ">
<polygon fill="none" stroke="#000000" points="279,-129 279,-148 397,-148 397,-129 279,-129"/>
<text text-anchor="middle" x="338" y="-136" font-family="Helvetica,sans-Serif" font-size="10.00" fill="#000000">ViennaRNA/grammar.h</text>
</a>
</g>
</g>
<!-- Node1&#45;&gt;Node12 -->
<g id="edge33" class="edge">
<title>Node1&#45;&gt;Node12</title>
<path fill="none" stroke="#191970" d="M719.8366,-251.0602C668.36,-241.8742 596.0362,-227.2893 534,-210 473.0049,-193.0008 403.7864,-167.5233 365.9449,-152.0144"/>
<polygon fill="#191970" stroke="#191970" points="367.1568,-148.7277 356.58,-148.1087 364.4623,-155.1884 367.1568,-148.7277"/>
</g>
<!-- Node13 -->
<g id="node14" class="node">
<title>Node13</title>
<g id="a_node14"><a xlink:href="structured__domains_8h.html" target="_top" xlink:title="This module provides interfaces that deal with additional structured domains in the folding grammar...">
<polygon fill="none" stroke="#000000" points="415.5,-123.5 415.5,-153.5 530.5,-153.5 530.5,-123.5 415.5,-123.5"/>
<text text-anchor="start" x="423.5" y="-141.5" font-family="Helvetica,sans-Serif" font-size="10.00" fill="#000000">ViennaRNA/structured</text>
<text text-anchor="middle" x="473" y="-130.5" font-family="Helvetica,sans-Serif" font-size="10.00" fill="#000000">_domains.h</text>
</a>
</g>
</g>
<!-- Node1&#45;&gt;Node13 -->
<g id="edge34" class="edge">
<title>Node1&#45;&gt;Node13</title>
<path fill="none" stroke="#191970" d="M719.702,-250.6706C678.5061,-242.5947 625.3643,-229.5403 581,-210 551.1565,-196.8554 520.4672,-175.6586 499.4672,-159.7507"/>
<polygon fill="#191970" stroke="#191970" points="501.4247,-156.8406 491.3665,-153.5115 497.1533,-162.3864 501.4247,-156.8406"/>
</g>
<!-- Node14 -->
<g id="node15" class="node">
<title>Node14</title>
<g id="a_node15"><a xlink:href="unstructured__domains_8h.html" target="_top" xlink:title="Functions to modify unstructured domains, e.g. to incorporate ligands binding to unpaired stretches...">
<polygon fill="none" stroke="#000000" points="1191.5,-123.5 1191.5,-153.5 1316.5,-153.5 1316.5,-123.5 1191.5,-123.5"/>
<text text-anchor="start" x="1199.5" y="-141.5" font-family="Helvetica,sans-Serif" font-size="10.00" fill="#000000">ViennaRNA/unstructured</text>
<text text-anchor="middle" x="1254" y="-130.5" font-family="Helvetica,sans-Serif" font-size="10.00" fill="#000000">_domains.h</text>
</a>
</g>
</g>
<!-- Node1&#45;&gt;Node14 -->
<g id="edge35" class="edge">
<title>Node1&#45;&gt;Node14</title>
<path fill="none" stroke="#191970" d="M854.2461,-257.138C948.2771,-250.4612 1113.3879,-235.6993 1168,-210 1191.6891,-198.8524 1213.0173,-177.7326 1228.7723,-161.325"/>
<polygon fill="#191970" stroke="#191970" points="1231.6673,-163.3615 1236.0448,-153.7132 1226.606,-158.5258 1231.6673,-163.3615"/>
</g>
<!-- Node15 -->
<g id="node16" class="node">
<title>Node15</title>
<g id="a_node16"><a xlink:href="utils_2structures_8h.html" target="_top" xlink:title="Various utility&#45; and helper&#45;functions for secondary structure parsing, converting, etc. ">
<polygon fill="none" stroke="#000000" points="1282,-62 1282,-81 1426,-81 1426,-62 1282,-62"/>
<text text-anchor="middle" x="1354" y="-69" font-family="Helvetica,sans-Serif" font-size="10.00" fill="#000000">ViennaRNA/utils/structures.h</text>
</a>
</g>
</g>
<!-- Node1&#45;&gt;Node15 -->
<g id="edge36" class="edge">
<title>Node1&#45;&gt;Node15</title>
<path fill="none" stroke="#191970" d="M854.2466,-255.7268C955.1695,-246.9899 1140.5499,-229.3618 1205,-210 1258.3,-193.9878 1280.4216,-195.944 1317,-154 1332.633,-136.0739 1339.6254,-109.041 1344.7798,-90.8535"/>
<polygon fill="#191970" stroke="#191970" points="1348.1946,-91.6525 1347.7328,-81.0677 1341.493,-89.6302 1348.1946,-91.6525"/>
</g>
<!-- Node3 -->
<g id="node4" class="node">
<title>Node3</title>
<polygon fill="none" stroke="#bfbfbf" points="55,-.5 55,-19.5 103,-19.5 103,-.5 55,-.5"/>
<text text-anchor="middle" x="79" y="-7.5" font-family="Helvetica,sans-Serif" font-size="10.00" fill="#000000">limits.h</text>
</g>
<!-- Node2&#45;&gt;Node3 -->
<g id="edge3" class="edge">
<title>Node2&#45;&gt;Node3</title>
<path fill="none" stroke="#191970" d="M79,-61.8906C79,-53.3657 79,-40.6392 79,-29.9235"/>
<polygon fill="#191970" stroke="#191970" points="82.5001,-29.7448 79,-19.7449 75.5001,-29.7449 82.5001,-29.7448"/>
</g>
<!-- Node4&#45;&gt;Node5 -->
<g id="edge5" class="edge">
<title>Node4&#45;&gt;Node5</title>
<path fill="none" stroke="#191970" d="M642.8491,-190.3536C625.2558,-181.6394 599.28,-168.0586 578,-154 559.5255,-141.7949 559.1789,-132.1151 539,-123 499.8437,-105.3126 386.6617,-88.5111 314.3958,-79.1493"/>
<polygon fill="#191970" stroke="#191970" points="314.408,-75.6224 304.0442,-77.8229 313.5182,-82.5656 314.408,-75.6224"/>
</g>
<!-- Node4&#45;&gt;Node6 -->
<g id="edge6" class="edge">
<title>Node4&#45;&gt;Node6</title>
<path fill="none" stroke="#191970" d="M589.801,-191.7935C510.8414,-182.8567 381.4445,-167.9669 270,-154 258.1874,-152.5196 245.7053,-150.9048 233.479,-149.2948"/>
<polygon fill="#191970" stroke="#191970" points="233.6621,-145.7886 223.2894,-147.9466 232.7438,-152.7281 233.6621,-145.7886"/>
</g>
<!-- Node7 -->
<g id="node8" class="node">
<title>Node7</title>
<g id="a_node8"><a xlink:href="sequence_8h.html" target="_top" xlink:title="Functions and data structures related to sequence representations ,. ">
<polygon fill="none" stroke="#000000" points="587,-129 587,-148 709,-148 709,-129 587,-129"/>
<text text-anchor="middle" x="648" y="-136" font-family="Helvetica,sans-Serif" font-size="10.00" fill="#000000">ViennaRNA/sequence.h</text>
</a>
</g>
</g>
<!-- Node4&#45;&gt;Node7 -->
<g id="edge10" class="edge">
<title>Node4&#45;&gt;Node7</title>
<path fill="none" stroke="#191970" d="M660.6563,-190.3906C658.5551,-181.776 655.4075,-168.8708 652.777,-158.0858"/>
<polygon fill="#191970" stroke="#191970" points="656.1468,-157.1307 650.3768,-148.2449 649.3461,-158.7894 656.1468,-157.1307"/>
</g>
<!-- Node4&#45;&gt;Node8 -->
<g id="edge11" class="edge">
<title>Node4&#45;&gt;Node8</title>
<path fill="none" stroke="#191970" d="M736.2857,-191.1781C803.3003,-182.7806 905.0768,-169.1967 993,-154 999.7781,-152.8285 1006.8796,-151.4974 1013.897,-150.1192"/>
<polygon fill="#191970" stroke="#191970" points="1014.9539,-153.477 1024.0707,-148.0793 1013.5777,-146.6136 1014.9539,-153.477"/>
</g>
<!-- Node4&#45;&gt;Node9 -->
<g id="edge13" class="edge">
<title>Node4&#45;&gt;Node9</title>
<path fill="none" stroke="#191970" d="M703.4949,-190.4581C743.8154,-180.9573 806.486,-166.1901 854.7247,-154.8235"/>
<polygon fill="#191970" stroke="#191970" points="855.5465,-158.2258 864.4772,-152.5255 853.941,-151.4124 855.5465,-158.2258"/>
</g>
<!-- Node4&#45;&gt;Node11 -->
<g id="edge17" class="edge">
<title>Node4&#45;&gt;Node11</title>
<path fill="none" stroke="#191970" d="M682.375,-190.3906C699.7784,-181.7591 725.8666,-168.8202 747.6379,-158.0224"/>
<polygon fill="#191970" stroke="#191970" points="749.2626,-161.1234 756.6662,-153.5446 746.1524,-154.8523 749.2626,-161.1234"/>
</g>
<!-- Node4&#45;&gt;Node12 -->
<g id="edge20" class="edge">
<title>Node4&#45;&gt;Node12</title>
<path fill="none" stroke="#191970" d="M605.4374,-190.4931C553.255,-181.6858 474.2928,-167.8872 406,-154 400.299,-152.8407 394.3426,-151.5706 388.4276,-150.2721"/>
<polygon fill="#191970" stroke="#191970" points="389.0863,-146.8331 378.5645,-148.0745 387.564,-153.6656 389.0863,-146.8331"/>
</g>
<!-- Node4&#45;&gt;Node13 -->
<g id="edge22" class="edge">
<title>Node4&#45;&gt;Node13</title>
<path fill="none" stroke="#191970" d="M633.3125,-190.3906C605.5745,-181.4123 563.4385,-167.7735 529.3253,-156.7316"/>
<polygon fill="#191970" stroke="#191970" points="530.0711,-153.2943 519.4792,-153.5446 527.9154,-159.9541 530.0711,-153.2943"/>
</g>
<!-- Node4&#45;&gt;Node14 -->
<g id="edge23" class="edge">
<title>Node4&#45;&gt;Node14</title>
<path fill="none" stroke="#191970" d="M736.0404,-194.0363C830.3938,-186.0981 999.6691,-171.0616 1144,-154 1155.9703,-152.585 1168.6523,-150.937 1180.9849,-149.2542"/>
<polygon fill="#191970" stroke="#191970" points="1181.8123,-152.6732 1191.2388,-147.8367 1180.8538,-145.7391 1181.8123,-152.6732"/>
</g>
<!-- Node6&#45;&gt;Node1 -->
<g id="edge8" class="edge">
<title>Node6&#45;&gt;Node1</title>
<path fill="none" stroke="#191970" d="M167.1982,-148.2484C184.0704,-164.3433 213.2728,-196.0769 246,-210 327.9488,-244.8633 580.4639,-256.2468 709.4969,-259.8696"/>
<polygon fill="#191970" stroke="#191970" points="709.611,-263.3739 719.7025,-260.1471 709.8014,-256.3764 709.611,-263.3739"/>
</g>
<!-- Node6&#45;&gt;Node2 -->
<g id="edge7" class="edge">
<title>Node6&#45;&gt;Node2</title>
<path fill="none" stroke="#191970" d="M143.2543,-128.9005C131.336,-118.2535 111.8943,-100.8856 97.5132,-88.0385"/>
<polygon fill="#191970" stroke="#191970" points="99.5151,-85.1337 89.7257,-81.0817 94.8516,-90.354 99.5151,-85.1337"/>
</g>
<!-- Node6&#45;&gt;Node5 -->
<g id="edge9" class="edge">
<title>Node6&#45;&gt;Node5</title>
<path fill="none" stroke="#191970" d="M167.8977,-128.9005C183.8164,-117.9052 210.1121,-99.7422 228.8599,-86.7927"/>
<polygon fill="#191970" stroke="#191970" points="230.8892,-89.6448 237.128,-81.0817 226.9108,-83.8852 230.8892,-89.6448"/>
</g>
<!-- Node8&#45;&gt;Node1 -->
<g id="edge12" class="edge">
<title>Node8&#45;&gt;Node1</title>
<path fill="none" stroke="#191970" d="M1050.0099,-148.0493C1007.2193,-168.285 899.0585,-215.807 835.4924,-242.4812"/>
<polygon fill="#191970" stroke="#191970" points="833.9481,-239.3331 826.0704,-246.4178 836.6467,-245.7921 833.9481,-239.3331"/>
</g>
<!-- Node9&#45;&gt;Node1 -->
<g id="edge14" class="edge">
<title>Node9&#45;&gt;Node1</title>
<path fill="none" stroke="#191970" d="M911.6928,-153.7056C890.1707,-175.3531 846.0465,-215.1643 816.3696,-239.8759"/>
<polygon fill="#191970" stroke="#191970" points="813.9146,-237.3633 808.4131,-246.4178 818.3603,-242.7703 813.9146,-237.3633"/>
</g>
<!-- Node10 -->
<g id="node11" class="node">
<title>Node10</title>
<g id="a_node11"><a xlink:href="constraints_2basic_8h.html" target="_top" xlink:title="Functions and data structures for constraining secondary structure predictions and evaluation...">
<polygon fill="none" stroke="#000000" points="864.5,-56.5 864.5,-86.5 983.5,-86.5 983.5,-56.5 864.5,-56.5"/>
<text text-anchor="start" x="872.5" y="-74.5" font-family="Helvetica,sans-Serif" font-size="10.00" fill="#000000">ViennaRNA/constraints</text>
<text text-anchor="middle" x="924" y="-63.5" font-family="Helvetica,sans-Serif" font-size="10.00" fill="#000000">/basic.h</text>
</a>
</g>
</g>
<!-- Node9&#45;&gt;Node10 -->
<g id="edge15" class="edge">
<title>Node9&#45;&gt;Node10</title>
<path fill="none" stroke="#191970" d="M924,-123.2967C924,-115.5013 924,-105.7991 924,-96.9064"/>
<polygon fill="#191970" stroke="#191970" points="927.5001,-96.6431 924,-86.6432 920.5001,-96.6432 927.5001,-96.6431"/>
</g>
<!-- Node10&#45;&gt;Node1 -->
<g id="edge16" class="edge">
<title>Node10&#45;&gt;Node1</title>
<path fill="none" stroke="#191970" d="M983.757,-77.2257C1041.9137,-84.1798 1124.3193,-98.1802 1144,-123 1152.5604,-133.7957 1152.2187,-142.942 1144,-154 1110.5645,-198.9866 958.9765,-232.3051 864.4042,-249.1535"/>
<polygon fill="#191970" stroke="#191970" points="863.5449,-245.7508 854.3019,-250.9294 864.7569,-252.6451 863.5449,-245.7508"/>
</g>
<!-- Node11&#45;&gt;Node1 -->
<g id="edge18" class="edge">
<title>Node11&#45;&gt;Node1</title>
<path fill="none" stroke="#191970" d="M791.6291,-153.7056C794.0967,-174.3355 794.4111,-211.4615 792.5721,-236.2943"/>
<polygon fill="#191970" stroke="#191970" points="789.0719,-236.1325 791.6143,-246.4178 796.0408,-236.792 789.0719,-236.1325"/>
</g>
<!-- Node11&#45;&gt;Node10 -->
<g id="edge19" class="edge">
<title>Node11&#45;&gt;Node10</title>
<path fill="none" stroke="#191970" d="M817.7455,-123.4639C837.2624,-113.9191 862.7257,-101.4663 883.8325,-91.144"/>
<polygon fill="#191970" stroke="#191970" points="885.4375,-94.2552 892.8831,-86.7177 882.3622,-87.9669 885.4375,-94.2552"/>
</g>
<!-- Node12&#45;&gt;Node1 -->
<g id="edge21" class="edge">
<title>Node12&#45;&gt;Node1</title>
<path fill="none" stroke="#191970" d="M368.0049,-148.1087C409.3498,-162.9022 485.5542,-191.4817 552,-210 604.2588,-224.5644 663.8178,-237.2096 709.9545,-246.3251"/>
<polygon fill="#191970" stroke="#191970" points="709.3986,-249.7826 719.8854,-248.274 710.7466,-242.9137 709.3986,-249.7826"/>
</g>
<!-- Node14&#45;&gt;Node1 -->
<g id="edge24" class="edge">
<title>Node14&#45;&gt;Node1</title>
<path fill="none" stroke="#191970" d="M1249.0479,-153.7132C1237.9342,-170.5536 1213.5655,-197.0282 1186,-210 1131.0355,-235.8651 964.1415,-250.6512 864.3949,-257.2662"/>
<polygon fill="#191970" stroke="#191970" points="864.1145,-253.777 854.3629,-257.919 864.5691,-260.7622 864.1145,-253.777"/>
</g>
<!-- Node14&#45;&gt;Node15 -->
<g id="edge25" class="edge">
<title>Node14&#45;&gt;Node15</title>
<path fill="none" stroke="#191970" d="M1276.6915,-123.2967C1293.0283,-112.351 1314.9759,-97.6462 1331.3119,-86.701"/>
<polygon fill="#191970" stroke="#191970" points="1333.3793,-89.5289 1339.7388,-81.055 1329.483,-83.7135 1333.3793,-89.5289"/>
</g>
<!-- Node15&#45;&gt;Node1 -->
<g id="edge27" class="edge">
<title>Node15&#45;&gt;Node1</title>
<path fill="none" stroke="#191970" d="M1358.4895,-81.0677C1360.0965,-97.7551 1353.7889,-132.455 1335,-154 1298.4216,-195.944 1276.3,-193.9878 1223,-210 1158.2259,-229.4592 971.3024,-247.1671 864.3524,-255.8579"/>
<polygon fill="#191970" stroke="#191970" points="863.9456,-252.3793 854.2588,-256.6706 864.5075,-259.3567 863.9456,-252.3793"/>
</g>
<!-- Node16 -->
<g id="node17" class="node">
<title>Node16</title>
<polygon fill="none" stroke="#bfbfbf" points="1331,-.5 1331,-19.5 1377,-19.5 1377,-.5 1331,-.5"/>
<text text-anchor="middle" x="1354" y="-7.5" font-family="Helvetica,sans-Serif" font-size="10.00" fill="#000000">stdio.h</text>
</g>
<!-- Node15&#45;&gt;Node16 -->
<g id="edge26" class="edge">
<title>Node15&#45;&gt;Node16</title>
<path fill="none" stroke="#191970" d="M1354,-61.8906C1354,-53.3657 1354,-40.6392 1354,-29.9235"/>
<polygon fill="#191970" stroke="#191970" points="1357.5001,-29.7448 1354,-19.7449 1350.5001,-29.7449 1357.5001,-29.7448"/>
</g>
<!-- Node17&#45;&gt;Node1 -->
<g id="edge39" class="edge">
<title>Node17&#45;&gt;Node1</title>
<path fill="none" stroke="#191970" d="M900.9443,-318.9005C881.455,-309.0826 850.6212,-293.5498 825.9406,-281.1167"/>
<polygon fill="#191970" stroke="#191970" points="827.3248,-277.895 816.8193,-276.5218 824.1755,-284.1466 827.3248,-277.895"/>
</g>
<!-- Node17&#45;&gt;Node15 -->
<g id="edge40" class="edge">
<title>Node17&#45;&gt;Node15</title>
<path fill="none" stroke="#191970" d="M957.5698,-318.9353C1022.7887,-301.6395 1160.3798,-262.072 1269,-210 1310.8034,-189.9597 1334.6917,-194.6384 1357,-154 1367.6805,-134.5437 1364.3415,-108.4374 1360.0361,-90.8461"/>
<polygon fill="#191970" stroke="#191970" points="1363.3874,-89.8333 1357.3472,-81.1289 1356.641,-91.7002 1363.3874,-89.8333"/>
</g>
<!-- Node18&#45;&gt;Node1 -->
<g id="edge42" class="edge">
<title>Node18&#45;&gt;Node1</title>
<path fill="none" stroke="#191970" d="M652.8246,-313.4639C678.1113,-303.6708 711.3029,-290.8162 738.3468,-280.3426"/>
<polygon fill="#191970" stroke="#191970" points="739.945,-283.477 748.0061,-276.6017 737.417,-276.9494 739.945,-283.477"/>
</g>
<!-- Node18&#45;&gt;Node6 -->
<g id="edge43" class="edge">
<title>Node18&#45;&gt;Node6</title>
<path fill="none" stroke="#191970" d="M554.7822,-323.9827C469.655,-314.8949 311.0724,-288.0303 203,-210 184.4093,-196.5772 170.5898,-173.8022 162.448,-157.5636"/>
<polygon fill="#191970" stroke="#191970" points="165.5682,-155.9748 158.1204,-148.4395 159.2436,-158.9747 165.5682,-155.9748"/>
</g>
<!-- Node19&#45;&gt;Node1 -->
<g id="edge45" class="edge">
<title>Node19&#45;&gt;Node1</title>
<path fill="none" stroke="#191970" d="M787,-313.2967C787,-305.5013 787,-295.7991 787,-286.9064"/>
<polygon fill="#191970" stroke="#191970" points="790.5001,-286.6431 787,-276.6432 783.5001,-286.6432 790.5001,-286.6431"/>
</g>
</g>
</svg>
