<?xml version="1.0" encoding="UTF-8" standalone="no"?>
<!DOCTYPE svg PUBLIC "-//W3C//DTD SVG 1.1//EN"
 "http://www.w3.org/Graphics/SVG/1.1/DTD/svg11.dtd">
<!-- Generated by graphviz version 2.40.1 (20161225.0304)
 -->
<!-- Title: ViennaRNA/part_func_co.h Pages: 1 -->
<svg width="1467pt" height="464pt"
 viewBox="0.00 0.00 1467.00 464.00" xmlns="http://www.w3.org/2000/svg" xmlns:xlink="http://www.w3.org/1999/xlink">
<g id="graph0" class="graph" transform="scale(1 1) rotate(0) translate(4 460)">
<title>ViennaRNA/part_func_co.h</title>
<!-- Node0 -->
<g id="node1" class="node">
<title>Node0</title>
<polygon fill="#bfbfbf" stroke="#000000" points="1195,-436.5 1195,-455.5 1331,-455.5 1331,-436.5 1195,-436.5"/>
<text text-anchor="middle" x="1263" y="-443.5" font-family="Helvetica,sans-Serif" font-size="10.00" fill="#000000">ViennaRNA/part_func_co.h</text>
</g>
<!-- Node1 -->
<g id="node2" class="node">
<title>Node1</title>
<g id="a_node2"><a xlink:href="datastructures_2basic_8h.html" target="_top" xlink:title="Various data structures and pre&#45;processor macros. ">
<polygon fill="none" stroke="#000000" points="689,-246.5 689,-276.5 823,-276.5 823,-246.5 689,-246.5"/>
<text text-anchor="start" x="697" y="-264.5" font-family="Helvetica,sans-Serif" font-size="10.00" fill="#000000">ViennaRNA/datastructures</text>
<text text-anchor="middle" x="756" y="-253.5" font-family="Helvetica,sans-Serif" font-size="10.00" fill="#000000">/basic.h</text>
</a>
</g>
</g>
<!-- Node0&#45;&gt;Node1 -->
<g id="edge1" class="edge">
<title>Node0&#45;&gt;Node1</title>
<path fill="none" stroke="#191970" d="M1254.8477,-436.2368C1233.1388,-410.9839 1170.9304,-343.3704 1103,-313 1056.1366,-292.0483 920.5262,-276.3585 833.3691,-268.0858"/>
<polygon fill="#191970" stroke="#191970" points="833.5356,-264.5861 823.2528,-267.1381 832.8827,-271.5556 833.5356,-264.5861"/>
</g>
<!-- Node6 -->
<g id="node7" class="node">
<title>Node6</title>
<g id="a_node7"><a xlink:href="params_2basic_8h.html" target="_top" xlink:title="Functions to deal with sets of energy parameters. ">
<polygon fill="none" stroke="#000000" points="1241,-129 1241,-148 1379,-148 1379,-129 1241,-129"/>
<text text-anchor="middle" x="1310" y="-136" font-family="Helvetica,sans-Serif" font-size="10.00" fill="#000000">ViennaRNA/params/basic.h</text>
</a>
</g>
</g>
<!-- Node0&#45;&gt;Node6 -->
<g id="edge37" class="edge">
<title>Node0&#45;&gt;Node6</title>
<path fill="none" stroke="#191970" d="M1321.2758,-436.4709C1379.0513,-423.3049 1459,-393.3669 1459,-328.5 1459,-328.5 1459,-328.5 1459,-261.5 1459,-204.7436 1393.9087,-169.2803 1349.7702,-151.7571"/>
<polygon fill="#191970" stroke="#191970" points="1350.7431,-148.3823 1340.1524,-148.0877 1348.2478,-154.9225 1350.7431,-148.3823"/>
</g>
<!-- Node17 -->
<g id="node18" class="node">
<title>Node17</title>
<g id="a_node18"><a xlink:href="part__func_8h.html" target="_top" xlink:title="Partition function implementations. ">
<polygon fill="none" stroke="#000000" points="1002,-380.5 1002,-399.5 1122,-399.5 1122,-380.5 1002,-380.5"/>
<text text-anchor="middle" x="1062" y="-387.5" font-family="Helvetica,sans-Serif" font-size="10.00" fill="#000000">ViennaRNA/part_func.h</text>
</a>
</g>
</g>
<!-- Node0&#45;&gt;Node17 -->
<g id="edge38" class="edge">
<title>Node0&#45;&gt;Node17</title>
<path fill="none" stroke="#191970" d="M1228.4469,-436.3733C1194.5896,-426.9404 1142.854,-412.5265 1106.0574,-402.2747"/>
<polygon fill="#191970" stroke="#191970" points="1106.6747,-398.8135 1096.1022,-399.5011 1104.796,-405.5566 1106.6747,-398.8135"/>
</g>
<!-- Node19 -->
<g id="node20" class="node">
<title>Node19</title>
<g id="a_node20"><a xlink:href="equilibrium__probs_8h.html" target="_top" xlink:title="Equilibrium Probability implementations. ">
<polygon fill="none" stroke="#000000" points="1204,-313.5 1204,-343.5 1322,-343.5 1322,-313.5 1204,-313.5"/>
<text text-anchor="start" x="1212" y="-331.5" font-family="Helvetica,sans-Serif" font-size="10.00" fill="#000000">ViennaRNA/equilibrium</text>
<text text-anchor="middle" x="1263" y="-320.5" font-family="Helvetica,sans-Serif" font-size="10.00" fill="#000000">_probs.h</text>
</a>
</g>
</g>
<!-- Node0&#45;&gt;Node19 -->
<g id="edge49" class="edge">
<title>Node0&#45;&gt;Node19</title>
<path fill="none" stroke="#191970" d="M1263,-436.3845C1263,-418.544 1263,-379.7839 1263,-353.9138"/>
<polygon fill="#191970" stroke="#191970" points="1266.5001,-353.7143 1263,-343.7143 1259.5001,-353.7143 1266.5001,-353.7143"/>
</g>
<!-- Node21 -->
<g id="node22" class="node">
<title>Node21</title>
<g id="a_node22"><a xlink:href="concentrations_8h.html" target="_top" xlink:title="Concentration computations for RNA&#45;RNA interactions. ">
<polygon fill="none" stroke="#000000" points="1287.5,-252 1287.5,-271 1430.5,-271 1430.5,-252 1287.5,-252"/>
<text text-anchor="middle" x="1359" y="-259" font-family="Helvetica,sans-Serif" font-size="10.00" fill="#000000">ViennaRNA/concentrations.h</text>
</a>
</g>
</g>
<!-- Node0&#45;&gt;Node21 -->
<g id="edge50" class="edge">
<title>Node0&#45;&gt;Node21</title>
<path fill="none" stroke="#191970" d="M1270.6665,-436.3905C1284.3311,-418.8912 1313.135,-380.2769 1331,-344 1341.0861,-323.519 1349.0123,-298.5099 1353.8193,-281.432"/>
<polygon fill="#191970" stroke="#191970" points="1357.2782,-282.0496 1356.5191,-271.482 1350.5225,-280.2164 1357.2782,-282.0496"/>
</g>
<!-- Node2 -->
<g id="node3" class="node">
<title>Node2</title>
<g id="a_node3"><a xlink:href="constants_8h.html" target="_top" xlink:title="Energy parameter constants. ">
<polygon fill="none" stroke="#000000" points="1231,-62 1231,-81 1389,-81 1389,-62 1231,-62"/>
<text text-anchor="middle" x="1310" y="-69" font-family="Helvetica,sans-Serif" font-size="10.00" fill="#000000">ViennaRNA/params/constants.h</text>
</a>
</g>
</g>
<!-- Node1&#45;&gt;Node2 -->
<g id="edge2" class="edge">
<title>Node1&#45;&gt;Node2</title>
<path fill="none" stroke="#191970" d="M823.0674,-258.8259C891.1632,-254.3322 998.7139,-242.287 1086,-210 1107.5861,-202.0153 1233.7888,-120.9109 1286.6863,-86.648"/>
<polygon fill="#191970" stroke="#191970" points="1288.6098,-89.5722 1295.0964,-81.1951 1284.8016,-83.6987 1288.6098,-89.5722"/>
</g>
<!-- Node4 -->
<g id="node5" class="node">
<title>Node4</title>
<g id="a_node5"><a xlink:href="fold__compound_8h.html" target="_top" xlink:title="The Basic Fold Compound API. ">
<polygon fill="none" stroke="#000000" points="793,-190.5 793,-209.5 939,-209.5 939,-190.5 793,-190.5"/>
<text text-anchor="middle" x="866" y="-197.5" font-family="Helvetica,sans-Serif" font-size="10.00" fill="#000000">ViennaRNA/fold_compound.h</text>
</a>
</g>
</g>
<!-- Node1&#45;&gt;Node4 -->
<g id="edge4" class="edge">
<title>Node1&#45;&gt;Node4</title>
<path fill="none" stroke="#191970" d="M782.909,-246.4554C800.2968,-236.734 822.8049,-224.15 840.0084,-214.5317"/>
<polygon fill="#191970" stroke="#191970" points="841.9335,-217.4653 848.9539,-209.5303 838.5174,-211.3554 841.9335,-217.4653"/>
</g>
<!-- Node5 -->
<g id="node6" class="node">
<title>Node5</title>
<g id="a_node6"><a xlink:href="model_8h.html" target="_top" xlink:title="The model details data structure and its corresponding modifiers. ">
<polygon fill="none" stroke="#000000" points="1107,-62 1107,-81 1213,-81 1213,-62 1107,-62"/>
<text text-anchor="middle" x="1160" y="-69" font-family="Helvetica,sans-Serif" font-size="10.00" fill="#000000">ViennaRNA/model.h</text>
</a>
</g>
</g>
<!-- Node1&#45;&gt;Node5 -->
<g id="edge28" class="edge">
<title>Node1&#45;&gt;Node5</title>
<path fill="none" stroke="#191970" d="M823.1645,-253.2988C926.2332,-239.1777 1115.746,-206.6129 1156,-154 1169.7023,-136.0908 1168.08,-109.054 1164.7898,-90.861"/>
<polygon fill="#191970" stroke="#191970" points="1168.2114,-90.1238 1162.7056,-81.0719 1161.3648,-91.5815 1168.2114,-90.1238"/>
</g>
<!-- Node1&#45;&gt;Node6 -->
<g id="edge29" class="edge">
<title>Node1&#45;&gt;Node6</title>
<path fill="none" stroke="#191970" d="M823.0242,-255.1452C919.7233,-245.9674 1093.16,-228.1081 1154,-210 1199.8496,-196.3536 1249.0524,-169.679 1279.8836,-153.0495"/>
<polygon fill="#191970" stroke="#191970" points="1281.6867,-156.0539 1288.838,-148.2366 1278.3727,-149.8881 1281.6867,-156.0539"/>
</g>
<!-- Node8 -->
<g id="node9" class="node">
<title>Node8</title>
<g id="a_node9"><a xlink:href="dp__matrices_8h.html" target="_top" xlink:title="Functions to deal with standard dynamic programming (DP) matrices. ">
<polygon fill="none" stroke="#000000" points="109.5,-129 109.5,-148 242.5,-148 242.5,-129 109.5,-129"/>
<text text-anchor="middle" x="176" y="-136" font-family="Helvetica,sans-Serif" font-size="10.00" fill="#000000">ViennaRNA/dp_matrices.h</text>
</a>
</g>
</g>
<!-- Node1&#45;&gt;Node8 -->
<g id="edge30" class="edge">
<title>Node1&#45;&gt;Node8</title>
<path fill="none" stroke="#191970" d="M688.9342,-253.1981C623.9717,-244.1677 523.1417,-228.518 437,-210 355.8356,-192.552 262.4735,-166.4628 212.2216,-151.094"/>
<polygon fill="#191970" stroke="#191970" points="213.0551,-147.6883 202.4674,-148.0766 210.9864,-154.3756 213.0551,-147.6883"/>
</g>
<!-- Node9 -->
<g id="node10" class="node">
<title>Node9</title>
<g id="a_node10"><a xlink:href="hard_8h.html" target="_top" xlink:title="Functions and data structures for handling of secondary structure hard constraints. ">
<polygon fill="none" stroke="#000000" points="403.5,-123.5 403.5,-153.5 522.5,-153.5 522.5,-123.5 403.5,-123.5"/>
<text text-anchor="start" x="411.5" y="-141.5" font-family="Helvetica,sans-Serif" font-size="10.00" fill="#000000">ViennaRNA/constraints</text>
<text text-anchor="middle" x="463" y="-130.5" font-family="Helvetica,sans-Serif" font-size="10.00" fill="#000000">/hard.h</text>
</a>
</g>
</g>
<!-- Node1&#45;&gt;Node9 -->
<g id="edge31" class="edge">
<title>Node1&#45;&gt;Node9</title>
<path fill="none" stroke="#191970" d="M688.8598,-256.1522C641.3685,-250.0501 577.7122,-237.1315 528,-210 506.0368,-198.0131 485.9554,-177.74 473.7452,-161.8359"/>
<polygon fill="#191970" stroke="#191970" points="476.4715,-159.631 467.8095,-153.5301 470.7763,-163.7011 476.4715,-159.631"/>
</g>
<!-- Node11 -->
<g id="node12" class="node">
<title>Node11</title>
<g id="a_node12"><a xlink:href="soft_8h.html" target="_top" xlink:title="Functions and data structures for secondary structure soft constraints. ">
<polygon fill="none" stroke="#000000" points="579.5,-123.5 579.5,-153.5 698.5,-153.5 698.5,-123.5 579.5,-123.5"/>
<text text-anchor="start" x="587.5" y="-141.5" font-family="Helvetica,sans-Serif" font-size="10.00" fill="#000000">ViennaRNA/constraints</text>
<text text-anchor="middle" x="639" y="-130.5" font-family="Helvetica,sans-Serif" font-size="10.00" fill="#000000">/soft.h</text>
</a>
</g>
</g>
<!-- Node1&#45;&gt;Node11 -->
<g id="edge32" class="edge">
<title>Node1&#45;&gt;Node11</title>
<path fill="none" stroke="#191970" d="M737.0392,-246.4178C714.3104,-225.2084 677.122,-186.3897 655.5198,-161.5485"/>
<polygon fill="#191970" stroke="#191970" points="657.9854,-159.0457 648.8348,-153.7056 652.6581,-163.5865 657.9854,-159.0457"/>
</g>
<!-- Node12 -->
<g id="node13" class="node">
<title>Node12</title>
<g id="a_node13"><a xlink:href="grammar_8h.html" target="_top" xlink:title="Implementations for the RNA folding grammar. ">
<polygon fill="none" stroke="#000000" points="717,-129 717,-148 835,-148 835,-129 717,-129"/>
<text text-anchor="middle" x="776" y="-136" font-family="Helvetica,sans-Serif" font-size="10.00" fill="#000000">ViennaRNA/grammar.h</text>
</a>
</g>
</g>
<!-- Node1&#45;&gt;Node12 -->
<g id="edge33" class="edge">
<title>Node1&#45;&gt;Node12</title>
<path fill="none" stroke="#191970" d="M753.8381,-246.4178C754.781,-224.0657 761.4481,-182.1559 767.8277,-157.6602"/>
<polygon fill="#191970" stroke="#191970" points="771.191,-158.6288 770.6216,-148.0493 764.4692,-156.6748 771.191,-158.6288"/>
</g>
<!-- Node13 -->
<g id="node14" class="node">
<title>Node13</title>
<g id="a_node14"><a xlink:href="structured__domains_8h.html" target="_top" xlink:title="This module provides interfaces that deal with additional structured domains in the folding grammar...">
<polygon fill="none" stroke="#000000" points="1031.5,-123.5 1031.5,-153.5 1146.5,-153.5 1146.5,-123.5 1031.5,-123.5"/>
<text text-anchor="start" x="1039.5" y="-141.5" font-family="Helvetica,sans-Serif" font-size="10.00" fill="#000000">ViennaRNA/structured</text>
<text text-anchor="middle" x="1089" y="-130.5" font-family="Helvetica,sans-Serif" font-size="10.00" fill="#000000">_domains.h</text>
</a>
</g>
</g>
<!-- Node1&#45;&gt;Node13 -->
<g id="edge34" class="edge">
<title>Node1&#45;&gt;Node13</title>
<path fill="none" stroke="#191970" d="M823.2794,-247.0698C860.6184,-238.1673 907.5517,-225.4878 948,-210 985.5366,-195.627 1026.2688,-174.3003 1054.2568,-158.6791"/>
<polygon fill="#191970" stroke="#191970" points="1056.2433,-161.5773 1063.2368,-153.6185 1052.8066,-155.4789 1056.2433,-161.5773"/>
</g>
<!-- Node14 -->
<g id="node15" class="node">
<title>Node14</title>
<g id="a_node15"><a xlink:href="unstructured__domains_8h.html" target="_top" xlink:title="Functions to modify unstructured domains, e.g. to incorporate ligands binding to unpaired stretches...">
<polygon fill="none" stroke="#000000" points="260.5,-123.5 260.5,-153.5 385.5,-153.5 385.5,-123.5 260.5,-123.5"/>
<text text-anchor="start" x="268.5" y="-141.5" font-family="Helvetica,sans-Serif" font-size="10.00" fill="#000000">ViennaRNA/unstructured</text>
<text text-anchor="middle" x="323" y="-130.5" font-family="Helvetica,sans-Serif" font-size="10.00" fill="#000000">_domains.h</text>
</a>
</g>
</g>
<!-- Node1&#45;&gt;Node14 -->
<g id="edge35" class="edge">
<title>Node1&#45;&gt;Node14</title>
<path fill="none" stroke="#191970" d="M688.7667,-252.0717C635.8625,-243.3546 560.8432,-228.8998 497,-210 448.1201,-195.5298 393.9435,-173.587 359.1037,-157.8279"/>
<polygon fill="#191970" stroke="#191970" points="360.3584,-154.5527 349.8103,-153.5583 357.436,-160.9135 360.3584,-154.5527"/>
</g>
<!-- Node15 -->
<g id="node16" class="node">
<title>Node15</title>
<g id="a_node16"><a xlink:href="utils_2structures_8h.html" target="_top" xlink:title="Various utility&#45; and helper&#45;functions for secondary structure parsing, converting, etc. ">
<polygon fill="none" stroke="#000000" points="0,-62 0,-81 144,-81 144,-62 0,-62"/>
<text text-anchor="middle" x="72" y="-69" font-family="Helvetica,sans-Serif" font-size="10.00" fill="#000000">ViennaRNA/utils/structures.h</text>
</a>
</g>
</g>
<!-- Node1&#45;&gt;Node15 -->
<g id="edge36" class="edge">
<title>Node1&#45;&gt;Node15</title>
<path fill="none" stroke="#191970" d="M688.9086,-259.5629C537.9264,-253.7557 178.2396,-231.7387 91,-154 73.0543,-138.0087 66.5989,-110.0792 66.4367,-91.1957"/>
<polygon fill="#191970" stroke="#191970" points="69.9408,-91.2349 67.0651,-81.0379 62.9542,-90.8027 69.9408,-91.2349"/>
</g>
<!-- Node3 -->
<g id="node4" class="node">
<title>Node3</title>
<polygon fill="none" stroke="#bfbfbf" points="1286,-.5 1286,-19.5 1334,-19.5 1334,-.5 1286,-.5"/>
<text text-anchor="middle" x="1310" y="-7.5" font-family="Helvetica,sans-Serif" font-size="10.00" fill="#000000">limits.h</text>
</g>
<!-- Node2&#45;&gt;Node3 -->
<g id="edge3" class="edge">
<title>Node2&#45;&gt;Node3</title>
<path fill="none" stroke="#191970" d="M1310,-61.8906C1310,-53.3657 1310,-40.6392 1310,-29.9235"/>
<polygon fill="#191970" stroke="#191970" points="1313.5001,-29.7448 1310,-19.7449 1306.5001,-29.7449 1313.5001,-29.7448"/>
</g>
<!-- Node4&#45;&gt;Node5 -->
<g id="edge5" class="edge">
<title>Node4&#45;&gt;Node5</title>
<path fill="none" stroke="#191970" d="M897.9783,-190.4331C922.4089,-182.4477 956.4537,-169.8327 984,-154 1003.1971,-142.9662 1003.7363,-133.9171 1023,-123 1052.5329,-106.2631 1088.5513,-92.9697 1116.2435,-84.0836"/>
<polygon fill="#191970" stroke="#191970" points="1117.5472,-87.3429 1126.0418,-81.011 1115.4526,-80.6636 1117.5472,-87.3429"/>
</g>
<!-- Node4&#45;&gt;Node6 -->
<g id="edge6" class="edge">
<title>Node4&#45;&gt;Node6</title>
<path fill="none" stroke="#191970" d="M934.8878,-190.4581C1015.0541,-179.354 1147.1566,-161.056 1231.2991,-149.4011"/>
<polygon fill="#191970" stroke="#191970" points="1231.8907,-152.8527 1241.3159,-148.0137 1230.9302,-145.9189 1231.8907,-152.8527"/>
</g>
<!-- Node7 -->
<g id="node8" class="node">
<title>Node7</title>
<g id="a_node8"><a xlink:href="sequence_8h.html" target="_top" xlink:title="Functions and data structures related to sequence representations ,. ">
<polygon fill="none" stroke="#000000" points="853,-129 853,-148 975,-148 975,-129 853,-129"/>
<text text-anchor="middle" x="914" y="-136" font-family="Helvetica,sans-Serif" font-size="10.00" fill="#000000">ViennaRNA/sequence.h</text>
</a>
</g>
</g>
<!-- Node4&#45;&gt;Node7 -->
<g id="edge10" class="edge">
<title>Node4&#45;&gt;Node7</title>
<path fill="none" stroke="#191970" d="M873.5,-190.3906C880.5738,-181.3273 891.3542,-167.5149 900.0146,-156.4188"/>
<polygon fill="#191970" stroke="#191970" points="903.0006,-158.2815 906.3943,-148.2449 897.4824,-153.9746 903.0006,-158.2815"/>
</g>
<!-- Node4&#45;&gt;Node8 -->
<g id="edge11" class="edge">
<title>Node4&#45;&gt;Node8</title>
<path fill="none" stroke="#191970" d="M792.7779,-197.5821C677.1916,-193.0783 445.5706,-181.266 251,-154 243.3156,-152.9232 235.2372,-151.5318 227.3436,-150.0252"/>
<polygon fill="#191970" stroke="#191970" points="227.9775,-146.5828 217.4876,-148.0703 226.6156,-153.4491 227.9775,-146.5828"/>
</g>
<!-- Node4&#45;&gt;Node9 -->
<g id="edge13" class="edge">
<title>Node4&#45;&gt;Node9</title>
<path fill="none" stroke="#191970" d="M803.4734,-190.4581C730.1593,-179.27 608.9889,-160.7787 532.7074,-149.1377"/>
<polygon fill="#191970" stroke="#191970" points="533.1263,-145.6612 522.7127,-147.6125 532.0702,-152.5811 533.1263,-145.6612"/>
</g>
<!-- Node4&#45;&gt;Node11 -->
<g id="edge17" class="edge">
<title>Node4&#45;&gt;Node11</title>
<path fill="none" stroke="#191970" d="M830.5313,-190.3906C796.8227,-181.2581 745.3166,-167.3038 704.2035,-156.1653"/>
<polygon fill="#191970" stroke="#191970" points="705.0978,-152.7814 694.5304,-153.5446 703.2672,-159.5379 705.0978,-152.7814"/>
</g>
<!-- Node4&#45;&gt;Node12 -->
<g id="edge20" class="edge">
<title>Node4&#45;&gt;Node12</title>
<path fill="none" stroke="#191970" d="M851.9375,-190.3906C837.6714,-180.6421 815.365,-165.3994 798.6128,-153.9521"/>
<polygon fill="#191970" stroke="#191970" points="800.1949,-150.7941 789.9638,-148.0419 796.2455,-156.5736 800.1949,-150.7941"/>
</g>
<!-- Node4&#45;&gt;Node13 -->
<g id="edge22" class="edge">
<title>Node4&#45;&gt;Node13</title>
<path fill="none" stroke="#191970" d="M900.8438,-190.3906C933.8884,-181.2774 984.3434,-167.3627 1024.6897,-156.2358"/>
<polygon fill="#191970" stroke="#191970" points="1025.7385,-159.5773 1034.4481,-153.5446 1023.8774,-152.8292 1025.7385,-159.5773"/>
</g>
<!-- Node4&#45;&gt;Node14 -->
<g id="edge23" class="edge">
<title>Node4&#45;&gt;Node14</title>
<path fill="none" stroke="#191970" d="M792.8902,-195.5556C701.9218,-189.4255 541.6978,-176.6622 395.6855,-154.1615"/>
<polygon fill="#191970" stroke="#191970" points="396.0643,-150.6783 385.6443,-152.595 394.9853,-157.5946 396.0643,-150.6783"/>
</g>
<!-- Node6&#45;&gt;Node1 -->
<g id="edge8" class="edge">
<title>Node6&#45;&gt;Node1</title>
<path fill="none" stroke="#191970" d="M1299.9342,-148.2366C1277.2681,-164.0207 1222.5926,-194.9419 1172,-210 1110.8084,-228.2127 935.7151,-246.1738 833.1733,-255.3035"/>
<polygon fill="#191970" stroke="#191970" points="832.8312,-251.82 823.1777,-256.1858 833.4467,-258.7929 832.8312,-251.82"/>
</g>
<!-- Node6&#45;&gt;Node2 -->
<g id="edge7" class="edge">
<title>Node6&#45;&gt;Node2</title>
<path fill="none" stroke="#191970" d="M1310,-128.9005C1310,-119.149 1310,-103.7597 1310,-91.3695"/>
<polygon fill="#191970" stroke="#191970" points="1313.5001,-91.0816 1310,-81.0817 1306.5001,-91.0817 1313.5001,-91.0816"/>
</g>
<!-- Node6&#45;&gt;Node5 -->
<g id="edge9" class="edge">
<title>Node6&#45;&gt;Node5</title>
<path fill="none" stroke="#191970" d="M1288.5087,-128.9005C1262.8897,-117.4574 1219.8901,-98.2509 1190.7553,-85.2374"/>
<polygon fill="#191970" stroke="#191970" points="1192.0095,-81.9643 1181.4515,-81.0817 1189.1546,-88.3557 1192.0095,-81.9643"/>
</g>
<!-- Node8&#45;&gt;Node1 -->
<g id="edge12" class="edge">
<title>Node8&#45;&gt;Node1</title>
<path fill="none" stroke="#191970" d="M213.8923,-148.0766C267.5515,-162.827 368.2439,-191.3499 455,-210 530.7886,-226.2924 617.947,-240.3645 678.967,-249.6618"/>
<polygon fill="#191970" stroke="#191970" points="678.4966,-253.1304 688.9084,-251.1697 679.5464,-246.2096 678.4966,-253.1304"/>
</g>
<!-- Node9&#45;&gt;Node1 -->
<g id="edge14" class="edge">
<title>Node9&#45;&gt;Node1</title>
<path fill="none" stroke="#191970" d="M480.9018,-153.5301C496.5824,-169.9472 519.9695,-195.7933 546,-210 587.0162,-232.3855 637.5249,-245.0956 678.7776,-252.2846"/>
<polygon fill="#191970" stroke="#191970" points="678.343,-255.7604 688.7824,-253.9526 679.4942,-248.8557 678.343,-255.7604"/>
</g>
<!-- Node10 -->
<g id="node11" class="node">
<title>Node10</title>
<g id="a_node11"><a xlink:href="constraints_2basic_8h.html" target="_top" xlink:title="Functions and data structures for constraining secondary structure predictions and evaluation...">
<polygon fill="none" stroke="#000000" points="491.5,-56.5 491.5,-86.5 610.5,-86.5 610.5,-56.5 491.5,-56.5"/>
<text text-anchor="start" x="499.5" y="-74.5" font-family="Helvetica,sans-Serif" font-size="10.00" fill="#000000">ViennaRNA/constraints</text>
<text text-anchor="middle" x="551" y="-63.5" font-family="Helvetica,sans-Serif" font-size="10.00" fill="#000000">/basic.h</text>
</a>
</g>
</g>
<!-- Node9&#45;&gt;Node10 -->
<g id="edge15" class="edge">
<title>Node9&#45;&gt;Node10</title>
<path fill="none" stroke="#191970" d="M482.9686,-123.2967C494.7825,-114.302 509.9306,-102.7687 522.9327,-92.8694"/>
<polygon fill="#191970" stroke="#191970" points="525.2743,-95.4857 531.1105,-86.6432 521.0338,-89.9162 525.2743,-95.4857"/>
</g>
<!-- Node10&#45;&gt;Node1 -->
<g id="edge16" class="edge">
<title>Node10&#45;&gt;Node1</title>
<path fill="none" stroke="#191970" d="M550.9758,-86.6877C551.684,-104.4695 555.2349,-134.0254 570,-154 601.9834,-197.2679 656.9863,-225.9085 698.9078,-242.6673"/>
<polygon fill="#191970" stroke="#191970" points="697.8601,-246.0149 708.4491,-246.3686 700.3918,-239.4888 697.8601,-246.0149"/>
</g>
<!-- Node11&#45;&gt;Node1 -->
<g id="edge18" class="edge">
<title>Node11&#45;&gt;Node1</title>
<path fill="none" stroke="#191970" d="M658.0929,-153.7056C680.8776,-174.9831 718.0637,-213.8086 739.6054,-238.5956"/>
<polygon fill="#191970" stroke="#191970" points="737.1191,-241.0743 746.2678,-246.4178 742.4482,-236.5354 737.1191,-241.0743"/>
</g>
<!-- Node11&#45;&gt;Node10 -->
<g id="edge19" class="edge">
<title>Node11&#45;&gt;Node10</title>
<path fill="none" stroke="#191970" d="M619.0314,-123.2967C607.2175,-114.302 592.0694,-102.7687 579.0673,-92.8694"/>
<polygon fill="#191970" stroke="#191970" points="580.9662,-89.9162 570.8895,-86.6432 576.7257,-95.4857 580.9662,-89.9162"/>
</g>
<!-- Node12&#45;&gt;Node1 -->
<g id="edge21" class="edge">
<title>Node12&#45;&gt;Node1</title>
<path fill="none" stroke="#191970" d="M778.273,-148.0493C778.411,-166.8307 772.114,-209.1173 765.6397,-236.4249"/>
<polygon fill="#191970" stroke="#191970" points="762.1708,-235.8609 763.0667,-246.4178 768.9497,-237.6064 762.1708,-235.8609"/>
</g>
<!-- Node14&#45;&gt;Node1 -->
<g id="edge24" class="edge">
<title>Node14&#45;&gt;Node1</title>
<path fill="none" stroke="#191970" d="M363.121,-153.5583C401.7096,-169.3949 461.5246,-194.1694 515,-210 569.1491,-226.03 631.3378,-238.8624 679.0337,-247.7085"/>
<polygon fill="#191970" stroke="#191970" points="678.5158,-251.1718 688.9834,-249.5353 679.78,-244.2869 678.5158,-251.1718"/>
</g>
<!-- Node14&#45;&gt;Node15 -->
<g id="edge25" class="edge">
<title>Node14&#45;&gt;Node15</title>
<path fill="none" stroke="#191970" d="M266.6707,-123.4639C221.6719,-111.4522 159.4191,-94.835 117.5336,-83.6544"/>
<polygon fill="#191970" stroke="#191970" points="118.1738,-80.2028 107.6094,-81.0053 116.3684,-86.966 118.1738,-80.2028"/>
</g>
<!-- Node15&#45;&gt;Node1 -->
<g id="edge27" class="edge">
<title>Node15&#45;&gt;Node1</title>
<path fill="none" stroke="#191970" d="M77.5893,-81.0379C82.4608,-98.3159 87.4314,-134.7804 109,-154 192.4903,-228.3977 525.513,-251.7603 678.5149,-258.7212"/>
<polygon fill="#191970" stroke="#191970" points="678.6261,-262.2295 688.7712,-259.1755 678.9359,-255.2364 678.6261,-262.2295"/>
</g>
<!-- Node16 -->
<g id="node17" class="node">
<title>Node16</title>
<polygon fill="none" stroke="#bfbfbf" points="49,-.5 49,-19.5 95,-19.5 95,-.5 49,-.5"/>
<text text-anchor="middle" x="72" y="-7.5" font-family="Helvetica,sans-Serif" font-size="10.00" fill="#000000">stdio.h</text>
</g>
<!-- Node15&#45;&gt;Node16 -->
<g id="edge26" class="edge">
<title>Node15&#45;&gt;Node16</title>
<path fill="none" stroke="#191970" d="M72,-61.8906C72,-53.3657 72,-40.6392 72,-29.9235"/>
<polygon fill="#191970" stroke="#191970" points="75.5001,-29.7448 72,-19.7449 68.5001,-29.7449 75.5001,-29.7448"/>
</g>
<!-- Node17&#45;&gt;Node1 -->
<g id="edge39" class="edge">
<title>Node17&#45;&gt;Node1</title>
<path fill="none" stroke="#191970" d="M1039.0003,-380.3416C988.6592,-359.2016 867.9239,-308.5007 801.579,-280.6402"/>
<polygon fill="#191970" stroke="#191970" points="802.7752,-277.3465 792.2,-276.7016 800.0648,-283.8005 802.7752,-277.3465"/>
</g>
<!-- Node17&#45;&gt;Node6 -->
<g id="edge40" class="edge">
<title>Node17&#45;&gt;Node6</title>
<path fill="none" stroke="#191970" d="M1071.4191,-380.448C1108.6312,-342.7107 1245.6994,-203.7081 1293.4583,-155.2752"/>
<polygon fill="#191970" stroke="#191970" points="1296.0423,-157.6395 1300.5715,-148.0615 1291.058,-152.7245 1296.0423,-157.6395"/>
</g>
<!-- Node18 -->
<g id="node19" class="node">
<title>Node18</title>
<g id="a_node19"><a xlink:href="centroid_8h.html" target="_top" xlink:title="Centroid structure computation. ">
<polygon fill="none" stroke="#000000" points="699,-319 699,-338 813,-338 813,-319 699,-319"/>
<text text-anchor="middle" x="756" y="-326" font-family="Helvetica,sans-Serif" font-size="10.00" fill="#000000">ViennaRNA/centroid.h</text>
</a>
</g>
</g>
<!-- Node17&#45;&gt;Node18 -->
<g id="edge41" class="edge">
<title>Node17&#45;&gt;Node18</title>
<path fill="none" stroke="#191970" d="M1014.5232,-380.4581C960.2842,-369.5571 871.5488,-351.723 813.455,-340.0473"/>
<polygon fill="#191970" stroke="#191970" points="813.83,-336.5528 803.3364,-338.0137 812.4506,-343.4155 813.83,-336.5528"/>
</g>
<!-- Node17&#45;&gt;Node19 -->
<g id="edge44" class="edge">
<title>Node17&#45;&gt;Node19</title>
<path fill="none" stroke="#191970" d="M1093.4063,-380.3906C1122.8761,-371.3737 1167.7085,-357.6563 1203.8779,-346.5896"/>
<polygon fill="#191970" stroke="#191970" points="1205.2915,-349.8173 1213.8299,-343.5446 1203.2434,-343.1236 1205.2915,-349.8173"/>
</g>
<!-- Node20 -->
<g id="node21" class="node">
<title>Node20</title>
<g id="a_node21"><a xlink:href="boltzmann__sampling_8h.html" target="_top" xlink:title="Boltzmann Sampling of secondary structures from the ensemble. ">
<polygon fill="none" stroke="#000000" points="978,-313.5 978,-343.5 1094,-343.5 1094,-313.5 978,-313.5"/>
<text text-anchor="start" x="986" y="-331.5" font-family="Helvetica,sans-Serif" font-size="10.00" fill="#000000">ViennaRNA/boltzmann</text>
<text text-anchor="middle" x="1036" y="-320.5" font-family="Helvetica,sans-Serif" font-size="10.00" fill="#000000">_sampling.h</text>
</a>
</g>
</g>
<!-- Node17&#45;&gt;Node20 -->
<g id="edge47" class="edge">
<title>Node17&#45;&gt;Node20</title>
<path fill="none" stroke="#191970" d="M1057.9375,-380.3906C1054.8097,-372.9922 1050.344,-362.4291 1046.2572,-352.7623"/>
<polygon fill="#191970" stroke="#191970" points="1049.4781,-351.3924 1042.3603,-343.5446 1043.0306,-354.1182 1049.4781,-351.3924"/>
</g>
<!-- Node18&#45;&gt;Node1 -->
<g id="edge42" class="edge">
<title>Node18&#45;&gt;Node1</title>
<path fill="none" stroke="#191970" d="M756,-318.9005C756,-310.5099 756,-297.9451 756,-286.7085"/>
<polygon fill="#191970" stroke="#191970" points="759.5001,-286.5217 756,-276.5218 752.5001,-286.5218 759.5001,-286.5217"/>
</g>
<!-- Node18&#45;&gt;Node15 -->
<g id="edge43" class="edge">
<title>Node18&#45;&gt;Node15</title>
<path fill="none" stroke="#191970" d="M698.5855,-323.6838C591.1446,-313.2187 353.7849,-283.1859 168,-210 123.8156,-192.5945 101.4092,-194.7358 77,-154 65.6323,-135.0288 66.1404,-108.9966 68.3449,-91.2824"/>
<polygon fill="#191970" stroke="#191970" points="71.8296,-91.6484 69.888,-81.233 64.9107,-90.5859 71.8296,-91.6484"/>
</g>
<!-- Node19&#45;&gt;Node1 -->
<g id="edge45" class="edge">
<title>Node19&#45;&gt;Node1</title>
<path fill="none" stroke="#191970" d="M1203.7234,-315.4419C1199.0892,-314.5654 1194.4741,-313.7389 1190,-313 1065.7815,-292.4861 920.2601,-276.9289 833.2378,-268.5212"/>
<polygon fill="#191970" stroke="#191970" points="833.4698,-265.0274 823.1812,-267.5562 832.8011,-271.9954 833.4698,-265.0274"/>
</g>
<!-- Node19&#45;&gt;Node6 -->
<g id="edge46" class="edge">
<title>Node19&#45;&gt;Node6</title>
<path fill="none" stroke="#191970" d="M1265.5449,-313.2068C1268.4099,-296.5784 1273.4018,-269.2631 1279,-246 1286.469,-214.9629 1297.1249,-179.4699 1303.7972,-158.0347"/>
<polygon fill="#191970" stroke="#191970" points="1307.2272,-158.7943 1306.8853,-148.205 1300.549,-156.6962 1307.2272,-158.7943"/>
</g>
<!-- Node20&#45;&gt;Node1 -->
<g id="edge48" class="edge">
<title>Node20&#45;&gt;Node1</title>
<path fill="none" stroke="#191970" d="M977.9838,-314.6176C934.7062,-304.2618 875.2905,-290.0445 828.8192,-278.9246"/>
<polygon fill="#191970" stroke="#191970" points="829.3502,-275.4529 818.8102,-276.5296 827.7211,-282.2607 829.3502,-275.4529"/>
</g>
<!-- Node21&#45;&gt;Node4 -->
<g id="edge51" class="edge">
<title>Node21&#45;&gt;Node4</title>
<path fill="none" stroke="#191970" d="M1287.3136,-252.5574C1197.6455,-241.3716 1044.3931,-222.2539 949.5156,-210.4183"/>
<polygon fill="#191970" stroke="#191970" points="949.7391,-206.9191 939.3828,-209.1542 948.8726,-213.8653 949.7391,-206.9191"/>
</g>
<!-- Node21&#45;&gt;Node6 -->
<g id="edge52" class="edge">
<title>Node21&#45;&gt;Node6</title>
<path fill="none" stroke="#191970" d="M1355.1551,-251.8484C1347.0687,-231.5499 1328.1752,-184.1235 1317.5684,-157.4981"/>
<polygon fill="#191970" stroke="#191970" points="1320.7795,-156.1014 1313.8271,-148.1068 1314.2765,-158.6921 1320.7795,-156.1014"/>
</g>
</g>
</svg>
