<?xml version="1.0" encoding="UTF-8" standalone="no"?>
<!DOCTYPE svg PUBLIC "-//W3C//DTD SVG 1.1//EN"
 "http://www.w3.org/Graphics/SVG/1.1/DTD/svg11.dtd">
<!-- Generated by graphviz version 2.40.1 (20161225.0304)
 -->
<!-- Title: ViennaRNA/plotting/naview.h Pages: 1 -->
<svg width="402pt" height="229pt"
 viewBox="0.00 0.00 401.50 229.00" xmlns="http://www.w3.org/2000/svg" xmlns:xlink="http://www.w3.org/1999/xlink">
<g id="graph0" class="graph" transform="scale(1 1) rotate(0) translate(4 225)">
<title>ViennaRNA/plotting/naview.h</title>
<!-- Node1 -->
<g id="node1" class="node">
<title>Node1</title>
<polygon fill="#bfbfbf" stroke="#000000" points="65.5,-190.5 65.5,-220.5 168.5,-220.5 168.5,-190.5 65.5,-190.5"/>
<text text-anchor="start" x="73.5" y="-208.5" font-family="Helvetica,sans-Serif" font-size="10.00" fill="#000000">ViennaRNA/plotting</text>
<text text-anchor="middle" x="117" y="-197.5" font-family="Helvetica,sans-Serif" font-size="10.00" fill="#000000">/naview.h</text>
</g>
<!-- Node2 -->
<g id="node2" class="node">
<title>Node2</title>
<g id="a_node2"><a xlink:href="naview_8h.html" target="_top" xlink:title="Use ViennaRNA/plotting/naview.h instead. ">
<polygon fill="none" stroke="#000000" points="0,-129 0,-148 110,-148 110,-129 0,-129"/>
<text text-anchor="middle" x="55" y="-136" font-family="Helvetica,sans-Serif" font-size="10.00" fill="#000000">ViennaRNA/naview.h</text>
</a>
</g>
</g>
<!-- Node1&#45;&gt;Node2 -->
<g id="edge1" class="edge">
<title>Node1&#45;&gt;Node2</title>
<path fill="none" stroke="#191970" d="M96.054,-182.8648C85.0728,-170.998 72.2041,-157.0916 63.8419,-148.055"/>
<polygon fill="#191970" stroke="#191970" points="93.5704,-185.3342 102.9312,-190.2967 98.7082,-180.5798 93.5704,-185.3342"/>
</g>
<!-- Node3 -->
<g id="node3" class="node">
<title>Node3</title>
<g id="a_node3"><a xlink:href="layouts_8h.html" target="_top" xlink:title="Secondary structure plot layout algorithms. ">
<polygon fill="none" stroke="#000000" points="128.5,-123.5 128.5,-153.5 231.5,-153.5 231.5,-123.5 128.5,-123.5"/>
<text text-anchor="start" x="136.5" y="-141.5" font-family="Helvetica,sans-Serif" font-size="10.00" fill="#000000">ViennaRNA/plotting</text>
<text text-anchor="middle" x="180" y="-130.5" font-family="Helvetica,sans-Serif" font-size="10.00" fill="#000000">/layouts.h</text>
</a>
</g>
</g>
<!-- Node1&#45;&gt;Node3 -->
<g id="edge2" class="edge">
<title>Node1&#45;&gt;Node3</title>
<path fill="none" stroke="#191970" d="M138.227,-182.9253C147.2938,-173.2828 157.6357,-162.2843 165.7609,-153.6432"/>
<polygon fill="#191970" stroke="#191970" points="135.5961,-180.6138 131.2957,-190.2967 140.6958,-185.409 135.5961,-180.6138"/>
</g>
<!-- Node4 -->
<g id="node4" class="node">
<title>Node4</title>
<g id="a_node4"><a xlink:href="plot__layouts_8h.html" target="_top" xlink:title="Use ViennaRNA/plotting/layouts.h instead. ">
<polygon fill="none" stroke="#000000" points="20,-62 20,-81 152,-81 152,-62 20,-62"/>
<text text-anchor="middle" x="86" y="-69" font-family="Helvetica,sans-Serif" font-size="10.00" fill="#000000">ViennaRNA/plot_layouts.h</text>
</a>
</g>
</g>
<!-- Node3&#45;&gt;Node4 -->
<g id="edge3" class="edge">
<title>Node3&#45;&gt;Node4</title>
<path fill="none" stroke="#191970" d="M150.1328,-117.2117C133.0907,-105.0646 112.5667,-90.4358 99.4055,-81.055"/>
<polygon fill="#191970" stroke="#191970" points="148.4953,-120.3426 158.6699,-123.2967 152.5582,-114.6423 148.4953,-120.3426"/>
</g>
<!-- Node5 -->
<g id="node5" class="node">
<title>Node5</title>
<g id="a_node5"><a xlink:href="PS__dot_8h.html" target="_top" xlink:title="Use ViennaRNA/plotting/probabilities.h instead. ">
<polygon fill="none" stroke="#000000" points="124,-.5 124,-19.5 236,-19.5 236,-.5 124,-.5"/>
<text text-anchor="middle" x="180" y="-7.5" font-family="Helvetica,sans-Serif" font-size="10.00" fill="#000000">ViennaRNA/PS_dot.h</text>
</a>
</g>
</g>
<!-- Node3&#45;&gt;Node5 -->
<g id="edge4" class="edge">
<title>Node3&#45;&gt;Node5</title>
<path fill="none" stroke="#191970" d="M180,-113.1876C180,-84.5797 180,-39.4362 180,-19.7358"/>
<polygon fill="#191970" stroke="#191970" points="176.5001,-113.2547 180,-123.2548 183.5001,-113.2548 176.5001,-113.2547"/>
</g>
<!-- Node6 -->
<g id="node6" class="node">
<title>Node6</title>
<g id="a_node6"><a xlink:href="plotting_2structures_8h.html" target="_top" xlink:title="Various functions for plotting RNA secondary structures. ">
<polygon fill="none" stroke="#000000" points="208.5,-56.5 208.5,-86.5 311.5,-86.5 311.5,-56.5 208.5,-56.5"/>
<text text-anchor="start" x="216.5" y="-74.5" font-family="Helvetica,sans-Serif" font-size="10.00" fill="#000000">ViennaRNA/plotting</text>
<text text-anchor="middle" x="260" y="-63.5" font-family="Helvetica,sans-Serif" font-size="10.00" fill="#000000">/structures.h</text>
</a>
</g>
</g>
<!-- Node3&#45;&gt;Node6 -->
<g id="edge5" class="edge">
<title>Node3&#45;&gt;Node6</title>
<path fill="none" stroke="#191970" d="M205.9333,-116.7808C217.6856,-106.9383 231.2944,-95.541 241.9186,-86.6432"/>
<polygon fill="#191970" stroke="#191970" points="203.5725,-114.1927 198.1532,-123.2967 208.067,-119.5592 203.5725,-114.1927"/>
</g>
<!-- Node6&#45;&gt;Node5 -->
<g id="edge7" class="edge">
<title>Node6&#45;&gt;Node5</title>
<path fill="none" stroke="#191970" d="M232.2067,-50.1339C218.8118,-39.8366 203.3971,-27.9865 192.809,-19.8469"/>
<polygon fill="#191970" stroke="#191970" points="230.1634,-52.9778 240.2247,-56.2977 234.4298,-47.4282 230.1634,-52.9778"/>
</g>
<!-- Node7 -->
<g id="node7" class="node">
<title>Node7</title>
<g id="a_node7"><a xlink:href="plot__structure_8h.html" target="_top" xlink:title="Use ViennaRNA/plotting/structures.h instead. ">
<polygon fill="none" stroke="#000000" points="254.5,-.5 254.5,-19.5 393.5,-19.5 393.5,-.5 254.5,-.5"/>
<text text-anchor="middle" x="324" y="-7.5" font-family="Helvetica,sans-Serif" font-size="10.00" fill="#000000">ViennaRNA/plot_structure.h</text>
</a>
</g>
</g>
<!-- Node6&#45;&gt;Node7 -->
<g id="edge6" class="edge">
<title>Node6&#45;&gt;Node7</title>
<path fill="none" stroke="#191970" d="M283.1482,-49.256C293.6455,-39.1688 305.5221,-27.7561 313.7528,-19.8469"/>
<polygon fill="#191970" stroke="#191970" points="280.6056,-46.8452 275.8202,-56.2977 285.4559,-51.8926 280.6056,-46.8452"/>
</g>
</g>
</svg>
