<?xml version="1.0" encoding="UTF-8" standalone="no"?>
<!DOCTYPE svg PUBLIC "-//W3C//DTD SVG 1.1//EN"
 "http://www.w3.org/Graphics/SVG/1.1/DTD/svg11.dtd">
<!-- Generated by graphviz version 2.40.1 (20161225.0304)
 -->
<!-- Title: ViennaRNA/plot_structure.h Pages: 1 -->
<!--zoomable 475 -->
<svg id="main" version="1.1" xmlns="http://www.w3.org/2000/svg" xmlns:xlink="http://www.w3.org/1999/xlink" xml:space="preserve" onload="init(evt)">
<style type="text/css"><![CDATA[
.edge:hover path { stroke: red; }
.edge:hover polygon { stroke: red; fill: red; }
]]></style>
<script type="text/javascript"><![CDATA[
var edges = document.getElementsByTagName('g');
if (edges && edges.length) {
  for (var i=0;i<edges.length;i++) {
    if (edges[i].id.substr(0,4)=='edge') {
      edges[i].setAttribute('class','edge');
    }
  }
}
]]></script>
        <defs>
                <circle id="rim" cx="0" cy="0" r="7"/>
                <circle id="rim2" cx="0" cy="0" r="3.5"/>
                <g id="zoomPlus">
                        <use xlink:href="#rim" fill="#404040">
                                <set attributeName="fill" to="#808080" begin="zoomplus.mouseover" end="zoomplus.mouseout"/>
                        </use>
                        <path d="M-4,0h8M0,-4v8" fill="none" stroke="white" stroke-width="1.5" pointer-events="none"/>
                </g>
                <g id="zoomMin">
                        <use xlink:href="#rim" fill="#404040">
                                <set attributeName="fill" to="#808080" begin="zoomminus.mouseover" end="zoomminus.mouseout"/>
                        </use>
                        <path d="M-4,0h8" fill="none" stroke="white" stroke-width="1.5" pointer-events="none"/>
                </g>
                <g id="dirArrow">
                        <path fill="none" stroke="white" stroke-width="1.5" d="M0,-3.0v7 M-2.5,-0.5L0,-3.0L2.5,-0.5"/>
                </g>
               <g id="resetDef">
                       <use xlink:href="#rim2" fill="#404040">
                               <set attributeName="fill" to="#808080" begin="reset.mouseover" end="reset.mouseout"/>
                       </use>
               </g>
        </defs>

<script type="text/javascript">
var viewWidth = 1416;
var viewHeight = 475;
var sectionId = 'dynsection-0';
</script>
<script xlink:href="svgpan.js"/>
<svg id="graph" class="graph">
<g id="viewport">
<title>ViennaRNA/plot_structure.h</title>
<!-- Node0 -->
<g id="node1" class="node">
<title>Node0</title>
<polygon fill="#bfbfbf" stroke="#000000" points="304.5,-447.5 304.5,-466.5 443.5,-466.5 443.5,-447.5 304.5,-447.5"/>
<text text-anchor="middle" x="374" y="-454.5" font-family="Helvetica,sans-Serif" font-size="10.00" fill="#000000">ViennaRNA/plot_structure.h</text>
</g>
<!-- Node1 -->
<g id="node2" class="node">
<title>Node1</title>
<g id="a_node2"><a xlink:href="plotting_2structures_8h.html" target="_top" xlink:title="Various functions for plotting RNA secondary structures. ">
<polygon fill="none" stroke="#000000" points="322.5,-380.5 322.5,-410.5 425.5,-410.5 425.5,-380.5 322.5,-380.5"/>
<text text-anchor="start" x="330.5" y="-398.5" font-family="Helvetica,sans-Serif" font-size="10.00" fill="#000000">ViennaRNA/plotting</text>
<text text-anchor="middle" x="374" y="-387.5" font-family="Helvetica,sans-Serif" font-size="10.00" fill="#000000">/structures.h</text>
</a>
</g>
</g>
<!-- Node0&#45;&gt;Node1 -->
<g id="edge1" class="edge">
<title>Node0&#45;&gt;Node1</title>
<path fill="none" stroke="#191970" d="M374,-447.3906C374,-440.2234 374,-430.0862 374,-420.671"/>
<polygon fill="#191970" stroke="#191970" points="377.5001,-420.5446 374,-410.5446 370.5001,-420.5446 377.5001,-420.5446"/>
</g>
<!-- Node2 -->
<g id="node3" class="node">
<title>Node2</title>
<g id="a_node3"><a xlink:href="model_8h.html" target="_top" xlink:title="The model details data structure and its corresponding modifiers. ">
<polygon fill="none" stroke="#000000" points="285,-62 285,-81 391,-81 391,-62 285,-62"/>
<text text-anchor="middle" x="338" y="-69" font-family="Helvetica,sans-Serif" font-size="10.00" fill="#000000">ViennaRNA/model.h</text>
</a>
</g>
</g>
<!-- Node1&#45;&gt;Node2 -->
<g id="edge2" class="edge">
<title>Node1&#45;&gt;Node2</title>
<path fill="none" stroke="#191970" d="M322.3896,-388.069C219.7916,-371.8412 0,-329.1791 0,-261.5 0,-261.5 0,-261.5 0,-200 0,-159.9063 13.8859,-145.6044 47,-123 83.1709,-98.309 200.5133,-83.6464 274.6785,-76.6175"/>
<polygon fill="#191970" stroke="#191970" points="275.2095,-80.0834 284.8441,-75.6761 274.5639,-73.1132 275.2095,-80.0834"/>
</g>
<!-- Node3 -->
<g id="node4" class="node">
<title>Node3</title>
<g id="a_node4"><a xlink:href="layouts_8h.html" target="_top" xlink:title="Secondary structure plot layout algorithms. ">
<polygon fill="none" stroke="#000000" points="772.5,-313.5 772.5,-343.5 875.5,-343.5 875.5,-313.5 772.5,-313.5"/>
<text text-anchor="start" x="780.5" y="-331.5" font-family="Helvetica,sans-Serif" font-size="10.00" fill="#000000">ViennaRNA/plotting</text>
<text text-anchor="middle" x="824" y="-320.5" font-family="Helvetica,sans-Serif" font-size="10.00" fill="#000000">/layouts.h</text>
</a>
</g>
</g>
<!-- Node1&#45;&gt;Node3 -->
<g id="edge3" class="edge">
<title>Node1&#45;&gt;Node3</title>
<path fill="none" stroke="#191970" d="M425.6207,-387.8142C508.9807,-375.4029 672.9032,-350.9966 762.2956,-337.6871"/>
<polygon fill="#191970" stroke="#191970" points="762.9146,-341.1336 772.2901,-336.199 761.8837,-334.2099 762.9146,-341.1336"/>
</g>
<!-- Node4 -->
<g id="node5" class="node">
<title>Node4</title>
<g id="a_node5"><a xlink:href="datastructures_2basic_8h.html" target="_top" xlink:title="Various data structures and pre&#45;processor macros. ">
<polygon fill="none" stroke="#000000" points="757,-246.5 757,-276.5 891,-276.5 891,-246.5 757,-246.5"/>
<text text-anchor="start" x="765" y="-264.5" font-family="Helvetica,sans-Serif" font-size="10.00" fill="#000000">ViennaRNA/datastructures</text>
<text text-anchor="middle" x="824" y="-253.5" font-family="Helvetica,sans-Serif" font-size="10.00" fill="#000000">/basic.h</text>
</a>
</g>
</g>
<!-- Node3&#45;&gt;Node4 -->
<g id="edge4" class="edge">
<title>Node3&#45;&gt;Node4</title>
<path fill="none" stroke="#191970" d="M824,-313.2967C824,-305.5013 824,-295.7991 824,-286.9064"/>
<polygon fill="#191970" stroke="#191970" points="827.5001,-286.6431 824,-276.6432 820.5001,-286.6432 827.5001,-286.6431"/>
</g>
<!-- Node19 -->
<g id="node20" class="node">
<title>Node19</title>
<g id="a_node20"><a xlink:href="plotting_2naview_8h.html" target="_top" xlink:title="ViennaRNA/plotting\l/naview.h">
<polygon fill="none" stroke="#000000" points="909.5,-246.5 909.5,-276.5 1012.5,-276.5 1012.5,-246.5 909.5,-246.5"/>
<text text-anchor="start" x="917.5" y="-264.5" font-family="Helvetica,sans-Serif" font-size="10.00" fill="#000000">ViennaRNA/plotting</text>
<text text-anchor="middle" x="961" y="-253.5" font-family="Helvetica,sans-Serif" font-size="10.00" fill="#000000">/naview.h</text>
</a>
</g>
</g>
<!-- Node3&#45;&gt;Node19 -->
<g id="edge40" class="edge">
<title>Node3&#45;&gt;Node19</title>
<path fill="none" stroke="#191970" d="M854.7455,-313.4639C874.2624,-303.9191 899.7257,-291.4663 920.8325,-281.144"/>
<polygon fill="#191970" stroke="#191970" points="922.4375,-284.2552 929.8831,-276.7177 919.3622,-277.9669 922.4375,-284.2552"/>
</g>
<!-- Node4&#45;&gt;Node2 -->
<g id="edge31" class="edge">
<title>Node4&#45;&gt;Node2</title>
<path fill="none" stroke="#191970" d="M756.9427,-257.2042C578.293,-245.0649 101.3926,-207.856 57,-154 48.2366,-143.3685 48.1794,-133.5841 57,-123 84.1419,-90.4317 200.3497,-78.3948 274.561,-73.9916"/>
<polygon fill="#191970" stroke="#191970" points="274.9523,-77.4753 284.7402,-73.4197 274.5595,-70.4863 274.9523,-77.4753"/>
</g>
<!-- Node5 -->
<g id="node6" class="node">
<title>Node5</title>
<g id="a_node6"><a xlink:href="constants_8h.html" target="_top" xlink:title="Energy parameter constants. ">
<polygon fill="none" stroke="#000000" points="766,-62 766,-81 924,-81 924,-62 766,-62"/>
<text text-anchor="middle" x="845" y="-69" font-family="Helvetica,sans-Serif" font-size="10.00" fill="#000000">ViennaRNA/params/constants.h</text>
</a>
</g>
</g>
<!-- Node4&#45;&gt;Node5 -->
<g id="edge5" class="edge">
<title>Node4&#45;&gt;Node5</title>
<path fill="none" stroke="#191970" d="M853.6958,-246.4801C884.5552,-229.0092 931.071,-196.9789 951,-154 956.7959,-141.5006 958.31,-134.6787 951,-123 939.2392,-104.2107 918.4477,-92.101 898.3756,-84.3825"/>
<polygon fill="#191970" stroke="#191970" points="899.5268,-81.0772 888.932,-81.0367 897.189,-87.6754 899.5268,-81.0772"/>
</g>
<!-- Node7 -->
<g id="node8" class="node">
<title>Node7</title>
<g id="a_node8"><a xlink:href="fold__compound_8h.html" target="_top" xlink:title="The Basic Fold Compound API. ">
<polygon fill="none" stroke="#000000" points="584,-190.5 584,-209.5 730,-209.5 730,-190.5 584,-190.5"/>
<text text-anchor="middle" x="657" y="-197.5" font-family="Helvetica,sans-Serif" font-size="10.00" fill="#000000">ViennaRNA/fold_compound.h</text>
</a>
</g>
</g>
<!-- Node4&#45;&gt;Node7 -->
<g id="edge7" class="edge">
<title>Node4&#45;&gt;Node7</title>
<path fill="none" stroke="#191970" d="M783.1472,-246.4554C755.405,-236.239 719.0775,-222.8609 692.5345,-213.0861"/>
<polygon fill="#191970" stroke="#191970" points="693.4725,-209.7018 682.8791,-209.5303 691.0535,-216.2705 693.4725,-209.7018"/>
</g>
<!-- Node8 -->
<g id="node9" class="node">
<title>Node8</title>
<g id="a_node9"><a xlink:href="params_2basic_8h.html" target="_top" xlink:title="Functions to deal with sets of energy parameters. ">
<polygon fill="none" stroke="#000000" points="666,-129 666,-148 804,-148 804,-129 666,-129"/>
<text text-anchor="middle" x="735" y="-136" font-family="Helvetica,sans-Serif" font-size="10.00" fill="#000000">ViennaRNA/params/basic.h</text>
</a>
</g>
</g>
<!-- Node4&#45;&gt;Node8 -->
<g id="edge32" class="edge">
<title>Node4&#45;&gt;Node8</title>
<path fill="none" stroke="#191970" d="M808.4726,-246.4178C789.3537,-223.765 758.3131,-181.0248 743.1968,-156.6811"/>
<polygon fill="#191970" stroke="#191970" points="746.1917,-154.8695 738.0839,-148.0493 740.1689,-158.4369 746.1917,-154.8695"/>
</g>
<!-- Node10 -->
<g id="node11" class="node">
<title>Node10</title>
<g id="a_node11"><a xlink:href="dp__matrices_8h.html" target="_top" xlink:title="Functions to deal with standard dynamic programming (DP) matrices. ">
<polygon fill="none" stroke="#000000" points="66.5,-129 66.5,-148 199.5,-148 199.5,-129 66.5,-129"/>
<text text-anchor="middle" x="133" y="-136" font-family="Helvetica,sans-Serif" font-size="10.00" fill="#000000">ViennaRNA/dp_matrices.h</text>
</a>
</g>
</g>
<!-- Node4&#45;&gt;Node10 -->
<g id="edge33" class="edge">
<title>Node4&#45;&gt;Node10</title>
<path fill="none" stroke="#191970" d="M756.7013,-255.015C678.5586,-246.5866 546.2834,-230.4923 434,-210 339.9427,-192.834 231.3428,-166.1904 173.6573,-150.7356"/>
<polygon fill="#191970" stroke="#191970" points="174.3985,-147.3104 163.8315,-148.0773 172.5704,-154.0675 174.3985,-147.3104"/>
</g>
<!-- Node11 -->
<g id="node12" class="node">
<title>Node11</title>
<g id="a_node12"><a xlink:href="hard_8h.html" target="_top" xlink:title="Functions and data structures for handling of secondary structure hard constraints. ">
<polygon fill="none" stroke="#000000" points="822.5,-123.5 822.5,-153.5 941.5,-153.5 941.5,-123.5 822.5,-123.5"/>
<text text-anchor="start" x="830.5" y="-141.5" font-family="Helvetica,sans-Serif" font-size="10.00" fill="#000000">ViennaRNA/constraints</text>
<text text-anchor="middle" x="882" y="-130.5" font-family="Helvetica,sans-Serif" font-size="10.00" fill="#000000">/hard.h</text>
</a>
</g>
</g>
<!-- Node4&#45;&gt;Node11 -->
<g id="edge34" class="edge">
<title>Node4&#45;&gt;Node11</title>
<path fill="none" stroke="#191970" d="M826.4977,-246.4178C833.8477,-225.485 851.5174,-187.3994 865.1874,-162.5276"/>
<polygon fill="#191970" stroke="#191970" points="868.3029,-164.1291 870.2008,-153.7056 862.217,-160.6705 868.3029,-164.1291"/>
</g>
<!-- Node13 -->
<g id="node14" class="node">
<title>Node13</title>
<g id="a_node14"><a xlink:href="soft_8h.html" target="_top" xlink:title="Functions and data structures for secondary structure soft constraints. ">
<polygon fill="none" stroke="#000000" points="998.5,-123.5 998.5,-153.5 1117.5,-153.5 1117.5,-123.5 998.5,-123.5"/>
<text text-anchor="start" x="1006.5" y="-141.5" font-family="Helvetica,sans-Serif" font-size="10.00" fill="#000000">ViennaRNA/constraints</text>
<text text-anchor="middle" x="1058" y="-130.5" font-family="Helvetica,sans-Serif" font-size="10.00" fill="#000000">/soft.h</text>
</a>
</g>
</g>
<!-- Node4&#45;&gt;Node13 -->
<g id="edge35" class="edge">
<title>Node4&#45;&gt;Node13</title>
<path fill="none" stroke="#191970" d="M885.6099,-246.4526C914.0518,-238.3268 947.4649,-226.4982 975,-210 996.5976,-197.0593 1016.8434,-176.6963 1032.1815,-161.0057"/>
<polygon fill="#191970" stroke="#191970" points="1034.8079,-163.3261 1039.3013,-153.7313 1029.8052,-158.4297 1034.8079,-163.3261"/>
</g>
<!-- Node14 -->
<g id="node15" class="node">
<title>Node14</title>
<g id="a_node15"><a xlink:href="grammar_8h.html" target="_top" xlink:title="Implementations for the RNA folding grammar. ">
<polygon fill="none" stroke="#000000" points="218,-129 218,-148 336,-148 336,-129 218,-129"/>
<text text-anchor="middle" x="277" y="-136" font-family="Helvetica,sans-Serif" font-size="10.00" fill="#000000">ViennaRNA/grammar.h</text>
</a>
</g>
</g>
<!-- Node4&#45;&gt;Node14 -->
<g id="edge36" class="edge">
<title>Node4&#45;&gt;Node14</title>
<path fill="none" stroke="#191970" d="M756.7198,-253.3417C693.0562,-244.557 595.3192,-229.2193 512,-210 438.621,-193.0736 354.6844,-166.9545 309.5112,-151.4115"/>
<polygon fill="#191970" stroke="#191970" points="310.5431,-148.0647 299.9483,-148.0749 308.2371,-154.6739 310.5431,-148.0647"/>
</g>
<!-- Node15 -->
<g id="node16" class="node">
<title>Node15</title>
<g id="a_node16"><a xlink:href="structured__domains_8h.html" target="_top" xlink:title="This module provides interfaces that deal with additional structured domains in the folding grammar...">
<polygon fill="none" stroke="#000000" points="354.5,-123.5 354.5,-153.5 469.5,-153.5 469.5,-123.5 354.5,-123.5"/>
<text text-anchor="start" x="362.5" y="-141.5" font-family="Helvetica,sans-Serif" font-size="10.00" fill="#000000">ViennaRNA/structured</text>
<text text-anchor="middle" x="412" y="-130.5" font-family="Helvetica,sans-Serif" font-size="10.00" fill="#000000">_domains.h</text>
</a>
</g>
</g>
<!-- Node4&#45;&gt;Node15 -->
<g id="edge37" class="edge">
<title>Node4&#45;&gt;Node15</title>
<path fill="none" stroke="#191970" d="M756.9697,-251.5534C706.2837,-243.0955 635.353,-229.2438 575,-210 531.0546,-195.9878 482.9406,-174.008 450.4593,-158.1156"/>
<polygon fill="#191970" stroke="#191970" points="451.8324,-154.8902 441.3163,-153.6007 448.733,-161.1667 451.8324,-154.8902"/>
</g>
<!-- Node16 -->
<g id="node17" class="node">
<title>Node16</title>
<g id="a_node17"><a xlink:href="unstructured__domains_8h.html" target="_top" xlink:title="Functions to modify unstructured domains, e.g. to incorporate ligands binding to unpaired stretches...">
<polygon fill="none" stroke="#000000" points="1135.5,-123.5 1135.5,-153.5 1260.5,-153.5 1260.5,-123.5 1135.5,-123.5"/>
<text text-anchor="start" x="1143.5" y="-141.5" font-family="Helvetica,sans-Serif" font-size="10.00" fill="#000000">ViennaRNA/unstructured</text>
<text text-anchor="middle" x="1198" y="-130.5" font-family="Helvetica,sans-Serif" font-size="10.00" fill="#000000">_domains.h</text>
</a>
</g>
</g>
<!-- Node4&#45;&gt;Node16 -->
<g id="edge38" class="edge">
<title>Node4&#45;&gt;Node16</title>
<path fill="none" stroke="#191970" d="M881.2749,-246.4053C918.3127,-237.0365 967.2774,-224.1159 1010,-210 1057.1061,-194.4357 1109.6838,-172.9195 1147.3459,-157.5648"/>
<polygon fill="#191970" stroke="#191970" points="1149.1292,-160.6177 1157.0707,-153.6046 1146.4891,-154.1346 1149.1292,-160.6177"/>
</g>
<!-- Node17 -->
<g id="node18" class="node">
<title>Node17</title>
<g id="a_node18"><a xlink:href="utils_2structures_8h.html" target="_top" xlink:title="Various utility&#45; and helper&#45;functions for secondary structure parsing, converting, etc. ">
<polygon fill="none" stroke="#000000" points="1264,-62 1264,-81 1408,-81 1408,-62 1264,-62"/>
<text text-anchor="middle" x="1336" y="-69" font-family="Helvetica,sans-Serif" font-size="10.00" fill="#000000">ViennaRNA/utils/structures.h</text>
</a>
</g>
</g>
<!-- Node4&#45;&gt;Node17 -->
<g id="edge39" class="edge">
<title>Node4&#45;&gt;Node17</title>
<path fill="none" stroke="#191970" d="M889.1596,-246.4867C890.1117,-246.3218 891.0589,-246.1595 892,-246 1007.4525,-226.4366 1040.3862,-242.0957 1153,-210 1211.9349,-193.2032 1233.3769,-194.9144 1279,-154 1298.7641,-136.2757 1312.5897,-108.4254 1322.3749,-90.0645"/>
<polygon fill="#191970" stroke="#191970" points="1325.5007,-91.6443 1327.2704,-81.1983 1319.3728,-88.2607 1325.5007,-91.6443"/>
</g>
<!-- Node6 -->
<g id="node7" class="node">
<title>Node6</title>
<polygon fill="none" stroke="#bfbfbf" points="821,-.5 821,-19.5 869,-19.5 869,-.5 821,-.5"/>
<text text-anchor="middle" x="845" y="-7.5" font-family="Helvetica,sans-Serif" font-size="10.00" fill="#000000">limits.h</text>
</g>
<!-- Node5&#45;&gt;Node6 -->
<g id="edge6" class="edge">
<title>Node5&#45;&gt;Node6</title>
<path fill="none" stroke="#191970" d="M845,-61.8906C845,-53.3657 845,-40.6392 845,-29.9235"/>
<polygon fill="#191970" stroke="#191970" points="848.5001,-29.7448 845,-19.7449 841.5001,-29.7449 848.5001,-29.7448"/>
</g>
<!-- Node7&#45;&gt;Node2 -->
<g id="edge8" class="edge">
<title>Node7&#45;&gt;Node2</title>
<path fill="none" stroke="#191970" d="M655.174,-190.4271C651.4811,-173.8572 641.4838,-139.9794 619,-123 585.5201,-97.7165 473.569,-83.3589 401.4852,-76.5283"/>
<polygon fill="#191970" stroke="#191970" points="401.4326,-73.0087 391.1532,-75.5747 400.7892,-79.9791 401.4326,-73.0087"/>
</g>
<!-- Node7&#45;&gt;Node8 -->
<g id="edge9" class="edge">
<title>Node7&#45;&gt;Node8</title>
<path fill="none" stroke="#191970" d="M669.1875,-190.3906C681.437,-180.7324 700.5263,-165.6812 714.9977,-154.271"/>
<polygon fill="#191970" stroke="#191970" points="717.2124,-156.9819 722.8981,-148.0419 712.8783,-151.485 717.2124,-156.9819"/>
</g>
<!-- Node9 -->
<g id="node10" class="node">
<title>Node9</title>
<g id="a_node10"><a xlink:href="sequence_8h.html" target="_top" xlink:title="Functions and data structures related to sequence representations ,. ">
<polygon fill="none" stroke="#000000" points="488,-129 488,-148 610,-148 610,-129 488,-129"/>
<text text-anchor="middle" x="549" y="-136" font-family="Helvetica,sans-Serif" font-size="10.00" fill="#000000">ViennaRNA/sequence.h</text>
</a>
</g>
</g>
<!-- Node7&#45;&gt;Node9 -->
<g id="edge13" class="edge">
<title>Node7&#45;&gt;Node9</title>
<path fill="none" stroke="#191970" d="M640.125,-190.3906C622.5302,-180.3713 594.7434,-164.5483 574.4759,-153.0071"/>
<polygon fill="#191970" stroke="#191970" points="576.1783,-149.9489 565.7565,-148.0419 572.7144,-156.0318 576.1783,-149.9489"/>
</g>
<!-- Node7&#45;&gt;Node10 -->
<g id="edge14" class="edge">
<title>Node7&#45;&gt;Node10</title>
<path fill="none" stroke="#191970" d="M583.7769,-194.7169C494.8361,-187.7853 340.3898,-174.0934 209,-154 201.503,-152.8535 193.6263,-151.4612 185.8998,-149.9869"/>
<polygon fill="#191970" stroke="#191970" points="186.361,-146.5106 175.8735,-148.0151 185.0102,-153.379 186.361,-146.5106"/>
</g>
<!-- Node7&#45;&gt;Node11 -->
<g id="edge16" class="edge">
<title>Node7&#45;&gt;Node11</title>
<path fill="none" stroke="#191970" d="M692.1563,-190.3906C725.4973,-181.2774 776.4047,-167.3627 817.1129,-156.2358"/>
<polygon fill="#191970" stroke="#191970" points="818.2355,-159.5574 826.9588,-153.5446 816.3898,-152.8051 818.2355,-159.5574"/>
</g>
<!-- Node7&#45;&gt;Node13 -->
<g id="edge20" class="edge">
<title>Node7&#45;&gt;Node13</title>
<path fill="none" stroke="#191970" d="M719.2163,-190.4581C792.0613,-179.2861 912.3878,-160.8321 988.3096,-149.1882"/>
<polygon fill="#191970" stroke="#191970" points="988.9052,-152.6379 998.259,-147.6623 987.844,-145.7187 988.9052,-152.6379"/>
</g>
<!-- Node7&#45;&gt;Node14 -->
<g id="edge23" class="edge">
<title>Node7&#45;&gt;Node14</title>
<path fill="none" stroke="#191970" d="M583.9203,-190.8591C520.5205,-182.5398 426.3959,-169.2532 345,-154 338.9081,-152.8584 332.5337,-151.5536 326.2333,-150.1966"/>
<polygon fill="#191970" stroke="#191970" points="326.9641,-146.7737 316.4448,-148.037 325.4559,-153.6093 326.9641,-146.7737"/>
</g>
<!-- Node7&#45;&gt;Node15 -->
<g id="edge25" class="edge">
<title>Node7&#45;&gt;Node15</title>
<path fill="none" stroke="#191970" d="M618.9876,-190.4581C581.8757,-181.1423 524.5928,-166.7631 479.6884,-155.4912"/>
<polygon fill="#191970" stroke="#191970" points="480.2778,-152.0306 469.7265,-152.9905 478.5735,-158.82 480.2778,-152.0306"/>
</g>
<!-- Node7&#45;&gt;Node16 -->
<g id="edge26" class="edge">
<title>Node7&#45;&gt;Node16</title>
<path fill="none" stroke="#191970" d="M730.203,-195.5078C820.8583,-189.3462 980.1417,-176.5671 1125.3681,-154.1539"/>
<polygon fill="#191970" stroke="#191970" points="1126.0156,-157.5953 1135.3555,-152.5936 1124.9351,-150.6791 1126.0156,-157.5953"/>
</g>
<!-- Node8&#45;&gt;Node2 -->
<g id="edge12" class="edge">
<title>Node8&#45;&gt;Node2</title>
<path fill="none" stroke="#191970" d="M684.9972,-128.9776C674.1273,-126.9592 662.6845,-124.8736 652,-123 565.2796,-107.7929 464.8343,-91.5598 401.3655,-81.4723"/>
<polygon fill="#191970" stroke="#191970" points="401.5432,-77.9568 391.1181,-79.846 400.4459,-84.8702 401.5432,-77.9568"/>
</g>
<!-- Node8&#45;&gt;Node4 -->
<g id="edge11" class="edge">
<title>Node8&#45;&gt;Node4</title>
<path fill="none" stroke="#191970" d="M745.7353,-148.0493C762.8141,-167.1631 794.8017,-210.6215 812.347,-237.8606"/>
<polygon fill="#191970" stroke="#191970" points="809.4298,-239.7969 817.7011,-246.4178 815.364,-236.0839 809.4298,-239.7969"/>
</g>
<!-- Node8&#45;&gt;Node5 -->
<g id="edge10" class="edge">
<title>Node8&#45;&gt;Node5</title>
<path fill="none" stroke="#191970" d="M750.7603,-128.9005C768.9757,-117.8057 799.173,-99.4128 820.4677,-86.4424"/>
<polygon fill="#191970" stroke="#191970" points="822.5491,-89.2728 829.2689,-81.0817 818.9077,-83.2945 822.5491,-89.2728"/>
</g>
<!-- Node10&#45;&gt;Node4 -->
<g id="edge15" class="edge">
<title>Node10&#45;&gt;Node4</title>
<path fill="none" stroke="#191970" d="M174.9531,-148.0166C235.9332,-162.8782 352.1596,-191.7786 452,-210 553.2816,-228.4844 670.8294,-243.3905 746.3051,-252.3198"/>
<polygon fill="#191970" stroke="#191970" points="746.3291,-255.8467 756.6697,-253.5398 747.1475,-248.8947 746.3291,-255.8467"/>
</g>
<!-- Node11&#45;&gt;Node4 -->
<g id="edge17" class="edge">
<title>Node11&#45;&gt;Node4</title>
<path fill="none" stroke="#191970" d="M879.459,-153.7056C872.0685,-174.7055 854.3865,-212.7987 840.7323,-237.6186"/>
<polygon fill="#191970" stroke="#191970" points="837.6291,-235.9952 835.7262,-246.4178 843.7133,-239.4567 837.6291,-235.9952"/>
</g>
<!-- Node12 -->
<g id="node13" class="node">
<title>Node12</title>
<g id="a_node13"><a xlink:href="constraints_2basic_8h.html" target="_top" xlink:title="Functions and data structures for constraining secondary structure predictions and evaluation...">
<polygon fill="none" stroke="#000000" points="998.5,-56.5 998.5,-86.5 1117.5,-86.5 1117.5,-56.5 998.5,-56.5"/>
<text text-anchor="start" x="1006.5" y="-74.5" font-family="Helvetica,sans-Serif" font-size="10.00" fill="#000000">ViennaRNA/constraints</text>
<text text-anchor="middle" x="1058" y="-63.5" font-family="Helvetica,sans-Serif" font-size="10.00" fill="#000000">/basic.h</text>
</a>
</g>
</g>
<!-- Node11&#45;&gt;Node12 -->
<g id="edge18" class="edge">
<title>Node11&#45;&gt;Node12</title>
<path fill="none" stroke="#191970" d="M921.4978,-123.4639C947.3359,-113.6278 981.2866,-100.7034 1008.8647,-90.2049"/>
<polygon fill="#191970" stroke="#191970" points="1010.2294,-93.4305 1018.3299,-86.6017 1007.7389,-86.8885 1010.2294,-93.4305"/>
</g>
<!-- Node12&#45;&gt;Node4 -->
<g id="edge19" class="edge">
<title>Node12&#45;&gt;Node4</title>
<path fill="none" stroke="#191970" d="M1117.5372,-74.2667C1194.0843,-80.1008 1312.3993,-98.1732 1270,-154 1213.9116,-227.8512 1159.0897,-188.0059 1069,-210 1037.7665,-217.6252 960.8113,-233.6364 901.41,-245.7946"/>
<polygon fill="#191970" stroke="#191970" points="900.3855,-242.4316 891.2892,-247.8636 901.7876,-249.2897 900.3855,-242.4316"/>
</g>
<!-- Node13&#45;&gt;Node4 -->
<g id="edge21" class="edge">
<title>Node13&#45;&gt;Node4</title>
<path fill="none" stroke="#191970" d="M1052.5689,-153.7313C1041.4331,-169.8333 1018.1317,-194.9418 993,-210 965.2254,-226.6418 931.47,-238.5323 901.4031,-246.6639"/>
<polygon fill="#191970" stroke="#191970" points="900.157,-243.3716 891.3619,-249.2789 901.9212,-250.1456 900.157,-243.3716"/>
</g>
<!-- Node13&#45;&gt;Node12 -->
<g id="edge22" class="edge">
<title>Node13&#45;&gt;Node12</title>
<path fill="none" stroke="#191970" d="M1058,-123.2967C1058,-115.5013 1058,-105.7991 1058,-96.9064"/>
<polygon fill="#191970" stroke="#191970" points="1061.5001,-96.6431 1058,-86.6432 1054.5001,-96.6432 1061.5001,-96.6431"/>
</g>
<!-- Node14&#45;&gt;Node4 -->
<g id="edge24" class="edge">
<title>Node14&#45;&gt;Node4</title>
<path fill="none" stroke="#191970" d="M311.3191,-148.0749C359.9277,-162.9512 451.0713,-191.7935 530,-210 603.1104,-226.8644 687.322,-240.7402 746.8901,-249.8225"/>
<polygon fill="#191970" stroke="#191970" points="746.5626,-253.3127 756.9741,-251.3502 747.6112,-246.3917 746.5626,-253.3127"/>
</g>
<!-- Node16&#45;&gt;Node4 -->
<g id="edge27" class="edge">
<title>Node16&#45;&gt;Node4</title>
<path fill="none" stroke="#191970" d="M1170.5514,-153.6046C1137.1244,-169.0265 1079.3156,-193.0449 1028,-210 986.7982,-223.6134 939.7908,-236.1152 901.2328,-245.3914"/>
<polygon fill="#191970" stroke="#191970" points="900.0272,-242.0804 891.1085,-247.7994 901.647,-248.8904 900.0272,-242.0804"/>
</g>
<!-- Node16&#45;&gt;Node17 -->
<g id="edge28" class="edge">
<title>Node16&#45;&gt;Node17</title>
<path fill="none" stroke="#191970" d="M1228.9699,-123.4639C1252.3331,-112.1209 1284.1559,-96.6707 1307.0194,-85.5703"/>
<polygon fill="#191970" stroke="#191970" points="1308.7516,-88.62 1316.2188,-81.1039 1305.6943,-82.323 1308.7516,-88.62"/>
</g>
<!-- Node17&#45;&gt;Node4 -->
<g id="edge30" class="edge">
<title>Node17&#45;&gt;Node4</title>
<path fill="none" stroke="#191970" d="M1338.027,-81.1983C1335.3674,-98.0877 1320.3162,-133.0902 1297,-154 1251.3769,-194.9144 1229.9349,-193.2032 1171,-210 1058.3862,-242.0957 1025.4525,-226.4366 910,-246 907.164,-246.4806 904.2726,-246.9871 901.3492,-247.5122"/>
<polygon fill="#191970" stroke="#191970" points="900.5213,-244.1057 891.3198,-249.3578 901.7881,-250.9901 900.5213,-244.1057"/>
</g>
<!-- Node18 -->
<g id="node19" class="node">
<title>Node18</title>
<polygon fill="none" stroke="#bfbfbf" points="1313,-.5 1313,-19.5 1359,-19.5 1359,-.5 1313,-.5"/>
<text text-anchor="middle" x="1336" y="-7.5" font-family="Helvetica,sans-Serif" font-size="10.00" fill="#000000">stdio.h</text>
</g>
<!-- Node17&#45;&gt;Node18 -->
<g id="edge29" class="edge">
<title>Node17&#45;&gt;Node18</title>
<path fill="none" stroke="#191970" d="M1336,-61.8906C1336,-53.3657 1336,-40.6392 1336,-29.9235"/>
<polygon fill="#191970" stroke="#191970" points="1339.5001,-29.7448 1336,-19.7449 1332.5001,-29.7449 1339.5001,-29.7448"/>
</g>
</g>
</svg>
        <g id="navigator" transform="translate(0 0)" fill="#404254">
                <rect fill="#f2f5e9" fill-opacity="0.5" stroke="#606060" stroke-width=".5" x="0" y="0" width="60" height="60"/>
                <use id="zoomplus" xlink:href="#zoomPlus" x="17" y="9" onmousedown="handleZoom(evt,'in')"/>
                <use id="zoomminus" xlink:href="#zoomMin" x="42" y="9" onmousedown="handleZoom(evt,'out')"/>
                <use id="reset" xlink:href="#resetDef" x="30" y="36" onmousedown="handleReset()"/>
                <g id="arrowUp" xlink:href="#dirArrow" transform="translate(30 24)" onmousedown="handlePan(0,-1)">
                  <use xlink:href="#rim" fill="#404040">
                        <set attributeName="fill" to="#808080" begin="arrowUp.mouseover" end="arrowUp.mouseout"/>
                  </use>
                  <path fill="none" stroke="white" stroke-width="1.5" d="M0,-3.0v7 M-2.5,-0.5L0,-3.0L2.5,-0.5"/>
                </g>
                <g id="arrowRight" xlink:href="#dirArrow" transform="rotate(90) translate(36 -43)" onmousedown="handlePan(1,0)">
                  <use xlink:href="#rim" fill="#404040">
                        <set attributeName="fill" to="#808080" begin="arrowRight.mouseover" end="arrowRight.mouseout"/>
                  </use>
                  <path fill="none" stroke="white" stroke-width="1.5" d="M0,-3.0v7 M-2.5,-0.5L0,-3.0L2.5,-0.5"/>
                </g>
                <g id="arrowDown" xlink:href="#dirArrow" transform="rotate(180) translate(-30 -48)" onmousedown="handlePan(0,1)">
                  <use xlink:href="#rim" fill="#404040">
                        <set attributeName="fill" to="#808080" begin="arrowDown.mouseover" end="arrowDown.mouseout"/>
                  </use>
                  <path fill="none" stroke="white" stroke-width="1.5" d="M0,-3.0v7 M-2.5,-0.5L0,-3.0L2.5,-0.5"/>
                </g>
                <g id="arrowLeft" xlink:href="#dirArrow" transform="rotate(270) translate(-36 17)" onmousedown="handlePan(-1,0)">
                  <use xlink:href="#rim" fill="#404040">
                        <set attributeName="fill" to="#808080" begin="arrowLeft.mouseover" end="arrowLeft.mouseout"/>
                  </use>
                  <path fill="none" stroke="white" stroke-width="1.5" d="M0,-3.0v7 M-2.5,-0.5L0,-3.0L2.5,-0.5"/>
                </g>
        </g>
        <svg viewBox="0 0 15 15" width="100%" height="30px" preserveAspectRatio="xMaxYMin meet">
         <g id="arrow_out" transform="scale(0.3 0.3)">
          <a xlink:href="plot__structure_8h__incl_org.svg" target="_base">
           <rect id="button" ry="5" rx="5" y="6" x="6" height="38" width="38"
                fill="#f2f5e9" fill-opacity="0.5" stroke="#606060" stroke-width="1.0"/>
           <path id="arrow"
             d="M 11.500037,31.436501 C 11.940474,20.09759 22.043105,11.32322 32.158766,21.979434 L 37.068811,17.246167 C 37.068811,17.246167 37.088388,32 37.088388,32 L 22.160133,31.978069 C 22.160133,31.978069 26.997745,27.140456 26.997745,27.140456 C 18.528582,18.264221 13.291696,25.230495 11.500037,31.436501 z"
             style="fill:#404040;"/>
          </a>
         </g>
        </svg>
</svg>
