<?xml version="1.0" encoding="UTF-8" standalone="no"?>
<!DOCTYPE svg PUBLIC "-//W3C//DTD SVG 1.1//EN"
 "http://www.w3.org/Graphics/SVG/1.1/DTD/svg11.dtd">
<!-- Generated by graphviz version 2.40.1 (20161225.0304)
 -->
<!-- Title: ViennaRNA/plotting/structures.h Pages: 1 -->
<svg width="278pt" height="95pt"
 viewBox="0.00 0.00 277.50 95.00" xmlns="http://www.w3.org/2000/svg" xmlns:xlink="http://www.w3.org/1999/xlink">
<g id="graph0" class="graph" transform="scale(1 1) rotate(0) translate(4 91)">
<title>ViennaRNA/plotting/structures.h</title>
<!-- Node19 -->
<g id="node1" class="node">
<title>Node19</title>
<polygon fill="#bfbfbf" stroke="#000000" points="90,-56.5 90,-86.5 193,-86.5 193,-56.5 90,-56.5"/>
<text text-anchor="start" x="98" y="-74.5" font-family="Helvetica,sans-Serif" font-size="10.00" fill="#000000">ViennaRNA/plotting</text>
<text text-anchor="middle" x="141.5" y="-63.5" font-family="Helvetica,sans-Serif" font-size="10.00" fill="#000000">/structures.h</text>
</g>
<!-- Node20 -->
<g id="node2" class="node">
<title>Node20</title>
<g id="a_node2"><a xlink:href="plot__structure_8h.html" target="_top" xlink:title="Use ViennaRNA/plotting/structures.h instead. ">
<polygon fill="none" stroke="#000000" points="0,-.5 0,-19.5 139,-19.5 139,-.5 0,-.5"/>
<text text-anchor="middle" x="69.5" y="-7.5" font-family="Helvetica,sans-Serif" font-size="10.00" fill="#000000">ViennaRNA/plot_structure.h</text>
</a>
</g>
</g>
<!-- Node19&#45;&gt;Node20 -->
<g id="edge1" class="edge">
<title>Node19&#45;&gt;Node20</title>
<path fill="none" stroke="#191970" d="M115.8018,-49.5494C103.9087,-39.3907 90.3776,-27.8329 81.0281,-19.8469"/>
<polygon fill="#191970" stroke="#191970" points="113.8253,-52.4642 123.7022,-56.2977 118.3717,-47.1415 113.8253,-52.4642"/>
</g>
<!-- Node21 -->
<g id="node3" class="node">
<title>Node21</title>
<g id="a_node3"><a xlink:href="PS__dot_8h.html" target="_top" xlink:title="Use ViennaRNA/plotting/probabilities.h instead. ">
<polygon fill="none" stroke="#000000" points="157.5,-.5 157.5,-19.5 269.5,-19.5 269.5,-.5 157.5,-.5"/>
<text text-anchor="middle" x="213.5" y="-7.5" font-family="Helvetica,sans-Serif" font-size="10.00" fill="#000000">ViennaRNA/PS_dot.h</text>
</a>
</g>
</g>
<!-- Node19&#45;&gt;Node21 -->
<g id="edge2" class="edge">
<title>Node19&#45;&gt;Node21</title>
<path fill="none" stroke="#191970" d="M167.1982,-49.5494C179.0913,-39.3907 192.6224,-27.8329 201.9719,-19.8469"/>
<polygon fill="#191970" stroke="#191970" points="164.6283,-47.1415 159.2978,-56.2977 169.1747,-52.4642 164.6283,-47.1415"/>
</g>
</g>
</svg>
