<?xml version="1.0" encoding="UTF-8" standalone="no"?>
<!DOCTYPE svg PUBLIC "-//W3C//DTD SVG 1.1//EN"
 "http://www.w3.org/Graphics/SVG/1.1/DTD/svg11.dtd">
<!-- Generated by graphviz version 2.40.1 (20161225.0304)
 -->
<!-- Title: ViennaRNA/plotting/probabilities.h Pages: 1 -->
<!--zoomable 352 -->
<svg id="main" version="1.1" xmlns="http://www.w3.org/2000/svg" xmlns:xlink="http://www.w3.org/1999/xlink" xml:space="preserve" onload="init(evt)">
<style type="text/css"><![CDATA[
.edge:hover path { stroke: red; }
.edge:hover polygon { stroke: red; fill: red; }
]]></style>
<script type="text/javascript"><![CDATA[
var edges = document.getElementsByTagName('g');
if (edges && edges.length) {
  for (var i=0;i<edges.length;i++) {
    if (edges[i].id.substr(0,4)=='edge') {
      edges[i].setAttribute('class','edge');
    }
  }
}
]]></script>
        <defs>
                <circle id="rim" cx="0" cy="0" r="7"/>
                <circle id="rim2" cx="0" cy="0" r="3.5"/>
                <g id="zoomPlus">
                        <use xlink:href="#rim" fill="#404040">
                                <set attributeName="fill" to="#808080" begin="zoomplus.mouseover" end="zoomplus.mouseout"/>
                        </use>
                        <path d="M-4,0h8M0,-4v8" fill="none" stroke="white" stroke-width="1.5" pointer-events="none"/>
                </g>
                <g id="zoomMin">
                        <use xlink:href="#rim" fill="#404040">
                                <set attributeName="fill" to="#808080" begin="zoomminus.mouseover" end="zoomminus.mouseout"/>
                        </use>
                        <path d="M-4,0h8" fill="none" stroke="white" stroke-width="1.5" pointer-events="none"/>
                </g>
                <g id="dirArrow">
                        <path fill="none" stroke="white" stroke-width="1.5" d="M0,-3.0v7 M-2.5,-0.5L0,-3.0L2.5,-0.5"/>
                </g>
               <g id="resetDef">
                       <use xlink:href="#rim2" fill="#404040">
                               <set attributeName="fill" to="#808080" begin="reset.mouseover" end="reset.mouseout"/>
                       </use>
               </g>
        </defs>

<script type="text/javascript">
var viewWidth = 1336;
var viewHeight = 352;
var sectionId = 'dynsection-0';
</script>
<script xlink:href="svgpan.js"/>
<svg id="graph" class="graph">
<g id="viewport">
<title>ViennaRNA/plotting/probabilities.h</title>
<!-- Node0 -->
<g id="node1" class="node">
<title>Node0</title>
<polygon fill="#bfbfbf" stroke="#000000" points="862.0471,-313.5 862.0471,-343.5 965.0471,-343.5 965.0471,-313.5 862.0471,-313.5"/>
<text text-anchor="start" x="870.0471" y="-331.5" font-family="Helvetica,sans-Serif" font-size="10.00" fill="#000000">ViennaRNA/plotting</text>
<text text-anchor="middle" x="913.5471" y="-320.5" font-family="Helvetica,sans-Serif" font-size="10.00" fill="#000000">/probabilities.h</text>
</g>
<!-- Node1 -->
<g id="node2" class="node">
<title>Node1</title>
<g id="a_node2"><a xlink:href="datastructures_2basic_8h.html" target="_top" xlink:title="Various data structures and pre&#45;processor macros. ">
<polygon fill="none" stroke="#000000" points="519.5471,-246.5 519.5471,-276.5 653.5471,-276.5 653.5471,-246.5 519.5471,-246.5"/>
<text text-anchor="start" x="527.5471" y="-264.5" font-family="Helvetica,sans-Serif" font-size="10.00" fill="#000000">ViennaRNA/datastructures</text>
<text text-anchor="middle" x="586.5471" y="-253.5" font-family="Helvetica,sans-Serif" font-size="10.00" fill="#000000">/basic.h</text>
</a>
</g>
</g>
<!-- Node0&#45;&gt;Node1 -->
<g id="edge1" class="edge">
<title>Node0&#45;&gt;Node1</title>
<path fill="none" stroke="#191970" d="M861.733,-317.8837C808.4232,-306.9609 724.7694,-289.8208 663.6794,-277.3039"/>
<polygon fill="#191970" stroke="#191970" points="664.1947,-273.8368 653.6957,-275.2583 662.7896,-280.6943 664.1947,-273.8368"/>
</g>
<!-- Node15 -->
<g id="node16" class="node">
<title>Node15</title>
<g id="a_node16"><a xlink:href="utils_2structures_8h.html" target="_top" xlink:title="Various utility&#45; and helper&#45;functions for secondary structure parsing, converting, etc. ">
<polygon fill="none" stroke="#000000" points="1183.5471,-62 1183.5471,-81 1327.5471,-81 1327.5471,-62 1183.5471,-62"/>
<text text-anchor="middle" x="1255.5471" y="-69" font-family="Helvetica,sans-Serif" font-size="10.00" fill="#000000">ViennaRNA/utils/structures.h</text>
</a>
</g>
</g>
<!-- Node0&#45;&gt;Node15 -->
<g id="edge37" class="edge">
<title>Node0&#45;&gt;Node15</title>
<path fill="none" stroke="#191970" d="M965.1143,-317.8649C1040.5769,-299.2589 1178.8104,-252.952 1240.5471,-154 1252.424,-134.9635 1255.4368,-108.9446 1255.9539,-91.2514"/>
<polygon fill="#191970" stroke="#191970" points="1259.4539,-91.2337 1256.0059,-81.2157 1252.454,-91.1974 1259.4539,-91.2337"/>
</g>
<!-- Node2 -->
<g id="node3" class="node">
<title>Node2</title>
<g id="a_node3"><a xlink:href="constants_8h.html" target="_top" xlink:title="Energy parameter constants. ">
<polygon fill="none" stroke="#000000" points="459.5471,-62 459.5471,-81 617.5471,-81 617.5471,-62 459.5471,-62"/>
<text text-anchor="middle" x="538.5471" y="-69" font-family="Helvetica,sans-Serif" font-size="10.00" fill="#000000">ViennaRNA/params/constants.h</text>
</a>
</g>
</g>
<!-- Node1&#45;&gt;Node2 -->
<g id="edge2" class="edge">
<title>Node1&#45;&gt;Node2</title>
<path fill="none" stroke="#191970" d="M519.3573,-259.201C382.4486,-252.9524 78.7551,-230.5814 15.5471,-154 6.7768,-143.3741 6.2944,-133.2086 15.5471,-123 29.8984,-107.1661 303.4348,-86.9205 449.0492,-77.2043"/>
<polygon fill="#191970" stroke="#191970" points="449.561,-80.6782 459.3071,-76.5232 449.0971,-73.6935 449.561,-80.6782"/>
</g>
<!-- Node4 -->
<g id="node5" class="node">
<title>Node4</title>
<g id="a_node5"><a xlink:href="fold__compound_8h.html" target="_top" xlink:title="The Basic Fold Compound API. ">
<polygon fill="none" stroke="#000000" points="568.5471,-190.5 568.5471,-209.5 714.5471,-209.5 714.5471,-190.5 568.5471,-190.5"/>
<text text-anchor="middle" x="641.5471" y="-197.5" font-family="Helvetica,sans-Serif" font-size="10.00" fill="#000000">ViennaRNA/fold_compound.h</text>
</a>
</g>
</g>
<!-- Node1&#45;&gt;Node4 -->
<g id="edge4" class="edge">
<title>Node1&#45;&gt;Node4</title>
<path fill="none" stroke="#191970" d="M600.1426,-246.2977C607.9362,-237.5831 617.7518,-226.6075 625.8697,-217.5302"/>
<polygon fill="#191970" stroke="#191970" points="628.6836,-219.6341 632.7409,-209.8469 623.4658,-214.9678 628.6836,-219.6341"/>
</g>
<!-- Node5 -->
<g id="node6" class="node">
<title>Node5</title>
<g id="a_node6"><a xlink:href="model_8h.html" target="_top" xlink:title="The model details data structure and its corresponding modifiers. ">
<polygon fill="none" stroke="#000000" points="781.5471,-62 781.5471,-81 887.5471,-81 887.5471,-62 781.5471,-62"/>
<text text-anchor="middle" x="834.5471" y="-69" font-family="Helvetica,sans-Serif" font-size="10.00" fill="#000000">ViennaRNA/model.h</text>
</a>
</g>
</g>
<!-- Node1&#45;&gt;Node5 -->
<g id="edge28" class="edge">
<title>Node1&#45;&gt;Node5</title>
<path fill="none" stroke="#191970" d="M653.6195,-259.922C796.1558,-255.0061 1121.7433,-234.966 1189.5471,-154 1198.3929,-143.437 1198.563,-133.4183 1189.5471,-123 1170.7526,-101.2823 994.7095,-84.1223 897.8011,-76.2284"/>
<polygon fill="#191970" stroke="#191970" points="898.0689,-72.7388 887.8204,-75.4254 897.5074,-79.7162 898.0689,-72.7388"/>
</g>
<!-- Node6 -->
<g id="node7" class="node">
<title>Node6</title>
<g id="a_node7"><a xlink:href="params_2basic_8h.html" target="_top" xlink:title="Functions to deal with sets of energy parameters. ">
<polygon fill="none" stroke="#000000" points="765.5471,-129 765.5471,-148 903.5471,-148 903.5471,-129 765.5471,-129"/>
<text text-anchor="middle" x="834.5471" y="-136" font-family="Helvetica,sans-Serif" font-size="10.00" fill="#000000">ViennaRNA/params/basic.h</text>
</a>
</g>
</g>
<!-- Node1&#45;&gt;Node6 -->
<g id="edge29" class="edge">
<title>Node1&#45;&gt;Node6</title>
<path fill="none" stroke="#191970" d="M625.9864,-246.4915C651.7741,-237.2848 685.7163,-224.497 714.5471,-210 747.7791,-193.29 783.48,-169.0361 807.4599,-153.5158"/>
<polygon fill="#191970" stroke="#191970" points="809.5048,-156.3627 816.047,-148.0291 805.7357,-150.464 809.5048,-156.3627"/>
</g>
<!-- Node8 -->
<g id="node9" class="node">
<title>Node8</title>
<g id="a_node9"><a xlink:href="dp__matrices_8h.html" target="_top" xlink:title="Functions to deal with standard dynamic programming (DP) matrices. ">
<polygon fill="none" stroke="#000000" points="25.0471,-129 25.0471,-148 158.0471,-148 158.0471,-129 25.0471,-129"/>
<text text-anchor="middle" x="91.5471" y="-136" font-family="Helvetica,sans-Serif" font-size="10.00" fill="#000000">ViennaRNA/dp_matrices.h</text>
</a>
</g>
</g>
<!-- Node1&#45;&gt;Node8 -->
<g id="edge30" class="edge">
<title>Node1&#45;&gt;Node8</title>
<path fill="none" stroke="#191970" d="M521.4912,-246.4793C419.2776,-221.8211 223.9078,-173.2431 136.1054,-150.6222"/>
<polygon fill="#191970" stroke="#191970" points="136.7521,-147.1744 126.1944,-148.0604 135.0003,-153.9517 136.7521,-147.1744"/>
</g>
<!-- Node9 -->
<g id="node10" class="node">
<title>Node9</title>
<g id="a_node10"><a xlink:href="hard_8h.html" target="_top" xlink:title="Functions and data structures for handling of secondary structure hard constraints. ">
<polygon fill="none" stroke="#000000" points="176.0471,-123.5 176.0471,-153.5 295.0471,-153.5 295.0471,-123.5 176.0471,-123.5"/>
<text text-anchor="start" x="184.0471" y="-141.5" font-family="Helvetica,sans-Serif" font-size="10.00" fill="#000000">ViennaRNA/constraints</text>
<text text-anchor="middle" x="235.5471" y="-130.5" font-family="Helvetica,sans-Serif" font-size="10.00" fill="#000000">/hard.h</text>
</a>
</g>
</g>
<!-- Node1&#45;&gt;Node9 -->
<g id="edge31" class="edge">
<title>Node1&#45;&gt;Node9</title>
<path fill="none" stroke="#191970" d="M538.8933,-246.4178C471.7935,-223.8562 350.4236,-181.3686 283.2828,-156.9761"/>
<polygon fill="#191970" stroke="#191970" points="284.3771,-153.6497 273.7831,-153.513 281.9795,-160.2264 284.3771,-153.6497"/>
</g>
<!-- Node11 -->
<g id="node12" class="node">
<title>Node11</title>
<g id="a_node12"><a xlink:href="soft_8h.html" target="_top" xlink:title="Functions and data structures for secondary structure soft constraints. ">
<polygon fill="none" stroke="#000000" points="450.0471,-123.5 450.0471,-153.5 569.0471,-153.5 569.0471,-123.5 450.0471,-123.5"/>
<text text-anchor="start" x="458.0471" y="-141.5" font-family="Helvetica,sans-Serif" font-size="10.00" fill="#000000">ViennaRNA/constraints</text>
<text text-anchor="middle" x="509.5471" y="-130.5" font-family="Helvetica,sans-Serif" font-size="10.00" fill="#000000">/soft.h</text>
</a>
</g>
</g>
<!-- Node1&#45;&gt;Node11 -->
<g id="edge32" class="edge">
<title>Node1&#45;&gt;Node11</title>
<path fill="none" stroke="#191970" d="M572.4911,-246.4178C556.935,-225.5772 532.947,-187.7346 519.287,-162.8571"/>
<polygon fill="#191970" stroke="#191970" points="522.2123,-160.9025 514.437,-153.7056 516.0272,-164.1804 522.2123,-160.9025"/>
</g>
<!-- Node12 -->
<g id="node13" class="node">
<title>Node12</title>
<g id="a_node13"><a xlink:href="grammar_8h.html" target="_top" xlink:title="Implementations for the RNA folding grammar. ">
<polygon fill="none" stroke="#000000" points="313.5471,-129 313.5471,-148 431.5471,-148 431.5471,-129 313.5471,-129"/>
<text text-anchor="middle" x="372.5471" y="-136" font-family="Helvetica,sans-Serif" font-size="10.00" fill="#000000">ViennaRNA/grammar.h</text>
</a>
</g>
</g>
<!-- Node1&#45;&gt;Node12 -->
<g id="edge33" class="edge">
<title>Node1&#45;&gt;Node12</title>
<path fill="none" stroke="#191970" d="M555.6922,-246.4178C511.6876,-222.7627 432.4223,-177.2031 394.1392,-153.5611"/>
<polygon fill="#191970" stroke="#191970" points="395.6687,-150.3893 385.3355,-148.0493 391.9541,-156.3224 395.6687,-150.3893"/>
</g>
<!-- Node13 -->
<g id="node14" class="node">
<title>Node13</title>
<g id="a_node14"><a xlink:href="structured__domains_8h.html" target="_top" xlink:title="This module provides interfaces that deal with additional structured domains in the folding grammar...">
<polygon fill="none" stroke="#000000" points="922.0471,-123.5 922.0471,-153.5 1037.0471,-153.5 1037.0471,-123.5 922.0471,-123.5"/>
<text text-anchor="start" x="930.0471" y="-141.5" font-family="Helvetica,sans-Serif" font-size="10.00" fill="#000000">ViennaRNA/structured</text>
<text text-anchor="middle" x="979.5471" y="-130.5" font-family="Helvetica,sans-Serif" font-size="10.00" fill="#000000">_domains.h</text>
</a>
</g>
</g>
<!-- Node1&#45;&gt;Node13 -->
<g id="edge34" class="edge">
<title>Node1&#45;&gt;Node13</title>
<path fill="none" stroke="#191970" d="M640.458,-246.4993C675.8421,-236.5069 723.0743,-222.8901 764.5471,-210 820.074,-192.7417 883.1606,-171.5747 926.563,-156.7672"/>
<polygon fill="#191970" stroke="#191970" points="927.7303,-160.0671 936.061,-153.5211 925.4665,-153.4433 927.7303,-160.0671"/>
</g>
<!-- Node14 -->
<g id="node15" class="node">
<title>Node14</title>
<g id="a_node15"><a xlink:href="unstructured__domains_8h.html" target="_top" xlink:title="Functions to modify unstructured domains, e.g. to incorporate ligands binding to unpaired stretches...">
<polygon fill="none" stroke="#000000" points="1055.0471,-123.5 1055.0471,-153.5 1180.0471,-153.5 1180.0471,-123.5 1055.0471,-123.5"/>
<text text-anchor="start" x="1063.0471" y="-141.5" font-family="Helvetica,sans-Serif" font-size="10.00" fill="#000000">ViennaRNA/unstructured</text>
<text text-anchor="middle" x="1117.5471" y="-130.5" font-family="Helvetica,sans-Serif" font-size="10.00" fill="#000000">_domains.h</text>
</a>
</g>
</g>
<!-- Node1&#45;&gt;Node14 -->
<g id="edge35" class="edge">
<title>Node1&#45;&gt;Node14</title>
<path fill="none" stroke="#191970" d="M646.7856,-246.4793C745.0011,-223.0738 939.053,-178.1171 1044.7969,-154.2642"/>
<polygon fill="#191970" stroke="#191970" points="1045.7616,-157.6347 1054.7484,-152.0232 1044.2237,-150.8057 1045.7616,-157.6347"/>
</g>
<!-- Node1&#45;&gt;Node15 -->
<g id="edge36" class="edge">
<title>Node1&#45;&gt;Node15</title>
<path fill="none" stroke="#191970" d="M653.5644,-258.7277C775.2592,-253.2267 1027.3333,-238.8865 1110.5471,-210 1153.9885,-194.9199 1165.6212,-187.0954 1197.5471,-154 1215.8933,-134.9818 1230.3169,-107.857 1240.7763,-89.9736"/>
<polygon fill="#191970" stroke="#191970" points="1243.9683,-91.461 1246.1789,-81.0993 1237.9892,-87.8209 1243.9683,-91.461"/>
</g>
<!-- Node3 -->
<g id="node4" class="node">
<title>Node3</title>
<polygon fill="none" stroke="#bfbfbf" points="514.5471,-.5 514.5471,-19.5 562.5471,-19.5 562.5471,-.5 514.5471,-.5"/>
<text text-anchor="middle" x="538.5471" y="-7.5" font-family="Helvetica,sans-Serif" font-size="10.00" fill="#000000">limits.h</text>
</g>
<!-- Node2&#45;&gt;Node3 -->
<g id="edge3" class="edge">
<title>Node2&#45;&gt;Node3</title>
<path fill="none" stroke="#191970" d="M538.5471,-61.8906C538.5471,-53.3657 538.5471,-40.6392 538.5471,-29.9235"/>
<polygon fill="#191970" stroke="#191970" points="542.0472,-29.7448 538.5471,-19.7449 535.0472,-29.7449 542.0472,-29.7448"/>
</g>
<!-- Node4&#45;&gt;Node5 -->
<g id="edge5" class="edge">
<title>Node4&#45;&gt;Node5</title>
<path fill="none" stroke="#191970" d="M659.1259,-190.4672C675.0347,-181.6156 698.9106,-167.7653 718.5471,-154 736.3945,-141.4888 738.9859,-135.9099 756.5471,-123 774.1433,-110.0643 794.7962,-96.4959 810.4284,-86.5353"/>
<polygon fill="#191970" stroke="#191970" points="812.4106,-89.423 818.9912,-81.1196 808.6688,-83.5069 812.4106,-89.423"/>
</g>
<!-- Node4&#45;&gt;Node6 -->
<g id="edge6" class="edge">
<title>Node4&#45;&gt;Node6</title>
<path fill="none" stroke="#191970" d="M671.7033,-190.3906C704.8456,-179.8298 758.2233,-162.8208 794.7713,-151.1747"/>
<polygon fill="#191970" stroke="#191970" points="796.1373,-154.4129 804.6026,-148.0419 794.012,-147.7433 796.1373,-154.4129"/>
</g>
<!-- Node7 -->
<g id="node8" class="node">
<title>Node7</title>
<g id="a_node8"><a xlink:href="sequence_8h.html" target="_top" xlink:title="Functions and data structures related to sequence representations ,. ">
<polygon fill="none" stroke="#000000" points="587.5471,-129 587.5471,-148 709.5471,-148 709.5471,-129 587.5471,-129"/>
<text text-anchor="middle" x="648.5471" y="-136" font-family="Helvetica,sans-Serif" font-size="10.00" fill="#000000">ViennaRNA/sequence.h</text>
</a>
</g>
</g>
<!-- Node4&#45;&gt;Node7 -->
<g id="edge10" class="edge">
<title>Node4&#45;&gt;Node7</title>
<path fill="none" stroke="#191970" d="M642.6408,-190.3906C643.6111,-181.8657 645.0597,-169.1392 646.2794,-158.4235"/>
<polygon fill="#191970" stroke="#191970" points="649.7845,-158.5766 647.4379,-148.2449 642.8294,-157.7849 649.7845,-158.5766"/>
</g>
<!-- Node4&#45;&gt;Node8 -->
<g id="edge11" class="edge">
<title>Node4&#45;&gt;Node8</title>
<path fill="none" stroke="#191970" d="M568.4174,-195.3633C474.8834,-188.873 308.0615,-175.4123 166.5471,-154 159.143,-152.8797 151.3667,-151.5021 143.7403,-150.0347"/>
<polygon fill="#191970" stroke="#191970" points="144.3354,-146.5846 133.8449,-148.068 142.9707,-153.4503 144.3354,-146.5846"/>
</g>
<!-- Node4&#45;&gt;Node9 -->
<g id="edge13" class="edge">
<title>Node4&#45;&gt;Node9</title>
<path fill="none" stroke="#191970" d="M568.2943,-191.8282C502.1114,-184.0276 401.8406,-171.1753 305.259,-154.0365"/>
<polygon fill="#191970" stroke="#191970" points="305.7834,-150.5748 295.3228,-152.2556 304.5484,-157.465 305.7834,-150.5748"/>
</g>
<!-- Node4&#45;&gt;Node11 -->
<g id="edge17" class="edge">
<title>Node4&#45;&gt;Node11</title>
<path fill="none" stroke="#191970" d="M620.9221,-190.3906C602.3131,-181.7205 574.3764,-168.7046 551.1386,-157.8779"/>
<polygon fill="#191970" stroke="#191970" points="552.3805,-154.5953 541.8379,-153.5446 549.4242,-160.9404 552.3805,-154.5953"/>
</g>
<!-- Node4&#45;&gt;Node12 -->
<g id="edge20" class="edge">
<title>Node4&#45;&gt;Node12</title>
<path fill="none" stroke="#191970" d="M599.811,-190.4581C552.4956,-179.6406 475.3179,-161.9959 424.2335,-150.3168"/>
<polygon fill="#191970" stroke="#191970" points="424.9097,-146.8811 414.3811,-148.0643 423.3495,-153.7051 424.9097,-146.8811"/>
</g>
<!-- Node4&#45;&gt;Node13 -->
<g id="edge22" class="edge">
<title>Node4&#45;&gt;Node13</title>
<path fill="none" stroke="#191970" d="M703.8985,-190.4911C756.6929,-182.1945 834.597,-169.3782 911.9327,-154.0557"/>
<polygon fill="#191970" stroke="#191970" points="912.7291,-157.4659 921.8505,-152.0761 911.3588,-150.6013 912.7291,-157.4659"/>
</g>
<!-- Node4&#45;&gt;Node14 -->
<g id="edge23" class="edge">
<title>Node4&#45;&gt;Node14</title>
<path fill="none" stroke="#191970" d="M714.653,-193.9549C793.7724,-186.9029 923.8255,-173.8335 1044.721,-154.2107"/>
<polygon fill="#191970" stroke="#191970" points="1045.5933,-157.6145 1054.894,-152.5403 1044.459,-150.707 1045.5933,-157.6145"/>
</g>
<!-- Node6&#45;&gt;Node1 -->
<g id="edge8" class="edge">
<title>Node6&#45;&gt;Node1</title>
<path fill="none" stroke="#191970" d="M827.4718,-148.0291C810.6421,-162.716 770.0246,-191.1552 732.5471,-210 706.9823,-222.8547 677.3986,-234.3657 651.5126,-243.2275"/>
<polygon fill="#191970" stroke="#191970" points="650.1551,-239.9912 641.7887,-246.4915 652.3827,-246.6274 650.1551,-239.9912"/>
</g>
<!-- Node6&#45;&gt;Node2 -->
<g id="edge7" class="edge">
<title>Node6&#45;&gt;Node2</title>
<path fill="none" stroke="#191970" d="M792.4519,-128.9717C739.4513,-116.975 648.399,-96.3651 590.9461,-83.3606"/>
<polygon fill="#191970" stroke="#191970" points="591.5023,-79.898 580.9763,-81.1039 589.9569,-86.7253 591.5023,-79.898"/>
</g>
<!-- Node6&#45;&gt;Node5 -->
<g id="edge9" class="edge">
<title>Node6&#45;&gt;Node5</title>
<path fill="none" stroke="#191970" d="M834.5471,-128.9005C834.5471,-119.149 834.5471,-103.7597 834.5471,-91.3695"/>
<polygon fill="#191970" stroke="#191970" points="838.0472,-91.0816 834.5471,-81.0817 831.0472,-91.0817 838.0472,-91.0816"/>
</g>
<!-- Node8&#45;&gt;Node1 -->
<g id="edge12" class="edge">
<title>Node8&#45;&gt;Node1</title>
<path fill="none" stroke="#191970" d="M133.8027,-148.0493C220.247,-168.659 417.4514,-217.5728 520.7664,-243.9384"/>
<polygon fill="#191970" stroke="#191970" points="519.9093,-247.3318 530.4646,-246.4178 521.6432,-240.5499 519.9093,-247.3318"/>
</g>
<!-- Node9&#45;&gt;Node1 -->
<g id="edge14" class="edge">
<title>Node9&#45;&gt;Node1</title>
<path fill="none" stroke="#191970" d="M282.995,-153.513C349.9836,-176.0337 471.3533,-218.5194 538.6051,-242.949"/>
<polygon fill="#191970" stroke="#191970" points="537.5279,-246.2815 548.1219,-246.4178 539.9251,-239.7048 537.5279,-246.2815"/>
</g>
<!-- Node10 -->
<g id="node11" class="node">
<title>Node10</title>
<g id="a_node11"><a xlink:href="constraints_2basic_8h.html" target="_top" xlink:title="Functions and data structures for constraining secondary structure predictions and evaluation...">
<polygon fill="none" stroke="#000000" points="176.0471,-56.5 176.0471,-86.5 295.0471,-86.5 295.0471,-56.5 176.0471,-56.5"/>
<text text-anchor="start" x="184.0471" y="-74.5" font-family="Helvetica,sans-Serif" font-size="10.00" fill="#000000">ViennaRNA/constraints</text>
<text text-anchor="middle" x="235.5471" y="-63.5" font-family="Helvetica,sans-Serif" font-size="10.00" fill="#000000">/basic.h</text>
</a>
</g>
</g>
<!-- Node9&#45;&gt;Node10 -->
<g id="edge15" class="edge">
<title>Node9&#45;&gt;Node10</title>
<path fill="none" stroke="#191970" d="M235.5471,-123.2967C235.5471,-115.5013 235.5471,-105.7991 235.5471,-96.9064"/>
<polygon fill="#191970" stroke="#191970" points="239.0472,-96.6431 235.5471,-86.6432 232.0472,-96.6432 239.0472,-96.6431"/>
</g>
<!-- Node10&#45;&gt;Node1 -->
<g id="edge16" class="edge">
<title>Node10&#45;&gt;Node1</title>
<path fill="none" stroke="#191970" d="M175.9101,-76.5257C115.0146,-83.0401 26.5216,-96.8097 5.5471,-123 -3.0654,-133.7542 -.1461,-141.4535 5.5471,-154 21.165,-188.4183 34.8693,-194.9668 69.5471,-210 146.5216,-243.3694 384.6111,-255.436 509.0263,-259.5395"/>
<polygon fill="#191970" stroke="#191970" points="509.1365,-263.0448 519.2435,-259.867 509.3608,-256.0484 509.1365,-263.0448"/>
</g>
<!-- Node11&#45;&gt;Node1 -->
<g id="edge18" class="edge">
<title>Node11&#45;&gt;Node1</title>
<path fill="none" stroke="#191970" d="M523.6951,-153.7056C539.2844,-174.613 563.2686,-212.4634 576.8878,-237.2898"/>
<polygon fill="#191970" stroke="#191970" points="573.9479,-239.2171 581.7196,-246.4178 580.1346,-235.9422 573.9479,-239.2171"/>
</g>
<!-- Node11&#45;&gt;Node10 -->
<g id="edge19" class="edge">
<title>Node11&#45;&gt;Node10</title>
<path fill="none" stroke="#191970" d="M449.7552,-123.8794C407.155,-113.4625 349.7669,-99.4297 305.1127,-88.5106"/>
<polygon fill="#191970" stroke="#191970" points="305.7567,-85.065 295.2115,-86.0895 304.0939,-91.8647 305.7567,-85.065"/>
</g>
<!-- Node12&#45;&gt;Node1 -->
<g id="edge21" class="edge">
<title>Node12&#45;&gt;Node1</title>
<path fill="none" stroke="#191970" d="M392.9869,-148.0493C430.9981,-167.9526 512.0015,-214.2531 556.3113,-241.15"/>
<polygon fill="#191970" stroke="#191970" points="554.564,-244.1841 564.9207,-246.4178 558.2175,-238.2131 554.564,-244.1841"/>
</g>
<!-- Node14&#45;&gt;Node1 -->
<g id="edge24" class="edge">
<title>Node14&#45;&gt;Node1</title>
<path fill="none" stroke="#191970" d="M1057.0256,-153.5881C960.0417,-176.6977 770.1305,-220.7031 663.6033,-244.7638"/>
<polygon fill="#191970" stroke="#191970" points="662.5455,-241.4144 653.5604,-247.0286 664.0855,-248.2429 662.5455,-241.4144"/>
</g>
<!-- Node14&#45;&gt;Node15 -->
<g id="edge25" class="edge">
<title>Node14&#45;&gt;Node15</title>
<path fill="none" stroke="#191970" d="M1148.517,-123.4639C1171.8802,-112.1209 1203.703,-96.6707 1226.5665,-85.5703"/>
<polygon fill="#191970" stroke="#191970" points="1228.2987,-88.62 1235.7659,-81.1039 1225.2414,-82.323 1228.2987,-88.62"/>
</g>
<!-- Node15&#45;&gt;Node1 -->
<g id="edge27" class="edge">
<title>Node15&#45;&gt;Node1</title>
<path fill="none" stroke="#191970" d="M1257.0499,-81.0993C1253.5244,-97.5328 1237.2908,-131.4599 1215.5471,-154 1183.6212,-187.0954 1171.9885,-194.9199 1128.5471,-210 1045.2828,-238.904 792.9532,-253.2441 664.0288,-258.7377"/>
<polygon fill="#191970" stroke="#191970" points="663.6766,-255.2493 653.8318,-259.1647 663.9695,-262.2431 663.6766,-255.2493"/>
</g>
<!-- Node16 -->
<g id="node17" class="node">
<title>Node16</title>
<polygon fill="none" stroke="#bfbfbf" points="1232.5471,-.5 1232.5471,-19.5 1278.5471,-19.5 1278.5471,-.5 1232.5471,-.5"/>
<text text-anchor="middle" x="1255.5471" y="-7.5" font-family="Helvetica,sans-Serif" font-size="10.00" fill="#000000">stdio.h</text>
</g>
<!-- Node15&#45;&gt;Node16 -->
<g id="edge26" class="edge">
<title>Node15&#45;&gt;Node16</title>
<path fill="none" stroke="#191970" d="M1255.5471,-61.8906C1255.5471,-53.3657 1255.5471,-40.6392 1255.5471,-29.9235"/>
<polygon fill="#191970" stroke="#191970" points="1259.0472,-29.7448 1255.5471,-19.7449 1252.0472,-29.7449 1259.0472,-29.7448"/>
</g>
</g>
</svg>
        <g id="navigator" transform="translate(0 0)" fill="#404254">
                <rect fill="#f2f5e9" fill-opacity="0.5" stroke="#606060" stroke-width=".5" x="0" y="0" width="60" height="60"/>
                <use id="zoomplus" xlink:href="#zoomPlus" x="17" y="9" onmousedown="handleZoom(evt,'in')"/>
                <use id="zoomminus" xlink:href="#zoomMin" x="42" y="9" onmousedown="handleZoom(evt,'out')"/>
                <use id="reset" xlink:href="#resetDef" x="30" y="36" onmousedown="handleReset()"/>
                <g id="arrowUp" xlink:href="#dirArrow" transform="translate(30 24)" onmousedown="handlePan(0,-1)">
                  <use xlink:href="#rim" fill="#404040">
                        <set attributeName="fill" to="#808080" begin="arrowUp.mouseover" end="arrowUp.mouseout"/>
                  </use>
                  <path fill="none" stroke="white" stroke-width="1.5" d="M0,-3.0v7 M-2.5,-0.5L0,-3.0L2.5,-0.5"/>
                </g>
                <g id="arrowRight" xlink:href="#dirArrow" transform="rotate(90) translate(36 -43)" onmousedown="handlePan(1,0)">
                  <use xlink:href="#rim" fill="#404040">
                        <set attributeName="fill" to="#808080" begin="arrowRight.mouseover" end="arrowRight.mouseout"/>
                  </use>
                  <path fill="none" stroke="white" stroke-width="1.5" d="M0,-3.0v7 M-2.5,-0.5L0,-3.0L2.5,-0.5"/>
                </g>
                <g id="arrowDown" xlink:href="#dirArrow" transform="rotate(180) translate(-30 -48)" onmousedown="handlePan(0,1)">
                  <use xlink:href="#rim" fill="#404040">
                        <set attributeName="fill" to="#808080" begin="arrowDown.mouseover" end="arrowDown.mouseout"/>
                  </use>
                  <path fill="none" stroke="white" stroke-width="1.5" d="M0,-3.0v7 M-2.5,-0.5L0,-3.0L2.5,-0.5"/>
                </g>
                <g id="arrowLeft" xlink:href="#dirArrow" transform="rotate(270) translate(-36 17)" onmousedown="handlePan(-1,0)">
                  <use xlink:href="#rim" fill="#404040">
                        <set attributeName="fill" to="#808080" begin="arrowLeft.mouseover" end="arrowLeft.mouseout"/>
                  </use>
                  <path fill="none" stroke="white" stroke-width="1.5" d="M0,-3.0v7 M-2.5,-0.5L0,-3.0L2.5,-0.5"/>
                </g>
        </g>
        <svg viewBox="0 0 15 15" width="100%" height="30px" preserveAspectRatio="xMaxYMin meet">
         <g id="arrow_out" transform="scale(0.3 0.3)">
          <a xlink:href="probabilities_8h__incl_org.svg" target="_base">
           <rect id="button" ry="5" rx="5" y="6" x="6" height="38" width="38"
                fill="#f2f5e9" fill-opacity="0.5" stroke="#606060" stroke-width="1.0"/>
           <path id="arrow"
             d="M 11.500037,31.436501 C 11.940474,20.09759 22.043105,11.32322 32.158766,21.979434 L 37.068811,17.246167 C 37.068811,17.246167 37.088388,32 37.088388,32 L 22.160133,31.978069 C 22.160133,31.978069 26.997745,27.140456 26.997745,27.140456 C 18.528582,18.264221 13.291696,25.230495 11.500037,31.436501 z"
             style="fill:#404040;"/>
          </a>
         </g>
        </svg>
</svg>
