<?xml version="1.0" encoding="UTF-8" standalone="no"?>
<!DOCTYPE svg PUBLIC "-//W3C//DTD SVG 1.1//EN"
 "http://www.w3.org/Graphics/SVG/1.1/DTD/svg11.dtd">
<!-- Generated by graphviz version 2.40.1 (20161225.0304)
 -->
<!-- Title: ViennaRNA/PS_dot.h Pages: 1 -->
<!--zoomable 475 -->
<svg id="main" version="1.1" xmlns="http://www.w3.org/2000/svg" xmlns:xlink="http://www.w3.org/1999/xlink" xml:space="preserve" onload="init(evt)">
<style type="text/css"><![CDATA[
.edge:hover path { stroke: red; }
.edge:hover polygon { stroke: red; fill: red; }
]]></style>
<script type="text/javascript"><![CDATA[
var edges = document.getElementsByTagName('g');
if (edges && edges.length) {
  for (var i=0;i<edges.length;i++) {
    if (edges[i].id.substr(0,4)=='edge') {
      edges[i].setAttribute('class','edge');
    }
  }
}
]]></script>
        <defs>
                <circle id="rim" cx="0" cy="0" r="7"/>
                <circle id="rim2" cx="0" cy="0" r="3.5"/>
                <g id="zoomPlus">
                        <use xlink:href="#rim" fill="#404040">
                                <set attributeName="fill" to="#808080" begin="zoomplus.mouseover" end="zoomplus.mouseout"/>
                        </use>
                        <path d="M-4,0h8M0,-4v8" fill="none" stroke="white" stroke-width="1.5" pointer-events="none"/>
                </g>
                <g id="zoomMin">
                        <use xlink:href="#rim" fill="#404040">
                                <set attributeName="fill" to="#808080" begin="zoomminus.mouseover" end="zoomminus.mouseout"/>
                        </use>
                        <path d="M-4,0h8" fill="none" stroke="white" stroke-width="1.5" pointer-events="none"/>
                </g>
                <g id="dirArrow">
                        <path fill="none" stroke="white" stroke-width="1.5" d="M0,-3.0v7 M-2.5,-0.5L0,-3.0L2.5,-0.5"/>
                </g>
               <g id="resetDef">
                       <use xlink:href="#rim2" fill="#404040">
                               <set attributeName="fill" to="#808080" begin="reset.mouseover" end="reset.mouseout"/>
                       </use>
               </g>
        </defs>

<script type="text/javascript">
var viewWidth = 1491;
var viewHeight = 475;
var sectionId = 'dynsection-0';
</script>
<script xlink:href="svgpan.js"/>
<svg id="graph" class="graph">
<g id="viewport">
<title>ViennaRNA/PS_dot.h</title>
<!-- Node0 -->
<g id="node1" class="node">
<title>Node0</title>
<polygon fill="#bfbfbf" stroke="#000000" points="809,-447.5 809,-466.5 921,-466.5 921,-447.5 809,-447.5"/>
<text text-anchor="middle" x="865" y="-454.5" font-family="Helvetica,sans-Serif" font-size="10.00" fill="#000000">ViennaRNA/PS_dot.h</text>
</g>
<!-- Node1 -->
<g id="node2" class="node">
<title>Node1</title>
<g id="a_node2"><a xlink:href="probabilities_8h.html" target="_top" xlink:title="Various functions for plotting RNA secondary structures, dot&#45;plots and other visualizations. ">
<polygon fill="none" stroke="#000000" points="724.5,-313.5 724.5,-343.5 827.5,-343.5 827.5,-313.5 724.5,-313.5"/>
<text text-anchor="start" x="732.5" y="-331.5" font-family="Helvetica,sans-Serif" font-size="10.00" fill="#000000">ViennaRNA/plotting</text>
<text text-anchor="middle" x="776" y="-320.5" font-family="Helvetica,sans-Serif" font-size="10.00" fill="#000000">/probabilities.h</text>
</a>
</g>
</g>
<!-- Node0&#45;&gt;Node1 -->
<g id="edge1" class="edge">
<title>Node0&#45;&gt;Node1</title>
<path fill="none" stroke="#191970" d="M858.3105,-447.3416C844.4489,-427.328 812.2368,-380.8194 792.4701,-352.2799"/>
<polygon fill="#191970" stroke="#191970" points="795.0998,-349.9296 786.5287,-343.7016 789.3453,-353.9152 795.0998,-349.9296"/>
</g>
<!-- Node18 -->
<g id="node19" class="node">
<title>Node18</title>
<g id="a_node19"><a xlink:href="layouts_8h.html" target="_top" xlink:title="Secondary structure plot layout algorithms. ">
<polygon fill="none" stroke="#000000" points="853.5,-313.5 853.5,-343.5 956.5,-343.5 956.5,-313.5 853.5,-313.5"/>
<text text-anchor="start" x="861.5" y="-331.5" font-family="Helvetica,sans-Serif" font-size="10.00" fill="#000000">ViennaRNA/plotting</text>
<text text-anchor="middle" x="905" y="-320.5" font-family="Helvetica,sans-Serif" font-size="10.00" fill="#000000">/layouts.h</text>
</a>
</g>
</g>
<!-- Node0&#45;&gt;Node18 -->
<g id="edge39" class="edge">
<title>Node0&#45;&gt;Node18</title>
<path fill="none" stroke="#191970" d="M867.1114,-447.4143C870.4267,-432.7479 877.2773,-403.9215 885,-380 887.8804,-371.0777 891.4771,-361.4605 894.8232,-352.9799"/>
<polygon fill="#191970" stroke="#191970" points="898.0889,-354.2398 898.578,-343.6563 891.5956,-351.6248 898.0889,-354.2398"/>
</g>
<!-- Node20 -->
<g id="node21" class="node">
<title>Node20</title>
<g id="a_node21"><a xlink:href="plotting_2structures_8h.html" target="_top" xlink:title="Various functions for plotting RNA secondary structures. ">
<polygon fill="none" stroke="#000000" points="893.5,-380.5 893.5,-410.5 996.5,-410.5 996.5,-380.5 893.5,-380.5"/>
<text text-anchor="start" x="901.5" y="-398.5" font-family="Helvetica,sans-Serif" font-size="10.00" fill="#000000">ViennaRNA/plotting</text>
<text text-anchor="middle" x="945" y="-387.5" font-family="Helvetica,sans-Serif" font-size="10.00" fill="#000000">/structures.h</text>
</a>
</g>
</g>
<!-- Node0&#45;&gt;Node20 -->
<g id="edge42" class="edge">
<title>Node0&#45;&gt;Node20</title>
<path fill="none" stroke="#191970" d="M877.5,-447.3906C888.1265,-439.2215 903.7719,-427.1941 917.325,-416.7752"/>
<polygon fill="#191970" stroke="#191970" points="919.6349,-419.4142 925.4298,-410.5446 915.3685,-413.8645 919.6349,-419.4142"/>
</g>
<!-- Node2 -->
<g id="node3" class="node">
<title>Node2</title>
<g id="a_node3"><a xlink:href="datastructures_2basic_8h.html" target="_top" xlink:title="Various data structures and pre&#45;processor macros. ">
<polygon fill="none" stroke="#000000" points="709,-246.5 709,-276.5 843,-276.5 843,-246.5 709,-246.5"/>
<text text-anchor="start" x="717" y="-264.5" font-family="Helvetica,sans-Serif" font-size="10.00" fill="#000000">ViennaRNA/datastructures</text>
<text text-anchor="middle" x="776" y="-253.5" font-family="Helvetica,sans-Serif" font-size="10.00" fill="#000000">/basic.h</text>
</a>
</g>
</g>
<!-- Node1&#45;&gt;Node2 -->
<g id="edge2" class="edge">
<title>Node1&#45;&gt;Node2</title>
<path fill="none" stroke="#191970" d="M776,-313.2967C776,-305.5013 776,-295.7991 776,-286.9064"/>
<polygon fill="#191970" stroke="#191970" points="779.5001,-286.6431 776,-276.6432 772.5001,-286.6432 779.5001,-286.6431"/>
</g>
<!-- Node16 -->
<g id="node17" class="node">
<title>Node16</title>
<g id="a_node17"><a xlink:href="utils_2structures_8h.html" target="_top" xlink:title="Various utility&#45; and helper&#45;functions for secondary structure parsing, converting, etc. ">
<polygon fill="none" stroke="#000000" points="0,-62 0,-81 144,-81 144,-62 0,-62"/>
<text text-anchor="middle" x="72" y="-69" font-family="Helvetica,sans-Serif" font-size="10.00" fill="#000000">ViennaRNA/utils/structures.h</text>
</a>
</g>
</g>
<!-- Node1&#45;&gt;Node16 -->
<g id="edge38" class="edge">
<title>Node1&#45;&gt;Node16</title>
<path fill="none" stroke="#191970" d="M724.4597,-324.5019C617.7792,-314.9284 366.3303,-285.5972 170,-210 124.9742,-192.6628 101.999,-195.2669 77,-154 65.5409,-135.0839 66.0676,-109.0404 68.3014,-91.3086"/>
<polygon fill="#191970" stroke="#191970" points="71.7878,-91.6662 69.8639,-81.2475 64.8707,-90.592 71.7878,-91.6662"/>
</g>
<!-- Node3 -->
<g id="node4" class="node">
<title>Node3</title>
<g id="a_node4"><a xlink:href="constants_8h.html" target="_top" xlink:title="Energy parameter constants. ">
<polygon fill="none" stroke="#000000" points="1325,-62 1325,-81 1483,-81 1483,-62 1325,-62"/>
<text text-anchor="middle" x="1404" y="-69" font-family="Helvetica,sans-Serif" font-size="10.00" fill="#000000">ViennaRNA/params/constants.h</text>
</a>
</g>
</g>
<!-- Node2&#45;&gt;Node3 -->
<g id="edge3" class="edge">
<title>Node2&#45;&gt;Node3</title>
<path fill="none" stroke="#191970" d="M843.1137,-247.5201C846.4508,-246.9726 849.76,-246.4615 853,-246 947.0549,-232.6041 1193.8902,-252.2149 1279,-210 1333.4609,-182.9871 1375.2547,-121.1376 1393.6817,-90.0525"/>
<polygon fill="#191970" stroke="#191970" points="1396.8668,-91.5355 1398.8299,-81.1241 1390.8026,-88.0389 1396.8668,-91.5355"/>
</g>
<!-- Node5 -->
<g id="node6" class="node">
<title>Node5</title>
<g id="a_node6"><a xlink:href="fold__compound_8h.html" target="_top" xlink:title="The Basic Fold Compound API. ">
<polygon fill="none" stroke="#000000" points="584,-190.5 584,-209.5 730,-209.5 730,-190.5 584,-190.5"/>
<text text-anchor="middle" x="657" y="-197.5" font-family="Helvetica,sans-Serif" font-size="10.00" fill="#000000">ViennaRNA/fold_compound.h</text>
</a>
</g>
</g>
<!-- Node2&#45;&gt;Node5 -->
<g id="edge5" class="edge">
<title>Node2&#45;&gt;Node5</title>
<path fill="none" stroke="#191970" d="M746.8893,-246.4554C727.8176,-236.599 703.0518,-223.7999 684.3461,-214.1327"/>
<polygon fill="#191970" stroke="#191970" points="685.9315,-211.0122 675.4408,-209.5303 682.7176,-217.2309 685.9315,-211.0122"/>
</g>
<!-- Node6 -->
<g id="node7" class="node">
<title>Node6</title>
<g id="a_node7"><a xlink:href="model_8h.html" target="_top" xlink:title="The model details data structure and its corresponding modifiers. ">
<polygon fill="none" stroke="#000000" points="926,-62 926,-81 1032,-81 1032,-62 926,-62"/>
<text text-anchor="middle" x="979" y="-69" font-family="Helvetica,sans-Serif" font-size="10.00" fill="#000000">ViennaRNA/model.h</text>
</a>
</g>
</g>
<!-- Node2&#45;&gt;Node6 -->
<g id="edge29" class="edge">
<title>Node2&#45;&gt;Node6</title>
<path fill="none" stroke="#191970" d="M784.4961,-246.4774C800.5856,-219.0797 837.8717,-160.3816 882,-123 900.7537,-107.1135 925.2155,-94.168 944.8819,-85.2298"/>
<polygon fill="#191970" stroke="#191970" points="946.3635,-88.4017 954.105,-81.1685 943.5425,-81.9953 946.3635,-88.4017"/>
</g>
<!-- Node7 -->
<g id="node8" class="node">
<title>Node7</title>
<g id="a_node8"><a xlink:href="params_2basic_8h.html" target="_top" xlink:title="Functions to deal with sets of energy parameters. ">
<polygon fill="none" stroke="#000000" points="1028,-129 1028,-148 1166,-148 1166,-129 1028,-129"/>
<text text-anchor="middle" x="1097" y="-136" font-family="Helvetica,sans-Serif" font-size="10.00" fill="#000000">ViennaRNA/params/basic.h</text>
</a>
</g>
</g>
<!-- Node2&#45;&gt;Node7 -->
<g id="edge30" class="edge">
<title>Node2&#45;&gt;Node7</title>
<path fill="none" stroke="#191970" d="M807.9676,-246.4283C833.4999,-236.1752 869.9063,-222.2901 902,-210 955.3124,-189.5843 1017.1781,-165.78 1056.8296,-151.4384"/>
<polygon fill="#191970" stroke="#191970" points="1058.1801,-154.6724 1066.4131,-148.0039 1055.8185,-148.0828 1058.1801,-154.6724"/>
</g>
<!-- Node9 -->
<g id="node10" class="node">
<title>Node9</title>
<g id="a_node10"><a xlink:href="dp__matrices_8h.html" target="_top" xlink:title="Functions to deal with standard dynamic programming (DP) matrices. ">
<polygon fill="none" stroke="#000000" points="109.5,-129 109.5,-148 242.5,-148 242.5,-129 109.5,-129"/>
<text text-anchor="middle" x="176" y="-136" font-family="Helvetica,sans-Serif" font-size="10.00" fill="#000000">ViennaRNA/dp_matrices.h</text>
</a>
</g>
</g>
<!-- Node2&#45;&gt;Node9 -->
<g id="edge31" class="edge">
<title>Node2&#45;&gt;Node9</title>
<path fill="none" stroke="#191970" d="M708.8955,-252.8252C644.1794,-243.523 543.8957,-227.684 458,-210 370.6379,-192.0141 269.7698,-166.0493 215.3748,-150.8602"/>
<polygon fill="#191970" stroke="#191970" points="216.0274,-147.4078 205.4529,-148.0628 214.1278,-154.1452 216.0274,-147.4078"/>
</g>
<!-- Node10 -->
<g id="node11" class="node">
<title>Node10</title>
<g id="a_node11"><a xlink:href="hard_8h.html" target="_top" xlink:title="Functions and data structures for handling of secondary structure hard constraints. ">
<polygon fill="none" stroke="#000000" points="1184.5,-123.5 1184.5,-153.5 1303.5,-153.5 1303.5,-123.5 1184.5,-123.5"/>
<text text-anchor="start" x="1192.5" y="-141.5" font-family="Helvetica,sans-Serif" font-size="10.00" fill="#000000">ViennaRNA/constraints</text>
<text text-anchor="middle" x="1244" y="-130.5" font-family="Helvetica,sans-Serif" font-size="10.00" fill="#000000">/hard.h</text>
</a>
</g>
</g>
<!-- Node2&#45;&gt;Node10 -->
<g id="edge32" class="edge">
<title>Node2&#45;&gt;Node10</title>
<path fill="none" stroke="#191970" d="M828.7717,-246.4178C913.5769,-223.4008 1079.9873,-179.6453 1174.3994,-155.5214"/>
<polygon fill="#191970" stroke="#191970" points="1175.3208,-158.8986 1184.1456,-153.0358 1173.5908,-152.1157 1175.3208,-158.8986"/>
</g>
<!-- Node12 -->
<g id="node13" class="node">
<title>Node12</title>
<g id="a_node13"><a xlink:href="soft_8h.html" target="_top" xlink:title="Functions and data structures for secondary structure soft constraints. ">
<polygon fill="none" stroke="#000000" points="890.5,-123.5 890.5,-153.5 1009.5,-153.5 1009.5,-123.5 890.5,-123.5"/>
<text text-anchor="start" x="898.5" y="-141.5" font-family="Helvetica,sans-Serif" font-size="10.00" fill="#000000">ViennaRNA/constraints</text>
<text text-anchor="middle" x="950" y="-130.5" font-family="Helvetica,sans-Serif" font-size="10.00" fill="#000000">/soft.h</text>
</a>
</g>
</g>
<!-- Node2&#45;&gt;Node12 -->
<g id="edge33" class="edge">
<title>Node2&#45;&gt;Node12</title>
<path fill="none" stroke="#191970" d="M803.3295,-246.4545C822.0742,-237.2359 846.8426,-224.4484 867,-210 887.2143,-195.5109 907.3276,-175.6351 922.919,-160.5166"/>
<polygon fill="#191970" stroke="#191970" points="925.4103,-162.9766 930.1904,-153.5213 920.5572,-157.932 925.4103,-162.9766"/>
</g>
<!-- Node13 -->
<g id="node14" class="node">
<title>Node13</title>
<g id="a_node14"><a xlink:href="grammar_8h.html" target="_top" xlink:title="Implementations for the RNA folding grammar. ">
<polygon fill="none" stroke="#000000" points="404,-129 404,-148 522,-148 522,-129 404,-129"/>
<text text-anchor="middle" x="463" y="-136" font-family="Helvetica,sans-Serif" font-size="10.00" fill="#000000">ViennaRNA/grammar.h</text>
</a>
</g>
</g>
<!-- Node2&#45;&gt;Node13 -->
<g id="edge34" class="edge">
<title>Node2&#45;&gt;Node13</title>
<path fill="none" stroke="#191970" d="M708.7293,-251.3771C666.4473,-243.2117 611.6017,-229.7927 566,-210 532.0505,-195.2648 496.6666,-170.9181 477.1939,-154.7935"/>
<polygon fill="#191970" stroke="#191970" points="479.2677,-151.9582 469.4289,-148.0276 474.669,-157.2358 479.2677,-151.9582"/>
</g>
<!-- Node14 -->
<g id="node15" class="node">
<title>Node14</title>
<g id="a_node15"><a xlink:href="structured__domains_8h.html" target="_top" xlink:title="This module provides interfaces that deal with additional structured domains in the folding grammar...">
<polygon fill="none" stroke="#000000" points="718.5,-123.5 718.5,-153.5 833.5,-153.5 833.5,-123.5 718.5,-123.5"/>
<text text-anchor="start" x="726.5" y="-141.5" font-family="Helvetica,sans-Serif" font-size="10.00" fill="#000000">ViennaRNA/structured</text>
<text text-anchor="middle" x="776" y="-130.5" font-family="Helvetica,sans-Serif" font-size="10.00" fill="#000000">_domains.h</text>
</a>
</g>
</g>
<!-- Node2&#45;&gt;Node14 -->
<g id="edge35" class="edge">
<title>Node2&#45;&gt;Node14</title>
<path fill="none" stroke="#191970" d="M776,-246.4178C776,-225.8539 776,-188.7363 776,-163.8546"/>
<polygon fill="#191970" stroke="#191970" points="779.5001,-163.7055 776,-153.7056 772.5001,-163.7056 779.5001,-163.7055"/>
</g>
<!-- Node15 -->
<g id="node16" class="node">
<title>Node15</title>
<g id="a_node16"><a xlink:href="unstructured__domains_8h.html" target="_top" xlink:title="Functions to modify unstructured domains, e.g. to incorporate ligands binding to unpaired stretches...">
<polygon fill="none" stroke="#000000" points="260.5,-123.5 260.5,-153.5 385.5,-153.5 385.5,-123.5 260.5,-123.5"/>
<text text-anchor="start" x="268.5" y="-141.5" font-family="Helvetica,sans-Serif" font-size="10.00" fill="#000000">ViennaRNA/unstructured</text>
<text text-anchor="middle" x="323" y="-130.5" font-family="Helvetica,sans-Serif" font-size="10.00" fill="#000000">_domains.h</text>
</a>
</g>
</g>
<!-- Node2&#45;&gt;Node15 -->
<g id="edge36" class="edge">
<title>Node2&#45;&gt;Node15</title>
<path fill="none" stroke="#191970" d="M708.855,-250.6859C658.0708,-241.3557 587.0628,-226.762 526,-210 469.8235,-194.5793 406.7069,-172.687 365.8721,-157.1985"/>
<polygon fill="#191970" stroke="#191970" points="367.086,-153.9155 356.4957,-153.6035 364.58,-160.4515 367.086,-153.9155"/>
</g>
<!-- Node2&#45;&gt;Node16 -->
<g id="edge37" class="edge">
<title>Node2&#45;&gt;Node16</title>
<path fill="none" stroke="#191970" d="M708.7686,-259.8572C554.459,-254.6635 181.6142,-233.8355 91,-154 72.9646,-138.1099 66.5309,-110.1559 66.398,-91.2394"/>
<polygon fill="#191970" stroke="#191970" points="69.9034,-91.2631 67.0442,-81.0614 62.9175,-90.8195 69.9034,-91.2631"/>
</g>
<!-- Node4 -->
<g id="node5" class="node">
<title>Node4</title>
<polygon fill="none" stroke="#bfbfbf" points="1380,-.5 1380,-19.5 1428,-19.5 1428,-.5 1380,-.5"/>
<text text-anchor="middle" x="1404" y="-7.5" font-family="Helvetica,sans-Serif" font-size="10.00" fill="#000000">limits.h</text>
</g>
<!-- Node3&#45;&gt;Node4 -->
<g id="edge4" class="edge">
<title>Node3&#45;&gt;Node4</title>
<path fill="none" stroke="#191970" d="M1404,-61.8906C1404,-53.3657 1404,-40.6392 1404,-29.9235"/>
<polygon fill="#191970" stroke="#191970" points="1407.5001,-29.7448 1404,-19.7449 1400.5001,-29.7449 1407.5001,-29.7448"/>
</g>
<!-- Node5&#45;&gt;Node6 -->
<g id="edge6" class="edge">
<title>Node5&#45;&gt;Node6</title>
<path fill="none" stroke="#191970" d="M619.318,-190.3393C600.7287,-183.4646 579.9848,-172.137 569,-154 561.8625,-142.2151 559.8849,-133.3316 569,-123 591.5294,-97.4637 806.187,-81.4768 915.5763,-74.9218"/>
<polygon fill="#191970" stroke="#191970" points="916.0474,-78.4001 925.8237,-74.3168 915.6348,-71.4123 916.0474,-78.4001"/>
</g>
<!-- Node5&#45;&gt;Node7 -->
<g id="edge7" class="edge">
<title>Node5&#45;&gt;Node7</title>
<path fill="none" stroke="#191970" d="M730.0188,-192.2358C803.2845,-184.0897 919.2639,-170.2262 1019,-154 1026.3907,-152.7976 1034.1506,-151.409 1041.7917,-149.9671"/>
<polygon fill="#191970" stroke="#191970" points="1042.5704,-153.3815 1051.7272,-148.0519 1041.2455,-146.508 1042.5704,-153.3815"/>
</g>
<!-- Node8 -->
<g id="node9" class="node">
<title>Node8</title>
<g id="a_node9"><a xlink:href="sequence_8h.html" target="_top" xlink:title="Functions and data structures related to sequence representations ,. ">
<polygon fill="none" stroke="#000000" points="578,-129 578,-148 700,-148 700,-129 578,-129"/>
<text text-anchor="middle" x="639" y="-136" font-family="Helvetica,sans-Serif" font-size="10.00" fill="#000000">ViennaRNA/sequence.h</text>
</a>
</g>
</g>
<!-- Node5&#45;&gt;Node8 -->
<g id="edge11" class="edge">
<title>Node5&#45;&gt;Node8</title>
<path fill="none" stroke="#191970" d="M654.1875,-190.3906C651.6661,-181.776 647.889,-168.8708 644.7324,-158.0858"/>
<polygon fill="#191970" stroke="#191970" points="648.0203,-156.8591 641.8522,-148.2449 641.3021,-158.8254 648.0203,-156.8591"/>
</g>
<!-- Node5&#45;&gt;Node9 -->
<g id="edge12" class="edge">
<title>Node5&#45;&gt;Node9</title>
<path fill="none" stroke="#191970" d="M583.7526,-193.7235C502.2426,-186.2694 366.7577,-172.4801 251,-154 243.7786,-152.8472 236.1984,-151.4742 228.7467,-150.029"/>
<polygon fill="#191970" stroke="#191970" points="229.2024,-146.551 218.7109,-148.0273 227.8331,-153.4158 229.2024,-146.551"/>
</g>
<!-- Node5&#45;&gt;Node10 -->
<g id="edge14" class="edge">
<title>Node5&#45;&gt;Node10</title>
<path fill="none" stroke="#191970" d="M730.2873,-196.5537C828.9164,-191.2342 1009.9365,-179.0767 1173.9734,-154.0205"/>
<polygon fill="#191970" stroke="#191970" points="1174.9065,-157.4178 1184.2536,-152.4296 1173.8359,-150.5002 1174.9065,-157.4178"/>
</g>
<!-- Node5&#45;&gt;Node12 -->
<g id="edge18" class="edge">
<title>Node5&#45;&gt;Node12</title>
<path fill="none" stroke="#191970" d="M702.4598,-190.4581C750.0501,-180.469 825.3761,-164.6583 880.4467,-153.0991"/>
<polygon fill="#191970" stroke="#191970" points="881.4149,-156.4722 890.4826,-150.9926 879.9769,-149.6215 881.4149,-156.4722"/>
</g>
<!-- Node5&#45;&gt;Node13 -->
<g id="edge21" class="edge">
<title>Node5&#45;&gt;Node13</title>
<path fill="none" stroke="#191970" d="M626.6875,-190.3906C593.3735,-179.8298 539.7192,-162.8208 502.9819,-151.1747"/>
<polygon fill="#191970" stroke="#191970" points="503.6898,-147.7275 493.0996,-148.0419 501.5744,-154.4002 503.6898,-147.7275"/>
</g>
<!-- Node5&#45;&gt;Node14 -->
<g id="edge23" class="edge">
<title>Node5&#45;&gt;Node14</title>
<path fill="none" stroke="#191970" d="M675.5938,-190.3906C692.2209,-181.7976 717.1083,-168.9356 737.945,-158.1671"/>
<polygon fill="#191970" stroke="#191970" points="739.6125,-161.2451 746.8893,-153.5446 736.3986,-155.0265 739.6125,-161.2451"/>
</g>
<!-- Node5&#45;&gt;Node15 -->
<g id="edge24" class="edge">
<title>Node5&#45;&gt;Node15</title>
<path fill="none" stroke="#191970" d="M599.1253,-190.492C548.2425,-181.9843 471.931,-168.8671 396.0196,-154.1578"/>
<polygon fill="#191970" stroke="#191970" points="396.2843,-150.6437 385.7995,-152.1672 394.9459,-157.5146 396.2843,-150.6437"/>
</g>
<!-- Node7&#45;&gt;Node2 -->
<g id="edge9" class="edge">
<title>Node7&#45;&gt;Node2</title>
<path fill="none" stroke="#191970" d="M1078.2597,-148.0039C1045.7253,-161.7211 977.8304,-187.8542 920,-210 891.4165,-220.9459 859.4122,-233.1569 832.7668,-242.9405"/>
<polygon fill="#191970" stroke="#191970" points="831.4031,-239.7123 823.2088,-246.4283 833.8027,-246.2881 831.4031,-239.7123"/>
</g>
<!-- Node7&#45;&gt;Node3 -->
<g id="edge8" class="edge">
<title>Node7&#45;&gt;Node3</title>
<path fill="none" stroke="#191970" d="M1140.6596,-128.9717C1195.7435,-116.9501 1290.457,-96.2797 1350.0234,-83.2799"/>
<polygon fill="#191970" stroke="#191970" points="1350.9702,-86.6557 1359.994,-81.1039 1349.4776,-79.8167 1350.9702,-86.6557"/>
</g>
<!-- Node7&#45;&gt;Node6 -->
<g id="edge10" class="edge">
<title>Node7&#45;&gt;Node6</title>
<path fill="none" stroke="#191970" d="M1080.0935,-128.9005C1060.378,-117.7062 1027.5778,-99.0823 1004.7041,-86.0947"/>
<polygon fill="#191970" stroke="#191970" points="1006.2993,-82.9757 995.8752,-81.0817 1002.843,-89.0629 1006.2993,-82.9757"/>
</g>
<!-- Node9&#45;&gt;Node2 -->
<g id="edge13" class="edge">
<title>Node9&#45;&gt;Node2</title>
<path fill="none" stroke="#191970" d="M216.9315,-148.0628C274.7119,-162.6693 383.0075,-190.855 476,-210 551.5632,-225.5567 638.2611,-239.6857 699.0216,-249.1927"/>
<polygon fill="#191970" stroke="#191970" points="698.5018,-252.6538 708.9217,-250.7369 699.5807,-245.7374 698.5018,-252.6538"/>
</g>
<!-- Node10&#45;&gt;Node2 -->
<g id="edge15" class="edge">
<title>Node10&#45;&gt;Node2</title>
<path fill="none" stroke="#191970" d="M1191.4833,-153.513C1107.4116,-176.3337 942.6773,-219.6547 847.8036,-243.9154"/>
<polygon fill="#191970" stroke="#191970" points="846.8239,-240.5532 838.0002,-246.4178 848.5552,-247.3357 846.8239,-240.5532"/>
</g>
<!-- Node11 -->
<g id="node12" class="node">
<title>Node11</title>
<g id="a_node12"><a xlink:href="constraints_2basic_8h.html" target="_top" xlink:title="Functions and data structures for constraining secondary structure predictions and evaluation...">
<polygon fill="none" stroke="#000000" points="1184.5,-56.5 1184.5,-86.5 1303.5,-86.5 1303.5,-56.5 1184.5,-56.5"/>
<text text-anchor="start" x="1192.5" y="-74.5" font-family="Helvetica,sans-Serif" font-size="10.00" fill="#000000">ViennaRNA/constraints</text>
<text text-anchor="middle" x="1244" y="-63.5" font-family="Helvetica,sans-Serif" font-size="10.00" fill="#000000">/basic.h</text>
</a>
</g>
</g>
<!-- Node10&#45;&gt;Node11 -->
<g id="edge16" class="edge">
<title>Node10&#45;&gt;Node11</title>
<path fill="none" stroke="#191970" d="M1244,-123.2967C1244,-115.5013 1244,-105.7991 1244,-96.9064"/>
<polygon fill="#191970" stroke="#191970" points="1247.5001,-96.6431 1244,-86.6432 1240.5001,-96.6432 1247.5001,-96.6431"/>
</g>
<!-- Node11&#45;&gt;Node2 -->
<g id="edge17" class="edge">
<title>Node11&#45;&gt;Node2</title>
<path fill="none" stroke="#191970" d="M1271.8511,-86.6311C1298.6363,-103.1209 1332.4141,-130.3186 1313,-154 1180.8176,-315.2366 1057.4189,-204.9835 853,-246 852.8997,-246.0201 852.7994,-246.0403 852.699,-246.0604"/>
<polygon fill="#191970" stroke="#191970" points="852.3061,-242.5694 843.1907,-247.9695 853.6841,-249.4324 852.3061,-242.5694"/>
</g>
<!-- Node12&#45;&gt;Node2 -->
<g id="edge19" class="edge">
<title>Node12&#45;&gt;Node2</title>
<path fill="none" stroke="#191970" d="M943.629,-153.5213C931.9074,-168.9861 908.522,-193.14 885,-210 867.7559,-222.3601 847.1375,-233.5048 828.4266,-242.2395"/>
<polygon fill="#191970" stroke="#191970" points="826.7936,-239.1369 819.1319,-246.4545 829.6847,-245.512 826.7936,-239.1369"/>
</g>
<!-- Node12&#45;&gt;Node11 -->
<g id="edge20" class="edge">
<title>Node12&#45;&gt;Node11</title>
<path fill="none" stroke="#191970" d="M1009.8497,-124.8608C1057.6205,-113.9742 1124.6092,-98.7081 1174.7029,-87.2922"/>
<polygon fill="#191970" stroke="#191970" points="1175.5134,-90.6973 1184.4857,-85.0628 1173.958,-83.8723 1175.5134,-90.6973"/>
</g>
<!-- Node13&#45;&gt;Node2 -->
<g id="edge22" class="edge">
<title>Node13&#45;&gt;Node2</title>
<path fill="none" stroke="#191970" d="M480.6358,-148.0276C503.7946,-163.2352 544.8511,-193.008 584,-210 620.548,-225.8631 663.0337,-237.632 698.7788,-245.8836"/>
<polygon fill="#191970" stroke="#191970" points="698.146,-249.3288 708.6714,-248.1182 699.6884,-242.5008 698.146,-249.3288"/>
</g>
<!-- Node15&#45;&gt;Node2 -->
<g id="edge25" class="edge">
<title>Node15&#45;&gt;Node2</title>
<path fill="none" stroke="#191970" d="M369.9343,-153.6035C414.5423,-169.1353 483.3199,-193.3431 544,-210 595.2075,-224.0567 653.409,-236.5885 698.761,-245.77"/>
<polygon fill="#191970" stroke="#191970" points="698.3279,-249.2529 708.8219,-247.7949 699.7091,-242.3905 698.3279,-249.2529"/>
</g>
<!-- Node15&#45;&gt;Node16 -->
<g id="edge26" class="edge">
<title>Node15&#45;&gt;Node16</title>
<path fill="none" stroke="#191970" d="M266.6707,-123.4639C221.6719,-111.4522 159.4191,-94.835 117.5336,-83.6544"/>
<polygon fill="#191970" stroke="#191970" points="118.1738,-80.2028 107.6094,-81.0053 116.3684,-86.966 118.1738,-80.2028"/>
</g>
<!-- Node16&#45;&gt;Node2 -->
<g id="edge28" class="edge">
<title>Node16&#45;&gt;Node2</title>
<path fill="none" stroke="#191970" d="M77.5685,-81.0614C82.4061,-98.3777 87.3236,-134.902 109,-154 195.9224,-230.5829 542.5468,-252.8684 698.9022,-259.1416"/>
<polygon fill="#191970" stroke="#191970" points="698.7924,-262.6399 708.9211,-259.5321 699.0651,-255.6452 698.7924,-262.6399"/>
</g>
<!-- Node17 -->
<g id="node18" class="node">
<title>Node17</title>
<polygon fill="none" stroke="#bfbfbf" points="49,-.5 49,-19.5 95,-19.5 95,-.5 49,-.5"/>
<text text-anchor="middle" x="72" y="-7.5" font-family="Helvetica,sans-Serif" font-size="10.00" fill="#000000">stdio.h</text>
</g>
<!-- Node16&#45;&gt;Node17 -->
<g id="edge27" class="edge">
<title>Node16&#45;&gt;Node17</title>
<path fill="none" stroke="#191970" d="M72,-61.8906C72,-53.3657 72,-40.6392 72,-29.9235"/>
<polygon fill="#191970" stroke="#191970" points="75.5001,-29.7448 72,-19.7449 68.5001,-29.7449 75.5001,-29.7448"/>
</g>
<!-- Node18&#45;&gt;Node2 -->
<g id="edge40" class="edge">
<title>Node18&#45;&gt;Node2</title>
<path fill="none" stroke="#191970" d="M876.0499,-313.4639C857.8375,-304.0047 834.1259,-291.6894 814.3577,-281.4222"/>
<polygon fill="#191970" stroke="#191970" points="815.7875,-278.2209 805.2998,-276.7177 812.561,-284.433 815.7875,-278.2209"/>
</g>
<!-- Node19 -->
<g id="node20" class="node">
<title>Node19</title>
<g id="a_node20"><a xlink:href="plotting_2naview_8h.html" target="_top" xlink:title="ViennaRNA/plotting\l/naview.h">
<polygon fill="none" stroke="#000000" points="861.5,-246.5 861.5,-276.5 964.5,-276.5 964.5,-246.5 861.5,-246.5"/>
<text text-anchor="start" x="869.5" y="-264.5" font-family="Helvetica,sans-Serif" font-size="10.00" fill="#000000">ViennaRNA/plotting</text>
<text text-anchor="middle" x="913" y="-253.5" font-family="Helvetica,sans-Serif" font-size="10.00" fill="#000000">/naview.h</text>
</a>
</g>
</g>
<!-- Node18&#45;&gt;Node19 -->
<g id="edge41" class="edge">
<title>Node18&#45;&gt;Node19</title>
<path fill="none" stroke="#191970" d="M906.8153,-313.2967C907.7563,-305.4156 908.9301,-295.5857 910.0014,-286.6135"/>
<polygon fill="#191970" stroke="#191970" points="913.4815,-286.9876 911.1919,-276.6432 906.5309,-286.1576 913.4815,-286.9876"/>
</g>
<!-- Node20&#45;&gt;Node6 -->
<g id="edge43" class="edge">
<title>Node20&#45;&gt;Node6</title>
<path fill="none" stroke="#191970" d="M996.5365,-381.8355C1120.7519,-346.5409 1418.8358,-246.4055 1313,-123 1295.6279,-102.7439 1134.2629,-85.2687 1042.3397,-76.8519"/>
<polygon fill="#191970" stroke="#191970" points="1042.5806,-73.3595 1032.3058,-75.9439 1041.9496,-80.331 1042.5806,-73.3595"/>
</g>
<!-- Node20&#45;&gt;Node18 -->
<g id="edge44" class="edge">
<title>Node20&#45;&gt;Node18</title>
<path fill="none" stroke="#191970" d="M935.9234,-380.2967C931.0137,-372.0729 924.8371,-361.7272 919.2975,-352.4483"/>
<polygon fill="#191970" stroke="#191970" points="922.172,-350.4352 914.0407,-343.6432 916.1617,-354.0236 922.172,-350.4352"/>
</g>
</g>
</svg>
        <g id="navigator" transform="translate(0 0)" fill="#404254">
                <rect fill="#f2f5e9" fill-opacity="0.5" stroke="#606060" stroke-width=".5" x="0" y="0" width="60" height="60"/>
                <use id="zoomplus" xlink:href="#zoomPlus" x="17" y="9" onmousedown="handleZoom(evt,'in')"/>
                <use id="zoomminus" xlink:href="#zoomMin" x="42" y="9" onmousedown="handleZoom(evt,'out')"/>
                <use id="reset" xlink:href="#resetDef" x="30" y="36" onmousedown="handleReset()"/>
                <g id="arrowUp" xlink:href="#dirArrow" transform="translate(30 24)" onmousedown="handlePan(0,-1)">
                  <use xlink:href="#rim" fill="#404040">
                        <set attributeName="fill" to="#808080" begin="arrowUp.mouseover" end="arrowUp.mouseout"/>
                  </use>
                  <path fill="none" stroke="white" stroke-width="1.5" d="M0,-3.0v7 M-2.5,-0.5L0,-3.0L2.5,-0.5"/>
                </g>
                <g id="arrowRight" xlink:href="#dirArrow" transform="rotate(90) translate(36 -43)" onmousedown="handlePan(1,0)">
                  <use xlink:href="#rim" fill="#404040">
                        <set attributeName="fill" to="#808080" begin="arrowRight.mouseover" end="arrowRight.mouseout"/>
                  </use>
                  <path fill="none" stroke="white" stroke-width="1.5" d="M0,-3.0v7 M-2.5,-0.5L0,-3.0L2.5,-0.5"/>
                </g>
                <g id="arrowDown" xlink:href="#dirArrow" transform="rotate(180) translate(-30 -48)" onmousedown="handlePan(0,1)">
                  <use xlink:href="#rim" fill="#404040">
                        <set attributeName="fill" to="#808080" begin="arrowDown.mouseover" end="arrowDown.mouseout"/>
                  </use>
                  <path fill="none" stroke="white" stroke-width="1.5" d="M0,-3.0v7 M-2.5,-0.5L0,-3.0L2.5,-0.5"/>
                </g>
                <g id="arrowLeft" xlink:href="#dirArrow" transform="rotate(270) translate(-36 17)" onmousedown="handlePan(-1,0)">
                  <use xlink:href="#rim" fill="#404040">
                        <set attributeName="fill" to="#808080" begin="arrowLeft.mouseover" end="arrowLeft.mouseout"/>
                  </use>
                  <path fill="none" stroke="white" stroke-width="1.5" d="M0,-3.0v7 M-2.5,-0.5L0,-3.0L2.5,-0.5"/>
                </g>
        </g>
        <svg viewBox="0 0 15 15" width="100%" height="30px" preserveAspectRatio="xMaxYMin meet">
         <g id="arrow_out" transform="scale(0.3 0.3)">
          <a xlink:href="PS__dot_8h__incl_org.svg" target="_base">
           <rect id="button" ry="5" rx="5" y="6" x="6" height="38" width="38"
                fill="#f2f5e9" fill-opacity="0.5" stroke="#606060" stroke-width="1.0"/>
           <path id="arrow"
             d="M 11.500037,31.436501 C 11.940474,20.09759 22.043105,11.32322 32.158766,21.979434 L 37.068811,17.246167 C 37.068811,17.246167 37.088388,32 37.088388,32 L 22.160133,31.978069 C 22.160133,31.978069 26.997745,27.140456 26.997745,27.140456 C 18.528582,18.264221 13.291696,25.230495 11.500037,31.436501 z"
             style="fill:#404040;"/>
          </a>
         </g>
        </svg>
</svg>
