<?xml version="1.0" encoding="UTF-8" standalone="no"?>
<!DOCTYPE svg PUBLIC "-//W3C//DTD SVG 1.1//EN"
 "http://www.w3.org/Graphics/SVG/1.1/DTD/svg11.dtd">
<!-- Generated by graphviz version 2.40.1 (20161225.0304)
 -->
<!-- Title: ViennaRNA/constraints/SHAPE.h Pages: 1 -->
<svg width="274pt" height="106pt"
 viewBox="0.00 0.00 273.50 106.00" xmlns="http://www.w3.org/2000/svg" xmlns:xlink="http://www.w3.org/1999/xlink">
<g id="graph0" class="graph" transform="scale(1 1) rotate(0) translate(4 102)">
<title>ViennaRNA/constraints/SHAPE.h</title>
<!-- Node17 -->
<g id="node1" class="node">
<title>Node17</title>
<polygon fill="#bfbfbf" stroke="#000000" points="75.5,-67.5 75.5,-97.5 194.5,-97.5 194.5,-67.5 75.5,-67.5"/>
<text text-anchor="start" x="83.5" y="-85.5" font-family="Helvetica,sans-Serif" font-size="10.00" fill="#000000">ViennaRNA/constraints</text>
<text text-anchor="middle" x="135" y="-74.5" font-family="Helvetica,sans-Serif" font-size="10.00" fill="#000000">/SHAPE.h</text>
</g>
<!-- Node18 -->
<g id="node2" class="node">
<title>Node18</title>
<g id="a_node2"><a xlink:href="constraints_8h.html" target="_top" xlink:title="Use ViennaRNA/constraints/basic.h instead. ">
<polygon fill="none" stroke="#000000" points="0,-6 0,-25 128,-25 128,-6 0,-6"/>
<text text-anchor="middle" x="64" y="-13" font-family="Helvetica,sans-Serif" font-size="10.00" fill="#000000">ViennaRNA/constraints.h</text>
</a>
</g>
</g>
<!-- Node17&#45;&gt;Node18 -->
<g id="edge1" class="edge">
<title>Node17&#45;&gt;Node18</title>
<path fill="none" stroke="#191970" d="M111.3721,-60.2032C98.7194,-48.2634 83.7927,-34.1776 74.1254,-25.055"/>
<polygon fill="#191970" stroke="#191970" points="109.2139,-62.979 118.889,-67.2967 114.0181,-57.8879 109.2139,-62.979"/>
</g>
<!-- Node19 -->
<g id="node3" class="node">
<title>Node19</title>
<g id="a_node3"><a xlink:href="constraints__SHAPE_8h.html" target="_top" xlink:title="Use ViennaRNA/constraints/SHAPE.h instead. ">
<polygon fill="none" stroke="#000000" points="146.5,-.5 146.5,-30.5 265.5,-30.5 265.5,-.5 146.5,-.5"/>
<text text-anchor="start" x="154.5" y="-18.5" font-family="Helvetica,sans-Serif" font-size="10.00" fill="#000000">ViennaRNA/constraints</text>
<text text-anchor="middle" x="206" y="-7.5" font-family="Helvetica,sans-Serif" font-size="10.00" fill="#000000">_SHAPE.h</text>
</a>
</g>
</g>
<!-- Node17&#45;&gt;Node19 -->
<g id="edge2" class="edge">
<title>Node17&#45;&gt;Node19</title>
<path fill="none" stroke="#191970" d="M158.6194,-60.2113C168.9095,-50.5009 180.7051,-39.3698 189.9528,-30.6432"/>
<polygon fill="#191970" stroke="#191970" points="155.9819,-57.8879 151.111,-67.2967 160.7861,-62.979 155.9819,-57.8879"/>
</g>
</g>
</svg>
