<?xml version="1.0" encoding="UTF-8" standalone="no"?>
<!DOCTYPE svg PUBLIC "-//W3C//DTD SVG 1.1//EN"
 "http://www.w3.org/Graphics/SVG/1.1/DTD/svg11.dtd">
<!-- Generated by graphviz version 2.40.1 (20161225.0304)
 -->
<!-- Title: ViennaRNA/utils/strings.h Pages: 1 -->
<svg width="252pt" height="84pt"
 viewBox="0.00 0.00 251.50 84.00" xmlns="http://www.w3.org/2000/svg" xmlns:xlink="http://www.w3.org/1999/xlink">
<g id="graph0" class="graph" transform="scale(1 1) rotate(0) translate(4 80)">
<title>ViennaRNA/utils/strings.h</title>
<!-- Node18 -->
<g id="node1" class="node">
<title>Node18</title>
<polygon fill="#bfbfbf" stroke="#000000" points="63.5,-56.5 63.5,-75.5 193.5,-75.5 193.5,-56.5 63.5,-56.5"/>
<text text-anchor="middle" x="128.5" y="-63.5" font-family="Helvetica,sans-Serif" font-size="10.00" fill="#000000">ViennaRNA/utils/strings.h</text>
</g>
<!-- Node19 -->
<g id="node2" class="node">
<title>Node19</title>
<g id="a_node2"><a xlink:href="string__utils_8h.html" target="_top" xlink:title="Use ViennaRNA/utils/strings.h instead. ">
<polygon fill="none" stroke="#000000" points="0,-.5 0,-19.5 127,-19.5 127,-.5 0,-.5"/>
<text text-anchor="middle" x="63.5" y="-7.5" font-family="Helvetica,sans-Serif" font-size="10.00" fill="#000000">ViennaRNA/string_utils.h</text>
</a>
</g>
</g>
<!-- Node18&#45;&gt;Node19 -->
<g id="edge1" class="edge">
<title>Node18&#45;&gt;Node19</title>
<path fill="none" stroke="#191970" d="M109.5165,-49.645C98.2121,-39.9058 84.253,-27.8795 74.6924,-19.6427"/>
<polygon fill="#191970" stroke="#191970" points="107.3173,-52.3701 117.1779,-56.2455 111.8862,-47.0668 107.3173,-52.3701"/>
</g>
<!-- Node20 -->
<g id="node3" class="node">
<title>Node20</title>
<g id="a_node3"><a xlink:href="utils_8h.html" target="_top" xlink:title="Use ViennaRNA/utils/basic.h instead. ">
<polygon fill="none" stroke="#000000" points="145.5,-.5 145.5,-19.5 243.5,-19.5 243.5,-.5 145.5,-.5"/>
<text text-anchor="middle" x="194.5" y="-7.5" font-family="Helvetica,sans-Serif" font-size="10.00" fill="#000000">ViennaRNA/utils.h</text>
</a>
</g>
</g>
<!-- Node18&#45;&gt;Node20 -->
<g id="edge2" class="edge">
<title>Node18&#45;&gt;Node20</title>
<path fill="none" stroke="#191970" d="M147.7755,-49.645C159.2538,-39.9058 173.4277,-27.8795 183.1354,-19.6427"/>
<polygon fill="#191970" stroke="#191970" points="145.357,-47.1069 139.9963,-56.2455 149.8859,-52.4445 145.357,-47.1069"/>
</g>
</g>
</svg>
