<?xml version="1.0" encoding="UTF-8" standalone="no"?>
<!DOCTYPE svg PUBLIC "-//W3C//DTD SVG 1.1//EN"
 "http://www.w3.org/Graphics/SVG/1.1/DTD/svg11.dtd">
<!-- Generated by graphviz version 2.40.1 (20161225.0304)
 -->
<!-- Title: TwoDpfold_vars Pages: 1 -->
<!--zoomable 370 -->
<svg id="main" version="1.1" xmlns="http://www.w3.org/2000/svg" xmlns:xlink="http://www.w3.org/1999/xlink" xml:space="preserve" onload="init(evt)">
<style type="text/css"><![CDATA[
.edge:hover path { stroke: red; }
.edge:hover polygon { stroke: red; fill: red; }
]]></style>
<script type="text/javascript"><![CDATA[
var edges = document.getElementsByTagName('g');
if (edges && edges.length) {
  for (var i=0;i<edges.length;i++) {
    if (edges[i].id.substr(0,4)=='edge') {
      edges[i].setAttribute('class','edge');
    }
  }
}
]]></script>
        <defs>
                <circle id="rim" cx="0" cy="0" r="7"/>
                <circle id="rim2" cx="0" cy="0" r="3.5"/>
                <g id="zoomPlus">
                        <use xlink:href="#rim" fill="#404040">
                                <set attributeName="fill" to="#808080" begin="zoomplus.mouseover" end="zoomplus.mouseout"/>
                        </use>
                        <path d="M-4,0h8M0,-4v8" fill="none" stroke="white" stroke-width="1.5" pointer-events="none"/>
                </g>
                <g id="zoomMin">
                        <use xlink:href="#rim" fill="#404040">
                                <set attributeName="fill" to="#808080" begin="zoomminus.mouseover" end="zoomminus.mouseout"/>
                        </use>
                        <path d="M-4,0h8" fill="none" stroke="white" stroke-width="1.5" pointer-events="none"/>
                </g>
                <g id="dirArrow">
                        <path fill="none" stroke="white" stroke-width="1.5" d="M0,-3.0v7 M-2.5,-0.5L0,-3.0L2.5,-0.5"/>
                </g>
               <g id="resetDef">
                       <use xlink:href="#rim2" fill="#404040">
                               <set attributeName="fill" to="#808080" begin="reset.mouseover" end="reset.mouseout"/>
                       </use>
               </g>
        </defs>

<script type="text/javascript">
var viewWidth = 707;
var viewHeight = 370;
var sectionId = 'dynsection-0';
</script>
<script xlink:href="svgpan.js"/>
<svg id="graph" class="graph">
<g id="viewport">
<title>TwoDpfold_vars</title>
<!-- Node1 -->
<g id="node1" class="node">
<title>Node1</title>
<polygon fill="#bfbfbf" stroke="#000000" points="611,-275.5 611,-294.5 699,-294.5 699,-275.5 611,-275.5"/>
<text text-anchor="middle" x="655" y="-282.5" font-family="Helvetica,sans-Serif" font-size="10.00" fill="#000000">TwoDpfold_vars</text>
</g>
<!-- Node2 -->
<g id="node2" class="node">
<title>Node2</title>
<g id="a_node2"><a xlink:href="group__energy__parameters.html#structvrna__exp__param__s" target="_top" xlink:title="The data structure that contains temperature scaled Boltzmann weights of the energy parameters...">
<polygon fill="none" stroke="#000000" points="234.5,-342.5 234.5,-361.5 333.5,-361.5 333.5,-342.5 234.5,-342.5"/>
<text text-anchor="middle" x="284" y="-349.5" font-family="Helvetica,sans-Serif" font-size="10.00" fill="#000000">vrna_exp_param_s</text>
</a>
</g>
</g>
<!-- Node2&#45;&gt;Node1 -->
<g id="edge1" class="edge">
<title>Node2&#45;&gt;Node1</title>
<path fill="none" stroke="#9a32cd" stroke-dasharray="5,2" d="M343.9027,-354.2957C353.6278,-354.5888 363.5924,-354.8415 373,-355 402.7736,-355.5017 410.5902,-359.6671 440,-355 513.0811,-343.4027 595.1074,-310.9317 633.2826,-294.6146"/>
<polygon fill="#9a32cd" stroke="#9a32cd" points="343.9943,-350.7969 333.8882,-353.9778 343.7721,-357.7934 343.9943,-350.7969"/>
<text text-anchor="middle" x="487.5" y="-354" font-family="Helvetica,sans-Serif" font-size="10.00" fill="#000000"> pf_params</text>
</g>
<!-- Node4 -->
<g id="node4" class="node">
<title>Node4</title>
<g id="a_node4"><a xlink:href="group__fold__compound.html#structvrna__fc__s" target="_top" xlink:title="The most basic data structure required by many functions throughout the RNAlib. ">
<polygon fill="none" stroke="#000000" points="458,-188.5 458,-207.5 517,-207.5 517,-188.5 458,-188.5"/>
<text text-anchor="middle" x="487.5" y="-195.5" font-family="Helvetica,sans-Serif" font-size="10.00" fill="#000000">vrna_fc_s</text>
</a>
</g>
</g>
<!-- Node2&#45;&gt;Node4 -->
<g id="edge6" class="edge">
<title>Node2&#45;&gt;Node4</title>
<path fill="none" stroke="#9a32cd" stroke-dasharray="5,2" d="M343.4603,-345.3149C381.1309,-339.9875 425.4064,-331.3569 440,-319 474.9625,-289.3962 484.3446,-230.6575 486.7309,-207.6048"/>
<polygon fill="#9a32cd" stroke="#9a32cd" points="342.9821,-341.8476 333.5455,-346.6642 343.9262,-348.7836 342.9821,-341.8476"/>
<text text-anchor="middle" x="406.5" y="-343" font-family="Helvetica,sans-Serif" font-size="10.00" fill="#000000"> exp_params</text>
</g>
<!-- Node3 -->
<g id="node3" class="node">
<title>Node3</title>
<g id="a_node3"><a xlink:href="group__model__details.html#structvrna__md__s" target="_top" xlink:title="The data structure that contains the complete model details used throughout the calculations. ">
<polygon fill="none" stroke="#000000" points="24,-321.5 24,-340.5 89,-340.5 89,-321.5 24,-321.5"/>
<text text-anchor="middle" x="56.5" y="-328.5" font-family="Helvetica,sans-Serif" font-size="10.00" fill="#000000">vrna_md_s</text>
</a>
</g>
</g>
<!-- Node3&#45;&gt;Node2 -->
<g id="edge2" class="edge">
<title>Node3&#45;&gt;Node2</title>
<path fill="none" stroke="#9a32cd" stroke-dasharray="5,2" d="M99.4125,-334.9612C137.7698,-338.5018 193.9796,-343.6904 234.2829,-347.4107"/>
<polygon fill="#9a32cd" stroke="#9a32cd" points="99.3746,-331.4429 89.0952,-334.0088 98.7311,-338.4132 99.3746,-331.4429"/>
<text text-anchor="middle" x="163" y="-346" font-family="Helvetica,sans-Serif" font-size="10.00" fill="#000000"> model_details</text>
</g>
<!-- Node7 -->
<g id="node7" class="node">
<title>Node7</title>
<g id="a_node7"><a xlink:href="group__energy__parameters.html#structvrna__param__s" target="_top" xlink:title="The datastructure that contains temperature scaled energy parameters. ">
<polygon fill="none" stroke="#000000" points="245,-304.5 245,-323.5 323,-323.5 323,-304.5 245,-304.5"/>
<text text-anchor="middle" x="284" y="-311.5" font-family="Helvetica,sans-Serif" font-size="10.00" fill="#000000">vrna_param_s</text>
</a>
</g>
</g>
<!-- Node3&#45;&gt;Node7 -->
<g id="edge8" class="edge">
<title>Node3&#45;&gt;Node7</title>
<path fill="none" stroke="#9a32cd" stroke-dasharray="5,2" d="M99.3913,-322.41C109.7032,-320.6517 120.7116,-319.0265 131,-318 169.6028,-314.1483 213.9385,-313.389 244.9122,-313.4475"/>
<polygon fill="#9a32cd" stroke="#9a32cd" points="98.5956,-318.9966 89.364,-324.1955 99.8228,-325.8882 98.5956,-318.9966"/>
<text text-anchor="middle" x="163" y="-321" font-family="Helvetica,sans-Serif" font-size="10.00" fill="#000000"> model_details</text>
</g>
<!-- Node4&#45;&gt;Node1 -->
<g id="edge3" class="edge">
<title>Node4&#45;&gt;Node1</title>
<path fill="none" stroke="#9a32cd" stroke-dasharray="5,2" d="M515.0944,-212.3326C549.4575,-230.1809 607.2091,-260.1773 636.6067,-275.4465"/>
<polygon fill="#9a32cd" stroke="#9a32cd" points="516.5531,-209.1463 506.0654,-207.6429 513.3265,-215.3584 516.5531,-209.1463"/>
<text text-anchor="middle" x="564" y="-254" font-family="Helvetica,sans-Serif" font-size="10.00" fill="#000000"> compatibility</text>
</g>
<!-- Node5 -->
<g id="node5" class="node">
<title>Node5</title>
<g id="a_node5"><a xlink:href="group__soft__constraints.html#structvrna__sc__s" target="_top" xlink:title="The soft constraints data structure. ">
<polygon fill="none" stroke="#000000" points="253,-266.5 253,-285.5 315,-285.5 315,-266.5 253,-266.5"/>
<text text-anchor="middle" x="284" y="-273.5" font-family="Helvetica,sans-Serif" font-size="10.00" fill="#000000">vrna_sc_s</text>
</a>
</g>
</g>
<!-- Node5&#45;&gt;Node4 -->
<g id="edge4" class="edge">
<title>Node5&#45;&gt;Node4</title>
<path fill="none" stroke="#9a32cd" stroke-dasharray="5,2" d="M325.1306,-271.2433C357.6738,-266.2653 403.5474,-256.4898 440,-238 455.1915,-230.2944 469.7247,-216.8636 478.6255,-207.7098"/>
<polygon fill="#9a32cd" stroke="#9a32cd" points="324.4596,-267.8037 315.0618,-272.6958 325.4591,-274.732 324.4596,-267.8037"/>
<text text-anchor="middle" x="406.5" y="-275" font-family="Helvetica,sans-Serif" font-size="10.00" fill="#000000"> sc</text>
<text text-anchor="middle" x="406.5" y="-264" font-family="Helvetica,sans-Serif" font-size="10.00" fill="#000000">scs</text>
</g>
<!-- Node6 -->
<g id="node6" class="node">
<title>Node6</title>
<g id="a_node6"><a xlink:href="structvrna__sc__bp__storage__t.html" target="_top" xlink:title="A base pair constraint. ">
<polygon fill="none" stroke="#000000" points="0,-266.5 0,-285.5 113,-285.5 113,-266.5 0,-266.5"/>
<text text-anchor="middle" x="56.5" y="-273.5" font-family="Helvetica,sans-Serif" font-size="10.00" fill="#000000">vrna_sc_bp_storage_t</text>
</a>
</g>
</g>
<!-- Node6&#45;&gt;Node5 -->
<g id="edge5" class="edge">
<title>Node6&#45;&gt;Node5</title>
<path fill="none" stroke="#9a32cd" stroke-dasharray="5,2" d="M123.1149,-276C165.9913,-276 219.7225,-276 252.9555,-276"/>
<polygon fill="#9a32cd" stroke="#9a32cd" points="123.0283,-272.5001 113.0283,-276 123.0282,-279.5001 123.0283,-272.5001"/>
<text text-anchor="middle" x="163" y="-279" font-family="Helvetica,sans-Serif" font-size="10.00" fill="#000000"> bp_storage</text>
</g>
<!-- Node7&#45;&gt;Node4 -->
<g id="edge7" class="edge">
<title>Node7&#45;&gt;Node4</title>
<path fill="none" stroke="#9a32cd" stroke-dasharray="5,2" d="M333.4273,-310.165C372.5476,-306.2799 423.2842,-299.0847 440,-287 467.5355,-267.0932 480.6158,-226.2467 485.3365,-207.6294"/>
<polygon fill="#9a32cd" stroke="#9a32cd" points="332.8762,-306.7015 323.2506,-311.1284 333.536,-313.6703 332.8762,-306.7015"/>
<text text-anchor="middle" x="406.5" y="-307" font-family="Helvetica,sans-Serif" font-size="10.00" fill="#000000"> params</text>
</g>
<!-- Node8 -->
<g id="node8" class="node">
<title>Node8</title>
<g id="a_node8"><a xlink:href="group__hard__constraints.html#structvrna__hc__s" target="_top" xlink:title="The hard constraints data structure. ">
<polygon fill="none" stroke="#000000" points="253,-228.5 253,-247.5 315,-247.5 315,-228.5 253,-228.5"/>
<text text-anchor="middle" x="284" y="-235.5" font-family="Helvetica,sans-Serif" font-size="10.00" fill="#000000">vrna_hc_s</text>
</a>
</g>
</g>
<!-- Node8&#45;&gt;Node4 -->
<g id="edge9" class="edge">
<title>Node8&#45;&gt;Node4</title>
<path fill="none" stroke="#9a32cd" stroke-dasharray="5,2" d="M325.3751,-231.3832C356.9049,-226.1452 401.3355,-218.3432 440,-210 445.82,-208.7441 452.0086,-207.2779 457.9292,-205.8101"/>
<polygon fill="#9a32cd" stroke="#9a32cd" points="324.5021,-227.9797 315.2039,-233.0583 325.6397,-234.8866 324.5021,-227.9797"/>
<text text-anchor="middle" x="406.5" y="-226" font-family="Helvetica,sans-Serif" font-size="10.00" fill="#000000"> hc</text>
</g>
<!-- Node9 -->
<g id="node9" class="node">
<title>Node9</title>
<g id="a_node9"><a xlink:href="structvrna__hc__bp__storage__t.html" target="_top" xlink:title="A base pair hard constraint. ">
<polygon fill="none" stroke="#000000" points="0,-228.5 0,-247.5 113,-247.5 113,-228.5 0,-228.5"/>
<text text-anchor="middle" x="56.5" y="-235.5" font-family="Helvetica,sans-Serif" font-size="10.00" fill="#000000">vrna_hc_bp_storage_t</text>
</a>
</g>
</g>
<!-- Node9&#45;&gt;Node8 -->
<g id="edge10" class="edge">
<title>Node9&#45;&gt;Node8</title>
<path fill="none" stroke="#9a32cd" stroke-dasharray="5,2" d="M123.1149,-238C165.9913,-238 219.7225,-238 252.9555,-238"/>
<polygon fill="#9a32cd" stroke="#9a32cd" points="123.0283,-234.5001 113.0283,-238 123.0282,-241.5001 123.0283,-234.5001"/>
<text text-anchor="middle" x="163" y="-241" font-family="Helvetica,sans-Serif" font-size="10.00" fill="#000000"> bp_storage</text>
</g>
<!-- Node10 -->
<g id="node10" class="node">
<title>Node10</title>
<g id="a_node10"><a xlink:href="group__alphabet__utils.html#structvrna__sequence__s" target="_top" xlink:title="Data structure representing a nucleotide sequence. ">
<polygon fill="none" stroke="#000000" points="237.5,-190.5 237.5,-209.5 330.5,-209.5 330.5,-190.5 237.5,-190.5"/>
<text text-anchor="middle" x="284" y="-197.5" font-family="Helvetica,sans-Serif" font-size="10.00" fill="#000000">vrna_sequence_s</text>
</a>
</g>
</g>
<!-- Node10&#45;&gt;Node4 -->
<g id="edge11" class="edge">
<title>Node10&#45;&gt;Node4</title>
<path fill="none" stroke="#9a32cd" stroke-dasharray="5,2" d="M340.7619,-199.341C351.4709,-199.2227 362.5786,-199.1041 373,-199 401.8234,-198.7122 434.7288,-198.4296 457.8449,-198.2387"/>
<polygon fill="#9a32cd" stroke="#9a32cd" points="340.6123,-195.8424 330.6521,-199.4539 340.6905,-202.8419 340.6123,-195.8424"/>
<text text-anchor="middle" x="406.5" y="-202" font-family="Helvetica,sans-Serif" font-size="10.00" fill="#000000"> nucleotides</text>
</g>
<!-- Node11 -->
<g id="node11" class="node">
<title>Node11</title>
<g id="a_node11"><a xlink:href="group__domains__up.html#structvrna__unstructured__domain__s" target="_top" xlink:title="Data structure to store all functionality for ligand binding. ">
<polygon fill="none" stroke="#000000" points="213,-152.5 213,-171.5 355,-171.5 355,-152.5 213,-152.5"/>
<text text-anchor="middle" x="284" y="-159.5" font-family="Helvetica,sans-Serif" font-size="10.00" fill="#000000">vrna_unstructured_domain_s</text>
</a>
</g>
</g>
<!-- Node11&#45;&gt;Node4 -->
<g id="edge12" class="edge">
<title>Node11&#45;&gt;Node4</title>
<path fill="none" stroke="#9a32cd" stroke-dasharray="5,2" d="M365.2662,-171.1656C389.4454,-174.5092 415.9086,-178.7804 440,-184 445.7976,-185.2561 451.9207,-186.8521 457.7726,-188.5136"/>
<polygon fill="#9a32cd" stroke="#9a32cd" points="365.4351,-167.6568 355.0571,-169.7894 364.4999,-174.5941 365.4351,-167.6568"/>
<text text-anchor="middle" x="406.5" y="-187" font-family="Helvetica,sans-Serif" font-size="10.00" fill="#000000"> domains_up</text>
</g>
<!-- Node12 -->
<g id="node12" class="node">
<title>Node12</title>
<g id="a_node12"><a xlink:href="group__dp__matrices.html#structvrna__mx__mfe__s" target="_top" xlink:title="Minimum Free Energy (MFE) Dynamic Programming (DP) matrices data structure required within the vrna_f...">
<polygon fill="none" stroke="#000000" points="241,-114.5 241,-133.5 327,-133.5 327,-114.5 241,-114.5"/>
<text text-anchor="middle" x="284" y="-121.5" font-family="Helvetica,sans-Serif" font-size="10.00" fill="#000000">vrna_mx_mfe_s</text>
</a>
</g>
</g>
<!-- Node12&#45;&gt;Node4 -->
<g id="edge13" class="edge">
<title>Node12&#45;&gt;Node4</title>
<path fill="none" stroke="#9a32cd" stroke-dasharray="5,2" d="M337.451,-129.1533C368.5998,-133.7136 407.9341,-142.2229 440,-158 455.2842,-165.5201 469.7957,-178.9944 478.6662,-188.2086"/>
<polygon fill="#9a32cd" stroke="#9a32cd" points="337.6059,-125.642 327.2236,-127.7534 336.6565,-132.5773 337.6059,-125.642"/>
<text text-anchor="middle" x="406.5" y="-161" font-family="Helvetica,sans-Serif" font-size="10.00" fill="#000000"> matrices</text>
</g>
<!-- Node13 -->
<g id="node13" class="node">
<title>Node13</title>
<g id="a_node13"><a xlink:href="group__grammar.html#structvrna__gr__aux__s" target="_top" xlink:title="vrna_gr_aux_s">
<polygon fill="none" stroke="#000000" points="244,-76.5 244,-95.5 324,-95.5 324,-76.5 244,-76.5"/>
<text text-anchor="middle" x="284" y="-83.5" font-family="Helvetica,sans-Serif" font-size="10.00" fill="#000000">vrna_gr_aux_s</text>
</a>
</g>
</g>
<!-- Node13&#45;&gt;Node4 -->
<g id="edge14" class="edge">
<title>Node13&#45;&gt;Node4</title>
<path fill="none" stroke="#9a32cd" stroke-dasharray="5,2" d="M334.5785,-87.4298C367.2791,-90.602 409.3079,-99.1174 440,-121 464.1717,-138.2338 478.5427,-171.9904 484.4093,-188.4794"/>
<polygon fill="#9a32cd" stroke="#9a32cd" points="334.5707,-83.9171 324.3153,-86.5774 333.9913,-90.8931 334.5707,-83.9171"/>
<text text-anchor="middle" x="406.5" y="-124" font-family="Helvetica,sans-Serif" font-size="10.00" fill="#000000"> aux_grammar</text>
</g>
<!-- Node14 -->
<g id="node14" class="node">
<title>Node14</title>
<g id="a_node14"><a xlink:href="group__dp__matrices.html#structvrna__mx__pf__s" target="_top" xlink:title="Partition function (PF) Dynamic Programming (DP) matrices data structure required within the vrna_fol...">
<polygon fill="none" stroke="#000000" points="245,-38.5 245,-57.5 323,-57.5 323,-38.5 245,-38.5"/>
<text text-anchor="middle" x="284" y="-45.5" font-family="Helvetica,sans-Serif" font-size="10.00" fill="#000000">vrna_mx_pf_s</text>
</a>
</g>
</g>
<!-- Node14&#45;&gt;Node4 -->
<g id="edge15" class="edge">
<title>Node14&#45;&gt;Node4</title>
<path fill="none" stroke="#9a32cd" stroke-dasharray="5,2" d="M333.3984,-46.5137C366.9657,-48.0538 410.4659,-55.3646 440,-80 474.256,-108.5741 484.0262,-165.5238 486.6238,-188.2781"/>
<polygon fill="#9a32cd" stroke="#9a32cd" points="333.4279,-43.0131 323.3263,-46.2082 333.2156,-50.0099 333.4279,-43.0131"/>
<text text-anchor="middle" x="406.5" y="-83" font-family="Helvetica,sans-Serif" font-size="10.00" fill="#000000"> exp_matrices</text>
</g>
<!-- Node15 -->
<g id="node15" class="node">
<title>Node15</title>
<g id="a_node15"><a xlink:href="structvrna__structured__domains__s.html" target="_top" xlink:title="vrna_structured_domains_s">
<polygon fill="none" stroke="#000000" points="215.5,-.5 215.5,-19.5 352.5,-19.5 352.5,-.5 215.5,-.5"/>
<text text-anchor="middle" x="284" y="-7.5" font-family="Helvetica,sans-Serif" font-size="10.00" fill="#000000">vrna_structured_domains_s</text>
</a>
</g>
</g>
<!-- Node15&#45;&gt;Node4 -->
<g id="edge16" class="edge">
<title>Node15&#45;&gt;Node4</title>
<path fill="none" stroke="#9a32cd" stroke-dasharray="5,2" d="M362.7293,-7.3151C390.0599,-10.2829 419.0693,-18.3574 440,-37 463.2854,-57.7398 480.8331,-156.3107 485.9642,-188.096"/>
<polygon fill="#9a32cd" stroke="#9a32cd" points="363.0212,-3.8274 352.7542,-6.4427 362.4112,-10.8008 363.0212,-3.8274"/>
<text text-anchor="middle" x="406.5" y="-40" font-family="Helvetica,sans-Serif" font-size="10.00" fill="#000000"> domains_struc</text>
</g>
</g>
</svg>
        <g id="navigator" transform="translate(0 0)" fill="#404254">
                <rect fill="#f2f5e9" fill-opacity="0.5" stroke="#606060" stroke-width=".5" x="0" y="0" width="60" height="60"/>
                <use id="zoomplus" xlink:href="#zoomPlus" x="17" y="9" onmousedown="handleZoom(evt,'in')"/>
                <use id="zoomminus" xlink:href="#zoomMin" x="42" y="9" onmousedown="handleZoom(evt,'out')"/>
                <use id="reset" xlink:href="#resetDef" x="30" y="36" onmousedown="handleReset()"/>
                <g id="arrowUp" xlink:href="#dirArrow" transform="translate(30 24)" onmousedown="handlePan(0,-1)">
                  <use xlink:href="#rim" fill="#404040">
                        <set attributeName="fill" to="#808080" begin="arrowUp.mouseover" end="arrowUp.mouseout"/>
                  </use>
                  <path fill="none" stroke="white" stroke-width="1.5" d="M0,-3.0v7 M-2.5,-0.5L0,-3.0L2.5,-0.5"/>
                </g>
                <g id="arrowRight" xlink:href="#dirArrow" transform="rotate(90) translate(36 -43)" onmousedown="handlePan(1,0)">
                  <use xlink:href="#rim" fill="#404040">
                        <set attributeName="fill" to="#808080" begin="arrowRight.mouseover" end="arrowRight.mouseout"/>
                  </use>
                  <path fill="none" stroke="white" stroke-width="1.5" d="M0,-3.0v7 M-2.5,-0.5L0,-3.0L2.5,-0.5"/>
                </g>
                <g id="arrowDown" xlink:href="#dirArrow" transform="rotate(180) translate(-30 -48)" onmousedown="handlePan(0,1)">
                  <use xlink:href="#rim" fill="#404040">
                        <set attributeName="fill" to="#808080" begin="arrowDown.mouseover" end="arrowDown.mouseout"/>
                  </use>
                  <path fill="none" stroke="white" stroke-width="1.5" d="M0,-3.0v7 M-2.5,-0.5L0,-3.0L2.5,-0.5"/>
                </g>
                <g id="arrowLeft" xlink:href="#dirArrow" transform="rotate(270) translate(-36 17)" onmousedown="handlePan(-1,0)">
                  <use xlink:href="#rim" fill="#404040">
                        <set attributeName="fill" to="#808080" begin="arrowLeft.mouseover" end="arrowLeft.mouseout"/>
                  </use>
                  <path fill="none" stroke="white" stroke-width="1.5" d="M0,-3.0v7 M-2.5,-0.5L0,-3.0L2.5,-0.5"/>
                </g>
        </g>
        <svg viewBox="0 0 15 15" width="100%" height="30px" preserveAspectRatio="xMaxYMin meet">
         <g id="arrow_out" transform="scale(0.3 0.3)">
          <a xlink:href="structTwoDpfold__vars__coll__graph_org.svg" target="_base">
           <rect id="button" ry="5" rx="5" y="6" x="6" height="38" width="38"
                fill="#f2f5e9" fill-opacity="0.5" stroke="#606060" stroke-width="1.0"/>
           <path id="arrow"
             d="M 11.500037,31.436501 C 11.940474,20.09759 22.043105,11.32322 32.158766,21.979434 L 37.068811,17.246167 C 37.068811,17.246167 37.088388,32 37.088388,32 L 22.160133,31.978069 C 22.160133,31.978069 26.997745,27.140456 26.997745,27.140456 C 18.528582,18.264221 13.291696,25.230495 11.500037,31.436501 z"
             style="fill:#404040;"/>
          </a>
         </g>
        </svg>
</svg>
