<?xml version="1.0" encoding="UTF-8" standalone="no"?>
<!DOCTYPE svg PUBLIC "-//W3C//DTD SVG 1.1//EN"
 "http://www.w3.org/Graphics/SVG/1.1/DTD/svg11.dtd">
<!-- Generated by graphviz version 2.40.1 (20161225.0304)
 -->
<!-- Title: vrna_dotplot_auxdata_t Pages: 1 -->
<svg width="126pt" height="195pt"
 viewBox="0.00 0.00 126.00 195.00" xmlns="http://www.w3.org/2000/svg" xmlns:xlink="http://www.w3.org/1999/xlink">
<g id="graph0" class="graph" transform="scale(1 1) rotate(0) translate(4 191)">
<title>vrna_dotplot_auxdata_t</title>
<!-- Node3 -->
<g id="node1" class="node">
<title>Node3</title>
<polygon fill="#bfbfbf" stroke="#000000" points="0,-.5 0,-19.5 118,-19.5 118,-.5 0,-.5"/>
<text text-anchor="middle" x="59" y="-7.5" font-family="Helvetica,sans-Serif" font-size="10.00" fill="#000000">vrna_dotplot_auxdata_t</text>
</g>
<!-- Node4 -->
<g id="node2" class="node">
<title>Node4</title>
<g id="a_node2"><a xlink:href="group__data__structures.html#structvrna__data__linear__s" target="_top" xlink:title="vrna_data_linear_s">
<polygon fill="none" stroke="#000000" points="10,-100.5 10,-119.5 108,-119.5 108,-100.5 10,-100.5"/>
<text text-anchor="middle" x="59" y="-107.5" font-family="Helvetica,sans-Serif" font-size="10.00" fill="#000000">vrna_data_linear_s</text>
</a>
</g>
</g>
<!-- Node4&#45;&gt;Node3 -->
<g id="edge1" class="edge">
<title>Node4&#45;&gt;Node3</title>
<path fill="none" stroke="#9a32cd" stroke-dasharray="5,2" d="M59,-90.2332C59,-68.9448 59,-35.9485 59,-19.7063"/>
<polygon fill="#9a32cd" stroke="#9a32cd" points="55.5001,-90.4115 59,-100.4116 62.5001,-90.4116 55.5001,-90.4115"/>
<text text-anchor="middle" x="74.5" y="-74" font-family="Helvetica,sans-Serif" font-size="10.00" fill="#000000"> right</text>
<text text-anchor="middle" x="74.5" y="-63" font-family="Helvetica,sans-Serif" font-size="10.00" fill="#000000">left</text>
<text text-anchor="middle" x="74.5" y="-52" font-family="Helvetica,sans-Serif" font-size="10.00" fill="#000000">bottom</text>
<text text-anchor="middle" x="74.5" y="-41" font-family="Helvetica,sans-Serif" font-size="10.00" fill="#000000">top</text>
</g>
<!-- Node5 -->
<g id="node3" class="node">
<title>Node5</title>
<g id="a_node3"><a xlink:href="group__data__structures.html#structvrna__color__s" target="_top" xlink:title="vrna_color_s">
<polygon fill="none" stroke="#000000" points="23,-167.5 23,-186.5 95,-186.5 95,-167.5 23,-167.5"/>
<text text-anchor="middle" x="59" y="-174.5" font-family="Helvetica,sans-Serif" font-size="10.00" fill="#000000">vrna_color_s</text>
</a>
</g>
</g>
<!-- Node5&#45;&gt;Node4 -->
<g id="edge2" class="edge">
<title>Node5&#45;&gt;Node4</title>
<path fill="none" stroke="#9a32cd" stroke-dasharray="5,2" d="M59,-157.1079C59,-144.714 59,-129.3263 59,-119.5817"/>
<polygon fill="#9a32cd" stroke="#9a32cd" points="55.5001,-157.4005 59,-167.4005 62.5001,-157.4006 55.5001,-157.4005"/>
<text text-anchor="middle" x="71.5" y="-141" font-family="Helvetica,sans-Serif" font-size="10.00" fill="#000000"> color</text>
</g>
</g>
</svg>
