<?xml version="1.0" encoding="UTF-8" standalone="no"?>
<!DOCTYPE svg PUBLIC "-//W3C//DTD SVG 1.1//EN"
 "http://www.w3.org/Graphics/SVG/1.1/DTD/svg11.dtd">
<!-- Generated by graphviz version 2.40.1 (20161225.0304)
 -->
<!-- Title: ViennaRNA/structure_utils.h Pages: 1 -->
<!--zoomable 408 -->
<svg id="main" version="1.1" xmlns="http://www.w3.org/2000/svg" xmlns:xlink="http://www.w3.org/1999/xlink" xml:space="preserve" onload="init(evt)">
<style type="text/css"><![CDATA[
.edge:hover path { stroke: red; }
.edge:hover polygon { stroke: red; fill: red; }
]]></style>
<script type="text/javascript"><![CDATA[
var edges = document.getElementsByTagName('g');
if (edges && edges.length) {
  for (var i=0;i<edges.length;i++) {
    if (edges[i].id.substr(0,4)=='edge') {
      edges[i].setAttribute('class','edge');
    }
  }
}
]]></script>
        <defs>
                <circle id="rim" cx="0" cy="0" r="7"/>
                <circle id="rim2" cx="0" cy="0" r="3.5"/>
                <g id="zoomPlus">
                        <use xlink:href="#rim" fill="#404040">
                                <set attributeName="fill" to="#808080" begin="zoomplus.mouseover" end="zoomplus.mouseout"/>
                        </use>
                        <path d="M-4,0h8M0,-4v8" fill="none" stroke="white" stroke-width="1.5" pointer-events="none"/>
                </g>
                <g id="zoomMin">
                        <use xlink:href="#rim" fill="#404040">
                                <set attributeName="fill" to="#808080" begin="zoomminus.mouseover" end="zoomminus.mouseout"/>
                        </use>
                        <path d="M-4,0h8" fill="none" stroke="white" stroke-width="1.5" pointer-events="none"/>
                </g>
                <g id="dirArrow">
                        <path fill="none" stroke="white" stroke-width="1.5" d="M0,-3.0v7 M-2.5,-0.5L0,-3.0L2.5,-0.5"/>
                </g>
               <g id="resetDef">
                       <use xlink:href="#rim2" fill="#404040">
                               <set attributeName="fill" to="#808080" begin="reset.mouseover" end="reset.mouseout"/>
                       </use>
               </g>
        </defs>

<script type="text/javascript">
var viewWidth = 1235;
var viewHeight = 408;
var sectionId = 'dynsection-0';
</script>
<script xlink:href="svgpan.js"/>
<svg id="graph" class="graph">
<g id="viewport">
<title>ViennaRNA/structure_utils.h</title>
<!-- Node0 -->
<g id="node1" class="node">
<title>Node0</title>
<polygon fill="#bfbfbf" stroke="#000000" points="608.7148,-369.5 608.7148,-399.5 718.7148,-399.5 718.7148,-369.5 608.7148,-369.5"/>
<text text-anchor="start" x="616.7148" y="-387.5" font-family="Helvetica,sans-Serif" font-size="10.00" fill="#000000">ViennaRNA/structure</text>
<text text-anchor="middle" x="663.7148" y="-376.5" font-family="Helvetica,sans-Serif" font-size="10.00" fill="#000000">_utils.h</text>
</g>
<!-- Node1 -->
<g id="node2" class="node">
<title>Node1</title>
<g id="a_node2"><a xlink:href="utils_2structures_8h.html" target="_top" xlink:title="Various utility&#45; and helper&#45;functions for secondary structure parsing, converting, etc. ">
<polygon fill="none" stroke="#000000" points="591.7148,-313.5 591.7148,-332.5 735.7148,-332.5 735.7148,-313.5 591.7148,-313.5"/>
<text text-anchor="middle" x="663.7148" y="-320.5" font-family="Helvetica,sans-Serif" font-size="10.00" fill="#000000">ViennaRNA/utils/structures.h</text>
</a>
</g>
</g>
<!-- Node0&#45;&gt;Node1 -->
<g id="edge1" class="edge">
<title>Node0&#45;&gt;Node1</title>
<path fill="none" stroke="#191970" d="M663.7148,-369.2977C663.7148,-361.3834 663.7148,-351.6043 663.7148,-343.0759"/>
<polygon fill="#191970" stroke="#191970" points="667.2149,-342.8469 663.7148,-332.8469 660.2149,-342.847 667.2149,-342.8469"/>
</g>
<!-- Node2 -->
<g id="node3" class="node">
<title>Node2</title>
<polygon fill="none" stroke="#bfbfbf" points="532.7148,-252 532.7148,-271 578.7148,-271 578.7148,-252 532.7148,-252"/>
<text text-anchor="middle" x="555.7148" y="-259" font-family="Helvetica,sans-Serif" font-size="10.00" fill="#000000">stdio.h</text>
</g>
<!-- Node1&#45;&gt;Node2 -->
<g id="edge2" class="edge">
<title>Node1&#45;&gt;Node2</title>
<path fill="none" stroke="#191970" d="M646.8398,-313.3906C629.245,-303.3713 601.4583,-287.5483 581.1907,-276.0071"/>
<polygon fill="#191970" stroke="#191970" points="582.8932,-272.9489 572.4713,-271.0419 579.4293,-279.0318 582.8932,-272.9489"/>
</g>
<!-- Node3 -->
<g id="node4" class="node">
<title>Node3</title>
<g id="a_node4"><a xlink:href="datastructures_2basic_8h.html" target="_top" xlink:title="Various data structures and pre&#45;processor macros. ">
<polygon fill="none" stroke="#000000" points="596.7148,-246.5 596.7148,-276.5 730.7148,-276.5 730.7148,-246.5 596.7148,-246.5"/>
<text text-anchor="start" x="604.7148" y="-264.5" font-family="Helvetica,sans-Serif" font-size="10.00" fill="#000000">ViennaRNA/datastructures</text>
<text text-anchor="middle" x="663.7148" y="-253.5" font-family="Helvetica,sans-Serif" font-size="10.00" fill="#000000">/basic.h</text>
</a>
</g>
</g>
<!-- Node1&#45;&gt;Node3 -->
<g id="edge3" class="edge">
<title>Node1&#45;&gt;Node3</title>
<path fill="none" stroke="#191970" d="M658.6523,-313.3906C657.2538,-306.2234 656.7246,-296.0862 657.0646,-286.671"/>
<polygon fill="#191970" stroke="#191970" points="660.5663,-286.7767 657.8178,-276.5446 653.5856,-286.2574 660.5663,-286.7767"/>
</g>
<!-- Node3&#45;&gt;Node1 -->
<g id="edge36" class="edge">
<title>Node3&#45;&gt;Node1</title>
<path fill="none" stroke="#191970" d="M669.6119,-276.5446C670.5741,-284.6241 670.7222,-294.681 670.0562,-303.3693"/>
<polygon fill="#191970" stroke="#191970" points="666.5715,-303.028 668.7773,-313.3906 673.5152,-303.9142 666.5715,-303.028"/>
</g>
<!-- Node4 -->
<g id="node5" class="node">
<title>Node4</title>
<g id="a_node5"><a xlink:href="constants_8h.html" target="_top" xlink:title="Energy parameter constants. ">
<polygon fill="none" stroke="#000000" points="5.7148,-62 5.7148,-81 163.7148,-81 163.7148,-62 5.7148,-62"/>
<text text-anchor="middle" x="84.7148" y="-69" font-family="Helvetica,sans-Serif" font-size="10.00" fill="#000000">ViennaRNA/params/constants.h</text>
</a>
</g>
</g>
<!-- Node3&#45;&gt;Node4 -->
<g id="edge4" class="edge">
<title>Node3&#45;&gt;Node4</title>
<path fill="none" stroke="#191970" d="M596.6462,-247.422C593.6324,-246.9155 590.6448,-246.4382 587.7148,-246 458.2157,-226.6337 85.3005,-257.977 5.7148,-154 -2.6594,-143.0593 -.8487,-135.1139 5.7148,-123 14.908,-106.033 32.3826,-93.7726 48.5639,-85.4815"/>
<polygon fill="#191970" stroke="#191970" points="50.3439,-88.5106 57.8695,-81.053 47.3358,-82.1899 50.3439,-88.5106"/>
</g>
<!-- Node6 -->
<g id="node7" class="node">
<title>Node6</title>
<g id="a_node7"><a xlink:href="fold__compound_8h.html" target="_top" xlink:title="The Basic Fold Compound API. ">
<polygon fill="none" stroke="#000000" points="531.7148,-190.5 531.7148,-209.5 677.7148,-209.5 677.7148,-190.5 531.7148,-190.5"/>
<text text-anchor="middle" x="604.7148" y="-197.5" font-family="Helvetica,sans-Serif" font-size="10.00" fill="#000000">ViennaRNA/fold_compound.h</text>
</a>
</g>
</g>
<!-- Node3&#45;&gt;Node6 -->
<g id="edge6" class="edge">
<title>Node3&#45;&gt;Node6</title>
<path fill="none" stroke="#191970" d="M649.1306,-246.2977C640.6848,-237.4941 630.0256,-226.3833 621.2664,-217.2529"/>
<polygon fill="#191970" stroke="#191970" points="623.6101,-214.6402 614.1615,-209.8469 618.5587,-219.4862 623.6101,-214.6402"/>
</g>
<!-- Node7 -->
<g id="node8" class="node">
<title>Node7</title>
<g id="a_node8"><a xlink:href="model_8h.html" target="_top" xlink:title="The model details data structure and its corresponding modifiers. ">
<polygon fill="none" stroke="#000000" points="279.7148,-62 279.7148,-81 385.7148,-81 385.7148,-62 279.7148,-62"/>
<text text-anchor="middle" x="332.7148" y="-69" font-family="Helvetica,sans-Serif" font-size="10.00" fill="#000000">ViennaRNA/model.h</text>
</a>
</g>
</g>
<!-- Node3&#45;&gt;Node7 -->
<g id="edge28" class="edge">
<title>Node3&#45;&gt;Node7</title>
<path fill="none" stroke="#191970" d="M596.6669,-246.8734C514.9169,-227.6577 383.6652,-191.8828 351.7148,-154 336.8835,-136.4149 333.0855,-109.4942 332.3734,-91.2266"/>
<polygon fill="#191970" stroke="#191970" points="335.8721,-91.0907 332.2577,-81.1314 328.8726,-91.1709 335.8721,-91.0907"/>
</g>
<!-- Node8 -->
<g id="node9" class="node">
<title>Node8</title>
<g id="a_node9"><a xlink:href="params_2basic_8h.html" target="_top" xlink:title="Functions to deal with sets of energy parameters. ">
<polygon fill="none" stroke="#000000" points="166.7148,-129 166.7148,-148 304.7148,-148 304.7148,-129 166.7148,-129"/>
<text text-anchor="middle" x="235.7148" y="-136" font-family="Helvetica,sans-Serif" font-size="10.00" fill="#000000">ViennaRNA/params/basic.h</text>
</a>
</g>
</g>
<!-- Node3&#45;&gt;Node8 -->
<g id="edge29" class="edge">
<title>Node3&#45;&gt;Node8</title>
<path fill="none" stroke="#191970" d="M596.328,-249.1653C590.3604,-248.0401 584.4246,-246.9632 578.7148,-246 459.7738,-225.9362 419.7509,-259.4125 309.7148,-210 282.3397,-197.707 257.18,-173.4067 244.0109,-156.5698"/>
<polygon fill="#191970" stroke="#191970" points="246.6394,-154.2268 237.9905,-148.1075 240.9356,-158.2847 246.6394,-154.2268"/>
</g>
<!-- Node10 -->
<g id="node11" class="node">
<title>Node10</title>
<g id="a_node11"><a xlink:href="dp__matrices_8h.html" target="_top" xlink:title="Functions to deal with standard dynamic programming (DP) matrices. ">
<polygon fill="none" stroke="#000000" points="15.2148,-129 15.2148,-148 148.2148,-148 148.2148,-129 15.2148,-129"/>
<text text-anchor="middle" x="81.7148" y="-136" font-family="Helvetica,sans-Serif" font-size="10.00" fill="#000000">ViennaRNA/dp_matrices.h</text>
</a>
</g>
</g>
<!-- Node3&#45;&gt;Node10 -->
<g id="edge30" class="edge">
<title>Node3&#45;&gt;Node10</title>
<path fill="none" stroke="#191970" d="M596.3428,-249.0753C590.3723,-247.968 584.4317,-246.9198 578.7148,-246 444.3873,-224.387 407.2171,-240.8897 274.7148,-210 213.1181,-195.6402 144.2429,-168.818 107.561,-152.42"/>
<polygon fill="#191970" stroke="#191970" points="108.6508,-149.0697 98.1013,-148.0904 105.7375,-155.4347 108.6508,-149.0697"/>
</g>
<!-- Node11 -->
<g id="node12" class="node">
<title>Node11</title>
<g id="a_node12"><a xlink:href="hard_8h.html" target="_top" xlink:title="Functions and data structures for handling of secondary structure hard constraints. ">
<polygon fill="none" stroke="#000000" points="808.2148,-123.5 808.2148,-153.5 927.2148,-153.5 927.2148,-123.5 808.2148,-123.5"/>
<text text-anchor="start" x="816.2148" y="-141.5" font-family="Helvetica,sans-Serif" font-size="10.00" fill="#000000">ViennaRNA/constraints</text>
<text text-anchor="middle" x="867.7148" y="-130.5" font-family="Helvetica,sans-Serif" font-size="10.00" fill="#000000">/hard.h</text>
</a>
</g>
</g>
<!-- Node3&#45;&gt;Node11 -->
<g id="edge31" class="edge">
<title>Node3&#45;&gt;Node11</title>
<path fill="none" stroke="#191970" d="M684.115,-246.4178C718.1063,-224.3185 786.2918,-183.1015 829.4102,-158.4981"/>
<polygon fill="#191970" stroke="#191970" points="831.2339,-161.4876 838.2093,-153.513 827.7834,-155.3971 831.2339,-161.4876"/>
</g>
<!-- Node13 -->
<g id="node14" class="node">
<title>Node13</title>
<g id="a_node14"><a xlink:href="soft_8h.html" target="_top" xlink:title="Functions and data structures for secondary structure soft constraints. ">
<polygon fill="none" stroke="#000000" points="945.2148,-123.5 945.2148,-153.5 1064.2148,-153.5 1064.2148,-123.5 945.2148,-123.5"/>
<text text-anchor="start" x="953.2148" y="-141.5" font-family="Helvetica,sans-Serif" font-size="10.00" fill="#000000">ViennaRNA/constraints</text>
<text text-anchor="middle" x="1004.7148" y="-130.5" font-family="Helvetica,sans-Serif" font-size="10.00" fill="#000000">/soft.h</text>
</a>
</g>
</g>
<!-- Node3&#45;&gt;Node13 -->
<g id="edge32" class="edge">
<title>Node3&#45;&gt;Node13</title>
<path fill="none" stroke="#191970" d="M700.9139,-246.4178C760.8684,-223.81 878.8943,-181.1944 948.9341,-156.8263"/>
<polygon fill="#191970" stroke="#191970" points="950.1865,-160.0966 958.4875,-153.513 947.8927,-153.4831 950.1865,-160.0966"/>
</g>
<!-- Node14 -->
<g id="node15" class="node">
<title>Node14</title>
<g id="a_node15"><a xlink:href="grammar_8h.html" target="_top" xlink:title="Implementations for the RNA folding grammar. ">
<polygon fill="none" stroke="#000000" points="360.7148,-129 360.7148,-148 478.7148,-148 478.7148,-129 360.7148,-129"/>
<text text-anchor="middle" x="419.7148" y="-136" font-family="Helvetica,sans-Serif" font-size="10.00" fill="#000000">ViennaRNA/grammar.h</text>
</a>
</g>
</g>
<!-- Node3&#45;&gt;Node14 -->
<g id="edge33" class="edge">
<title>Node3&#45;&gt;Node14</title>
<path fill="none" stroke="#191970" d="M604.8142,-246.4115C576.3786,-237.4275 542.4009,-224.8796 513.7148,-210 483.326,-194.2371 451.4031,-170.8579 433.3858,-155.1688"/>
<polygon fill="#191970" stroke="#191970" points="435.4637,-152.3257 425.7257,-148.1516 430.7353,-157.4873 435.4637,-152.3257"/>
</g>
<!-- Node15 -->
<g id="node16" class="node">
<title>Node15</title>
<g id="a_node16"><a xlink:href="structured__domains_8h.html" target="_top" xlink:title="This module provides interfaces that deal with additional structured domains in the folding grammar...">
<polygon fill="none" stroke="#000000" points="675.2148,-123.5 675.2148,-153.5 790.2148,-153.5 790.2148,-123.5 675.2148,-123.5"/>
<text text-anchor="start" x="683.2148" y="-141.5" font-family="Helvetica,sans-Serif" font-size="10.00" fill="#000000">ViennaRNA/structured</text>
<text text-anchor="middle" x="732.7148" y="-130.5" font-family="Helvetica,sans-Serif" font-size="10.00" fill="#000000">_domains.h</text>
</a>
</g>
</g>
<!-- Node3&#45;&gt;Node15 -->
<g id="edge34" class="edge">
<title>Node3&#45;&gt;Node15</title>
<path fill="none" stroke="#191970" d="M672.1756,-246.4178C683.9184,-225.485 705.2835,-187.3994 719.2359,-162.5276"/>
<polygon fill="#191970" stroke="#191970" points="722.3448,-164.1394 724.1849,-153.7056 716.2398,-160.7146 722.3448,-164.1394"/>
</g>
<!-- Node16 -->
<g id="node17" class="node">
<title>Node16</title>
<g id="a_node17"><a xlink:href="unstructured__domains_8h.html" target="_top" xlink:title="Functions to modify unstructured domains, e.g. to incorporate ligands binding to unpaired stretches...">
<polygon fill="none" stroke="#000000" points="1082.2148,-123.5 1082.2148,-153.5 1207.2148,-153.5 1207.2148,-123.5 1082.2148,-123.5"/>
<text text-anchor="start" x="1090.2148" y="-141.5" font-family="Helvetica,sans-Serif" font-size="10.00" fill="#000000">ViennaRNA/unstructured</text>
<text text-anchor="middle" x="1144.7148" y="-130.5" font-family="Helvetica,sans-Serif" font-size="10.00" fill="#000000">_domains.h</text>
</a>
</g>
</g>
<!-- Node3&#45;&gt;Node16 -->
<g id="edge35" class="edge">
<title>Node3&#45;&gt;Node16</title>
<path fill="none" stroke="#191970" d="M718.0806,-246.4178C805.0541,-223.4706 975.3176,-179.9103 1072.4317,-155.7413"/>
<polygon fill="#191970" stroke="#191970" points="1073.3111,-159.1293 1082.1722,-153.3214 1071.6233,-152.3358 1073.3111,-159.1293"/>
</g>
<!-- Node5 -->
<g id="node6" class="node">
<title>Node5</title>
<polygon fill="none" stroke="#bfbfbf" points="60.7148,-.5 60.7148,-19.5 108.7148,-19.5 108.7148,-.5 60.7148,-.5"/>
<text text-anchor="middle" x="84.7148" y="-7.5" font-family="Helvetica,sans-Serif" font-size="10.00" fill="#000000">limits.h</text>
</g>
<!-- Node4&#45;&gt;Node5 -->
<g id="edge5" class="edge">
<title>Node4&#45;&gt;Node5</title>
<path fill="none" stroke="#191970" d="M84.7148,-61.8906C84.7148,-53.3657 84.7148,-40.6392 84.7148,-29.9235"/>
<polygon fill="#191970" stroke="#191970" points="88.2149,-29.7448 84.7148,-19.7449 81.2149,-29.7449 88.2149,-29.7448"/>
</g>
<!-- Node6&#45;&gt;Node7 -->
<g id="edge7" class="edge">
<title>Node6&#45;&gt;Node7</title>
<path fill="none" stroke="#191970" d="M586.3341,-190.3675C569.9959,-181.5571 545.6764,-167.8268 525.7148,-154 507.7975,-141.5891 506.816,-133.498 487.7148,-123 455.3128,-105.1918 415.7078,-92.1641 384.6427,-83.6669"/>
<polygon fill="#191970" stroke="#191970" points="385.4406,-80.2575 374.8767,-81.067 383.6397,-87.0219 385.4406,-80.2575"/>
</g>
<!-- Node6&#45;&gt;Node8 -->
<g id="edge8" class="edge">
<title>Node6&#45;&gt;Node8</title>
<path fill="none" stroke="#191970" d="M547.4635,-190.4581C481.3804,-179.4443 372.8332,-161.3531 302.8351,-149.6867"/>
<polygon fill="#191970" stroke="#191970" points="303.2363,-146.2054 292.7969,-148.0137 302.0854,-153.1101 303.2363,-146.2054"/>
</g>
<!-- Node9 -->
<g id="node10" class="node">
<title>Node9</title>
<g id="a_node10"><a xlink:href="sequence_8h.html" target="_top" xlink:title="Functions and data structures related to sequence representations ,. ">
<polygon fill="none" stroke="#000000" points="534.7148,-129 534.7148,-148 656.7148,-148 656.7148,-129 534.7148,-129"/>
<text text-anchor="middle" x="595.7148" y="-136" font-family="Helvetica,sans-Serif" font-size="10.00" fill="#000000">ViennaRNA/sequence.h</text>
</a>
</g>
</g>
<!-- Node6&#45;&gt;Node9 -->
<g id="edge12" class="edge">
<title>Node6&#45;&gt;Node9</title>
<path fill="none" stroke="#191970" d="M603.3086,-190.3906C602.061,-181.8657 600.1986,-169.1392 598.6305,-158.4235"/>
<polygon fill="#191970" stroke="#191970" points="602.0521,-157.6326 597.1409,-148.2449 595.1259,-158.6463 602.0521,-157.6326"/>
</g>
<!-- Node6&#45;&gt;Node10 -->
<g id="edge13" class="edge">
<title>Node6&#45;&gt;Node10</title>
<path fill="none" stroke="#191970" d="M531.6554,-194.7069C442.9135,-187.7655 288.8122,-174.0639 157.7148,-154 150.218,-152.8526 142.3414,-151.4599 134.6149,-149.9853"/>
<polygon fill="#191970" stroke="#191970" points="135.0761,-146.5091 124.5887,-148.0134 133.7252,-153.3775 135.0761,-146.5091"/>
</g>
<!-- Node6&#45;&gt;Node11 -->
<g id="edge15" class="edge">
<title>Node6&#45;&gt;Node11</title>
<path fill="none" stroke="#191970" d="M645.52,-190.4581C686.1495,-180.9573 749.3003,-166.1901 797.9087,-154.8235"/>
<polygon fill="#191970" stroke="#191970" points="798.7956,-158.2106 807.7359,-152.5255 797.2016,-151.3945 798.7956,-158.2106"/>
</g>
<!-- Node6&#45;&gt;Node13 -->
<g id="edge19" class="edge">
<title>Node6&#45;&gt;Node13</title>
<path fill="none" stroke="#191970" d="M677.867,-191.7076C743.0252,-183.9001 841.1495,-171.1119 935.1124,-154.2117"/>
<polygon fill="#191970" stroke="#191970" points="935.8578,-157.6336 945.0709,-152.402 934.6062,-150.7464 935.8578,-157.6336"/>
</g>
<!-- Node6&#45;&gt;Node14 -->
<g id="edge22" class="edge">
<title>Node6&#45;&gt;Node14</title>
<path fill="none" stroke="#191970" d="M575.8086,-190.3906C544.1759,-179.8749 493.3119,-162.966 458.2919,-151.3243"/>
<polygon fill="#191970" stroke="#191970" points="459.0116,-147.8753 448.4181,-148.0419 456.8034,-154.5178 459.0116,-147.8753"/>
</g>
<!-- Node6&#45;&gt;Node15 -->
<g id="edge24" class="edge">
<title>Node6&#45;&gt;Node15</title>
<path fill="none" stroke="#191970" d="M624.7148,-190.3906C642.7599,-181.7205 669.85,-168.7046 692.3837,-157.8779"/>
<polygon fill="#191970" stroke="#191970" points="693.9047,-161.0302 701.4025,-153.5446 690.8731,-154.7206 693.9047,-161.0302"/>
</g>
<!-- Node6&#45;&gt;Node16 -->
<g id="edge25" class="edge">
<title>Node6&#45;&gt;Node16</title>
<path fill="none" stroke="#191970" d="M677.7619,-195.4975C768.2242,-189.3255 927.1684,-176.5356 1072.1029,-154.1511"/>
<polygon fill="#191970" stroke="#191970" points="1072.7309,-157.5955 1082.0702,-152.5929 1071.6496,-150.6795 1072.7309,-157.5955"/>
</g>
<!-- Node8&#45;&gt;Node3 -->
<g id="edge10" class="edge">
<title>Node8&#45;&gt;Node3</title>
<path fill="none" stroke="#191970" d="M248.9747,-148.1075C265.9376,-163.9948 295.2702,-195.4305 327.7148,-210 434.6346,-258.0132 475.4507,-227.7659 589.3696,-244.8607"/>
<polygon fill="#191970" stroke="#191970" points="589.0937,-248.3608 599.5201,-246.4791 590.196,-241.4481 589.0937,-248.3608"/>
</g>
<!-- Node8&#45;&gt;Node4 -->
<g id="edge9" class="edge">
<title>Node8&#45;&gt;Node4</title>
<path fill="none" stroke="#191970" d="M214.0802,-128.9005C188.2905,-117.4574 145.0042,-98.2509 115.6752,-85.2374"/>
<polygon fill="#191970" stroke="#191970" points="116.8695,-81.9383 106.3093,-81.0817 114.0304,-88.3367 116.8695,-81.9383"/>
</g>
<!-- Node8&#45;&gt;Node7 -->
<g id="edge11" class="edge">
<title>Node8&#45;&gt;Node7</title>
<path fill="none" stroke="#191970" d="M249.6126,-128.9005C265.5312,-117.9052 291.8269,-99.7422 310.5747,-86.7927"/>
<polygon fill="#191970" stroke="#191970" points="312.604,-89.6448 318.8429,-81.0817 308.6257,-83.8852 312.604,-89.6448"/>
</g>
<!-- Node10&#45;&gt;Node3 -->
<g id="edge14" class="edge">
<title>Node10&#45;&gt;Node3</title>
<path fill="none" stroke="#191970" d="M109.1974,-148.0904C149.2277,-163.6643 225.327,-194.2901 292.7148,-210 421.8527,-240.1054 460.4383,-225.1945 589.2676,-244.851"/>
<polygon fill="#191970" stroke="#191970" points="589.1019,-248.3678 599.5234,-246.4591 590.1863,-241.4522 589.1019,-248.3678"/>
</g>
<!-- Node11&#45;&gt;Node3 -->
<g id="edge16" class="edge">
<title>Node11&#45;&gt;Node3</title>
<path fill="none" stroke="#191970" d="M847.4211,-153.513C813.5014,-175.5723 745.3254,-216.7866 702.1548,-241.4247"/>
<polygon fill="#191970" stroke="#191970" points="700.3182,-238.4425 693.3435,-246.4178 703.7693,-244.5327 700.3182,-238.4425"/>
</g>
<!-- Node12 -->
<g id="node13" class="node">
<title>Node12</title>
<g id="a_node13"><a xlink:href="constraints_2basic_8h.html" target="_top" xlink:title="Functions and data structures for constraining secondary structure predictions and evaluation...">
<polygon fill="none" stroke="#000000" points="945.2148,-56.5 945.2148,-86.5 1064.2148,-86.5 1064.2148,-56.5 945.2148,-56.5"/>
<text text-anchor="start" x="953.2148" y="-74.5" font-family="Helvetica,sans-Serif" font-size="10.00" fill="#000000">ViennaRNA/constraints</text>
<text text-anchor="middle" x="1004.7148" y="-63.5" font-family="Helvetica,sans-Serif" font-size="10.00" fill="#000000">/basic.h</text>
</a>
</g>
</g>
<!-- Node11&#45;&gt;Node12 -->
<g id="edge17" class="edge">
<title>Node11&#45;&gt;Node12</title>
<path fill="none" stroke="#191970" d="M898.4603,-123.4639C917.9772,-113.9191 943.4405,-101.4663 964.5473,-91.144"/>
<polygon fill="#191970" stroke="#191970" points="966.1524,-94.2552 973.598,-86.7177 963.077,-87.9669 966.1524,-94.2552"/>
</g>
<!-- Node12&#45;&gt;Node3 -->
<g id="edge18" class="edge">
<title>Node12&#45;&gt;Node3</title>
<path fill="none" stroke="#191970" d="M1064.218,-74.7019C1141.4701,-81.0589 1261.4306,-99.7547 1216.7148,-154 1157.2748,-226.1075 878.4434,-250.4635 740.8727,-258.1787"/>
<polygon fill="#191970" stroke="#191970" points="740.6102,-254.6877 730.8156,-258.7271 740.9914,-261.6773 740.6102,-254.6877"/>
</g>
<!-- Node13&#45;&gt;Node3 -->
<g id="edge20" class="edge">
<title>Node13&#45;&gt;Node3</title>
<path fill="none" stroke="#191970" d="M967.6994,-153.513C907.8636,-176.0799 789.8481,-218.6936 719.7103,-243.0989"/>
<polygon fill="#191970" stroke="#191970" points="718.4431,-239.8338 710.1424,-246.4178 720.7372,-246.4473 718.4431,-239.8338"/>
</g>
<!-- Node13&#45;&gt;Node12 -->
<g id="edge21" class="edge">
<title>Node13&#45;&gt;Node12</title>
<path fill="none" stroke="#191970" d="M1004.7148,-123.2967C1004.7148,-115.5013 1004.7148,-105.7991 1004.7148,-96.9064"/>
<polygon fill="#191970" stroke="#191970" points="1008.2149,-96.6431 1004.7148,-86.6432 1001.2149,-96.6432 1008.2149,-96.6431"/>
</g>
<!-- Node14&#45;&gt;Node3 -->
<g id="edge23" class="edge">
<title>Node14&#45;&gt;Node3</title>
<path fill="none" stroke="#191970" d="M437.1506,-148.1516C458.9145,-163.0026 496.3532,-191.6577 531.7148,-210 557.0392,-223.1359 586.4878,-234.4546 611.199,-243.1082"/>
<polygon fill="#191970" stroke="#191970" points="610.1739,-246.4569 620.7686,-246.4115 612.458,-239.84 610.1739,-246.4569"/>
</g>
<!-- Node16&#45;&gt;Node1 -->
<g id="edge27" class="edge">
<title>Node16&#45;&gt;Node1</title>
<path fill="none" stroke="#191970" d="M1105.262,-153.6331C1013.0673,-188.9968 784.7552,-276.5718 697.9522,-309.8674"/>
<polygon fill="#191970" stroke="#191970" points="696.6458,-306.6197 688.5626,-313.469 699.1528,-313.1554 696.6458,-306.6197"/>
</g>
<!-- Node16&#45;&gt;Node3 -->
<g id="edge26" class="edge">
<title>Node16&#45;&gt;Node3</title>
<path fill="none" stroke="#191970" d="M1090.6114,-153.513C1004.0403,-176.3568 834.4723,-219.7424 737.0816,-243.989"/>
<polygon fill="#191970" stroke="#191970" points="736.1697,-240.6091 727.3091,-246.4178 737.8581,-247.4024 736.1697,-240.6091"/>
</g>
</g>
</svg>
        <g id="navigator" transform="translate(0 0)" fill="#404254">
                <rect fill="#f2f5e9" fill-opacity="0.5" stroke="#606060" stroke-width=".5" x="0" y="0" width="60" height="60"/>
                <use id="zoomplus" xlink:href="#zoomPlus" x="17" y="9" onmousedown="handleZoom(evt,'in')"/>
                <use id="zoomminus" xlink:href="#zoomMin" x="42" y="9" onmousedown="handleZoom(evt,'out')"/>
                <use id="reset" xlink:href="#resetDef" x="30" y="36" onmousedown="handleReset()"/>
                <g id="arrowUp" xlink:href="#dirArrow" transform="translate(30 24)" onmousedown="handlePan(0,-1)">
                  <use xlink:href="#rim" fill="#404040">
                        <set attributeName="fill" to="#808080" begin="arrowUp.mouseover" end="arrowUp.mouseout"/>
                  </use>
                  <path fill="none" stroke="white" stroke-width="1.5" d="M0,-3.0v7 M-2.5,-0.5L0,-3.0L2.5,-0.5"/>
                </g>
                <g id="arrowRight" xlink:href="#dirArrow" transform="rotate(90) translate(36 -43)" onmousedown="handlePan(1,0)">
                  <use xlink:href="#rim" fill="#404040">
                        <set attributeName="fill" to="#808080" begin="arrowRight.mouseover" end="arrowRight.mouseout"/>
                  </use>
                  <path fill="none" stroke="white" stroke-width="1.5" d="M0,-3.0v7 M-2.5,-0.5L0,-3.0L2.5,-0.5"/>
                </g>
                <g id="arrowDown" xlink:href="#dirArrow" transform="rotate(180) translate(-30 -48)" onmousedown="handlePan(0,1)">
                  <use xlink:href="#rim" fill="#404040">
                        <set attributeName="fill" to="#808080" begin="arrowDown.mouseover" end="arrowDown.mouseout"/>
                  </use>
                  <path fill="none" stroke="white" stroke-width="1.5" d="M0,-3.0v7 M-2.5,-0.5L0,-3.0L2.5,-0.5"/>
                </g>
                <g id="arrowLeft" xlink:href="#dirArrow" transform="rotate(270) translate(-36 17)" onmousedown="handlePan(-1,0)">
                  <use xlink:href="#rim" fill="#404040">
                        <set attributeName="fill" to="#808080" begin="arrowLeft.mouseover" end="arrowLeft.mouseout"/>
                  </use>
                  <path fill="none" stroke="white" stroke-width="1.5" d="M0,-3.0v7 M-2.5,-0.5L0,-3.0L2.5,-0.5"/>
                </g>
        </g>
        <svg viewBox="0 0 15 15" width="100%" height="30px" preserveAspectRatio="xMaxYMin meet">
         <g id="arrow_out" transform="scale(0.3 0.3)">
          <a xlink:href="structure__utils_8h__incl_org.svg" target="_base">
           <rect id="button" ry="5" rx="5" y="6" x="6" height="38" width="38"
                fill="#f2f5e9" fill-opacity="0.5" stroke="#606060" stroke-width="1.0"/>
           <path id="arrow"
             d="M 11.500037,31.436501 C 11.940474,20.09759 22.043105,11.32322 32.158766,21.979434 L 37.068811,17.246167 C 37.068811,17.246167 37.088388,32 37.088388,32 L 22.160133,31.978069 C 22.160133,31.978069 26.997745,27.140456 26.997745,27.140456 C 18.528582,18.264221 13.291696,25.230495 11.500037,31.436501 z"
             style="fill:#404040;"/>
          </a>
         </g>
        </svg>
</svg>
