<?xml version="1.0" encoding="UTF-8" standalone="no"?>
<!DOCTYPE svg PUBLIC "-//W3C//DTD SVG 1.1//EN"
 "http://www.w3.org/Graphics/SVG/1.1/DTD/svg11.dtd">
<!-- Generated by graphviz version 2.40.1 (20161225.0304)
 -->
<!-- Title: TwoDfold_vars Pages: 1 -->
<svg width="702pt" height="378pt"
 viewBox="0.00 0.00 702.00 378.00" xmlns="http://www.w3.org/2000/svg" xmlns:xlink="http://www.w3.org/1999/xlink">
<g id="graph0" class="graph" transform="scale(1 1) rotate(0) translate(4 374)">
<title>TwoDfold_vars</title>
<!-- Node3 -->
<g id="node1" class="node">
<title>Node3</title>
<polygon fill="#bfbfbf" stroke="#000000" points="611,-252.5 611,-271.5 694,-271.5 694,-252.5 611,-252.5"/>
<text text-anchor="middle" x="652.5" y="-259.5" font-family="Helvetica,sans-Serif" font-size="10.00" fill="#000000">TwoDfold_vars</text>
</g>
<!-- Node4 -->
<g id="node2" class="node">
<title>Node4</title>
<g id="a_node2"><a xlink:href="group__fold__compound.html#structvrna__fc__s" target="_top" xlink:title="The most basic data structure required by many functions throughout the RNAlib. ">
<polygon fill="none" stroke="#000000" points="458,-188.5 458,-207.5 517,-207.5 517,-188.5 458,-188.5"/>
<text text-anchor="middle" x="487.5" y="-195.5" font-family="Helvetica,sans-Serif" font-size="10.00" fill="#000000">vrna_fc_s</text>
</a>
</g>
</g>
<!-- Node4&#45;&gt;Node3 -->
<g id="edge1" class="edge">
<title>Node4&#45;&gt;Node3</title>
<path fill="none" stroke="#9a32cd" stroke-dasharray="5,2" d="M521.9342,-211.3563C553.6067,-223.6414 599.7927,-241.556 627.8988,-252.4577"/>
<polygon fill="#9a32cd" stroke="#9a32cd" points="522.7911,-207.9347 512.2022,-207.5814 520.2597,-214.4609 522.7911,-207.9347"/>
<text text-anchor="middle" x="564" y="-240" font-family="Helvetica,sans-Serif" font-size="10.00" fill="#000000"> compatibility</text>
</g>
<!-- Node5 -->
<g id="node3" class="node">
<title>Node5</title>
<g id="a_node3"><a xlink:href="group__soft__constraints.html#structvrna__sc__s" target="_top" xlink:title="The soft constraints data structure. ">
<polygon fill="none" stroke="#000000" points="253,-349.5 253,-368.5 315,-368.5 315,-349.5 253,-349.5"/>
<text text-anchor="middle" x="284" y="-356.5" font-family="Helvetica,sans-Serif" font-size="10.00" fill="#000000">vrna_sc_s</text>
</a>
</g>
</g>
<!-- Node5&#45;&gt;Node4 -->
<g id="edge2" class="edge">
<title>Node5&#45;&gt;Node4</title>
<path fill="none" stroke="#9a32cd" stroke-dasharray="5,2" d="M325.2683,-355.8809C359.7737,-351.2383 408.3012,-339.6939 440,-311 471.554,-282.4371 482.7966,-229.534 486.2053,-207.7557"/>
<polygon fill="#9a32cd" stroke="#9a32cd" points="324.5542,-352.4415 315.0441,-357.1115 325.3907,-359.3914 324.5542,-352.4415"/>
<text text-anchor="middle" x="406.5" y="-359" font-family="Helvetica,sans-Serif" font-size="10.00" fill="#000000"> sc</text>
<text text-anchor="middle" x="406.5" y="-348" font-family="Helvetica,sans-Serif" font-size="10.00" fill="#000000">scs</text>
</g>
<!-- Node6 -->
<g id="node4" class="node">
<title>Node6</title>
<g id="a_node4"><a xlink:href="structvrna__sc__bp__storage__t.html" target="_top" xlink:title="A base pair constraint. ">
<polygon fill="none" stroke="#000000" points="0,-349.5 0,-368.5 113,-368.5 113,-349.5 0,-349.5"/>
<text text-anchor="middle" x="56.5" y="-356.5" font-family="Helvetica,sans-Serif" font-size="10.00" fill="#000000">vrna_sc_bp_storage_t</text>
</a>
</g>
</g>
<!-- Node6&#45;&gt;Node5 -->
<g id="edge3" class="edge">
<title>Node6&#45;&gt;Node5</title>
<path fill="none" stroke="#9a32cd" stroke-dasharray="5,2" d="M123.1149,-359C165.9913,-359 219.7225,-359 252.9555,-359"/>
<polygon fill="#9a32cd" stroke="#9a32cd" points="123.0283,-355.5001 113.0283,-359 123.0282,-362.5001 123.0283,-355.5001"/>
<text text-anchor="middle" x="163" y="-362" font-family="Helvetica,sans-Serif" font-size="10.00" fill="#000000"> bp_storage</text>
</g>
<!-- Node7 -->
<g id="node5" class="node">
<title>Node7</title>
<g id="a_node5"><a xlink:href="group__energy__parameters.html#structvrna__exp__param__s" target="_top" xlink:title="The data structure that contains temperature scaled Boltzmann weights of the energy parameters...">
<polygon fill="none" stroke="#000000" points="234.5,-190.5 234.5,-209.5 333.5,-209.5 333.5,-190.5 234.5,-190.5"/>
<text text-anchor="middle" x="284" y="-197.5" font-family="Helvetica,sans-Serif" font-size="10.00" fill="#000000">vrna_exp_param_s</text>
</a>
</g>
</g>
<!-- Node7&#45;&gt;Node4 -->
<g id="edge4" class="edge">
<title>Node7&#45;&gt;Node4</title>
<path fill="none" stroke="#9a32cd" stroke-dasharray="5,2" d="M343.9095,-199.3064C353.6337,-199.1997 363.5963,-199.0939 373,-199 401.8234,-198.7122 434.7288,-198.4296 457.8449,-198.2387"/>
<polygon fill="#9a32cd" stroke="#9a32cd" points="343.856,-195.8066 333.8955,-199.4174 343.9337,-202.8062 343.856,-195.8066"/>
<text text-anchor="middle" x="406.5" y="-202" font-family="Helvetica,sans-Serif" font-size="10.00" fill="#000000"> exp_params</text>
</g>
<!-- Node8 -->
<g id="node6" class="node">
<title>Node8</title>
<g id="a_node6"><a xlink:href="group__model__details.html#structvrna__md__s" target="_top" xlink:title="The data structure that contains the complete model details used throughout the calculations. ">
<polygon fill="none" stroke="#000000" points="24,-237.5 24,-256.5 89,-256.5 89,-237.5 24,-237.5"/>
<text text-anchor="middle" x="56.5" y="-244.5" font-family="Helvetica,sans-Serif" font-size="10.00" fill="#000000">vrna_md_s</text>
</a>
</g>
</g>
<!-- Node8&#45;&gt;Node7 -->
<g id="edge5" class="edge">
<title>Node8&#45;&gt;Node7</title>
<path fill="none" stroke="#9a32cd" stroke-dasharray="5,2" d="M98.9368,-238.2328C138.3861,-230.0829 197.015,-217.9705 237.6685,-209.5718"/>
<polygon fill="#9a32cd" stroke="#9a32cd" points="98.1802,-234.8151 89.0952,-240.266 99.5965,-241.6704 98.1802,-234.8151"/>
<text text-anchor="middle" x="163" y="-233" font-family="Helvetica,sans-Serif" font-size="10.00" fill="#000000"> model_details</text>
</g>
<!-- Node9 -->
<g id="node7" class="node">
<title>Node9</title>
<g id="a_node7"><a xlink:href="group__energy__parameters.html#structvrna__param__s" target="_top" xlink:title="The datastructure that contains temperature scaled energy parameters. ">
<polygon fill="none" stroke="#000000" points="245,-304.5 245,-323.5 323,-323.5 323,-304.5 245,-304.5"/>
<text text-anchor="middle" x="284" y="-311.5" font-family="Helvetica,sans-Serif" font-size="10.00" fill="#000000">vrna_param_s</text>
</a>
</g>
</g>
<!-- Node8&#45;&gt;Node9 -->
<g id="edge7" class="edge">
<title>Node8&#45;&gt;Node9</title>
<path fill="none" stroke="#9a32cd" stroke-dasharray="5,2" d="M96.1463,-259.5931C127.7126,-269.5149 173.0693,-283.5376 213,-295 224.161,-298.2038 236.3586,-301.5307 247.4456,-304.4884"/>
<polygon fill="#9a32cd" stroke="#9a32cd" points="96.996,-256.1913 86.4064,-256.5243 94.8923,-262.8678 96.996,-256.1913"/>
<text text-anchor="middle" x="163" y="-291" font-family="Helvetica,sans-Serif" font-size="10.00" fill="#000000"> model_details</text>
</g>
<!-- Node9&#45;&gt;Node3 -->
<g id="edge16" class="edge">
<title>Node9&#45;&gt;Node3</title>
<path fill="none" stroke="#9a32cd" stroke-dasharray="5,2" d="M333.3181,-315.6557C364.1036,-316.0457 404.4943,-315.3868 440,-311 505.0043,-302.9687 579.1958,-283.4149 620.4712,-271.5797"/>
<polygon fill="#9a32cd" stroke="#9a32cd" points="333.3243,-312.1554 323.267,-315.4871 333.2069,-319.1544 333.3243,-312.1554"/>
<text text-anchor="middle" x="487.5" y="-311" font-family="Helvetica,sans-Serif" font-size="10.00" fill="#000000"> P</text>
</g>
<!-- Node9&#45;&gt;Node4 -->
<g id="edge6" class="edge">
<title>Node9&#45;&gt;Node4</title>
<path fill="none" stroke="#9a32cd" stroke-dasharray="5,2" d="M333.3279,-305.8483C372.3874,-298.6392 423.0906,-287.3682 440,-275 463.834,-257.5669 478.2789,-224.212 484.2711,-207.7223"/>
<polygon fill="#9a32cd" stroke="#9a32cd" points="332.3875,-302.4614 323.168,-307.6815 333.6306,-309.3501 332.3875,-302.4614"/>
<text text-anchor="middle" x="406.5" y="-299" font-family="Helvetica,sans-Serif" font-size="10.00" fill="#000000"> params</text>
</g>
<!-- Node10 -->
<g id="node8" class="node">
<title>Node10</title>
<g id="a_node8"><a xlink:href="group__hard__constraints.html#structvrna__hc__s" target="_top" xlink:title="The hard constraints data structure. ">
<polygon fill="none" stroke="#000000" points="253,-114.5 253,-133.5 315,-133.5 315,-114.5 253,-114.5"/>
<text text-anchor="middle" x="284" y="-121.5" font-family="Helvetica,sans-Serif" font-size="10.00" fill="#000000">vrna_hc_s</text>
</a>
</g>
</g>
<!-- Node10&#45;&gt;Node4 -->
<g id="edge8" class="edge">
<title>Node10&#45;&gt;Node4</title>
<path fill="none" stroke="#9a32cd" stroke-dasharray="5,2" d="M325.2315,-126.6137C357.8314,-130.0255 403.7318,-137.8875 440,-156 455.9539,-163.9675 470.7376,-178.6701 479.4434,-188.3931"/>
<polygon fill="#9a32cd" stroke="#9a32cd" points="325.4299,-123.1169 315.1436,-125.655 324.7676,-130.0855 325.4299,-123.1169"/>
<text text-anchor="middle" x="406.5" y="-159" font-family="Helvetica,sans-Serif" font-size="10.00" fill="#000000"> hc</text>
</g>
<!-- Node11 -->
<g id="node9" class="node">
<title>Node11</title>
<g id="a_node9"><a xlink:href="structvrna__hc__bp__storage__t.html" target="_top" xlink:title="A base pair hard constraint. ">
<polygon fill="none" stroke="#000000" points="0,-114.5 0,-133.5 113,-133.5 113,-114.5 0,-114.5"/>
<text text-anchor="middle" x="56.5" y="-121.5" font-family="Helvetica,sans-Serif" font-size="10.00" fill="#000000">vrna_hc_bp_storage_t</text>
</a>
</g>
</g>
<!-- Node11&#45;&gt;Node10 -->
<g id="edge9" class="edge">
<title>Node11&#45;&gt;Node10</title>
<path fill="none" stroke="#9a32cd" stroke-dasharray="5,2" d="M123.1149,-124C165.9913,-124 219.7225,-124 252.9555,-124"/>
<polygon fill="#9a32cd" stroke="#9a32cd" points="123.0283,-120.5001 113.0283,-124 123.0282,-127.5001 123.0283,-120.5001"/>
<text text-anchor="middle" x="163" y="-127" font-family="Helvetica,sans-Serif" font-size="10.00" fill="#000000"> bp_storage</text>
</g>
<!-- Node12 -->
<g id="node10" class="node">
<title>Node12</title>
<g id="a_node10"><a xlink:href="group__alphabet__utils.html#structvrna__sequence__s" target="_top" xlink:title="Data structure representing a nucleotide sequence. ">
<polygon fill="none" stroke="#000000" points="237.5,-76.5 237.5,-95.5 330.5,-95.5 330.5,-76.5 237.5,-76.5"/>
<text text-anchor="middle" x="284" y="-83.5" font-family="Helvetica,sans-Serif" font-size="10.00" fill="#000000">vrna_sequence_s</text>
</a>
</g>
</g>
<!-- Node12&#45;&gt;Node4 -->
<g id="edge10" class="edge">
<title>Node12&#45;&gt;Node4</title>
<path fill="none" stroke="#9a32cd" stroke-dasharray="5,2" d="M340.5673,-87.5809C372.3006,-90.9501 411.1786,-99.459 440,-120 464.4026,-137.3918 478.6636,-171.6181 484.4568,-188.3422"/>
<polygon fill="#9a32cd" stroke="#9a32cd" points="340.8155,-84.0891 330.5371,-86.6589 340.1747,-91.0597 340.8155,-84.0891"/>
<text text-anchor="middle" x="406.5" y="-123" font-family="Helvetica,sans-Serif" font-size="10.00" fill="#000000"> nucleotides</text>
</g>
<!-- Node13 -->
<g id="node11" class="node">
<title>Node13</title>
<g id="a_node11"><a xlink:href="group__domains__up.html#structvrna__unstructured__domain__s" target="_top" xlink:title="Data structure to store all functionality for ligand binding. ">
<polygon fill="none" stroke="#000000" points="213,-38.5 213,-57.5 355,-57.5 355,-38.5 213,-38.5"/>
<text text-anchor="middle" x="284" y="-45.5" font-family="Helvetica,sans-Serif" font-size="10.00" fill="#000000">vrna_unstructured_domain_s</text>
</a>
</g>
</g>
<!-- Node13&#45;&gt;Node4 -->
<g id="edge11" class="edge">
<title>Node13&#45;&gt;Node4</title>
<path fill="none" stroke="#9a32cd" stroke-dasharray="5,2" d="M365.1548,-49.082C391.4634,-53.1056 419.1953,-61.7032 440,-79 474.5526,-107.7266 484.1513,-165.2108 486.6634,-188.1837"/>
<polygon fill="#9a32cd" stroke="#9a32cd" points="365.5325,-45.6015 355.1589,-47.7552 364.6114,-52.5406 365.5325,-45.6015"/>
<text text-anchor="middle" x="406.5" y="-82" font-family="Helvetica,sans-Serif" font-size="10.00" fill="#000000"> domains_up</text>
</g>
<!-- Node14 -->
<g id="node12" class="node">
<title>Node14</title>
<g id="a_node12"><a xlink:href="group__dp__matrices.html#structvrna__mx__mfe__s" target="_top" xlink:title="Minimum Free Energy (MFE) Dynamic Programming (DP) matrices data structure required within the vrna_f...">
<polygon fill="none" stroke="#000000" points="241,-.5 241,-19.5 327,-19.5 327,-.5 241,-.5"/>
<text text-anchor="middle" x="284" y="-7.5" font-family="Helvetica,sans-Serif" font-size="10.00" fill="#000000">vrna_mx_mfe_s</text>
</a>
</g>
</g>
<!-- Node14&#45;&gt;Node4 -->
<g id="edge12" class="edge">
<title>Node14&#45;&gt;Node4</title>
<path fill="none" stroke="#9a32cd" stroke-dasharray="5,2" d="M337.3324,-5.4547C370.6605,-5.5609 412.3511,-11.4864 440,-36 463.5755,-56.9022 481.0551,-156.9599 486.0493,-188.4735"/>
<polygon fill="#9a32cd" stroke="#9a32cd" points="337.2329,-1.9556 327.2825,-5.5944 337.3302,-8.9549 337.2329,-1.9556"/>
<text text-anchor="middle" x="406.5" y="-39" font-family="Helvetica,sans-Serif" font-size="10.00" fill="#000000"> matrices</text>
</g>
<!-- Node15 -->
<g id="node13" class="node">
<title>Node15</title>
<g id="a_node13"><a xlink:href="group__grammar.html#structvrna__gr__aux__s" target="_top" xlink:title="vrna_gr_aux_s">
<polygon fill="none" stroke="#000000" points="244,-266.5 244,-285.5 324,-285.5 324,-266.5 244,-266.5"/>
<text text-anchor="middle" x="284" y="-273.5" font-family="Helvetica,sans-Serif" font-size="10.00" fill="#000000">vrna_gr_aux_s</text>
</a>
</g>
</g>
<!-- Node15&#45;&gt;Node4 -->
<g id="edge13" class="edge">
<title>Node15&#45;&gt;Node4</title>
<path fill="none" stroke="#9a32cd" stroke-dasharray="5,2" d="M334.0734,-269.2699C365.6866,-263.6457 406.6968,-253.7585 440,-237 454.8688,-229.5179 469.2548,-216.6724 478.2251,-207.7786"/>
<polygon fill="#9a32cd" stroke="#9a32cd" points="333.436,-265.8279 324.1613,-270.9495 334.6055,-272.7296 333.436,-265.8279"/>
<text text-anchor="middle" x="406.5" y="-263" font-family="Helvetica,sans-Serif" font-size="10.00" fill="#000000"> aux_grammar</text>
</g>
<!-- Node16 -->
<g id="node14" class="node">
<title>Node16</title>
<g id="a_node14"><a xlink:href="group__dp__matrices.html#structvrna__mx__pf__s" target="_top" xlink:title="Partition function (PF) Dynamic Programming (DP) matrices data structure required within the vrna_fol...">
<polygon fill="none" stroke="#000000" points="245,-228.5 245,-247.5 323,-247.5 323,-228.5 245,-228.5"/>
<text text-anchor="middle" x="284" y="-235.5" font-family="Helvetica,sans-Serif" font-size="10.00" fill="#000000">vrna_mx_pf_s</text>
</a>
</g>
</g>
<!-- Node16&#45;&gt;Node4 -->
<g id="edge14" class="edge">
<title>Node16&#45;&gt;Node4</title>
<path fill="none" stroke="#9a32cd" stroke-dasharray="5,2" d="M333.3059,-230.0567C364.0868,-224.8738 404.477,-217.6653 440,-210 445.82,-208.7441 452.0086,-207.2779 457.9292,-205.8101"/>
<polygon fill="#9a32cd" stroke="#9a32cd" points="332.5436,-226.6355 323.2565,-231.7345 333.6964,-233.5399 332.5436,-226.6355"/>
<text text-anchor="middle" x="406.5" y="-225" font-family="Helvetica,sans-Serif" font-size="10.00" fill="#000000"> exp_matrices</text>
</g>
<!-- Node17 -->
<g id="node15" class="node">
<title>Node17</title>
<g id="a_node15"><a xlink:href="structvrna__structured__domains__s.html" target="_top" xlink:title="vrna_structured_domains_s">
<polygon fill="none" stroke="#000000" points="215.5,-152.5 215.5,-171.5 352.5,-171.5 352.5,-152.5 215.5,-152.5"/>
<text text-anchor="middle" x="284" y="-159.5" font-family="Helvetica,sans-Serif" font-size="10.00" fill="#000000">vrna_structured_domains_s</text>
</a>
</g>
</g>
<!-- Node17&#45;&gt;Node4 -->
<g id="edge15" class="edge">
<title>Node17&#45;&gt;Node4</title>
<path fill="none" stroke="#9a32cd" stroke-dasharray="5,2" d="M362.8974,-169.9415C387.7305,-173.1556 415.1533,-177.4478 440,-183 446.583,-184.471 453.5642,-186.4382 460.0897,-188.4625"/>
<polygon fill="#9a32cd" stroke="#9a32cd" points="363.152,-166.4461 352.7941,-168.6739 362.2806,-173.3916 363.152,-166.4461"/>
<text text-anchor="middle" x="406.5" y="-186" font-family="Helvetica,sans-Serif" font-size="10.00" fill="#000000"> domains_struc</text>
</g>
</g>
</svg>
