<?xml version="1.0" encoding="UTF-8" standalone="no"?>
<!DOCTYPE svg PUBLIC "-//W3C//DTD SVG 1.1//EN"
 "http://www.w3.org/Graphics/SVG/1.1/DTD/svg11.dtd">
<!-- Generated by graphviz version 2.40.1 (20161225.0304)
 -->
<!-- Title: vrna_fc_s Pages: 1 -->
<svg width="525pt" height="381pt"
 viewBox="0.00 0.00 525.00 381.00" xmlns="http://www.w3.org/2000/svg" xmlns:xlink="http://www.w3.org/1999/xlink">
<g id="graph0" class="graph" transform="scale(1 1) rotate(0) translate(4 377)">
<title>vrna_fc_s</title>
<!-- Node1 -->
<g id="node1" class="node">
<title>Node1</title>
<polygon fill="#bfbfbf" stroke="#000000" points="458,-171.5 458,-190.5 517,-190.5 517,-171.5 458,-171.5"/>
<text text-anchor="middle" x="487.5" y="-178.5" font-family="Helvetica,sans-Serif" font-size="10.00" fill="#000000">vrna_fc_s</text>
</g>
<!-- Node2 -->
<g id="node2" class="node">
<title>Node2</title>
<g id="a_node2"><a xlink:href="group__soft__constraints.html#structvrna__sc__s" target="_top" xlink:title="The soft constraints data structure. ">
<polygon fill="none" stroke="#000000" points="253,-342.5 253,-361.5 315,-361.5 315,-342.5 253,-342.5"/>
<text text-anchor="middle" x="284" y="-349.5" font-family="Helvetica,sans-Serif" font-size="10.00" fill="#000000">vrna_sc_s</text>
</a>
</g>
</g>
<!-- Node2&#45;&gt;Node1 -->
<g id="edge1" class="edge">
<title>Node2&#45;&gt;Node1</title>
<path fill="none" stroke="#9a32cd" stroke-dasharray="5,2" d="M325.4387,-355.1445C360.0503,-355.4761 408.6379,-350.2797 440,-323 460.7906,-304.9157 479.7218,-219.4012 485.6153,-190.5398"/>
<polygon fill="#9a32cd" stroke="#9a32cd" points="325.2665,-351.639 315.1804,-354.8824 325.0877,-358.6368 325.2665,-351.639"/>
<text text-anchor="middle" x="406.5" y="-365" font-family="Helvetica,sans-Serif" font-size="10.00" fill="#000000"> sc</text>
<text text-anchor="middle" x="406.5" y="-354" font-family="Helvetica,sans-Serif" font-size="10.00" fill="#000000">scs</text>
</g>
<!-- Node3 -->
<g id="node3" class="node">
<title>Node3</title>
<g id="a_node3"><a xlink:href="structvrna__sc__bp__storage__t.html" target="_top" xlink:title="A base pair constraint. ">
<polygon fill="none" stroke="#000000" points="0,-342.5 0,-361.5 113,-361.5 113,-342.5 0,-342.5"/>
<text text-anchor="middle" x="56.5" y="-349.5" font-family="Helvetica,sans-Serif" font-size="10.00" fill="#000000">vrna_sc_bp_storage_t</text>
</a>
</g>
</g>
<!-- Node3&#45;&gt;Node2 -->
<g id="edge2" class="edge">
<title>Node3&#45;&gt;Node2</title>
<path fill="none" stroke="#9a32cd" stroke-dasharray="5,2" d="M123.1149,-352C165.9913,-352 219.7225,-352 252.9555,-352"/>
<polygon fill="#9a32cd" stroke="#9a32cd" points="123.0283,-348.5001 113.0283,-352 123.0282,-355.5001 123.0283,-348.5001"/>
<text text-anchor="middle" x="163" y="-355" font-family="Helvetica,sans-Serif" font-size="10.00" fill="#000000"> bp_storage</text>
</g>
<!-- Node4 -->
<g id="node4" class="node">
<title>Node4</title>
<g id="a_node4"><a xlink:href="group__energy__parameters.html#structvrna__exp__param__s" target="_top" xlink:title="The data structure that contains temperature scaled Boltzmann weights of the energy parameters...">
<polygon fill="none" stroke="#000000" points="234.5,-304.5 234.5,-323.5 333.5,-323.5 333.5,-304.5 234.5,-304.5"/>
<text text-anchor="middle" x="284" y="-311.5" font-family="Helvetica,sans-Serif" font-size="10.00" fill="#000000">vrna_exp_param_s</text>
</a>
</g>
</g>
<!-- Node4&#45;&gt;Node1 -->
<g id="edge3" class="edge">
<title>Node4&#45;&gt;Node1</title>
<path fill="none" stroke="#9a32cd" stroke-dasharray="5,2" d="M343.7519,-313.2475C375.2783,-310.0338 412.9239,-301.4078 440,-280 469.4593,-256.7078 481.7074,-210.6381 485.7882,-190.64"/>
<polygon fill="#9a32cd" stroke="#9a32cd" points="343.4144,-309.7635 333.7522,-314.11 344.016,-316.7376 343.4144,-309.7635"/>
<text text-anchor="middle" x="406.5" y="-311" font-family="Helvetica,sans-Serif" font-size="10.00" fill="#000000"> exp_params</text>
</g>
<!-- Node5 -->
<g id="node5" class="node">
<title>Node5</title>
<g id="a_node5"><a xlink:href="group__model__details.html#structvrna__md__s" target="_top" xlink:title="The data structure that contains the complete model details used throughout the calculations. ">
<polygon fill="none" stroke="#000000" points="24,-287.5 24,-306.5 89,-306.5 89,-287.5 24,-287.5"/>
<text text-anchor="middle" x="56.5" y="-294.5" font-family="Helvetica,sans-Serif" font-size="10.00" fill="#000000">vrna_md_s</text>
</a>
</g>
</g>
<!-- Node5&#45;&gt;Node4 -->
<g id="edge4" class="edge">
<title>Node5&#45;&gt;Node4</title>
<path fill="none" stroke="#9a32cd" stroke-dasharray="5,2" d="M99.4125,-300.2066C137.7698,-303.0729 193.9796,-307.2732 234.2829,-310.2849"/>
<polygon fill="#9a32cd" stroke="#9a32cd" points="99.3282,-296.6907 89.0952,-299.4357 98.8066,-303.6712 99.3282,-296.6907"/>
<text text-anchor="middle" x="163" y="-310" font-family="Helvetica,sans-Serif" font-size="10.00" fill="#000000"> model_details</text>
</g>
<!-- Node6 -->
<g id="node6" class="node">
<title>Node6</title>
<g id="a_node6"><a xlink:href="group__energy__parameters.html#structvrna__param__s" target="_top" xlink:title="The datastructure that contains temperature scaled energy parameters. ">
<polygon fill="none" stroke="#000000" points="245,-266.5 245,-285.5 323,-285.5 323,-266.5 245,-266.5"/>
<text text-anchor="middle" x="284" y="-273.5" font-family="Helvetica,sans-Serif" font-size="10.00" fill="#000000">vrna_param_s</text>
</a>
</g>
</g>
<!-- Node5&#45;&gt;Node6 -->
<g id="edge6" class="edge">
<title>Node5&#45;&gt;Node6</title>
<path fill="none" stroke="#9a32cd" stroke-dasharray="5,2" d="M99.1912,-290.8095C109.5847,-289.4296 120.6798,-288.0626 131,-287 169.6769,-283.0177 214.0022,-279.9999 244.9532,-278.1417"/>
<polygon fill="#9a32cd" stroke="#9a32cd" points="98.5238,-287.3679 89.0863,-292.1829 99.4666,-294.3042 98.5238,-287.3679"/>
<text text-anchor="middle" x="163" y="-290" font-family="Helvetica,sans-Serif" font-size="10.00" fill="#000000"> model_details</text>
</g>
<!-- Node6&#45;&gt;Node1 -->
<g id="edge5" class="edge">
<title>Node6&#45;&gt;Node1</title>
<path fill="none" stroke="#9a32cd" stroke-dasharray="5,2" d="M333.4025,-272.9408C365.7878,-269.0144 407.9104,-260.1132 440,-240 459.8333,-227.5688 475.0503,-203.9006 482.4819,-190.6319"/>
<polygon fill="#9a32cd" stroke="#9a32cd" points="332.816,-269.484 323.255,-274.0488 333.5758,-276.4426 332.816,-269.484"/>
<text text-anchor="middle" x="406.5" y="-268" font-family="Helvetica,sans-Serif" font-size="10.00" fill="#000000"> params</text>
</g>
<!-- Node7 -->
<g id="node7" class="node">
<title>Node7</title>
<g id="a_node7"><a xlink:href="group__hard__constraints.html#structvrna__hc__s" target="_top" xlink:title="The hard constraints data structure. ">
<polygon fill="none" stroke="#000000" points="253,-228.5 253,-247.5 315,-247.5 315,-228.5 253,-228.5"/>
<text text-anchor="middle" x="284" y="-235.5" font-family="Helvetica,sans-Serif" font-size="10.00" fill="#000000">vrna_hc_s</text>
</a>
</g>
</g>
<!-- Node7&#45;&gt;Node1 -->
<g id="edge7" class="edge">
<title>Node7&#45;&gt;Node1</title>
<path fill="none" stroke="#9a32cd" stroke-dasharray="5,2" d="M325.5604,-233.2485C357.5372,-228.7624 402.4593,-220.6393 440,-207 451.4868,-202.8266 463.5563,-196.1871 472.6546,-190.6624"/>
<polygon fill="#9a32cd" stroke="#9a32cd" points="324.6874,-229.8342 315.2418,-234.6331 325.6185,-236.772 324.6874,-229.8342"/>
<text text-anchor="middle" x="406.5" y="-228" font-family="Helvetica,sans-Serif" font-size="10.00" fill="#000000"> hc</text>
</g>
<!-- Node8 -->
<g id="node8" class="node">
<title>Node8</title>
<g id="a_node8"><a xlink:href="structvrna__hc__bp__storage__t.html" target="_top" xlink:title="A base pair hard constraint. ">
<polygon fill="none" stroke="#000000" points="0,-228.5 0,-247.5 113,-247.5 113,-228.5 0,-228.5"/>
<text text-anchor="middle" x="56.5" y="-235.5" font-family="Helvetica,sans-Serif" font-size="10.00" fill="#000000">vrna_hc_bp_storage_t</text>
</a>
</g>
</g>
<!-- Node8&#45;&gt;Node7 -->
<g id="edge8" class="edge">
<title>Node8&#45;&gt;Node7</title>
<path fill="none" stroke="#9a32cd" stroke-dasharray="5,2" d="M123.1149,-238C165.9913,-238 219.7225,-238 252.9555,-238"/>
<polygon fill="#9a32cd" stroke="#9a32cd" points="123.0283,-234.5001 113.0283,-238 123.0282,-241.5001 123.0283,-234.5001"/>
<text text-anchor="middle" x="163" y="-241" font-family="Helvetica,sans-Serif" font-size="10.00" fill="#000000"> bp_storage</text>
</g>
<!-- Node9 -->
<g id="node9" class="node">
<title>Node9</title>
<g id="a_node9"><a xlink:href="group__alphabet__utils.html#structvrna__sequence__s" target="_top" xlink:title="Data structure representing a nucleotide sequence. ">
<polygon fill="none" stroke="#000000" points="237.5,-190.5 237.5,-209.5 330.5,-209.5 330.5,-190.5 237.5,-190.5"/>
<text text-anchor="middle" x="284" y="-197.5" font-family="Helvetica,sans-Serif" font-size="10.00" fill="#000000">vrna_sequence_s</text>
</a>
</g>
</g>
<!-- Node9&#45;&gt;Node1 -->
<g id="edge9" class="edge">
<title>Node9&#45;&gt;Node1</title>
<path fill="none" stroke="#9a32cd" stroke-dasharray="5,2" d="M341.0814,-194.6705C378.987,-191.1314 427.2117,-186.6289 457.7298,-183.7795"/>
<polygon fill="#9a32cd" stroke="#9a32cd" points="340.3183,-191.2265 330.687,-195.641 340.9691,-198.1962 340.3183,-191.2265"/>
<text text-anchor="middle" x="406.5" y="-195" font-family="Helvetica,sans-Serif" font-size="10.00" fill="#000000"> nucleotides</text>
</g>
<!-- Node10 -->
<g id="node10" class="node">
<title>Node10</title>
<g id="a_node10"><a xlink:href="group__domains__up.html#structvrna__unstructured__domain__s" target="_top" xlink:title="Data structure to store all functionality for ligand binding. ">
<polygon fill="none" stroke="#000000" points="213,-152.5 213,-171.5 355,-171.5 355,-152.5 213,-152.5"/>
<text text-anchor="middle" x="284" y="-159.5" font-family="Helvetica,sans-Serif" font-size="10.00" fill="#000000">vrna_unstructured_domain_s</text>
</a>
</g>
</g>
<!-- Node10&#45;&gt;Node1 -->
<g id="edge10" class="edge">
<title>Node10&#45;&gt;Node1</title>
<path fill="none" stroke="#9a32cd" stroke-dasharray="5,2" d="M365.4377,-164.3882C389.5167,-165.7169 415.8827,-167.7841 440,-171 445.8474,-171.7797 452.0484,-172.8807 457.9726,-174.069"/>
<polygon fill="#9a32cd" stroke="#9a32cd" points="365.4387,-160.8837 355.2714,-163.8628 365.0774,-167.8743 365.4387,-160.8837"/>
<text text-anchor="middle" x="406.5" y="-174" font-family="Helvetica,sans-Serif" font-size="10.00" fill="#000000"> domains_up</text>
</g>
<!-- Node11 -->
<g id="node11" class="node">
<title>Node11</title>
<g id="a_node11"><a xlink:href="group__dp__matrices.html#structvrna__mx__mfe__s" target="_top" xlink:title="Minimum Free Energy (MFE) Dynamic Programming (DP) matrices data structure required within the vrna_f...">
<polygon fill="none" stroke="#000000" points="241,-114.5 241,-133.5 327,-133.5 327,-114.5 241,-114.5"/>
<text text-anchor="middle" x="284" y="-121.5" font-family="Helvetica,sans-Serif" font-size="10.00" fill="#000000">vrna_mx_mfe_s</text>
</a>
</g>
</g>
<!-- Node11&#45;&gt;Node1 -->
<g id="edge11" class="edge">
<title>Node11&#45;&gt;Node1</title>
<path fill="none" stroke="#9a32cd" stroke-dasharray="5,2" d="M337.3541,-128.0212C368.1485,-131.6118 407.1582,-138.362 440,-151 452.926,-155.9741 466.127,-164.6604 475.3208,-171.4103"/>
<polygon fill="#9a32cd" stroke="#9a32cd" points="337.5667,-124.5237 327.2466,-126.9207 336.8089,-131.4826 337.5667,-124.5237"/>
<text text-anchor="middle" x="406.5" y="-154" font-family="Helvetica,sans-Serif" font-size="10.00" fill="#000000"> matrices</text>
</g>
<!-- Node12 -->
<g id="node12" class="node">
<title>Node12</title>
<g id="a_node12"><a xlink:href="group__grammar.html#structvrna__gr__aux__s" target="_top" xlink:title="vrna_gr_aux_s">
<polygon fill="none" stroke="#000000" points="244,-76.5 244,-95.5 324,-95.5 324,-76.5 244,-76.5"/>
<text text-anchor="middle" x="284" y="-83.5" font-family="Helvetica,sans-Serif" font-size="10.00" fill="#000000">vrna_gr_aux_s</text>
</a>
</g>
</g>
<!-- Node12&#45;&gt;Node1 -->
<g id="edge12" class="edge">
<title>Node12&#45;&gt;Node1</title>
<path fill="none" stroke="#9a32cd" stroke-dasharray="5,2" d="M334.1714,-87.76C366.5209,-90.9328 408.3093,-99.0095 440,-119 460.6436,-132.0219 475.7404,-157.3836 482.8847,-171.2945"/>
<polygon fill="#9a32cd" stroke="#9a32cd" points="334.2863,-84.2571 324.0247,-86.8932 333.6905,-91.2317 334.2863,-84.2571"/>
<text text-anchor="middle" x="406.5" y="-122" font-family="Helvetica,sans-Serif" font-size="10.00" fill="#000000"> aux_grammar</text>
</g>
<!-- Node13 -->
<g id="node13" class="node">
<title>Node13</title>
<g id="a_node13"><a xlink:href="group__dp__matrices.html#structvrna__mx__pf__s" target="_top" xlink:title="Partition function (PF) Dynamic Programming (DP) matrices data structure required within the vrna_fol...">
<polygon fill="none" stroke="#000000" points="245,-38.5 245,-57.5 323,-57.5 323,-38.5 245,-38.5"/>
<text text-anchor="middle" x="284" y="-45.5" font-family="Helvetica,sans-Serif" font-size="10.00" fill="#000000">vrna_mx_pf_s</text>
</a>
</g>
</g>
<!-- Node13&#45;&gt;Node1 -->
<g id="edge13" class="edge">
<title>Node13&#45;&gt;Node1</title>
<path fill="none" stroke="#9a32cd" stroke-dasharray="5,2" d="M333.2939,-47.0631C366.6194,-48.8785 409.8754,-56.2923 440,-80 470.1497,-103.7275 482.0764,-151.1703 485.933,-171.4499"/>
<polygon fill="#9a32cd" stroke="#9a32cd" points="333.4264,-43.5657 323.2958,-46.6676 333.1496,-50.5602 333.4264,-43.5657"/>
<text text-anchor="middle" x="406.5" y="-83" font-family="Helvetica,sans-Serif" font-size="10.00" fill="#000000"> exp_matrices</text>
</g>
<!-- Node14 -->
<g id="node14" class="node">
<title>Node14</title>
<g id="a_node14"><a xlink:href="structvrna__structured__domains__s.html" target="_top" xlink:title="vrna_structured_domains_s">
<polygon fill="none" stroke="#000000" points="215.5,-.5 215.5,-19.5 352.5,-19.5 352.5,-.5 215.5,-.5"/>
<text text-anchor="middle" x="284" y="-7.5" font-family="Helvetica,sans-Serif" font-size="10.00" fill="#000000">vrna_structured_domains_s</text>
</a>
</g>
</g>
<!-- Node14&#45;&gt;Node1 -->
<g id="edge14" class="edge">
<title>Node14&#45;&gt;Node1</title>
<path fill="none" stroke="#9a32cd" stroke-dasharray="5,2" d="M363.1266,-7.7582C390.2143,-10.8259 418.9615,-18.8517 440,-37 461.1294,-55.2267 479.8383,-142.0193 485.6453,-171.3159"/>
<polygon fill="#9a32cd" stroke="#9a32cd" points="363.1238,-4.2433 352.8457,-6.8145 362.4839,-11.214 363.1238,-4.2433"/>
<text text-anchor="middle" x="406.5" y="-40" font-family="Helvetica,sans-Serif" font-size="10.00" fill="#000000"> domains_struc</text>
</g>
</g>
</svg>
