<?xml version="1.0" encoding="UTF-8" standalone="no"?>
<!DOCTYPE svg PUBLIC "-//W3C//DTD SVG 1.1//EN"
 "http://www.w3.org/Graphics/SVG/1.1/DTD/svg11.dtd">
<!-- Generated by graphviz version 2.40.1 (20161225.0304)
 -->
<!-- Title: ViennaRNA/subopt.h Pages: 1 -->
<svg width="1407pt" height="341pt"
 viewBox="0.00 0.00 1407.00 341.00" xmlns="http://www.w3.org/2000/svg" xmlns:xlink="http://www.w3.org/1999/xlink">
<g id="graph0" class="graph" transform="scale(1 1) rotate(0) translate(4 337)">
<title>ViennaRNA/subopt.h</title>
<!-- Node0 -->
<g id="node1" class="node">
<title>Node0</title>
<polygon fill="#bfbfbf" stroke="#000000" points="260.5,-313.5 260.5,-332.5 369.5,-332.5 369.5,-313.5 260.5,-313.5"/>
<text text-anchor="middle" x="315" y="-320.5" font-family="Helvetica,sans-Serif" font-size="10.00" fill="#000000">ViennaRNA/subopt.h</text>
</g>
<!-- Node1 -->
<g id="node2" class="node">
<title>Node1</title>
<g id="a_node2"><a xlink:href="datastructures_2basic_8h.html" target="_top" xlink:title="Various data structures and pre&#45;processor macros. ">
<polygon fill="none" stroke="#000000" points="640,-246.5 640,-276.5 774,-276.5 774,-246.5 640,-246.5"/>
<text text-anchor="start" x="648" y="-264.5" font-family="Helvetica,sans-Serif" font-size="10.00" fill="#000000">ViennaRNA/datastructures</text>
<text text-anchor="middle" x="707" y="-253.5" font-family="Helvetica,sans-Serif" font-size="10.00" fill="#000000">/basic.h</text>
</a>
</g>
</g>
<!-- Node0&#45;&gt;Node1 -->
<g id="edge1" class="edge">
<title>Node0&#45;&gt;Node1</title>
<path fill="none" stroke="#191970" d="M369.5059,-314.4487C437.1539,-303.8355 552.9532,-285.6681 629.7371,-273.6216"/>
<polygon fill="#191970" stroke="#191970" points="630.499,-277.045 639.8356,-272.0373 629.414,-270.1296 630.499,-277.045"/>
</g>
<!-- Node6 -->
<g id="node7" class="node">
<title>Node6</title>
<g id="a_node7"><a xlink:href="params_2basic_8h.html" target="_top" xlink:title="Functions to deal with sets of energy parameters. ">
<polygon fill="none" stroke="#000000" points="58,-129 58,-148 196,-148 196,-129 58,-129"/>
<text text-anchor="middle" x="127" y="-136" font-family="Helvetica,sans-Serif" font-size="10.00" fill="#000000">ViennaRNA/params/basic.h</text>
</a>
</g>
</g>
<!-- Node0&#45;&gt;Node6 -->
<g id="edge37" class="edge">
<title>Node0&#45;&gt;Node6</title>
<path fill="none" stroke="#191970" d="M305.157,-313.3402C274.8272,-283.5751 182.5333,-192.9994 144.0899,-155.2718"/>
<polygon fill="#191970" stroke="#191970" points="146.3343,-152.5704 136.7456,-148.0641 141.4313,-157.5665 146.3343,-152.5704"/>
</g>
<!-- Node2 -->
<g id="node3" class="node">
<title>Node2</title>
<g id="a_node3"><a xlink:href="constants_8h.html" target="_top" xlink:title="Energy parameter constants. ">
<polygon fill="none" stroke="#000000" points="0,-62 0,-81 158,-81 158,-62 0,-62"/>
<text text-anchor="middle" x="79" y="-69" font-family="Helvetica,sans-Serif" font-size="10.00" fill="#000000">ViennaRNA/params/constants.h</text>
</a>
</g>
</g>
<!-- Node1&#45;&gt;Node2 -->
<g id="edge2" class="edge">
<title>Node1&#45;&gt;Node2</title>
<path fill="none" stroke="#191970" d="M639.8459,-255.691C479.4713,-241.1091 84.7925,-200.7622 49,-154 34.034,-134.4473 49.907,-106.7151 63.6545,-88.9153"/>
<polygon fill="#191970" stroke="#191970" points="66.4631,-91.0098 70.0882,-81.0544 61.0461,-86.5763 66.4631,-91.0098"/>
</g>
<!-- Node4 -->
<g id="node5" class="node">
<title>Node4</title>
<g id="a_node5"><a xlink:href="fold__compound_8h.html" target="_top" xlink:title="The Basic Fold Compound API. ">
<polygon fill="none" stroke="#000000" points="575,-190.5 575,-209.5 721,-209.5 721,-190.5 575,-190.5"/>
<text text-anchor="middle" x="648" y="-197.5" font-family="Helvetica,sans-Serif" font-size="10.00" fill="#000000">ViennaRNA/fold_compound.h</text>
</a>
</g>
</g>
<!-- Node1&#45;&gt;Node4 -->
<g id="edge4" class="edge">
<title>Node1&#45;&gt;Node4</title>
<path fill="none" stroke="#191970" d="M692.4157,-246.2977C683.97,-237.4941 673.3108,-226.3833 664.5516,-217.2529"/>
<polygon fill="#191970" stroke="#191970" points="666.8952,-214.6402 657.4466,-209.8469 661.8439,-219.4862 666.8952,-214.6402"/>
</g>
<!-- Node5 -->
<g id="node6" class="node">
<title>Node5</title>
<g id="a_node6"><a xlink:href="model_8h.html" target="_top" xlink:title="The model details data structure and its corresponding modifiers. ">
<polygon fill="none" stroke="#000000" points="323,-62 323,-81 429,-81 429,-62 323,-62"/>
<text text-anchor="middle" x="376" y="-69" font-family="Helvetica,sans-Serif" font-size="10.00" fill="#000000">ViennaRNA/model.h</text>
</a>
</g>
</g>
<!-- Node1&#45;&gt;Node5 -->
<g id="edge28" class="edge">
<title>Node1&#45;&gt;Node5</title>
<path fill="none" stroke="#191970" d="M639.952,-246.8734C558.2021,-227.6577 426.9504,-191.8828 395,-154 380.1687,-136.4149 376.3706,-109.4942 375.6585,-91.2266"/>
<polygon fill="#191970" stroke="#191970" points="379.1573,-91.0907 375.5429,-81.1314 372.1578,-91.1709 379.1573,-91.0907"/>
</g>
<!-- Node1&#45;&gt;Node6 -->
<g id="edge29" class="edge">
<title>Node1&#45;&gt;Node6</title>
<path fill="none" stroke="#191970" d="M639.9155,-257.134C561.7604,-250.8264 429.4992,-236.8548 319,-210 257.9754,-195.1691 189.6116,-168.6179 153.0167,-152.3781"/>
<polygon fill="#191970" stroke="#191970" points="154.1224,-149.0364 143.57,-148.0895 151.2287,-155.4103 154.1224,-149.0364"/>
</g>
<!-- Node8 -->
<g id="node9" class="node">
<title>Node8</title>
<g id="a_node9"><a xlink:href="dp__matrices_8h.html" target="_top" xlink:title="Functions to deal with standard dynamic programming (DP) matrices. ">
<polygon fill="none" stroke="#000000" points="214.5,-129 214.5,-148 347.5,-148 347.5,-129 214.5,-129"/>
<text text-anchor="middle" x="281" y="-136" font-family="Helvetica,sans-Serif" font-size="10.00" fill="#000000">ViennaRNA/dp_matrices.h</text>
</a>
</g>
</g>
<!-- Node1&#45;&gt;Node8 -->
<g id="edge30" class="edge">
<title>Node1&#45;&gt;Node8</title>
<path fill="none" stroke="#191970" d="M639.9228,-256.5653C551.6488,-248.9839 402.2061,-232.9062 353,-210 326.1691,-197.5097 301.6425,-173.2554 288.8791,-156.4827"/>
<polygon fill="#191970" stroke="#191970" points="291.6219,-154.2952 283.0586,-148.0565 285.8624,-158.2736 291.6219,-154.2952"/>
</g>
<!-- Node9 -->
<g id="node10" class="node">
<title>Node9</title>
<g id="a_node10"><a xlink:href="hard_8h.html" target="_top" xlink:title="Functions and data structures for handling of secondary structure hard constraints. ">
<polygon fill="none" stroke="#000000" points="851.5,-123.5 851.5,-153.5 970.5,-153.5 970.5,-123.5 851.5,-123.5"/>
<text text-anchor="start" x="859.5" y="-141.5" font-family="Helvetica,sans-Serif" font-size="10.00" fill="#000000">ViennaRNA/constraints</text>
<text text-anchor="middle" x="911" y="-130.5" font-family="Helvetica,sans-Serif" font-size="10.00" fill="#000000">/hard.h</text>
</a>
</g>
</g>
<!-- Node1&#45;&gt;Node9 -->
<g id="edge31" class="edge">
<title>Node1&#45;&gt;Node9</title>
<path fill="none" stroke="#191970" d="M727.4001,-246.4178C761.3914,-224.3185 829.577,-183.1015 872.6953,-158.4981"/>
<polygon fill="#191970" stroke="#191970" points="874.5191,-161.4876 881.4945,-153.513 871.0685,-155.3971 874.5191,-161.4876"/>
</g>
<!-- Node11 -->
<g id="node12" class="node">
<title>Node11</title>
<g id="a_node12"><a xlink:href="soft_8h.html" target="_top" xlink:title="Functions and data structures for secondary structure soft constraints. ">
<polygon fill="none" stroke="#000000" points="988.5,-123.5 988.5,-153.5 1107.5,-153.5 1107.5,-123.5 988.5,-123.5"/>
<text text-anchor="start" x="996.5" y="-141.5" font-family="Helvetica,sans-Serif" font-size="10.00" fill="#000000">ViennaRNA/constraints</text>
<text text-anchor="middle" x="1048" y="-130.5" font-family="Helvetica,sans-Serif" font-size="10.00" fill="#000000">/soft.h</text>
</a>
</g>
</g>
<!-- Node1&#45;&gt;Node11 -->
<g id="edge32" class="edge">
<title>Node1&#45;&gt;Node11</title>
<path fill="none" stroke="#191970" d="M744.199,-246.4178C804.1536,-223.81 922.1794,-181.1944 992.2193,-156.8263"/>
<polygon fill="#191970" stroke="#191970" points="993.4717,-160.0966 1001.7727,-153.513 991.1779,-153.4831 993.4717,-160.0966"/>
</g>
<!-- Node12 -->
<g id="node13" class="node">
<title>Node12</title>
<g id="a_node13"><a xlink:href="grammar_8h.html" target="_top" xlink:title="Implementations for the RNA folding grammar. ">
<polygon fill="none" stroke="#000000" points="404,-129 404,-148 522,-148 522,-129 404,-129"/>
<text text-anchor="middle" x="463" y="-136" font-family="Helvetica,sans-Serif" font-size="10.00" fill="#000000">ViennaRNA/grammar.h</text>
</a>
</g>
</g>
<!-- Node1&#45;&gt;Node12 -->
<g id="edge33" class="edge">
<title>Node1&#45;&gt;Node12</title>
<path fill="none" stroke="#191970" d="M648.0994,-246.4115C619.6638,-237.4275 585.6861,-224.8796 557,-210 526.6111,-194.2371 494.6882,-170.8579 476.671,-155.1688"/>
<polygon fill="#191970" stroke="#191970" points="478.7489,-152.3257 469.0109,-148.1516 474.0205,-157.4873 478.7489,-152.3257"/>
</g>
<!-- Node13 -->
<g id="node14" class="node">
<title>Node13</title>
<g id="a_node14"><a xlink:href="structured__domains_8h.html" target="_top" xlink:title="This module provides interfaces that deal with additional structured domains in the folding grammar...">
<polygon fill="none" stroke="#000000" points="718.5,-123.5 718.5,-153.5 833.5,-153.5 833.5,-123.5 718.5,-123.5"/>
<text text-anchor="start" x="726.5" y="-141.5" font-family="Helvetica,sans-Serif" font-size="10.00" fill="#000000">ViennaRNA/structured</text>
<text text-anchor="middle" x="776" y="-130.5" font-family="Helvetica,sans-Serif" font-size="10.00" fill="#000000">_domains.h</text>
</a>
</g>
</g>
<!-- Node1&#45;&gt;Node13 -->
<g id="edge34" class="edge">
<title>Node1&#45;&gt;Node13</title>
<path fill="none" stroke="#191970" d="M715.4608,-246.4178C727.2035,-225.485 748.5686,-187.3994 762.5211,-162.5276"/>
<polygon fill="#191970" stroke="#191970" points="765.63,-164.1394 767.47,-153.7056 759.525,-160.7146 765.63,-164.1394"/>
</g>
<!-- Node14 -->
<g id="node15" class="node">
<title>Node14</title>
<g id="a_node15"><a xlink:href="unstructured__domains_8h.html" target="_top" xlink:title="Functions to modify unstructured domains, e.g. to incorporate ligands binding to unpaired stretches...">
<polygon fill="none" stroke="#000000" points="1164.5,-123.5 1164.5,-153.5 1289.5,-153.5 1289.5,-123.5 1164.5,-123.5"/>
<text text-anchor="start" x="1172.5" y="-141.5" font-family="Helvetica,sans-Serif" font-size="10.00" fill="#000000">ViennaRNA/unstructured</text>
<text text-anchor="middle" x="1227" y="-130.5" font-family="Helvetica,sans-Serif" font-size="10.00" fill="#000000">_domains.h</text>
</a>
</g>
</g>
<!-- Node1&#45;&gt;Node14 -->
<g id="edge35" class="edge">
<title>Node1&#45;&gt;Node14</title>
<path fill="none" stroke="#191970" d="M774.4093,-258.4962C879.5613,-253.124 1076.9276,-239.5445 1141,-210 1164.7751,-199.037 1186.0929,-177.8948 1201.8221,-161.4319"/>
<polygon fill="#191970" stroke="#191970" points="1204.7309,-163.4517 1209.0811,-153.7911 1199.656,-158.6304 1204.7309,-163.4517"/>
</g>
<!-- Node15 -->
<g id="node16" class="node">
<title>Node15</title>
<g id="a_node16"><a xlink:href="utils_2structures_8h.html" target="_top" xlink:title="Various utility&#45; and helper&#45;functions for secondary structure parsing, converting, etc. ">
<polygon fill="none" stroke="#000000" points="1255,-62 1255,-81 1399,-81 1399,-62 1255,-62"/>
<text text-anchor="middle" x="1327" y="-69" font-family="Helvetica,sans-Serif" font-size="10.00" fill="#000000">ViennaRNA/utils/structures.h</text>
</a>
</g>
</g>
<!-- Node1&#45;&gt;Node15 -->
<g id="edge36" class="edge">
<title>Node1&#45;&gt;Node15</title>
<path fill="none" stroke="#191970" d="M774.0625,-256.8794C885.4757,-249.0428 1103.5068,-231.8462 1178,-210 1231.4041,-194.3385 1253.4216,-195.944 1290,-154 1305.633,-136.0739 1312.6254,-109.041 1317.7798,-90.8535"/>
<polygon fill="#191970" stroke="#191970" points="1321.1946,-91.6525 1320.7328,-81.0677 1314.493,-89.6302 1321.1946,-91.6525"/>
</g>
<!-- Node3 -->
<g id="node4" class="node">
<title>Node3</title>
<polygon fill="none" stroke="#bfbfbf" points="55,-.5 55,-19.5 103,-19.5 103,-.5 55,-.5"/>
<text text-anchor="middle" x="79" y="-7.5" font-family="Helvetica,sans-Serif" font-size="10.00" fill="#000000">limits.h</text>
</g>
<!-- Node2&#45;&gt;Node3 -->
<g id="edge3" class="edge">
<title>Node2&#45;&gt;Node3</title>
<path fill="none" stroke="#191970" d="M79,-61.8906C79,-53.3657 79,-40.6392 79,-29.9235"/>
<polygon fill="#191970" stroke="#191970" points="82.5001,-29.7448 79,-19.7449 75.5001,-29.7449 82.5001,-29.7448"/>
</g>
<!-- Node4&#45;&gt;Node5 -->
<g id="edge5" class="edge">
<title>Node4&#45;&gt;Node5</title>
<path fill="none" stroke="#191970" d="M629.6193,-190.3675C613.281,-181.5571 588.9615,-167.8268 569,-154 551.0826,-141.5891 550.1011,-133.498 531,-123 498.598,-105.1918 458.9929,-92.1641 427.9279,-83.6669"/>
<polygon fill="#191970" stroke="#191970" points="428.7258,-80.2575 418.1619,-81.067 426.9249,-87.0219 428.7258,-80.2575"/>
</g>
<!-- Node4&#45;&gt;Node6 -->
<g id="edge6" class="edge">
<title>Node4&#45;&gt;Node6</title>
<path fill="none" stroke="#191970" d="M574.6192,-194.3985C486.7166,-187.2192 335.1359,-173.348 206,-154 198.2248,-152.8351 190.0524,-151.4337 182.0327,-149.9561"/>
<polygon fill="#191970" stroke="#191970" points="182.474,-146.4776 171.9974,-148.0558 181.1715,-153.3554 182.474,-146.4776"/>
</g>
<!-- Node7 -->
<g id="node8" class="node">
<title>Node7</title>
<g id="a_node8"><a xlink:href="sequence_8h.html" target="_top" xlink:title="Functions and data structures related to sequence representations ,. ">
<polygon fill="none" stroke="#000000" points="578,-129 578,-148 700,-148 700,-129 578,-129"/>
<text text-anchor="middle" x="639" y="-136" font-family="Helvetica,sans-Serif" font-size="10.00" fill="#000000">ViennaRNA/sequence.h</text>
</a>
</g>
</g>
<!-- Node4&#45;&gt;Node7 -->
<g id="edge10" class="edge">
<title>Node4&#45;&gt;Node7</title>
<path fill="none" stroke="#191970" d="M646.5938,-190.3906C645.3462,-181.8657 643.4838,-169.1392 641.9156,-158.4235"/>
<polygon fill="#191970" stroke="#191970" points="645.3373,-157.6326 640.4261,-148.2449 638.411,-158.6463 645.3373,-157.6326"/>
</g>
<!-- Node4&#45;&gt;Node8 -->
<g id="edge11" class="edge">
<title>Node4&#45;&gt;Node8</title>
<path fill="none" stroke="#191970" d="M591.0589,-190.4581C525.3341,-179.4443 417.3752,-161.3531 347.7565,-149.6867"/>
<polygon fill="#191970" stroke="#191970" points="348.2137,-146.2146 337.7727,-148.0137 347.0567,-153.1183 348.2137,-146.2146"/>
</g>
<!-- Node4&#45;&gt;Node9 -->
<g id="edge13" class="edge">
<title>Node4&#45;&gt;Node9</title>
<path fill="none" stroke="#191970" d="M688.8052,-190.4581C729.4346,-180.9573 792.5855,-166.1901 841.1939,-154.8235"/>
<polygon fill="#191970" stroke="#191970" points="842.0807,-158.2106 851.0211,-152.5255 840.4868,-151.3945 842.0807,-158.2106"/>
</g>
<!-- Node4&#45;&gt;Node11 -->
<g id="edge17" class="edge">
<title>Node4&#45;&gt;Node11</title>
<path fill="none" stroke="#191970" d="M721.1522,-191.7076C786.3104,-183.9001 884.4347,-171.1119 978.3975,-154.2117"/>
<polygon fill="#191970" stroke="#191970" points="979.143,-157.6336 988.3561,-152.402 977.8914,-150.7464 979.143,-157.6336"/>
</g>
<!-- Node4&#45;&gt;Node12 -->
<g id="edge20" class="edge">
<title>Node4&#45;&gt;Node12</title>
<path fill="none" stroke="#191970" d="M619.0938,-190.3906C587.461,-179.8749 536.597,-162.966 501.5771,-151.3243"/>
<polygon fill="#191970" stroke="#191970" points="502.2968,-147.8753 491.7033,-148.0419 500.0885,-154.5178 502.2968,-147.8753"/>
</g>
<!-- Node4&#45;&gt;Node13 -->
<g id="edge22" class="edge">
<title>Node4&#45;&gt;Node13</title>
<path fill="none" stroke="#191970" d="M668,-190.3906C686.045,-181.7205 713.1352,-168.7046 735.6688,-157.8779"/>
<polygon fill="#191970" stroke="#191970" points="737.1899,-161.0302 744.6877,-153.5446 734.1583,-154.7206 737.1899,-161.0302"/>
</g>
<!-- Node4&#45;&gt;Node14 -->
<g id="edge23" class="edge">
<title>Node4&#45;&gt;Node14</title>
<path fill="none" stroke="#191970" d="M721.2168,-193.7828C813.5897,-185.7174 977.2725,-170.6892 1117,-154 1128.9686,-152.5705 1141.6497,-150.9151 1153.9819,-149.2293"/>
<polygon fill="#191970" stroke="#191970" points="1154.8099,-152.6482 1164.2357,-147.8104 1153.8503,-145.7142 1154.8099,-152.6482"/>
</g>
<!-- Node6&#45;&gt;Node1 -->
<g id="edge8" class="edge">
<title>Node6&#45;&gt;Node1</title>
<path fill="none" stroke="#191970" d="M154.7217,-148.0895C194.6919,-163.5217 270.238,-193.7747 337,-210 436.6808,-234.2256 554.0711,-247.9672 629.5202,-255.0561"/>
<polygon fill="#191970" stroke="#191970" points="629.6024,-258.5785 639.8818,-256.0126 630.2459,-251.6081 629.6024,-258.5785"/>
</g>
<!-- Node6&#45;&gt;Node2 -->
<g id="edge7" class="edge">
<title>Node6&#45;&gt;Node2</title>
<path fill="none" stroke="#191970" d="M120.1228,-128.9005C112.7802,-118.6515 100.9759,-102.1747 91.8938,-89.4976"/>
<polygon fill="#191970" stroke="#191970" points="94.5336,-87.1724 85.8645,-81.0817 88.8432,-91.2492 94.5336,-87.1724"/>
</g>
<!-- Node6&#45;&gt;Node5 -->
<g id="edge9" class="edge">
<title>Node6&#45;&gt;Node5</title>
<path fill="none" stroke="#191970" d="M162.4112,-128.9717C206.5345,-117.0991 282.0084,-96.7909 330.4111,-83.7669"/>
<polygon fill="#191970" stroke="#191970" points="331.5607,-87.0821 340.3078,-81.1039 329.7418,-80.3225 331.5607,-87.0821"/>
</g>
<!-- Node8&#45;&gt;Node1 -->
<g id="edge12" class="edge">
<title>Node8&#45;&gt;Node1</title>
<path fill="none" stroke="#191970" d="M294.0428,-148.0565C310.6377,-163.8688 339.2004,-195.1967 371,-210 416.1077,-230.9984 545.45,-246.2583 629.9259,-254.4951"/>
<polygon fill="#191970" stroke="#191970" points="629.7073,-257.9901 639.9967,-255.4647 630.3782,-251.0224 629.7073,-257.9901"/>
</g>
<!-- Node9&#45;&gt;Node1 -->
<g id="edge14" class="edge">
<title>Node9&#45;&gt;Node1</title>
<path fill="none" stroke="#191970" d="M890.7063,-153.513C856.7866,-175.5723 788.6106,-216.7866 745.4399,-241.4247"/>
<polygon fill="#191970" stroke="#191970" points="743.6033,-238.4425 736.6287,-246.4178 747.0545,-244.5327 743.6033,-238.4425"/>
</g>
<!-- Node10 -->
<g id="node11" class="node">
<title>Node10</title>
<g id="a_node11"><a xlink:href="constraints_2basic_8h.html" target="_top" xlink:title="Functions and data structures for constraining secondary structure predictions and evaluation...">
<polygon fill="none" stroke="#000000" points="988.5,-56.5 988.5,-86.5 1107.5,-86.5 1107.5,-56.5 988.5,-56.5"/>
<text text-anchor="start" x="996.5" y="-74.5" font-family="Helvetica,sans-Serif" font-size="10.00" fill="#000000">ViennaRNA/constraints</text>
<text text-anchor="middle" x="1048" y="-63.5" font-family="Helvetica,sans-Serif" font-size="10.00" fill="#000000">/basic.h</text>
</a>
</g>
</g>
<!-- Node9&#45;&gt;Node10 -->
<g id="edge15" class="edge">
<title>Node9&#45;&gt;Node10</title>
<path fill="none" stroke="#191970" d="M941.7455,-123.4639C961.2624,-113.9191 986.7257,-101.4663 1007.8325,-91.144"/>
<polygon fill="#191970" stroke="#191970" points="1009.4375,-94.2552 1016.8831,-86.7177 1006.3622,-87.9669 1009.4375,-94.2552"/>
</g>
<!-- Node10&#45;&gt;Node1 -->
<g id="edge16" class="edge">
<title>Node10&#45;&gt;Node1</title>
<path fill="none" stroke="#191970" d="M1076.0635,-86.7126C1102.5355,-103.0462 1135.5928,-129.9038 1117,-154 1076.6631,-206.2766 891.3946,-238.0879 784.2169,-252.4368"/>
<polygon fill="#191970" stroke="#191970" points="783.5528,-248.994 774.0961,-253.771 784.4678,-255.934 783.5528,-248.994"/>
</g>
<!-- Node11&#45;&gt;Node1 -->
<g id="edge18" class="edge">
<title>Node11&#45;&gt;Node1</title>
<path fill="none" stroke="#191970" d="M1010.9845,-153.513C951.1487,-176.0799 833.1333,-218.6936 762.9955,-243.0989"/>
<polygon fill="#191970" stroke="#191970" points="761.7283,-239.8338 753.4276,-246.4178 764.0223,-246.4473 761.7283,-239.8338"/>
</g>
<!-- Node11&#45;&gt;Node10 -->
<g id="edge19" class="edge">
<title>Node11&#45;&gt;Node10</title>
<path fill="none" stroke="#191970" d="M1048,-123.2967C1048,-115.5013 1048,-105.7991 1048,-96.9064"/>
<polygon fill="#191970" stroke="#191970" points="1051.5001,-96.6431 1048,-86.6432 1044.5001,-96.6432 1051.5001,-96.6431"/>
</g>
<!-- Node12&#45;&gt;Node1 -->
<g id="edge21" class="edge">
<title>Node12&#45;&gt;Node1</title>
<path fill="none" stroke="#191970" d="M480.4357,-148.1516C502.1997,-163.0026 539.6384,-191.6577 575,-210 600.3244,-223.1359 629.7729,-234.4546 654.4842,-243.1082"/>
<polygon fill="#191970" stroke="#191970" points="653.4591,-246.4569 664.0538,-246.4115 655.7431,-239.84 653.4591,-246.4569"/>
</g>
<!-- Node14&#45;&gt;Node1 -->
<g id="edge24" class="edge">
<title>Node14&#45;&gt;Node1</title>
<path fill="none" stroke="#191970" d="M1222.0841,-153.7911C1211.0038,-170.703 1186.6656,-197.2431 1159,-210 1094.6513,-239.6719 895.8567,-253.2408 784.4752,-258.5652"/>
<polygon fill="#191970" stroke="#191970" points="784.1318,-255.0773 774.306,-259.04 784.4584,-262.0697 784.1318,-255.0773"/>
</g>
<!-- Node14&#45;&gt;Node15 -->
<g id="edge25" class="edge">
<title>Node14&#45;&gt;Node15</title>
<path fill="none" stroke="#191970" d="M1249.6915,-123.2967C1266.0283,-112.351 1287.9759,-97.6462 1304.3119,-86.701"/>
<polygon fill="#191970" stroke="#191970" points="1306.3793,-89.5289 1312.7388,-81.055 1302.483,-83.7135 1306.3793,-89.5289"/>
</g>
<!-- Node15&#45;&gt;Node1 -->
<g id="edge27" class="edge">
<title>Node15&#45;&gt;Node1</title>
<path fill="none" stroke="#191970" d="M1331.4895,-81.0677C1333.0965,-97.7551 1326.7889,-132.455 1308,-154 1271.4216,-195.944 1249.4041,-194.3385 1196,-210 1121.272,-231.915 902.1002,-249.1511 784.1271,-256.9532"/>
<polygon fill="#191970" stroke="#191970" points="783.8258,-253.4653 774.0758,-257.6112 784.2831,-260.4504 783.8258,-253.4653"/>
</g>
<!-- Node16 -->
<g id="node17" class="node">
<title>Node16</title>
<polygon fill="none" stroke="#bfbfbf" points="1304,-.5 1304,-19.5 1350,-19.5 1350,-.5 1304,-.5"/>
<text text-anchor="middle" x="1327" y="-7.5" font-family="Helvetica,sans-Serif" font-size="10.00" fill="#000000">stdio.h</text>
</g>
<!-- Node15&#45;&gt;Node16 -->
<g id="edge26" class="edge">
<title>Node15&#45;&gt;Node16</title>
<path fill="none" stroke="#191970" d="M1327,-61.8906C1327,-53.3657 1327,-40.6392 1327,-29.9235"/>
<polygon fill="#191970" stroke="#191970" points="1330.5001,-29.7448 1327,-19.7449 1323.5001,-29.7449 1330.5001,-29.7448"/>
</g>
</g>
</svg>
