<?xml version="1.0" encoding="UTF-8" standalone="no"?>
<!DOCTYPE svg PUBLIC "-//W3C//DTD SVG 1.1//EN"
 "http://www.w3.org/Graphics/SVG/1.1/DTD/svg11.dtd">
<!-- Generated by graphviz version 2.40.1 (20161225.0304)
 -->
<!-- Title: ViennaRNA/unstructured_domains.h Pages: 1 -->
<!--zoomable 352 -->
<svg id="main" version="1.1" xmlns="http://www.w3.org/2000/svg" xmlns:xlink="http://www.w3.org/1999/xlink" xml:space="preserve" onload="init(evt)">
<style type="text/css"><![CDATA[
.edge:hover path { stroke: red; }
.edge:hover polygon { stroke: red; fill: red; }
]]></style>
<script type="text/javascript"><![CDATA[
var edges = document.getElementsByTagName('g');
if (edges && edges.length) {
  for (var i=0;i<edges.length;i++) {
    if (edges[i].id.substr(0,4)=='edge') {
      edges[i].setAttribute('class','edge');
    }
  }
}
]]></script>
        <defs>
                <circle id="rim" cx="0" cy="0" r="7"/>
                <circle id="rim2" cx="0" cy="0" r="3.5"/>
                <g id="zoomPlus">
                        <use xlink:href="#rim" fill="#404040">
                                <set attributeName="fill" to="#808080" begin="zoomplus.mouseover" end="zoomplus.mouseout"/>
                        </use>
                        <path d="M-4,0h8M0,-4v8" fill="none" stroke="white" stroke-width="1.5" pointer-events="none"/>
                </g>
                <g id="zoomMin">
                        <use xlink:href="#rim" fill="#404040">
                                <set attributeName="fill" to="#808080" begin="zoomminus.mouseover" end="zoomminus.mouseout"/>
                        </use>
                        <path d="M-4,0h8" fill="none" stroke="white" stroke-width="1.5" pointer-events="none"/>
                </g>
                <g id="dirArrow">
                        <path fill="none" stroke="white" stroke-width="1.5" d="M0,-3.0v7 M-2.5,-0.5L0,-3.0L2.5,-0.5"/>
                </g>
               <g id="resetDef">
                       <use xlink:href="#rim2" fill="#404040">
                               <set attributeName="fill" to="#808080" begin="reset.mouseover" end="reset.mouseout"/>
                       </use>
               </g>
        </defs>

<script type="text/javascript">
var viewWidth = 1250;
var viewHeight = 352;
var sectionId = 'dynsection-0';
</script>
<script xlink:href="svgpan.js"/>
<svg id="graph" class="graph">
<g id="viewport">
<title>ViennaRNA/unstructured_domains.h</title>
<!-- Node0 -->
<g id="node1" class="node">
<title>Node0</title>
<polygon fill="#bfbfbf" stroke="#000000" points="634.0906,-313.5 634.0906,-343.5 759.0906,-343.5 759.0906,-313.5 634.0906,-313.5"/>
<text text-anchor="start" x="642.0906" y="-331.5" font-family="Helvetica,sans-Serif" font-size="10.00" fill="#000000">ViennaRNA/unstructured</text>
<text text-anchor="middle" x="696.5906" y="-320.5" font-family="Helvetica,sans-Serif" font-size="10.00" fill="#000000">_domains.h</text>
</g>
<!-- Node1 -->
<g id="node2" class="node">
<title>Node1</title>
<g id="a_node2"><a xlink:href="datastructures_2basic_8h.html" target="_top" xlink:title="Various data structures and pre&#45;processor macros. ">
<polygon fill="none" stroke="#000000" points="629.5906,-246.5 629.5906,-276.5 763.5906,-276.5 763.5906,-246.5 629.5906,-246.5"/>
<text text-anchor="start" x="637.5906" y="-264.5" font-family="Helvetica,sans-Serif" font-size="10.00" fill="#000000">ViennaRNA/datastructures</text>
<text text-anchor="middle" x="696.5906" y="-253.5" font-family="Helvetica,sans-Serif" font-size="10.00" fill="#000000">/basic.h</text>
</a>
</g>
</g>
<!-- Node0&#45;&gt;Node1 -->
<g id="edge1" class="edge">
<title>Node0&#45;&gt;Node1</title>
<path fill="none" stroke="#191970" d="M690.8298,-313.2967C689.8801,-305.4156 689.6143,-295.5857 690.0323,-286.6135"/>
<polygon fill="#191970" stroke="#191970" points="693.5211,-286.8924 690.8371,-276.6432 686.5437,-286.3291 693.5211,-286.8924"/>
</g>
<!-- Node14 -->
<g id="node15" class="node">
<title>Node14</title>
<g id="a_node15"><a xlink:href="utils_2structures_8h.html" target="_top" xlink:title="Various utility&#45; and helper&#45;functions for secondary structure parsing, converting, etc. ">
<polygon fill="none" stroke="#000000" points="1097.5906,-190.5 1097.5906,-209.5 1241.5906,-209.5 1241.5906,-190.5 1097.5906,-190.5"/>
<text text-anchor="middle" x="1169.5906" y="-197.5" font-family="Helvetica,sans-Serif" font-size="10.00" fill="#000000">ViennaRNA/utils/structures.h</text>
</a>
</g>
</g>
<!-- Node0&#45;&gt;Node14 -->
<g id="edge35" class="edge">
<title>Node0&#45;&gt;Node14</title>
<path fill="none" stroke="#191970" d="M752.2407,-313.3816C847.0251,-287.6314 1037.942,-235.765 1124.7711,-212.1761"/>
<polygon fill="#191970" stroke="#191970" points="1125.8502,-215.5099 1134.5828,-209.5106 1124.015,-208.7548 1125.8502,-215.5099"/>
</g>
<!-- Node1&#45;&gt;Node0 -->
<g id="edge31" class="edge">
<title>Node1&#45;&gt;Node0</title>
<path fill="none" stroke="#191970" d="M702.3442,-276.6432C703.2974,-284.5143 703.5667,-294.3414 703.1522,-303.3179"/>
<polygon fill="#191970" stroke="#191970" points="699.6626,-303.0487 702.3515,-313.2967 706.6402,-303.6087 699.6626,-303.0487"/>
</g>
<!-- Node2 -->
<g id="node3" class="node">
<title>Node2</title>
<g id="a_node3"><a xlink:href="constants_8h.html" target="_top" xlink:title="Energy parameter constants. ">
<polygon fill="none" stroke="#000000" points="653.5906,-62 653.5906,-81 811.5906,-81 811.5906,-62 653.5906,-62"/>
<text text-anchor="middle" x="732.5906" y="-69" font-family="Helvetica,sans-Serif" font-size="10.00" fill="#000000">ViennaRNA/params/constants.h</text>
</a>
</g>
</g>
<!-- Node1&#45;&gt;Node2 -->
<g id="edge2" class="edge">
<title>Node1&#45;&gt;Node2</title>
<path fill="none" stroke="#191970" d="M709.6573,-246.4248C725.7713,-226.7353 752.2913,-190.4602 762.5906,-154 766.336,-140.7411 766.1824,-136.3014 762.5906,-123 759.32,-110.8876 752.4177,-98.696 746.0576,-89.2173"/>
<polygon fill="#191970" stroke="#191970" points="748.9042,-87.1809 740.2621,-81.052 743.1959,-91.2325 748.9042,-87.1809"/>
</g>
<!-- Node4 -->
<g id="node5" class="node">
<title>Node4</title>
<g id="a_node5"><a xlink:href="fold__compound_8h.html" target="_top" xlink:title="The Basic Fold Compound API. ">
<polygon fill="none" stroke="#000000" points="457.5906,-190.5 457.5906,-209.5 603.5906,-209.5 603.5906,-190.5 457.5906,-190.5"/>
<text text-anchor="middle" x="530.5906" y="-197.5" font-family="Helvetica,sans-Serif" font-size="10.00" fill="#000000">ViennaRNA/fold_compound.h</text>
</a>
</g>
</g>
<!-- Node1&#45;&gt;Node4 -->
<g id="edge4" class="edge">
<title>Node1&#45;&gt;Node4</title>
<path fill="none" stroke="#191970" d="M655.9825,-246.4554C628.4064,-236.239 592.2964,-222.8609 565.9124,-213.0861"/>
<polygon fill="#191970" stroke="#191970" points="566.9078,-209.7224 556.3148,-209.5303 564.476,-216.2864 566.9078,-209.7224"/>
</g>
<!-- Node5 -->
<g id="node6" class="node">
<title>Node5</title>
<g id="a_node6"><a xlink:href="model_8h.html" target="_top" xlink:title="The model details data structure and its corresponding modifiers. ">
<polygon fill="none" stroke="#000000" points="242.5906,-62 242.5906,-81 348.5906,-81 348.5906,-62 242.5906,-62"/>
<text text-anchor="middle" x="295.5906" y="-69" font-family="Helvetica,sans-Serif" font-size="10.00" fill="#000000">ViennaRNA/model.h</text>
</a>
</g>
</g>
<!-- Node1&#45;&gt;Node5 -->
<g id="edge24" class="edge">
<title>Node1&#45;&gt;Node5</title>
<path fill="none" stroke="#191970" d="M629.4154,-256.0835C463.6737,-242.0264 45.7991,-202.1031 6.5906,-154 -2.1142,-143.3204 -2.256,-133.5624 6.5906,-123 34.7579,-89.3696 155.733,-77.6809 231.9568,-73.6319"/>
<polygon fill="#191970" stroke="#191970" points="232.5882,-77.1048 242.4009,-73.1098 232.2386,-70.1135 232.5882,-77.1048"/>
</g>
<!-- Node6 -->
<g id="node7" class="node">
<title>Node6</title>
<g id="a_node7"><a xlink:href="params_2basic_8h.html" target="_top" xlink:title="Functions to deal with sets of energy parameters. ">
<polygon fill="none" stroke="#000000" points="615.5906,-129 615.5906,-148 753.5906,-148 753.5906,-129 615.5906,-129"/>
<text text-anchor="middle" x="684.5906" y="-136" font-family="Helvetica,sans-Serif" font-size="10.00" fill="#000000">ViennaRNA/params/basic.h</text>
</a>
</g>
</g>
<!-- Node1&#45;&gt;Node6 -->
<g id="edge25" class="edge">
<title>Node1&#45;&gt;Node6</title>
<path fill="none" stroke="#191970" d="M690.5049,-246.4178C685.6764,-224.2662 681.4724,-182.9061 681.404,-158.3234"/>
<polygon fill="#191970" stroke="#191970" points="684.9104,-158.1449 681.6966,-148.0493 677.9132,-157.9455 684.9104,-158.1449"/>
</g>
<!-- Node8 -->
<g id="node9" class="node">
<title>Node8</title>
<g id="a_node9"><a xlink:href="dp__matrices_8h.html" target="_top" xlink:title="Functions to deal with standard dynamic programming (DP) matrices. ">
<polygon fill="none" stroke="#000000" points="464.0906,-129 464.0906,-148 597.0906,-148 597.0906,-129 464.0906,-129"/>
<text text-anchor="middle" x="530.5906" y="-136" font-family="Helvetica,sans-Serif" font-size="10.00" fill="#000000">ViennaRNA/dp_matrices.h</text>
</a>
</g>
</g>
<!-- Node1&#45;&gt;Node8 -->
<g id="edge26" class="edge">
<title>Node1&#45;&gt;Node8</title>
<path fill="none" stroke="#191970" d="M673.2807,-246.2417C654.5992,-231.2321 628.1415,-208.0129 603.5906,-190 585.6315,-176.8234 564.2961,-163.4905 549.1384,-153.6928"/>
<polygon fill="#191970" stroke="#191970" points="550.8657,-150.6401 540.5842,-148.0823 547.0266,-156.4935 550.8657,-150.6401"/>
</g>
<!-- Node9 -->
<g id="node10" class="node">
<title>Node9</title>
<g id="a_node10"><a xlink:href="hard_8h.html" target="_top" xlink:title="Functions and data structures for handling of secondary structure hard constraints. ">
<polygon fill="none" stroke="#000000" points="810.0906,-123.5 810.0906,-153.5 929.0906,-153.5 929.0906,-123.5 810.0906,-123.5"/>
<text text-anchor="start" x="818.0906" y="-141.5" font-family="Helvetica,sans-Serif" font-size="10.00" fill="#000000">ViennaRNA/constraints</text>
<text text-anchor="middle" x="869.5906" y="-130.5" font-family="Helvetica,sans-Serif" font-size="10.00" fill="#000000">/hard.h</text>
</a>
</g>
</g>
<!-- Node1&#45;&gt;Node9 -->
<g id="edge27" class="edge">
<title>Node1&#45;&gt;Node9</title>
<path fill="none" stroke="#191970" d="M723.558,-246.3988C742.101,-237.1622 766.6218,-224.3753 786.5906,-210 806.7751,-195.4695 826.8911,-175.5973 842.4911,-160.4907"/>
<polygon fill="#191970" stroke="#191970" points="844.9797,-162.9534 849.767,-153.5018 840.1305,-157.9051 844.9797,-162.9534"/>
</g>
<!-- Node11 -->
<g id="node12" class="node">
<title>Node11</title>
<g id="a_node12"><a xlink:href="soft_8h.html" target="_top" xlink:title="Functions and data structures for secondary structure soft constraints. ">
<polygon fill="none" stroke="#000000" points="947.0906,-123.5 947.0906,-153.5 1066.0906,-153.5 1066.0906,-123.5 947.0906,-123.5"/>
<text text-anchor="start" x="955.0906" y="-141.5" font-family="Helvetica,sans-Serif" font-size="10.00" fill="#000000">ViennaRNA/constraints</text>
<text text-anchor="middle" x="1006.5906" y="-130.5" font-family="Helvetica,sans-Serif" font-size="10.00" fill="#000000">/soft.h</text>
</a>
</g>
</g>
<!-- Node1&#45;&gt;Node11 -->
<g id="edge28" class="edge">
<title>Node1&#45;&gt;Node11</title>
<path fill="none" stroke="#191970" d="M729.2042,-246.422C754.7429,-236.2837 790.8603,-222.5323 822.5906,-210 866.8642,-192.5135 917.1437,-171.8906 954.0491,-157.2981"/>
<polygon fill="#191970" stroke="#191970" points="955.5843,-160.4553 963.6086,-153.5371 953.0215,-153.9413 955.5843,-160.4553"/>
</g>
<!-- Node12 -->
<g id="node13" class="node">
<title>Node12</title>
<g id="a_node13"><a xlink:href="grammar_8h.html" target="_top" xlink:title="Implementations for the RNA folding grammar. ">
<polygon fill="none" stroke="#000000" points="15.5906,-129 15.5906,-148 133.5906,-148 133.5906,-129 15.5906,-129"/>
<text text-anchor="middle" x="74.5906" y="-136" font-family="Helvetica,sans-Serif" font-size="10.00" fill="#000000">ViennaRNA/grammar.h</text>
</a>
</g>
</g>
<!-- Node1&#45;&gt;Node12 -->
<g id="edge29" class="edge">
<title>Node1&#45;&gt;Node12</title>
<path fill="none" stroke="#191970" d="M629.3735,-253.3109C561.7512,-244.1494 454.9209,-228.1864 363.5906,-210 273.942,-192.1485 170.4036,-166.0542 114.7172,-150.8214"/>
<polygon fill="#191970" stroke="#191970" points="115.4612,-147.3959 104.8903,-148.1079 113.598,-154.1434 115.4612,-147.3959"/>
</g>
<!-- Node13 -->
<g id="node14" class="node">
<title>Node13</title>
<g id="a_node14"><a xlink:href="structured__domains_8h.html" target="_top" xlink:title="This module provides interfaces that deal with additional structured domains in the folding grammar...">
<polygon fill="none" stroke="#000000" points="152.0906,-123.5 152.0906,-153.5 267.0906,-153.5 267.0906,-123.5 152.0906,-123.5"/>
<text text-anchor="start" x="160.0906" y="-141.5" font-family="Helvetica,sans-Serif" font-size="10.00" fill="#000000">ViennaRNA/structured</text>
<text text-anchor="middle" x="209.5906" y="-130.5" font-family="Helvetica,sans-Serif" font-size="10.00" fill="#000000">_domains.h</text>
</a>
</g>
</g>
<!-- Node1&#45;&gt;Node13 -->
<g id="edge30" class="edge">
<title>Node1&#45;&gt;Node13</title>
<path fill="none" stroke="#191970" d="M629.3954,-249.1673C579.3015,-239.5813 509.3409,-225.3646 448.5906,-210 385.1507,-193.9551 313.3432,-171.9436 265.1434,-156.5975"/>
<polygon fill="#191970" stroke="#191970" points="266.119,-153.235 255.5281,-153.5248 263.9881,-159.9028 266.119,-153.235"/>
</g>
<!-- Node1&#45;&gt;Node14 -->
<g id="edge32" class="edge">
<title>Node1&#45;&gt;Node14</title>
<path fill="none" stroke="#191970" d="M763.6704,-252.126C848.7722,-240.7661 995.3459,-221.7028 1087.1651,-210.0479"/>
<polygon fill="#191970" stroke="#191970" points="1087.7737,-213.4989 1097.2543,-208.7692 1086.8935,-206.5544 1087.7737,-213.4989"/>
</g>
<!-- Node3 -->
<g id="node4" class="node">
<title>Node3</title>
<polygon fill="none" stroke="#bfbfbf" points="708.5906,-.5 708.5906,-19.5 756.5906,-19.5 756.5906,-.5 708.5906,-.5"/>
<text text-anchor="middle" x="732.5906" y="-7.5" font-family="Helvetica,sans-Serif" font-size="10.00" fill="#000000">limits.h</text>
</g>
<!-- Node2&#45;&gt;Node3 -->
<g id="edge3" class="edge">
<title>Node2&#45;&gt;Node3</title>
<path fill="none" stroke="#191970" d="M732.5906,-61.8906C732.5906,-53.3657 732.5906,-40.6392 732.5906,-29.9235"/>
<polygon fill="#191970" stroke="#191970" points="736.0907,-29.7448 732.5906,-19.7449 729.0907,-29.7449 736.0907,-29.7448"/>
</g>
<!-- Node4&#45;&gt;Node0 -->
<g id="edge23" class="edge">
<title>Node4&#45;&gt;Node0</title>
<path fill="none" stroke="#191970" d="M541.073,-209.6454C557.5368,-224.6369 590.6707,-254.1775 620.5906,-277 634.5206,-287.6255 650.5,-298.6212 664.2007,-307.7102"/>
<polygon fill="#191970" stroke="#191970" points="662.552,-310.8149 672.8305,-313.3846 666.3978,-304.966 662.552,-310.8149"/>
</g>
<!-- Node4&#45;&gt;Node5 -->
<g id="edge5" class="edge">
<title>Node4&#45;&gt;Node5</title>
<path fill="none" stroke="#191970" d="M457.3876,-192.8311C402.9202,-185.9955 334.6813,-173.7613 314.5906,-154 298.0256,-137.7065 294.6738,-110.0761 294.5331,-91.3237"/>
<polygon fill="#191970" stroke="#191970" points="298.0345,-91.2939 294.7582,-81.2184 291.0363,-91.1379 298.0345,-91.2939"/>
</g>
<!-- Node4&#45;&gt;Node6 -->
<g id="edge6" class="edge">
<title>Node4&#45;&gt;Node6</title>
<path fill="none" stroke="#191970" d="M554.6531,-190.3906C580.6462,-180.0103 622.2384,-163.4004 651.3453,-151.7766"/>
<polygon fill="#191970" stroke="#191970" points="652.7083,-155.0011 660.6971,-148.0419 650.1122,-148.5003 652.7083,-155.0011"/>
</g>
<!-- Node7 -->
<g id="node8" class="node">
<title>Node7</title>
<g id="a_node8"><a xlink:href="sequence_8h.html" target="_top" xlink:title="Functions and data structures related to sequence representations ,. ">
<polygon fill="none" stroke="#000000" points="323.5906,-129 323.5906,-148 445.5906,-148 445.5906,-129 323.5906,-129"/>
<text text-anchor="middle" x="384.5906" y="-136" font-family="Helvetica,sans-Serif" font-size="10.00" fill="#000000">ViennaRNA/sequence.h</text>
</a>
</g>
</g>
<!-- Node4&#45;&gt;Node7 -->
<g id="edge10" class="edge">
<title>Node4&#45;&gt;Node7</title>
<path fill="none" stroke="#191970" d="M507.7781,-190.3906C483.2425,-180.0554 444.0464,-163.5447 416.4696,-151.9284"/>
<polygon fill="#191970" stroke="#191970" points="417.8174,-148.6984 407.243,-148.0419 415.1,-155.1495 417.8174,-148.6984"/>
</g>
<!-- Node4&#45;&gt;Node8 -->
<g id="edge11" class="edge">
<title>Node4&#45;&gt;Node8</title>
<path fill="none" stroke="#191970" d="M530.5906,-190.3906C530.5906,-181.8657 530.5906,-169.1392 530.5906,-158.4235"/>
<polygon fill="#191970" stroke="#191970" points="534.0907,-158.2448 530.5906,-148.2449 527.0907,-158.2449 534.0907,-158.2448"/>
</g>
<!-- Node4&#45;&gt;Node9 -->
<g id="edge13" class="edge">
<title>Node4&#45;&gt;Node9</title>
<path fill="none" stroke="#191970" d="M583.1874,-190.4581C641.4424,-179.8897 735.6174,-162.8049 799.9557,-151.1329"/>
<polygon fill="#191970" stroke="#191970" points="800.8007,-154.5368 810.0153,-149.3079 799.5511,-147.6492 800.8007,-154.5368"/>
</g>
<!-- Node4&#45;&gt;Node11 -->
<g id="edge17" class="edge">
<title>Node4&#45;&gt;Node11</title>
<path fill="none" stroke="#191970" d="M603.7096,-194.142C683.2797,-187.224 814.3973,-174.2418 936.8976,-154.0013"/>
<polygon fill="#191970" stroke="#191970" points="937.5438,-157.442 946.8298,-152.3409 936.3896,-150.5378 937.5438,-157.442"/>
</g>
<!-- Node4&#45;&gt;Node12 -->
<g id="edge20" class="edge">
<title>Node4&#45;&gt;Node12</title>
<path fill="none" stroke="#191970" d="M457.3148,-193.6503C379.0518,-186.3239 251.5445,-172.8215 142.5906,-154 136.3265,-152.9179 129.7718,-151.6277 123.3091,-150.2604"/>
<polygon fill="#191970" stroke="#191970" points="123.8012,-146.7853 113.2842,-148.0669 122.305,-153.6235 123.8012,-146.7853"/>
</g>
<!-- Node4&#45;&gt;Node13 -->
<g id="edge22" class="edge">
<title>Node4&#45;&gt;Node13</title>
<path fill="none" stroke="#191970" d="M476.5877,-190.4954C426.0925,-181.4964 348.6224,-167.4039 281.5906,-154 280.1409,-153.7101 278.6753,-153.4148 277.1981,-153.1151"/>
<polygon fill="#191970" stroke="#191970" points="277.8283,-149.6715 267.3282,-151.0856 276.4183,-156.5281 277.8283,-149.6715"/>
</g>
<!-- Node6&#45;&gt;Node1 -->
<g id="edge8" class="edge">
<title>Node6&#45;&gt;Node1</title>
<path fill="none" stroke="#191970" d="M689.348,-148.0493C694.35,-166.7476 699.035,-208.7435 699.6981,-236.0615"/>
<polygon fill="#191970" stroke="#191970" points="696.1993,-236.4298 699.7335,-246.4178 703.1992,-236.4059 696.1993,-236.4298"/>
</g>
<!-- Node6&#45;&gt;Node2 -->
<g id="edge7" class="edge">
<title>Node6&#45;&gt;Node2</title>
<path fill="none" stroke="#191970" d="M691.4679,-128.9005C698.8105,-118.6515 710.6147,-102.1747 719.6968,-89.4976"/>
<polygon fill="#191970" stroke="#191970" points="722.7475,-91.2492 725.7262,-81.0817 717.0571,-87.1724 722.7475,-91.2492"/>
</g>
<!-- Node6&#45;&gt;Node5 -->
<g id="edge9" class="edge">
<title>Node6&#45;&gt;Node5</title>
<path fill="none" stroke="#191970" d="M637.0092,-128.9317C626.6624,-126.9162 615.7679,-124.8434 605.5906,-123 520.2854,-107.549 421.441,-91.4369 358.7328,-81.4376"/>
<polygon fill="#191970" stroke="#191970" points="359.0302,-77.941 348.6044,-79.8256 357.9299,-84.854 359.0302,-77.941"/>
</g>
<!-- Node8&#45;&gt;Node1 -->
<g id="edge12" class="edge">
<title>Node8&#45;&gt;Node1</title>
<path fill="none" stroke="#191970" d="M554.1897,-148.0823C573.2945,-157.9493 599.9041,-174.0886 621.5906,-190 642.4972,-205.3391 664.7866,-224.4536 679.8161,-239.059"/>
<polygon fill="#191970" stroke="#191970" points="677.432,-241.625 686.9681,-246.2417 682.3924,-236.6859 677.432,-241.625"/>
</g>
<!-- Node9&#45;&gt;Node1 -->
<g id="edge14" class="edge">
<title>Node9&#45;&gt;Node1</title>
<path fill="none" stroke="#191970" d="M863.2056,-153.5018C851.4726,-168.9507 828.078,-193.0917 804.5906,-210 787.5079,-222.2976 767.094,-233.4328 748.5651,-242.1773"/>
<polygon fill="#191970" stroke="#191970" points="746.9909,-239.0487 739.3603,-246.3988 749.909,-245.4114 746.9909,-239.0487"/>
</g>
<!-- Node10 -->
<g id="node11" class="node">
<title>Node10</title>
<g id="a_node11"><a xlink:href="constraints_2basic_8h.html" target="_top" xlink:title="Functions and data structures for constraining secondary structure predictions and evaluation...">
<polygon fill="none" stroke="#000000" points="947.0906,-56.5 947.0906,-86.5 1066.0906,-86.5 1066.0906,-56.5 947.0906,-56.5"/>
<text text-anchor="start" x="955.0906" y="-74.5" font-family="Helvetica,sans-Serif" font-size="10.00" fill="#000000">ViennaRNA/constraints</text>
<text text-anchor="middle" x="1006.5906" y="-63.5" font-family="Helvetica,sans-Serif" font-size="10.00" fill="#000000">/basic.h</text>
</a>
</g>
</g>
<!-- Node9&#45;&gt;Node10 -->
<g id="edge15" class="edge">
<title>Node9&#45;&gt;Node10</title>
<path fill="none" stroke="#191970" d="M900.3361,-123.4639C919.853,-113.9191 945.3163,-101.4663 966.4231,-91.144"/>
<polygon fill="#191970" stroke="#191970" points="968.0282,-94.2552 975.4738,-86.7177 964.9528,-87.9669 968.0282,-94.2552"/>
</g>
<!-- Node10&#45;&gt;Node1 -->
<g id="edge16" class="edge">
<title>Node10&#45;&gt;Node1</title>
<path fill="none" stroke="#191970" d="M1034.1998,-86.6849C1060.2483,-102.9954 1092.7935,-129.8339 1074.5906,-154 1038.4761,-201.9456 873.4301,-234.7678 773.7515,-250.6055"/>
<polygon fill="#191970" stroke="#191970" points="773.0585,-247.1713 763.7208,-252.1771 774.1421,-254.087 773.0585,-247.1713"/>
</g>
<!-- Node11&#45;&gt;Node1 -->
<g id="edge18" class="edge">
<title>Node11&#45;&gt;Node1</title>
<path fill="none" stroke="#191970" d="M977.3768,-153.5371C944.1778,-168.1797 888.8206,-190.9509 840.5906,-210 812.3308,-221.1616 780.5911,-233.2902 754.0375,-242.972"/>
<polygon fill="#191970" stroke="#191970" points="752.7173,-239.7276 744.5054,-246.422 755.0996,-246.3098 752.7173,-239.7276"/>
</g>
<!-- Node11&#45;&gt;Node10 -->
<g id="edge19" class="edge">
<title>Node11&#45;&gt;Node10</title>
<path fill="none" stroke="#191970" d="M1006.5906,-123.2967C1006.5906,-115.5013 1006.5906,-105.7991 1006.5906,-96.9064"/>
<polygon fill="#191970" stroke="#191970" points="1010.0907,-96.6431 1006.5906,-86.6432 1003.0907,-96.6432 1010.0907,-96.6431"/>
</g>
<!-- Node12&#45;&gt;Node1 -->
<g id="edge21" class="edge">
<title>Node12&#45;&gt;Node1</title>
<path fill="none" stroke="#191970" d="M116.3689,-148.1079C175.4612,-162.7741 286.3622,-191.0374 381.5906,-210 462.4505,-226.1014 555.4602,-240.4601 619.3984,-249.8987"/>
<polygon fill="#191970" stroke="#191970" points="619.0012,-253.3779 629.4041,-251.3708 620.0201,-246.4524 619.0012,-253.3779"/>
</g>
<!-- Node14&#45;&gt;Node1 -->
<g id="edge34" class="edge">
<title>Node14&#45;&gt;Node1</title>
<path fill="none" stroke="#191970" d="M1101.297,-209.536C1014.3269,-221.1404 864.5896,-240.608 773.634,-252.1347"/>
<polygon fill="#191970" stroke="#191970" points="773.1407,-248.6691 763.6592,-253.3967 774.0194,-255.6138 773.1407,-248.6691"/>
</g>
<!-- Node15 -->
<g id="node16" class="node">
<title>Node15</title>
<polygon fill="none" stroke="#bfbfbf" points="1146.5906,-129 1146.5906,-148 1192.5906,-148 1192.5906,-129 1146.5906,-129"/>
<text text-anchor="middle" x="1169.5906" y="-136" font-family="Helvetica,sans-Serif" font-size="10.00" fill="#000000">stdio.h</text>
</g>
<!-- Node14&#45;&gt;Node15 -->
<g id="edge33" class="edge">
<title>Node14&#45;&gt;Node15</title>
<path fill="none" stroke="#191970" d="M1169.5906,-190.3906C1169.5906,-181.8657 1169.5906,-169.1392 1169.5906,-158.4235"/>
<polygon fill="#191970" stroke="#191970" points="1173.0907,-158.2448 1169.5906,-148.2449 1166.0907,-158.2449 1173.0907,-158.2448"/>
</g>
</g>
</svg>
        <g id="navigator" transform="translate(0 0)" fill="#404254">
                <rect fill="#f2f5e9" fill-opacity="0.5" stroke="#606060" stroke-width=".5" x="0" y="0" width="60" height="60"/>
                <use id="zoomplus" xlink:href="#zoomPlus" x="17" y="9" onmousedown="handleZoom(evt,'in')"/>
                <use id="zoomminus" xlink:href="#zoomMin" x="42" y="9" onmousedown="handleZoom(evt,'out')"/>
                <use id="reset" xlink:href="#resetDef" x="30" y="36" onmousedown="handleReset()"/>
                <g id="arrowUp" xlink:href="#dirArrow" transform="translate(30 24)" onmousedown="handlePan(0,-1)">
                  <use xlink:href="#rim" fill="#404040">
                        <set attributeName="fill" to="#808080" begin="arrowUp.mouseover" end="arrowUp.mouseout"/>
                  </use>
                  <path fill="none" stroke="white" stroke-width="1.5" d="M0,-3.0v7 M-2.5,-0.5L0,-3.0L2.5,-0.5"/>
                </g>
                <g id="arrowRight" xlink:href="#dirArrow" transform="rotate(90) translate(36 -43)" onmousedown="handlePan(1,0)">
                  <use xlink:href="#rim" fill="#404040">
                        <set attributeName="fill" to="#808080" begin="arrowRight.mouseover" end="arrowRight.mouseout"/>
                  </use>
                  <path fill="none" stroke="white" stroke-width="1.5" d="M0,-3.0v7 M-2.5,-0.5L0,-3.0L2.5,-0.5"/>
                </g>
                <g id="arrowDown" xlink:href="#dirArrow" transform="rotate(180) translate(-30 -48)" onmousedown="handlePan(0,1)">
                  <use xlink:href="#rim" fill="#404040">
                        <set attributeName="fill" to="#808080" begin="arrowDown.mouseover" end="arrowDown.mouseout"/>
                  </use>
                  <path fill="none" stroke="white" stroke-width="1.5" d="M0,-3.0v7 M-2.5,-0.5L0,-3.0L2.5,-0.5"/>
                </g>
                <g id="arrowLeft" xlink:href="#dirArrow" transform="rotate(270) translate(-36 17)" onmousedown="handlePan(-1,0)">
                  <use xlink:href="#rim" fill="#404040">
                        <set attributeName="fill" to="#808080" begin="arrowLeft.mouseover" end="arrowLeft.mouseout"/>
                  </use>
                  <path fill="none" stroke="white" stroke-width="1.5" d="M0,-3.0v7 M-2.5,-0.5L0,-3.0L2.5,-0.5"/>
                </g>
        </g>
        <svg viewBox="0 0 15 15" width="100%" height="30px" preserveAspectRatio="xMaxYMin meet">
         <g id="arrow_out" transform="scale(0.3 0.3)">
          <a xlink:href="unstructured__domains_8h__incl_org.svg" target="_base">
           <rect id="button" ry="5" rx="5" y="6" x="6" height="38" width="38"
                fill="#f2f5e9" fill-opacity="0.5" stroke="#606060" stroke-width="1.0"/>
           <path id="arrow"
             d="M 11.500037,31.436501 C 11.940474,20.09759 22.043105,11.32322 32.158766,21.979434 L 37.068811,17.246167 C 37.068811,17.246167 37.088388,32 37.088388,32 L 22.160133,31.978069 C 22.160133,31.978069 26.997745,27.140456 26.997745,27.140456 C 18.528582,18.264221 13.291696,25.230495 11.500037,31.436501 z"
             style="fill:#404040;"/>
          </a>
         </g>
        </svg>
</svg>
