<?xml version="1.0" encoding="UTF-8" standalone="no"?>
<!DOCTYPE svg PUBLIC "-//W3C//DTD SVG 1.1//EN"
 "http://www.w3.org/Graphics/SVG/1.1/DTD/svg11.dtd">
<!-- Generated by graphviz version 2.40.1 (20161225.0304)
 -->
<!-- Title: ViennaRNA/utils/alignments.h Pages: 1 -->
<svg width="242pt" height="84pt"
 viewBox="0.00 0.00 241.50 84.00" xmlns="http://www.w3.org/2000/svg" xmlns:xlink="http://www.w3.org/1999/xlink">
<g id="graph0" class="graph" transform="scale(1 1) rotate(0) translate(4 80)">
<title>ViennaRNA/utils/alignments.h</title>
<!-- Node17 -->
<g id="node1" class="node">
<title>Node17</title>
<polygon fill="#bfbfbf" stroke="#000000" points="41.5,-56.5 41.5,-75.5 189.5,-75.5 189.5,-56.5 41.5,-56.5"/>
<text text-anchor="middle" x="115.5" y="-63.5" font-family="Helvetica,sans-Serif" font-size="10.00" fill="#000000">ViennaRNA/utils/alignments.h</text>
</g>
<!-- Node18 -->
<g id="node2" class="node">
<title>Node18</title>
<g id="a_node2"><a xlink:href="alifold_8h.html" target="_top" xlink:title="Functions for comparative structure prediction using RNA sequence alignments. ">
<polygon fill="none" stroke="#000000" points="0,-.5 0,-19.5 105,-19.5 105,-.5 0,-.5"/>
<text text-anchor="middle" x="52.5" y="-7.5" font-family="Helvetica,sans-Serif" font-size="10.00" fill="#000000">ViennaRNA/alifold.h</text>
</a>
</g>
</g>
<!-- Node17&#45;&gt;Node18 -->
<g id="edge1" class="edge">
<title>Node17&#45;&gt;Node18</title>
<path fill="none" stroke="#191970" d="M96.7808,-49.3607C85.8818,-39.6727 72.5245,-27.7995 63.348,-19.6427"/>
<polygon fill="#191970" stroke="#191970" points="94.7268,-52.2178 104.5262,-56.2455 99.3774,-46.9859 94.7268,-52.2178"/>
</g>
<!-- Node19 -->
<g id="node3" class="node">
<title>Node19</title>
<g id="a_node3"><a xlink:href="aln__util_8h.html" target="_top" xlink:title="Use ViennaRNA/utils/alignments.h instead. ">
<polygon fill="none" stroke="#000000" points="123.5,-.5 123.5,-19.5 233.5,-19.5 233.5,-.5 123.5,-.5"/>
<text text-anchor="middle" x="178.5" y="-7.5" font-family="Helvetica,sans-Serif" font-size="10.00" fill="#000000">ViennaRNA/aln_util.h</text>
</a>
</g>
</g>
<!-- Node17&#45;&gt;Node19 -->
<g id="edge2" class="edge">
<title>Node17&#45;&gt;Node19</title>
<path fill="none" stroke="#191970" d="M134.2192,-49.3607C145.1182,-39.6727 158.4755,-27.7995 167.652,-19.6427"/>
<polygon fill="#191970" stroke="#191970" points="131.6226,-46.9859 126.4738,-56.2455 136.2732,-52.2178 131.6226,-46.9859"/>
</g>
</g>
</svg>
