<?xml version="1.0" encoding="UTF-8" standalone="no"?>
<!DOCTYPE svg PUBLIC "-//W3C//DTD SVG 1.1//EN"
 "http://www.w3.org/Graphics/SVG/1.1/DTD/svg11.dtd">
<!-- Generated by graphviz version 2.40.1 (20161225.0304)
 -->
<!-- Title: ViennaRNA/utils/basic.h Pages: 1 -->
<svg width="748pt" height="207pt"
 viewBox="0.00 0.00 747.50 207.00" xmlns="http://www.w3.org/2000/svg" xmlns:xlink="http://www.w3.org/1999/xlink">
<g id="graph0" class="graph" transform="scale(1 1) rotate(0) translate(4 203)">
<title>ViennaRNA/utils/basic.h</title>
<!-- Node18 -->
<g id="node1" class="node">
<title>Node18</title>
<polygon fill="#bfbfbf" stroke="#000000" points="256.5,-179.5 256.5,-198.5 380.5,-198.5 380.5,-179.5 256.5,-179.5"/>
<text text-anchor="middle" x="318.5" y="-186.5" font-family="Helvetica,sans-Serif" font-size="10.00" fill="#000000">ViennaRNA/utils/basic.h</text>
</g>
<!-- Node19 -->
<g id="node2" class="node">
<title>Node19</title>
<g id="a_node2"><a xlink:href="pair__mat_8h_source.html" target="_top" xlink:title="ViennaRNA/pair_mat.h">
<polygon fill="none" stroke="#000000" points="0,-123.5 0,-142.5 117,-142.5 117,-123.5 0,-123.5"/>
<text text-anchor="middle" x="58.5" y="-130.5" font-family="Helvetica,sans-Serif" font-size="10.00" fill="#000000">ViennaRNA/pair_mat.h</text>
</a>
</g>
</g>
<!-- Node18&#45;&gt;Node19 -->
<g id="edge1" class="edge">
<title>Node18&#45;&gt;Node19</title>
<path fill="none" stroke="#191970" d="M264.2124,-177.3073C216.3029,-166.9883 147.3345,-152.1336 102.717,-142.5237"/>
<polygon fill="#191970" stroke="#191970" points="263.587,-180.7528 274.0998,-179.4369 265.061,-173.9097 263.587,-180.7528"/>
</g>
<!-- Node20 -->
<g id="node3" class="node">
<title>Node20</title>
<g id="a_node3"><a xlink:href="utils_8h.html" target="_top" xlink:title="Use ViennaRNA/utils/basic.h instead. ">
<polygon fill="none" stroke="#000000" points="135.5,-123.5 135.5,-142.5 233.5,-142.5 233.5,-123.5 135.5,-123.5"/>
<text text-anchor="middle" x="184.5" y="-130.5" font-family="Helvetica,sans-Serif" font-size="10.00" fill="#000000">ViennaRNA/utils.h</text>
</a>
</g>
</g>
<!-- Node18&#45;&gt;Node20 -->
<g id="edge2" class="edge">
<title>Node18&#45;&gt;Node20</title>
<path fill="none" stroke="#191970" d="M285.9172,-175.3833C261.5464,-165.1985 228.8358,-151.5284 207.2348,-142.5011"/>
<polygon fill="#191970" stroke="#191970" points="284.8883,-178.7466 295.4646,-179.3733 287.5875,-172.2879 284.8883,-178.7466"/>
</g>
<!-- Node21 -->
<g id="node4" class="node">
<title>Node21</title>
<g id="a_node4"><a xlink:href="hairpin_8h.html" target="_top" xlink:title="Energy evaluation of hairpin loops for MFE and partition function calculations. ">
<polygon fill="none" stroke="#000000" points="251.5,-123.5 251.5,-142.5 385.5,-142.5 385.5,-123.5 251.5,-123.5"/>
<text text-anchor="middle" x="318.5" y="-130.5" font-family="Helvetica,sans-Serif" font-size="10.00" fill="#000000">ViennaRNA/loops/hairpin.h</text>
</a>
</g>
</g>
<!-- Node18&#45;&gt;Node21 -->
<g id="edge3" class="edge">
<title>Node18&#45;&gt;Node21</title>
<path fill="none" stroke="#191970" d="M318.5,-169.1575C318.5,-160.155 318.5,-149.9199 318.5,-142.6427"/>
<polygon fill="#191970" stroke="#191970" points="315.0001,-169.2455 318.5,-179.2455 322.0001,-169.2456 315.0001,-169.2455"/>
</g>
<!-- Node25 -->
<g id="node8" class="node">
<title>Node25</title>
<g id="a_node8"><a xlink:href="internal_8h.html" target="_top" xlink:title="Energy evaluation of interior loops for MFE and partition function calculations. ">
<polygon fill="none" stroke="#000000" points="404,-123.5 404,-142.5 541,-142.5 541,-123.5 404,-123.5"/>
<text text-anchor="middle" x="472.5" y="-130.5" font-family="Helvetica,sans-Serif" font-size="10.00" fill="#000000">ViennaRNA/loops/internal.h</text>
</a>
</g>
</g>
<!-- Node18&#45;&gt;Node25 -->
<g id="edge7" class="edge">
<title>Node18&#45;&gt;Node25</title>
<path fill="none" stroke="#191970" d="M354.4614,-175.9231C382.6134,-165.686 421.1055,-151.6889 446.3719,-142.5011"/>
<polygon fill="#191970" stroke="#191970" points="353.1754,-172.6665 344.9735,-179.3733 355.5676,-179.245 353.1754,-172.6665"/>
</g>
<!-- Node27 -->
<g id="node10" class="node">
<title>Node27</title>
<g id="a_node10"><a xlink:href="multibranch_8h.html" target="_top" xlink:title="Energy evaluation of multibranch loops for MFE and partition function calculations. ">
<polygon fill="none" stroke="#000000" points="559.5,-123.5 559.5,-142.5 715.5,-142.5 715.5,-123.5 559.5,-123.5"/>
<text text-anchor="middle" x="637.5" y="-130.5" font-family="Helvetica,sans-Serif" font-size="10.00" fill="#000000">ViennaRNA/loops/multibranch.h</text>
</a>
</g>
</g>
<!-- Node18&#45;&gt;Node27 -->
<g id="edge10" class="edge">
<title>Node18&#45;&gt;Node27</title>
<path fill="none" stroke="#191970" d="M382.9055,-177.6937C441.7589,-167.3621 527.8198,-152.2542 583.2491,-142.5237"/>
<polygon fill="#191970" stroke="#191970" points="382.2198,-174.2605 372.9756,-179.4369 383.4302,-181.155 382.2198,-174.2605"/>
</g>
<!-- Node22 -->
<g id="node5" class="node">
<title>Node22</title>
<g id="a_node5"><a xlink:href="hairpin__loops_8h.html" target="_top" xlink:title="Use ViennaRNA/loops/hairpin.h instead. ">
<polygon fill="none" stroke="#000000" points="208,-62 208,-81 345,-81 345,-62 208,-62"/>
<text text-anchor="middle" x="276.5" y="-69" font-family="Helvetica,sans-Serif" font-size="10.00" fill="#000000">ViennaRNA/hairpin_loops.h</text>
</a>
</g>
</g>
<!-- Node21&#45;&gt;Node22 -->
<g id="edge4" class="edge">
<title>Node21&#45;&gt;Node22</title>
<path fill="none" stroke="#191970" d="M306.1506,-114.9169C298.6298,-103.9043 289.3151,-90.265 283.155,-81.2449"/>
<polygon fill="#191970" stroke="#191970" points="303.4075,-117.1065 311.9375,-123.3906 309.1882,-113.1587 303.4075,-117.1065"/>
</g>
<!-- Node23 -->
<g id="node6" class="node">
<title>Node23</title>
<g id="a_node6"><a xlink:href="all_8h.html" target="_top" xlink:title="Energy evaluation for MFE and partition function calculations. ">
<polygon fill="none" stroke="#000000" points="363.5,-62 363.5,-81 479.5,-81 479.5,-62 363.5,-62"/>
<text text-anchor="middle" x="421.5" y="-69" font-family="Helvetica,sans-Serif" font-size="10.00" fill="#000000">ViennaRNA/loops/all.h</text>
</a>
</g>
</g>
<!-- Node21&#45;&gt;Node23 -->
<g id="edge5" class="edge">
<title>Node21&#45;&gt;Node23</title>
<path fill="none" stroke="#191970" d="M343.189,-118.2585C362.5268,-106.7122 388.8582,-90.99 405.5193,-81.0419"/>
<polygon fill="#191970" stroke="#191970" points="341.3854,-115.2589 334.5938,-123.3906 344.974,-121.2691 341.3854,-115.2589"/>
</g>
<!-- Node24 -->
<g id="node7" class="node">
<title>Node24</title>
<g id="a_node7"><a xlink:href="loop__energies_8h.html" target="_top" xlink:title="Use ViennaRNA/loops/all.h instead. ">
<polygon fill="none" stroke="#000000" points="351.5,-.5 351.5,-19.5 491.5,-19.5 491.5,-.5 351.5,-.5"/>
<text text-anchor="middle" x="421.5" y="-7.5" font-family="Helvetica,sans-Serif" font-size="10.00" fill="#000000">ViennaRNA/loop_energies.h</text>
</a>
</g>
</g>
<!-- Node23&#45;&gt;Node24 -->
<g id="edge6" class="edge">
<title>Node23&#45;&gt;Node24</title>
<path fill="none" stroke="#191970" d="M421.5,-51.7462C421.5,-41.0519 421.5,-28.314 421.5,-19.7449"/>
<polygon fill="#191970" stroke="#191970" points="418.0001,-51.8906 421.5,-61.8906 425.0001,-51.8907 418.0001,-51.8906"/>
</g>
<!-- Node25&#45;&gt;Node23 -->
<g id="edge9" class="edge">
<title>Node25&#45;&gt;Node23</title>
<path fill="none" stroke="#191970" d="M458.0495,-115.5744C448.8258,-104.4517 437.2108,-90.4454 429.5811,-81.2449"/>
<polygon fill="#191970" stroke="#191970" points="455.4537,-117.9272 464.5313,-123.3906 460.842,-113.4588 455.4537,-117.9272"/>
</g>
<!-- Node26 -->
<g id="node9" class="node">
<title>Node26</title>
<g id="a_node9"><a xlink:href="interior__loops_8h.html" target="_top" xlink:title="Use ViennaRNA/loops/internal.h instead. ">
<polygon fill="none" stroke="#000000" points="498,-56.5 498,-86.5 599,-86.5 599,-56.5 498,-56.5"/>
<text text-anchor="start" x="506" y="-74.5" font-family="Helvetica,sans-Serif" font-size="10.00" fill="#000000">ViennaRNA/interior</text>
<text text-anchor="middle" x="548.5" y="-63.5" font-family="Helvetica,sans-Serif" font-size="10.00" fill="#000000">_loops.h</text>
</a>
</g>
</g>
<!-- Node25&#45;&gt;Node26 -->
<g id="edge8" class="edge">
<title>Node25&#45;&gt;Node26</title>
<path fill="none" stroke="#191970" d="M492.2248,-117.0385C503.8545,-107.6276 518.4817,-95.7911 529.9083,-86.5446"/>
<polygon fill="#191970" stroke="#191970" points="489.947,-114.3793 484.375,-123.3906 494.3504,-119.8209 489.947,-114.3793"/>
</g>
<!-- Node27&#45;&gt;Node23 -->
<g id="edge12" class="edge">
<title>Node27&#45;&gt;Node23</title>
<path fill="none" stroke="#191970" d="M594.0292,-120.6229C553.0174,-108.9459 492.4033,-91.6877 455.013,-81.0419"/>
<polygon fill="#191970" stroke="#191970" points="593.1738,-124.0184 603.75,-123.3906 595.0907,-117.2859 593.1738,-124.0184"/>
</g>
<!-- Node28 -->
<g id="node11" class="node">
<title>Node28</title>
<g id="a_node11"><a xlink:href="multibranch__loops_8h.html" target="_top" xlink:title="Use ViennaRNA/loops/multibranch.h instead. ">
<polygon fill="none" stroke="#000000" points="617.5,-56.5 617.5,-86.5 739.5,-86.5 739.5,-56.5 617.5,-56.5"/>
<text text-anchor="start" x="625.5" y="-74.5" font-family="Helvetica,sans-Serif" font-size="10.00" fill="#000000">ViennaRNA/multibranch</text>
<text text-anchor="middle" x="678.5" y="-63.5" font-family="Helvetica,sans-Serif" font-size="10.00" fill="#000000">_loops.h</text>
</a>
</g>
</g>
<!-- Node27&#45;&gt;Node28 -->
<g id="edge11" class="edge">
<title>Node27&#45;&gt;Node28</title>
<path fill="none" stroke="#191970" d="M649.6306,-114.8041C655.6303,-105.8045 662.7847,-95.073 668.4703,-86.5446"/>
<polygon fill="#191970" stroke="#191970" points="646.5411,-113.1286 643.9063,-123.3906 652.3655,-117.0116 646.5411,-113.1286"/>
</g>
</g>
</svg>
