<?xml version="1.0" encoding="UTF-8" standalone="no"?>
<!DOCTYPE svg PUBLIC "-//W3C//DTD SVG 1.1//EN"
 "http://www.w3.org/Graphics/SVG/1.1/DTD/svg11.dtd">
<!-- Generated by graphviz version 2.40.1 (20161225.0304)
 -->
<!-- Title: ViennaRNA/utils/alignments.h Pages: 1 -->
<!--zoomable 397 -->
<svg id="main" version="1.1" xmlns="http://www.w3.org/2000/svg" xmlns:xlink="http://www.w3.org/1999/xlink" xml:space="preserve" onload="init(evt)">
<style type="text/css"><![CDATA[
.edge:hover path { stroke: red; }
.edge:hover polygon { stroke: red; fill: red; }
]]></style>
<script type="text/javascript"><![CDATA[
var edges = document.getElementsByTagName('g');
if (edges && edges.length) {
  for (var i=0;i<edges.length;i++) {
    if (edges[i].id.substr(0,4)=='edge') {
      edges[i].setAttribute('class','edge');
    }
  }
}
]]></script>
        <defs>
                <circle id="rim" cx="0" cy="0" r="7"/>
                <circle id="rim2" cx="0" cy="0" r="3.5"/>
                <g id="zoomPlus">
                        <use xlink:href="#rim" fill="#404040">
                                <set attributeName="fill" to="#808080" begin="zoomplus.mouseover" end="zoomplus.mouseout"/>
                        </use>
                        <path d="M-4,0h8M0,-4v8" fill="none" stroke="white" stroke-width="1.5" pointer-events="none"/>
                </g>
                <g id="zoomMin">
                        <use xlink:href="#rim" fill="#404040">
                                <set attributeName="fill" to="#808080" begin="zoomminus.mouseover" end="zoomminus.mouseout"/>
                        </use>
                        <path d="M-4,0h8" fill="none" stroke="white" stroke-width="1.5" pointer-events="none"/>
                </g>
                <g id="dirArrow">
                        <path fill="none" stroke="white" stroke-width="1.5" d="M0,-3.0v7 M-2.5,-0.5L0,-3.0L2.5,-0.5"/>
                </g>
               <g id="resetDef">
                       <use xlink:href="#rim2" fill="#404040">
                               <set attributeName="fill" to="#808080" begin="reset.mouseover" end="reset.mouseout"/>
                       </use>
               </g>
        </defs>

<script type="text/javascript">
var viewWidth = 1225;
var viewHeight = 397;
var sectionId = 'dynsection-0';
</script>
<script xlink:href="svgpan.js"/>
<svg id="graph" class="graph">
<g id="viewport">
<title>ViennaRNA/utils/alignments.h</title>
<!-- Node0 -->
<g id="node1" class="node">
<title>Node0</title>
<polygon fill="#bfbfbf" stroke="#000000" points="651,-369.5 651,-388.5 799,-388.5 799,-369.5 651,-369.5"/>
<text text-anchor="middle" x="725" y="-376.5" font-family="Helvetica,sans-Serif" font-size="10.00" fill="#000000">ViennaRNA/utils/alignments.h</text>
</g>
<!-- Node1 -->
<g id="node2" class="node">
<title>Node1</title>
<g id="a_node2"><a xlink:href="fold__compound_8h.html" target="_top" xlink:title="The Basic Fold Compound API. ">
<polygon fill="none" stroke="#000000" points="652,-313.5 652,-332.5 798,-332.5 798,-313.5 652,-313.5"/>
<text text-anchor="middle" x="725" y="-320.5" font-family="Helvetica,sans-Serif" font-size="10.00" fill="#000000">ViennaRNA/fold_compound.h</text>
</a>
</g>
</g>
<!-- Node0&#45;&gt;Node1 -->
<g id="edge1" class="edge">
<title>Node0&#45;&gt;Node1</title>
<path fill="none" stroke="#191970" d="M725,-369.2455C725,-361.9382 725,-351.6944 725,-342.7046"/>
<polygon fill="#191970" stroke="#191970" points="728.5001,-342.6426 725,-332.6427 721.5001,-342.6427 728.5001,-342.6426"/>
</g>
<!-- Node2 -->
<g id="node3" class="node">
<title>Node2</title>
<g id="a_node3"><a xlink:href="model_8h.html" target="_top" xlink:title="The model details data structure and its corresponding modifiers. ">
<polygon fill="none" stroke="#000000" points="0,-129 0,-148 106,-148 106,-129 0,-129"/>
<text text-anchor="middle" x="53" y="-136" font-family="Helvetica,sans-Serif" font-size="10.00" fill="#000000">ViennaRNA/model.h</text>
</a>
</g>
</g>
<!-- Node1&#45;&gt;Node2 -->
<g id="edge2" class="edge">
<title>Node1&#45;&gt;Node2</title>
<path fill="none" stroke="#191970" d="M656.1934,-313.4725C602.2087,-305.4281 525.3539,-292.7175 459,-277 375.4065,-257.1989 355.3928,-248.4803 274,-221 206.8631,-198.3329 129.5252,-168.6199 86.4434,-151.7395"/>
<polygon fill="#191970" stroke="#191970" points="87.6077,-148.4365 77.0204,-148.0378 85.0482,-154.9519 87.6077,-148.4365"/>
</g>
<!-- Node3 -->
<g id="node4" class="node">
<title>Node3</title>
<g id="a_node4"><a xlink:href="params_2basic_8h.html" target="_top" xlink:title="Functions to deal with sets of energy parameters. ">
<polygon fill="none" stroke="#000000" points="540,-257.5 540,-276.5 678,-276.5 678,-257.5 540,-257.5"/>
<text text-anchor="middle" x="609" y="-264.5" font-family="Helvetica,sans-Serif" font-size="10.00" fill="#000000">ViennaRNA/params/basic.h</text>
</a>
</g>
</g>
<!-- Node1&#45;&gt;Node3 -->
<g id="edge3" class="edge">
<title>Node1&#45;&gt;Node3</title>
<path fill="none" stroke="#191970" d="M705.0589,-313.3733C686.5214,-304.4241 658.6972,-290.9917 637.7587,-280.8835"/>
<polygon fill="#191970" stroke="#191970" points="639.2081,-277.6967 628.6809,-276.5011 636.1648,-284.0006 639.2081,-277.6967"/>
</g>
<!-- Node7 -->
<g id="node8" class="node">
<title>Node7</title>
<g id="a_node8"><a xlink:href="dp__matrices_8h.html" target="_top" xlink:title="Functions to deal with standard dynamic programming (DP) matrices. ">
<polygon fill="none" stroke="#000000" points="124.5,-129 124.5,-148 257.5,-148 257.5,-129 124.5,-129"/>
<text text-anchor="middle" x="191" y="-136" font-family="Helvetica,sans-Serif" font-size="10.00" fill="#000000">ViennaRNA/dp_matrices.h</text>
</a>
</g>
</g>
<!-- Node1&#45;&gt;Node7 -->
<g id="edge31" class="edge">
<title>Node1&#45;&gt;Node7</title>
<path fill="none" stroke="#191970" d="M667.3554,-313.4985C624.4963,-305.6989 564.8822,-293.2914 514,-277 401.3509,-240.9322 274.0873,-180.067 218.9423,-152.6441"/>
<polygon fill="#191970" stroke="#191970" points="220.3179,-149.4189 209.8081,-148.0789 217.1884,-155.6804 220.3179,-149.4189"/>
</g>
<!-- Node8 -->
<g id="node9" class="node">
<title>Node8</title>
<g id="a_node9"><a xlink:href="hard_8h.html" target="_top" xlink:title="Functions and data structures for handling of secondary structure hard constraints. ">
<polygon fill="none" stroke="#000000" points="452.5,-123.5 452.5,-153.5 571.5,-153.5 571.5,-123.5 452.5,-123.5"/>
<text text-anchor="start" x="460.5" y="-141.5" font-family="Helvetica,sans-Serif" font-size="10.00" fill="#000000">ViennaRNA/constraints</text>
<text text-anchor="middle" x="512" y="-130.5" font-family="Helvetica,sans-Serif" font-size="10.00" fill="#000000">/hard.h</text>
</a>
</g>
</g>
<!-- Node1&#45;&gt;Node8 -->
<g id="edge32" class="edge">
<title>Node1&#45;&gt;Node8</title>
<path fill="none" stroke="#191970" d="M651.8893,-314.3139C603.9821,-307.0581 547.3162,-294.9716 531,-277 502.9804,-246.1377 504.0054,-194.3468 507.7148,-163.6005"/>
<polygon fill="#191970" stroke="#191970" points="511.1847,-164.0585 509.0956,-153.6717 504.2515,-163.0942 511.1847,-164.0585"/>
</g>
<!-- Node10 -->
<g id="node11" class="node">
<title>Node10</title>
<g id="a_node11"><a xlink:href="soft_8h.html" target="_top" xlink:title="Functions and data structures for secondary structure soft constraints. ">
<polygon fill="none" stroke="#000000" points="684.5,-123.5 684.5,-153.5 803.5,-153.5 803.5,-123.5 684.5,-123.5"/>
<text text-anchor="start" x="692.5" y="-141.5" font-family="Helvetica,sans-Serif" font-size="10.00" fill="#000000">ViennaRNA/constraints</text>
<text text-anchor="middle" x="744" y="-130.5" font-family="Helvetica,sans-Serif" font-size="10.00" fill="#000000">/soft.h</text>
</a>
</g>
</g>
<!-- Node1&#45;&gt;Node10 -->
<g id="edge33" class="edge">
<title>Node1&#45;&gt;Node10</title>
<path fill="none" stroke="#191970" d="M725.9948,-313.3402C728.8475,-285.6387 737.1243,-205.2663 741.3902,-163.8429"/>
<polygon fill="#191970" stroke="#191970" points="744.8881,-164.0423 742.4309,-153.7363 737.9249,-163.3252 744.8881,-164.0423"/>
</g>
<!-- Node11 -->
<g id="node12" class="node">
<title>Node11</title>
<g id="a_node12"><a xlink:href="grammar_8h.html" target="_top" xlink:title="Implementations for the RNA folding grammar. ">
<polygon fill="none" stroke="#000000" points="822,-129 822,-148 940,-148 940,-129 822,-129"/>
<text text-anchor="middle" x="881" y="-136" font-family="Helvetica,sans-Serif" font-size="10.00" fill="#000000">ViennaRNA/grammar.h</text>
</a>
</g>
</g>
<!-- Node1&#45;&gt;Node11 -->
<g id="edge34" class="edge">
<title>Node1&#45;&gt;Node11</title>
<path fill="none" stroke="#191970" d="M729.1261,-313.3832C739.4439,-290.1324 768.2683,-229.854 806,-190 819.8489,-175.3722 838.5125,-162.5377 853.7569,-153.3401"/>
<polygon fill="#191970" stroke="#191970" points="855.8618,-156.1641 862.7332,-148.0997 852.3325,-150.1189 855.8618,-156.1641"/>
</g>
<!-- Node12 -->
<g id="node13" class="node">
<title>Node12</title>
<g id="a_node13"><a xlink:href="structured__domains_8h.html" target="_top" xlink:title="This module provides interfaces that deal with additional structured domains in the folding grammar...">
<polygon fill="none" stroke="#000000" points="1101.5,-123.5 1101.5,-153.5 1216.5,-153.5 1216.5,-123.5 1101.5,-123.5"/>
<text text-anchor="start" x="1109.5" y="-141.5" font-family="Helvetica,sans-Serif" font-size="10.00" fill="#000000">ViennaRNA/structured</text>
<text text-anchor="middle" x="1159" y="-130.5" font-family="Helvetica,sans-Serif" font-size="10.00" fill="#000000">_domains.h</text>
</a>
</g>
</g>
<!-- Node1&#45;&gt;Node12 -->
<g id="edge35" class="edge">
<title>Node1&#45;&gt;Node12</title>
<path fill="none" stroke="#191970" d="M746.8639,-313.4098C776.3633,-300.4926 830.5693,-276.8349 877,-257 960.3278,-221.4028 1057.8544,-180.6147 1113.634,-157.3693"/>
<polygon fill="#191970" stroke="#191970" points="1114.9997,-160.592 1122.8847,-153.5155 1112.3077,-154.1303 1114.9997,-160.592"/>
</g>
<!-- Node13 -->
<g id="node14" class="node">
<title>Node13</title>
<g id="a_node14"><a xlink:href="unstructured__domains_8h.html" target="_top" xlink:title="Functions to modify unstructured domains, e.g. to incorporate ligands binding to unpaired stretches...">
<polygon fill="none" stroke="#000000" points="958.5,-123.5 958.5,-153.5 1083.5,-153.5 1083.5,-123.5 958.5,-123.5"/>
<text text-anchor="start" x="966.5" y="-141.5" font-family="Helvetica,sans-Serif" font-size="10.00" fill="#000000">ViennaRNA/unstructured</text>
<text text-anchor="middle" x="1021" y="-130.5" font-family="Helvetica,sans-Serif" font-size="10.00" fill="#000000">_domains.h</text>
</a>
</g>
</g>
<!-- Node1&#45;&gt;Node13 -->
<g id="edge36" class="edge">
<title>Node1&#45;&gt;Node13</title>
<path fill="none" stroke="#191970" d="M734.0565,-313.1696C742.5927,-303.8831 755.7217,-289.546 767,-277 801.5204,-238.5993 800.3811,-217.6345 844,-190 861.7325,-178.7657 907.7699,-165.5217 948.4471,-155.2777"/>
<polygon fill="#191970" stroke="#191970" points="949.5207,-158.6174 958.3806,-152.8078 947.8316,-151.8242 949.5207,-158.6174"/>
</g>
<!-- Node16 -->
<g id="node17" class="node">
<title>Node16</title>
<g id="a_node17"><a xlink:href="sequence_8h.html" target="_top" xlink:title="Functions and data structures related to sequence representations ,. ">
<polygon fill="none" stroke="#000000" points="886,-257.5 886,-276.5 1008,-276.5 1008,-257.5 886,-257.5"/>
<text text-anchor="middle" x="947" y="-264.5" font-family="Helvetica,sans-Serif" font-size="10.00" fill="#000000">ViennaRNA/sequence.h</text>
</a>
</g>
</g>
<!-- Node1&#45;&gt;Node16 -->
<g id="edge30" class="edge">
<title>Node1&#45;&gt;Node16</title>
<path fill="none" stroke="#191970" d="M762.9109,-313.4369C800.665,-303.9133 858.7265,-289.2672 899.5264,-278.9753"/>
<polygon fill="#191970" stroke="#191970" points="900.4053,-282.3633 909.2454,-276.5237 898.6931,-275.576 900.4053,-282.3633"/>
</g>
<!-- Node3&#45;&gt;Node2 -->
<g id="edge29" class="edge">
<title>Node3&#45;&gt;Node2</title>
<path fill="none" stroke="#191970" d="M565.9815,-257.4652C480.1175,-238.3665 281.4188,-193.8318 115,-154 110.323,-152.8806 105.4525,-151.6959 100.588,-150.5001"/>
<polygon fill="#191970" stroke="#191970" points="101.2233,-147.0519 90.6753,-148.0475 99.5419,-153.8469 101.2233,-147.0519"/>
</g>
<!-- Node4 -->
<g id="node5" class="node">
<title>Node4</title>
<g id="a_node5"><a xlink:href="constants_8h.html" target="_top" xlink:title="Energy parameter constants. ">
<polygon fill="none" stroke="#000000" points="276,-129 276,-148 434,-148 434,-129 276,-129"/>
<text text-anchor="middle" x="355" y="-136" font-family="Helvetica,sans-Serif" font-size="10.00" fill="#000000">ViennaRNA/params/constants.h</text>
</a>
</g>
</g>
<!-- Node3&#45;&gt;Node4 -->
<g id="edge4" class="edge">
<title>Node3&#45;&gt;Node4</title>
<path fill="none" stroke="#191970" d="M589.9087,-257.3416C545.4863,-234.8681 435.0276,-178.9864 382.9766,-152.6535"/>
<polygon fill="#191970" stroke="#191970" points="384.4694,-149.4864 373.9663,-148.0952 381.3094,-155.7326 384.4694,-149.4864"/>
</g>
<!-- Node6 -->
<g id="node7" class="node">
<title>Node6</title>
<g id="a_node7"><a xlink:href="datastructures_2basic_8h.html" target="_top" xlink:title="Various data structures and pre&#45;processor macros. ">
<polygon fill="none" stroke="#000000" points="580,-190.5 580,-220.5 714,-220.5 714,-190.5 580,-190.5"/>
<text text-anchor="start" x="588" y="-208.5" font-family="Helvetica,sans-Serif" font-size="10.00" fill="#000000">ViennaRNA/datastructures</text>
<text text-anchor="middle" x="647" y="-197.5" font-family="Helvetica,sans-Serif" font-size="10.00" fill="#000000">/basic.h</text>
</a>
</g>
</g>
<!-- Node3&#45;&gt;Node6 -->
<g id="edge6" class="edge">
<title>Node3&#45;&gt;Node6</title>
<path fill="none" stroke="#191970" d="M609.875,-257.3906C613.1006,-249.761 619.3906,-238.7658 625.9933,-228.8588"/>
<polygon fill="#191970" stroke="#191970" points="628.9448,-230.7455 631.8071,-220.5446 623.2082,-226.7341 628.9448,-230.7455"/>
</g>
<!-- Node5 -->
<g id="node6" class="node">
<title>Node5</title>
<polygon fill="none" stroke="#bfbfbf" points="331,-62 331,-81 379,-81 379,-62 331,-62"/>
<text text-anchor="middle" x="355" y="-69" font-family="Helvetica,sans-Serif" font-size="10.00" fill="#000000">limits.h</text>
</g>
<!-- Node4&#45;&gt;Node5 -->
<g id="edge5" class="edge">
<title>Node4&#45;&gt;Node5</title>
<path fill="none" stroke="#191970" d="M355,-128.9005C355,-119.149 355,-103.7597 355,-91.3695"/>
<polygon fill="#191970" stroke="#191970" points="358.5001,-91.0816 355,-81.0817 351.5001,-91.0817 358.5001,-91.0816"/>
</g>
<!-- Node6&#45;&gt;Node1 -->
<g id="edge8" class="edge">
<title>Node6&#45;&gt;Node1</title>
<path fill="none" stroke="#191970" d="M659.8323,-220.8602C667.9794,-230.8862 678.5424,-244.4062 687,-257 697.3383,-272.3943 707.7543,-290.7304 715.0598,-304.1644"/>
<polygon fill="#191970" stroke="#191970" points="712.1766,-306.1937 719.9874,-313.3521 718.3454,-302.8852 712.1766,-306.1937"/>
</g>
<!-- Node6&#45;&gt;Node2 -->
<g id="edge9" class="edge">
<title>Node6&#45;&gt;Node2</title>
<path fill="none" stroke="#191970" d="M579.8074,-202.201C478.4688,-196.5043 280.7415,-182.5771 115,-154 109.1863,-152.9976 103.1129,-151.7429 97.1385,-150.384"/>
<polygon fill="#191970" stroke="#191970" points="97.78,-146.9389 87.2409,-148.0248 96.1568,-153.7482 97.78,-146.9389"/>
</g>
<!-- Node6&#45;&gt;Node3 -->
<g id="edge10" class="edge">
<title>Node6&#45;&gt;Node3</title>
<path fill="none" stroke="#191970" d="M643.6012,-220.5446C639.2577,-229.2525 632.5494,-240.2574 626.0645,-249.3701"/>
<polygon fill="#191970" stroke="#191970" points="623.2395,-247.3032 620,-257.3906 628.823,-251.5251 623.2395,-247.3032"/>
</g>
<!-- Node6&#45;&gt;Node4 -->
<g id="edge7" class="edge">
<title>Node6&#45;&gt;Node4</title>
<path fill="none" stroke="#191970" d="M581.4695,-190.4639C528.5669,-178.3253 455.1654,-161.4831 406.434,-150.3016"/>
<polygon fill="#191970" stroke="#191970" points="406.9555,-146.8304 396.426,-148.0053 405.39,-153.6531 406.9555,-146.8304"/>
</g>
<!-- Node6&#45;&gt;Node7 -->
<g id="edge11" class="edge">
<title>Node6&#45;&gt;Node7</title>
<path fill="none" stroke="#191970" d="M579.9452,-198.5313C502.085,-189.6155 370.242,-173.03 258,-154 251.0422,-152.8204 243.7482,-151.4741 236.6244,-150.079"/>
<polygon fill="#191970" stroke="#191970" points="236.8621,-146.5566 226.368,-148.0135 235.4802,-153.4189 236.8621,-146.5566"/>
</g>
<!-- Node6&#45;&gt;Node8 -->
<g id="edge13" class="edge">
<title>Node6&#45;&gt;Node8</title>
<path fill="none" stroke="#191970" d="M610.9628,-190.4639C590.7478,-181.0047 565.7698,-168.6894 545.9109,-158.4222"/>
<polygon fill="#191970" stroke="#191970" points="547.3845,-155.2433 536.9,-153.7177 544.1448,-161.4485 547.3845,-155.2433"/>
</g>
<!-- Node6&#45;&gt;Node10 -->
<g id="edge17" class="edge">
<title>Node6&#45;&gt;Node10</title>
<path fill="none" stroke="#191970" d="M663.25,-190.2967C675.4156,-181.1306 692.3229,-169.3285 707.5792,-159.3055"/>
<polygon fill="#191970" stroke="#191970" points="709.8316,-162.0167 716.3228,-153.6432 706.0266,-156.1412 709.8316,-162.0167"/>
</g>
<!-- Node6&#45;&gt;Node11 -->
<g id="edge20" class="edge">
<title>Node6&#45;&gt;Node11</title>
<path fill="none" stroke="#191970" d="M693.7736,-190.4639C734.2574,-178.4522 792.4262,-161.835 833.207,-150.6544"/>
<polygon fill="#191970" stroke="#191970" points="834.1935,-154.0133 842.9202,-148.0053 832.3516,-147.2599 834.1935,-154.0133"/>
</g>
<!-- Node6&#45;&gt;Node12 -->
<g id="edge22" class="edge">
<title>Node6&#45;&gt;Node12</title>
<path fill="none" stroke="#191970" d="M714.2185,-200.1793C799.7697,-192.8633 952.2311,-178.0055 1091.4854,-154.153"/>
<polygon fill="#191970" stroke="#191970" points="1092.2321,-157.5758 1101.4878,-152.42 1091.037,-150.6786 1092.2321,-157.5758"/>
</g>
<!-- Node6&#45;&gt;Node13 -->
<g id="edge23" class="edge">
<title>Node6&#45;&gt;Node13</title>
<path fill="none" stroke="#191970" d="M714.0653,-193.7435C773.5461,-183.8375 862.5756,-168.9282 940,-154 942.6738,-153.4845 945.4011,-152.9474 948.1596,-152.396"/>
<polygon fill="#191970" stroke="#191970" points="949.1403,-155.7684 958.2444,-150.3495 947.7481,-148.9083 949.1403,-155.7684"/>
</g>
<!-- Node14 -->
<g id="node15" class="node">
<title>Node14</title>
<g id="a_node15"><a xlink:href="utils_2structures_8h.html" target="_top" xlink:title="Various utility&#45; and helper&#45;functions for secondary structure parsing, converting, etc. ">
<polygon fill="none" stroke="#000000" points="634,-62 634,-81 778,-81 778,-62 634,-62"/>
<text text-anchor="middle" x="706" y="-69" font-family="Helvetica,sans-Serif" font-size="10.00" fill="#000000">ViennaRNA/utils/structures.h</text>
</a>
</g>
</g>
<!-- Node6&#45;&gt;Node14 -->
<g id="edge28" class="edge">
<title>Node6&#45;&gt;Node14</title>
<path fill="none" stroke="#191970" d="M644.5259,-190.2189C646.899,-173.3661 655.4938,-145.6376 666,-123 671.5046,-111.1393 679.0469,-98.5519 686.3689,-88.7904"/>
<polygon fill="#191970" stroke="#191970" points="689.089,-90.993 692.6899,-81.0288 683.6612,-86.5726 689.089,-90.993"/>
</g>
<!-- Node7&#45;&gt;Node6 -->
<g id="edge12" class="edge">
<title>Node7&#45;&gt;Node6</title>
<path fill="none" stroke="#191970" d="M243.8588,-148.0135C254.5436,-150.1195 265.6443,-152.2442 276,-154 377.2444,-171.1654 494.4368,-186.3418 569.6358,-195.6946"/>
<polygon fill="#191970" stroke="#191970" points="569.6072,-199.2178 579.962,-196.9752 570.4688,-192.271 569.6072,-199.2178"/>
</g>
<!-- Node8&#45;&gt;Node6 -->
<g id="edge14" class="edge">
<title>Node8&#45;&gt;Node6</title>
<path fill="none" stroke="#191970" d="M548.4252,-153.7177C568.7007,-163.2132 593.6759,-175.5335 613.4691,-185.7743"/>
<polygon fill="#191970" stroke="#191970" points="611.96,-188.9347 622.4439,-190.4639 615.2018,-182.7306 611.96,-188.9347"/>
</g>
<!-- Node9 -->
<g id="node10" class="node">
<title>Node9</title>
<g id="a_node10"><a xlink:href="constraints_2basic_8h.html" target="_top" xlink:title="Functions and data structures for constraining secondary structure predictions and evaluation...">
<polygon fill="none" stroke="#000000" points="496.5,-56.5 496.5,-86.5 615.5,-86.5 615.5,-56.5 496.5,-56.5"/>
<text text-anchor="start" x="504.5" y="-74.5" font-family="Helvetica,sans-Serif" font-size="10.00" fill="#000000">ViennaRNA/constraints</text>
<text text-anchor="middle" x="556" y="-63.5" font-family="Helvetica,sans-Serif" font-size="10.00" fill="#000000">/basic.h</text>
</a>
</g>
</g>
<!-- Node8&#45;&gt;Node9 -->
<g id="edge15" class="edge">
<title>Node8&#45;&gt;Node9</title>
<path fill="none" stroke="#191970" d="M521.9843,-123.2967C527.4412,-114.9873 534.3208,-104.5115 540.4629,-95.1587"/>
<polygon fill="#191970" stroke="#191970" points="543.4914,-96.9231 546.0552,-86.6432 537.6404,-93.0806 543.4914,-96.9231"/>
</g>
<!-- Node9&#45;&gt;Node6 -->
<g id="edge16" class="edge">
<title>Node9&#45;&gt;Node6</title>
<path fill="none" stroke="#191970" d="M566.3641,-86.7614C582.1286,-109.9751 612.2639,-154.3502 630.8972,-181.7882"/>
<polygon fill="#191970" stroke="#191970" points="628.2245,-184.0826 636.738,-190.389 634.0154,-180.1499 628.2245,-184.0826"/>
</g>
<!-- Node10&#45;&gt;Node6 -->
<g id="edge18" class="edge">
<title>Node10&#45;&gt;Node6</title>
<path fill="none" stroke="#191970" d="M727.7309,-153.7177C715.5259,-162.9124 698.5559,-174.7558 683.2676,-184.7951"/>
<polygon fill="#191970" stroke="#191970" points="681.0025,-182.092 674.5092,-190.4639 684.806,-187.9685 681.0025,-182.092"/>
</g>
<!-- Node10&#45;&gt;Node9 -->
<g id="edge19" class="edge">
<title>Node10&#45;&gt;Node9</title>
<path fill="none" stroke="#191970" d="M701.8091,-123.4639C674.0889,-113.5849 637.6269,-100.5905 608.0999,-90.0675"/>
<polygon fill="#191970" stroke="#191970" points="608.9696,-86.6619 598.3749,-86.6017 606.6196,-93.2557 608.9696,-86.6619"/>
</g>
<!-- Node11&#45;&gt;Node6 -->
<g id="edge21" class="edge">
<title>Node11&#45;&gt;Node6</title>
<path fill="none" stroke="#191970" d="M852.6847,-148.0053C818.7168,-158.3075 760.8707,-174.9807 715.1168,-187.7259"/>
<polygon fill="#191970" stroke="#191970" points="713.9539,-184.4163 705.2547,-190.4639 715.8266,-191.1611 713.9539,-184.4163"/>
</g>
<!-- Node13&#45;&gt;Node6 -->
<g id="edge24" class="edge">
<title>Node13&#45;&gt;Node6</title>
<path fill="none" stroke="#191970" d="M960.2719,-153.5593C959.5109,-153.7078 958.7533,-153.8548 958,-154 878.6825,-169.2933 787.1853,-184.5666 723.9972,-194.4611"/>
<polygon fill="#191970" stroke="#191970" points="723.4472,-191.0045 714.1052,-196.0021 724.5248,-197.921 723.4472,-191.0045"/>
</g>
<!-- Node13&#45;&gt;Node14 -->
<g id="edge25" class="edge">
<title>Node13&#45;&gt;Node14</title>
<path fill="none" stroke="#191970" d="M958.1739,-124.9626C955.0722,-124.2981 952.001,-123.641 949,-123 884.4911,-109.2206 810.3166,-93.5215 761.0577,-83.1162"/>
<polygon fill="#191970" stroke="#191970" points="761.7504,-79.6854 751.243,-81.0434 760.3039,-86.5343 761.7504,-79.6854"/>
</g>
<!-- Node14&#45;&gt;Node6 -->
<g id="edge27" class="edge">
<title>Node14&#45;&gt;Node6</title>
<path fill="none" stroke="#191970" d="M706.1285,-81.0288C701.6406,-91.1151 691.117,-107.665 684,-123 675.2995,-141.7468 667.9099,-163.9849 661.5419,-180.6464"/>
<polygon fill="#191970" stroke="#191970" points="658.1769,-179.6345 657.7064,-190.2189 664.6747,-182.2381 658.1769,-179.6345"/>
</g>
<!-- Node15 -->
<g id="node16" class="node">
<title>Node15</title>
<polygon fill="none" stroke="#bfbfbf" points="683,-.5 683,-19.5 729,-19.5 729,-.5 683,-.5"/>
<text text-anchor="middle" x="706" y="-7.5" font-family="Helvetica,sans-Serif" font-size="10.00" fill="#000000">stdio.h</text>
</g>
<!-- Node14&#45;&gt;Node15 -->
<g id="edge26" class="edge">
<title>Node14&#45;&gt;Node15</title>
<path fill="none" stroke="#191970" d="M706,-61.8906C706,-53.3657 706,-40.6392 706,-29.9235"/>
<polygon fill="#191970" stroke="#191970" points="709.5001,-29.7448 706,-19.7449 702.5001,-29.7449 709.5001,-29.7448"/>
</g>
</g>
</svg>
        <g id="navigator" transform="translate(0 0)" fill="#404254">
                <rect fill="#f2f5e9" fill-opacity="0.5" stroke="#606060" stroke-width=".5" x="0" y="0" width="60" height="60"/>
                <use id="zoomplus" xlink:href="#zoomPlus" x="17" y="9" onmousedown="handleZoom(evt,'in')"/>
                <use id="zoomminus" xlink:href="#zoomMin" x="42" y="9" onmousedown="handleZoom(evt,'out')"/>
                <use id="reset" xlink:href="#resetDef" x="30" y="36" onmousedown="handleReset()"/>
                <g id="arrowUp" xlink:href="#dirArrow" transform="translate(30 24)" onmousedown="handlePan(0,-1)">
                  <use xlink:href="#rim" fill="#404040">
                        <set attributeName="fill" to="#808080" begin="arrowUp.mouseover" end="arrowUp.mouseout"/>
                  </use>
                  <path fill="none" stroke="white" stroke-width="1.5" d="M0,-3.0v7 M-2.5,-0.5L0,-3.0L2.5,-0.5"/>
                </g>
                <g id="arrowRight" xlink:href="#dirArrow" transform="rotate(90) translate(36 -43)" onmousedown="handlePan(1,0)">
                  <use xlink:href="#rim" fill="#404040">
                        <set attributeName="fill" to="#808080" begin="arrowRight.mouseover" end="arrowRight.mouseout"/>
                  </use>
                  <path fill="none" stroke="white" stroke-width="1.5" d="M0,-3.0v7 M-2.5,-0.5L0,-3.0L2.5,-0.5"/>
                </g>
                <g id="arrowDown" xlink:href="#dirArrow" transform="rotate(180) translate(-30 -48)" onmousedown="handlePan(0,1)">
                  <use xlink:href="#rim" fill="#404040">
                        <set attributeName="fill" to="#808080" begin="arrowDown.mouseover" end="arrowDown.mouseout"/>
                  </use>
                  <path fill="none" stroke="white" stroke-width="1.5" d="M0,-3.0v7 M-2.5,-0.5L0,-3.0L2.5,-0.5"/>
                </g>
                <g id="arrowLeft" xlink:href="#dirArrow" transform="rotate(270) translate(-36 17)" onmousedown="handlePan(-1,0)">
                  <use xlink:href="#rim" fill="#404040">
                        <set attributeName="fill" to="#808080" begin="arrowLeft.mouseover" end="arrowLeft.mouseout"/>
                  </use>
                  <path fill="none" stroke="white" stroke-width="1.5" d="M0,-3.0v7 M-2.5,-0.5L0,-3.0L2.5,-0.5"/>
                </g>
        </g>
        <svg viewBox="0 0 15 15" width="100%" height="30px" preserveAspectRatio="xMaxYMin meet">
         <g id="arrow_out" transform="scale(0.3 0.3)">
          <a xlink:href="utils_2alignments_8h__incl_org.svg" target="_base">
           <rect id="button" ry="5" rx="5" y="6" x="6" height="38" width="38"
                fill="#f2f5e9" fill-opacity="0.5" stroke="#606060" stroke-width="1.0"/>
           <path id="arrow"
             d="M 11.500037,31.436501 C 11.940474,20.09759 22.043105,11.32322 32.158766,21.979434 L 37.068811,17.246167 C 37.068811,17.246167 37.088388,32 37.088388,32 L 22.160133,31.978069 C 22.160133,31.978069 26.997745,27.140456 26.997745,27.140456 C 18.528582,18.264221 13.291696,25.230495 11.500037,31.436501 z"
             style="fill:#404040;"/>
          </a>
         </g>
        </svg>
</svg>
