<?xml version="1.0" encoding="UTF-8" standalone="no"?>
<!DOCTYPE svg PUBLIC "-//W3C//DTD SVG 1.1//EN"
 "http://www.w3.org/Graphics/SVG/1.1/DTD/svg11.dtd">
<!-- Generated by graphviz version 2.40.1 (20161225.0304)
 -->
<!-- Title: ViennaRNA/utils.h Pages: 1 -->
<svg width="1464pt" height="397pt"
 viewBox="0.00 0.00 1464.32 397.00" xmlns="http://www.w3.org/2000/svg" xmlns:xlink="http://www.w3.org/1999/xlink">
<g id="graph0" class="graph" transform="scale(1 1) rotate(0) translate(4 393)">
<title>ViennaRNA/utils.h</title>
<!-- Node0 -->
<g id="node1" class="node">
<title>Node0</title>
<polygon fill="#bfbfbf" stroke="#000000" points="795,-369.5 795,-388.5 893,-388.5 893,-369.5 795,-369.5"/>
<text text-anchor="middle" x="844" y="-376.5" font-family="Helvetica,sans-Serif" font-size="10.00" fill="#000000">ViennaRNA/utils.h</text>
</g>
<!-- Node1 -->
<g id="node2" class="node">
<title>Node1</title>
<g id="a_node2"><a xlink:href="utils_2basic_8h.html" target="_top" xlink:title="General utility&#45; and helper&#45;functions used throughout the ViennaRNA Package. ">
<polygon fill="none" stroke="#000000" points="782,-313.5 782,-332.5 906,-332.5 906,-313.5 782,-313.5"/>
<text text-anchor="middle" x="844" y="-320.5" font-family="Helvetica,sans-Serif" font-size="10.00" fill="#000000">ViennaRNA/utils/basic.h</text>
</a>
</g>
</g>
<!-- Node0&#45;&gt;Node1 -->
<g id="edge1" class="edge">
<title>Node0&#45;&gt;Node1</title>
<path fill="none" stroke="#191970" d="M844,-369.2455C844,-361.9382 844,-351.6944 844,-342.7046"/>
<polygon fill="#191970" stroke="#191970" points="847.5001,-342.6426 844,-332.6427 840.5001,-342.6427 847.5001,-342.6426"/>
</g>
<!-- Node18 -->
<g id="node19" class="node">
<title>Node18</title>
<g id="a_node19"><a xlink:href="utils_2structures_8h.html" target="_top" xlink:title="Various utility&#45; and helper&#45;functions for secondary structure parsing, converting, etc. ">
<polygon fill="none" stroke="#000000" points="0,-62 0,-81 144,-81 144,-62 0,-62"/>
<text text-anchor="middle" x="72" y="-69" font-family="Helvetica,sans-Serif" font-size="10.00" fill="#000000">ViennaRNA/utils/structures.h</text>
</a>
</g>
</g>
<!-- Node0&#45;&gt;Node18 -->
<g id="edge43" class="edge">
<title>Node0&#45;&gt;Node18</title>
<path fill="none" stroke="#191970" d="M794.9168,-377.164C618.2241,-369.9126 25,-339.7407 25,-261.5 25,-261.5 25,-261.5 25,-200 25,-158.6617 46.7187,-114.1454 60.6282,-89.8742"/>
<polygon fill="#191970" stroke="#191970" points="63.7669,-91.4432 65.8556,-81.0563 57.7454,-87.8736 63.7669,-91.4432"/>
</g>
<!-- Node19 -->
<g id="node20" class="node">
<title>Node19</title>
<g id="a_node20"><a xlink:href="strings_8h.html" target="_top" xlink:title="General utility&#45; and helper&#45;functions for RNA sequence and structure strings used throughout the Vien...">
<polygon fill="none" stroke="#000000" points="634,-313.5 634,-332.5 764,-332.5 764,-313.5 634,-313.5"/>
<text text-anchor="middle" x="699" y="-320.5" font-family="Helvetica,sans-Serif" font-size="10.00" fill="#000000">ViennaRNA/utils/strings.h</text>
</a>
</g>
</g>
<!-- Node0&#45;&gt;Node19 -->
<g id="edge40" class="edge">
<title>Node0&#45;&gt;Node19</title>
<path fill="none" stroke="#191970" d="M819.0736,-369.3733C795.3798,-360.2226 759.5489,-346.3844 733.1932,-336.2057"/>
<polygon fill="#191970" stroke="#191970" points="734.1906,-332.8389 723.6011,-332.5011 731.6686,-339.3689 734.1906,-332.8389"/>
</g>
<!-- Node20 -->
<g id="node21" class="node">
<title>Node20</title>
<g id="a_node21"><a xlink:href="io_2utils_8h.html" target="_top" xlink:title="Several utilities for file handling. ">
<polygon fill="none" stroke="#000000" points="924,-313.5 924,-332.5 1032,-332.5 1032,-313.5 924,-313.5"/>
<text text-anchor="middle" x="978" y="-320.5" font-family="Helvetica,sans-Serif" font-size="10.00" fill="#000000">ViennaRNA/io/utils.h</text>
</a>
</g>
</g>
<!-- Node0&#45;&gt;Node20 -->
<g id="edge44" class="edge">
<title>Node0&#45;&gt;Node20</title>
<path fill="none" stroke="#191970" d="M867.0354,-369.3733C888.7388,-360.3032 921.4618,-346.6279 945.755,-336.4755"/>
<polygon fill="#191970" stroke="#191970" points="947.3881,-339.5865 955.2652,-332.5011 944.6889,-333.1278 947.3881,-339.5865"/>
</g>
<!-- Node21 -->
<g id="node22" class="node">
<title>Node21</title>
<g id="a_node22"><a xlink:href="alphabet_8h.html" target="_top" xlink:title="Functions to process, convert, and generally handle different nucleotide and/or base pair alphabets...">
<polygon fill="none" stroke="#000000" points="1312,-190.5 1312,-209.5 1428,-209.5 1428,-190.5 1312,-190.5"/>
<text text-anchor="middle" x="1370" y="-197.5" font-family="Helvetica,sans-Serif" font-size="10.00" fill="#000000">ViennaRNA/alphabet.h</text>
</a>
</g>
</g>
<!-- Node0&#45;&gt;Node21 -->
<g id="edge45" class="edge">
<title>Node0&#45;&gt;Node21</title>
<path fill="none" stroke="#191970" d="M893.1439,-369.7282C933.3468,-361.6192 991.4472,-348.6974 1041,-333 1154.2615,-297.1208 1283.5767,-239.8255 1340.4885,-213.7391"/>
<polygon fill="#191970" stroke="#191970" points="1342.0012,-216.8959 1349.6217,-209.5353 1339.0743,-210.5372 1342.0012,-216.8959"/>
</g>
<!-- Node2 -->
<g id="node3" class="node">
<title>Node2</title>
<polygon fill="none" stroke="#bfbfbf" points="661,-.5 661,-19.5 707,-19.5 707,-.5 661,-.5"/>
<text text-anchor="middle" x="684" y="-7.5" font-family="Helvetica,sans-Serif" font-size="10.00" fill="#000000">stdio.h</text>
</g>
<!-- Node1&#45;&gt;Node2 -->
<g id="edge2" class="edge">
<title>Node1&#45;&gt;Node2</title>
<path fill="none" stroke="#191970" d="M906.0498,-313.7791C1061.6379,-290.2423 1456,-227.8387 1456,-200 1456,-200 1456,-200 1456,-138.5 1456,-100.1868 1461.0537,-79.7629 1431,-56 1402.6276,-33.5665 858.3245,-15.3529 717.1933,-10.9939"/>
<polygon fill="#191970" stroke="#191970" points="717.1027,-7.4895 707.0002,-10.6816 716.8883,-14.4863 717.1027,-7.4895"/>
</g>
<!-- Node3 -->
<g id="node4" class="node">
<title>Node3</title>
<polygon fill="none" stroke="#bfbfbf" points="673,-252 673,-271 725,-271 725,-252 673,-252"/>
<text text-anchor="middle" x="699" y="-259" font-family="Helvetica,sans-Serif" font-size="10.00" fill="#000000">stdarg.h</text>
</g>
<!-- Node1&#45;&gt;Node3 -->
<g id="edge3" class="edge">
<title>Node1&#45;&gt;Node3</title>
<path fill="none" stroke="#191970" d="M820.7642,-313.4477C798.46,-304.2396 763.8505,-289.8496 734,-277 732.6266,-276.4088 731.2242,-275.8018 729.8086,-275.1863"/>
<polygon fill="#191970" stroke="#191970" points="731.0042,-271.8889 720.4404,-271.0794 728.1937,-278.3 731.0042,-271.8889"/>
</g>
<!-- Node4 -->
<g id="node5" class="node">
<title>Node4</title>
<g id="a_node5"><a xlink:href="datastructures_2basic_8h.html" target="_top" xlink:title="Various data structures and pre&#45;processor macros. ">
<polygon fill="none" stroke="#000000" points="743,-246.5 743,-276.5 877,-276.5 877,-246.5 743,-246.5"/>
<text text-anchor="start" x="751" y="-264.5" font-family="Helvetica,sans-Serif" font-size="10.00" fill="#000000">ViennaRNA/datastructures</text>
<text text-anchor="middle" x="810" y="-253.5" font-family="Helvetica,sans-Serif" font-size="10.00" fill="#000000">/basic.h</text>
</a>
</g>
</g>
<!-- Node1&#45;&gt;Node4 -->
<g id="edge4" class="edge">
<title>Node1&#45;&gt;Node4</title>
<path fill="none" stroke="#191970" d="M838.6875,-313.3906C834.5547,-305.9151 828.6357,-295.2087 823.2464,-285.4605"/>
<polygon fill="#191970" stroke="#191970" points="826.2188,-283.6028 818.3173,-276.5446 820.0926,-286.9896 826.2188,-283.6028"/>
</g>
<!-- Node5 -->
<g id="node6" class="node">
<title>Node5</title>
<g id="a_node6"><a xlink:href="constants_8h.html" target="_top" xlink:title="Energy parameter constants. ">
<polygon fill="none" stroke="#000000" points="1264,-62 1264,-81 1422,-81 1422,-62 1264,-62"/>
<text text-anchor="middle" x="1343" y="-69" font-family="Helvetica,sans-Serif" font-size="10.00" fill="#000000">ViennaRNA/params/constants.h</text>
</a>
</g>
</g>
<!-- Node4&#45;&gt;Node5 -->
<g id="edge5" class="edge">
<title>Node4&#45;&gt;Node5</title>
<path fill="none" stroke="#191970" d="M877.1129,-259.4976C960.7301,-255.5853 1107.3112,-244.041 1228,-210 1256.9051,-201.8471 1334.7483,-179.2559 1351,-154 1363.2376,-134.9822 1357.4352,-108.2229 1351.1301,-90.3942"/>
<polygon fill="#191970" stroke="#191970" points="1354.3832,-89.1025 1347.4922,-81.0549 1347.8605,-91.6433 1354.3832,-89.1025"/>
</g>
<!-- Node7 -->
<g id="node8" class="node">
<title>Node7</title>
<g id="a_node8"><a xlink:href="fold__compound_8h.html" target="_top" xlink:title="The Basic Fold Compound API. ">
<polygon fill="none" stroke="#000000" points="665,-190.5 665,-209.5 811,-209.5 811,-190.5 665,-190.5"/>
<text text-anchor="middle" x="738" y="-197.5" font-family="Helvetica,sans-Serif" font-size="10.00" fill="#000000">ViennaRNA/fold_compound.h</text>
</a>
</g>
</g>
<!-- Node4&#45;&gt;Node7 -->
<g id="edge7" class="edge">
<title>Node4&#45;&gt;Node7</title>
<path fill="none" stroke="#191970" d="M792.2022,-246.2977C781.5833,-237.2274 768.0969,-225.7077 757.2333,-216.4285"/>
<polygon fill="#191970" stroke="#191970" points="759.4051,-213.6805 749.5281,-209.8469 754.8587,-219.0031 759.4051,-213.6805"/>
</g>
<!-- Node8 -->
<g id="node9" class="node">
<title>Node8</title>
<g id="a_node9"><a xlink:href="model_8h.html" target="_top" xlink:title="The model details data structure and its corresponding modifiers. ">
<polygon fill="none" stroke="#000000" points="1129,-62 1129,-81 1235,-81 1235,-62 1129,-62"/>
<text text-anchor="middle" x="1182" y="-69" font-family="Helvetica,sans-Serif" font-size="10.00" fill="#000000">ViennaRNA/model.h</text>
</a>
</g>
</g>
<!-- Node4&#45;&gt;Node8 -->
<g id="edge31" class="edge">
<title>Node4&#45;&gt;Node8</title>
<path fill="none" stroke="#191970" d="M877.1509,-249.38C967.2659,-231.7178 1120.2855,-196.3534 1157,-154 1172.3432,-136.3002 1178.27,-109.4051 1180.5593,-91.1747"/>
<polygon fill="#191970" stroke="#191970" points="1184.054,-91.4016 1181.5663,-81.103 1177.0887,-90.7051 1184.054,-91.4016"/>
</g>
<!-- Node9 -->
<g id="node10" class="node">
<title>Node9</title>
<g id="a_node10"><a xlink:href="params_2basic_8h.html" target="_top" xlink:title="Functions to deal with sets of energy parameters. ">
<polygon fill="none" stroke="#000000" points="1204,-129 1204,-148 1342,-148 1342,-129 1204,-129"/>
<text text-anchor="middle" x="1273" y="-136" font-family="Helvetica,sans-Serif" font-size="10.00" fill="#000000">ViennaRNA/params/basic.h</text>
</a>
</g>
</g>
<!-- Node4&#45;&gt;Node9 -->
<g id="edge32" class="edge">
<title>Node4&#45;&gt;Node9</title>
<path fill="none" stroke="#191970" d="M877.1898,-256.5379C968.9059,-249.2824 1127.7269,-233.9761 1181,-210 1209.125,-197.3421 1234.9231,-172.0302 1252.3444,-155.175"/>
<polygon fill="#191970" stroke="#191970" points="1254.9315,-157.5437 1259.7375,-148.1016 1250.0923,-152.4857 1254.9315,-157.5437"/>
</g>
<!-- Node11 -->
<g id="node12" class="node">
<title>Node11</title>
<g id="a_node12"><a xlink:href="dp__matrices_8h.html" target="_top" xlink:title="Functions to deal with standard dynamic programming (DP) matrices. ">
<polygon fill="none" stroke="#000000" points="1014.5,-129 1014.5,-148 1147.5,-148 1147.5,-129 1014.5,-129"/>
<text text-anchor="middle" x="1081" y="-136" font-family="Helvetica,sans-Serif" font-size="10.00" fill="#000000">ViennaRNA/dp_matrices.h</text>
</a>
</g>
</g>
<!-- Node4&#45;&gt;Node11 -->
<g id="edge33" class="edge">
<title>Node4&#45;&gt;Node11</title>
<path fill="none" stroke="#191970" d="M877.0371,-249.4062C912.3501,-241.555 955.4922,-229.1194 991,-210 1017.4956,-195.7332 1042.5936,-171.2679 1059.8551,-154.9894"/>
<polygon fill="#191970" stroke="#191970" points="1062.2694,-157.5238 1067.2116,-148.1522 1057.5039,-152.3964 1062.2694,-157.5238"/>
</g>
<!-- Node12 -->
<g id="node13" class="node">
<title>Node12</title>
<g id="a_node13"><a xlink:href="hard_8h.html" target="_top" xlink:title="Functions and data structures for handling of secondary structure hard constraints. ">
<polygon fill="none" stroke="#000000" points="838.5,-123.5 838.5,-153.5 957.5,-153.5 957.5,-123.5 838.5,-123.5"/>
<text text-anchor="start" x="846.5" y="-141.5" font-family="Helvetica,sans-Serif" font-size="10.00" fill="#000000">ViennaRNA/constraints</text>
<text text-anchor="middle" x="898" y="-130.5" font-family="Helvetica,sans-Serif" font-size="10.00" fill="#000000">/hard.h</text>
</a>
</g>
</g>
<!-- Node4&#45;&gt;Node12 -->
<g id="edge34" class="edge">
<title>Node4&#45;&gt;Node12</title>
<path fill="none" stroke="#191970" d="M816.1763,-246.4178C828.7965,-225.2084 856.3058,-186.3897 876.1056,-161.5485"/>
<polygon fill="#191970" stroke="#191970" points="878.8918,-163.6699 882.4921,-153.7056 873.4638,-159.2499 878.8918,-163.6699"/>
</g>
<!-- Node14 -->
<g id="node15" class="node">
<title>Node14</title>
<g id="a_node15"><a xlink:href="soft_8h.html" target="_top" xlink:title="Functions and data structures for secondary structure soft constraints. ">
<polygon fill="none" stroke="#000000" points="252.5,-123.5 252.5,-153.5 371.5,-153.5 371.5,-123.5 252.5,-123.5"/>
<text text-anchor="start" x="260.5" y="-141.5" font-family="Helvetica,sans-Serif" font-size="10.00" fill="#000000">ViennaRNA/constraints</text>
<text text-anchor="middle" x="312" y="-130.5" font-family="Helvetica,sans-Serif" font-size="10.00" fill="#000000">/soft.h</text>
</a>
</g>
</g>
<!-- Node4&#45;&gt;Node14 -->
<g id="edge35" class="edge">
<title>Node4&#45;&gt;Node14</title>
<path fill="none" stroke="#191970" d="M742.9546,-248.9837C681.1882,-236.5564 594.4184,-218.2086 561,-210 493.2928,-193.369 416.3527,-171.6799 366.0554,-156.5699"/>
<polygon fill="#191970" stroke="#191970" points="366.9468,-153.183 356.3618,-153.6391 364.9209,-159.8835 366.9468,-153.183"/>
</g>
<!-- Node15 -->
<g id="node16" class="node">
<title>Node15</title>
<g id="a_node16"><a xlink:href="grammar_8h.html" target="_top" xlink:title="Implementations for the RNA folding grammar. ">
<polygon fill="none" stroke="#000000" points="390,-129 390,-148 508,-148 508,-129 390,-129"/>
<text text-anchor="middle" x="449" y="-136" font-family="Helvetica,sans-Serif" font-size="10.00" fill="#000000">ViennaRNA/grammar.h</text>
</a>
</g>
</g>
<!-- Node4&#45;&gt;Node15 -->
<g id="edge36" class="edge">
<title>Node4&#45;&gt;Node15</title>
<path fill="none" stroke="#191970" d="M743.1087,-246.4545C706.0726,-236.9141 659.5703,-223.8008 619,-210 566.7461,-192.2248 507.5213,-167.6742 474.406,-152.4574"/>
<polygon fill="#191970" stroke="#191970" points="475.5441,-149.1255 465.0037,-148.0524 472.5743,-155.4644 475.5441,-149.1255"/>
</g>
<!-- Node16 -->
<g id="node17" class="node">
<title>Node16</title>
<g id="a_node17"><a xlink:href="structured__domains_8h.html" target="_top" xlink:title="This module provides interfaces that deal with additional structured domains in the folding grammar...">
<polygon fill="none" stroke="#000000" points="526.5,-123.5 526.5,-153.5 641.5,-153.5 641.5,-123.5 526.5,-123.5"/>
<text text-anchor="start" x="534.5" y="-141.5" font-family="Helvetica,sans-Serif" font-size="10.00" fill="#000000">ViennaRNA/structured</text>
<text text-anchor="middle" x="584" y="-130.5" font-family="Helvetica,sans-Serif" font-size="10.00" fill="#000000">_domains.h</text>
</a>
</g>
</g>
<!-- Node4&#45;&gt;Node16 -->
<g id="edge37" class="edge">
<title>Node4&#45;&gt;Node16</title>
<path fill="none" stroke="#191970" d="M743.3897,-246.4518C715.1303,-238.2808 682.6397,-226.418 656,-210 635.0557,-197.092 615.5354,-176.9887 602.1186,-161.3821"/>
<polygon fill="#191970" stroke="#191970" points="604.7855,-159.1153 595.6835,-153.6927 599.4173,-163.6078 604.7855,-159.1153"/>
</g>
<!-- Node17 -->
<g id="node18" class="node">
<title>Node17</title>
<g id="a_node18"><a xlink:href="unstructured__domains_8h.html" target="_top" xlink:title="Functions to modify unstructured domains, e.g. to incorporate ligands binding to unpaired stretches...">
<polygon fill="none" stroke="#000000" points="109.5,-123.5 109.5,-153.5 234.5,-153.5 234.5,-123.5 109.5,-123.5"/>
<text text-anchor="start" x="117.5" y="-141.5" font-family="Helvetica,sans-Serif" font-size="10.00" fill="#000000">ViennaRNA/unstructured</text>
<text text-anchor="middle" x="172" y="-130.5" font-family="Helvetica,sans-Serif" font-size="10.00" fill="#000000">_domains.h</text>
</a>
</g>
</g>
<!-- Node4&#45;&gt;Node17 -->
<g id="edge38" class="edge">
<title>Node4&#45;&gt;Node17</title>
<path fill="none" stroke="#191970" d="M742.5963,-249.2629C736.6321,-248.1182 730.7016,-247.0101 725,-246 619.2267,-227.2606 591.6135,-229.6199 486,-210 399.3016,-193.894 300.4147,-171.3886 237.0865,-155.9532"/>
<polygon fill="#191970" stroke="#191970" points="237.781,-152.5199 227.2353,-153.5386 236.1146,-159.3186 237.781,-152.5199"/>
</g>
<!-- Node4&#45;&gt;Node18 -->
<g id="edge39" class="edge">
<title>Node4&#45;&gt;Node18</title>
<path fill="none" stroke="#191970" d="M742.6399,-249C736.667,-247.9076 730.7226,-246.8835 725,-246 584.3026,-224.2771 198.3841,-247.4683 91,-154 72.8692,-138.2188 66.4586,-110.2385 66.3568,-91.2863"/>
<polygon fill="#191970" stroke="#191970" points="69.8637,-91.2933 67.0221,-81.0867 62.8786,-90.8377 69.8637,-91.2933"/>
</g>
<!-- Node6 -->
<g id="node7" class="node">
<title>Node6</title>
<polygon fill="none" stroke="#bfbfbf" points="1319,-.5 1319,-19.5 1367,-19.5 1367,-.5 1319,-.5"/>
<text text-anchor="middle" x="1343" y="-7.5" font-family="Helvetica,sans-Serif" font-size="10.00" fill="#000000">limits.h</text>
</g>
<!-- Node5&#45;&gt;Node6 -->
<g id="edge6" class="edge">
<title>Node5&#45;&gt;Node6</title>
<path fill="none" stroke="#191970" d="M1343,-61.8906C1343,-53.3657 1343,-40.6392 1343,-29.9235"/>
<polygon fill="#191970" stroke="#191970" points="1346.5001,-29.7448 1343,-19.7449 1339.5001,-29.7449 1346.5001,-29.7448"/>
</g>
<!-- Node7&#45;&gt;Node8 -->
<g id="edge8" class="edge">
<title>Node7&#45;&gt;Node8</title>
<path fill="none" stroke="#191970" d="M749.3029,-190.2581C772.8333,-170.0166 825.2953,-125.1071 830,-123 880.3569,-100.4471 1031.8923,-84.2883 1118.8403,-76.5845"/>
<polygon fill="#191970" stroke="#191970" points="1119.1968,-80.0667 1128.8541,-75.7093 1118.5873,-73.0933 1119.1968,-80.0667"/>
</g>
<!-- Node7&#45;&gt;Node9 -->
<g id="edge9" class="edge">
<title>Node7&#45;&gt;Node9</title>
<path fill="none" stroke="#191970" d="M811.1023,-192.5001C894.7642,-183.7948 1035.8657,-168.7403 1157,-154 1168.8178,-152.5619 1181.3028,-150.9702 1193.5303,-149.3704"/>
<polygon fill="#191970" stroke="#191970" points="1194.2635,-152.8041 1203.7207,-148.0279 1193.3492,-145.8641 1194.2635,-152.8041"/>
</g>
<!-- Node10 -->
<g id="node11" class="node">
<title>Node10</title>
<g id="a_node11"><a xlink:href="sequence_8h.html" target="_top" xlink:title="Functions and data structures related to sequence representations ,. ">
<polygon fill="none" stroke="#000000" points="660,-129 660,-148 782,-148 782,-129 660,-129"/>
<text text-anchor="middle" x="721" y="-136" font-family="Helvetica,sans-Serif" font-size="10.00" fill="#000000">ViennaRNA/sequence.h</text>
</a>
</g>
</g>
<!-- Node7&#45;&gt;Node10 -->
<g id="edge13" class="edge">
<title>Node7&#45;&gt;Node10</title>
<path fill="none" stroke="#191970" d="M735.3438,-190.3906C732.9625,-181.776 729.3952,-168.8708 726.414,-158.0858"/>
<polygon fill="#191970" stroke="#191970" points="729.7316,-156.9509 723.6937,-148.2449 722.9846,-158.8159 729.7316,-156.9509"/>
</g>
<!-- Node7&#45;&gt;Node11 -->
<g id="edge14" class="edge">
<title>Node7&#45;&gt;Node11</title>
<path fill="none" stroke="#191970" d="M791.2174,-190.4581C852.3924,-179.4894 952.7167,-161.5012 1017.8072,-149.8305"/>
<polygon fill="#191970" stroke="#191970" points="1018.7147,-153.2237 1027.94,-148.0137 1017.4792,-146.3336 1018.7147,-153.2237"/>
</g>
<!-- Node7&#45;&gt;Node12 -->
<g id="edge16" class="edge">
<title>Node7&#45;&gt;Node12</title>
<path fill="none" stroke="#191970" d="M763,-190.3906C786.0576,-181.5279 820.9296,-168.1239 849.4552,-157.1594"/>
<polygon fill="#191970" stroke="#191970" points="850.7811,-160.3995 858.8596,-153.5446 848.2696,-153.8655 850.7811,-160.3995"/>
</g>
<!-- Node7&#45;&gt;Node14 -->
<g id="edge20" class="edge">
<title>Node7&#45;&gt;Node14</title>
<path fill="none" stroke="#191970" d="M664.8819,-192.5877C594.7717,-185.0233 485.7706,-172.0705 381.8139,-154.0437"/>
<polygon fill="#191970" stroke="#191970" points="382.2249,-150.5624 371.7708,-152.2833 381.0163,-157.4573 382.2249,-150.5624"/>
</g>
<!-- Node7&#45;&gt;Node15 -->
<g id="edge23" class="edge">
<title>Node7&#45;&gt;Node15</title>
<path fill="none" stroke="#191970" d="M690.9534,-190.4757C646.1751,-181.3473 576.9252,-167.0651 517,-154 511.6024,-152.8232 505.9688,-151.5735 500.3548,-150.3143"/>
<polygon fill="#191970" stroke="#191970" points="500.8512,-146.8384 490.326,-148.0512 499.3102,-153.6667 500.8512,-146.8384"/>
</g>
<!-- Node7&#45;&gt;Node16 -->
<g id="edge25" class="edge">
<title>Node7&#45;&gt;Node16</title>
<path fill="none" stroke="#191970" d="M713.9375,-190.3906C691.8411,-181.5664 658.4719,-168.2404 631.0828,-157.3026"/>
<polygon fill="#191970" stroke="#191970" points="632.2576,-154.003 621.6726,-153.5446 629.6614,-160.5038 632.2576,-154.003"/>
</g>
<!-- Node7&#45;&gt;Node17 -->
<g id="edge26" class="edge">
<title>Node7&#45;&gt;Node17</title>
<path fill="none" stroke="#191970" d="M664.6879,-195.9971C569.8387,-190.1911 399.3522,-177.6272 244.7981,-154.1712"/>
<polygon fill="#191970" stroke="#191970" points="245.0575,-150.6701 234.6419,-152.6104 243.9942,-157.5889 245.0575,-150.6701"/>
</g>
<!-- Node9&#45;&gt;Node4 -->
<g id="edge11" class="edge">
<title>Node9&#45;&gt;Node4</title>
<path fill="none" stroke="#191970" d="M1270.7217,-148.1016C1260.7707,-163.9802 1231.4325,-195.4034 1199,-210 1145.3489,-234.1462 984.647,-249.4992 887.3241,-256.6911"/>
<polygon fill="#191970" stroke="#191970" points="886.9573,-253.2084 877.2373,-257.424 887.4646,-260.19 886.9573,-253.2084"/>
</g>
<!-- Node9&#45;&gt;Node5 -->
<g id="edge10" class="edge">
<title>Node9&#45;&gt;Node5</title>
<path fill="none" stroke="#191970" d="M1283.0293,-128.9005C1294.1531,-118.2535 1312.2987,-100.8856 1325.721,-88.0385"/>
<polygon fill="#191970" stroke="#191970" points="1328.1852,-90.5247 1332.9893,-81.0817 1323.345,-85.4678 1328.1852,-90.5247"/>
</g>
<!-- Node9&#45;&gt;Node8 -->
<g id="edge12" class="edge">
<title>Node9&#45;&gt;Node8</title>
<path fill="none" stroke="#191970" d="M1259.9619,-128.9005C1245.2307,-118.0544 1221.0267,-100.2339 1203.4908,-87.3229"/>
<polygon fill="#191970" stroke="#191970" points="1205.1418,-84.1922 1195.0139,-81.0817 1200.9915,-89.8291 1205.1418,-84.1922"/>
</g>
<!-- Node11&#45;&gt;Node4 -->
<g id="edge15" class="edge">
<title>Node11&#45;&gt;Node4</title>
<path fill="none" stroke="#191970" d="M1078.2519,-148.4029C1067.9382,-163.8589 1039.3883,-193.6372 1009,-210 971.5709,-230.154 925.6591,-242.8812 887.3114,-250.6407"/>
<polygon fill="#191970" stroke="#191970" points="886.371,-247.258 877.2237,-252.6037 887.7081,-254.1291 886.371,-247.258"/>
</g>
<!-- Node12&#45;&gt;Node4 -->
<g id="edge17" class="edge">
<title>Node12&#45;&gt;Node4</title>
<path fill="none" stroke="#191970" d="M891.7503,-153.7056C879.0725,-174.9831 851.5494,-213.8086 831.7795,-238.5956"/>
<polygon fill="#191970" stroke="#191970" points="829.009,-236.4548 825.4048,-246.4178 834.4353,-240.877 829.009,-236.4548"/>
</g>
<!-- Node13 -->
<g id="node14" class="node">
<title>Node13</title>
<g id="a_node14"><a xlink:href="constraints_2basic_8h.html" target="_top" xlink:title="Functions and data structures for constraining secondary structure predictions and evaluation...">
<polygon fill="none" stroke="#000000" points="838.5,-56.5 838.5,-86.5 957.5,-86.5 957.5,-56.5 838.5,-56.5"/>
<text text-anchor="start" x="846.5" y="-74.5" font-family="Helvetica,sans-Serif" font-size="10.00" fill="#000000">ViennaRNA/constraints</text>
<text text-anchor="middle" x="898" y="-63.5" font-family="Helvetica,sans-Serif" font-size="10.00" fill="#000000">/basic.h</text>
</a>
</g>
</g>
<!-- Node12&#45;&gt;Node13 -->
<g id="edge18" class="edge">
<title>Node12&#45;&gt;Node13</title>
<path fill="none" stroke="#191970" d="M898,-123.2967C898,-115.5013 898,-105.7991 898,-96.9064"/>
<polygon fill="#191970" stroke="#191970" points="901.5001,-96.6431 898,-86.6432 894.5001,-96.6432 901.5001,-96.6431"/>
</g>
<!-- Node13&#45;&gt;Node4 -->
<g id="edge19" class="edge">
<title>Node13&#45;&gt;Node4</title>
<path fill="none" stroke="#191970" d="M929.6421,-86.5161C943.8158,-95.0591 959.0935,-107.2327 967,-123 973.1759,-135.3161 973.4258,-141.8124 967,-154 944.6302,-196.4281 897.1314,-225.3091 860.2044,-242.3616"/>
<polygon fill="#191970" stroke="#191970" points="858.769,-239.1694 851.0656,-246.4432 861.6237,-245.5609 858.769,-239.1694"/>
</g>
<!-- Node14&#45;&gt;Node4 -->
<g id="edge21" class="edge">
<title>Node14&#45;&gt;Node4</title>
<path fill="none" stroke="#191970" d="M369.714,-153.5683C423.7944,-168.6921 506.6661,-192.2326 579,-210 608.4759,-217.2402 679.4576,-232.3684 735.0778,-244.3646"/>
<polygon fill="#191970" stroke="#191970" points="734.4045,-247.7998 744.9179,-246.4891 735.8818,-240.9574 734.4045,-247.7998"/>
</g>
<!-- Node14&#45;&gt;Node13 -->
<g id="edge22" class="edge">
<title>Node14&#45;&gt;Node13</title>
<path fill="none" stroke="#191970" d="M371.7527,-124.61C374.8735,-124.031 377.9698,-123.4894 381,-123 539.8917,-97.3373 728.4568,-82.429 828.136,-75.7508"/>
<polygon fill="#191970" stroke="#191970" points="828.6326,-79.2257 838.3795,-75.0726 828.1701,-72.241 828.6326,-79.2257"/>
</g>
<!-- Node15&#45;&gt;Node4 -->
<g id="edge24" class="edge">
<title>Node15&#45;&gt;Node4</title>
<path fill="none" stroke="#191970" d="M476.5358,-148.0524C513.1933,-162.5222 579.3406,-190.386 637,-210 673.7669,-222.507 715.4056,-234.4493 748.6807,-243.6795"/>
<polygon fill="#191970" stroke="#191970" points="748.1532,-247.1648 758.7242,-246.4545 750.0176,-240.4176 748.1532,-247.1648"/>
</g>
<!-- Node17&#45;&gt;Node4 -->
<g id="edge27" class="edge">
<title>Node17&#45;&gt;Node4</title>
<path fill="none" stroke="#191970" d="M234.5818,-152.1336C301.3033,-167.4674 409.84,-192.5079 504,-210 606.3131,-229.0067 635.4247,-227.3866 735.4893,-244.6932"/>
<polygon fill="#191970" stroke="#191970" points="734.9455,-248.1511 745.3993,-246.4284 736.1529,-241.256 734.9455,-248.1511"/>
</g>
<!-- Node17&#45;&gt;Node18 -->
<g id="edge28" class="edge">
<title>Node17&#45;&gt;Node18</title>
<path fill="none" stroke="#191970" d="M149.3085,-123.2967C132.9717,-112.351 111.0241,-97.6462 94.6881,-86.701"/>
<polygon fill="#191970" stroke="#191970" points="96.517,-83.7135 86.2612,-81.055 92.6207,-89.5289 96.517,-83.7135"/>
</g>
<!-- Node18&#45;&gt;Node2 -->
<g id="edge29" class="edge">
<title>Node18&#45;&gt;Node2</title>
<path fill="none" stroke="#191970" d="M144.0038,-64.2643C276.7895,-50.9207 555.3922,-22.9238 650.9828,-13.3179"/>
<polygon fill="#191970" stroke="#191970" points="651.3443,-16.7993 660.9442,-12.3169 650.6444,-9.8344 651.3443,-16.7993"/>
</g>
<!-- Node18&#45;&gt;Node4 -->
<g id="edge30" class="edge">
<title>Node18&#45;&gt;Node4</title>
<path fill="none" stroke="#191970" d="M77.5463,-81.0867C82.3479,-98.4441 87.209,-135.0329 109,-154 213.9721,-245.3689 585.1069,-225.26 735.7802,-245.0156"/>
<polygon fill="#191970" stroke="#191970" points="735.4179,-248.4992 745.8112,-246.4424 736.4037,-241.569 735.4179,-248.4992"/>
</g>
<!-- Node19&#45;&gt;Node3 -->
<g id="edge41" class="edge">
<title>Node19&#45;&gt;Node3</title>
<path fill="none" stroke="#191970" d="M699,-313.3906C699,-304.8657 699,-292.1392 699,-281.4235"/>
<polygon fill="#191970" stroke="#191970" points="702.5001,-281.2448 699,-271.2449 695.5001,-281.2449 702.5001,-281.2448"/>
</g>
<!-- Node19&#45;&gt;Node4 -->
<g id="edge42" class="edge">
<title>Node19&#45;&gt;Node4</title>
<path fill="none" stroke="#191970" d="M716.3438,-313.3906C731.714,-304.8747 754.6516,-292.166 773.9795,-281.4573"/>
<polygon fill="#191970" stroke="#191970" points="775.7954,-284.4525 782.8463,-276.5446 772.4029,-278.3295 775.7954,-284.4525"/>
</g>
<!-- Node21&#45;&gt;Node8 -->
<g id="edge46" class="edge">
<title>Node21&#45;&gt;Node8</title>
<path fill="none" stroke="#191970" d="M1370.4628,-190.3074C1370.6847,-174.1613 1368.7097,-141.6904 1351,-123 1342.457,-113.9839 1277.0664,-95.7595 1230.1866,-83.5891"/>
<polygon fill="#191970" stroke="#191970" points="1231.0482,-80.1968 1220.491,-81.0894 1229.3006,-86.9752 1231.0482,-80.1968"/>
</g>
</g>
</svg>
