<?xml version="1.0" encoding="UTF-8" standalone="no"?>
<!DOCTYPE svg PUBLIC "-//W3C//DTD SVG 1.1//EN"
 "http://www.w3.org/Graphics/SVG/1.1/DTD/svg11.dtd">
<!-- Generated by graphviz version 2.40.1 (20161225.0304)
 -->
<!-- Title: ViennaRNA/walk.h Pages: 1 -->
<svg width="1456pt" height="397pt"
 viewBox="0.00 0.00 1456.00 397.00" xmlns="http://www.w3.org/2000/svg" xmlns:xlink="http://www.w3.org/1999/xlink">
<g id="graph0" class="graph" transform="scale(1 1) rotate(0) translate(4 393)">
<title>ViennaRNA/walk.h</title>
<!-- Node0 -->
<g id="node1" class="node">
<title>Node0</title>
<polygon fill="#bfbfbf" stroke="#000000" points="790,-369.5 790,-388.5 890,-388.5 890,-369.5 790,-369.5"/>
<text text-anchor="middle" x="840" y="-376.5" font-family="Helvetica,sans-Serif" font-size="10.00" fill="#000000">ViennaRNA/walk.h</text>
</g>
<!-- Node1 -->
<g id="node2" class="node">
<title>Node1</title>
<g id="a_node2"><a xlink:href="datastructures_2basic_8h.html" target="_top" xlink:title="Various data structures and pre&#45;processor macros. ">
<polygon fill="none" stroke="#000000" points="773,-246.5 773,-276.5 907,-276.5 907,-246.5 773,-246.5"/>
<text text-anchor="start" x="781" y="-264.5" font-family="Helvetica,sans-Serif" font-size="10.00" fill="#000000">ViennaRNA/datastructures</text>
<text text-anchor="middle" x="840" y="-253.5" font-family="Helvetica,sans-Serif" font-size="10.00" fill="#000000">/basic.h</text>
</a>
</g>
</g>
<!-- Node0&#45;&gt;Node1 -->
<g id="edge1" class="edge">
<title>Node0&#45;&gt;Node1</title>
<path fill="none" stroke="#191970" d="M833.1792,-369.328C827.3174,-360.3825 819.3034,-346.4728 816,-333 812.0478,-316.881 817.8926,-299.196 824.8019,-285.4471"/>
<polygon fill="#191970" stroke="#191970" points="827.901,-287.075 829.648,-276.6252 821.7657,-283.7047 827.901,-287.075"/>
</g>
<!-- Node17 -->
<g id="node18" class="node">
<title>Node17</title>
<g id="a_node18"><a xlink:href="neighbor_8h.html" target="_top" xlink:title="Methods to compute the neighbors of an RNA secondary structure. ">
<polygon fill="none" stroke="#000000" points="825,-313.5 825,-332.5 941,-332.5 941,-313.5 825,-313.5"/>
<text text-anchor="middle" x="883" y="-320.5" font-family="Helvetica,sans-Serif" font-size="10.00" fill="#000000">ViennaRNA/neighbor.h</text>
</a>
</g>
</g>
<!-- Node0&#45;&gt;Node17 -->
<g id="edge37" class="edge">
<title>Node0&#45;&gt;Node17</title>
<path fill="none" stroke="#191970" d="M847.49,-369.2455C853.5326,-361.3761 862.1903,-350.101 869.4441,-340.6542"/>
<polygon fill="#191970" stroke="#191970" points="872.2815,-342.7058 875.5958,-332.6427 866.7295,-338.4426 872.2815,-342.7058"/>
</g>
<!-- Node2 -->
<g id="node3" class="node">
<title>Node2</title>
<g id="a_node3"><a xlink:href="constants_8h.html" target="_top" xlink:title="Energy parameter constants. ">
<polygon fill="none" stroke="#000000" points="0,-62 0,-81 158,-81 158,-62 0,-62"/>
<text text-anchor="middle" x="79" y="-69" font-family="Helvetica,sans-Serif" font-size="10.00" fill="#000000">ViennaRNA/params/constants.h</text>
</a>
</g>
</g>
<!-- Node1&#45;&gt;Node2 -->
<g id="edge2" class="edge">
<title>Node1&#45;&gt;Node2</title>
<path fill="none" stroke="#191970" d="M772.8793,-259.0243C637.3123,-253.4935 335.3041,-238.3379 236,-210 183.2463,-194.9459 165.6914,-191.8705 126,-154 107.1572,-136.0217 93.6708,-108.8114 86.1063,-90.612"/>
<polygon fill="#191970" stroke="#191970" points="89.2689,-89.0914 82.341,-81.0756 82.7581,-91.6622 89.2689,-89.0914"/>
</g>
<!-- Node4 -->
<g id="node5" class="node">
<title>Node4</title>
<g id="a_node5"><a xlink:href="fold__compound_8h.html" target="_top" xlink:title="The Basic Fold Compound API. ">
<polygon fill="none" stroke="#000000" points="666,-190.5 666,-209.5 812,-209.5 812,-190.5 666,-190.5"/>
<text text-anchor="middle" x="739" y="-197.5" font-family="Helvetica,sans-Serif" font-size="10.00" fill="#000000">ViennaRNA/fold_compound.h</text>
</a>
</g>
</g>
<!-- Node1&#45;&gt;Node4 -->
<g id="edge4" class="edge">
<title>Node1&#45;&gt;Node4</title>
<path fill="none" stroke="#191970" d="M815.2926,-246.4554C799.4753,-236.8241 779.0433,-224.3828 763.3051,-214.7996"/>
<polygon fill="#191970" stroke="#191970" points="765.0129,-211.7418 754.6514,-209.5303 761.3723,-217.7206 765.0129,-211.7418"/>
</g>
<!-- Node5 -->
<g id="node6" class="node">
<title>Node5</title>
<g id="a_node6"><a xlink:href="model_8h.html" target="_top" xlink:title="The model details data structure and its corresponding modifiers. ">
<polygon fill="none" stroke="#000000" points="176,-62 176,-81 282,-81 282,-62 176,-62"/>
<text text-anchor="middle" x="229" y="-69" font-family="Helvetica,sans-Serif" font-size="10.00" fill="#000000">ViennaRNA/model.h</text>
</a>
</g>
</g>
<!-- Node1&#45;&gt;Node5 -->
<g id="edge28" class="edge">
<title>Node1&#45;&gt;Node5</title>
<path fill="none" stroke="#191970" d="M772.764,-256.2407C604.6704,-242.4054 176.6781,-202.6848 136,-154 113.2309,-126.7492 158.1441,-100.4489 193.1459,-85.1336"/>
<polygon fill="#191970" stroke="#191970" points="194.8334,-88.2206 202.6908,-81.1135 192.1163,-81.7695 194.8334,-88.2206"/>
</g>
<!-- Node6 -->
<g id="node7" class="node">
<title>Node6</title>
<g id="a_node7"><a xlink:href="params_2basic_8h.html" target="_top" xlink:title="Functions to deal with sets of energy parameters. ">
<polygon fill="none" stroke="#000000" points="145,-129 145,-148 283,-148 283,-129 145,-129"/>
<text text-anchor="middle" x="214" y="-136" font-family="Helvetica,sans-Serif" font-size="10.00" fill="#000000">ViennaRNA/params/basic.h</text>
</a>
</g>
</g>
<!-- Node1&#45;&gt;Node6 -->
<g id="edge29" class="edge">
<title>Node1&#45;&gt;Node6</title>
<path fill="none" stroke="#191970" d="M772.7847,-252.0233C709.7141,-242.2697 613.121,-226.2448 530,-210 432.717,-190.9874 319.8497,-165.3431 258.695,-150.4965"/>
<polygon fill="#191970" stroke="#191970" points="259.1588,-147.0069 248.6136,-148.0316 257.4962,-153.8066 259.1588,-147.0069"/>
</g>
<!-- Node8 -->
<g id="node9" class="node">
<title>Node8</title>
<g id="a_node9"><a xlink:href="dp__matrices_8h.html" target="_top" xlink:title="Functions to deal with standard dynamic programming (DP) matrices. ">
<polygon fill="none" stroke="#000000" points="301.5,-129 301.5,-148 434.5,-148 434.5,-129 301.5,-129"/>
<text text-anchor="middle" x="368" y="-136" font-family="Helvetica,sans-Serif" font-size="10.00" fill="#000000">ViennaRNA/dp_matrices.h</text>
</a>
</g>
</g>
<!-- Node1&#45;&gt;Node8 -->
<g id="edge30" class="edge">
<title>Node1&#45;&gt;Node8</title>
<path fill="none" stroke="#191970" d="M772.786,-249.3402C724.3474,-239.5487 657.7683,-224.9898 600,-210 528.7185,-191.5038 446.7008,-166.3268 401.6462,-151.3119"/>
<polygon fill="#191970" stroke="#191970" points="402.6728,-147.9645 392.0787,-148.0869 400.4368,-154.5978 402.6728,-147.9645"/>
</g>
<!-- Node9 -->
<g id="node10" class="node">
<title>Node9</title>
<g id="a_node10"><a xlink:href="hard_8h.html" target="_top" xlink:title="Functions and data structures for handling of secondary structure hard constraints. ">
<polygon fill="none" stroke="#000000" points="900.5,-123.5 900.5,-153.5 1019.5,-153.5 1019.5,-123.5 900.5,-123.5"/>
<text text-anchor="start" x="908.5" y="-141.5" font-family="Helvetica,sans-Serif" font-size="10.00" fill="#000000">ViennaRNA/constraints</text>
<text text-anchor="middle" x="960" y="-130.5" font-family="Helvetica,sans-Serif" font-size="10.00" fill="#000000">/hard.h</text>
</a>
</g>
</g>
<!-- Node1&#45;&gt;Node9 -->
<g id="edge31" class="edge">
<title>Node1&#45;&gt;Node9</title>
<path fill="none" stroke="#191970" d="M850.1001,-246.4178C868.4748,-224.9317 906.8311,-185.3741 933.1311,-160.5837"/>
<polygon fill="#191970" stroke="#191970" points="935.5911,-163.0756 940.5362,-153.7056 930.8273,-157.9467 935.5911,-163.0756"/>
</g>
<!-- Node11 -->
<g id="node12" class="node">
<title>Node11</title>
<g id="a_node12"><a xlink:href="soft_8h.html" target="_top" xlink:title="Functions and data structures for secondary structure soft constraints. ">
<polygon fill="none" stroke="#000000" points="1037.5,-123.5 1037.5,-153.5 1156.5,-153.5 1156.5,-123.5 1037.5,-123.5"/>
<text text-anchor="start" x="1045.5" y="-141.5" font-family="Helvetica,sans-Serif" font-size="10.00" fill="#000000">ViennaRNA/constraints</text>
<text text-anchor="middle" x="1097" y="-130.5" font-family="Helvetica,sans-Serif" font-size="10.00" fill="#000000">/soft.h</text>
</a>
</g>
</g>
<!-- Node1&#45;&gt;Node11 -->
<g id="edge32" class="edge">
<title>Node1&#45;&gt;Node11</title>
<path fill="none" stroke="#191970" d="M866.899,-246.4178C910.8679,-224.0874 998.1611,-182.2372 1051.7534,-157.7315"/>
<polygon fill="#191970" stroke="#191970" points="1053.3727,-160.84 1061.0255,-153.513 1050.4738,-154.4685 1053.3727,-160.84"/>
</g>
<!-- Node12 -->
<g id="node13" class="node">
<title>Node12</title>
<g id="a_node13"><a xlink:href="grammar_8h.html" target="_top" xlink:title="Implementations for the RNA folding grammar. ">
<polygon fill="none" stroke="#000000" points="453,-129 453,-148 571,-148 571,-129 453,-129"/>
<text text-anchor="middle" x="512" y="-136" font-family="Helvetica,sans-Serif" font-size="10.00" fill="#000000">ViennaRNA/grammar.h</text>
</a>
</g>
</g>
<!-- Node1&#45;&gt;Node12 -->
<g id="edge33" class="edge">
<title>Node1&#45;&gt;Node12</title>
<path fill="none" stroke="#191970" d="M772.7966,-247.7291C735.3429,-238.6052 688.3694,-225.4825 648,-210 605.2875,-193.6188 558.1882,-169.1148 531.9232,-153.4706"/>
<polygon fill="#191970" stroke="#191970" points="533.5897,-150.3868 523.236,-148.1393 529.9283,-156.3529 533.5897,-150.3868"/>
</g>
<!-- Node13 -->
<g id="node14" class="node">
<title>Node13</title>
<g id="a_node14"><a xlink:href="structured__domains_8h.html" target="_top" xlink:title="This module provides interfaces that deal with additional structured domains in the folding grammar...">
<polygon fill="none" stroke="#000000" points="767.5,-123.5 767.5,-153.5 882.5,-153.5 882.5,-123.5 767.5,-123.5"/>
<text text-anchor="start" x="775.5" y="-141.5" font-family="Helvetica,sans-Serif" font-size="10.00" fill="#000000">ViennaRNA/structured</text>
<text text-anchor="middle" x="825" y="-130.5" font-family="Helvetica,sans-Serif" font-size="10.00" fill="#000000">_domains.h</text>
</a>
</g>
</g>
<!-- Node1&#45;&gt;Node13 -->
<g id="edge34" class="edge">
<title>Node1&#45;&gt;Node13</title>
<path fill="none" stroke="#191970" d="M838.1607,-246.4178C835.6529,-225.8539 831.1264,-188.7363 828.092,-163.8546"/>
<polygon fill="#191970" stroke="#191970" points="831.5392,-163.2083 826.8543,-153.7056 824.5907,-164.0558 831.5392,-163.2083"/>
</g>
<!-- Node14 -->
<g id="node15" class="node">
<title>Node14</title>
<g id="a_node15"><a xlink:href="unstructured__domains_8h.html" target="_top" xlink:title="Functions to modify unstructured domains, e.g. to incorporate ligands binding to unpaired stretches...">
<polygon fill="none" stroke="#000000" points="1213.5,-123.5 1213.5,-153.5 1338.5,-153.5 1338.5,-123.5 1213.5,-123.5"/>
<text text-anchor="start" x="1221.5" y="-141.5" font-family="Helvetica,sans-Serif" font-size="10.00" fill="#000000">ViennaRNA/unstructured</text>
<text text-anchor="middle" x="1276" y="-130.5" font-family="Helvetica,sans-Serif" font-size="10.00" fill="#000000">_domains.h</text>
</a>
</g>
</g>
<!-- Node1&#45;&gt;Node14 -->
<g id="edge35" class="edge">
<title>Node1&#45;&gt;Node14</title>
<path fill="none" stroke="#191970" d="M907.0195,-256.1696C994.1811,-248.7351 1140.8501,-233.4657 1190,-210 1213.6264,-198.72 1234.9621,-177.6162 1250.7359,-161.2483"/>
<polygon fill="#191970" stroke="#191970" points="1253.6211,-163.2967 1258.0183,-153.6574 1248.5697,-158.4506 1253.6211,-163.2967"/>
</g>
<!-- Node15 -->
<g id="node16" class="node">
<title>Node15</title>
<g id="a_node16"><a xlink:href="utils_2structures_8h.html" target="_top" xlink:title="Various utility&#45; and helper&#45;functions for secondary structure parsing, converting, etc. ">
<polygon fill="none" stroke="#000000" points="1304,-62 1304,-81 1448,-81 1448,-62 1304,-62"/>
<text text-anchor="middle" x="1376" y="-69" font-family="Helvetica,sans-Serif" font-size="10.00" fill="#000000">ViennaRNA/utils/structures.h</text>
</a>
</g>
</g>
<!-- Node1&#45;&gt;Node15 -->
<g id="edge36" class="edge">
<title>Node1&#45;&gt;Node15</title>
<path fill="none" stroke="#191970" d="M907.0692,-254.9351C1001.4791,-245.6828 1168.3209,-227.9259 1227,-210 1280.225,-193.7403 1302.4216,-195.944 1339,-154 1354.633,-136.0739 1361.6254,-109.041 1366.7798,-90.8535"/>
<polygon fill="#191970" stroke="#191970" points="1370.1946,-91.6525 1369.7328,-81.0677 1363.493,-89.6302 1370.1946,-91.6525"/>
</g>
<!-- Node3 -->
<g id="node4" class="node">
<title>Node3</title>
<polygon fill="none" stroke="#bfbfbf" points="55,-.5 55,-19.5 103,-19.5 103,-.5 55,-.5"/>
<text text-anchor="middle" x="79" y="-7.5" font-family="Helvetica,sans-Serif" font-size="10.00" fill="#000000">limits.h</text>
</g>
<!-- Node2&#45;&gt;Node3 -->
<g id="edge3" class="edge">
<title>Node2&#45;&gt;Node3</title>
<path fill="none" stroke="#191970" d="M79,-61.8906C79,-53.3657 79,-40.6392 79,-29.9235"/>
<polygon fill="#191970" stroke="#191970" points="82.5001,-29.7448 79,-19.7449 75.5001,-29.7449 82.5001,-29.7448"/>
</g>
<!-- Node4&#45;&gt;Node5 -->
<g id="edge5" class="edge">
<title>Node4&#45;&gt;Node5</title>
<path fill="none" stroke="#191970" d="M739.8089,-190.4508C740.6266,-173.9175 739.6212,-140.0946 720,-123 688.3749,-95.4473 418.0404,-79.9197 292.5388,-74.1368"/>
<polygon fill="#191970" stroke="#191970" points="292.4548,-70.6295 282.3063,-73.6721 292.1372,-77.6223 292.4548,-70.6295"/>
</g>
<!-- Node4&#45;&gt;Node6 -->
<g id="edge6" class="edge">
<title>Node4&#45;&gt;Node6</title>
<path fill="none" stroke="#191970" d="M665.9575,-194.5954C577.2322,-187.5441 423.1473,-173.7345 292,-154 284.3203,-152.8444 276.2497,-151.4483 268.3307,-149.9732"/>
<polygon fill="#191970" stroke="#191970" points="268.9019,-146.519 258.4218,-148.0746 267.5845,-153.394 268.9019,-146.519"/>
</g>
<!-- Node7 -->
<g id="node8" class="node">
<title>Node7</title>
<g id="a_node8"><a xlink:href="sequence_8h.html" target="_top" xlink:title="Functions and data structures related to sequence representations ,. ">
<polygon fill="none" stroke="#000000" points="589,-129 589,-148 711,-148 711,-129 589,-129"/>
<text text-anchor="middle" x="650" y="-136" font-family="Helvetica,sans-Serif" font-size="10.00" fill="#000000">ViennaRNA/sequence.h</text>
</a>
</g>
</g>
<!-- Node4&#45;&gt;Node7 -->
<g id="edge10" class="edge">
<title>Node4&#45;&gt;Node7</title>
<path fill="none" stroke="#191970" d="M725.0938,-190.3906C710.9862,-180.6421 688.9276,-165.3994 672.3615,-153.9521"/>
<polygon fill="#191970" stroke="#191970" points="674.0253,-150.8474 663.8086,-148.0419 670.0458,-156.6063 674.0253,-150.8474"/>
</g>
<!-- Node4&#45;&gt;Node8 -->
<g id="edge11" class="edge">
<title>Node4&#45;&gt;Node8</title>
<path fill="none" stroke="#191970" d="M672.0697,-190.4696C612.1811,-181.7264 522.0541,-168.0372 444,-154 437.2325,-152.7829 430.141,-151.4347 423.124,-150.0561"/>
<polygon fill="#191970" stroke="#191970" points="423.4345,-146.5492 412.9431,-148.0262 422.0657,-153.414 423.4345,-146.5492"/>
</g>
<!-- Node4&#45;&gt;Node9 -->
<g id="edge13" class="edge">
<title>Node4&#45;&gt;Node9</title>
<path fill="none" stroke="#191970" d="M773.5313,-190.3906C806.2796,-181.2774 856.282,-167.3627 896.2665,-156.2358"/>
<polygon fill="#191970" stroke="#191970" points="897.2417,-159.5975 905.9373,-153.5446 895.365,-152.8537 897.2417,-159.5975"/>
</g>
<!-- Node4&#45;&gt;Node11 -->
<g id="edge17" class="edge">
<title>Node4&#45;&gt;Node11</title>
<path fill="none" stroke="#191970" d="M807.1949,-190.4964C863.8047,-182.3063 946.6427,-169.6292 1027.4952,-154.2269"/>
<polygon fill="#191970" stroke="#191970" points="1028.1833,-157.6588 1037.3435,-152.3352 1026.8628,-150.7845 1028.1833,-157.6588"/>
</g>
<!-- Node4&#45;&gt;Node12 -->
<g id="edge20" class="edge">
<title>Node4&#45;&gt;Node12</title>
<path fill="none" stroke="#191970" d="M703.5313,-190.3906C664.0507,-179.6944 600.1557,-162.3836 557.1395,-150.7294"/>
<polygon fill="#191970" stroke="#191970" points="557.787,-147.2787 547.2197,-148.0419 555.9565,-154.0352 557.787,-147.2787"/>
</g>
<!-- Node4&#45;&gt;Node13 -->
<g id="edge22" class="edge">
<title>Node4&#45;&gt;Node13</title>
<path fill="none" stroke="#191970" d="M752.4375,-190.3906C763.9688,-182.1444 780.9976,-169.9669 795.6611,-159.4807"/>
<polygon fill="#191970" stroke="#191970" points="797.8638,-162.2084 803.962,-153.5446 793.792,-156.5145 797.8638,-162.2084"/>
</g>
<!-- Node4&#45;&gt;Node14 -->
<g id="edge23" class="edge">
<title>Node4&#45;&gt;Node14</title>
<path fill="none" stroke="#191970" d="M812.375,-192.8311C897.5094,-184.3428 1042.0641,-169.4034 1166,-154 1177.9616,-152.5133 1190.6392,-150.8287 1202.97,-149.1314"/>
<polygon fill="#191970" stroke="#191970" points="1203.8,-152.5498 1213.2231,-147.7068 1202.8365,-145.6164 1203.8,-152.5498"/>
</g>
<!-- Node6&#45;&gt;Node1 -->
<g id="edge8" class="edge">
<title>Node6&#45;&gt;Node1</title>
<path fill="none" stroke="#191970" d="M260.1988,-148.0316C324.7385,-162.3538 445.0891,-189.8875 548,-210 620.7959,-224.2269 703.9249,-238.2852 762.8815,-248.1099"/>
<polygon fill="#191970" stroke="#191970" points="762.4252,-251.5821 772.8643,-249.7718 763.5748,-244.6771 762.4252,-251.5821"/>
</g>
<!-- Node6&#45;&gt;Node2 -->
<g id="edge7" class="edge">
<title>Node6&#45;&gt;Node2</title>
<path fill="none" stroke="#191970" d="M194.6578,-128.9005C171.8013,-117.5569 133.573,-98.5844 107.3666,-85.5783"/>
<polygon fill="#191970" stroke="#191970" points="108.8198,-82.3922 98.3063,-81.0817 105.7079,-88.6624 108.8198,-82.3922"/>
</g>
<!-- Node6&#45;&gt;Node5 -->
<g id="edge9" class="edge">
<title>Node6&#45;&gt;Node5</title>
<path fill="none" stroke="#191970" d="M216.1491,-128.9005C218.3546,-119.0495 221.8481,-103.4451 224.6363,-90.9912"/>
<polygon fill="#191970" stroke="#191970" points="228.0855,-91.6048 226.8549,-81.0817 221.2546,-90.0754 228.0855,-91.6048"/>
</g>
<!-- Node8&#45;&gt;Node1 -->
<g id="edge12" class="edge">
<title>Node8&#45;&gt;Node1</title>
<path fill="none" stroke="#191970" d="M403.6639,-148.0869C452.2334,-162.4803 541.3274,-190.1049 618,-210 666.6125,-222.614 721.4642,-234.923 764.5356,-244.3426"/>
<polygon fill="#191970" stroke="#191970" points="763.8615,-247.7778 774.3778,-246.49 765.3538,-240.9387 763.8615,-247.7778"/>
</g>
<!-- Node9&#45;&gt;Node1 -->
<g id="edge14" class="edge">
<title>Node9&#45;&gt;Node1</title>
<path fill="none" stroke="#191970" d="M949.7944,-153.7056C931.3434,-175.2606 892.9721,-214.8244 866.7183,-239.5583"/>
<polygon fill="#191970" stroke="#191970" points="864.2766,-237.0493 859.3286,-246.4178 869.0389,-242.1797 864.2766,-237.0493"/>
</g>
<!-- Node10 -->
<g id="node11" class="node">
<title>Node10</title>
<g id="a_node11"><a xlink:href="constraints_2basic_8h.html" target="_top" xlink:title="Functions and data structures for constraining secondary structure predictions and evaluation...">
<polygon fill="none" stroke="#000000" points="1037.5,-56.5 1037.5,-86.5 1156.5,-86.5 1156.5,-56.5 1037.5,-56.5"/>
<text text-anchor="start" x="1045.5" y="-74.5" font-family="Helvetica,sans-Serif" font-size="10.00" fill="#000000">ViennaRNA/constraints</text>
<text text-anchor="middle" x="1097" y="-63.5" font-family="Helvetica,sans-Serif" font-size="10.00" fill="#000000">/basic.h</text>
</a>
</g>
</g>
<!-- Node9&#45;&gt;Node10 -->
<g id="edge15" class="edge">
<title>Node9&#45;&gt;Node10</title>
<path fill="none" stroke="#191970" d="M990.7455,-123.4639C1010.2624,-113.9191 1035.7257,-101.4663 1056.8325,-91.144"/>
<polygon fill="#191970" stroke="#191970" points="1058.4375,-94.2552 1065.8831,-86.7177 1055.3622,-87.9669 1058.4375,-94.2552"/>
</g>
<!-- Node10&#45;&gt;Node1 -->
<g id="edge16" class="edge">
<title>Node10&#45;&gt;Node1</title>
<path fill="none" stroke="#191970" d="M1125.2471,-86.787C1151.3866,-102.9628 1183.7263,-129.4895 1166,-154 1136.4917,-194.8017 1003.8892,-228.5786 917.1567,-246.826"/>
<polygon fill="#191970" stroke="#191970" points="916.4202,-243.4042 907.3418,-248.866 917.8448,-250.2577 916.4202,-243.4042"/>
</g>
<!-- Node11&#45;&gt;Node1 -->
<g id="edge18" class="edge">
<title>Node11&#45;&gt;Node1</title>
<path fill="none" stroke="#191970" d="M1070.2373,-153.513C1026.3581,-175.803 939.0749,-217.6509 885.413,-242.1924"/>
<polygon fill="#191970" stroke="#191970" points="883.7798,-239.0902 876.1275,-246.4178 886.6791,-245.4616 883.7798,-239.0902"/>
</g>
<!-- Node11&#45;&gt;Node10 -->
<g id="edge19" class="edge">
<title>Node11&#45;&gt;Node10</title>
<path fill="none" stroke="#191970" d="M1097,-123.2967C1097,-115.5013 1097,-105.7991 1097,-96.9064"/>
<polygon fill="#191970" stroke="#191970" points="1100.5001,-96.6431 1097,-86.6432 1093.5001,-96.6432 1100.5001,-96.6431"/>
</g>
<!-- Node12&#45;&gt;Node1 -->
<g id="edge21" class="edge">
<title>Node12&#45;&gt;Node1</title>
<path fill="none" stroke="#191970" d="M534.6608,-148.1393C564.5538,-162.9737 618.0421,-191.6071 666,-210 700.9091,-223.3884 740.7566,-235.0122 773.5567,-243.8114"/>
<polygon fill="#191970" stroke="#191970" points="772.9331,-247.2671 783.4964,-246.4504 774.7294,-240.5015 772.9331,-247.2671"/>
</g>
<!-- Node14&#45;&gt;Node1 -->
<g id="edge24" class="edge">
<title>Node14&#45;&gt;Node1</title>
<path fill="none" stroke="#191970" d="M1271.0214,-153.6574C1259.8834,-170.4465 1235.4925,-196.8742 1208,-210 1158.5038,-233.631 1010.1094,-248.9498 917.5126,-256.3256"/>
<polygon fill="#191970" stroke="#191970" points="917.0388,-252.8519 907.3424,-257.1217 917.5851,-259.8306 917.0388,-252.8519"/>
</g>
<!-- Node14&#45;&gt;Node15 -->
<g id="edge25" class="edge">
<title>Node14&#45;&gt;Node15</title>
<path fill="none" stroke="#191970" d="M1298.6915,-123.2967C1315.0283,-112.351 1336.9759,-97.6462 1353.3119,-86.701"/>
<polygon fill="#191970" stroke="#191970" points="1355.3793,-89.5289 1361.7388,-81.055 1351.483,-83.7135 1355.3793,-89.5289"/>
</g>
<!-- Node15&#45;&gt;Node1 -->
<g id="edge27" class="edge">
<title>Node15&#45;&gt;Node1</title>
<path fill="none" stroke="#191970" d="M1380.4895,-81.0677C1382.0965,-97.7551 1375.7889,-132.455 1357,-154 1320.4216,-195.944 1298.225,-193.7403 1245,-210 1185.9455,-228.0406 1017.34,-245.91 917.2019,-255.1116"/>
<polygon fill="#191970" stroke="#191970" points="916.7754,-251.6359 907.1341,-256.0287 917.4104,-258.607 916.7754,-251.6359"/>
</g>
<!-- Node16 -->
<g id="node17" class="node">
<title>Node16</title>
<polygon fill="none" stroke="#bfbfbf" points="1353,-.5 1353,-19.5 1399,-19.5 1399,-.5 1353,-.5"/>
<text text-anchor="middle" x="1376" y="-7.5" font-family="Helvetica,sans-Serif" font-size="10.00" fill="#000000">stdio.h</text>
</g>
<!-- Node15&#45;&gt;Node16 -->
<g id="edge26" class="edge">
<title>Node15&#45;&gt;Node16</title>
<path fill="none" stroke="#191970" d="M1376,-61.8906C1376,-53.3657 1376,-40.6392 1376,-29.9235"/>
<polygon fill="#191970" stroke="#191970" points="1379.5001,-29.7448 1376,-19.7449 1372.5001,-29.7449 1379.5001,-29.7448"/>
</g>
<!-- Node17&#45;&gt;Node1 -->
<g id="edge38" class="edge">
<title>Node17&#45;&gt;Node1</title>
<path fill="none" stroke="#191970" d="M876.2813,-313.3906C870.9467,-305.761 863.259,-294.7658 856.3321,-284.8588"/>
<polygon fill="#191970" stroke="#191970" points="859.1176,-282.7345 850.519,-276.5446 853.3808,-286.7456 859.1176,-282.7345"/>
</g>
</g>
</svg>
