<?xml version="1.0" encoding="UTF-8" standalone="yes"?>
<svg xmlns="http://www.w3.org/2000/svg" height="452" width="452">
<script type="text/ecmascript">
      <![CDATA[
        var shown = 1;
        function click() {
             var seq = document.getElementById("seq");
             if (shown==1) {
               seq.setAttribute("style", "visibility: hidden");
               shown = 0;
             } else {
               seq.setAttribute("style", "visibility: visible");
               shown = 1;
             }
         }
        ]]>
</script>
  <rect style="stroke: white; fill: white" height="452" x="0" y="0" width="452" onclick="click(evt)" />
  <g transform="scale(1.411090,1.411090) translate(98.543159,64.969849)">
    <polyline style="stroke: black; fill: none; stroke-width: 1.5" id="outline" points="
      92.500,-43.194
      92.500,-28.194
      92.500,-13.194
      92.500,1.806
      92.500,16.806
      92.500,31.806
      92.500,46.806
      92.500,61.806
      77.742,70.956
      70.674,86.816
      55.812,88.846
      40.950,90.876
      26.088,92.906
      11.226,94.936
      -3.636,96.966
      -18.498,98.996
      -33.360,101.026
      -48.222,103.056
      -59.680,92.414
      -75.300,91.678
      -87.707,101.196
      -91.043,116.474
      -83.733,130.298
      -69.227,136.140
      -54.376,131.242
      -46.192,117.918
      -31.330,115.888
      -16.468,113.858
      -1.606,111.828
      13.256,109.798
      28.118,107.768
      42.980,105.738
      57.842,103.708
      72.704,101.678
      85.229,115.964
      103.864,119.668
      109.537,133.554
      109.924,142.949
      115.708,147.861
      121.915,161.517
      120.582,177.282
      132.893,185.666
      139.100,199.322
      145.307,212.977
      146.357,229.898
      162.908,233.574
      171.021,218.687
      158.963,206.770
      152.755,193.114
      146.548,179.459
      148.325,164.671
      135.571,155.309
      129.364,141.654
      123.423,127.881
      117.750,113.995
      124.280,107.209
      128.342,98.713
      129.524,89.370
      143.894,85.068
      158.264,80.766
      172.634,76.464
      187.004,72.162
      202.827,76.468
      214.276,64.727
      209.573,49.017
      193.556,45.499
      182.702,57.792
      168.332,62.094
      153.962,66.396
      139.592,70.698
      125.222,75.000
      117.641,66.684
      107.500,61.806
      107.500,46.806
      107.500,31.806
      107.500,16.806
      107.500,1.806
      107.500,-13.194
      107.500,-28.194
      107.500,-43.194
    " />
    <g style="stroke: black; stroke-width: 1; fill: none;" id="pairs">
      <line id="1,80" x1="92.50000" y1="-43.19385" x2="107.50000" y2="-43.19385" />
      <line id="2,79" x1="92.50000" y1="-28.19385" x2="107.50000" y2="-28.19385" />
      <line id="3,78" x1="92.50000" y1="-13.19385" x2="107.50000" y2="-13.19385" />
      <line id="4,77" x1="92.50000" y1="1.80615" x2="107.50000" y2="1.80615" />
      <line id="5,76" x1="92.50000" y1="16.80615" x2="107.50000" y2="16.80615" />
      <line id="6,75" x1="92.50000" y1="31.80615" x2="107.50000" y2="31.80615" />
      <line id="7,74" x1="92.50000" y1="46.80615" x2="107.50000" y2="46.80615" />
      <line id="8,73" x1="92.50000" y1="61.80615" x2="107.50000" y2="61.80615" />
      <line id="10,34" x1="70.67410" y1="86.81587" x2="72.70406" y2="101.67787" />
      <line id="11,33" x1="55.81208" y1="88.84584" x2="57.84206" y2="103.70785" />
      <line id="12,32" x1="40.95008" y1="90.87581" x2="42.98005" y2="105.73782" />
      <line id="13,31" x1="26.08807" y1="92.90578" x2="28.11804" y2="107.76778" />
      <line id="14,30" x1="11.22607" y1="94.93575" x2="13.25604" y2="109.79775" />
      <line id="15,29" x1="-3.63594" y1="96.96571" x2="-1.60597" y2="111.82772" />
      <line id="16,28" x1="-18.49795" y1="98.99569" x2="-16.46798" y2="113.85769" />
      <line id="17,27" x1="-33.35995" y1="101.02566" x2="-31.32998" y2="115.88766" />
      <line id="18,26" x1="-48.22196" y1="103.05563" x2="-46.19199" y2="117.91763" />
      <line id="36,55" x1="103.86367" y1="119.66788" x2="117.74953" y2="113.99489" />
      <line id="37,54" x1="109.53667" y1="133.55374" x2="123.42253" y2="127.88075" />
      <line id="39,53" x1="115.70828" y1="147.86115" x2="129.36372" y2="141.65399" />
      <line id="40,52" x1="121.91544" y1="161.51660" x2="135.57089" y2="155.30943" />
      <line id="42,50" x1="132.89279" y1="185.66620" x2="146.54823" y2="179.45903" />
      <line id="43,49" x1="139.09995" y1="199.32164" x2="152.75539" y2="193.11449" />
      <line id="44,48" x1="145.30711" y1="212.97708" x2="158.96255" y2="206.76993" />
      <line id="58,71" x1="129.52441" y1="89.36981" x2="125.22237" y2="74.99997" />
      <line id="59,70" x1="143.89426" y1="85.06776" x2="139.59221" y2="70.69792" />
      <line id="60,69" x1="158.26410" y1="80.76571" x2="153.96205" y2="66.39587" />
      <line id="61,68" x1="172.63394" y1="76.46366" x2="168.33189" y2="62.09383" />
      <line id="62,67" x1="187.00378" y1="72.16161" x2="182.70174" y2="57.79178" />
    </g>
    <g style="font-family: SansSerif" transform="translate(-4.6, 4)" id="seq">
      <text x="92.500" y="-43.194">G</text>
      <text x="92.500" y="-28.194">G</text>
      <text x="92.500" y="-13.194">G</text>
      <text x="92.500" y="1.806">C</text>
      <text x="92.500" y="16.806">G</text>
      <text x="92.500" y="31.806">A</text>
      <text x="92.500" y="46.806">C</text>
      <text x="92.500" y="61.806">C</text>
      <text x="77.742" y="70.956">C</text>
      <text x="70.674" y="86.816">U</text>
      <text x="55.812" y="88.846">G</text>
      <text x="40.950" y="90.876">A</text>
      <text x="26.088" y="92.906">U</text>
      <text x="11.226" y="94.936">G</text>
      <text x="-3.636" y="96.966">A</text>
      <text x="-18.498" y="98.996">G</text>
      <text x="-33.360" y="101.026">C</text>
      <text x="-48.222" y="103.056">U</text>
      <text x="-59.680" y="92.414">U</text>
      <text x="-75.300" y="91.678">G</text>
      <text x="-87.707" y="101.196">A</text>
      <text x="-91.043" y="116.474">G</text>
      <text x="-83.733" y="130.298">U</text>
      <text x="-69.227" y="136.140">U</text>
      <text x="-54.376" y="131.242">U</text>
      <text x="-46.192" y="117.918">A</text>
      <text x="-31.330" y="115.888">G</text>
      <text x="-16.468" y="113.858">C</text>
      <text x="-1.606" y="111.828">U</text>
      <text x="13.256" y="109.798">C</text>
      <text x="28.118" y="107.768">G</text>
      <text x="42.980" y="105.738">U</text>
      <text x="57.842" y="103.708">C</text>
      <text x="72.704" y="101.678">A</text>
      <text x="85.229" y="115.964">C</text>
      <text x="103.864" y="119.668">U</text>
      <text x="109.537" y="133.554">G</text>
      <text x="109.924" y="142.949">U</text>
      <text x="115.708" y="147.861">C</text>
      <text x="121.915" y="161.517">C</text>
      <text x="120.582" y="177.282">A</text>
      <text x="132.893" y="185.666">G</text>
      <text x="139.100" y="199.322">G</text>
      <text x="145.307" y="212.977">U</text>
      <text x="146.357" y="229.898">U</text>
      <text x="162.908" y="233.574">C</text>
      <text x="171.021" y="218.687">A</text>
      <text x="158.963" y="206.770">A</text>
      <text x="152.755" y="193.114">U</text>
      <text x="146.548" y="179.459">C</text>
      <text x="148.325" y="164.671">A</text>
      <text x="135.571" y="155.309">G</text>
      <text x="129.364" y="141.654">G</text>
      <text x="123.423" y="127.881">C</text>
      <text x="117.750" y="113.995">G</text>
      <text x="124.280" y="107.209">A</text>
      <text x="128.342" y="98.713">A</text>
      <text x="129.524" y="89.370">A</text>
      <text x="143.894" y="85.068">C</text>
      <text x="158.264" y="80.766">G</text>
      <text x="172.634" y="76.464">G</text>
      <text x="187.004" y="72.162">U</text>
      <text x="202.827" y="76.468">G</text>
      <text x="214.276" y="64.727">A</text>
      <text x="209.573" y="49.017">A</text>
      <text x="193.556" y="45.499">A</text>
      <text x="182.702" y="57.792">G</text>
      <text x="168.332" y="62.094">C</text>
      <text x="153.962" y="66.396">C</text>
      <text x="139.592" y="70.698">G</text>
      <text x="125.222" y="75.000">U</text>
      <text x="117.641" y="66.684">A</text>
      <text x="107.500" y="61.806">G</text>
      <text x="107.500" y="46.806">G</text>
      <text x="107.500" y="31.806">U</text>
      <text x="107.500" y="16.806">U</text>
      <text x="107.500" y="1.806">G</text>
      <text x="107.500" y="-13.194">C</text>
      <text x="107.500" y="-28.194">C</text>
      <text x="107.500" y="-43.194">C</text>
    </g>
  </g>
</svg>
