<?xml version="1.0" encoding="UTF-8" standalone="yes"?>
<svg xmlns="http://www.w3.org/2000/svg" height="452" width="452">
<script type="text/ecmascript">
      <![CDATA[
        var shown = 1;
        function click() {
             var seq = document.getElementById("seq");
             if (shown==1) {
               seq.setAttribute("style", "visibility: hidden");
               shown = 0;
             } else {
               seq.setAttribute("style", "visibility: visible");
               shown = 1;
             }
         }
        ]]>
</script>
  <rect style="stroke: white; fill: white" height="452" x="0" y="0" width="452" onclick="click(evt)" />
  <g transform="scale(1.047460,1.047460) translate(70.048050,100.879211)">
    <polyline style="stroke: black; fill: none; stroke-width: 1.5" id="outline" points="
      67.917,-93.379
      70.757,-74.207
      71.264,-59.215
      71.770,-44.224
      72.277,-29.232
      59.564,-21.470
      52.397,-8.298
      52.787,6.792
      60.730,19.746
      74.178,27.032
      74.685,42.024
      75.191,57.015
      75.698,72.006
      76.205,86.998
      76.711,101.989
      72.587,87.568
      60.497,78.688
      45.502,79.067
      33.876,88.546
      30.485,103.157
      36.748,116.787
      50.044,123.732
      64.809,121.084
      51.127,127.231
      37.444,133.378
      23.762,139.526
      9.079,133.678
      -5.405,140.002
      -11.096,154.746
      -4.620,169.162
      10.184,174.698
      24.530,168.069
      29.909,153.208
      43.592,147.061
      57.274,140.914
      70.957,134.766
      77.800,146.166
      88.376,152.723
      99.931,153.630
      109.823,149.447
      120.695,159.782
      131.567,170.116
      142.439,180.451
      153.311,190.785
      164.183,201.120
      168.854,216.235
      183.409,219.396
      194.281,229.731
      205.153,240.065
      216.025,250.400
      216.588,265.966
      227.761,276.292
      242.598,275.659
      253.470,285.994
      264.342,296.328
      264.492,312.132
      275.831,323.141
      291.632,322.824
      302.521,311.369
      302.037,295.572
      290.467,284.806
      274.676,285.456
      263.805,275.122
      252.933,264.787
      252.813,249.937
      241.935,239.302
      226.360,239.528
      215.488,229.193
      204.616,218.859
      193.744,208.524
      189.850,194.148
      174.517,190.248
      163.645,179.913
      152.773,169.579
      141.901,159.244
      131.030,148.910
      120.158,138.575
      119.314,112.753
      91.703,101.483
      91.196,86.491
      90.689,71.500
      90.183,56.508
      89.676,41.517
      89.170,26.525
      102.095,18.348
      109.146,4.887
      108.516,-10.195
      100.476,-22.852
      87.268,-29.739
      86.762,-44.730
      86.255,-59.722
      85.748,-74.713
    " />
    <g style="stroke: black; stroke-width: 1; fill: none;" id="pairs">
      <line id="2,92" x1="70.75689" y1="-74.20671" x2="85.74833" y2="-74.71333" />
      <line id="3,91" x1="71.26350" y1="-59.21529" x2="86.25494" y2="-59.72188" />
      <line id="4,90" x1="71.77011" y1="-44.22383" x2="86.76156" y2="-44.73045" />
      <line id="5,89" x1="72.27673" y1="-29.23241" x2="87.26817" y2="-29.73900" />
      <line id="10,84" x1="74.17809" y1="27.03210" x2="89.16954" y2="26.52548" />
      <line id="11,83" x1="74.68471" y1="42.02354" x2="89.67615" y2="41.51692" />
      <line id="12,82" x1="75.19132" y1="57.01498" x2="90.18276" y2="56.50838" />
      <line id="13,81" x1="75.69793" y1="72.00642" x2="90.68938" y2="71.49982" />
      <line id="14,80" x1="76.20454" y1="86.99786" x2="91.19598" y2="86.49126" />
      <line id="15,79" x1="76.71116" y1="101.98931" x2="91.70260" y2="101.48270" />
      <line id="23,36" x1="64.80946" y1="121.08380" x2="70.95677" y2="134.76630" />
      <line id="24,35" x1="51.12697" y1="127.23111" x2="57.27428" y2="140.91360" />
      <line id="25,34" x1="37.44448" y1="133.37842" x2="43.59178" y2="147.06091" />
      <line id="26,33" x1="23.76198" y1="139.52573" x2="29.90929" y2="153.20822" />
      <line id="40,77" x1="109.82313" y1="149.44716" x2="120.15763" y2="138.57526" />
      <line id="41,76" x1="120.69502" y1="159.78166" x2="131.02953" y2="148.90976" />
      <line id="42,75" x1="131.56691" y1="170.11617" x2="141.90141" y2="159.24428" />
      <line id="43,74" x1="142.43880" y1="180.45067" x2="152.77330" y2="169.57878" />
      <line id="44,73" x1="153.31070" y1="190.78517" x2="163.64520" y2="179.91328" />
      <line id="45,72" x1="164.18259" y1="201.11967" x2="174.51709" y2="190.24779" />
      <line id="47,70" x1="183.40948" y1="219.39621" x2="193.74399" y2="208.52432" />
      <line id="48,69" x1="194.28137" y1="229.73071" x2="204.61588" y2="218.85883" />
      <line id="49,68" x1="205.15327" y1="240.06522" x2="215.48778" y2="229.19333" />
      <line id="50,67" x1="216.02516" y1="250.39972" x2="226.35966" y2="239.52783" />
      <line id="53,64" x1="242.59819" y1="275.65927" x2="252.93269" y2="264.78738" />
      <line id="54,63" x1="253.47009" y1="285.99377" x2="263.80460" y2="275.12189" />
      <line id="55,62" x1="264.34198" y1="296.32828" x2="274.67648" y2="285.45639" />
    </g>
    <g style="font-family: SansSerif" transform="translate(-4.6, 4)" id="seq">
      <text x="67.917" y="-93.379">G</text>
      <text x="70.757" y="-74.207">G</text>
      <text x="71.264" y="-59.215">C</text>
      <text x="71.770" y="-44.224">A</text>
      <text x="72.277" y="-29.232">G</text>
      <text x="59.564" y="-21.470">G</text>
      <text x="52.397" y="-8.298">U</text>
      <text x="52.787" y="6.792">A</text>
      <text x="60.730" y="19.746">C</text>
      <text x="74.178" y="27.032">A</text>
      <text x="74.685" y="42.024">U</text>
      <text x="75.191" y="57.015">A</text>
      <text x="75.698" y="72.006">C</text>
      <text x="76.205" y="86.998">A</text>
      <text x="76.711" y="101.989">G</text>
      <text x="72.587" y="87.568">C</text>
      <text x="60.497" y="78.688">U</text>
      <text x="45.502" y="79.067">G</text>
      <text x="33.876" y="88.546">A</text>
      <text x="30.485" y="103.157">U</text>
      <text x="36.748" y="116.787">G</text>
      <text x="50.044" y="123.732">A</text>
      <text x="64.809" y="121.084">G</text>
      <text x="51.127" y="127.231">U</text>
      <text x="37.444" y="133.378">C</text>
      <text x="23.762" y="139.526">C</text>
      <text x="9.079" y="133.678">C</text>
      <text x="-5.405" y="140.002">A</text>
      <text x="-11.096" y="154.746">A</text>
      <text x="-4.620" y="169.162">A</text>
      <text x="10.184" y="174.698">U</text>
      <text x="24.530" y="168.069">A</text>
      <text x="29.909" y="153.208">G</text>
      <text x="43.592" y="147.061">G</text>
      <text x="57.274" y="140.914">A</text>
      <text x="70.957" y="134.766">C</text>
      <text x="77.800" y="146.166">G</text>
      <text x="88.376" y="152.723">A</text>
      <text x="99.931" y="153.630">A</text>
      <text x="109.823" y="149.447">A</text>
      <text x="120.695" y="159.782">C</text>
      <text x="131.567" y="170.116">G</text>
      <text x="142.439" y="180.451">C</text>
      <text x="153.311" y="190.785">G</text>
      <text x="164.183" y="201.120">A</text>
      <text x="168.854" y="216.235">C</text>
      <text x="183.409" y="219.396">A</text>
      <text x="194.281" y="229.731">C</text>
      <text x="205.153" y="240.065">A</text>
      <text x="216.025" y="250.400">C</text>
      <text x="216.588" y="265.966">A</text>
      <text x="227.761" y="276.292">C</text>
      <text x="242.598" y="275.659">C</text>
      <text x="253.470" y="285.994">A</text>
      <text x="264.342" y="296.328">C</text>
      <text x="264.492" y="312.132">U</text>
      <text x="275.831" y="323.141">A</text>
      <text x="291.632" y="322.824">A</text>
      <text x="302.521" y="311.369">A</text>
      <text x="302.037" y="295.572">C</text>
      <text x="290.467" y="284.806">C</text>
      <text x="274.676" y="285.456">G</text>
      <text x="263.805" y="275.122">U</text>
      <text x="252.933" y="264.787">G</text>
      <text x="252.813" y="249.937">C</text>
      <text x="241.935" y="239.302">A</text>
      <text x="226.360" y="239.528">G</text>
      <text x="215.488" y="229.193">U</text>
      <text x="204.616" y="218.859">G</text>
      <text x="193.744" y="208.524">U</text>
      <text x="189.850" y="194.148">U</text>
      <text x="174.517" y="190.248">U</text>
      <text x="163.645" y="179.913">U</text>
      <text x="152.773" y="169.579">G</text>
      <text x="141.901" y="159.244">C</text>
      <text x="131.030" y="148.910">G</text>
      <text x="120.158" y="138.575">U</text>
      <text x="119.314" y="112.753">C</text>
      <text x="91.703" y="101.483">C</text>
      <text x="91.196" y="86.491">U</text>
      <text x="90.689" y="71.500">G</text>
      <text x="90.183" y="56.508">U</text>
      <text x="89.676" y="41.517">A</text>
      <text x="89.170" y="26.525">U</text>
      <text x="102.095" y="18.348">U</text>
      <text x="109.146" y="4.887">C</text>
      <text x="108.516" y="-10.195">C</text>
      <text x="100.476" y="-22.852">A</text>
      <text x="87.268" y="-29.739">C</text>
      <text x="86.762" y="-44.730">U</text>
      <text x="86.255" y="-59.722">G</text>
      <text x="85.748" y="-74.713">C</text>
    </g>
  </g>
</svg>
