<?xml version="1.0" encoding="UTF-8" standalone="yes"?>
<svg xmlns="http://www.w3.org/2000/svg" height="452" width="452">
<script type="text/ecmascript">
      <![CDATA[
        var shown = 1;
        function click() {
             var seq = document.getElementById("seq");
             if (shown==1) {
               seq.setAttribute("style", "visibility: hidden");
               shown = 0;
             } else {
               seq.setAttribute("style", "visibility: visible");
               shown = 1;
             }
         }
        ]]>
</script>
  <rect style="stroke: white; fill: white" height="452" x="0" y="0" width="452" onclick="click(evt)" />
  <g transform="scale(0.913522,0.913522) translate(260.394531,220.158279)">
    <polyline style="stroke: black; fill: none; stroke-width: 1.5" id="outline" points="
      119.528,-157.148
      115.814,-142.616
      112.100,-128.083
      108.386,-113.550
      104.672,-99.017
      100.957,-84.484
      97.243,-69.951
      93.529,-55.418
      85.969,-42.463
      75.143,-32.080
      64.318,-21.696
      53.493,-11.313
      42.667,-0.930
      31.698,9.302
      20.589,19.380
      9.479,29.458
      -1.631,39.536
      -12.741,49.614
      -23.851,59.693
      -34.961,69.771
      -48.335,67.574
      -60.337,73.437
      -66.639,84.993
      -65.112,97.870
      -75.937,108.253
      -86.763,118.636
      -101.053,113.386
      -116.143,114.855
      -129.047,122.698
      -137.232,135.314
      -139.120,150.172
      -134.389,164.317
      -145.215,174.700
      -156.040,185.083
      -171.356,189.052
      -175.185,203.446
      -186.011,213.829
      -196.836,224.212
      -212.362,222.345
      -225.427,230.937
      -229.863,245.933
      -223.575,260.250
      -209.532,267.130
      -194.364,263.323
      -185.235,250.628
      -186.453,235.037
      -175.627,224.654
      -164.802,214.271
      -150.261,211.045
      -145.657,195.909
      -134.832,185.525
      -124.006,175.142
      -110.071,180.458
      -95.147,179.191
      -82.201,171.540
      -73.827,158.974
      -71.730,143.958
      -76.380,129.461
      -65.554,119.078
      -54.729,108.695
      -38.011,109.802
      -25.372,98.299
      -24.883,80.881
      -13.773,70.803
      -2.663,60.724
      8.447,50.646
      19.557,40.568
      30.667,30.490
      41.777,20.411
      48.946,18.217
      53.050,9.895
      63.876,-0.488
      74.701,-10.871
      85.527,-21.254
      96.352,-31.637
      95.650,-16.654
      106.239,-6.029
      121.224,-6.681
      130.851,-18.185
      128.850,-33.051
      116.526,-41.600
      131.351,-43.885
      146.176,-46.170
      161.001,-48.455
      175.826,-50.739
      190.907,-44.297
      203.862,-54.352
      201.364,-70.560
      185.983,-76.248
      173.541,-65.564
      158.716,-63.280
      143.891,-60.995
      129.066,-58.710
      114.241,-56.425
      111.151,-54.066
      108.062,-51.704
      111.776,-66.237
      115.490,-80.770
      119.204,-95.303
      122.919,-109.836
      126.633,-124.368
      130.347,-138.901
      134.061,-153.434
      148.871,-157.504
      159.651,-168.444
      163.501,-183.313
      159.385,-198.110
      148.410,-208.855
      133.530,-212.658
      118.746,-208.496
      108.035,-197.488
      104.278,-182.596
    " />
    <g style="stroke: black; stroke-width: 1; fill: none;" id="pairs">
      <line id="1,103" x1="119.52832" y1="-157.14841" x2="134.06120" y2="-153.43420" />
      <line id="2,102" x1="115.81413" y1="-142.61551" x2="130.34702" y2="-138.90132" />
      <line id="3,101" x1="112.09995" y1="-128.08263" x2="126.63284" y2="-124.36844" />
      <line id="4,100" x1="108.38576" y1="-113.54974" x2="122.91864" y2="-109.83556" />
      <line id="5,99" x1="104.67157" y1="-99.01685" x2="119.20445" y2="-95.30266" />
      <line id="6,98" x1="100.95737" y1="-84.48396" x2="115.49026" y2="-80.76978" />
      <line id="7,97" x1="97.24319" y1="-69.95108" x2="111.77608" y2="-66.23689" />
      <line id="8,96" x1="93.52900" y1="-55.41819" x2="108.06189" y2="-51.70400" />
      <line id="9,75" x1="85.96889" y1="-42.46270" x2="96.35204" y2="-31.63726" />
      <line id="10,74" x1="75.14345" y1="-32.07955" x2="85.52660" y2="-21.25411" />
      <line id="11,73" x1="64.31801" y1="-21.69640" x2="74.70116" y2="-10.87096" />
      <line id="12,72" x1="53.49257" y1="-11.31325" x2="63.87571" y2="-0.48781" />
      <line id="13,71" x1="42.66712" y1="-0.93010" x2="53.05027" y2="9.89534" />
      <line id="14,69" x1="31.69840" y1="9.30157" x2="41.77661" y2="20.41146" />
      <line id="15,68" x1="20.58851" y1="19.37978" x2="30.66672" y2="30.48967" />
      <line id="16,67" x1="9.47862" y1="29.45799" x2="19.55683" y2="40.56788" />
      <line id="17,66" x1="-1.63127" y1="39.53621" x2="8.44694" y2="50.64610" />
      <line id="18,65" x1="-12.74116" y1="49.61441" x2="-2.66295" y2="60.72430" />
      <line id="19,64" x1="-23.85105" y1="59.69263" x2="-13.77284" y2="70.80252" />
      <line id="20,63" x1="-34.96094" y1="69.77084" x2="-24.88273" y2="80.88073" />
      <line id="24,60" x1="-65.11193" y1="97.86973" x2="-54.72878" y2="108.69517" />
      <line id="25,59" x1="-75.93738" y1="108.25288" x2="-65.55422" y2="119.07832" />
      <line id="26,58" x1="-86.76282" y1="118.63603" x2="-76.37967" y2="129.46147" />
      <line id="32,52" x1="-134.38950" y1="164.31685" x2="-124.00635" y2="175.14229" />
      <line id="33,51" x1="-145.21494" y1="174.70000" x2="-134.83179" y2="185.52544" />
      <line id="34,50" x1="-156.04037" y1="185.08315" x2="-145.65723" y2="195.90858" />
      <line id="36,48" x1="-175.18513" y1="203.44571" x2="-164.80199" y2="214.27115" />
      <line id="37,47" x1="-186.01057" y1="213.82886" x2="-175.62743" y2="224.65430" />
      <line id="38,46" x1="-196.83601" y1="224.21202" x2="-186.45287" y2="235.03746" />
      <line id="81,94" x1="116.52591" y1="-41.60044" x2="114.24120" y2="-56.42542" />
      <line id="82,93" x1="131.35089" y1="-43.88515" x2="129.06618" y2="-58.71014" />
      <line id="83,92" x1="146.17587" y1="-46.16987" x2="143.89116" y2="-60.99485" />
      <line id="84,91" x1="161.00085" y1="-48.45458" x2="158.71614" y2="-63.27956" />
      <line id="85,90" x1="175.82584" y1="-50.73930" x2="173.54112" y2="-65.56428" />
    </g>
    <g style="font-family: SansSerif" transform="translate(-4.6, 4)" id="seq">
      <text x="119.528" y="-157.148">G</text>
      <text x="115.814" y="-142.616">G</text>
      <text x="112.100" y="-128.083">G</text>
      <text x="108.386" y="-113.550">C</text>
      <text x="104.672" y="-99.017">G</text>
      <text x="100.957" y="-84.484">A</text>
      <text x="97.243" y="-69.951">C</text>
      <text x="93.529" y="-55.418">C</text>
      <text x="85.969" y="-42.463">C</text>
      <text x="75.143" y="-32.080">U</text>
      <text x="64.318" y="-21.696">G</text>
      <text x="53.493" y="-11.313">A</text>
      <text x="42.667" y="-0.930">U</text>
      <text x="31.698" y="9.302">G</text>
      <text x="20.589" y="19.380">A</text>
      <text x="9.479" y="29.458">G</text>
      <text x="-1.631" y="39.536">C</text>
      <text x="-12.741" y="49.614">U</text>
      <text x="-23.851" y="59.693">U</text>
      <text x="-34.961" y="69.771">G</text>
      <text x="-48.335" y="67.574">G</text>
      <text x="-60.337" y="73.437">U</text>
      <text x="-66.639" y="84.993">U</text>
      <text x="-65.112" y="97.870">U</text>
      <text x="-75.937" y="108.253">A</text>
      <text x="-86.763" y="118.636">G</text>
      <text x="-101.053" y="113.386">U</text>
      <text x="-116.143" y="114.855">A</text>
      <text x="-129.047" y="122.698">U</text>
      <text x="-137.232" y="135.314">U</text>
      <text x="-139.120" y="150.172">U</text>
      <text x="-134.389" y="164.317">A</text>
      <text x="-145.215" y="174.700">C</text>
      <text x="-156.040" y="185.083">A</text>
      <text x="-171.356" y="189.052">G</text>
      <text x="-175.185" y="203.446">C</text>
      <text x="-186.011" y="213.829">U</text>
      <text x="-196.836" y="224.212">C</text>
      <text x="-212.362" y="222.345">C</text>
      <text x="-225.427" y="230.937">A</text>
      <text x="-229.863" y="245.933">U</text>
      <text x="-223.575" y="260.250">A</text>
      <text x="-209.532" y="267.130">C</text>
      <text x="-194.364" y="263.323">A</text>
      <text x="-185.235" y="250.628">U</text>
      <text x="-186.453" y="235.037">G</text>
      <text x="-175.627" y="224.654">A</text>
      <text x="-164.802" y="214.271">G</text>
      <text x="-150.261" y="211.045">G</text>
      <text x="-145.657" y="195.909">U</text>
      <text x="-134.832" y="185.525">G</text>
      <text x="-124.006" y="175.142">U</text>
      <text x="-110.071" y="180.458">U</text>
      <text x="-95.147" y="179.191">A</text>
      <text x="-82.201" y="171.540">U</text>
      <text x="-73.827" y="158.974">C</text>
      <text x="-71.730" y="143.958">C</text>
      <text x="-76.380" y="129.461">C</text>
      <text x="-65.554" y="119.078">U</text>
      <text x="-54.729" y="108.695">A</text>
      <text x="-38.011" y="109.802">U</text>
      <text x="-25.372" y="98.299">G</text>
      <text x="-24.883" y="80.881">C</text>
      <text x="-13.773" y="70.803">A</text>
      <text x="-2.663" y="60.724">A</text>
      <text x="8.447" y="50.646">G</text>
      <text x="19.557" y="40.568">U</text>
      <text x="30.667" y="30.490">U</text>
      <text x="41.777" y="20.411">C</text>
      <text x="48.946" y="18.217">G</text>
      <text x="53.050" y="9.895">A</text>
      <text x="63.876" y="-0.488">U</text>
      <text x="74.701" y="-10.871">C</text>
      <text x="85.527" y="-21.254">A</text>
      <text x="96.352" y="-31.637">G</text>
      <text x="95.650" y="-16.654">G</text>
      <text x="106.239" y="-6.029">C</text>
      <text x="121.224" y="-6.681">G</text>
      <text x="130.851" y="-18.185">A</text>
      <text x="128.850" y="-33.051">A</text>
      <text x="116.526" y="-41.600">A</text>
      <text x="131.351" y="-43.885">C</text>
      <text x="146.176" y="-46.170">G</text>
      <text x="161.001" y="-48.455">G</text>
      <text x="175.826" y="-50.739">U</text>
      <text x="190.907" y="-44.297">G</text>
      <text x="203.862" y="-54.352">A</text>
      <text x="201.364" y="-70.560">A</text>
      <text x="185.983" y="-76.248">A</text>
      <text x="173.541" y="-65.564">G</text>
      <text x="158.716" y="-63.280">C</text>
      <text x="143.891" y="-60.995">C</text>
      <text x="129.066" y="-58.710">G</text>
      <text x="114.241" y="-56.425">U</text>
      <text x="111.151" y="-54.066">A</text>
      <text x="108.062" y="-51.704">G</text>
      <text x="111.776" y="-66.237">G</text>
      <text x="115.490" y="-80.770">U</text>
      <text x="119.204" y="-95.303">U</text>
      <text x="122.919" y="-109.836">G</text>
      <text x="126.633" y="-124.368">C</text>
      <text x="130.347" y="-138.901">C</text>
      <text x="134.061" y="-153.434">C</text>
      <text x="148.871" y="-157.504">A</text>
      <text x="159.651" y="-168.444">G</text>
      <text x="163.501" y="-183.313">A</text>
      <text x="159.385" y="-198.110">G</text>
      <text x="148.410" y="-208.855">A</text>
      <text x="133.530" y="-212.658">C</text>
      <text x="118.746" y="-208.496">A</text>
      <text x="108.035" y="-197.488">A</text>
      <text x="104.278" y="-182.596">U</text>
    </g>
  </g>
</svg>
