<?xml version="1.0" encoding="UTF-8" standalone="yes"?>
<svg xmlns="http://www.w3.org/2000/svg" height="452" width="452">
<script type="text/ecmascript">
      <![CDATA[
        var shown = 1;
        function click() {
             var seq = document.getElementById("seq");
             if (shown==1) {
               seq.setAttribute("style", "visibility: hidden");
               shown = 0;
             } else {
               seq.setAttribute("style", "visibility: visible");
               shown = 1;
             }
         }
        ]]>
</script>
  <rect style="stroke: white; fill: white" height="452" x="0" y="0" width="452" onclick="click(evt)" />
  <g transform="scale(0.929069,0.929069) translate(242.023865,257.263550)">
    <polyline style="stroke: black; fill: none; stroke-width: 1.5" id="outline" points="
      71.473,-249.764
      71.473,-234.764
      71.473,-219.764
      71.473,-204.764
      71.473,-189.764
      71.473,-174.764
      71.473,-159.764
      71.473,-144.764
      67.010,-130.443
      58.489,-118.098
      49.968,-105.753
      41.447,-93.408
      32.926,-81.064
      24.220,-68.849
      15.330,-56.767
      6.440,-44.686
      -2.450,-32.604
      -11.340,-20.522
      -20.230,-8.440
      -29.120,3.642
      -38.191,15.588
      -47.442,27.395
      -66.412,33.875
      -68.695,52.976
      -78.642,64.203
      -88.588,75.431
      -97.240,74.327
      -105.502,76.806
      -111.972,82.368
      -115.581,89.993
      -115.778,98.331
      -112.606,105.942
      -121.126,118.286
      -129.647,130.631
      -143.855,137.593
      -144.717,152.463
      -153.238,164.808
      -161.759,177.152
      -177.343,178.440
      -188.418,189.480
      -189.753,205.060
      -180.719,217.824
      -165.581,221.745
      -151.487,214.971
      -145.091,200.702
      -149.414,185.673
      -140.893,173.329
      -132.372,160.984
      -118.774,154.905
      -117.303,139.152
      -108.782,126.807
      -100.261,114.463
      -79.818,107.559
      -77.361,85.378
      -67.414,74.150
      -57.467,62.923
      -47.048,63.203
      -38.057,57.506
      -33.681,47.560
      -35.634,36.646
      -26.383,24.838
      -19.669,21.458
      -17.038,12.531
      -8.148,0.450
      0.742,-11.632
      9.632,-23.714
      18.522,-35.796
      27.412,-47.877
      36.302,-59.959
      42.911,-63.541
      45.271,-72.543
      53.792,-84.888
      62.313,-97.232
      70.834,-109.577
      79.355,-121.922
      85.222,-113.209
      94.288,-108.522
      104.192,-108.758
      112.507,-113.575
      117.330,-121.539
      117.717,-130.543
      130.314,-138.687
      142.910,-146.831
      155.507,-154.975
      168.103,-163.120
      184.500,-163.404
      192.214,-177.875
      183.310,-191.647
      166.948,-190.551
      159.959,-175.716
      147.363,-167.572
      134.766,-159.428
      122.170,-151.283
      109.573,-143.139
      98.866,-147.697
      86.473,-144.764
      86.473,-159.764
      86.473,-174.764
      86.473,-189.764
      86.473,-204.764
      86.473,-219.764
      86.473,-234.764
      86.473,-249.764
    " />
    <g style="stroke: black; stroke-width: 1; fill: none;" id="pairs">
      <line id="1,103" x1="71.47289" y1="-249.76357" x2="86.47289" y2="-249.76357" />
      <line id="2,102" x1="71.47289" y1="-234.76357" x2="86.47289" y2="-234.76357" />
      <line id="3,101" x1="71.47289" y1="-219.76357" x2="86.47289" y2="-219.76357" />
      <line id="4,100" x1="71.47289" y1="-204.76357" x2="86.47289" y2="-204.76357" />
      <line id="5,99" x1="71.47289" y1="-189.76357" x2="86.47289" y2="-189.76357" />
      <line id="6,98" x1="71.47289" y1="-174.76357" x2="86.47289" y2="-174.76357" />
      <line id="7,97" x1="71.47289" y1="-159.76357" x2="86.47289" y2="-159.76357" />
      <line id="8,96" x1="71.47289" y1="-144.76358" x2="86.47289" y2="-144.76358" />
      <line id="9,75" x1="67.01035" y1="-130.44275" x2="79.35510" y2="-121.92178" />
      <line id="10,74" x1="58.48937" y1="-118.09800" x2="70.83413" y2="-109.57703" />
      <line id="11,73" x1="49.96840" y1="-105.75324" x2="62.31316" y2="-97.23227" />
      <line id="12,72" x1="41.44743" y1="-93.40849" x2="53.79219" y2="-84.88751" />
      <line id="13,71" x1="32.92646" y1="-81.06372" x2="45.27122" y2="-72.54276" />
      <line id="14,69" x1="24.22001" y1="-68.84907" x2="36.30178" y2="-59.95914" />
      <line id="15,68" x1="15.33008" y1="-56.76730" x2="27.41185" y2="-47.87737" />
      <line id="16,67" x1="6.44015" y1="-44.68554" x2="18.52191" y2="-35.79560" />
      <line id="17,66" x1="-2.44979" y1="-32.60377" x2="9.63198" y2="-23.71383" />
      <line id="18,65" x1="-11.33972" y1="-20.52200" x2="0.74205" y2="-11.63207" />
      <line id="19,64" x1="-20.22965" y1="-8.44024" x2="-8.14788" y2="0.44970" />
      <line id="20,63" x1="-29.11959" y1="3.64153" x2="-17.03782" y2="12.53147" />
      <line id="21,61" x1="-38.19098" y1="15.58765" x2="-26.38322" y2="24.83844" />
      <line id="22,60" x1="-47.44176" y1="27.39541" x2="-35.63401" y2="36.64619" />
      <line id="24,56" x1="-68.69478" y1="52.97579" x2="-57.46712" y2="62.92264" />
      <line id="25,55" x1="-78.64162" y1="64.20345" x2="-67.41396" y2="74.15030" />
      <line id="26,54" x1="-88.58846" y1="75.43111" x2="-77.36080" y2="85.37796" />
      <line id="32,52" x1="-112.60551" y1="105.94168" x2="-100.26076" y2="114.46265" />
      <line id="33,51" x1="-121.12649" y1="118.28644" x2="-108.78173" y2="126.80740" />
      <line id="34,50" x1="-129.64746" y1="130.63120" x2="-117.30270" y2="139.15216" />
      <line id="36,48" x1="-144.71677" y1="152.46284" x2="-132.37201" y2="160.98383" />
      <line id="37,47" x1="-153.23773" y1="164.80760" x2="-140.89297" y2="173.32858" />
      <line id="38,46" x1="-161.75871" y1="177.15236" x2="-149.41394" y2="185.67334" />
      <line id="81,94" x1="117.71744" y1="-130.54257" x2="109.57320" y2="-143.13907" />
      <line id="82,93" x1="130.31392" y1="-138.68681" x2="122.16969" y2="-151.28329" />
      <line id="83,92" x1="142.91042" y1="-146.83105" x2="134.76617" y2="-159.42754" />
      <line id="84,91" x1="155.50690" y1="-154.97528" x2="147.36266" y2="-167.57176" />
      <line id="85,90" x1="168.10338" y1="-163.11952" x2="159.95915" y2="-175.71600" />
    </g>
    <g style="font-family: SansSerif" transform="translate(-4.6, 4)" id="seq">
      <text x="71.473" y="-249.764">G</text>
      <text x="71.473" y="-234.764">G</text>
      <text x="71.473" y="-219.764">G</text>
      <text x="71.473" y="-204.764">C</text>
      <text x="71.473" y="-189.764">G</text>
      <text x="71.473" y="-174.764">A</text>
      <text x="71.473" y="-159.764">C</text>
      <text x="71.473" y="-144.764">C</text>
      <text x="67.010" y="-130.443">C</text>
      <text x="58.489" y="-118.098">U</text>
      <text x="49.968" y="-105.753">G</text>
      <text x="41.447" y="-93.408">A</text>
      <text x="32.926" y="-81.064">U</text>
      <text x="24.220" y="-68.849">G</text>
      <text x="15.330" y="-56.767">A</text>
      <text x="6.440" y="-44.686">G</text>
      <text x="-2.450" y="-32.604">C</text>
      <text x="-11.340" y="-20.522">U</text>
      <text x="-20.230" y="-8.440">U</text>
      <text x="-29.120" y="3.642">G</text>
      <text x="-38.191" y="15.588">G</text>
      <text x="-47.442" y="27.395">U</text>
      <text x="-66.412" y="33.875">U</text>
      <text x="-68.695" y="52.976">G</text>
      <text x="-78.642" y="64.203">A</text>
      <text x="-88.588" y="75.431">G</text>
      <text x="-97.240" y="74.327">U</text>
      <text x="-105.502" y="76.806">A</text>
      <text x="-111.972" y="82.368">U</text>
      <text x="-115.581" y="89.993">U</text>
      <text x="-115.778" y="98.331">U</text>
      <text x="-112.606" y="105.942">A</text>
      <text x="-121.126" y="118.286">C</text>
      <text x="-129.647" y="130.631">A</text>
      <text x="-143.855" y="137.593">G</text>
      <text x="-144.717" y="152.463">C</text>
      <text x="-153.238" y="164.808">U</text>
      <text x="-161.759" y="177.152">C</text>
      <text x="-177.343" y="178.440">C</text>
      <text x="-188.418" y="189.480">A</text>
      <text x="-189.753" y="205.060">U</text>
      <text x="-180.719" y="217.824">A</text>
      <text x="-165.581" y="221.745">C</text>
      <text x="-151.487" y="214.971">A</text>
      <text x="-145.091" y="200.702">U</text>
      <text x="-149.414" y="185.673">G</text>
      <text x="-140.893" y="173.329">A</text>
      <text x="-132.372" y="160.984">G</text>
      <text x="-118.774" y="154.905">G</text>
      <text x="-117.303" y="139.152">U</text>
      <text x="-108.782" y="126.807">G</text>
      <text x="-100.261" y="114.463">U</text>
      <text x="-79.818" y="107.559">U</text>
      <text x="-77.361" y="85.378">C</text>
      <text x="-67.414" y="74.150">U</text>
      <text x="-57.467" y="62.923">C</text>
      <text x="-47.048" y="63.203">C</text>
      <text x="-38.057" y="57.506">C</text>
      <text x="-33.681" y="47.560">U</text>
      <text x="-35.634" y="36.646">A</text>
      <text x="-26.383" y="24.838">C</text>
      <text x="-19.669" y="21.458">G</text>
      <text x="-17.038" y="12.531">C</text>
      <text x="-8.148" y="0.450">A</text>
      <text x="0.742" y="-11.632">A</text>
      <text x="9.632" y="-23.714">G</text>
      <text x="18.522" y="-35.796">U</text>
      <text x="27.412" y="-47.877">U</text>
      <text x="36.302" y="-59.959">C</text>
      <text x="42.911" y="-63.541">G</text>
      <text x="45.271" y="-72.543">A</text>
      <text x="53.792" y="-84.888">U</text>
      <text x="62.313" y="-97.232">C</text>
      <text x="70.834" y="-109.577">A</text>
      <text x="79.355" y="-121.922">G</text>
      <text x="85.222" y="-113.209">G</text>
      <text x="94.288" y="-108.522">C</text>
      <text x="104.192" y="-108.758">G</text>
      <text x="112.507" y="-113.575">A</text>
      <text x="117.330" y="-121.539">A</text>
      <text x="117.717" y="-130.543">A</text>
      <text x="130.314" y="-138.687">C</text>
      <text x="142.910" y="-146.831">G</text>
      <text x="155.507" y="-154.975">G</text>
      <text x="168.103" y="-163.120">U</text>
      <text x="184.500" y="-163.404">G</text>
      <text x="192.214" y="-177.875">A</text>
      <text x="183.310" y="-191.647">A</text>
      <text x="166.948" y="-190.551">A</text>
      <text x="159.959" y="-175.716">G</text>
      <text x="147.363" y="-167.572">C</text>
      <text x="134.766" y="-159.428">C</text>
      <text x="122.170" y="-151.283">G</text>
      <text x="109.573" y="-143.139">U</text>
      <text x="98.866" y="-147.697">A</text>
      <text x="86.473" y="-144.764">G</text>
      <text x="86.473" y="-159.764">G</text>
      <text x="86.473" y="-174.764">U</text>
      <text x="86.473" y="-189.764">U</text>
      <text x="86.473" y="-204.764">G</text>
      <text x="86.473" y="-219.764">C</text>
      <text x="86.473" y="-234.764">C</text>
      <text x="86.473" y="-249.764">C</text>
    </g>
  </g>
</svg>
